<?xml version="1.0" standalone="no"?>
<!DOCTYPE svg PUBLIC "-//W3C//DTD SVG 1.1//EN" "http://www.w3.org/Graphics/SVG/1.1/DTD/svg11.dtd" >
<svg xmlns="http://www.w3.org/2000/svg" xmlns:xlink="http://www.w3.org/1999/xlink" version="1.1">
<metadata>
Created by FontForge 20201107 at Tue Feb 13 14:28:12 2024
 By 
Copyright (c) 2020 Monotype GmbH. All rights reserved.
</metadata>
<defs>
<font id="AvenirNextWorld-Demi" horiz-adv-x="0" >
  <font-face 
    font-family="Avenir Next World Demi"
    font-weight="600"
    font-stretch="normal"
    units-per-em="2048"
    panose-1="2 11 7 3 2 2 2 2 2 4"
    ascent="1552"
    descent="-496"
    x-height="991"
    cap-height="1450"
    bbox="-1778 -1057 2916 2363"
    underline-thickness="102"
    underline-position="-204"
    unicode-range="U+000D-FEFF"
  />
<missing-glyph horiz-adv-x="1048" 
d="M1049 0h-1049v1470h1049v-1470zM102 1366v-1264h844v1264h-844zM555 479h-94q-4 24 -4 35q0 115 26 166q33 64 95 121q64 59 83 93.5t19 76.5q0 73 -46 123.5t-110 50.5q-67 0 -112 -47.5t-56 -147.5l-102 17q13 141 87 210.5t189 69.5q110 0 182 -74t72 -194
q0 -70 -26.5 -123.5t-102.5 -122.5q-77 -68 -88 -106q-12 -41 -12 -148zM569 240h-114v137h114v-137z" />
    <glyph glyph-name="uniFB00" unicode="ff" horiz-adv-x="1284" 
d="M432 0h-246v795h-186v196h186v137q0 94 20 170t64 140t124 99.5t190 35.5q73 0 125 -14l-17 -209q-47 14 -94 14q-166 0 -166 -221v-152h375v137q0 74 11.5 137t40.5 121t73.5 98.5t113.5 64.5t158 24q73 0 125 -14l-16 -209q-47 14 -94 14q-166 0 -166 -221v-152h227
v-196h-227v-795h-246v795h-375v-795z" />
    <glyph glyph-name="uniFB03" unicode="ffi" horiz-adv-x="1832" 
d="M432 0h-246v795h-186v196h186v137q0 94 20 170t64 140t124 99.5t190 35.5q73 0 125 -14l-17 -209q-47 14 -94 14q-166 0 -166 -221v-152h375v137q0 74 11.5 137t40.5 121t73.5 98.5t113.5 64.5t158 24q73 0 125 -14l-16 -209q-47 14 -94 14q-166 0 -166 -221v-152h227
v-196h-227v-795h-246v795h-375v-795zM1554 1169q-66 0 -110.5 44t-44.5 104t44.5 103.5t110.5 43.5q68 0 114 -42t46 -105t-46 -105.5t-114 -42.5zM1679 0h-245v991h245v-991z" />
    <glyph glyph-name="uniFB04" unicode="ffl" horiz-adv-x="1832" 
d="M432 0h-246v795h-186v196h186v137q0 94 20 170t64 140t124 99.5t190 35.5q73 0 125 -14l-17 -209q-47 14 -94 14q-166 0 -166 -221v-152h375v137q0 74 11.5 137t40.5 121t73.5 98.5t113.5 64.5t158 24q73 0 125 -14l-16 -209q-47 14 -94 14q-166 0 -166 -221v-152h227
v-196h-227v-795h-246v795h-375v-795zM1683 0h-245v1548h245v-1548z" />
    <glyph glyph-name="uniFDF2" unicode="&#x627;&#xfedf;&#xfee0;&#xfeea;" horiz-adv-x="2918" arabic-form="isolated" 
d="M1532 1917v-262l-105 -31h-12v293h117zM1376 1300q-69 0 -108 38t-39 102q0 54 22 110l72 -18q-6 -30 -6 -51q0 -68 61 -68q52 0 52 68q0 14 -3 32l74 17q12 -41 12 -76v-6q29 -18 60 -18q49 0 49 57q0 37 -14 78l80 30q34 -69 34 -133q0 -66 -35 -105.5t-94 -39.5
q-55 0 -106 37q-33 -54 -111 -54zM2023 453v1095h250v-1163q0 -203 -107 -294t-329 -91q-232 0 -317 121q-54 -64 -147 -92.5t-232 -28.5q-271 0 -357 86q-125 -59 -266 -59q-127 0 -226.5 42.5t-160.5 133t-61 217.5q0 88 32.5 165.5t94.5 139t162.5 97.5t226.5 36h379
v-459q0 -101 37.5 -138.5t138.5 -37.5q125 0 167 49t42 181v747h249v-772q0 -205 216 -205q125 0 166.5 49t41.5 181zM2537 0v1548h250v-1548h-250zM702 287v350h-153q-105 0 -167.5 -52.5t-62.5 -146.5q0 -182 234 -182q89 0 149 31z" />
    <glyph glyph-name="uniFEF5" unicode="&#xfedf;&#xfe82;" horiz-adv-x="1411" arabic-form="isolated" 
d="M1030 459v1089h248v-1153q0 -203 -111 -299t-340 -96h-757v223h383v903h247v-903h121q117 0 163 52.5t46 183.5zM401 1350q-44 0 -94 -35l-74 96q85 82 173 82q38 0 148.5 -28.5t154.5 -28.5q31 0 52.5 9.5t53.5 37.5l84 -86q-75 -103 -182 -103q-58 0 -172.5 28
t-143.5 28z" />
    <glyph glyph-name="uniFEF6" unicode="&#xfee0;&#xfe82;" horiz-adv-x="1492" arabic-form="final" 
d="M1493 223q41 0 41 -119q0 -104 -41 -104q-215 0 -299 123q-108 -123 -367 -123h-757v223h383v903h247v-903h121q117 0 163 52.5t46 183.5v1089h248v-1120q0 -205 215 -205zM401 1350q-44 0 -94 -35l-74 96q85 82 173 82q38 0 148.5 -28.5t154.5 -28.5q31 0 52.5 9.5
t53.5 37.5l84 -86q-75 -103 -182 -103q-58 0 -172.5 28t-143.5 28z" />
    <glyph glyph-name="uniFEF7" unicode="&#xfedf;&#xfe84;" horiz-adv-x="1411" arabic-form="isolated" 
d="M586 1403h168v-115h-351v115h68q-25 45 -25 90q0 71 50.5 115.5t134.5 44.5q50 0 104 -15l-20 -108q-36 8 -66 8q-38 0 -61 -18t-23 -52q0 -25 21 -65zM1030 459v1089h248v-1153q0 -203 -111 -299t-340 -96h-757v223h383v903h247v-903h121q117 0 163 52.5t46 183.5z" />
    <glyph glyph-name="uniFEF8" unicode="&#xfee0;&#xfe84;" horiz-adv-x="1492" arabic-form="final" 
d="M584 1393h168v-115h-351v115h68q-25 45 -25 90q0 71 50.5 115t134.5 44q53 0 104 -14l-20 -108q-36 8 -66 8q-38 0 -61 -18t-23 -52q0 -30 21 -65zM1493 223q41 0 41 -119q0 -104 -41 -104q-215 0 -299 123q-108 -123 -367 -123h-757v223h383v903h247v-903h121
q117 0 163 52.5t46 183.5v1089h248v-1120q0 -205 215 -205z" />
    <glyph glyph-name="uniFEF9" unicode="&#xfedf;&#xfe88;" horiz-adv-x="1411" arabic-form="isolated" 
d="M1030 459v1089h248v-1153q0 -203 -111 -299t-340 -96h-757v223h383v903h247v-903h121q117 0 163 52.5t46 183.5zM559 -342q0 -26 21 -66h168v-114h-351v114h68q-25 45 -25 91q0 71 50.5 115t134.5 44q53 0 104 -14l-20 -109q-41 9 -66 9q-38 0 -61 -18t-23 -52z" />
    <glyph glyph-name="uniFEFA" unicode="&#xfee0;&#xfe88;" horiz-adv-x="1492" arabic-form="final" 
d="M1493 223q41 0 41 -119q0 -104 -41 -104q-215 0 -299 123q-108 -123 -367 -123h-757v223h383v903h247v-903h121q117 0 163 52.5t46 183.5v1089h248v-1120q0 -205 215 -205zM559 -342q0 -26 21 -66h168v-114h-351v114h68q-25 45 -25 91q0 71 50.5 115t134.5 44
q53 0 104 -14l-20 -109q-41 9 -66 9q-38 0 -61 -18t-23 -52z" />
    <glyph glyph-name="uniFEFB" unicode="&#xfedf;&#xfe8e;" horiz-adv-x="1411" arabic-form="isolated" 
d="M1030 459v1089h248v-1153q0 -203 -111 -299t-340 -96h-757v223h383v903h247v-903h121q117 0 163 52.5t46 183.5z" />
    <glyph glyph-name="uniFEFC" unicode="&#xfee0;&#xfe8e;" horiz-adv-x="1492" arabic-form="final" 
d="M1493 223q41 0 41 -119q0 -104 -41 -104q-215 0 -299 123q-108 -123 -367 -123h-757v223h383v903h247v-903h121q117 0 163 52.5t46 183.5v1089h248v-1120q0 -205 215 -205z" />
    <glyph glyph-name="f_i" unicode="fi" horiz-adv-x="1212" 
d="M432 0h-246v795h-186v196h186v137q0 94 20 170t64 140t124 99.5t190 35.5q73 0 125 -14l-17 -209q-47 14 -94 14q-166 0 -166 -221v-152h227v-196h-227v-795zM936 1169q-66 0 -111 44t-45 104t45 103.5t111 43.5q68 0 114 -42t46 -105t-46 -105.5t-114 -42.5zM1061 0
h-246v991h246v-991z" />
    <glyph glyph-name="f_l" unicode="fl" horiz-adv-x="1212" 
d="M432 0h-246v795h-186v196h186v137q0 94 20 170t64 140t124 99.5t190 35.5q73 0 125 -14l-17 -209q-47 14 -94 14q-166 0 -166 -221v-152h227v-196h-227v-795zM1061 0h-246v1548h246v-1548z" />
    <glyph glyph-name="uniFEDFFB51" unicode="&#xfedf;&#xfb51;" horiz-adv-x="1411" 
d="M836 1432q0 -66 -29 -140h-512v113h90v205h107v-84q72 92 172 92q78 0 125 -50.5t47 -135.5zM1030 459v1089h248v-1153q0 -203 -111 -299t-340 -96h-757v223h383v903h247v-903h121q117 0 163 52.5t46 183.5zM639 1505q-41 0 -82 -26t-74 -74h236q2 8 2 25q0 34 -22 54.5
t-60 20.5z" />
    <glyph glyph-name="uniFEE0FB51" unicode="&#xfee0;&#xfb51;" horiz-adv-x="1492" 
d="M836 1432q0 -66 -29 -140h-512v113h90v205h107v-84q72 92 172 92q78 0 125 -50.5t47 -135.5zM1493 223q41 0 41 -119q0 -104 -41 -104q-215 0 -299 123q-108 -123 -367 -123h-757v223h383v903h247v-903h121q117 0 163 52.5t46 183.5v1089h248v-1120q0 -205 215 -205z
M639 1505q-41 0 -82 -26t-74 -74h236q2 8 2 25q0 34 -22 54.5t-60 20.5z" />
    <glyph glyph-name="uni0531055B.liga" unicode="&#x531;&#x55b;" horiz-adv-x="2283" 
d="M1663 1235l217 313h274l-296 -313h-195zM1341 1450v-895q208 -9 306 -99t98 -288v-170h-248v141q0 104 -39 152t-147 51q-54 -171 -195.5 -275t-361.5 -104q-144 0 -258 47.5t-184 128.5t-106 184t-36 220v907h258v-887q0 -73 18 -136t55 -116t102.5 -83.5t152.5 -30.5
t152.5 30.5t102.5 83.5t54.5 116t17.5 136v887h258z" />
    <glyph glyph-name="uni0531055C.liga" unicode="&#x531;&#x55c;" horiz-adv-x="2426" 
d="M2107 1550h191q0 -61 -12.5 -103t-42 -70.5t-63.5 -45.5t-89 -35q-17 -6 -39.5 -13.5t-35.5 -11.5t-30 -10t-26 -10t-20 -9.5t-16.5 -11t-11 -12.5t-7.5 -15t-2 -17h-193q0 47 10 82t27 57.5t45 40t57 29t70 25.5q7 2 10 3q104 35 141 60.5t37 66.5zM1341 1450v-895
q208 -9 306 -99t98 -288v-170h-248v141q0 104 -39 152t-147 51q-54 -171 -195.5 -275t-361.5 -104q-144 0 -258 47.5t-184 128.5t-106 184t-36 220v907h258v-887q0 -73 18 -136t55 -116t102.5 -83.5t152.5 -30.5t152.5 30.5t102.5 83.5t54.5 116t17.5 136v887h258z" />
    <glyph glyph-name="uni0531055E.liga" unicode="&#x531;&#x55e;" horiz-adv-x="2603" 
d="M2118 1583q112 0 186 -54t74 -145q0 -98 -72.5 -156.5t-191.5 -58.5v150q20 0 36.5 12t16.5 31q0 47 -68 47q-178 0 -178 -242h-213q0 176 115.5 296t294.5 120zM1341 1450v-895q208 -9 306 -99t98 -288v-170h-248v141q0 104 -39 152t-147 51q-54 -171 -195.5 -275
t-361.5 -104q-144 0 -258 47.5t-184 128.5t-106 184t-36 220v907h258v-887q0 -73 18 -136t55 -116t102.5 -83.5t152.5 -30.5t152.5 30.5t102.5 83.5t54.5 116t17.5 136v887h258z" />
    <glyph glyph-name="uni0535055B.liga" unicode="&#x535;&#x55b;" horiz-adv-x="2250" 
d="M1628 1235l217 313h275l-297 -313h-195zM170 1450h258v-459h911v-223h-911v-205q0 -73 18 -136t54.5 -116t101.5 -83.5t152 -30.5q65 0 117.5 20t87 53t58 78t34 93.5t10.5 101.5v73h260v-90q0 -89 -22.5 -171t-69.5 -153.5t-113.5 -124.5t-160 -83.5t-203.5 -30.5
q-144 0 -257.5 47.5t-183 128.5t-105.5 184t-36 220v907z" />
    <glyph glyph-name="uni0535055C.liga" unicode="&#x535;&#x55c;" horiz-adv-x="2394" 
d="M2073 1550h192q0 -61 -13 -103t-42.5 -70.5t-63 -45.5t-88.5 -35q-19 -7 -49.5 -16.5t-44 -14t-34 -12.5t-28.5 -13.5t-18 -14t-13 -18t-3 -21.5h-191q0 31 3 56t13 45t17.5 34.5t27 28.5t30 21.5t39 19t41 16t48.5 16.5q103 35 140 60.5t37 66.5zM170 1450h258v-459h911
v-223h-911v-205q0 -73 18 -136t54.5 -116t101.5 -83.5t152 -30.5q65 0 117.5 20t87 53t58 78t34 93.5t10.5 101.5v73h260v-90q0 -89 -22.5 -171t-69.5 -153.5t-113.5 -124.5t-160 -83.5t-203.5 -30.5q-144 0 -257.5 47.5t-183 128.5t-105.5 184t-36 220v907z" />
    <glyph glyph-name="uni0535055E.liga" unicode="&#x535;&#x55e;" horiz-adv-x="2570" 
d="M2083 1583q112 0 187 -54t75 -145q0 -98 -73 -156.5t-193 -58.5v150q20 0 37.5 12t17.5 31q0 23 -19 35t-51 12q-178 0 -178 -242h-213q0 176 115.5 296t294.5 120zM170 1450h258v-459h911v-223h-911v-205q0 -73 18 -136t54.5 -116t101.5 -83.5t152 -30.5q65 0 117.5 20
t87 53t58 78t34 93.5t10.5 101.5v73h260v-90q0 -89 -22.5 -171t-69.5 -153.5t-113.5 -124.5t-160 -83.5t-203.5 -30.5q-144 0 -257.5 47.5t-183 128.5t-105.5 184t-36 220v907z" />
    <glyph glyph-name="uni0538055B.liga" unicode="&#x538;&#x55b;" horiz-adv-x="2213" 
d="M1591 1235l217 313h275l-295 -313h-197zM428 887v-660h905v-227h-1163v907q0 117 36 220t105.5 184t183 128.5t257.5 47.5q138 0 248.5 -47.5t179.5 -128.5t105 -184.5t36 -219.5v-100h-258v80q0 73 -17 136.5t-52.5 116t-97 83t-142.5 30.5q-87 0 -152.5 -30.5
t-102 -83.5t-54 -116t-17.5 -136z" />
    <glyph glyph-name="uni0538055C.liga" unicode="&#x538;&#x55c;" horiz-adv-x="2357" 
d="M2038 1550h190q0 -61 -12.5 -103t-42 -70.5t-63.5 -45.5t-89 -35q-19 -7 -49.5 -16.5t-44 -14t-34 -12.5t-28.5 -13.5t-18 -14t-13 -18t-3 -21.5h-191q0 27 4 50.5t8 41t16 34t19 26.5t27 22.5t29 18t36 16t37.5 14l43.5 14.5q103 35 140.5 60.5t37.5 66.5zM428 887v-660
h905v-227h-1163v907q0 117 36 220t105.5 184t183 128.5t257.5 47.5q138 0 248.5 -47.5t179.5 -128.5t105 -184.5t36 -219.5v-100h-258v80q0 73 -17 136.5t-52.5 116t-97 83t-142.5 30.5q-87 0 -152.5 -30.5t-102 -83.5t-54 -116t-17.5 -136z" />
    <glyph glyph-name="uni0538055E.liga" unicode="&#x538;&#x55e;" horiz-adv-x="2437" 
d="M2046 1583q113 0 187.5 -54t74.5 -145q0 -98 -73 -156.5t-193 -58.5v150q20 0 37.5 12t17.5 31q0 23 -18.5 35t-48.5 12q-89 0 -134 -62.5t-45 -179.5h-215q0 176 115.5 296t294.5 120zM428 887v-660h905v-227h-1163v907q0 117 36 220t105.5 184t183 128.5t257.5 47.5
q138 0 248.5 -47.5t179.5 -128.5t105 -184.5t36 -219.5v-100h-258v80q0 73 -17 136.5t-52.5 116t-97 83t-142.5 30.5q-87 0 -152.5 -30.5t-102 -83.5t-54 -116t-17.5 -136z" />
    <glyph glyph-name="uni053B055B.liga" unicode="&#x53b;&#x55b;" horiz-adv-x="2088" 
d="M1960 1548l-297 -313h-195l218 313h274zM203 1450h260v-530h6q44 82 143.5 136t223.5 54q242 0 369.5 -137t127.5 -371v-229h-258v194q0 150 -70.5 233t-205.5 83q-150 0 -240.5 -97t-91.5 -278l-4 -508h-260v1450z" />
    <glyph glyph-name="uni053B055C.liga" unicode="&#x53b;&#x55c;" horiz-adv-x="2232" 
d="M1708 1186h-192q0 47 10 82t27 57.5t45 40t57 29t70 25.5q7 2 10 3q104 35 141 60.5t37 66.5h190q0 -61 -12.5 -103t-42 -70.5t-63.5 -45.5t-89 -35q-17 -6 -39.5 -13.5t-35.5 -11.5t-30 -10t-26 -10t-20 -9.5t-16.5 -11t-11 -12.5t-7.5 -15t-2 -17zM203 1450h260v-530h6
q44 82 143.5 136t223.5 54q242 0 369.5 -137t127.5 -371v-229h-258v194q0 150 -70.5 233t-205.5 83q-150 0 -240.5 -97t-91.5 -278l-4 -508h-260v1450z" />
    <glyph glyph-name="uni053B055E.liga" unicode="&#x53b;&#x55e;" horiz-adv-x="2408" 
d="M2183 1384q0 -98 -72.5 -156.5t-191.5 -58.5v150q20 0 36.5 12t16.5 31q0 47 -67 47q-89 0 -134 -62.5t-45 -179.5h-213q0 176 115.5 296t294.5 120q112 0 186 -54t74 -145zM203 1450h260v-530h6q44 82 143.5 136t223.5 54q242 0 369.5 -137t127.5 -371v-229h-258v194
q0 150 -70.5 233t-205.5 83q-150 0 -240.5 -97t-91.5 -278l-4 -508h-260v1450z" />
    <glyph glyph-name="uni0548055B.liga" unicode="&#x548;&#x55b;" horiz-adv-x="2265" 
d="M2134 1548l-297 -313h-195l218 313h274zM758 1487q144 0 257.5 -47.5t183.5 -128.5t106 -184t36 -220v-907h-258v887q0 73 -17.5 136t-54.5 116t-102.5 83.5t-152.5 30.5t-152.5 -30.5t-102.5 -83.5t-55 -116t-18 -136v-887h-258v907q0 117 37 220t107.5 184t185 128.5
t258.5 47.5z" />
    <glyph glyph-name="uni0548055C.liga" unicode="&#x548;&#x55c;" horiz-adv-x="2408" 
d="M1882 1186h-190q0 31 3 56t13 45t17.5 34.5t27 28.5t30 21.5t39 19t41 16t48.5 16.5q103 35 139.5 60.5t36.5 66.5h192q0 -61 -13 -103t-42 -70.5t-62.5 -45.5t-88.5 -35q-20 -7 -50 -16.5t-44 -14.5t-34 -12.5t-28.5 -13t-18 -14t-13 -18t-3.5 -21.5zM758 1487
q144 0 257.5 -47.5t183.5 -128.5t106 -184t36 -220v-907h-258v887q0 73 -17.5 136t-54.5 116t-102.5 83.5t-152.5 30.5t-152.5 -30.5t-102.5 -83.5t-55 -116t-18 -136v-887h-258v907q0 117 37 220t107.5 184t185 128.5t258.5 47.5z" />
    <glyph glyph-name="uni0548055E.liga" unicode="&#x548;&#x55e;" horiz-adv-x="2584" 
d="M2359 1384q0 -98 -73 -156.5t-193 -58.5v150q20 0 37.5 12t17.5 31q0 23 -18.5 35t-50.5 12q-178 0 -178 -242h-213q0 176 115 296t294 120q112 0 187 -54t75 -145zM758 1487q144 0 257.5 -47.5t183.5 -128.5t106 -184t36 -220v-907h-258v887q0 73 -17.5 136t-54.5 116
t-102.5 83.5t-152.5 30.5t-152.5 -30.5t-102.5 -83.5t-55 -116t-18 -136v-887h-258v907q0 117 37 220t107.5 184t185 128.5t258.5 47.5z" />
    <glyph glyph-name="uni0552055B.liga" unicode="&#x552;&#x55b;" horiz-adv-x="1792" 
d="M1171 1235l218 313h274l-297 -313h-195zM1026 664q42 -65 102 -89t175 -24v-227q-169 0 -271 40.5t-155 124.5q-20 31 -40 63.5t-40 65.5t-29 48q-38 61 -83 80.5t-124 19.5h-98v-766h-256l-4 1450h260v-457h102q138 0 213 -28.5t129 -108.5q16 -25 59.5 -96.5
t59.5 -95.5z" />
    <glyph glyph-name="uni0552055C.liga" unicode="&#x552;&#x55c;" horiz-adv-x="1935" 
d="M1616 1550h190q0 -61 -12.5 -103t-42 -70.5t-63.5 -45.5t-89 -35q-17 -6 -39.5 -13.5t-35.5 -11.5t-30 -10t-26 -10t-20 -9.5t-16.5 -11t-11 -12.5t-7.5 -15t-2 -17h-192q0 47 10 82t27 57.5t45 40t57 29t70 25.5q7 2 10 3q104 35 141 60.5t37 66.5zM1026 664
q42 -65 102 -89t175 -24v-227q-169 0 -271 40.5t-155 124.5q-20 31 -40 63.5t-40 65.5t-29 48q-38 61 -83 80.5t-124 19.5h-98v-766h-256l-4 1450h260v-457h102q138 0 213 -28.5t129 -108.5q16 -25 59.5 -96.5t59.5 -95.5z" />
    <glyph glyph-name="uni0552055E.liga" unicode="&#x552;&#x55e;" horiz-adv-x="2111" 
d="M1626 1583q112 0 186 -54t74 -145q0 -98 -72.5 -156.5t-191.5 -58.5v150q20 0 36.5 12t16.5 31q0 47 -67 47q-178 0 -178 -242h-213q0 176 115 296t294 120zM1026 664q42 -65 102 -89t175 -24v-227q-169 0 -271 40.5t-155 124.5q-20 31 -40 63.5t-40 65.5t-29 48
q-38 61 -83 80.5t-124 19.5h-98v-766h-256l-4 1450h260v-457h102q138 0 213 -28.5t129 -108.5q16 -25 59.5 -96.5t59.5 -95.5z" />
    <glyph glyph-name="uni0555055B.liga" unicode="&#x555;&#x55b;" horiz-adv-x="2525" 
d="M2396 1548l-297 -313h-194l217 313h274zM881 -37q-220 0 -396.5 96.5t-277.5 272t-101 397.5q0 168 59 310t162 240t246 153t308 55q222 0 398.5 -93.5t278 -267.5t101.5 -397q0 -166 -59 -309.5t-162.5 -243.5t-247.5 -156.5t-309 -56.5zM881 199q147 0 261.5 70.5
t175 191t60.5 268.5q0 146 -60 265t-174.5 190t-262.5 71q-146 0 -259.5 -71t-174 -190t-60.5 -265q0 -227 137 -378.5t357 -151.5z" />
    <glyph glyph-name="uni0555055C.liga" unicode="&#x555;&#x55c;" horiz-adv-x="2668" 
d="M2144 1186h-192q0 47 10 82t27 57.5t45 40t57 29t70 25.5q7 2 10 3q104 35 141 60.5t37 66.5h191q0 -61 -12.5 -103t-42 -70.5t-63.5 -45.5t-89 -35q-17 -6 -39.5 -13.5t-35.5 -11.5t-30 -10t-26.5 -10t-20.5 -9.5t-16.5 -11t-11 -12.5t-7.5 -15t-2 -17zM881 -37
q-220 0 -396.5 96.5t-277.5 272t-101 397.5q0 168 59 310t162 240t246 153t308 55q222 0 398.5 -93.5t278 -267.5t101.5 -397q0 -166 -59 -309.5t-162.5 -243.5t-247.5 -156.5t-309 -56.5zM881 199q147 0 261.5 70.5t175 191t60.5 268.5q0 146 -60 265t-174.5 190t-262.5 71
q-146 0 -259.5 -71t-174 -190t-60.5 -265q0 -227 137 -378.5t357 -151.5z" />
    <glyph glyph-name="uni0555055E.liga" unicode="&#x555;&#x55e;" horiz-adv-x="2844" 
d="M2619 1384q0 -98 -72.5 -156.5t-191.5 -58.5v150q20 0 36.5 12t16.5 31q0 47 -67 47q-178 0 -178 -242h-213q0 176 115 296t294 120q112 0 186 -54t74 -145zM881 -37q-220 0 -396.5 96.5t-277.5 272t-101 397.5q0 168 59 310t162 240t246 153t308 55q222 0 398.5 -93.5
t278 -267.5t101.5 -397q0 -166 -59 -309.5t-162.5 -243.5t-247.5 -156.5t-309 -56.5zM881 199q147 0 261.5 70.5t175 191t60.5 268.5q0 146 -60 265t-174.5 190t-262.5 71q-146 0 -259.5 -71t-174 -190t-60.5 -265q0 -227 137 -378.5t357 -151.5z" />
    <glyph glyph-name="uni0561055B.liga" unicode="&#x561;&#x55b;" horiz-adv-x="1861" 
d="M1901 1569l-297 -312h-195l217 312h275zM143 379v612h248v-542q0 -49 4 -86t15 -73t30 -59t50.5 -37t74.5 -14q102 0 165 78.5t63 206.5v526h247v-542q0 -48 4 -85.5t15.5 -73.5t30.5 -59t50.5 -37t73.5 -14q102 0 165 78.5t63 206.5v526h250v-780q0 -130 8 -211h-238
q-8 94 -8 156h-4q-40 -79 -124.5 -131t-188.5 -52q-233 0 -312 207h-4q-37 -89 -132 -148t-204 -59q-91 0 -158.5 32.5t-106.5 90.5t-58 128.5t-19 154.5z" />
    <glyph glyph-name="uni0561055C.liga" unicode="&#x561;&#x55c;" horiz-adv-x="1861" 
d="M1649 1208h-191q0 27 3.5 50.5t8 41t16 34t19.5 27t26.5 22.5t29 18t36 16t37.5 14.5t43 14.5q103 35 139.5 60.5t36.5 66.5h191q0 -61 -12.5 -103t-42 -70.5t-63.5 -45.5t-89 -35q-16 -6 -39.5 -13.5t-36 -11.5t-29.5 -10t-26 -10t-20 -10t-16.5 -11.5t-11 -12.5
t-7.5 -15t-2 -17zM143 379v612h248v-542q0 -49 4 -86t15 -73t30 -59t50.5 -37t74.5 -14q102 0 165 78.5t63 206.5v526h247v-542q0 -48 4 -85.5t15.5 -73.5t30.5 -59t50.5 -37t73.5 -14q102 0 165 78.5t63 206.5v526h250v-780q0 -130 8 -211h-238q-8 94 -8 156h-4
q-40 -79 -124.5 -131t-188.5 -52q-233 0 -312 207h-4q-37 -89 -132 -148t-204 -59q-91 0 -158.5 32.5t-106.5 90.5t-58 128.5t-19 154.5z" />
    <glyph glyph-name="uni0561055E.liga" unicode="&#x561;&#x55e;" horiz-adv-x="1861" 
d="M2126 1405q0 -97 -73 -156t-193 -59v151q21 0 38 11.5t17 31.5q0 23 -19 35.5t-51 12.5q-178 0 -178 -242h-213q0 176 115.5 296t294.5 120q112 0 187 -55t75 -146zM143 379v612h248v-542q0 -49 4 -86t15 -73t30 -59t50.5 -37t74.5 -14q102 0 165 78.5t63 206.5v526h247
v-542q0 -48 4 -85.5t15.5 -73.5t30.5 -59t50.5 -37t73.5 -14q102 0 165 78.5t63 206.5v526h250v-780q0 -130 8 -211h-238q-8 94 -8 156h-4q-40 -79 -124.5 -131t-188.5 -52q-233 0 -312 207h-4q-37 -89 -132 -148t-204 -59q-91 0 -158.5 32.5t-106.5 90.5t-58 128.5
t-19 154.5z" />
    <glyph glyph-name="uni0561055F.liga" unicode="&#x561;&#x55f;" horiz-adv-x="1861" 
d="M1257 1276h-385q-129 0 -197.5 61t-68.5 160q0 90 74.5 151.5t198.5 73.5v-170q-28 -7 -42 -17.5t-14 -31.5q0 -49 76 -49h358v-178zM143 379v612h248v-542q0 -49 4 -86t15 -73t30 -59t50.5 -37t74.5 -14q102 0 165 78.5t63 206.5v526h247v-542q0 -48 4 -85.5t15.5 -73.5
t30.5 -59t50.5 -37t73.5 -14q102 0 165 78.5t63 206.5v526h250v-780q0 -130 8 -211h-238q-8 94 -8 156h-4q-40 -79 -124.5 -131t-188.5 -52q-233 0 -312 207h-4q-37 -89 -132 -148t-204 -59q-91 0 -158.5 32.5t-106.5 90.5t-58 128.5t-19 154.5z" />
    <glyph glyph-name="uni0562055F.liga" unicode="&#x562;&#x55f;" horiz-adv-x="1245" 
d="M1016 1274h-385q-129 0 -197.5 61t-68.5 160q0 90 74 151.5t198 73.5v-170q-27 -7 -41 -17.5t-14 -31.5q0 -49 75 -49h359v-178zM416 528v-331h753v-197h-753v-557h-250v1337q0 130 -8 211h239q9 -106 9 -155h4q38 80 124 132t191 52q94 0 166.5 -33t115 -90t64 -129
t21.5 -156v-219h-250v152q0 125 -44 196.5t-153 71.5q-101 0 -165 -78.5t-64 -206.5z" />
    <glyph glyph-name="uni0563055F.liga" unicode="&#x563;&#x55f;" horiz-adv-x="1519" 
d="M1034 1274h-385q-129 0 -197.5 61t-68.5 160q0 90 74 151.5t198 73.5v-170q-27 -7 -41 -17.5t-14 -31.5q0 -49 76 -49h358v-178zM1124 197h355v-197h-355v-557h-245v557h-238q-245 0 -390 131.5t-145 360.5q0 143 67 263t187 190.5t267 70.5q232 0 364.5 -137.5
t132.5 -378.5v-303zM649 199h230v319q0 132 -63 212.5t-189 80.5q-125 0 -200 -88.5t-75 -228.5q0 -142 75 -218.5t222 -76.5z" />
    <glyph glyph-name="uni0564055F.liga" unicode="&#x564;&#x55f;" horiz-adv-x="1472" 
d="M1100 1276h-385q-129 0 -197.5 61t-68.5 160q0 90 74 151.5t198 73.5v-170q-27 -7 -41 -17.5t-14 -31.5q0 -49 75 -49h359v-178zM1092 612v-415h340v-197h-340v-557h-250v1102q0 125 -44 196.5t-153 71.5q-101 0 -165 -78.5t-64 -206.5v-528h-250v780q0 130 -8 211h239
q9 -106 9 -155h4q38 80 124 132t191 52q94 0 166.5 -33t115 -90t64 -129t21.5 -156z" />
    <glyph glyph-name="uni05650582055F.liga" unicode="&#x565;&#x582;&#x55f;" horiz-adv-x="1435" 
d="M1036 1706h-385q-129 0 -197.5 61t-68.5 160q0 90 74 151.5t198 73.5v-170q-27 -7 -41 -17.5t-14 -31.5q0 -49 76 -49h358v-178zM1053 991v-794h342v-197h-588v145h-4q-37 -75 -120 -123.5t-187 -48.5q-93 0 -162.5 32.5t-110.5 90t-60.5 128.5t-19.5 155v1169h248v-1099
q0 -60 7.5 -104.5t26.5 -83.5t56 -59t92 -20q101 0 166.5 79t65.5 206v524h248z" />
    <glyph glyph-name="uni0565055B.liga" unicode="&#x565;&#x55b;" horiz-adv-x="1236" 
d="M1006 1571h274l-297 -311h-195zM143 1548h248v-557h739v-196h-739v-346q0 -61 7.5 -106t27 -84t57 -59t92.5 -20q102 0 166 78.5t64 206.5v166h248v-420q0 -130 8 -211h-238q-8 94 -8 156h-4q-38 -79 -123.5 -131t-191.5 -52q-93 0 -162.5 32.5t-110.5 90t-60.5 128.5
t-19.5 155v1169z" />
    <glyph glyph-name="uni0565055C.liga" unicode="&#x565;&#x55c;" horiz-adv-x="1236" 
d="M1235 1575h190q0 -61 -12.5 -103t-41.5 -70.5t-63 -45.5t-89 -35q-16 -6 -39.5 -13.5t-36 -11.5t-29.5 -10t-26 -10t-20.5 -10t-17 -11.5t-11 -12.5t-7.5 -15t-2 -17h-190q0 27 3.5 50.5t8 41t16 34t19.5 27t26.5 22.5t29 18t36 16t37.5 14.5t43 14.5q103 35 139.5 60.5
t36.5 66.5zM143 1548h248v-557h739v-196h-739v-346q0 -61 7.5 -106t27 -84t57 -59t92.5 -20q102 0 166 78.5t64 206.5v166h248v-420q0 -130 8 -211h-238q-8 94 -8 156h-4q-38 -79 -123.5 -131t-191.5 -52q-93 0 -162.5 32.5t-110.5 90t-60.5 128.5t-19.5 155v1169z" />
    <glyph glyph-name="uni0565055E.liga" unicode="&#x565;&#x55e;" horiz-adv-x="1236" 
d="M1243 1608q112 0 187 -55t75 -146q0 -97 -73 -156t-193 -59v151q21 0 38 11.5t17 31.5q0 23 -19 35.5t-50 12.5q-178 0 -178 -242h-213q0 176 115 296t294 120zM143 1548h248v-557h739v-196h-739v-346q0 -61 7.5 -106t27 -84t57 -59t92.5 -20q102 0 166 78.5t64 206.5
v166h248v-420q0 -130 8 -211h-238q-8 94 -8 156h-4q-38 -79 -123.5 -131t-191.5 -52q-93 0 -162.5 32.5t-110.5 90t-60.5 128.5t-19.5 155v1169z" />
    <glyph glyph-name="uni0565055F.liga" unicode="&#x565;&#x55f;" horiz-adv-x="1236" 
d="M1038 1712h-385q-129 0 -197.5 61t-68.5 160q0 90 74 152t198 74v-170q-27 -7 -41 -18t-14 -32q0 -49 76 -49h358v-178zM1130 991v-196h-739v-346q0 -61 7.5 -106t27 -84t57 -59t92.5 -20q102 0 166 78.5t64 206.5v166h248v-420q0 -130 8 -211h-238q-8 94 -8 156h-4
q-38 -79 -123.5 -131t-191.5 -52q-93 0 -162.5 32.5t-110.5 90t-60.5 128.5t-19.5 155v1169h248v-557h739z" />
    <glyph glyph-name="uni0566055F.liga" unicode="&#x566;&#x55f;" horiz-adv-x="1525" 
d="M1028 1274h-385q-129 0 -197.5 61t-68.5 160q0 90 74 151.5t198 73.5v-170q-27 -7 -41 -17.5t-14 -31.5q0 -49 76 -49h358v-178zM1180 784v-1142h340v-199h-590v702h-4q-51 -75 -140 -116t-190 -41q-146 0 -259 70t-172 186.5t-59 257.5q0 105 34.5 199t96 165
t154.5 112.5t203 41.5q103 0 193.5 -45t146.5 -129h6q0 51 8 145h238q-6 -61 -6 -207zM645 195q134 0 217.5 89t83.5 222q0 128 -84.5 218.5t-216.5 90.5q-134 0 -213.5 -89t-79.5 -220q0 -129 80 -220t213 -91z" />
    <glyph glyph-name="uni0567055F.liga" unicode="&#x567;&#x55f;" horiz-adv-x="1163" 
d="M989 1737h-385q-129 0 -197.5 61t-68.5 160q0 90 74 151.5t198 73.5v-170q-27 -7 -41 -17.5t-14 -31.5q0 -49 76 -49h358v-178zM1092 991v-196h-674v-537q138 35 227 35q176 0 287.5 -90.5t111.5 -245.5q0 -168 -120.5 -270t-323.5 -103v197q95 1 147 48t52 118
q0 66 -44.5 103.5t-133.5 37.5q-153 0 -451 -92v1552h248v-557h674z" />
    <glyph glyph-name="uni0568055B.liga" unicode="&#x568;&#x55b;" horiz-adv-x="1251" 
d="M1032 1567h275l-297 -312h-195zM725 1020q94 0 166.5 -33t115 -90t64 -129t21.5 -156v-612h-250v545q0 125 -44 196.5t-153 71.5q-101 0 -165 -78.5t-64 -206.5v-886h674v-199h-924v1337q0 130 -8 211h239q9 -106 9 -155h4q38 80 124 132t191 52z" />
    <glyph glyph-name="uni0568055C.liga" unicode="&#x568;&#x55c;" horiz-adv-x="1251" 
d="M1262 1571h190q0 -61 -12.5 -103t-42 -70.5t-63.5 -45.5t-89 -35q-16 -6 -39.5 -13.5t-36 -11.5t-29.5 -10t-26 -10t-20 -10t-16.5 -11.5t-11 -12.5t-7.5 -15t-2 -17h-191q0 27 3.5 50.5t8 41t16 34t19.5 27t26.5 22.5t29 18t36 16t37.5 14.5t43 14.5q103 35 140 60.5
t37 66.5zM725 1020q94 0 166.5 -33t115 -90t64 -129t21.5 -156v-612h-250v545q0 125 -44 196.5t-153 71.5q-101 0 -165 -78.5t-64 -206.5v-886h674v-199h-924v1337q0 130 -8 211h239q9 -106 9 -155h4q38 80 124 132t191 52z" />
    <glyph glyph-name="uni0568055E.liga" unicode="&#x568;&#x55e;" horiz-adv-x="1251" 
d="M1270 1604q112 0 187 -55t75 -146q0 -97 -73 -156t-193 -59v151q21 0 38 11.5t17 31.5q0 23 -19 35.5t-51 12.5q-178 0 -178 -242h-213q0 176 115.5 296t294.5 120zM725 1020q94 0 166.5 -33t115 -90t64 -129t21.5 -156v-612h-250v545q0 125 -44 196.5t-153 71.5
q-101 0 -165 -78.5t-64 -206.5v-886h674v-199h-924v1337q0 130 -8 211h239q9 -106 9 -155h4q38 80 124 132t191 52z" />
    <glyph glyph-name="uni0568055F.liga" unicode="&#x568;&#x55f;" horiz-adv-x="1251" 
d="M1073 1274h-385q-129 0 -197.5 61t-68.5 160q0 90 74 151.5t198 73.5v-170q-27 -7 -41 -17.5t-14 -31.5q0 -49 76 -49h358v-178zM1092 612v-612h-250v545q0 125 -44 196.5t-153 71.5q-101 0 -165 -78.5t-64 -206.5v-886h674v-199h-924v1337q0 130 -8 211h239
q9 -106 9 -155h4q38 80 124 132t191 52q94 0 166.5 -33t115 -90t64 -129t21.5 -156z" />
    <glyph glyph-name="uni0569055F.liga" unicode="&#x569;&#x55f;" horiz-adv-x="1513" 
d="M1038 1274h-385q-129 0 -197.5 61t-68.5 160q0 90 74 151.5t198 73.5v-170q-27 -7 -41 -17.5t-14 -31.5q0 -49 76 -49h358v-178zM166 780v-1337h250v1018q0 78 22.5 142.5t59 105.5t85 69.5t97 40.5t98.5 12q119 0 199 -55.5t100 -157.5q-117 3 -166 3
q-172 0 -277.5 -92.5t-105.5 -247.5q0 -144 96.5 -227t249.5 -83q181 0 301 126t144 325l151 -8v180l-145 12q-32 193 -169.5 303.5t-330.5 110.5q-126 0 -242.5 -54.5t-172.5 -129.5h-4q0 49 -9 155h-239q8 -81 8 -211zM883 160q-62 0 -98.5 33t-36.5 96q0 81 52 115
t146 34q63 0 137 -4q-9 -137 -64 -205.5t-136 -68.5z" />
    <glyph glyph-name="uni056A055F.liga" unicode="&#x56a;&#x55f;" horiz-adv-x="1511" 
d="M1040 1737h-385q-129 0 -197.5 61t-68.5 160q0 90 74.5 151.5t198.5 73.5v-170q-28 -7 -42 -17.5t-14 -31.5q0 -49 76 -49h358v-178zM1124 991h353v-196h-353v-308q0 -241 -133.5 -378.5t-363.5 -137.5q-235 0 -378 144.5t-143 376.5q0 229 149 364t394 135h230v559h245
v-559zM627 176q130 0 191 80t61 221v318h-230q-145 0 -221 -81t-76 -225q0 -139 76 -226.5t199 -86.5z" />
    <glyph glyph-name="uni056B055B.liga" unicode="&#x56b;&#x55b;" horiz-adv-x="1267" 
d="M1343 1569l-296 -312h-195l217 312h274zM182 -557v2105h250v-698h4q36 73 120 121.5t185 48.5q94 0 166.5 -33t115 -90t64 -129t21.5 -156v-612h-250v545q0 59 -8.5 104t-29.5 83.5t-60 58.5t-96 20q-101 0 -166.5 -78t-65.5 -207v-1083h-250z" />
    <glyph glyph-name="uni056B055C.liga" unicode="&#x56b;&#x55c;" horiz-adv-x="1267" 
d="M1092 1208h-191q0 27 3.5 50.5t8 41t16 34t19.5 27t26.5 22.5t29 18t36 16t37.5 14.5t43 14.5q103 35 139.5 60.5t36.5 66.5h191q0 -61 -12.5 -103t-42 -70.5t-63.5 -45.5t-89 -35q-16 -6 -39.5 -13.5t-36 -11.5t-29.5 -10t-26 -10t-20 -10t-16.5 -11.5t-11 -12.5
t-7.5 -15t-2 -17zM182 -557v2105h250v-698h4q36 73 120 121.5t185 48.5q94 0 166.5 -33t115 -90t64 -129t21.5 -156v-612h-250v545q0 59 -8.5 104t-29.5 83.5t-60 58.5t-96 20q-101 0 -166.5 -78t-65.5 -207v-1083h-250z" />
    <glyph glyph-name="uni056B055E.liga" unicode="&#x56b;&#x55e;" horiz-adv-x="1267" 
d="M1569 1405q0 -97 -73 -156t-193 -59v151q21 0 38 11.5t17 31.5q0 23 -19 35.5t-51 12.5q-178 0 -178 -242h-213q0 176 115.5 296t294.5 120q112 0 187 -55t75 -146zM182 -557v2105h250v-698h4q36 73 120 121.5t185 48.5q94 0 166.5 -33t115 -90t64 -129t21.5 -156v-612
h-250v545q0 59 -8.5 104t-29.5 83.5t-60 58.5t-96 20q-101 0 -166.5 -78t-65.5 -207v-1083h-250z" />
    <glyph glyph-name="uni056B055F.liga" unicode="&#x56b;&#x55f;" horiz-adv-x="1267" 
d="M956 1737h-385q-129 0 -197.5 61t-68.5 160q0 90 74.5 151.5t198.5 73.5v-170q-28 -7 -42 -17.5t-14 -31.5q0 -49 76 -49h358v-178zM182 -557v2105h250v-698h4q36 73 120 121.5t185 48.5q94 0 166.5 -33t115 -90t64 -129t21.5 -156v-612h-250v545q0 59 -8.5 104
t-29.5 83.5t-60 58.5t-96 20q-101 0 -166.5 -78t-65.5 -207v-1083h-250z" />
    <glyph glyph-name="uni056C055F.liga" unicode="&#x56c;&#x55f;" horiz-adv-x="851" 
d="M819 1452v-178h-385q-128 0 -196 61t-68 160q0 90 73.5 151.5t198.5 73.5v-170q-57 -14 -57 -49q0 -49 78 -49h356zM483 991v-1349h338v-199h-588v1548h250z" />
    <glyph glyph-name="uni056D055F.liga" unicode="&#x56d;&#x55f;" horiz-adv-x="1853" 
d="M1341 1737h-385q-129 0 -197.5 61t-68.5 160q0 90 74.5 151.5t198.5 73.5v-170q-28 -7 -42 -17.5t-14 -31.5q0 -49 76 -49h358v-178zM170 -557v2105h248v-684h4q36 67 110.5 111.5t172.5 44.5q151 0 235 -99.5t82 -263.5l-2 -208q-1 -48 3 -86t16 -73.5t32 -58.5
t53.5 -37t79.5 -14q102 0 166 78.5t64 206.5v526h249v-780q0 -119 9 -211h-240q-8 94 -8 156h-4q-38 -79 -124 -131t-192 -52q-94 0 -163.5 31.5t-109.5 88.5t-58.5 127t-18.5 155v235q0 205 -153 205q-90 0 -146.5 -75.5t-56.5 -204.5v-1092h-248z" />
    <glyph glyph-name="uni056E055F.liga" unicode="&#x56e;&#x55f;" horiz-adv-x="1275" 
d="M1012 1737h-385q-129 0 -198 61t-69 160q0 90 74.5 151.5t198.5 73.5v-170q-27 -7 -41 -17.5t-14 -31.5q0 -49 75 -49h359v-178zM913 991h304v-196h-158q90 -153 90 -326q0 -140 -70 -255t-190.5 -180t-265.5 -65q-225 0 -374 142t-149 364q0 144 73.5 257.5t192.5 176.5
t265 78q-108 118 -342 352l196 213l144 -120l-62 -70q245 -254 346 -371zM909 467q0 170 -114 328h-88q-171 0 -267 -85.5t-96 -234.5q0 -140 71 -219.5t206 -79.5q136 0 212 78.5t76 212.5z" />
    <glyph glyph-name="uni056F055F.liga" unicode="&#x56f;&#x55f;" horiz-adv-x="1224" 
d="M952 1737h-385q-129 0 -197.5 61t-68.5 160q0 90 74 151.5t198 73.5v-170q-27 -7 -41 -17.5t-14 -31.5q0 -49 76 -49h358v-178zM143 379v1169h248v-1099q0 -60 7.5 -104.5t26.5 -83.5t56 -59t92 -20q101 0 166.5 79t65.5 206v524h248v-1548h-248v702h-4
q-37 -75 -119 -123.5t-186 -48.5q-93 0 -162.5 32.5t-110.5 90t-60.5 128.5t-19.5 155z" />
    <glyph glyph-name="uni0570055F.liga" unicode="&#x570;&#x55f;" horiz-adv-x="1200" 
d="M932 1749h-385q-129 0 -197.5 61t-68.5 160q0 90 74 151.5t198 73.5v-170q-27 -7 -41 -17.5t-14 -31.5q0 -49 75 -49h359v-178zM1065 0h-250v377q0 57 -8.5 100.5t-29 80.5t-59.5 57t-95 20q-103 0 -168.5 -82.5t-65.5 -220.5h-250v602q0 318 146 482.5t411 164.5
q224 0 394 -147l-140 -183q-65 61 -125 91t-127 30q-147 0 -229 -115.5t-82 -320.5v-264h4q37 74 120.5 123t186.5 49q94 0 166.5 -33t115 -90t64 -128.5t21.5 -154.5v-438z" />
    <glyph glyph-name="uni0571055F.liga" unicode="&#x571;&#x55f;" horiz-adv-x="1325" 
d="M1020 1737h-385q-129 0 -197.5 61t-68.5 160q0 90 74 151.5t198 73.5v-170q-27 -7 -41 -17.5t-14 -31.5q0 -49 76 -49h358v-178zM565 -33q-87 0 -168 25.5t-147 74t-106 127.5t-40 177q0 65 22 126t52.5 106t86 97t98 84t112.5 82q20 14 60.5 41.5t63 43.5t56.5 40
t53 40.5t38.5 35.5t28.5 34t9 27q0 33 -49 49q-29 9 -182 33q-168 26 -237.5 77.5t-69.5 125.5q0 96 116 164l152 -102q-22 -18 -22 -33q0 -23 37 -33.5t140 -26.5q41 -6 64 -10q159 -25 231 -78.5t72 -152.5q0 -112 -137 -221l391 -920h-246q-10 21 -28 62t-25 57
q-203 -152 -426 -152zM590 164q170 0 332 119l-213 499q-60 -36 -111 -77q-52 -40 -77 -60t-64.5 -57t-57.5 -64.5t-32.5 -66t-14.5 -78.5q0 -97 65.5 -156t172.5 -59z" />
    <glyph glyph-name="uni0572055F.liga" unicode="&#x572;&#x55f;" horiz-adv-x="1427" 
d="M1104 1276h-385q-129 0 -197.5 61t-68.5 160q0 90 74 151.5t198 73.5v-170q-27 -7 -41 -17.5t-14 -31.5q0 -49 75 -49h359v-178zM1092 612v-970h335v-199h-585v1102q0 125 -44 196.5t-153 71.5q-101 0 -165 -78.5t-64 -206.5v-528h-250v780q0 130 -8 211h239
q9 -106 9 -155h4q38 80 124 132t191 52q94 0 166.5 -33t115 -90t64 -129t21.5 -156z" />
    <glyph glyph-name="uni0573055F.liga" unicode="&#x573;&#x55f;" horiz-adv-x="1280" 
d="M999 1737h-385q-129 0 -197.5 61t-68.5 160q0 90 74.5 151.5t198.5 73.5v-170q-28 -7 -42 -17.5t-14 -31.5q0 -49 76 -49h358v-178zM508 1014q333 -4 499.5 -166t166.5 -463q0 -317 10 -385h-252q-8 74 -8 123h-4q-50 -64 -139.5 -108t-188.5 -44q-207 0 -321.5 136.5
t-114.5 392.5q0 160 24 307q-92 -7 -129 -12v196q104 11 174 15q77 259 228.5 413t359.5 154q220 0 395 -170l-125 -160q-25 25 -46 42.5t-55 39.5t-76 33.5t-89 11.5q-122 0 -209.5 -93.5t-138.5 -262.5h39zM922 283v110q0 201 -107.5 311.5t-331.5 114.5h-55
q-22 -135 -22 -319q0 -161 64.5 -241.5t174.5 -80.5q63 0 119.5 18.5t83 35t74.5 51.5z" />
    <glyph glyph-name="uni05740565055B.liga" unicode="&#x574;&#x565;&#x55b;" horiz-adv-x="2482" 
d="M1636 1491v-500h738v-196h-738v-346q0 -61 8 -106t27.5 -84t57 -59t92.5 -20q102 0 165.5 78.5t63.5 206.5v166h248v-420q0 -130 8 -211h-238q-8 94 -8 156h-4q-38 -79 -123.5 -131t-191.5 -52q-93 0 -163 32.5t-111 90t-61 128.5t-20 155v936q-49 7 -156 22.5t-173.5 24
t-87.5 8.5q-40 0 -66 -25t-26 -65q0 -27 18 -56t44 -60t52 -70t44 -102.5t18 -141.5v-639q0 -130 8 -211h-238q-8 94 -8 156h-4q-38 -79 -123.5 -131t-191.5 -52q-93 0 -162.5 32.5t-110.5 90t-60.5 128.5t-19.5 155v612h248v-542q0 -61 7.5 -106t27 -84t57 -59t92.5 -20
q102 0 166 78.5t64 206.5l2 387q1 67 -17 120.5t-44 88.5t-52 66.5t-44.5 72.5t-18.5 90q0 123 88.5 203t220.5 80q59 0 192.5 -16t294 -38t209.5 -28zM2251 1571h274l-297 -311h-194z" />
    <glyph glyph-name="uni05740565055C.liga" unicode="&#x574;&#x565;&#x55c;" horiz-adv-x="2482" 
d="M2478 1575h191q0 -61 -12.5 -103t-42 -70.5t-63.5 -45.5t-89 -35q-16 -6 -39.5 -13.5t-36 -11.5t-29.5 -10t-26 -10t-20.5 -10t-17 -11.5t-11 -12.5t-7.5 -15t-2 -17h-190q0 27 3.5 50.5t8 41t16 34t19.5 27t26.5 22.5t29 18t36 16t37.5 14.5t43 14.5q103 35 139.5 60.5
t36.5 66.5zM1636 1491v-500h738v-196h-738v-346q0 -61 8 -106t27.5 -84t57 -59t92.5 -20q102 0 165.5 78.5t63.5 206.5v166h248v-420q0 -130 8 -211h-238q-8 94 -8 156h-4q-38 -79 -123.5 -131t-191.5 -52q-93 0 -163 32.5t-111 90t-61 128.5t-20 155v936q-49 7 -156 22.5
t-173.5 24t-87.5 8.5q-40 0 -66 -25t-26 -65q0 -27 18 -56t44 -60t52 -70t44 -102.5t18 -141.5v-639q0 -130 8 -211h-238q-8 94 -8 156h-4q-38 -79 -123.5 -131t-191.5 -52q-93 0 -162.5 32.5t-110.5 90t-60.5 128.5t-19.5 155v612h248v-542q0 -61 7.5 -106t27 -84t57 -59
t92.5 -20q102 0 166 78.5t64 206.5l2 387q1 67 -17 120.5t-44 88.5t-52 66.5t-44.5 72.5t-18.5 90q0 123 88.5 203t220.5 80q59 0 192.5 -16t294 -38t209.5 -28z" />
    <glyph glyph-name="uni05740565055E.liga" unicode="&#x574;&#x565;&#x55e;" horiz-adv-x="2482" 
d="M2488 1608q112 0 187 -55t75 -146q0 -97 -73 -156t-193 -59v151q21 0 38.5 11.5t17.5 31.5q0 23 -19 35.5t-51 12.5q-178 0 -178 -242h-213q0 176 115 296t294 120zM1636 1491v-500h738v-196h-738v-346q0 -61 8 -106t27.5 -84t57 -59t92.5 -20q102 0 165.5 78.5
t63.5 206.5v166h248v-420q0 -130 8 -211h-238q-8 94 -8 156h-4q-38 -79 -123.5 -131t-191.5 -52q-93 0 -163 32.5t-111 90t-61 128.5t-20 155v936q-49 7 -156 22.5t-173.5 24t-87.5 8.5q-40 0 -66 -25t-26 -65q0 -27 18 -56t44 -60t52 -70t44 -102.5t18 -141.5v-639
q0 -130 8 -211h-238q-8 94 -8 156h-4q-38 -79 -123.5 -131t-191.5 -52q-93 0 -162.5 32.5t-110.5 90t-60.5 128.5t-19.5 155v612h248v-542q0 -61 7.5 -106t27 -84t57 -59t92.5 -20q102 0 166 78.5t64 206.5l2 387q1 67 -17 120.5t-44 88.5t-52 66.5t-44.5 72.5t-18.5 90
q0 123 88.5 203t220.5 80q59 0 192.5 -16t294 -38t209.5 -28z" />
    <glyph glyph-name="uni05740565055F.liga" unicode="&#x574;&#x565;&#x55f;" horiz-adv-x="2482" 
d="M1516 1745h-386q-129 0 -197.5 61t-68.5 160q0 90 74.5 151.5t198.5 73.5v-170q-28 -7 -42 -17.5t-14 -31.5q0 -49 76 -49h359v-178zM2374 991v-196h-738v-346q0 -61 8 -106t27.5 -84t57 -59t92.5 -20q102 0 165.5 78.5t63.5 206.5v166h248v-420q0 -130 8 -211h-238
q-8 94 -8 156h-4q-38 -79 -123.5 -131t-191.5 -52q-93 0 -163 32.5t-111 90t-61 128.5t-20 155v936q-49 7 -156 22.5t-173.5 24t-87.5 8.5q-40 0 -66 -25t-26 -65q0 -27 18 -56t44 -60t52 -70t44 -102.5t18 -141.5v-639q0 -130 8 -211h-238q-8 94 -8 156h-4
q-38 -79 -123.5 -131t-191.5 -52q-93 0 -162.5 32.5t-110.5 90t-60.5 128.5t-19.5 155v612h248v-542q0 -61 7.5 -106t27 -84t57 -59t92.5 -20q102 0 166 78.5t64 206.5l2 387q1 67 -17 120.5t-44 88.5t-52 66.5t-44.5 72.5t-18.5 90q0 123 88.5 203t220.5 80q59 0 192.5 -16
t294 -38t209.5 -28v-500h738z" />
    <glyph glyph-name="uni05740567.liga" unicode="&#x574;&#x567;" horiz-adv-x="2383" 
d="M1821 -426v207q95 1 146.5 48t51.5 118q0 66 -44.5 103.5t-133.5 37.5q-152 0 -450 -92v1319q-359 55 -422 55q-40 0 -66 -25t-26 -65q0 -27 18 -56t44 -60t52 -70t44 -102.5t18 -141.5v-639q0 -130 8 -211h-238q-8 94 -8 156h-4q-38 -79 -123.5 -131t-191.5 -52
q-93 0 -162.5 32.5t-110.5 90t-60.5 128.5t-19.5 155v612h248v-542q0 -61 7.5 -106t27 -84t57 -59t92.5 -20q102 0 166 78.5t64 206.5l2 387q1 67 -17 120.5t-44 88.5t-52 66.5t-44.5 72.5t-18.5 90q0 123 88.5 203t220.5 80q60 0 187 -14.5t308 -39.5t203 -28v-1235
q132 35 234 35q173 0 284 -90.5t111 -243.5q0 -169 -122 -275.5t-324 -107.5zM2177 795l-539 71l136 125l536 -69z" />
    <glyph glyph-name="uni05740567055F.liga" unicode="&#x574;&#x567;&#x55f;" horiz-adv-x="2383" 
d="M1513 1745h-385q-129 0 -197.5 61t-68.5 160q0 90 74.5 151.5t198.5 73.5v-170q-28 -7 -42 -17.5t-14 -31.5q0 -49 76 -49h358v-178zM1821 -426v207q95 1 146.5 48t51.5 118q0 66 -44.5 103.5t-133.5 37.5q-152 0 -450 -92v1319q-359 55 -422 55q-40 0 -66 -25t-26 -65
q0 -27 18 -56t44 -60t52 -70t44 -102.5t18 -141.5v-639q0 -130 8 -211h-238q-8 94 -8 156h-4q-38 -79 -123.5 -131t-191.5 -52q-93 0 -162.5 32.5t-110.5 90t-60.5 128.5t-19.5 155v612h248v-542q0 -61 7.5 -106t27 -84t57 -59t92.5 -20q102 0 166 78.5t64 206.5l2 387
q1 67 -17 120.5t-44 88.5t-52 66.5t-44.5 72.5t-18.5 90q0 123 88.5 203t220.5 80q60 0 187 -14.5t308 -39.5t203 -28v-1235q132 35 234 35q173 0 284 -90.5t111 -243.5q0 -169 -122 -275.5t-324 -107.5zM2177 795l-539 71l136 125l536 -69z" />
    <glyph glyph-name="uni0574056B055B.liga" unicode="&#x574;&#x56b;&#x55b;" horiz-adv-x="2480" 
d="M1645 -557h-248v1872q-39 5 -156.5 21.5t-184 25t-87.5 8.5q-40 0 -66 -25t-26 -65q0 -27 18 -56t44 -60t52 -70t44 -102.5t18 -141.5v-639q0 -130 8 -211h-238q-8 94 -8 156h-4q-38 -79 -123.5 -131t-191.5 -52q-93 0 -162.5 32.5t-110.5 90t-60.5 128.5t-19.5 155v612
h248v-542q0 -61 7.5 -106t27 -84t57 -59t92.5 -20q102 0 166 78.5t64 206.5l2 387q1 67 -17 120.5t-44 88.5t-52 66.5t-44.5 72.5t-18.5 90q0 123 88.5 203t220.5 80q46 0 181.5 -16t307 -38.5t216.5 -27.5v-641h4q36 73 120.5 121.5t184.5 48.5q94 0 166 -33t115 -90.5
t64 -129t21 -155.5v-612h-247v545q0 59 -9 104.5t-30.5 83t-61 58t-96.5 20.5q-100 0 -165.5 -78.5t-65.5 -206.5v-1083zM2550 1569l-297 -312h-195l217 312h275z" />
    <glyph glyph-name="uni0574056B055C.liga" unicode="&#x574;&#x56b;&#x55c;" horiz-adv-x="2480" 
d="M1645 -557h-248v1872q-39 5 -156.5 21.5t-184 25t-87.5 8.5q-40 0 -66 -25t-26 -65q0 -27 18 -56t44 -60t52 -70t44 -102.5t18 -141.5v-639q0 -130 8 -211h-238q-8 94 -8 156h-4q-38 -79 -123.5 -131t-191.5 -52q-93 0 -162.5 32.5t-110.5 90t-60.5 128.5t-19.5 155v612
h248v-542q0 -61 7.5 -106t27 -84t57 -59t92.5 -20q102 0 166 78.5t64 206.5l2 387q1 67 -17 120.5t-44 88.5t-52 66.5t-44.5 72.5t-18.5 90q0 123 88.5 203t220.5 80q46 0 181.5 -16t307 -38.5t216.5 -27.5v-641h4q36 73 120.5 121.5t184.5 48.5q94 0 166 -33t115 -90.5
t64 -129t21 -155.5v-612h-247v545q0 59 -9 104.5t-30.5 83t-61 58t-96.5 20.5q-100 0 -165.5 -78.5t-65.5 -206.5v-1083zM2300 1208h-191q0 31 3.5 56t13 45t17.5 35t27 29t30 21.5t39 19t41.5 16t48.5 16.5q103 35 139.5 60.5t36.5 66.5h190q0 -61 -12.5 -103t-42 -70.5
t-63.5 -45.5t-89 -35q-16 -6 -39.5 -13.5t-36 -11.5t-29.5 -10t-26 -10t-20 -10t-16.5 -11.5t-11 -12.5t-7.5 -15t-2 -17z" />
    <glyph glyph-name="uni0574056B055E.liga" unicode="&#x574;&#x56b;&#x55e;" horiz-adv-x="2480" 
d="M2775 1405q0 -97 -73 -156t-193 -59v151q21 0 38 11.5t17 31.5q0 23 -19 35.5t-51 12.5q-178 0 -178 -242h-213q0 176 115.5 296t294.5 120q112 0 187 -55t75 -146zM1645 -557h-248v1872q-39 5 -156.5 21.5t-184 25t-87.5 8.5q-40 0 -66 -25t-26 -65q0 -27 18 -56t44 -60
t52 -70t44 -102.5t18 -141.5v-639q0 -130 8 -211h-238q-8 94 -8 156h-4q-38 -79 -123.5 -131t-191.5 -52q-93 0 -162.5 32.5t-110.5 90t-60.5 128.5t-19.5 155v612h248v-542q0 -61 7.5 -106t27 -84t57 -59t92.5 -20q102 0 166 78.5t64 206.5l2 387q1 67 -17 120.5t-44 88.5
t-52 66.5t-44.5 72.5t-18.5 90q0 123 88.5 203t220.5 80q46 0 181.5 -16t307 -38.5t216.5 -27.5v-641h4q36 73 120.5 121.5t184.5 48.5q94 0 166 -33t115 -90.5t64 -129t21 -155.5v-612h-247v545q0 59 -9 104.5t-30.5 83t-61 58t-96.5 20.5q-100 0 -165.5 -78.5
t-65.5 -206.5v-1083z" />
    <glyph glyph-name="uni0574056B055F.liga" unicode="&#x574;&#x56b;&#x55f;" horiz-adv-x="2480" 
d="M1534 1745h-385q-129 0 -197.5 61t-68.5 160q0 90 74 151.5t198 73.5v-170q-27 -7 -41 -17.5t-14 -31.5q0 -49 76 -49h358v-178zM1645 -557h-248v1872q-39 5 -156.5 21.5t-184 25t-87.5 8.5q-40 0 -66 -25t-26 -65q0 -27 18 -56t44 -60t52 -70t44 -102.5t18 -141.5v-639
q0 -130 8 -211h-238q-8 94 -8 156h-4q-38 -79 -123.5 -131t-191.5 -52q-93 0 -162.5 32.5t-110.5 90t-60.5 128.5t-19.5 155v612h248v-542q0 -61 7.5 -106t27 -84t57 -59t92.5 -20q102 0 166 78.5t64 206.5l2 387q1 67 -17 120.5t-44 88.5t-52 66.5t-44.5 72.5t-18.5 90
q0 123 88.5 203t220.5 80q46 0 181.5 -16t307 -38.5t216.5 -27.5v-641h4q36 73 120.5 121.5t184.5 48.5q94 0 166 -33t115 -90.5t64 -129t21 -155.5v-612h-247v545q0 59 -9 104.5t-30.5 83t-61 58t-96.5 20.5q-100 0 -165.5 -78.5t-65.5 -206.5v-1083z" />
    <glyph glyph-name="uni0574056D055F.liga" unicode="&#x574;&#x56d;&#x55f;" horiz-adv-x="3078" 
d="M1798 1737h-385q-129 0 -197.5 61t-68.5 160q0 90 74 151.5t198 73.5v-170q-27 -7 -41 -17.5t-14 -31.5q0 -49 76 -49h358v-178zM1645 -557h-250v1872q-359 55 -426 55q-40 0 -66 -25t-26 -65q0 -27 18 -56t44 -60t52 -70t44 -102.5t18 -141.5v-639q0 -130 8 -211h-238
q-8 94 -8 156h-4q-38 -79 -123.5 -131t-191.5 -52q-93 0 -162.5 32.5t-110.5 90t-60.5 128.5t-19.5 155v612h248v-542q0 -61 7.5 -106t27 -84t57 -59t92.5 -20q102 0 166 78.5t64 206.5l2 387q1 67 -17 120.5t-44 88.5t-52 66.5t-44.5 72.5t-18.5 90q0 123 88.5 203
t220.5 80q60 0 186.5 -14.5t315.5 -40t203 -27.5v-627h4q36 68 109.5 112t172.5 44q150 0 234 -99.5t82 -263.5v-208q-1 -49 3 -86t15.5 -73t31.5 -59t54 -37t80 -14q102 0 165.5 78.5t63.5 206.5v526h248v-780q0 -130 8 -211h-237q-8 94 -8 156h-5q-40 -79 -125.5 -131
t-189.5 -52q-94 0 -164 31.5t-110 88.5t-59 127t-19 155v235q0 205 -154 205q-88 0 -144 -75.5t-56 -204.5v-1092z" />
    <glyph glyph-name="uni0574056F.liga" unicode="&#x574;&#x56f;" horiz-adv-x="2455" 
d="M2284 -557h-250v702h-4q-35 -74 -118 -123t-186 -49q-75 0 -135 21.5t-100.5 59t-67.5 89.5t-39 111t-12 125v944q-30 4 -111 15t-121 16.5t-91.5 10.5t-79.5 5q-40 0 -66 -25t-26 -65q0 -27 18 -56t44 -60t52 -70t44 -102.5t18 -141.5v-639q0 -130 8 -211h-238
q-8 94 -8 156h-4q-38 -79 -123.5 -131t-191.5 -52q-93 0 -162.5 32.5t-110.5 90t-60.5 128.5t-19.5 155v612h248v-542q0 -61 7.5 -106t27 -84t57 -59t92.5 -20q102 0 166 78.5t64 206.5l2 387q1 67 -17 120.5t-44 88.5t-52 66.5t-44.5 72.5t-18.5 90q0 123 88.5 203
t220.5 80q59 0 184.5 -15t295.5 -39t200 -28v-1042q0 -47 4.5 -84.5t16.5 -72.5t32.5 -58.5t53.5 -37.5t77 -14q101 0 165.5 78.5t64.5 206.5v524h250v-1548z" />
    <glyph glyph-name="uni0574056F055F.liga" unicode="&#x574;&#x56f;&#x55f;" horiz-adv-x="2455" 
d="M1481 1745h-385q-129 0 -198 61t-69 160q0 90 74.5 151.5t198.5 73.5v-170q-27 -7 -41 -17.5t-14 -31.5q0 -49 75 -49h359v-178zM2284 -557h-250v702h-4q-35 -74 -118 -123t-186 -49q-75 0 -135 21.5t-100.5 59t-67.5 89.5t-39 111t-12 125v944q-30 4 -111 15t-121 16.5
t-91.5 10.5t-79.5 5q-40 0 -66 -25t-26 -65q0 -27 18 -56t44 -60t52 -70t44 -102.5t18 -141.5v-639q0 -130 8 -211h-238q-8 94 -8 156h-4q-38 -79 -123.5 -131t-191.5 -52q-93 0 -162.5 32.5t-110.5 90t-60.5 128.5t-19.5 155v612h248v-542q0 -61 7.5 -106t27 -84t57 -59
t92.5 -20q102 0 166 78.5t64 206.5l2 387q1 67 -17 120.5t-44 88.5t-52 66.5t-44.5 72.5t-18.5 90q0 123 88.5 203t220.5 80q59 0 184.5 -15t295.5 -39t200 -28v-1042q0 -47 4.5 -84.5t16.5 -72.5t32.5 -58.5t53.5 -37.5t77 -14q101 0 165.5 78.5t64.5 206.5v524h250v-1548z
" />
    <glyph glyph-name="uni05740576055F.liga" unicode="&#x574;&#x576;&#x55f;" horiz-adv-x="2449" 
d="M1444 1747h-385q-129 0 -197.5 61t-68.5 160q0 90 74 151.5t198 73.5v-170q-27 -7 -41 -17.5t-14 -31.5q0 -49 75 -49h359v-178zM496 -27q-93 0 -162.5 32.5t-110.5 90t-60.5 128.5t-19.5 155v612h248v-542q0 -61 7.5 -106t27 -84t57 -59t92.5 -20q102 0 166 78.5
t64 206.5l2 387q1 67 -17 120.5t-44 88.5t-52 66.5t-44.5 72.5t-18.5 90q0 123 88.5 203t220.5 80q162 0 641 -88l25 -70q-39 -39 -55.5 -65.5t-16.5 -57.5q0 -42 30 -69t95 -27h133q-42 -113 -64 -177.5t-58.5 -181t-54.5 -213t-18 -173.5q0 -271 199 -271q104 0 169 79
t65 208v524h249v-780q0 -119 9 -211h-240q-8 94 -8 156h-4q-39 -77 -125 -130t-191 -53q-181 0 -279 114.5t-98 295.5q0 257 152 661q-77 0 -143 67.5t-66 160.5q0 19 4 43q-224 55 -321 55q-40 0 -66 -25t-26 -65q0 -27 18 -56t44 -60t52 -70t44 -102.5t18 -141.5v-639
q0 -130 8 -211h-238q-8 94 -8 156h-4q-38 -79 -123.5 -131t-191.5 -52z" />
    <glyph glyph-name="uni0574055F.liga" unicode="&#x574;&#x55f;" horiz-adv-x="1222" 
d="M877 1737h-385q-129 0 -198 61t-69 160q0 90 74.5 151.5t198.5 73.5v-170q-28 -7 -42 -17.5t-14 -31.5q0 -49 76 -49h359v-178zM496 -27q-93 0 -162.5 32.5t-110.5 90t-60.5 128.5t-19.5 155v612h248v-542q0 -61 7.5 -106t27 -84t57 -59t92.5 -20q102 0 166 78.5
t64 206.5v391q0 67 -17.5 121t-43 88.5t-51 66t-43 72t-17.5 88.5q0 123 88.5 202t218.5 79q106 0 207 -43l-64 -207q-56 30 -87 35q-13 2 -27 2q-40 0 -66 -24.5t-26 -65.5q0 -27 18 -54.5t44 -56.5t52 -65.5t44 -99t18 -140.5v-643q0 -130 8 -211h-238q-8 94 -8 156h-4
q-38 -79 -123.5 -131t-191.5 -52z" />
    <glyph glyph-name="uni0575055F.liga" unicode="&#x575;&#x55f;" horiz-adv-x="751" 
d="M698 1276h-385q-128 0 -196 61t-68 160q0 89 74 151t199 74v-172q-58 -11 -58 -49q0 -47 78 -47h356v-178zM291 211v780h248v-780q0 -78 18 -146t39 -109t39 -99t18 -119q0 -144 -108 -230t-262 -86q-49 0 -99 11l21 205q45 -9 65 -9q62 0 99 33.5t37 91.5q0 41 -18 90
t-39.5 91t-39.5 116.5t-18 159.5z" />
    <glyph glyph-name="uni0576055F.liga" unicode="&#x576;&#x55f;" horiz-adv-x="1216" 
d="M956 1739h-385q-129 0 -197.5 61t-68.5 160q0 90 74.5 151.5t198.5 73.5v-170q-28 -7 -42 -17.5t-14 -31.5q0 -49 76 -49h358v-178zM489 -27q-182 0 -280 114.5t-98 295.5q0 71 13.5 158.5t27 148t42 151t36.5 113.5t32 90q-78 3 -144.5 73t-66.5 167q0 133 142 279
l180 -148q-39 -39 -55.5 -65.5t-16.5 -57.5q0 -42 30 -69t95 -27h133q-40 -109 -63.5 -176.5t-59 -182.5t-53.5 -212t-18 -174q0 -271 198 -271q104 0 169 79t65 208v524h250v-780q0 -130 8 -211h-238q-8 94 -8 156h-4q-40 -77 -126.5 -130t-189.5 -53z" />
    <glyph glyph-name="uni0577055F.liga" unicode="&#x577;&#x55f;" horiz-adv-x="1052" 
d="M938 1278h-385q-129 0 -197.5 61t-68.5 160q0 90 74 151.5t198 73.5v-170q-27 -7 -41 -17.5t-14 -31.5q0 -49 76 -49h358v-178zM188 682l-129 170q87 71 200 120.5t237 49.5q198 0 332.5 -107.5t134.5 -285.5q0 -68 -19.5 -130t-49 -112.5t-83 -107.5t-103.5 -100.5
t-128 -106.5q-65 -51 -101.5 -81t-82.5 -71.5t-69 -70t-40 -61t-17 -60.5q0 -88 136 -88l532 -2v-195h-569q-172 0 -262.5 68t-90.5 200q0 48 25.5 103t60.5 100.5t94 103t103 94.5t111 91q169 136 235 220t66 185q0 94 -64 150.5t-168 56.5q-136 0 -291 -133z" />
    <glyph glyph-name="uni0578055B.liga" unicode="&#x578;&#x55b;" horiz-adv-x="1251" 
d="M1319 1569l-297 -312h-195l217 312h275zM416 0h-250v780q0 130 -8 211h239q9 -106 9 -155h4q38 80 124 132t191 52q94 0 166.5 -33t115 -90t64 -129t21.5 -156v-612h-250v545q0 125 -44 196.5t-153 71.5q-101 0 -165 -78.5t-64 -206.5v-528z" />
    <glyph glyph-name="uni0578055C.liga" unicode="&#x578;&#x55c;" horiz-adv-x="1251" 
d="M1067 1208h-190q0 27 3.5 50.5t8 41t16 34t19.5 27t26.5 22.5t29 18t36 16t37.5 14.5t43 14.5q103 35 139.5 60.5t36.5 66.5h190q0 -61 -12.5 -103t-42 -70.5t-63.5 -45.5t-89 -35q-16 -6 -39.5 -13.5t-36 -11.5t-29.5 -10t-26 -10t-20 -10t-16.5 -11.5t-11 -12.5
t-7.5 -15t-2 -17zM416 0h-250v780q0 130 -8 211h239q9 -106 9 -155h4q38 80 124 132t191 52q94 0 166.5 -33t115 -90t64 -129t21.5 -156v-612h-250v545q0 125 -44 196.5t-153 71.5q-101 0 -165 -78.5t-64 -206.5v-528z" />
    <glyph glyph-name="uni0578055E.liga" unicode="&#x578;&#x55e;" horiz-adv-x="1251" 
d="M1544 1405q0 -97 -73 -156t-193 -59v151q21 0 38 11.5t17 31.5q0 23 -19 35.5t-50 12.5q-89 0 -134 -62.5t-45 -179.5h-213q0 176 115.5 296t294.5 120q112 0 187 -55t75 -146zM416 0h-250v780q0 130 -8 211h239q9 -106 9 -155h4q38 80 124 132t191 52q94 0 166.5 -33
t115 -90t64 -129t21.5 -156v-612h-250v545q0 125 -44 196.5t-153 71.5q-101 0 -165 -78.5t-64 -206.5v-528z" />
    <glyph glyph-name="uni0578055F.liga" unicode="&#x578;&#x55f;" horiz-adv-x="1251" 
d="M1104 1274h-385q-129 0 -197.5 61t-68.5 160q0 90 74 151.5t198 73.5v-170q-27 -7 -41 -17.5t-14 -31.5q0 -49 75 -49h359v-178zM416 0h-250v780q0 130 -8 211h239q9 -106 9 -155h4q38 80 124 132t191 52q94 0 166.5 -33t115 -90t64 -129t21.5 -156v-612h-250v545
q0 125 -44 196.5t-153 71.5q-101 0 -165 -78.5t-64 -206.5v-528z" />
    <glyph glyph-name="uni0579055F.liga" unicode="&#x579;&#x55f;" horiz-adv-x="968" 
d="M842 1276h-385q-129 0 -198 61t-69 160q0 90 74.5 151.5t198.5 73.5v-170q-27 -7 -41 -17.5t-14 -31.5q0 -49 75 -49h359v-178zM403 997l115 -174q-62 -32 -85 -58.5t-23 -57.5q0 -28 22.5 -52t87.5 -65q144 -91 279 -170v-86q-142 -114 -353 -299q-77 -69 -116 -128
t-39 -122q0 -139 186 -139l490 -2v-201h-518q-198 0 -305 84t-107 233q0 167 223 373q67 64 246 219q-22 14 -74.5 48t-95.5 63q-104 67 -144 116.5t-40 133.5q0 93 71 167t180 117z" />
    <glyph glyph-name="uni057A055F.liga" unicode="&#x57a;&#x55f;" horiz-adv-x="1863" 
d="M1323 1276h-385q-129 0 -197.5 61t-68.5 160q0 90 74 151.5t198 73.5v-170q-27 -7 -41 -17.5t-14 -31.5q0 -49 76 -49h358v-178zM143 379v612h248v-542q0 -49 4 -86t15 -73t30 -59t50.5 -37t74.5 -14q102 0 165 78.5t63 206.5v526h247v-542q0 -48 4 -85.5t15.5 -73.5
t30.5 -59t50.5 -37t73.5 -14q102 0 165 79t63 208v524h250v-1548h-250v702h-4q-35 -73 -117.5 -122.5t-183.5 -49.5q-233 0 -312 207h-4q-37 -89 -132 -148t-204 -59q-91 0 -158.5 32.5t-106.5 90.5t-58 128.5t-19 154.5z" />
    <glyph glyph-name="uni057B055F.liga" unicode="&#x57b;&#x55f;" horiz-adv-x="1206" 
d="M1024 1272h-385q-129 0 -197.5 61t-68.5 160q0 90 74 151.5t198 73.5v-170q-27 -7 -41 -17.5t-14 -31.5q0 -49 76 -49h358v-178zM418 -270q0 -90 139 -90l537 -2v-195h-557q-175 0 -272 63.5t-97 190.5q0 90 66 174.5t182 175.5q-10 39 -33 73t-51 59.5t-60 51.5
t-61.5 55t-53.5 63t-38.5 82.5t-14.5 107.5q0 57 18 108.5t41 88.5t70.5 74.5t81 60t98.5 51.5t96.5 41.5t101.5 38.5l48 18l48 -24q55 -28 84 -43t80 -45t79.5 -53t65 -60t55.5 -73t33 -84t14 -101q0 -67 -25.5 -129t-79 -123.5t-119.5 -118t-163 -125.5
q-19 -14 -56.5 -40.5t-54.5 -39t-47.5 -35.5t-45 -35.5t-36 -32t-32 -33t-21.5 -30.5t-15.5 -33t-4.5 -32zM352 530q0 -54 17.5 -93.5t44 -65t53 -52.5t48 -72.5t26.5 -107.5q15 10 51 37q145 108 213.5 186t68.5 166q0 27 -4.5 51t-15.5 45t-19.5 37t-28.5 34t-29.5 28
t-35 25.5t-33 20t-35.5 20t-30 16.5q-126 -47 -170 -73q-121 -72 -121 -202z" />
    <glyph glyph-name="uni057C055F.liga" unicode="&#x57c;&#x55f;" horiz-adv-x="1306" 
d="M1098 1276h-385q-129 0 -198 61t-69 160q0 90 74.5 151.5t198.5 73.5v-170q-27 -7 -41 -17.5t-14 -31.5q0 -49 75 -49h359v-178zM1022 197h268v-197h-561q4 16 21.5 78t25 89.5t22 84.5t22 93t16.5 83t12.5 86.5t3.5 73.5q0 225 -207 225q-102 0 -165.5 -79t-63.5 -210
v-524h-250v780q0 130 -8 211h239q9 -106 9 -155h4q38 78 127.5 131t193.5 53q174 0 274.5 -107.5t100.5 -275.5q0 -143 -84 -440z" />
    <glyph glyph-name="uni057D055F.liga" unicode="&#x57d;&#x55f;" horiz-adv-x="1222" 
d="M879 1276h-385q-129 0 -198 61t-69 160q0 90 74.5 151.5t198.5 73.5v-170q-28 -7 -42 -17.5t-14 -31.5q0 -49 76 -49h359v-178zM496 -27q-93 0 -162.5 32.5t-110.5 90t-60.5 128.5t-19.5 155v612h248v-542q0 -61 7.5 -106t27 -84t57 -59t92.5 -20q102 0 166 78.5
t64 206.5v526h248v-780q0 -130 8 -211h-238q-8 94 -8 156h-4q-38 -79 -123.5 -131t-191.5 -52z" />
    <glyph glyph-name="uni057E0576055F.liga" unicode="&#x57e;&#x576;&#x55f;" horiz-adv-x="2463" 
d="M1497 1739h-385q-129 0 -197.5 61t-68.5 160q0 90 74 151.5t198 73.5v-170q-27 -7 -41 -17.5t-14 -31.5q0 -49 76 -49h358v-178zM2294 991v-780q0 -130 8 -211h-238q-8 94 -8 156h-4q-39 -77 -125 -130t-190 -53q-182 0 -280.5 114.5t-98.5 295.5q0 91 15.5 190t46 201
t45.5 147t44 123h-452v-1402h307v-199h-555v702h-4q-37 -75 -119 -123.5t-186 -48.5q-75 0 -135.5 21.5t-101 59t-68 89.5t-40 111t-12.5 125v586h248v-516q0 -59 8 -104t28 -83.5t58 -59t93 -20.5q101 0 166 78.5t65 206.5v577h-104q-182 0 -271.5 75t-89.5 194
q0 135 141 280l181 -133q-39 -39 -55.5 -66.5t-16.5 -58.5q0 -94 141 -94h74v307h248v-307h758q-41 -115 -64.5 -183.5t-62 -194t-57.5 -229t-19 -183.5q0 -271 200 -271q104 0 169 79t65 208v524h248z" />
    <glyph glyph-name="uni057E055F.liga" unicode="&#x57e;&#x55f;" horiz-adv-x="1404" 
d="M1057 1737h-385q-129 0 -197.5 61t-68.5 160q0 90 74 151.5t198 73.5v-170q-27 -7 -41 -17.5t-14 -31.5q0 -49 75 -49h359v-178zM1057 1470v-1828h340v-199h-588v702h-4q-37 -75 -119 -123.5t-186 -48.5q-75 0 -135.5 21.5t-101 59t-68 89.5t-40 111t-12.5 125v612h248
v-542q0 -59 8 -104t28 -83.5t58 -59t93 -20.5q101 0 166 78.5t65 206.5v1003h248z" />
    <glyph glyph-name="uni057F055F.liga" unicode="&#x57f;&#x55f;" horiz-adv-x="1888" 
d="M1206 1276h-385q-129 0 -197.5 61t-68.5 160q0 90 74 151.5t198 73.5v-170q-27 -7 -41 -17.5t-14 -31.5q0 -49 76 -49h358v-178zM496 -27q-93 0 -162.5 32.5t-110.5 90t-60.5 128.5t-19.5 155v612h248v-542q0 -61 7.5 -106t27 -84t57 -59t92.5 -20q102 0 166 78.5
t64 206.5v315q0 130 -8 211h237q8 -94 8 -155h7q36 80 122 132t191 52q94 0 166.5 -33t115 -90t64 -129t21.5 -156v-612h-248v545q0 125 -45 196.5t-154 71.5q-101 0 -165 -78.5t-64 -206.5l2 -528h-238v156h-4q-40 -79 -126.5 -131t-190.5 -52z" />
    <glyph glyph-name="uni0580055F.liga" unicode="&#x580;&#x55f;" horiz-adv-x="1251" 
d="M1102 1276h-385q-129 0 -197.5 61t-68.5 160q0 90 74 151.5t198 73.5v-170q-27 -7 -41 -17.5t-14 -31.5q0 -49 75 -49h359v-178zM416 -557h-250v1337q0 130 -8 211h239q9 -106 9 -155h4q38 80 124 132t191 52q94 0 166.5 -33t115 -90t64 -129t21.5 -156v-612h-250v545
q0 125 -44 196.5t-153 71.5q-101 0 -165 -78.5t-64 -206.5v-1085z" />
    <glyph glyph-name="uni0581055F.liga" unicode="&#x581;&#x55f;" horiz-adv-x="1345" 
d="M1030 1276h-385q-129 0 -197.5 61t-68.5 160q0 90 74 151.5t198 73.5v-170q-27 -7 -41 -17.5t-14 -31.5q0 -49 76 -49h358v-178zM621 -578q-136 0 -277.5 47t-234.5 128l139 182q66 -69 159.5 -109.5t188.5 -40.5q173 0 255.5 86.5t82.5 233.5v203h-6
q-51 -74 -139.5 -116t-192.5 -42q-148 0 -260.5 68.5t-171 183.5t-58.5 256q0 105 34.5 199t96 165t154.5 112.5t203 41.5q104 0 196 -45t146 -129h6q0 51 8 145h238q-6 -61 -6 -207v-815q0 -162 -61.5 -283.5t-189.5 -192.5t-310 -71zM645 195q134 0 217.5 89t83.5 222
q0 128 -84.5 218.5t-216.5 90.5q-134 0 -213.5 -89t-79.5 -220q0 -129 80 -220t213 -91z" />
    <glyph glyph-name="uni0582055B.liga" unicode="&#x582;&#x55b;" horiz-adv-x="796" 
d="M618 1257l218 312h274l-297 -312h-195zM166 991h248v-794h340v-197h-588v991z" />
    <glyph glyph-name="uni0582055C.liga" unicode="&#x582;&#x55c;" horiz-adv-x="796" 
d="M1063 1573h190q0 -61 -12.5 -103t-41.5 -70.5t-63 -45.5t-89 -35q-16 -6 -39.5 -13.5t-36 -11.5t-29.5 -10t-26 -10t-20.5 -10t-17 -11.5t-11 -12.5t-7.5 -15t-2 -17h-190q0 27 3.5 50.5t8 41t16 34t19.5 27t26.5 22.5t29 18t36 16t37.5 14.5t43 14.5q103 35 139.5 60.5
t36.5 66.5zM166 991h248v-794h340v-197h-588v991z" />
    <glyph glyph-name="uni0582055E.liga" unicode="&#x582;&#x55e;" horiz-adv-x="796" 
d="M1073 1606q112 0 187 -55t75 -146q0 -97 -73 -156t-193 -59v151q21 0 38 11.5t17 31.5q0 23 -19 35.5t-50 12.5q-178 0 -178 -242h-213q0 176 115 296t294 120zM166 991h248v-794h340v-197h-588v991z" />
    <glyph glyph-name="uni0582055F.liga" unicode="&#x582;&#x55f;" horiz-adv-x="796" 
d="M397 1454h359v-178h-385q-129 0 -198 61t-69 160q0 90 74.5 151.5t198.5 73.5v-170q-27 -7 -41 -17.5t-14 -31.5q0 -49 75 -49zM166 991h248v-794h340v-197h-588v991z" />
    <glyph glyph-name="uni0583055F.liga" unicode="&#x583;&#x55f;" horiz-adv-x="1902" 
d="M1233 1737h-385q-129 0 -197.5 61t-68.5 160q0 90 74 151.5t198 73.5v-170q-27 -7 -41 -17.5t-14 -31.5q0 -49 75 -49h359v-178zM143 385v612h248v-542q0 -60 9 -106t30.5 -84t61 -58.5t96.5 -20.5q101 0 166 78.5t65 206.5v1077h248v-698h4q36 73 120 121.5t185 48.5
q94 0 166.5 -33t115 -90t64 -129t21.5 -156v-612h-250v545q0 59 -9 104t-30 83.5t-60 58.5t-96 20q-101 0 -166 -78t-65 -207v-1083h-248v709h-4q-38 -76 -120.5 -125.5t-184.5 -49.5q-94 0 -166.5 33t-115 90t-64 129t-21.5 156z" />
    <glyph glyph-name="uni0584055F.liga" unicode="&#x584;&#x55f;" horiz-adv-x="1284" 
d="M1059 1276h-385q-129 0 -197.5 61t-68.5 160q0 90 74 151.5t198 73.5v-170q-27 -7 -41 -17.5t-14 -31.5q0 -49 75 -49h359v-178zM453 217h-4v-285h661v-196h-661v-271h-244v271h-158v196h158l2 867q0 121 -8 194h235q6 -68 6 -139h6q43 73 131 119.5t185 46.5
q133 0 232 -64.5t148.5 -170t49.5 -236.5q0 -198 -124.5 -332.5t-319.5 -134.5q-91 0 -167 35.5t-128 99.5zM700 825q-114 0 -189 -78t-75 -196q0 -120 72.5 -197.5t191.5 -77.5q124 0 191 78t67 197q0 111 -69.5 192.5t-188.5 81.5z" />
    <glyph glyph-name="uni0585055B.liga" unicode="&#x585;&#x55b;" horiz-adv-x="1294" 
d="M1237 1569l-297 -312h-195l218 312h274zM647 -29q-151 0 -274 65.5t-195 187t-72 274.5t72 273.5t195 185.5t274 65t274.5 -65t196 -185.5t72.5 -273.5t-72.5 -274.5t-196 -187t-274.5 -65.5zM647 180q135 0 215 93.5t80 224.5q0 132 -80.5 224.5t-214.5 92.5
t-214.5 -92.5t-80.5 -224.5q0 -131 80.5 -224.5t214.5 -93.5z" />
    <glyph glyph-name="uni0585055C.liga" unicode="&#x585;&#x55c;" horiz-adv-x="1294" 
d="M987 1208h-190q0 27 3.5 50.5t8 41t16 34t19.5 27t26.5 22.5t29 18t36 16t37.5 14.5t43 14.5q103 35 139.5 60.5t36.5 66.5h190q0 -61 -12.5 -103t-41.5 -70.5t-63 -45.5t-89 -35q-16 -6 -39.5 -13.5t-36 -11.5t-29.5 -10t-26 -10t-20.5 -10t-17 -11.5t-11 -12.5
t-7.5 -15t-2 -17zM647 -29q-151 0 -274 65.5t-195 187t-72 274.5t72 273.5t195 185.5t274 65t274.5 -65t196 -185.5t72.5 -273.5t-72.5 -274.5t-196 -187t-274.5 -65.5zM647 180q135 0 215 93.5t80 224.5q0 132 -80.5 224.5t-214.5 92.5t-214.5 -92.5t-80.5 -224.5
q0 -131 80.5 -224.5t214.5 -93.5z" />
    <glyph glyph-name="uni0585055E.liga" unicode="&#x585;&#x55e;" horiz-adv-x="1294" 
d="M1462 1405q0 -97 -73 -156t-193 -59v151q21 0 38 11.5t17 31.5q0 23 -19 35.5t-50 12.5q-178 0 -178 -242h-213q0 176 115 296t294 120q112 0 187 -55t75 -146zM647 -29q-151 0 -274 65.5t-195 187t-72 274.5t72 273.5t195 185.5t274 65t274.5 -65t196 -185.5
t72.5 -273.5t-72.5 -274.5t-196 -187t-274.5 -65.5zM647 180q135 0 215 93.5t80 224.5q0 132 -80.5 224.5t-214.5 92.5t-214.5 -92.5t-80.5 -224.5q0 -131 80.5 -224.5t214.5 -93.5z" />
    <glyph glyph-name="uni0585055F.liga" unicode="&#x585;&#x55f;" horiz-adv-x="1294" 
d="M932 1274h-385q-129 0 -197.5 61t-68.5 160q0 90 74 151.5t198 73.5v-170q-27 -7 -41 -17.5t-14 -31.5q0 -49 75 -49h359v-178zM647 -29q-151 0 -274 65.5t-195 187t-72 274.5t72 273.5t195 185.5t274 65t274.5 -65t196 -185.5t72.5 -273.5t-72.5 -274.5t-196 -187
t-274.5 -65.5zM647 180q135 0 215 93.5t80 224.5q0 132 -80.5 224.5t-214.5 92.5t-214.5 -92.5t-80.5 -224.5q0 -131 80.5 -224.5t214.5 -93.5z" />
    <glyph glyph-name="uni0586055F.liga" unicode="&#x586;&#x55f;" horiz-adv-x="1521" 
d="M1049 1741h-385q-129 0 -198 61t-69 160q0 90 74.5 151.5t198.5 73.5v-170q-28 -7 -42 -17.5t-14 -31.5q0 -49 76 -49h359v-178zM1427 432q0 -179 -150 -303t-396 -152v-534h-230v534q-191 21 -338 83t-231 128l141 170q84 -69 201.5 -121.5t226.5 -56.5v527l-139 38
q-212 60 -299.5 169.5t-87.5 269.5q0 165 120.5 277t291.5 112q140 0 242 -78t102 -211v-393l129 -37q68 -19 124.5 -41.5t112.5 -58t94.5 -79.5t62 -106.5t23.5 -136.5zM549 961l102 -29v239q0 102 -26 147.5t-93 45.5q-66 0 -113.5 -51t-47.5 -135q0 -168 178 -217z
M881 666v-490q123 5 211 75t88 175q0 82 -47 131t-150 80z" />
    <glyph glyph-name="uni0E240E45" unicode="&#xe24;&#xe45;" horiz-adv-x="1937" 
d="M1358 1143q203 0 309.5 -111.5t106.5 -308.5v-1215h-232v1190q0 115 -53.5 177.5t-151.5 62.5q-102 0 -156.5 -62t-54.5 -178v-1190h-239v1160q0 129 -75 199.5t-200 70.5q-93 0 -166 -35t-112 -94v-8l244 -60v-129q-98 -9 -146.5 -64t-48.5 -145v-14q10 2 35 2
q90 0 147.5 -57.5t57.5 -145.5q0 -94 -63 -154.5t-161 -60.5q-110 0 -178.5 65t-68.5 183v178q0 99 44 165.5t148 97.5v6l-256 59v131q95 136 234.5 209.5t302.5 73.5q121 0 223 -39t170 -113q106 154 340 154zM483 182q0 37 -23.5 60.5t-58.5 23.5q-37 0 -60.5 -23.5
t-23.5 -60.5q0 -35 23.5 -58.5t60.5 -23.5q35 0 58.5 24t23.5 58z" />
    <glyph glyph-name="uni0E260E45" unicode="&#xe26;&#xe45;" horiz-adv-x="2011" 
d="M1430 1143q203 0 310 -111.5t107 -308.5v-1215h-231v1190q0 115 -53.5 177.5t-151.5 62.5q-104 0 -158.5 -62t-54.5 -178v-1190h-240v1156q0 131 -76.5 202.5t-203.5 71.5q-97 0 -170.5 -37.5t-114.5 -97.5v-10l250 -58v-129q-59 -11 -86 -49t-27 -111v-227
q0 -119 -65 -182.5t-170 -63.5q-98 0 -159.5 59t-61.5 152q0 87 56.5 144t141.5 57q21 0 31 -2v70q0 84 29 133.5t96 72.5v7l-281 57v131q97 139 237.5 213t309.5 74q121 0 224.5 -40t171.5 -116q106 158 340 158zM295 102q34 0 56 21.5t22 56.5t-22 56.5t-56 21.5
q-35 0 -57.5 -21.5t-22.5 -56.5q0 -34 22.5 -56t57.5 -22z" />
    <glyph glyph-name="uni066E.fina" unicode="&#x66e;" horiz-adv-x="2080" 
d="M2081 223q41 0 41 -119q0 -104 -41 -104q-205 0 -291 113q-93 -113 -291 -113h-924q-234 0 -369.5 114t-135.5 300q0 155 65 327l217 -57q-39 -157 -39 -219q0 -117 80 -179.5t221 -62.5h809q103 0 149 47t46 160v428h248v-430q0 -205 215 -205z" />
    <glyph glyph-name="uni066F.fina" unicode="&#x66f;" horiz-adv-x="1724" 
d="M1552 223h172q41 0 41 -119q0 -104 -41 -104h-190q-48 -183 -219.5 -271.5t-491.5 -88.5q-753 0 -753 499q0 130 53 281l217 -60q-27 -102 -27 -182q0 -158 121 -233.5t400 -75.5q376 0 446 131h-106q-253 0 -377.5 115t-124.5 321q0 86 30.5 165.5t86 142t142 100
t191.5 37.5t188 -34.5t135 -95t79.5 -139.5t27.5 -172v-217zM1171 223h132v203q0 106 -47 165.5t-140 59.5q-88 0 -141 -56.5t-53 -154.5q0 -217 249 -217z" />
    <glyph glyph-name="uni06A1.init" unicode="&#x6a1;" horiz-adv-x="1179" 
d="M631 881q111 0 197.5 -34.5t141.5 -96.5t83 -144t28 -180q0 -205 -82 -426h-999v223h193q-48 88 -48 203q0 196 132 325.5t354 129.5zM455 223h354q22 99 22 178q0 117 -54.5 183.5t-158.5 66.5q-106 0 -163.5 -62.5t-57.5 -164.5q0 -98 58 -201z" />
    <glyph glyph-name="uni06A1.medi" unicode="&#x6a1;" horiz-adv-x="1206" 
d="M1001 223h205q41 0 41 -119q0 -104 -41 -104h-229q-189 0 -375 33q-155 -33 -356 -33h-246v223h217h37q-109 114 -109 264q0 167 126 280.5t345 113.5q214 0 336.5 -110t122.5 -275q0 -153 -108 -273h34zM608 240q85 16 151 83t66 154q0 78 -58.5 126t-154.5 48
t-155.5 -47.5t-59.5 -126.5q0 -84 61 -148t150 -89z" />
    <glyph glyph-name="uni06A1.fina" unicode="&#x6a1;" horiz-adv-x="2242" 
d="M2038 223h205q41 0 41 -119q0 -104 -41 -104h-230q-189 0 -375 33q-155 -33 -356 -33h-707q-234 0 -369.5 114t-135.5 300q0 155 65 327l217 -57q-39 -157 -39 -219q0 -117 80 -179.5t221 -62.5h639h37q-108 113 -108 264q0 167 126 280.5t345 113.5q214 0 336 -110
t122 -275q0 -154 -110 -273h37zM1645 240q85 16 151 83t66 154q0 78 -58.5 126t-154.5 48t-155.5 -47.5t-59.5 -126.5q0 -84 61 -148t150 -89z" />
    <glyph glyph-name="uni06C2.fina" unicode="&#x6c2;" horiz-adv-x="1183" 
d="M637 1051h213v-148h-449v148h88q-30 55 -30 114q0 91 63 147t170 56q68 0 133 -14l-24 -144q-42 11 -84 11q-107 0 -107 -88q0 -36 27 -82zM1184 223q41 0 41 -119q0 -58 -9.5 -81t-31.5 -23q-160 0 -246.5 46t-165.5 175q-52 83 -83.5 112t-72.5 29q-82 0 -177.5 -108
t-178.5 -289l-190 78q112 254 256 398.5t309 144.5q99 0 170 -47t141 -160q63 -98 108 -127t130 -29z" />
    <glyph glyph-name="uni06C3.fina" unicode="&#x6c3;" horiz-adv-x="1126" 
d="M399 1096q-58 0 -95.5 38t-37.5 97q0 57 37.5 94t95.5 37t94.5 -37t36.5 -94q0 -59 -36.5 -97t-94.5 -38zM739 1096q-59 0 -97 38t-38 97q0 57 38 94t97 37q56 0 92.5 -37t36.5 -94q0 -58 -36.5 -96.5t-92.5 -38.5zM1126 223q41 0 41 -119q0 -104 -41 -104
q-272 0 -354 88q-119 -61 -264 -61q-208 0 -323 110t-115 283q0 196 137.5 317t374.5 121h368v-475q0 -90 38 -125t138 -35zM692 285v352h-147q-104 0 -166 -52.5t-62 -146.5q0 -89 56 -136.5t168 -47.5q91 0 151 31z" />
    <glyph glyph-name="uni06D5.fina" unicode="&#x6d5;" horiz-adv-x="1126" 
d="M1126 223q41 0 41 -119q0 -104 -41 -104q-272 0 -354 88q-119 -61 -264 -61q-208 0 -323 110t-115 283q0 196 137.5 317t374.5 121h368v-475q0 -90 38 -125t138 -35zM692 285v352h-147q-104 0 -166 -52.5t-62 -146.5q0 -89 56 -136.5t168 -47.5q91 0 151 31z" />
    <glyph glyph-name="uniFB51" unicode="&#x671;" horiz-adv-x="589" arabic-form="final" 
d="M516 1788q0 -65 -29 -139h-512v112h91v205h106v-84q72 92 172 92q78 0 125 -50.5t47 -135.5zM319 1862q-86 0 -155 -101h235q2 8 2 25q0 34 -22 55t-60 21zM590 223q41 0 41 -119q0 -104 -41 -104q-248 0 -352.5 92.5t-104.5 292.5v1163h248v-1157q0 -87 50.5 -127.5
t158.5 -40.5z" />
    <glyph glyph-name="uniFB57" unicode="&#x67e;" horiz-adv-x="2080" arabic-form="final" 
d="M2081 223q41 0 41 -119q0 -104 -41 -104q-205 0 -291 113q-93 -113 -291 -113h-924q-234 0 -369.5 114t-135.5 300q0 155 65 327l217 -57q-39 -157 -39 -219q0 -117 80 -179.5t221 -62.5h809q103 0 149 47t46 160v428h248v-430q0 -205 215 -205zM918 -301q0 -59 -37 -96
t-95 -37t-95.5 37t-37.5 96q0 57 37.5 95t95.5 38t95 -38t37 -95zM1126 -168q55 0 92 -38t37 -95q0 -58 -36.5 -95.5t-92.5 -37.5q-59 0 -97 37.5t-38 95.5q0 57 38.5 95t96.5 38zM958 -444q60 0 97 -39t37 -99q0 -56 -37.5 -92.5t-96.5 -36.5q-56 0 -94.5 37t-38.5 92
q0 59 38.5 98.5t94.5 39.5z" />
    <glyph glyph-name="uniFB58" unicode="&#x67e;" horiz-adv-x="669" arabic-form="initial" 
d="M45 0h-45v223h51q122 0 165.5 50t43.5 186v399h250v-432q0 -231 -111.5 -328.5t-353.5 -97.5zM170 -434q-58 0 -95.5 37t-37.5 96q0 57 37.5 95t95.5 38t94.5 -37.5t36.5 -95.5q0 -59 -36.5 -96t-94.5 -37zM510 -434q-59 0 -97 37.5t-38 95.5q0 57 38.5 95t96.5 38
q55 0 92 -38t37 -95q0 -58 -36.5 -95.5t-92.5 -37.5zM342 -711q-56 0 -94.5 37t-38.5 92q0 59 38.5 98.5t94.5 39.5q59 0 96 -38.5t37 -99.5q0 -56 -37 -92.5t-96 -36.5z" />
    <glyph glyph-name="uniFB59" unicode="&#x67e;" horiz-adv-x="743" arabic-form="medial" 
d="M743 223q41 0 41 -119q0 -55 -9.5 -79.5t-31.5 -24.5q-226 0 -315 125q-102 -125 -375 -125h-53v223h51q122 0 165.5 50t43.5 186v399h250v-424q0 -211 233 -211zM309 -301q0 -59 -36.5 -96t-94.5 -37t-95.5 37t-37.5 96q0 57 37.5 95t95.5 38t94.5 -37.5t36.5 -95.5z
M518 -168q55 0 92 -38t37 -95q0 -58 -36.5 -95.5t-92.5 -37.5q-59 0 -97 37.5t-38 95.5q0 57 38.5 95t96.5 38zM350 -444q59 0 96 -38.5t37 -99.5q0 -56 -37 -92.5t-96 -36.5q-56 0 -94.5 37t-38.5 92q0 59 38.5 98.5t94.5 39.5z" />
    <glyph glyph-name="uniFB67" unicode="&#x679;" horiz-adv-x="2080" arabic-form="final" 
d="M1251 1077q0 -69 -30 -151h-564v123h95v352h116v-201q76 96 181 96q91 0 146.5 -59t55.5 -160zM1036 1174q-46 0 -91.5 -32.5t-78.5 -92.5h256q2 10 2 30q0 43 -24 69t-64 26zM2081 223q41 0 41 -119q0 -104 -41 -104q-205 0 -291 113q-93 -113 -291 -113h-924
q-234 0 -369.5 114t-135.5 300q0 155 65 327l217 -57q-39 -157 -39 -219q0 -117 80 -179.5t221 -62.5h809q103 0 149 47t46 160v428h248v-430q0 -205 215 -205z" />
    <glyph glyph-name="uniFB68" unicode="&#x679;" horiz-adv-x="669" arabic-form="initial" 
d="M455 1477q91 0 146.5 -59.5t55.5 -160.5q0 -69 -30 -151h-564v123h95v352h116v-201q77 97 181 97zM442 1354q-46 0 -91.5 -32.5t-78.5 -92.5h256q2 10 2 31q0 43 -24 68.5t-64 25.5zM260 459v399h250v-432q0 -231 -111.5 -328.5t-353.5 -97.5h-45v223h51q122 0 165.5 50
t43.5 186z" />
    <glyph glyph-name="uniFB69" unicode="&#x679;" horiz-adv-x="743" arabic-form="medial" 
d="M682 1257q0 -66 -31 -151h-563v123h94v352h117v-201q77 97 180 97q91 0 147 -59.5t56 -160.5zM467 1354q-46 0 -91.5 -32.5t-78.5 -92.5h256q2 10 2 31q0 43 -24 68.5t-64 25.5zM743 223q41 0 41 -119q0 -55 -9.5 -79.5t-31.5 -24.5q-226 0 -315 125q-102 -125 -375 -125
h-53v223h51q122 0 165.5 50t43.5 186v399h250v-424q0 -211 233 -211z" />
    <glyph glyph-name="uniFB6B" unicode="&#x6a4;" horiz-adv-x="2242" arabic-form="final" 
d="M1655 1384q-54 0 -92.5 39.5t-38.5 96.5t38.5 96t92.5 39q59 0 96 -38.5t37 -96.5t-37 -97t-96 -39zM1481 1104q-58 0 -95.5 38t-37.5 95q0 59 37 96t96 37q58 0 94.5 -37t36.5 -96q0 -58 -36.5 -95.5t-94.5 -37.5zM1686 1237q0 58 38 95.5t97 37.5q56 0 92.5 -37.5
t36.5 -95.5q0 -57 -37 -95t-92 -38q-58 0 -96.5 38t-38.5 95zM2038 223h205q41 0 41 -119q0 -104 -41 -104h-230q-189 0 -375 33q-155 -33 -356 -33h-707q-234 0 -369.5 114t-135.5 300q0 155 65 327l217 -57q-39 -157 -39 -219q0 -117 80 -179.5t221 -62.5h639h37
q-108 113 -108 264q0 167 126 280.5t345 113.5q214 0 336 -110t122 -275q0 -154 -110 -273h37zM1645 240q85 16 151 83t66 154q0 78 -58.5 126t-154.5 48t-155.5 -47.5t-59.5 -126.5q0 -84 61 -148t150 -89z" />
    <glyph glyph-name="uniFB6C" unicode="&#x6a4;" horiz-adv-x="1179" arabic-form="initial" 
d="M635 1384q-54 0 -92.5 39.5t-38.5 96.5t38.5 96t92.5 39q59 0 96 -38.5t37 -96.5t-37 -97t-96 -39zM461 1104q-58 0 -95.5 38t-37.5 95q0 59 37 96t96 37q58 0 94.5 -37t36.5 -96q0 -58 -36.5 -95.5t-94.5 -37.5zM666 1237q0 58 38 95.5t97 37.5q56 0 92.5 -37.5
t36.5 -95.5q0 -57 -37 -95t-92 -38q-58 0 -96.5 38t-38.5 95zM631 881q111 0 197.5 -34.5t141.5 -96.5t83 -144t28 -180q0 -205 -82 -426h-999v223h193q-48 88 -48 203q0 196 132 325.5t354 129.5zM455 223h354q22 99 22 178q0 117 -54.5 183.5t-158.5 66.5
q-106 0 -163.5 -62.5t-57.5 -164.5q0 -98 58 -201z" />
    <glyph glyph-name="uniFB6D" unicode="&#x6a4;" horiz-adv-x="1206" arabic-form="medial" 
d="M618 1384q-54 0 -92.5 39.5t-38.5 96.5t38.5 96t92.5 39q59 0 96.5 -38.5t37.5 -96.5t-37.5 -97t-96.5 -39zM444 1104q-58 0 -95.5 38t-37.5 95q0 59 37.5 96t95.5 37t94.5 -37t36.5 -96q0 -58 -36.5 -95.5t-94.5 -37.5zM649 1237q0 58 38 95.5t97 37.5q56 0 92.5 -37.5
t36.5 -95.5q0 -57 -37 -95t-92 -38q-58 0 -96.5 38t-38.5 95zM1001 223h205q41 0 41 -119q0 -104 -41 -104h-229q-189 0 -375 33q-155 -33 -356 -33h-246v223h217h37q-109 114 -109 264q0 167 126 280.5t345 113.5q214 0 336.5 -110t122.5 -275q0 -153 -108 -273h34z
M608 240q85 16 151 83t66 154q0 78 -58.5 126t-154.5 48t-155.5 -47.5t-59.5 -126.5q0 -84 61 -148t150 -89z" />
    <glyph glyph-name="uniFB7B" unicode="&#x686;" horiz-adv-x="1318" arabic-form="final" 
d="M1151 223h168q41 0 41 -119q0 -104 -41 -104h-830q-86 0 -134 -42t-48 -114q0 -75 56 -116t143 -41q29 0 43 2l20 -217q-36 -4 -63 -4q-197 0 -323 98.5t-126 269.5q0 180 113 283.5t307 103.5h422q6 34 6 68q0 182 -81 271t-253 89q-92 0 -204 -28l-56 211
q130 47 279 47q144 0 253 -42t176.5 -119t100.5 -180.5t33 -232.5q0 -55 -2 -84zM764 -174q0 -43 -26.5 -70.5t-69.5 -27.5q-42 0 -70.5 28t-28.5 70q0 41 29 69.5t70 28.5q42 0 69 -28t27 -70zM920 -76q41 0 67.5 -28t26.5 -70q0 -43 -26.5 -70.5t-67.5 -27.5q-43 0 -72 28
t-29 70q0 41 29 69.5t72 28.5zM797 -281q43 0 69.5 -28t26.5 -72q0 -42 -27 -69t-69 -27t-71.5 27.5t-29.5 68.5q0 43 29.5 71.5t71.5 28.5z" />
    <glyph glyph-name="uniFB7C" unicode="&#x686;" horiz-adv-x="991" arabic-form="initial" 
d="M856 0h-856v223h635q10 52 10 99q0 160 -84 244.5t-242 84.5q-91 0 -206 -28l-56 213q131 45 275 45q145 0 253.5 -40.5t175.5 -116t99.5 -178t32.5 -233.5q0 -149 -37 -313zM242 -434q-58 0 -95.5 37t-37.5 96q0 57 37.5 95t95.5 38t94.5 -37.5t36.5 -95.5
q0 -59 -36.5 -96t-94.5 -37zM582 -434q-59 0 -97.5 37.5t-38.5 95.5q0 57 39 95t97 38q55 0 92 -38t37 -95q0 -58 -36.5 -95.5t-92.5 -37.5zM414 -711q-56 0 -94.5 37t-38.5 92q0 59 38.5 98.5t94.5 39.5q59 0 96 -38.5t37 -99.5q0 -56 -37 -92.5t-96 -36.5z" />
    <glyph glyph-name="uniFB7D" unicode="&#x686;" horiz-adv-x="1067" arabic-form="medial" 
d="M889 223h178q41 0 41 -119q0 -104 -41 -104h-1067v223h635q10 52 10 99q0 160 -84 244.5t-242 84.5q-91 0 -206 -28l-56 213q131 45 275 45q145 0 253.5 -40.5t175.5 -116t99.5 -178t32.5 -233.5q0 -28 -4 -90zM373 -301q0 -59 -36.5 -96t-94.5 -37t-95.5 37t-37.5 96
q0 57 37.5 95t95.5 38t94.5 -37.5t36.5 -95.5zM582 -168q55 0 92 -38t37 -95q0 -58 -36.5 -95.5t-92.5 -37.5q-59 0 -97.5 37.5t-38.5 95.5q0 57 39 95t97 38zM414 -444q59 0 96 -38.5t37 -99.5q0 -56 -37 -92.5t-96 -36.5q-56 0 -94.5 37t-38.5 92q0 59 38.5 98.5
t94.5 39.5z" />
    <glyph glyph-name="uniFB89" unicode="&#x688;" horiz-adv-x="1079" arabic-form="final" 
d="M678 1233q0 -67 -31 -152h-563v123h94v352h117v-200q76 96 180 96q91 0 147 -59.5t56 -159.5zM463 1329q-46 0 -91.5 -32.5t-78.5 -92.5h256q2 10 2 31q0 43 -24 68.5t-64 25.5zM930 223h149q41 0 41 -119q0 -104 -41 -104h-1009v223h614q0 120 -94.5 253.5t-272.5 246.5
l150 201q237 -153 344.5 -320.5t118.5 -380.5z" />
    <glyph glyph-name="uniFB8B" unicode="&#x698;" horiz-adv-x="712" arabic-form="final" 
d="M375 1362q-54 0 -92.5 39t-38.5 96t38.5 96t92.5 39q59 0 96 -38.5t37 -96.5t-37 -96.5t-96 -38.5zM201 1081q-58 0 -95.5 38t-37.5 95q0 59 37.5 96.5t95.5 37.5t94.5 -37.5t36.5 -96.5q0 -58 -36.5 -95.5t-94.5 -37.5zM406 1214q0 58 38 96t97 38q56 0 92.5 -38
t36.5 -96q0 -57 -37 -95t-92 -38q-58 0 -96.5 38t-38.5 95zM498 223h215q41 0 41 -119q0 -104 -41 -104h-226v6q-28 -179 -139 -271t-323 -112l-33 223q140 19 199 84t59 213v715h248v-635z" />
    <glyph glyph-name="uniFB8D" unicode="&#x691;" horiz-adv-x="712" arabic-form="final" 
d="M670 1257q0 -66 -31 -151h-563v123h94v352h117v-201q77 97 180 97q91 0 147 -59.5t56 -160.5zM455 1354q-46 0 -91.5 -32.5t-78.5 -92.5h256q2 10 2 31q0 43 -24 68.5t-64 25.5zM498 223h215q41 0 41 -119q0 -104 -41 -104h-226v6q-28 -179 -139 -271t-323 -112l-33 223
q140 19 199 84t59 213v715h248v-635z" />
    <glyph glyph-name="uniFB8F" unicode="&#x6a9;" horiz-adv-x="1863" arabic-form="final" 
d="M1694 223h170q41 0 41 -119q0 -104 -41 -104h-1289q-234 0 -369.5 114t-135.5 300q0 155 65 327l217 -57q-39 -157 -39 -219q0 -117 80 -179.5t221 -62.5h834v17q0 135 -51 226t-175.5 159t-342.5 118v236l579 559l162 -164l-490 -473q309 -95 436.5 -255.5t127.5 -418.5
v-4z" />
    <glyph glyph-name="uniFB90" unicode="&#x6a9;" horiz-adv-x="987" arabic-form="initial" 
d="M815 1374l-489 -473q158 -49 267 -113.5t174 -149t93.5 -184t28.5 -227.5v-227h-889v223h643v17q0 135 -51 226t-175.5 159t-342.5 118v236l579 559z" />
    <glyph glyph-name="uniFB91" unicode="&#x6a9;" horiz-adv-x="1071" arabic-form="medial" 
d="M889 223h182q41 0 41 -119q0 -104 -41 -104h-1071v223h643v17q0 135 -51 226t-175.5 159t-342.5 118v236l579 559l162 -164l-489 -473q158 -49 267 -113.5t174 -149t93.5 -184t28.5 -227.5v-4z" />
    <glyph glyph-name="uniFB93" unicode="&#x6af;" horiz-adv-x="1863" arabic-form="final" 
d="M1257 1741l127 -127l-526 -506l-129 129zM1694 223h170q41 0 41 -119q0 -104 -41 -104h-1289q-234 0 -369.5 114t-135.5 300q0 155 65 327l217 -57q-39 -157 -39 -219q0 -117 80 -179.5t221 -62.5h834v17q0 135 -51 226t-175.5 159t-342.5 118v236l579 559l162 -164
l-490 -473q309 -95 436.5 -255.5t127.5 -418.5v-4z" />
    <glyph glyph-name="uniFB94" unicode="&#x6af;" horiz-adv-x="987" arabic-form="initial" 
d="M453 1741l127 -127l-527 -506l-129 129zM815 1374l-489 -473q158 -49 267 -113.5t174 -149t93.5 -184t28.5 -227.5v-227h-889v223h643v17q0 135 -51 226t-175.5 159t-342.5 118v236l579 559z" />
    <glyph glyph-name="uniFB95" unicode="&#x6af;" horiz-adv-x="1071" arabic-form="medial" 
d="M453 1741l127 -127l-527 -506l-129 129zM889 223h182q41 0 41 -119q0 -104 -41 -104h-1071v223h643v17q0 135 -51 226t-175.5 159t-342.5 118v236l579 559l162 -164l-489 -473q158 -49 267 -113.5t174 -149t93.5 -184t28.5 -227.5v-4z" />
    <glyph glyph-name="uniFB9F" unicode="&#x6ba;" horiz-adv-x="1413" arabic-form="final" 
d="M1221 223h192q41 0 41 -119q0 -104 -41 -104h-211q-43 -180 -188 -270t-367 -90q-139 0 -250 37.5t-182 104.5t-108 156t-37 193q0 175 96 387l211 -72q-64 -166 -64 -282q0 -143 88.5 -219t247.5 -76t241.5 72.5t82.5 248.5v519h248v-486z" />
    <glyph glyph-name="uniFBA5" unicode="&#x6c0;" horiz-adv-x="1126" arabic-form="final" 
d="M580 1190h168v-115h-351v115h68q-25 45 -25 90q0 71 50.5 115.5t134.5 44.5q50 0 104 -15l-20 -108q-36 8 -66 8q-38 0 -61 -18t-23 -52q0 -25 21 -65zM1126 223q41 0 41 -119q0 -104 -41 -104q-272 0 -354 88q-119 -61 -264 -61q-208 0 -323 110t-115 283
q0 196 137.5 317t374.5 121h368v-475q0 -90 38 -125t138 -35zM692 285v352h-147q-104 0 -166 -52.5t-62 -146.5q0 -89 56 -136.5t168 -47.5q91 0 151 31z" />
    <glyph glyph-name="uniFBA7" unicode="&#x6c1;" horiz-adv-x="1183" arabic-form="final" 
d="M260 -35l-190 78q112 254 256 398.5t309 144.5q99 0 170 -47t141 -160q63 -98 108 -127t130 -29q41 0 41 -119q0 -58 -9.5 -81t-31.5 -23q-160 0 -246.5 46t-165.5 175q-52 83 -83.5 112t-72.5 29q-82 0 -177.5 -108t-178.5 -289z" />
    <glyph glyph-name="uniFBA8" unicode="&#x6c1;" horiz-adv-x="550" arabic-form="initial" 
d="M0 0v223q118 0 160.5 48.5t42.5 187.5v399h250v-432q0 -235 -109 -330.5t-344 -95.5zM367 -489l-187 -86q-76 115 -76 266q0 116 46 221l161 -35q-20 -68 -20 -131q0 -117 76 -235z" />
    <glyph glyph-name="uniFBA9" unicode="&#x6c1;" horiz-adv-x="952" arabic-form="medial" 
d="M932 223h20q41 0 41 -119q0 -55 -9.5 -79.5t-31.5 -24.5h-16q-133 0 -200.5 -81t-67.5 -255v-158h-80q-240 0 -377 114t-137 319v61h-74v223h311v-264q0 -102 36 -157.5t122 -75.5v24q0 235 123 354t340 119z" />
    <glyph glyph-name="uniFBAB" unicode="&#x6be;" horiz-adv-x="1433" arabic-form="final" 
d="M1251 223h183q41 0 41 -119q0 -55 -9.5 -79.5t-31.5 -24.5h-154q55 -95 55 -180q0 -141 -106.5 -226.5t-296.5 -85.5q-233 0 -338 105.5t-105 306.5v80h-20q-239 0 -399 59l55 215q151 -51 344 -51h20v154q0 221 111.5 357t317.5 136q97 0 176 -32.5t128.5 -88t76 -127
t26.5 -151.5q0 -133 -74 -248zM909 641q-80 0 -125 -59t-45 -174v-185h109q104 0 165.5 60.5t61.5 167.5q0 82 -43 136t-123 54zM924 -262q159 0 159 129q0 68 -45 133h-299v-59q0 -104 44 -153.5t141 -49.5z" />
    <glyph glyph-name="uniFBAC" unicode="&#x6be;" horiz-adv-x="1339" arabic-form="initial" 
d="M111 721l32 201q147 -6 269 -19t237 -37.5t204 -60t164 -87.5t123.5 -119t75.5 -155.5t27 -195.5q0 -100 -29 -248h-475q-145 0 -254 39q-98 -39 -260 -39h-225v223h203h6q-70 99 -70 226q0 172 113 266q-21 2 -44.5 3t-52 1.5t-44.5 1.5zM485 238q71 35 113.5 93.5
t42.5 137.5q0 82 -40.5 132t-106.5 50q-65 0 -105.5 -50.5t-40.5 -129.5q0 -150 137 -233zM1030 272q0 215 -211 326q31 -70 31 -143q0 -132 -80 -232h256q4 32 4 49z" />
    <glyph glyph-name="uniFBAD" unicode="&#x6be;" horiz-adv-x="1073" arabic-form="medial" 
d="M891 223h182q41 0 41 -119q0 -104 -41 -104h-155q55 -90 55 -180q0 -141 -106.5 -226.5t-295.5 -85.5q-233 0 -337.5 105.5t-104.5 306.5v80h-129v223h129v154q0 221 111 357t317 136q129 0 223 -56.5t138.5 -145.5t44.5 -197q0 -136 -72 -248zM547 641q-80 0 -125 -59
t-45 -174v-185h110q104 0 166 60.5t62 167.5q0 82 -43.5 136t-124.5 54zM563 -262q160 0 160 129q0 68 -45 133h-301v-59q0 -104 44 -153.5t142 -49.5z" />
    <glyph glyph-name="uniFBAF" unicode="&#x6d2;" horiz-adv-x="1456" arabic-form="final" 
d="M1896 -532h-1140q-251 0 -402 40.5t-217.5 121.5t-66.5 214q0 379 538 379h848q41 0 41 -119q0 -104 -41 -104h-866q-150 0 -217.5 -38t-67.5 -112q0 -55 41 -87.5t151 -51t304 -18.5h1095v-225z" />
    <glyph glyph-name="uniFBB1" unicode="&#x6d3;" horiz-adv-x="1456" arabic-form="final" 
d="M557 612h213v-147h-448v147h88q-31 57 -31 115q0 91 63 147t170 56q64 0 133 -15l-24 -143q-38 10 -84 10q-107 0 -107 -88q0 -36 27 -82zM801 -307h1095v-225h-1140q-251 0 -402 40.5t-217.5 121.5t-66.5 214q0 379 538 379h848q41 0 41 -119q0 -104 -41 -104h-866
q-150 0 -217.5 -38t-67.5 -112q0 -55 41 -87.5t151 -51t304 -18.5z" />
    <glyph glyph-name="uniFBE8" unicode="&#x649;" horiz-adv-x="550" arabic-form="initial" 
d="M0 0v223q118 0 160.5 48.5t42.5 187.5v399h250v-432q0 -235 -109 -330.5t-344 -95.5z" />
    <glyph glyph-name="uniFBE9" unicode="&#x649;" horiz-adv-x="667" arabic-form="medial" 
d="M668 223q41 0 41 -119q0 -104 -41 -104q-215 0 -299 123q-103 -123 -369 -123v223q118 0 160.5 48.5t42.5 187.5v399h250v-430q0 -205 215 -205z" />
    <glyph glyph-name="uniFBFD" unicode="&#x6cc;" horiz-adv-x="1615" arabic-form="final" 
d="M1389 223h227q41 0 41 -119q0 -55 -9.5 -79.5t-31.5 -24.5h-103q60 -66 60 -152q0 -163 -204 -271.5t-556 -108.5q-192 0 -335.5 37t-232 105.5t-132 161.5t-43.5 210q0 116 53 280l217 -55q-27 -120 -27 -193q0 -113 49.5 -181t163.5 -102t305 -34q238 0 364 49.5
t126 126.5q0 51 -52 93t-157 69l-254 61l53 211l277 -65q86 -19 201 -19z" />
    <glyph glyph-name="uniFBFE" unicode="&#x6cc;" horiz-adv-x="669" arabic-form="initial" 
d="M45 0h-45v223h51q122 0 165.5 50t43.5 186v399h250v-432q0 -231 -111.5 -328.5t-353.5 -97.5zM170 -432q-58 0 -95.5 37t-37.5 94q0 59 37.5 97t95.5 38t94.5 -38t36.5 -97q0 -57 -36.5 -94t-94.5 -37zM510 -432q-59 0 -97 37t-38 94q0 59 38.5 97t96.5 38
q56 0 92.5 -38.5t36.5 -96.5q0 -57 -36.5 -94t-92.5 -37z" />
    <glyph glyph-name="uniFBFF" unicode="&#x6cc;" horiz-adv-x="743" arabic-form="medial" 
d="M743 223q41 0 41 -119q0 -55 -9.5 -79.5t-31.5 -24.5q-226 0 -315 125q-102 -125 -375 -125h-53v223h51q122 0 165.5 50t43.5 186v399h250v-424q0 -211 233 -211zM178 -166q58 0 94.5 -38t36.5 -97q0 -57 -36.5 -94t-94.5 -37t-95.5 37t-37.5 94q0 59 37.5 97t95.5 38z
M518 -166q56 0 92.5 -38.5t36.5 -96.5q0 -57 -36.5 -94t-92.5 -37q-59 0 -97 37t-38 94q0 59 38.5 97t96.5 38z" />
    <glyph glyph-name="uniFDFA" unicode="&#xfdfa;" horiz-adv-x="2359" arabic-form="isolated" 
d="M541 1427q-58 0 -58 64q0 20 9 47l49 -10q-4 -12 -4 -23q0 -14 12 -14t12 14v17l47 6q2 -14 2 -33q2 0 5.5 -1t5.5 -1q12 0 12 16q0 15 -4 27l57 16q14 -32 14 -59q0 -29 -18 -45t-43 -16t-45 14q-19 -19 -53 -19zM227 956q-75 0 -120.5 41t-45.5 113q0 184 232 184h151
v-161q0 -18 8 -25.5t29 -7.5q23 0 30 9t7 36v262h156v-268q0 -39 35 -39q23 0 31 11.5t8 43.5v356h157v-381q0 -108 -44 -145t-152 -37q-73 0 -103 33q-38 -33 -133 -33q-88 0 -127 31q-50 -23 -119 -23zM1147 717q-129 0 -193.5 47.5t-64.5 132.5q0 42 22 90l148 -26
q-8 -20 -8 -35q0 -27 27.5 -42.5t78.5 -15.5q67 0 103 18t36 46q0 14 -20.5 25t-89.5 32l41 133q90 -22 145 -22q26 0 35.5 13t9.5 48v350h156v-372q0 -39 39 -39q21 0 29 8.5t8 32.5v125h157v-131q0 -17 7 -25.5t24 -9.5q104 219 279 219q93 0 142.5 -55t49.5 -160
q0 -68 -24 -156h-433q-71 0 -110 31q-39 -31 -123 -31q-64 0 -90 33q-36 -33 -92 -33q22 -19 22 -57q0 -75 -84 -124.5t-227 -49.5zM969 1511h157v-495h-157v495zM2103 1180q-57 0 -108 -80h159q3 12 3 20q0 28 -14.5 44t-39.5 16zM297 1178h-25q-61 0 -61 -45q0 -41 49 -41
q17 0 37 4v82zM2175 526h139v-151h-532q-67 0 -107 31q-39 -31 -131 -31h-340v-385q0 -37 39 -37h19q30 0 30 29v124h158v-124q0 -16 6 -22.5t23 -6.5t22.5 6.5t5.5 24.5v122h158v-126q0 -27 29 -27q17 0 23.5 7t6.5 24v176h158v-232q0 -61 -41.5 -94t-118.5 -33
q-55 0 -100 31q-47 -31 -109 -31q-70 0 -112 31q-50 -31 -127 -31h-31q-72 0 -106 31q-42 -31 -133 -31h-363q-51 -63 -154 -63h-125q-34 38 -45 63h-16q-20 -2 -27.5 -11t-7.5 -36v-143h-149v178q0 164 155 164h21q6 75 61 122.5t142 47.5q77 0 128.5 -44.5t57.5 -125.5
h315q29 0 40.5 11.5t11.5 43.5v367h-283q-74 0 -107 33q-41 -33 -141 -33h-33q-91 0 -127 31q-52 -25 -118 -25q-74 0 -119 41.5t-45 114.5q0 89 56.5 137.5t172.5 48.5h154v-148q0 -26 10 -37.5t37 -11.5h6q33 0 45 12.5t12 47.5v137h156v-145q0 -52 51 -52h273v121h155
v-121h334q26 0 37.5 13t11.5 47v297h158v-316q0 -41 41 -41h225q-12 40 -12 62q0 72 49.5 114.5t140.5 42.5q45 0 107 -16l-27 -131q-36 8 -53 8q-26 0 -39.5 -12t-13.5 -31q0 -17 12 -37zM311 522v82h-24q-62 0 -62 -47q0 -41 49 -41q7 0 37 6zM549 190q-32 0 -52 20.5
t-20 51.5t20 51.5t52 20.5q31 0 51.5 -20.5t20.5 -51.5t-20 -51.5t-52 -20.5zM786 262q0 -31 -20 -51.5t-49 -20.5q-32 0 -52 20.5t-20 51.5t20 51.5t52 20.5q29 0 49 -20.5t20 -51.5zM2122 168q95 0 138.5 -55.5t43.5 -143.5v-116q0 -128 -79.5 -179.5t-254.5 -40.5l-8 142
q190 -16 184 55q-14 -4 -51 -4q-74 0 -120 45t-46 127q0 75 51.5 122.5t141.5 47.5zM2161 -53v37q0 57 -41 57q-47 0 -47 -51q0 -47 47 -47q17 0 41 4zM449 -131h26q31 0 48.5 16.5t17.5 42.5q0 58 -54 58q-53 0 -53 -62q0 -18 15 -55z" />
    <glyph glyph-name="uniFDFC" unicode="&#xfdfc;" horiz-adv-x="2742" arabic-form="isolated" 
d="M584 -360q-125 0 -225.5 41.5t-162 111.5t-94 157.5t-32.5 184.5q0 171 92 383l217 -74q-60 -177 -60 -278q0 -144 70.5 -220.5t200.5 -76.5q151 0 222 82.5t71 259.5v1337h250v-1388q0 -245 -144.5 -382.5t-404.5 -137.5zM1749 0q-233 0 -331.5 94t-98.5 297v1157h250
v-1157q0 -87 42.5 -127.5t137.5 -40.5q98 0 137 42t39 153v440h248v-452q0 -219 -101 -312.5t-323 -93.5zM2204 -377l-35 215q105 24 148.5 83t43.5 190v747h250v-717q0 -248 -97 -370t-310 -148zM1618 -432q-57 0 -95 37t-38 94q0 58 38 96.5t95 38.5q58 0 95.5 -38
t37.5 -97q0 -57 -37.5 -94t-95.5 -37zM1958 -432q-59 0 -97 37t-38 94q0 59 38.5 97t96.5 38q56 0 92.5 -38.5t36.5 -96.5q0 -57 -36.5 -94t-92.5 -37z" />
    <glyph glyph-name="uniFE82" unicode="&#x622;" horiz-adv-x="589" arabic-form="final" 
d="M397 1651q-58 0 -172 27.5t-143 27.5q-44 0 -94 -35l-74 96q85 82 172 82q38 0 148.5 -28.5t154.5 -28.5q31 0 53 9.5t54 37.5l84 -86q-74 -102 -183 -102zM590 0q-248 0 -352.5 92.5t-104.5 292.5v1163h248v-1157q0 -87 50.5 -127.5t158.5 -40.5q41 0 41 -119
q0 -104 -41 -104z" />
    <glyph glyph-name="uniFE84" unicode="&#x623;" horiz-adv-x="589" arabic-form="final" 
d="M266 1759h168v-114h-350v114h68q-25 45 -25 90q0 71 50 115.5t134 44.5q54 0 105 -14l-21 -109q-36 8 -65 8q-38 0 -61 -17.5t-23 -51.5q0 -28 20 -66zM590 223q41 0 41 -119q0 -104 -41 -104q-248 0 -352.5 92.5t-104.5 292.5v1163h248v-1157q0 -87 50.5 -127.5
t158.5 -40.5z" />
    <glyph glyph-name="uniFE86" unicode="&#x624;" horiz-adv-x="1142" arabic-form="final" 
d="M561 1270h213v-148h-448v148h88q-31 57 -31 114q0 91 63 147t170 56q69 0 134 -14l-25 -143q-38 10 -84 10q-106 0 -106 -88q0 -38 26 -82zM987 223h156q41 0 41 -119q0 -104 -41 -104h-162q-25 -186 -173.5 -284.5t-414.5 -98.5q-67 0 -147 6l-15 225q436 -30 496 152
h-125q-238 0 -367 114t-129 304q0 126 56.5 231t162 168.5t238.5 63.5q205 0 314.5 -118t109.5 -310v-230zM356 436q0 -213 256 -213h127v199q0 111 -47 170t-137 59t-144.5 -60t-54.5 -155z" />
    <glyph glyph-name="uniFE88" unicode="&#x625;" horiz-adv-x="589" arabic-form="final" 
d="M590 223q41 0 41 -119q0 -104 -41 -104q-248 0 -352.5 92.5t-104.5 292.5v1163h248v-1157q0 -87 50.5 -127.5t158.5 -40.5zM281 -342q0 -28 20 -66h168v-114h-350v114h67q-24 44 -24 91q0 71 50 115t134 44q54 0 105 -14l-21 -109q-41 9 -65 9q-38 0 -61 -18t-23 -52z
" />
    <glyph glyph-name="uniFE8A" unicode="&#x626;" horiz-adv-x="1615" arabic-form="final" 
d="M395 575h213v-147h-448v147h88q-31 57 -31 115q0 91 63.5 147t170.5 56q68 0 133 -14l-25 -144q-38 10 -84 10q-106 0 -106 -88q0 -38 26 -82zM1389 223h227q41 0 41 -119q0 -55 -9.5 -79.5t-31.5 -24.5h-103q60 -66 60 -152q0 -163 -204 -271.5t-556 -108.5
q-192 0 -335.5 37t-232 105.5t-132 161.5t-43.5 210q0 116 53 280l217 -55q-27 -120 -27 -193q0 -113 49.5 -181t163.5 -102t305 -34q238 0 364 49.5t126 126.5q0 51 -52 93t-157 69l-254 61l53 211l277 -65q86 -19 201 -19z" />
    <glyph glyph-name="uniFE8B" unicode="&#x626;" horiz-adv-x="669" arabic-form="initial" 
d="M360 1247h213v-147h-448v147h88q-31 57 -31 115q0 91 63.5 147t170.5 56q64 0 133 -15l-25 -143q-38 10 -84 10q-106 0 -106 -88q0 -38 26 -82zM260 459v399h250v-432q0 -231 -111.5 -328.5t-353.5 -97.5h-45v223h51q122 0 165.5 50t43.5 186z" />
    <glyph glyph-name="uniFE8C" unicode="&#x626;" horiz-adv-x="743" arabic-form="medial" 
d="M385 1247h213v-147h-448v147h88q-31 57 -31 115q0 91 63 147t170 56q64 0 133 -15l-24 -143q-38 10 -84 10q-107 0 -107 -88q0 -36 27 -82zM743 223q41 0 41 -119q0 -55 -9.5 -79.5t-31.5 -24.5q-226 0 -315 125q-102 -125 -375 -125h-53v223h51q122 0 165.5 50t43.5 186
v399h250v-424q0 -211 233 -211z" />
    <glyph glyph-name="uniFE8E" unicode="&#x627;" horiz-adv-x="589" arabic-form="final" 
d="M590 0q-248 0 -352.5 92.5t-104.5 292.5v1163h248v-1157q0 -87 50.5 -127.5t158.5 -40.5q41 0 41 -119q0 -104 -41 -104z" />
    <glyph glyph-name="uniFE90" unicode="&#x628;" horiz-adv-x="2080" arabic-form="final" 
d="M2081 223q41 0 41 -119q0 -104 -41 -104q-205 0 -291 113q-93 -113 -291 -113h-924q-234 0 -369.5 114t-135.5 300q0 155 65 327l217 -57q-39 -157 -39 -219q0 -117 80 -179.5t221 -62.5h809q103 0 149 47t46 160v428h248v-430q0 -205 215 -205zM958 -166q59 0 94 -37.5
t35 -97.5q0 -58 -35 -94.5t-94 -36.5q-58 0 -94.5 37t-36.5 94q0 59 36.5 97t94.5 38z" />
    <glyph glyph-name="uniFE91" unicode="&#x628;" horiz-adv-x="550" arabic-form="initial" 
d="M0 0v223q118 0 160.5 48.5t42.5 187.5v399h250v-432q0 -235 -109 -330.5t-344 -95.5zM246 -432q-58 0 -94.5 37t-36.5 94q0 59 36.5 97t94.5 38q59 0 94 -37.5t35 -97.5q0 -58 -35 -94.5t-94 -36.5z" />
    <glyph glyph-name="uniFE92" unicode="&#x628;" horiz-adv-x="667" arabic-form="medial" 
d="M668 223q41 0 41 -119q0 -104 -41 -104q-218 0 -299 123q-101 -123 -369 -123v223q118 0 160.5 48.5t42.5 187.5v399h250v-430q0 -205 215 -205zM326 -166q59 0 94 -37.5t35 -97.5q0 -58 -35 -94.5t-94 -36.5q-58 0 -94.5 37t-36.5 94q0 59 36.5 97t94.5 38z" />
    <glyph glyph-name="uniFE94" unicode="&#x629;" horiz-adv-x="1126" arabic-form="final" 
d="M399 1096q-58 0 -95.5 38t-37.5 97q0 57 37.5 94t95.5 37t94.5 -37t36.5 -94q0 -59 -36.5 -97t-94.5 -38zM739 1096q-59 0 -97 38t-38 97q0 57 38 94t97 37q56 0 92.5 -37t36.5 -94q0 -58 -36.5 -96.5t-92.5 -38.5zM1126 223q41 0 41 -119q0 -104 -41 -104
q-272 0 -354 88q-119 -61 -264 -61q-208 0 -323 110t-115 283q0 196 137.5 317t374.5 121h368v-475q0 -90 38 -125t138 -35zM692 285v352h-147q-104 0 -166 -52.5t-62 -146.5q0 -89 56 -136.5t168 -47.5q91 0 151 31z" />
    <glyph glyph-name="uniFE96" unicode="&#x62a;" horiz-adv-x="2080" arabic-form="final" 
d="M782 915q-58 0 -95.5 38.5t-37.5 97.5q0 57 37.5 94t95.5 37t94.5 -37t36.5 -94q0 -59 -36.5 -97.5t-94.5 -38.5zM1122 915q-58 0 -96.5 38.5t-38.5 97.5q0 57 38 94t97 37q56 0 92.5 -37t36.5 -94q0 -59 -37 -97.5t-92 -38.5zM2081 223q41 0 41 -119q0 -104 -41 -104
q-205 0 -291 113q-93 -113 -291 -113h-924q-234 0 -369.5 114t-135.5 300q0 155 65 327l217 -57q-39 -157 -39 -219q0 -117 80 -179.5t221 -62.5h809q103 0 149 47t46 160v428h248v-430q0 -205 215 -205z" />
    <glyph glyph-name="uniFE97" unicode="&#x62a;" horiz-adv-x="669" arabic-form="initial" 
d="M188 1096q-58 0 -95.5 38t-37.5 97q0 57 37.5 94t95.5 37t94.5 -37t36.5 -94q0 -59 -36.5 -97t-94.5 -38zM528 1096q-58 0 -96.5 38t-38.5 97q0 57 38 94t97 37q56 0 92.5 -37t36.5 -94q0 -58 -36.5 -96.5t-92.5 -38.5zM45 0h-45v223h51q122 0 165.5 50t43.5 186v399h250
v-432q0 -231 -111.5 -328.5t-353.5 -97.5z" />
    <glyph glyph-name="uniFE98" unicode="&#x62a;" horiz-adv-x="743" arabic-form="medial" 
d="M213 1096q-58 0 -95.5 38t-37.5 97q0 57 37.5 94t95.5 37t94.5 -37t36.5 -94q0 -59 -36.5 -97t-94.5 -38zM553 1096q-59 0 -97 38t-38 97q0 57 38 94t97 37q56 0 92.5 -37t36.5 -94q0 -58 -36.5 -96.5t-92.5 -38.5zM743 223q41 0 41 -119q0 -55 -9.5 -79.5t-31.5 -24.5
q-226 0 -315 125q-102 -125 -375 -125h-53v223h51q122 0 165.5 50t43.5 186v399h250v-424q0 -211 233 -211z" />
    <glyph glyph-name="uniFE9A" unicode="&#x62b;" horiz-adv-x="2080" arabic-form="final" 
d="M956 1182q-54 0 -92.5 39t-38.5 96t38.5 96t92.5 39q59 0 96.5 -38.5t37.5 -96.5t-37.5 -96.5t-96.5 -38.5zM782 901q-58 0 -95.5 38t-37.5 95q0 58 37.5 95.5t95.5 37.5t94.5 -37t36.5 -96q0 -58 -36.5 -95.5t-94.5 -37.5zM987 1034q0 58 38 95.5t97 37.5
q56 0 92.5 -37.5t36.5 -95.5q0 -57 -37 -95t-92 -38q-58 0 -96.5 38t-38.5 95zM2081 223q41 0 41 -119q0 -104 -41 -104q-205 0 -291 113q-93 -113 -291 -113h-924q-234 0 -369.5 114t-135.5 300q0 155 65 327l217 -57q-39 -157 -39 -219q0 -117 80 -179.5t221 -62.5h809
q103 0 149 47t46 160v428h248v-430q0 -205 215 -205z" />
    <glyph glyph-name="uniFE9B" unicode="&#x62b;" horiz-adv-x="669" arabic-form="initial" 
d="M362 1362q-54 0 -92.5 39t-38.5 96t38.5 96t92.5 39q59 0 96.5 -38.5t37.5 -96.5t-37.5 -96.5t-96.5 -38.5zM188 1081q-58 0 -95.5 38t-37.5 95q0 59 37.5 96.5t95.5 37.5t94.5 -37.5t36.5 -96.5q0 -58 -36.5 -95.5t-94.5 -37.5zM528 1081q-58 0 -96.5 38t-38.5 95
q0 58 38 96t97 38q56 0 92.5 -38t36.5 -96q0 -57 -37 -95t-92 -38zM45 0h-45v223h51q122 0 165.5 50t43.5 186v399h250v-432q0 -231 -111.5 -328.5t-353.5 -97.5z" />
    <glyph glyph-name="uniFE9C" unicode="&#x62b;" horiz-adv-x="743" arabic-form="medial" 
d="M387 1362q-54 0 -92.5 39t-38.5 96t38.5 96t92.5 39q59 0 96 -38.5t37 -96.5t-37 -96.5t-96 -38.5zM213 1081q-58 0 -95.5 38t-37.5 95q0 59 37.5 96.5t95.5 37.5t94.5 -37.5t36.5 -96.5q0 -58 -36.5 -95.5t-94.5 -37.5zM418 1214q0 58 38 96t97 38q56 0 92.5 -38
t36.5 -96q0 -57 -37 -95t-92 -38q-58 0 -96.5 38t-38.5 95zM743 223q41 0 41 -119q0 -55 -9.5 -79.5t-31.5 -24.5q-226 0 -315 125q-102 -125 -375 -125h-53v223h51q122 0 165.5 50t43.5 186v399h250v-424q0 -211 233 -211z" />
    <glyph glyph-name="uniFE9E" unicode="&#x62c;" horiz-adv-x="1318" arabic-form="final" 
d="M1151 223h168q41 0 41 -119q0 -104 -41 -104h-830q-86 0 -134 -42t-48 -114q0 -75 56 -116t143 -41q29 0 43 2l20 -217q-36 -4 -63 -4q-197 0 -323 98.5t-126 269.5q0 180 113 283.5t307 103.5h422q6 34 6 68q0 182 -81 271t-253 89q-92 0 -204 -28l-56 211
q130 47 279 47q144 0 253 -42t176.5 -119t100.5 -180.5t33 -232.5q0 -55 -2 -84zM727 -88q53 0 85 -34t32 -87q0 -52 -32 -84.5t-85 -32.5q-52 0 -85.5 33t-33.5 84q0 53 33.5 87t85.5 34z" />
    <glyph glyph-name="uniFE9F" unicode="&#x62c;" horiz-adv-x="991" arabic-form="initial" 
d="M856 0h-856v223h635q10 52 10 99q0 160 -84 244.5t-242 84.5q-91 0 -206 -28l-56 213q131 45 275 45q145 0 253.5 -40.5t175.5 -116t99.5 -178t32.5 -233.5q0 -149 -37 -313zM416 -432q-58 0 -94.5 37t-36.5 94q0 59 36.5 97t94.5 38q59 0 94 -37.5t35 -97.5
q0 -58 -35 -94.5t-94 -36.5z" />
    <glyph glyph-name="uniFEA0" unicode="&#x62c;" horiz-adv-x="1067" arabic-form="medial" 
d="M889 223h178q41 0 41 -119q0 -104 -41 -104h-1067v223h635q10 52 10 99q0 160 -84 244.5t-242 84.5q-91 0 -206 -28l-56 213q131 45 275 45q145 0 253.5 -40.5t175.5 -116t99.5 -178t32.5 -233.5q0 -28 -4 -90zM416 -166q59 0 94 -37.5t35 -97.5q0 -58 -35 -94.5
t-94 -36.5q-58 0 -94.5 37t-36.5 94q0 59 36.5 97t94.5 38z" />
    <glyph glyph-name="uniFEA2" unicode="&#x62d;" horiz-adv-x="1331" arabic-form="final" 
d="M1143 223h188q41 0 41 -119q0 -104 -41 -104h-215v31l-6 -31h-621q-85 0 -133.5 -40t-48.5 -110q0 -77 62 -115t174 -38q74 0 159 20l43 -213q-113 -36 -227 -36q-134 0 -237 43.5t-163.5 132t-60.5 211.5q0 166 113 267t301 101h420q6 34 6 68q0 182 -81 271t-253 89
q-93 0 -205 -28l-55 211q130 47 279 47q144 0 253 -42t176.5 -119t100.5 -180.5t33 -232.5q0 -55 -2 -84z" />
    <glyph glyph-name="uniFEA3" unicode="&#x62d;" horiz-adv-x="991" arabic-form="initial" 
d="M856 0h-856v223h635q10 52 10 99q0 160 -84 244.5t-242 84.5q-91 0 -206 -28l-56 213q131 45 275 45q145 0 253.5 -40.5t175.5 -116t99.5 -178t32.5 -233.5q0 -149 -37 -313z" />
    <glyph glyph-name="uniFEA4" unicode="&#x62d;" horiz-adv-x="1067" arabic-form="medial" 
d="M889 223h178q41 0 41 -119q0 -104 -41 -104h-1067v223h635q10 52 10 99q0 160 -84 244.5t-242 84.5q-91 0 -206 -28l-56 213q131 45 275 45q145 0 253.5 -40.5t175.5 -116t99.5 -178t32.5 -233.5q0 -28 -4 -90z" />
    <glyph glyph-name="uniFEA6" unicode="&#x62e;" horiz-adv-x="1331" arabic-form="final" 
d="M582 1118q-58 0 -94.5 38t-36.5 97q0 57 36.5 94t94.5 37q59 0 94 -36.5t35 -94.5q0 -60 -35 -97.5t-94 -37.5zM1143 223h188q41 0 41 -119q0 -104 -41 -104h-215v31l-6 -31h-621q-85 0 -133.5 -40t-48.5 -110q0 -77 62 -115t174 -38q74 0 159 20l43 -213
q-113 -36 -227 -36q-134 0 -237 43.5t-163.5 132t-60.5 211.5q0 166 113 267t301 101h420q6 34 6 68q0 182 -81 271t-253 89q-93 0 -205 -28l-55 211q130 47 279 47q144 0 253 -42t176.5 -119t100.5 -180.5t33 -232.5q0 -55 -2 -84z" />
    <glyph glyph-name="uniFEA7" unicode="&#x62e;" horiz-adv-x="991" arabic-form="initial" 
d="M330 1118q-58 0 -94.5 38t-36.5 97q0 57 36.5 94t94.5 37q59 0 94 -36.5t35 -94.5q0 -60 -35 -97.5t-94 -37.5zM856 0h-856v223h635q10 52 10 99q0 160 -84 244.5t-242 84.5q-91 0 -206 -28l-56 213q131 45 275 45q145 0 253.5 -40.5t175.5 -116t99.5 -178t32.5 -233.5
q0 -149 -37 -313z" />
    <glyph glyph-name="uniFEA8" unicode="&#x62e;" horiz-adv-x="1067" arabic-form="medial" 
d="M330 1118q-58 0 -94.5 38t-36.5 97q0 57 36.5 94t94.5 37q59 0 94 -36.5t35 -94.5q0 -60 -35 -97.5t-94 -37.5zM889 223h178q41 0 41 -119q0 -104 -41 -104h-1067v223h635q10 52 10 99q0 160 -84 244.5t-242 84.5q-91 0 -206 -28l-56 213q131 45 275 45
q145 0 253.5 -40.5t175.5 -116t99.5 -178t32.5 -233.5q0 -28 -4 -90z" />
    <glyph glyph-name="uniFEAA" unicode="&#x62f;" horiz-adv-x="1079" arabic-form="final" 
d="M930 223h149q41 0 41 -119q0 -104 -41 -104h-1009v223h614q0 120 -94.5 253.5t-272.5 246.5l150 201q237 -153 344.5 -320.5t118.5 -380.5z" />
    <glyph glyph-name="uniFEAC" unicode="&#x630;" horiz-adv-x="1079" arabic-form="final" 
d="M381 1071q-58 0 -94.5 38t-36.5 97q0 57 36.5 94t94.5 37q59 0 94 -36.5t35 -94.5q0 -60 -35 -97.5t-94 -37.5zM930 223h149q41 0 41 -119q0 -104 -41 -104h-1009v223h614q0 120 -94.5 253.5t-272.5 246.5l150 201q237 -153 344.5 -320.5t118.5 -380.5z" />
    <glyph glyph-name="uniFEAE" unicode="&#x631;" horiz-adv-x="712" arabic-form="final" 
d="M498 223h215q41 0 41 -119q0 -104 -41 -104h-226v6q-28 -179 -139 -271t-323 -112l-33 223q140 19 199 84t59 213v715h248v-635z" />
    <glyph glyph-name="uniFEB0" unicode="&#x632;" horiz-adv-x="712" arabic-form="final" 
d="M373 1096q-58 0 -94.5 38t-36.5 97q0 57 36.5 94t94.5 37q59 0 94 -36.5t35 -94.5q0 -60 -35 -97.5t-94 -37.5zM498 223h215q41 0 41 -119q0 -104 -41 -104h-226v6q-28 -179 -139 -271t-323 -112l-33 223q140 19 199 84t59 213v715h248v-635z" />
    <glyph glyph-name="uniFEB2" unicode="&#x633;" horiz-adv-x="2582" arabic-form="final" 
d="M2583 223q40 0 40 -119q0 -104 -40 -104q-214 0 -297 119q-106 -119 -304 -119q-167 0 -276 92q-102 -94 -293 -94q-127 0 -201 47q-34 -202 -182 -303.5t-383 -101.5q-139 0 -250 37.5t-182 104.5t-108 156t-37 193q0 175 96 387l211 -72q-64 -166 -64 -282
q0 -143 88.5 -219t247.5 -76t241.5 72.5t82.5 248.5v519h248v-353q0 -133 159 -133q88 0 126 42t38 155v289h248v-353q0 -133 164 -133q93 0 127.5 41.5t34.5 153.5v440h249v-430q0 -205 216 -205z" />
    <glyph glyph-name="uniFEB3" unicode="&#x633;" horiz-adv-x="1708" arabic-form="initial" 
d="M1360 418v440h250v-504q0 -164 -105.5 -259t-279.5 -95q-170 0 -279 92q-100 -92 -293 -92q-205 0 -291 96q-96 -96 -317 -96h-45v223h45q93 0 131.5 41t38.5 156v289h248v-344q0 -73 38 -107.5t120 -34.5q91 0 128 43.5t37 153.5v289h248v-353q0 -133 164 -133
q93 0 127.5 41.5t34.5 153.5z" />
    <glyph glyph-name="uniFEB4" unicode="&#x633;" horiz-adv-x="1824" arabic-form="medial" 
d="M1825 223q41 0 41 -119q0 -104 -41 -104q-214 0 -297 119q-106 -119 -303 -119q-170 0 -279 92q-100 -92 -293 -92q-205 0 -291 96q-96 -96 -317 -96h-45v223h45q93 0 131.5 41t38.5 156v289h248v-344q0 -73 38 -107.5t120 -34.5q91 0 128 43.5t37 153.5v289h248v-353
q0 -133 164 -133q93 0 127.5 41.5t34.5 153.5v440h250v-430q0 -205 215 -205z" />
    <glyph glyph-name="uniFEB6" unicode="&#x634;" horiz-adv-x="2582" arabic-form="final" 
d="M1671 1212q-54 0 -92.5 39.5t-38.5 96.5t38.5 96t92.5 39q59 0 96 -38.5t37 -96.5t-37 -97t-96 -39zM1497 932q-58 0 -95.5 38t-37.5 95q0 59 37 96t96 37q58 0 94.5 -37t36.5 -96q0 -58 -36.5 -95.5t-94.5 -37.5zM1702 1065q0 58 38 95.5t97 37.5q56 0 92.5 -37.5
t36.5 -95.5q0 -57 -37 -95t-92 -38q-58 0 -96.5 38t-38.5 95zM2583 223q40 0 40 -119q0 -104 -40 -104q-214 0 -297 119q-106 -119 -304 -119q-167 0 -276 92q-102 -94 -293 -94q-127 0 -201 47q-34 -202 -182 -303.5t-383 -101.5q-139 0 -250 37.5t-182 104.5t-108 156
t-37 193q0 175 96 387l211 -72q-64 -166 -64 -282q0 -143 88.5 -219t247.5 -76t241.5 72.5t82.5 248.5v519h248v-353q0 -133 159 -133q88 0 126 42t38 155v289h248v-353q0 -133 164 -133q93 0 127.5 41.5t34.5 153.5v440h249v-430q0 -205 216 -205z" />
    <glyph glyph-name="uniFEB7" unicode="&#x634;" horiz-adv-x="1708" arabic-form="initial" 
d="M911 1212q-54 0 -92.5 39.5t-38.5 96.5t38.5 96t92.5 39q59 0 96 -38.5t37 -96.5t-37 -97t-96 -39zM737 932q-58 0 -95.5 38t-37.5 95q0 59 37 96t96 37q58 0 94.5 -37t36.5 -96q0 -58 -36.5 -95.5t-94.5 -37.5zM942 1065q0 58 38 95.5t97 37.5q56 0 92.5 -37.5
t36.5 -95.5q0 -57 -37 -95t-92 -38q-58 0 -96.5 38t-38.5 95zM1360 418v440h250v-504q0 -164 -105.5 -259t-279.5 -95q-170 0 -279 92q-100 -92 -293 -92q-205 0 -291 96q-96 -96 -317 -96h-45v223h45q93 0 131.5 41t38.5 156v289h248v-344q0 -73 38 -107.5t120 -34.5
q91 0 128 43.5t37 153.5v289h248v-353q0 -133 164 -133q93 0 127.5 41.5t34.5 153.5z" />
    <glyph glyph-name="uniFEB8" unicode="&#x634;" horiz-adv-x="1824" arabic-form="medial" 
d="M911 1212q-54 0 -92.5 39.5t-38.5 96.5t38.5 96t92.5 39q59 0 96 -38.5t37 -96.5t-37 -97t-96 -39zM737 932q-58 0 -95.5 38t-37.5 95q0 59 37 96t96 37q58 0 94.5 -37t36.5 -96q0 -58 -36.5 -95.5t-94.5 -37.5zM942 1065q0 58 38 95.5t97 37.5q56 0 92.5 -37.5
t36.5 -95.5q0 -57 -37 -95t-92 -38q-58 0 -96.5 38t-38.5 95zM1825 223q41 0 41 -119q0 -104 -41 -104q-214 0 -297 119q-106 -119 -303 -119q-170 0 -279 92q-100 -92 -293 -92q-205 0 -291 96q-96 -96 -317 -96h-45v223h45q93 0 131.5 41t38.5 156v289h248v-344
q0 -73 38 -107.5t120 -34.5q91 0 128 43.5t37 153.5v289h248v-353q0 -133 164 -133q93 0 127.5 41.5t34.5 153.5v440h250v-430q0 -205 215 -205z" />
    <glyph glyph-name="uniFEBA" unicode="&#x635;" horiz-adv-x="2822" arabic-form="final" 
d="M2654 223h168q41 0 41 -119q0 -104 -41 -104h-1386q-143 0 -222 55q-31 -208 -179.5 -311.5t-387.5 -103.5q-139 0 -250 37.5t-182 104.5t-108 156t-37 193q0 175 96 387l211 -72q-64 -166 -64 -282q0 -143 88.5 -219t247.5 -76t241.5 72.5t82.5 248.5v519h248v-349
q0 -56 38 -91t101 -44q335 656 823 656q232 0 356.5 -136t124.5 -372q0 -86 -10 -150zM2150 651q-144 0 -278 -110.5t-252 -317.5h782q17 83 17 144q0 130 -69.5 207t-199.5 77z" />
    <glyph glyph-name="uniFEBB" unicode="&#x635;" horiz-adv-x="1923" arabic-form="initial" 
d="M1346 881q231 0 356 -136t125 -372q0 -172 -55 -373h-1176q-176 0 -279 74q-87 -74 -317 -74v223q101 0 132.5 39.5t31.5 169.5v277h248v-342q0 -67 24.5 -101t85.5 -41q89 175 193 304.5t210.5 204.5t211 111t209.5 36zM1313 651q-134 0 -270 -112t-252 -316h772
q16 71 16 144q0 130 -68 207t-198 77z" />
    <glyph glyph-name="uniFEBC" unicode="&#x635;" horiz-adv-x="1984" arabic-form="medial" 
d="M1817 223h168q40 0 40 -119q0 -104 -40 -104h-1389q-176 0 -279 74q-87 -74 -317 -74v223q101 0 132.5 39.5t31.5 169.5v277h248v-342q0 -67 24.5 -101t85.5 -41q89 175 193 304.5t210.5 204.5t211 111t209.5 36q231 0 356 -136t125 -372q0 -65 -10 -150zM1313 651
q-134 0 -270 -112t-252 -316h772q16 71 16 144q0 130 -68 207t-198 77z" />
    <glyph glyph-name="uniFEBE" unicode="&#x636;" horiz-adv-x="2822" arabic-form="final" 
d="M2007 1118q-58 0 -94.5 38t-36.5 97q0 57 36.5 94t94.5 37q59 0 94 -36.5t35 -94.5q0 -60 -35 -97.5t-94 -37.5zM2654 223h168q41 0 41 -119q0 -104 -41 -104h-1386q-143 0 -222 55q-31 -208 -179.5 -311.5t-387.5 -103.5q-139 0 -250 37.5t-182 104.5t-108 156t-37 193
q0 175 96 387l211 -72q-64 -166 -64 -282q0 -143 88.5 -219t247.5 -76t241.5 72.5t82.5 248.5v519h248v-349q0 -56 38 -91t101 -44q335 656 823 656q232 0 356.5 -136t124.5 -372q0 -86 -10 -150zM2150 651q-144 0 -278 -110.5t-252 -317.5h782q17 83 17 144
q0 130 -69.5 207t-199.5 77z" />
    <glyph glyph-name="uniFEBF" unicode="&#x636;" horiz-adv-x="1923" arabic-form="initial" 
d="M1147 1118q-58 0 -94.5 38t-36.5 97q0 57 36.5 94t94.5 37q59 0 94 -36.5t35 -94.5q0 -60 -35 -97.5t-94 -37.5zM1346 881q231 0 356 -136t125 -372q0 -172 -55 -373h-1176q-176 0 -279 74q-87 -74 -317 -74v223q101 0 132.5 39.5t31.5 169.5v277h248v-342
q0 -67 24.5 -101t85.5 -41q89 175 193 304.5t210.5 204.5t211 111t209.5 36zM1313 651q-134 0 -270 -112t-252 -316h772q16 71 16 144q0 130 -68 207t-198 77z" />
    <glyph glyph-name="uniFEC0" unicode="&#x636;" horiz-adv-x="1984" arabic-form="medial" 
d="M1149 1118q-58 0 -94.5 38t-36.5 97q0 57 36.5 94t94.5 37q59 0 94 -36.5t35 -94.5q0 -60 -35 -97.5t-94 -37.5zM1817 223h168q40 0 40 -119q0 -104 -40 -104h-1389q-176 0 -279 74q-87 -74 -317 -74v223q101 0 132.5 39.5t31.5 169.5v277h248v-342q0 -67 24.5 -101
t85.5 -41q89 175 193 304.5t210.5 204.5t211 111t209.5 36q231 0 356 -136t125 -372q0 -65 -10 -150zM1313 651q-134 0 -270 -112t-252 -316h772q16 71 16 144q0 130 -68 207t-198 77z" />
    <glyph glyph-name="uniFEC2" unicode="&#x637;" horiz-adv-x="1794" arabic-form="final" 
d="M1626 223h168q41 0 41 -119q0 -104 -41 -104h-1724v223h190v1325h248v-1018q141 178 306 264.5t335 86.5q237 0 362 -135.5t125 -370.5q0 -64 -10 -152zM510 223h864q17 64 17 131q0 136 -69 216.5t-202 80.5q-148 0 -307.5 -108t-302.5 -320z" />
    <glyph glyph-name="uniFEC3" unicode="&#x637;" horiz-adv-x="1660" arabic-form="initial" 
d="M1075 881q237 0 362.5 -135.5t125.5 -370.5q0 -178 -54 -375h-1509v223h186v1325h250v-1018q141 178 305 264.5t334 86.5zM436 223h867q14 63 14 131q0 137 -68.5 217t-201.5 80q-148 0 -308 -108t-303 -320z" />
    <glyph glyph-name="uniFEC4" unicode="&#x637;" horiz-adv-x="1703" arabic-form="medial" 
d="M1552 223h152q41 0 41 -119q0 -104 -41 -104h-1704v223h186v1325h250v-1018q141 178 305 264.5t334 86.5q237 0 362.5 -135.5t125.5 -370.5q0 -79 -11 -152zM436 223h867q14 63 14 131q0 137 -68.5 217t-201.5 80q-148 0 -308 -108t-303 -320z" />
    <glyph glyph-name="uniFEC6" unicode="&#x638;" horiz-adv-x="1794" arabic-form="final" 
d="M1626 223h168q41 0 41 -119q0 -104 -41 -104h-1724v223h190v1325h248v-1018q141 178 306 264.5t335 86.5q237 0 362 -135.5t125 -370.5q0 -64 -10 -152zM1040 1118q-58 0 -94.5 38t-36.5 97q0 57 36.5 94t94.5 37q59 0 94 -36.5t35 -94.5q0 -60 -35 -97.5t-94 -37.5z
M510 223h864q17 64 17 131q0 136 -69 216.5t-202 80.5q-148 0 -307.5 -108t-302.5 -320z" />
    <glyph glyph-name="uniFEC7" unicode="&#x638;" horiz-adv-x="1660" arabic-form="initial" 
d="M1075 881q237 0 362.5 -135.5t125.5 -370.5q0 -178 -54 -375h-1509v223h186v1325h250v-1018q141 178 305 264.5t334 86.5zM950 1118q-58 0 -94.5 38t-36.5 97q0 57 36.5 94t94.5 37q59 0 94 -36.5t35 -94.5q0 -60 -35 -97.5t-94 -37.5zM436 223h867q14 63 14 131
q0 137 -68.5 217t-201.5 80q-148 0 -308 -108t-303 -320z" />
    <glyph glyph-name="uniFEC8" unicode="&#x638;" horiz-adv-x="1703" arabic-form="medial" 
d="M1552 223h152q41 0 41 -119q0 -104 -41 -104h-1704v223h186v1325h250v-1018q141 178 305 264.5t334 86.5q237 0 362.5 -135.5t125.5 -370.5q0 -79 -11 -152zM950 1118q-58 0 -94.5 38t-36.5 97q0 57 36.5 94t94.5 37q59 0 94 -36.5t35 -94.5q0 -60 -35 -97.5t-94 -37.5z
M436 223h867q14 63 14 131q0 137 -68.5 217t-201.5 80q-148 0 -308 -108t-303 -320z" />
    <glyph glyph-name="uniFECA" unicode="&#x639;" horiz-adv-x="1191" arabic-form="final" 
d="M930 223h262q41 0 41 -119q0 -104 -41 -104h-217q-232 0 -397 57q-265 -84 -265 -219q0 -141 236 -141q83 0 160 18l43 -213q-92 -34 -232 -34q-210 0 -333.5 88.5t-123.5 255.5q0 259 330 395q-130 194 -274 319q16 152 49 234q221 121 471 121q190 0 302 -80t112 -223
q0 -186 -176 -355h53zM354 610l-2 -10q128 -111 262 -309q90 51 139.5 111.5t49.5 117.5q0 56 -53.5 93.5t-159.5 37.5q-115 0 -236 -41z" />
    <glyph glyph-name="uniFECB" unicode="&#x639;" horiz-adv-x="987" arabic-form="initial" 
d="M457 223h461v-223h-918v223h199q-70 122 -70 254q0 186 138 295t378 109q115 0 236 -33l-47 -217q-106 20 -181 20q-127 0 -200.5 -58t-73.5 -161q0 -110 78 -209z" />
    <glyph glyph-name="uniFECC" unicode="&#x639;" horiz-adv-x="1198" arabic-form="medial" 
d="M1016 223h182q41 0 41 -119q0 -55 -9.5 -79.5t-31.5 -24.5h-162q-248 0 -444 51q-204 -51 -520 -51h-72v223h188q93 0 191 4q-123 178 -260 297q16 148 51 236q93 50 215.5 84.5t255.5 34.5q190 0 301 -80.5t111 -225.5q0 -177 -166 -348q43 -2 129 -2zM354 604l-2 -8
q138 -123 262 -309q88 47 138.5 108.5t50.5 120.5q0 57 -54 95t-161 38q-125 0 -234 -45z" />
    <glyph glyph-name="uniFECE" unicode="&#x63a;" horiz-adv-x="1191" arabic-form="final" 
d="M625 1118q-58 0 -94.5 38t-36.5 97q0 57 36.5 94t94.5 37q59 0 94 -36.5t35 -94.5q0 -60 -35 -97.5t-94 -37.5zM930 223h262q41 0 41 -119q0 -104 -41 -104h-217q-232 0 -397 57q-265 -84 -265 -219q0 -141 236 -141q83 0 160 18l43 -213q-92 -34 -232 -34
q-210 0 -333.5 88.5t-123.5 255.5q0 259 330 395q-130 194 -274 319q16 152 49 234q221 121 471 121q190 0 302 -80t112 -223q0 -186 -176 -355h53zM354 610l-2 -10q128 -111 262 -309q90 51 139.5 111.5t49.5 117.5q0 56 -53.5 93.5t-159.5 37.5q-115 0 -236 -41z" />
    <glyph glyph-name="uniFECF" unicode="&#x63a;" horiz-adv-x="987" arabic-form="initial" 
d="M618 1118q-58 0 -94.5 38t-36.5 97q0 57 36.5 94t94.5 37q59 0 94.5 -36.5t35.5 -94.5q0 -59 -35.5 -97t-94.5 -38zM457 223h461v-223h-918v223h199q-70 122 -70 254q0 186 138 295t378 109q115 0 236 -33l-47 -217q-106 20 -181 20q-127 0 -200.5 -58t-73.5 -161
q0 -110 78 -209z" />
    <glyph glyph-name="uniFED0" unicode="&#x63a;" horiz-adv-x="1198" arabic-form="medial" 
d="M621 1116q-58 0 -95 38t-37 97q0 57 37 94t95 37q59 0 94 -36.5t35 -94.5q0 -60 -35 -97.5t-94 -37.5zM1016 223h182q41 0 41 -119q0 -55 -9.5 -79.5t-31.5 -24.5h-162q-248 0 -444 51q-204 -51 -520 -51h-72v223h188q93 0 191 4q-123 178 -260 297q16 148 51 236
q93 50 215.5 84.5t255.5 34.5q190 0 301 -80.5t111 -225.5q0 -177 -166 -348q43 -2 129 -2zM354 604l-2 -8q138 -123 262 -309q88 47 138.5 108.5t50.5 120.5q0 57 -54 95t-161 38q-125 0 -234 -45z" />
    <glyph glyph-name="uniFED2" unicode="&#x641;" horiz-adv-x="2242" arabic-form="final" 
d="M1653 1118q-58 0 -94.5 38t-36.5 97q0 57 36.5 94t94.5 37q59 0 94 -36.5t35 -94.5q0 -60 -35 -97.5t-94 -37.5zM2038 223h205q41 0 41 -119q0 -104 -41 -104h-230q-189 0 -375 33q-155 -33 -356 -33h-707q-234 0 -369.5 114t-135.5 300q0 155 65 327l217 -57
q-39 -157 -39 -219q0 -117 80 -179.5t221 -62.5h639h37q-108 113 -108 264q0 167 126 280.5t345 113.5q214 0 336 -110t122 -275q0 -154 -110 -273h37zM1645 240q85 16 151 83t66 154q0 78 -58.5 126t-154.5 48t-155.5 -47.5t-59.5 -126.5q0 -84 61 -148t150 -89z" />
    <glyph glyph-name="uniFED3" unicode="&#x641;" horiz-adv-x="1179" arabic-form="initial" 
d="M631 1118q-58 0 -94.5 38t-36.5 97q0 57 36.5 94t94.5 37q59 0 94 -36.5t35 -94.5q0 -60 -35 -97.5t-94 -37.5zM631 881q111 0 197.5 -34.5t141.5 -96.5t83 -144t28 -180q0 -205 -82 -426h-999v223h193q-48 88 -48 203q0 196 132 325.5t354 129.5zM455 223h354
q22 99 22 178q0 117 -54.5 183.5t-158.5 66.5q-106 0 -163.5 -62.5t-57.5 -164.5q0 -98 58 -201z" />
    <glyph glyph-name="uniFED4" unicode="&#x641;" horiz-adv-x="1206" arabic-form="medial" 
d="M616 1118q-58 0 -94.5 38t-36.5 97q0 57 36.5 94t94.5 37q59 0 94 -36.5t35 -94.5q0 -60 -35 -97.5t-94 -37.5zM1001 223h205q41 0 41 -119q0 -104 -41 -104h-229q-189 0 -375 33q-155 -33 -356 -33h-246v223h217h37q-109 114 -109 264q0 167 126 280.5t345 113.5
q214 0 336.5 -110t122.5 -275q0 -153 -108 -273h34zM608 240q85 16 151 83t66 154q0 78 -58.5 126t-154.5 48t-155.5 -47.5t-59.5 -126.5q0 -84 61 -148t150 -89z" />
    <glyph glyph-name="uniFED6" unicode="&#x642;" horiz-adv-x="1724" arabic-form="final" 
d="M958 1118q-58 0 -95.5 38t-37.5 97q0 57 37.5 94t95.5 37t95 -37t37 -94q0 -59 -37 -97t-95 -38zM1298 1118q-58 0 -96.5 38t-38.5 97q0 57 38 94t97 37q56 0 92.5 -37t36.5 -94q0 -58 -36.5 -96.5t-92.5 -38.5zM1552 223h172q41 0 41 -119q0 -104 -41 -104h-190
q-48 -183 -219.5 -271.5t-491.5 -88.5q-753 0 -753 499q0 130 53 281l217 -60q-27 -102 -27 -182q0 -158 121 -233.5t400 -75.5q376 0 446 131h-106q-253 0 -377.5 115t-124.5 321q0 86 30.5 165.5t86 142t142 100t191.5 37.5t188 -34.5t135 -95t79.5 -139.5t27.5 -172v-217
zM1171 223h132v203q0 106 -47 165.5t-140 59.5q-88 0 -141 -56.5t-53 -154.5q0 -217 249 -217z" />
    <glyph glyph-name="uniFED7" unicode="&#x642;" horiz-adv-x="1179" arabic-form="initial" 
d="M461 1118q-58 0 -95.5 38t-37.5 97q0 57 37.5 94t95.5 37t94.5 -37t36.5 -94q0 -59 -36.5 -97t-94.5 -38zM801 1118q-59 0 -97 38t-38 97q0 57 38 94t97 37q56 0 92.5 -37t36.5 -94q0 -58 -36.5 -96.5t-92.5 -38.5zM631 881q111 0 197.5 -34.5t141.5 -96.5t83 -144
t28 -180q0 -205 -82 -426h-999v223h193q-48 88 -48 203q0 196 132 325.5t354 129.5zM455 223h354q22 99 22 178q0 117 -54.5 183.5t-158.5 66.5q-106 0 -163.5 -62.5t-57.5 -164.5q0 -98 58 -201z" />
    <glyph glyph-name="uniFED8" unicode="&#x642;" horiz-adv-x="1206" arabic-form="medial" 
d="M444 1118q-58 0 -95.5 38t-37.5 97q0 57 37.5 94t95.5 37t94.5 -37t36.5 -94q0 -59 -36.5 -97t-94.5 -38zM784 1118q-58 0 -96.5 38t-38.5 97q0 57 38 94t97 37q56 0 92.5 -37t36.5 -94q0 -58 -36.5 -96.5t-92.5 -38.5zM1001 223h205q41 0 41 -119q0 -104 -41 -104h-229
q-189 0 -375 33q-155 -33 -356 -33h-246v223h217h37q-109 114 -109 264q0 167 126 280.5t345 113.5q214 0 336.5 -110t122.5 -275q0 -153 -108 -273h34zM608 240q85 16 151 83t66 154q0 78 -58.5 126t-154.5 48t-155.5 -47.5t-59.5 -126.5q0 -84 61 -148t150 -89z" />
    <glyph glyph-name="uniFEDA" unicode="&#x643;" horiz-adv-x="1843" arabic-form="final" 
d="M1843 223q41 0 41 -119q0 -104 -41 -104q-208 0 -291 113q-107 -113 -370 -113h-607q-234 0 -369.5 114t-135.5 300q0 155 65 327l217 -57q-39 -157 -39 -219q0 -117 80 -179.5t221 -62.5h568q123 0 167 47.5t44 182.5v1095h247v-1159q0 -29 -2 -43q39 -123 205 -123z
M901 811h170v-133h-416v133h88q-24 46 -24 94q0 79 60.5 136t164.5 57q43 0 105 -17l-19 -129q-37 11 -72 11q-40 0 -64 -18.5t-24 -55.5q0 -44 31 -78z" />
    <glyph glyph-name="uniFEDB" unicode="&#x643;" horiz-adv-x="987" arabic-form="initial" 
d="M815 1374l-489 -473q158 -49 267 -113.5t174 -149t93.5 -184t28.5 -227.5v-227h-889v223h643v17q0 135 -51 226t-175.5 159t-342.5 118v236l579 559z" />
    <glyph glyph-name="uniFEDC" unicode="&#x643;" horiz-adv-x="1071" arabic-form="medial" 
d="M889 223h182q41 0 41 -119q0 -104 -41 -104h-1071v223h643v17q0 135 -51 226t-175.5 159t-342.5 118v236l579 559l162 -164l-489 -473q158 -49 267 -113.5t174 -149t93.5 -184t28.5 -227.5v-4z" />
    <glyph glyph-name="uniFEDE" unicode="&#x644;" horiz-adv-x="1384" arabic-form="final" 
d="M1221 223h163q41 0 41 -119q0 -104 -41 -104h-182q-43 -180 -188 -270t-367 -90q-139 0 -250 37.5t-182 104.5t-108 156t-37 193q0 175 96 387l211 -72q-64 -166 -64 -282q0 -143 88.5 -219t247.5 -76t241.5 72.5t82.5 248.5v1358h248v-1325z" />
    <glyph glyph-name="uniFEDF" unicode="&#x644;" horiz-adv-x="591" arabic-form="initial" 
d="M0 0v223q123 0 167 47.5t44 182.5v1095h248v-1159q0 -205 -111 -297t-348 -92z" />
    <glyph glyph-name="uniFEE0" unicode="&#x644;" horiz-adv-x="673" arabic-form="medial" 
d="M674 223q41 0 41 -119q0 -104 -41 -104q-215 0 -297 121q-107 -121 -377 -121v223q123 0 167 47.5t44 182.5v1095h248v-1120q0 -205 215 -205z" />
    <glyph glyph-name="uniFEE2" unicode="&#x645;" horiz-adv-x="1515" arabic-form="final" 
d="M1378 223h138q40 0 40 -119q0 -104 -40 -104h-248q-134 -131 -391 -131h-209q-69 66 -113 131h-76q-168 0 -168 -164v-368h-241v401q0 169 98.5 261.5t277.5 92.5h21q-8 39 -8 90q0 201 134.5 334t350.5 133q206 0 324 -125.5t118 -332.5q0 -58 -8 -99zM786 90h107
q123 0 183.5 67.5t60.5 172.5q0 96 -54.5 158.5t-152.5 62.5q-99 0 -160 -67t-61 -177q0 -58 21 -117t56 -100z" />
    <glyph glyph-name="uniFEE3" unicode="&#x645;" horiz-adv-x="1155" arabic-form="initial" 
d="M616 881q206 0 325.5 -124.5t119.5 -312.5q0 -209 -130.5 -326.5t-381.5 -117.5h-549v223h193q-60 91 -60 226q0 191 135.5 311.5t347.5 120.5zM451 223h124q66 0 113.5 18t73 49.5t36.5 67.5t11 80q0 97 -57 155t-152 58q-96 0 -156.5 -59t-60.5 -168t68 -201z" />
    <glyph glyph-name="uniFEE4" unicode="&#x645;" horiz-adv-x="1187" arabic-form="medial" 
d="M1053 223h135q41 0 41 -119q0 -55 -9.5 -79.5t-31.5 -24.5h-246q-134 -131 -391 -131h-209q-69 66 -113 131h-229v223h141q-8 39 -8 90q0 201 135 334t353 133q204 0 322 -125.5t118 -332.5q0 -58 -8 -99zM455 90h110q125 0 185.5 67.5t60.5 172.5q0 96 -54.5 158.5
t-152.5 62.5q-102 0 -161.5 -66.5t-59.5 -177.5q0 -57 20 -115.5t52 -101.5z" />
    <glyph glyph-name="uniFEE6" unicode="&#x646;" horiz-adv-x="1413" arabic-form="final" 
d="M655 838q-58 0 -94.5 38t-36.5 97q0 57 36.5 94t94.5 37q59 0 94 -36.5t35 -94.5q0 -60 -35 -97.5t-94 -37.5zM1221 223h192q41 0 41 -119q0 -55 -9.5 -79.5t-31.5 -24.5h-211q-43 -180 -188 -270t-367 -90q-139 0 -250 37.5t-182 104.5t-108 156t-37 193q0 175 96 387
l211 -72q-64 -166 -64 -282q0 -143 88.5 -219t247.5 -76t241.5 72.5t82.5 248.5v519h248v-486z" />
    <glyph glyph-name="uniFEE7" unicode="&#x646;" horiz-adv-x="550" arabic-form="initial" 
d="M326 1096q-58 0 -94.5 38t-36.5 97q0 57 36.5 94t94.5 37q59 0 94 -36.5t35 -94.5q0 -60 -35 -97.5t-94 -37.5zM0 0v223q118 0 160.5 48.5t42.5 187.5v399h250v-432q0 -235 -109 -330.5t-344 -95.5z" />
    <glyph glyph-name="uniFEE8" unicode="&#x646;" horiz-adv-x="667" arabic-form="medial" 
d="M328 1096q-58 0 -94.5 38t-36.5 97q0 57 36.5 94t94.5 37q59 0 94 -36.5t35 -94.5q0 -60 -35 -97.5t-94 -37.5zM668 223q41 0 41 -119q0 -104 -41 -104q-215 0 -299 123q-103 -123 -369 -123v223q118 0 160.5 48.5t42.5 187.5v399h250v-430q0 -205 215 -205z" />
    <glyph glyph-name="uniFEE9" unicode="&#x647;" horiz-adv-x="1085" arabic-form="isolated" 
d="M530 -10q-213 0 -336.5 113.5t-123.5 304.5q0 207 125.5 340t334.5 133t335 -134.5t126 -338.5q0 -193 -122.5 -305.5t-338.5 -112.5zM532 219q92 0 147.5 52.5t55.5 150.5q0 105 -54.5 167t-150.5 62q-98 0 -151 -61.5t-53 -163.5t54.5 -154.5t151.5 -52.5z" />
    <glyph glyph-name="uniFEEA" unicode="&#x647;" horiz-adv-x="1126" arabic-form="final" 
d="M1126 223q41 0 41 -119q0 -104 -41 -104q-272 0 -354 88q-119 -61 -264 -61q-208 0 -323 110t-115 283q0 196 137.5 317t374.5 121h368v-475q0 -90 38 -125t138 -35zM692 285v352h-147q-104 0 -166 -52.5t-62 -146.5q0 -89 56 -136.5t168 -47.5q91 0 151 31z" />
    <glyph glyph-name="uniFEEB" unicode="&#x647;" horiz-adv-x="1339" arabic-form="initial" 
d="M111 721l32 201q147 -6 269 -19t237 -37.5t204 -60t164 -87.5t123.5 -119t75.5 -155.5t27 -195.5q0 -100 -29 -248h-475q-145 0 -254 39q-98 -39 -260 -39h-225v223h203h6q-70 99 -70 226q0 172 113 266q-21 2 -44.5 3t-52 1.5t-44.5 1.5zM485 238q71 35 113.5 93.5
t42.5 137.5q0 82 -40.5 132t-106.5 50q-65 0 -105.5 -50.5t-40.5 -129.5q0 -150 137 -233zM1030 272q0 215 -211 326q31 -70 31 -143q0 -132 -80 -232h256q4 32 4 49z" />
    <glyph glyph-name="uniFEEC" unicode="&#x647;" horiz-adv-x="1073" arabic-form="medial" 
d="M891 223h182q41 0 41 -119q0 -104 -41 -104h-155q55 -90 55 -180q0 -141 -106.5 -226.5t-295.5 -85.5q-233 0 -337.5 105.5t-104.5 306.5v80h-129v223h129v154q0 221 111 357t317 136q129 0 223 -56.5t138.5 -145.5t44.5 -197q0 -136 -72 -248zM547 641q-80 0 -125 -59
t-45 -174v-185h110q104 0 166 60.5t62 167.5q0 82 -43.5 136t-124.5 54zM563 -262q160 0 160 129q0 68 -45 133h-301v-59q0 -104 44 -153.5t142 -49.5z" />
    <glyph glyph-name="uniFEEE" unicode="&#x648;" horiz-adv-x="1142" arabic-form="final" 
d="M987 223h156q41 0 41 -119q0 -104 -41 -104h-162q-25 -186 -173.5 -284.5t-414.5 -98.5q-67 0 -147 6l-15 225q436 -30 496 152h-125q-238 0 -367 114t-129 304q0 126 56.5 231t162 168.5t238.5 63.5q205 0 314.5 -118t109.5 -310v-230zM356 436q0 -213 256 -213h127v199
q0 111 -47 170t-137 59t-144.5 -60t-54.5 -155z" />
    <glyph glyph-name="uniFEF0" unicode="&#x649;" horiz-adv-x="1615" arabic-form="final" 
d="M1389 223h227q41 0 41 -119q0 -55 -9.5 -79.5t-31.5 -24.5h-103q60 -66 60 -152q0 -163 -204 -271.5t-556 -108.5q-192 0 -335.5 37t-232 105.5t-132 161.5t-43.5 210q0 116 53 280l217 -55q-27 -120 -27 -193q0 -113 49.5 -181t163.5 -102t305 -34q238 0 364 49.5
t126 126.5q0 51 -52 93t-157 69l-254 61l53 211l277 -65q86 -19 201 -19z" />
    <glyph glyph-name="uniFEF2" unicode="&#x64a;" horiz-adv-x="1615" arabic-form="final" 
d="M1389 223h227q41 0 41 -119q0 -55 -9.5 -79.5t-31.5 -24.5h-103q60 -66 60 -152q0 -163 -204 -271.5t-556 -108.5q-192 0 -335.5 37t-232 105.5t-132 161.5t-43.5 210q0 116 53 280l217 -55q-27 -120 -27 -193q0 -113 49.5 -181t163.5 -102t305 -34q238 0 364 49.5
t126 126.5q0 51 -52 93t-157 69l-254 61l53 211l277 -65q86 -19 201 -19zM639 -674q58 0 94.5 -38t36.5 -97q0 -57 -36.5 -94t-94.5 -37t-95.5 37t-37.5 94q0 59 37.5 97t95.5 38zM979 -674q56 0 92.5 -38.5t36.5 -96.5q0 -57 -36.5 -94t-92.5 -37q-59 0 -97 37t-38 94
q0 59 38 97t97 38z" />
    <glyph glyph-name="uniFEF3" unicode="&#x64a;" horiz-adv-x="669" arabic-form="initial" 
d="M45 0h-45v223h51q122 0 165.5 50t43.5 186v399h250v-432q0 -231 -111.5 -328.5t-353.5 -97.5zM170 -432q-58 0 -95.5 37t-37.5 94q0 59 37.5 97t95.5 38t94.5 -38t36.5 -97q0 -57 -36.5 -94t-94.5 -37zM510 -432q-59 0 -97 37t-38 94q0 59 38.5 97t96.5 38
q56 0 92.5 -38.5t36.5 -96.5q0 -57 -36.5 -94t-92.5 -37z" />
    <glyph glyph-name="uniFEF4" unicode="&#x64a;" horiz-adv-x="743" arabic-form="medial" 
d="M743 223q41 0 41 -119q0 -55 -9.5 -79.5t-31.5 -24.5q-226 0 -315 125q-102 -125 -375 -125h-53v223h51q122 0 165.5 50t43.5 186v399h250v-424q0 -211 233 -211zM178 -166q58 0 94.5 -38t36.5 -97q0 -57 -36.5 -94t-94.5 -37t-95.5 37t-37.5 94q0 59 37.5 97t95.5 38z
M518 -166q56 0 92.5 -38.5t36.5 -96.5q0 -57 -36.5 -94t-92.5 -37q-59 0 -97 37t-38 94q0 59 38.5 97t96.5 38z" />
    <glyph glyph-name=".notdef" horiz-adv-x="1048" 
d="M1049 0h-1049v1470h1049v-1470zM102 1366v-1264h844v1264h-844zM555 479h-94q-4 24 -4 35q0 115 26 166q33 64 95 121q64 59 83 93.5t19 76.5q0 73 -46 123.5t-110 50.5q-67 0 -112 -47.5t-56 -147.5l-102 17q13 141 87 210.5t189 69.5q110 0 182 -74t72 -194
q0 -70 -26.5 -123.5t-102.5 -122.5q-77 -68 -88 -106q-12 -41 -12 -148zM569 240h-114v137h114v-137z" />
    <glyph glyph-name=".null" 
 />
    <glyph glyph-name="nonmarkingreturn" horiz-adv-x="682" 
 />
    <glyph glyph-name="NULL" 
 />
    <glyph glyph-name="NULL" 
 />
    <glyph glyph-name="CR" unicode="&#xd;" horiz-adv-x="512" 
 />
    <glyph glyph-name="space" unicode=" " horiz-adv-x="512" 
 />
    <glyph glyph-name="exclam" unicode="!" horiz-adv-x="696" 
d="M471 455h-246v995h246v-995zM348 -12q-66 0 -115 45t-49 110q0 66 48 113t116 47q67 0 115.5 -45.5t48.5 -110.5q0 -66 -48 -112.5t-116 -46.5z" />
    <glyph glyph-name="quotedbl" unicode="&#x22;" horiz-adv-x="940" 
d="M393 909h-209v541h209v-541zM756 909h-209v541h209v-541z" />
    <glyph glyph-name="quotedbl" unicode="&#x2033;" horiz-adv-x="940" 
d="M393 909h-209v541h209v-541zM756 909h-209v541h209v-541z" />
    <glyph glyph-name="numbersign" unicode="#" horiz-adv-x="1212" 
d="M397 0h-178l62 428h-185v172h207l37 250h-184v172h206l62 428h180l-61 -428h211l61 428h178l-61 -428h184v-172h-209l-35 -250h185v-172h-205l-64 -428h-178l62 428h-213zM518 850l-35 -250h211l35 250h-211z" />
    <glyph glyph-name="dollar" unicode="$" horiz-adv-x="1249" 
d="M676 -170h-125v150q-298 21 -467 202l178 164q91 -125 277 -149v448q-213 66 -307.5 159t-94.5 253q0 91 34 166t93 125t133 80.5t158 39.5v146h125v-146q124 -6 235 -46t189 -115l-172 -164q-71 93 -232 112v-417q69 -22 122.5 -45t111 -59.5t94.5 -80t61.5 -106.5
t24.5 -139q0 -129 -61 -226t-158.5 -146.5t-218.5 -55.5v-150zM582 874v390q-83 -6 -137 -57t-54 -134q0 -74 44.5 -118t146.5 -81zM657 608v-422q86 7 144.5 59t58.5 150q0 148 -203 213z" />
    <glyph glyph-name="percent" unicode="%" horiz-adv-x="1904" 
d="M1462 1438l-852 -1504l-170 78l852 1504zM463 713q-158 0 -269.5 111.5t-111.5 269.5t111.5 269.5t269.5 111.5t269.5 -111.5t111.5 -269.5t-111.5 -269.5t-269.5 -111.5zM463 909q76 0 130 54t54 131q0 76 -53.5 130t-130.5 54t-130.5 -54t-53.5 -130q0 -77 54 -131
t130 -54zM1442 -25q-158 0 -269.5 111.5t-111.5 269.5t111.5 269.5t269.5 111.5t269.5 -111.5t111.5 -269.5t-111.5 -269.5t-269.5 -111.5zM1442 172q76 0 130 54t54 130q0 77 -54 131t-130 54t-130.5 -54.5t-54.5 -130.5t54 -130t131 -54z" />
    <glyph glyph-name="ampersand" unicode="&#x26;" horiz-adv-x="1517" 
d="M584 -29q-97 0 -184 27.5t-155 79.5t-107.5 133.5t-39.5 181.5q0 77 26 144t72 117t99.5 86.5t118.5 64.5q-156 159 -156 325q0 89 35.5 159.5t94.5 112.5t130.5 63.5t149.5 21.5q80 0 151 -22t127.5 -64t89.5 -111t33 -155q0 -247 -297 -385l238 -248l168 264h280
l-291 -420l338 -346h-327l-160 166q-79 -93 -182.5 -144t-251.5 -51zM631 895q209 87 209 231q0 67 -48 114.5t-120 47.5q-71 0 -120.5 -46t-49.5 -116q0 -115 129 -231zM592 176q86 0 150.5 37.5t119.5 112.5l-309 321q-92 -34 -146.5 -91t-54.5 -153q0 -101 74.5 -164
t165.5 -63z" />
    <glyph glyph-name="quotesingle" unicode="'" horiz-adv-x="577" 
d="M393 909h-209v541h209v-541z" />
    <glyph glyph-name="quotesingle" unicode="&#x2032;" horiz-adv-x="577" 
d="M393 909h-209v541h209v-541z" />
    <glyph glyph-name="parenleft" unicode="(" horiz-adv-x="675" 
d="M545 -207l-172 -112q-143 198 -221 430.5t-78 478.5t78 478.5t221 430.5l172 -113q-124 -171 -192 -378t-68 -418t68 -418.5t192 -378.5z" />
    <glyph glyph-name="parenright" unicode=")" horiz-adv-x="675" 
d="M303 -319l-172 112q124 171 192 378.5t68 418.5t-68 418t-192 378l172 113q143 -198 221 -430.5t78 -478.5t-78 -478.5t-221 -430.5z" />
    <glyph glyph-name="asterisk" unicode="*" horiz-adv-x="948" 
d="M471 895l-172 -236l-137 105l176 231l-281 97l54 163l278 -96v291h172v-291l277 90l53 -164l-279 -90l176 -239l-141 -103z" />
    <glyph glyph-name="plus" unicode="+" horiz-adv-x="1363" 
d="M786 66h-208v450h-451v209h451v451h208v-451h451v-209h-451v-450z" />
    <glyph glyph-name="comma" unicode="," horiz-adv-x="532" 
d="M256 -258h-207l144 541h237z" />
    <glyph glyph-name="hyphen" unicode="-" horiz-adv-x="655" 
d="M573 399h-491v209h491v-209z" />
    <glyph glyph-name="period" unicode="." horiz-adv-x="532" 
d="M266 -12q-66 0 -115 45t-49 110q0 66 48 113t116 47q67 0 115.5 -45.5t48.5 -110.5q0 -66 -48 -112.5t-116 -46.5z" />
    <glyph glyph-name="slash" unicode="/" horiz-adv-x="796" 
d="M791 1487l-639 -1585l-170 61l639 1589z" />
    <glyph glyph-name="zero" unicode="0" horiz-adv-x="1249" 
d="M627 -37q-245 0 -379.5 203.5t-134.5 558.5t134.5 558.5t379.5 203.5q243 0 376.5 -203t133.5 -559t-133.5 -559t-376.5 -203zM627 172q63 0 111 39t75 96.5t44 136t22.5 145.5t5.5 136t-5.5 136.5t-22.5 146.5t-44 137.5t-75 97.5t-111 39t-111.5 -39t-76.5 -97.5
t-45.5 -137.5t-23 -146.5t-5.5 -136.5q0 -56 4.5 -112t14.5 -121t29.5 -120t47 -101t70.5 -72.5t96 -26.5z" />
    <glyph glyph-name="one" unicode="1" horiz-adv-x="1249" 
d="M817 0h-246v1151l-286 -236l-144 170l453 365h223v-1450z" />
    <glyph glyph-name="two" unicode="2" horiz-adv-x="1249" 
d="M1106 0h-965v225l559 549q74 72 111 138.5t37 146.5q0 100 -66 161.5t-166 61.5q-101 0 -166 -69t-79 -179l-240 37q22 182 157.5 299t332.5 117q96 0 182 -27.5t153.5 -79.5t107.5 -134t40 -183q0 -128 -60.5 -229t-173.5 -209l-417 -400h653v-225z" />
    <glyph glyph-name="three" unicode="3" horiz-adv-x="1249" 
d="M590 -37q-193 0 -332 84t-195 258l230 72q28 -91 103 -148t186 -57q50 0 95.5 13.5t84.5 41t62.5 75t23.5 110.5q0 67 -32.5 117t-86.5 76.5t-112.5 39t-120.5 12.5h-62v197h66q60 0 110.5 9.5t97.5 32.5t74 68t27 109q0 95 -66.5 152t-162.5 57q-88 0 -149 -50.5
t-83 -135.5l-231 59q38 147 169 239.5t304 92.5q130 0 234 -44t168.5 -135.5t64.5 -217.5q0 -118 -71 -208.5t-189 -119.5v-4q134 -27 216.5 -121.5t82.5 -226.5q0 -87 -29 -161.5t-78 -126t-114.5 -88.5t-137.5 -54t-147 -17z" />
    <glyph glyph-name="four" unicode="4" horiz-adv-x="1249" 
d="M954 0h-241v301h-670v217l616 932h295v-938h203v-211h-203v-301zM709 1161l-412 -649h416v649h-4z" />
    <glyph glyph-name="five" unicode="5" horiz-adv-x="1249" 
d="M569 -37q-178 0 -304.5 84.5t-184.5 233.5l223 81q31 -87 103.5 -138.5t168.5 -51.5q114 0 192.5 75t78.5 202q0 65 -19 115.5t-49.5 82.5t-73.5 52.5t-87.5 29t-94.5 8.5q-82 0 -176.5 -23t-161.5 -57l25 793h825v-221h-592l-14 -314q71 19 170 19q220 0 360 -122.5
t140 -336.5q0 -118 -42 -215.5t-114 -162t-168 -99.5t-205 -35z" />
    <glyph glyph-name="six" unicode="6" horiz-adv-x="1249" 
d="M623 -37q-227 0 -379 143.5t-152 354.5q0 116 35.5 209t114.5 219l362 561h299l-371 -537l3 -2q61 25 153 25q193 0 328 -134t135 -331q0 -150 -70 -267t-190 -179t-268 -62zM621 172q125 0 201.5 79t76.5 208q0 124 -76 203t-198 79q-125 0 -204 -79.5t-79 -206.5
q0 -118 77.5 -200.5t201.5 -82.5z" />
    <glyph glyph-name="seven" unicode="7" horiz-adv-x="1249" 
d="M510 0h-289l610 1229h-727v221h986v-225z" />
    <glyph glyph-name="eight" unicode="8" horiz-adv-x="1249" 
d="M625 -37q-142 0 -255 50.5t-182 153.5t-69 243q0 134 79.5 228t192.5 124v4q-103 38 -164 117.5t-61 199.5t62 213t166 142t231 49q128 0 231 -46t165 -136.5t62 -210.5q0 -122 -61.5 -208.5t-163.5 -119.5v-4q117 -29 194.5 -125.5t77.5 -226.5q0 -140 -68.5 -243
t-181.5 -153.5t-255 -50.5zM625 868q88 0 149.5 61.5t61.5 149.5q0 91 -62.5 148t-148.5 57q-92 0 -150.5 -56t-58.5 -149q0 -90 58 -150.5t151 -60.5zM625 170q109 0 179 65.5t70 176.5q0 106 -72 176.5t-177 70.5q-107 0 -179.5 -69t-72.5 -178q0 -111 71 -176.5
t181 -65.5z" />
    <glyph glyph-name="nine" unicode="9" horiz-adv-x="1249" 
d="M643 0h-299l373 539l-2 2q-62 -27 -156 -27q-193 0 -328 134t-135 331q0 226 151 367t378 141t378.5 -143.5t151.5 -354.5q0 -116 -35.5 -209.5t-113.5 -218.5zM623 709q125 0 203.5 79.5t78.5 206.5q0 118 -77 202.5t-201 84.5t-201.5 -81t-77.5 -210q0 -124 76.5 -203
t198.5 -79z" />
    <glyph glyph-name="colon" unicode=":" horiz-adv-x="614" 
d="M307 680q-66 0 -115 45.5t-49 110.5q0 66 48 112.5t116 46.5q67 0 115.5 -45t48.5 -110q0 -66 -48 -113t-116 -47zM307 -12q-66 0 -115 45t-49 110q0 66 48 113t116 47q67 0 115.5 -45.5t48.5 -110.5q0 -66 -48 -112.5t-116 -46.5z" />
    <glyph glyph-name="semicolon" unicode=";" horiz-adv-x="614" 
d="M307 682q-66 0 -115 45.5t-49 110.5q0 66 48 112.5t116 46.5q67 0 115.5 -45t48.5 -110q0 -66 -48 -113t-116 -47zM301 -258h-219l143 541h250z" />
    <glyph glyph-name="less" unicode="&#x3c;" horiz-adv-x="1363" 
d="M1200 311v-225l-1036 461v147l1036 461v-225l-692 -309z" />
    <glyph glyph-name="equal" unicode="=" horiz-adv-x="1363" 
d="M1200 700h-1036v209h1036v-209zM1200 332h-1036v209h1036v-209z" />
    <glyph glyph-name="greater" unicode="&#x3e;" horiz-adv-x="1363" 
d="M1200 547l-1036 -461v225l692 310l-692 309v225l1036 -461v-147z" />
    <glyph glyph-name="question" unicode="?" horiz-adv-x="1062" 
d="M672 428h-242v78q0 98 29 161.5t106 137.5l92 88q45 42 70 84t25 98q0 82 -52 135.5t-141 53.5q-92 0 -149 -62.5t-60 -150.5l-252 22q23 192 154 303t323 111q120 0 218 -44t158.5 -135t60.5 -216q0 -51 -10 -94.5t-25 -76t-44 -67.5t-55 -60.5t-71 -64.5
q-84 -74 -109.5 -118.5t-25.5 -129.5v-53zM553 -12q-66 0 -115 45t-49 110q0 66 48 113t116 47q67 0 115.5 -45.5t48.5 -110.5q0 -66 -48 -112.5t-116 -46.5z" />
    <glyph glyph-name="at" unicode="@" horiz-adv-x="1638" 
d="M848 -37q-231 0 -409.5 97t-275.5 270t-97 393q0 160 62 302.5t167 243.5t249 159.5t304 58.5q113 0 218.5 -25.5t198 -79.5t161 -130.5t108 -185.5t39.5 -237q0 -120 -33.5 -217t-90.5 -158t-129.5 -93.5t-152.5 -32.5q-81 0 -130.5 39t-49.5 98h-10q-35 -57 -100 -97
t-150 -40q-136 0 -213.5 90.5t-77.5 240.5q0 117 49.5 222.5t143 174t209.5 68.5q76 0 130.5 -31.5t69.5 -80.5h2l17 82h182l-80 -387q-18 -111 -18 -129q0 -82 65 -82q81 0 133 87t52 230q0 241 -151 374.5t-396 133.5q-170 0 -303 -79t-205 -215.5t-72 -305.5
q0 -267 167.5 -427.5t434.5 -160.5q159 0 279.5 51t226.5 150l113 -123q-117 -124 -282.5 -186t-354.5 -62zM774 498q53 0 94.5 27.5t64.5 70.5t34.5 89t11.5 91q0 35 -6.5 65t-21 57t-42 42.5t-65.5 15.5q-61 0 -108.5 -48.5t-70 -116t-22.5 -136.5q0 -62 30 -109.5
t101 -47.5z" />
    <glyph glyph-name="A" unicode="A" horiz-adv-x="1445" 
d="M614 1450h224l624 -1450h-295l-135 332h-629l-131 -332h-288zM719 1143l-227 -590h450z" />
    <glyph glyph-name="B" unicode="B" horiz-adv-x="1325" 
d="M682 0h-522v1450h565q86 0 162.5 -20.5t141 -62.5t102.5 -114.5t38 -167.5q0 -120 -67.5 -201t-183.5 -116v-4q141 -19 227 -109t86 -233q0 -91 -31 -164.5t-83 -120.5t-123.5 -78.5t-148.5 -45t-163 -13.5zM418 1237v-377h229q128 0 196 51.5t68 145.5q0 96 -69 138
t-217 42h-207zM418 639v-422h231q324 0 324 217q0 111 -76.5 158t-237.5 47h-241z" />
    <glyph glyph-name="C" unicode="C" horiz-adv-x="1425" 
d="M864 -37q-224 0 -400.5 96.5t-275 271t-98.5 398.5q0 227 104 401t282 265.5t401 91.5q152 0 298 -56.5t228 -164.5l-197 -156q-54 74 -144.5 112t-184.5 38q-221 0 -361.5 -152t-140.5 -379q0 -238 134 -386t357 -148q114 0 205 44.5t148 122.5l206 -145
q-202 -254 -561 -254z" />
    <glyph glyph-name="D" unicode="D" horiz-adv-x="1564" 
d="M674 0h-514v1450h514q119 0 229 -22.5t216 -76.5t183.5 -135t125 -207t47.5 -284q0 -106 -24.5 -200t-68 -166.5t-103.5 -132t-130.5 -101t-150 -70t-160.5 -42t-164 -13.5zM418 1229v-1004h215q85 0 161.5 14t152 50t130 91t88 143.5t33.5 201.5q0 120 -34 211.5
t-87.5 146t-130.5 88.5t-151.5 46t-161.5 12h-215z" />
    <glyph glyph-name="E" unicode="E" horiz-adv-x="1249" 
d="M1157 0h-997v1450h960v-225h-702v-369h665v-217h-665v-410h739v-229z" />
    <glyph glyph-name="F" unicode="F" horiz-adv-x="1173" 
d="M418 0h-258v1450h936v-225h-678v-398h639v-217h-639v-610z" />
    <glyph glyph-name="G" unicode="G" horiz-adv-x="1583" 
d="M883 -37q-231 0 -411.5 96.5t-281 271t-100.5 398.5q0 227 104 401t282 265.5t401 91.5q169 0 315 -49.5t235 -132.5l-178 -193q-58 64 -157.5 106t-212.5 42q-225 0 -364.5 -151.5t-139.5 -379.5q0 -154 62 -275t180 -190t274 -69q167 0 289 51v368h-306v213h556v-751
q-234 -113 -547 -113z" />
    <glyph glyph-name="H" unicode="H" horiz-adv-x="1513" 
d="M418 0h-258v1450h258v-586h678v586h258v-1450h-258v643h-678v-643z" />
    <glyph glyph-name="I" unicode="I" horiz-adv-x="577" 
d="M418 0h-258v1450h258v-1450z" />
    <glyph glyph-name="J" unicode="J" horiz-adv-x="1019" 
d="M436 -37q-169 0 -277.5 86t-148.5 234l238 67q19 -72 68 -113.5t116 -41.5q103 0 142.5 72.5t39.5 209.5v973h258v-981q0 -49 -5 -95t-18.5 -97.5t-34 -95.5t-55 -85t-78.5 -70t-107 -46t-138 -17z" />
    <glyph glyph-name="K" unicode="K" horiz-adv-x="1411" 
d="M418 0h-258v1450h258v-627h6l606 627h348l-678 -670l723 -780h-362l-637 727h-6v-727z" />
    <glyph glyph-name="L" unicode="L" horiz-adv-x="1046" 
d="M1034 0h-874v1450h258v-1221h616v-229z" />
    <glyph glyph-name="M" unicode="M" horiz-adv-x="1884" 
d="M406 0h-246v1450h403l377 -1030h6l373 1030h405v-1450h-256v1165h-4l-440 -1165h-180l-434 1165h-4v-1165z" />
    <glyph glyph-name="N" unicode="N" horiz-adv-x="1597" 
d="M418 0h-258v1450h342l674 -1085h4v1085h258v-1450h-328l-688 1120h-4v-1120z" />
    <glyph glyph-name="O" unicode="O" horiz-adv-x="1738" 
d="M866 -37q-165 0 -309 56.5t-246.5 156t-161.5 243t-59 310.5q0 228 101 401.5t276.5 265t398.5 91.5q226 0 403 -91.5t278.5 -265t101.5 -401.5q0 -223 -101 -398t-279.5 -271.5t-402.5 -96.5zM868 195q221 0 360.5 150.5t139.5 383.5q0 228 -139 379.5t-361 151.5
q-146 0 -260.5 -70.5t-175.5 -191t-61 -269.5q0 -233 138.5 -383.5t358.5 -150.5z" />
    <glyph glyph-name="P" unicode="P" horiz-adv-x="1249" 
d="M418 0h-258v1450h473q547 0 547 -420q0 -116 -44 -201t-123.5 -134t-178 -72t-218.5 -23h-198v-600zM418 1233v-416h180q322 0 322 213q0 50 -18 87t-46 59t-70.5 35t-84.5 17.5t-95 4.5h-188z" />
    <glyph glyph-name="Q" unicode="Q" horiz-adv-x="1744" 
d="M1722 0h-874q-173 0 -316 50.5t-244 144t-156.5 234t-55.5 314.5q0 216 101 386.5t278 264t397 93.5t395.5 -93.5t275 -263.5t99.5 -387q0 -180 -74 -316t-184 -214v-4h358v-209zM848 225q217 0 355 144t138 374q0 223 -135.5 367.5t-353.5 144.5q-211 0 -352.5 -145.5
t-141.5 -366.5q0 -232 136 -375t354 -143z" />
    <glyph glyph-name="R" unicode="R" horiz-adv-x="1288" 
d="M418 0h-258v1450h504q85 0 160.5 -13.5t145 -45t119.5 -78.5t79.5 -118.5t29.5 -160.5q0 -154 -88.5 -255.5t-243.5 -135.5l387 -643h-311l-336 614h-188v-614zM418 1233v-408h211q311 0 311 211q0 56 -25.5 96.5t-70 61.5t-91.5 30t-102 9h-233z" />
    <glyph glyph-name="S" unicode="S" horiz-adv-x="1175" 
d="M549 -37q-145 0 -279.5 54t-218.5 153l185 172q53 -72 141 -116t176 -44q65 0 122 20t98.5 70.5t41.5 124.5q0 31 -9.5 57.5t-22 46t-39.5 38.5t-47.5 31t-61 27.5t-65 23.5t-73.5 23q-11 3 -16 5q-50 16 -88.5 31.5t-84 39.5t-77.5 55t-59.5 71t-42 95t-14.5 120
q0 106 45.5 190t122 134t169 76t193.5 26q113 0 227.5 -40.5t194.5 -115.5l-168 -184q-42 54 -116 89.5t-150 35.5q-64 0 -120 -19.5t-96 -66t-40 -113.5q0 -39 14.5 -70t34.5 -51t60.5 -40t73.5 -31.5t93 -30.5q50 -15 83 -26.5t81.5 -32.5t81 -42t69.5 -54t58.5 -70.5
t36 -88.5t14.5 -110q0 -113 -42 -203t-115.5 -146t-167.5 -85t-203 -29z" />
    <glyph glyph-name="T" unicode="T" horiz-adv-x="1163" 
d="M711 0h-258v1225h-445v225h1147v-225h-444v-1225z" />
    <glyph glyph-name="U" unicode="U" horiz-adv-x="1462" 
d="M731 -37q-166 0 -298 68.5t-209 199t-77 301.5v918h259v-907q0 -67 16.5 -126t52.5 -110.5t101.5 -81.5t154.5 -30q72 0 129 20.5t93 53.5t60 79t34 94t10 101v907h258v-918q0 -171 -77 -301.5t-209 -199t-298 -68.5z" />
    <glyph glyph-name="V" unicode="V" horiz-adv-x="1337" 
d="M776 0h-223l-573 1450h288l400 -1116h8l403 1116h279z" />
    <glyph glyph-name="W" unicode="W" horiz-adv-x="2056" 
d="M686 0h-250l-424 1450h283l280 -1065h5l319 1065h266l314 -1065h4l286 1065h275l-424 -1450h-250l-340 1087h-4z" />
    <glyph glyph-name="X" unicode="X" horiz-adv-x="1347" 
d="M319 0h-311l502 774l-451 676h312l299 -496l295 496h297l-443 -682l520 -768h-325l-355 569z" />
    <glyph glyph-name="Y" unicode="Y" horiz-adv-x="1273" 
d="M645 840l369 610h299l-545 -821v-629h-258v629l-545 821h316z" />
    <glyph glyph-name="Z" unicode="Z" horiz-adv-x="1251" 
d="M1180 0h-1108v233l788 992h-776v225h1083v-233l-792 -988h805v-229z" />
    <glyph glyph-name="bracketleft" unicode="[" horiz-adv-x="675" 
d="M516 -319h-393v1818h393v-160h-184v-1499h184v-159z" />
    <glyph glyph-name="backslash" unicode="\" horiz-adv-x="796" 
d="M815 -37l-170 -61l-639 1585l170 65z" />
    <glyph glyph-name="bracketright" unicode="]" horiz-adv-x="675" 
d="M553 -319h-393v159h184v1499h-184v160h393v-1818z" />
    <glyph glyph-name="asciicircum" unicode="^" horiz-adv-x="1363" 
d="M383 702h-242l457 748h168l457 -748h-242l-301 490z" />
    <glyph glyph-name="underscore" unicode="_" horiz-adv-x="1024" 
d="M1024 -307h-1024v153h1024v-153z" />
    <glyph glyph-name="grave" unicode="`" horiz-adv-x="532" 
d="M365 1155h-193l-291 295h281z" />
    <glyph glyph-name="a" unicode="a" horiz-adv-x="1126" 
d="M446 -25q-50 0 -99 9.5t-98.5 32.5t-86.5 57t-60.5 87.5t-23.5 119.5q0 61 21.5 110t57.5 83t89.5 60t109.5 41t126.5 24t132 12t133.5 3h6v25q0 87 -64 133.5t-162 46.5q-75 0 -147 -31.5t-121 -80.5l-127 149q82 75 191.5 115.5t224.5 40.5q102 0 180.5 -24.5t126 -64
t78 -95t42 -111.5t11.5 -119v-436v-162h-229v125h-6q-38 -66 -121 -108t-185 -42zM496 162q124 0 191 67t67 185v35h-56q-374 0 -374 -164q0 -65 49.5 -94t122.5 -29z" />
    <glyph glyph-name="b" unicode="b" horiz-adv-x="1300" 
d="M727 -29q-105 0 -196.5 46.5t-141.5 129.5h-4v-147h-233v1548h245v-690h6q125 154 330 154q138 0 247.5 -68t169.5 -186t60 -262t-57.5 -263t-169 -190.5t-256.5 -71.5zM678 176q68 0 123.5 28t89.5 74.5t52 102.5t18 115q0 80 -30 150t-96 117.5t-157 47.5
q-128 0 -208.5 -97.5t-80.5 -221.5q0 -79 34 -150t101.5 -118.5t153.5 -47.5z" />
    <glyph glyph-name="c" unicode="c" horiz-adv-x="999" 
d="M623 -29q-109 0 -206 36t-169.5 101t-115 164.5t-42.5 219.5q0 155 71.5 275t190.5 182.5t264 62.5q109 0 211 -41.5t160 -112.5l-168 -147q-29 42 -86 69t-117 27q-86 0 -149 -47.5t-92 -117.5t-29 -150t30 -150.5t95 -118t154 -47.5q59 0 115.5 23t90.5 65l154 -155
q-61 -66 -157 -102t-205 -36z" />
    <glyph glyph-name="d" unicode="d" horiz-adv-x="1298" 
d="M571 -29q-145 0 -256.5 71.5t-169 190.5t-57.5 263t60 262t169.5 186t247.5 68q205 0 330 -154h6v690h246v-1548h-234v147h-4q-50 -83 -141.5 -129.5t-196.5 -46.5zM621 176q128 0 208 96.5t80 219.5q0 79 -33.5 151t-101 120t-153.5 48q-91 0 -157 -47.5t-96 -117.5
t-30 -150q0 -59 18 -115t52 -102.5t89.5 -74.5t123.5 -28z" />
    <glyph glyph-name="e" unicode="e" horiz-adv-x="1175" 
d="M618 -29q-232 0 -380 139.5t-148 374.5t147 381t373 146q213 0 344 -138t131 -395q0 -42 -2 -65h-747q7 -103 89 -172.5t191 -69.5q171 0 261 127l163 -131q-144 -197 -422 -197zM336 590h504q0 102 -59 169.5t-173 67.5q-109 0 -187 -67.5t-85 -169.5z" />
    <glyph glyph-name="f" unicode="f" horiz-adv-x="663" 
d="M432 0h-246v795h-186v196h186v137q0 94 20 170t64 140t124 99.5t190 35.5q73 0 125 -14l-17 -209q-47 14 -94 14q-166 0 -166 -221v-152h227v-196h-227v-795z" />
    <glyph glyph-name="g" unicode="g" horiz-adv-x="1294" 
d="M592 -492q-125 0 -260.5 43.5t-227.5 118.5l142 191q70 -67 160.5 -103.5t183.5 -36.5q168 0 239.5 89.5t71.5 248.5v72h-4q-54 -72 -137 -109.5t-185 -37.5q-144 0 -255.5 70.5t-170.5 187.5t-59 258q0 221 132 370.5t349 149.5q106 0 196 -44.5t142 -131.5h4v147h234
v-903q0 -274 -138 -427t-417 -153zM621 186q132 0 212 93t80 223q0 133 -80 225t-210 92t-206.5 -90.5t-76.5 -226.5q0 -126 77.5 -221t203.5 -95z" />
    <glyph glyph-name="h" unicode="h" horiz-adv-x="1196" 
d="M397 0h-245v1548h245v-702h4q32 67 111.5 116.5t181.5 49.5q92 0 164 -33.5t114 -90.5t63.5 -126.5t21.5 -147.5v-614h-246v541q0 260 -182 260q-110 0 -171 -78.5t-61 -185.5v-537z" />
    <glyph glyph-name="i" unicode="i" horiz-adv-x="548" 
d="M272 1169q-66 0 -110.5 44t-44.5 104t44.5 103.5t110.5 43.5q68 0 114 -42t46 -105t-46 -105.5t-114 -42.5zM397 0h-245v991h245v-991z" />
    <glyph glyph-name="j" unicode="j" horiz-adv-x="548" 
d="M272 1169q-66 0 -110.5 44t-44.5 104t44.5 103.5t110.5 43.5q68 0 114 -42t46 -105t-46 -105.5t-114 -42.5zM41 -492q-57 0 -111 13l21 209q34 -9 67 -9q42 0 70 16t41 47t18 64.5t5 81.5v1061h245v-1050q0 -76 -8.5 -136.5t-32.5 -117.5t-63 -95t-103 -61t-149 -23z" />
    <glyph glyph-name="k" unicode="k" horiz-adv-x="1112" 
d="M397 0h-245v1548h245v-975h6l373 418h316l-426 -448l452 -543h-325l-390 508h-6v-508z" />
    <glyph glyph-name="l" unicode="l" horiz-adv-x="548" 
d="M397 0h-245v1548h245v-1548z" />
    <glyph glyph-name="m" unicode="m" horiz-adv-x="1822" 
d="M1321 1020q92 0 163.5 -33.5t114 -90t63.5 -126t21 -147.5v-623h-245v553q0 262 -185 262q-73 0 -124 -42t-72 -101t-21 -127v-545h-245v602q0 95 -46.5 154t-136.5 59q-103 0 -159 -79t-56 -187v-549h-246v778v213h234v-157h4q35 79 114.5 132.5t190.5 53.5
q218 0 307 -186q101 186 324 186z" />
    <glyph glyph-name="n" unicode="n" horiz-adv-x="1191" 
d="M393 0h-246v776v215h234v-157h4q34 78 117.5 132t187.5 54q92 0 164 -33.5t114 -90t63.5 -126t21.5 -147.5v-623h-246v553q0 262 -184 262q-74 0 -128 -40t-78 -99t-24 -127v-549z" />
    <glyph glyph-name="o" unicode="o" horiz-adv-x="1249" 
d="M625 -29q-148 0 -270 66t-193.5 187t-71.5 272t72 270t193.5 182.5t269.5 63.5t269.5 -64t193 -182.5t71.5 -269.5t-71.5 -272t-193 -187t-269.5 -66zM625 176q70 0 126 28t89.5 74.5t51 102t17.5 115.5q0 59 -17.5 114t-51 100.5t-89.5 73t-126 27.5q-93 0 -159.5 -47.5
t-96 -117t-29.5 -150.5q0 -60 17.5 -115.5t51.5 -102t90 -74.5t126 -28z" />
    <glyph glyph-name="p" unicode="p" horiz-adv-x="1296" 
d="M393 -492h-246v1483h236v-137h6q43 68 129.5 117t210.5 49q138 0 247.5 -68.5t169.5 -187.5t60 -264t-57.5 -264.5t-169 -192t-256.5 -72.5q-103 0 -191 43t-135 117h-4v-623zM674 176q68 0 123.5 28.5t89 75.5t51.5 103.5t18 116.5t-18 116t-51.5 102t-88.5 73.5
t-124 27.5q-128 0 -208.5 -99t-80.5 -224q0 -80 34 -152t101.5 -120t153.5 -48z" />
    <glyph glyph-name="q" unicode="q" horiz-adv-x="1294" 
d="M1147 -492h-246v623h-4q-47 -74 -135 -117t-191 -43q-145 0 -256.5 72.5t-169 192t-57.5 264.5t60 264t169.5 187.5t247.5 68.5q124 0 210.5 -49t129.5 -117h6v137h236v-1483zM621 176q128 0 208 97.5t80 222.5t-80 224t-208 99q-91 0 -157 -48t-96 -119t-30 -152
q0 -60 18 -116.5t52 -103.5t89.5 -75.5t123.5 -28.5z" />
    <glyph glyph-name="r" unicode="r" horiz-adv-x="745" 
d="M393 0h-246v799v192h236v-164h4q41 87 117 140t170 53q35 0 59 -6v-226q-45 11 -76 11q-63 0 -112 -21t-76.5 -51t-45.5 -68.5t-24 -68.5t-6 -55v-535z" />
    <glyph glyph-name="s" unicode="s" horiz-adv-x="909" 
d="M434 -29q-116 0 -225 42.5t-178 119.5l162 152q42 -55 108 -89t143 -34q63 0 110.5 28.5t47.5 88.5q0 57 -49.5 84.5t-175.5 56.5q-49 12 -86.5 24.5t-78 35.5t-66.5 51t-43 71t-17 96q0 79 33.5 141t89.5 98.5t124 55.5t144 19q110 0 210.5 -39t158.5 -111l-160 -141
q-34 45 -92 75.5t-123 30.5q-66 0 -112 -26t-46 -80q0 -52 46.5 -76t166.5 -53q50 -12 89.5 -25.5t84.5 -37.5t74.5 -53.5t49.5 -75t20 -101.5q0 -87 -33.5 -152t-91.5 -102.5t-129.5 -55.5t-155.5 -18z" />
    <glyph glyph-name="t" unicode="t" horiz-adv-x="696" 
d="M498 -20q-94 0 -159 27t-99 77.5t-48 109t-14 134.5v467h-172v196h172v281h242v-281h246v-196h-246v-465q0 -75 26.5 -113.5t102.5 -38.5q61 0 104 21l9 -193q-70 -26 -164 -26z" />
    <glyph glyph-name="u" unicode="u" horiz-adv-x="1191" 
d="M502 -29q-92 0 -164 33.5t-114 90.5t-63.5 126.5t-21.5 147.5v622h246v-553q0 -262 184 -262q74 0 128 40t78 99t24 127v549h245v-819v-172h-233v158h-4q-34 -78 -117.5 -132.5t-187.5 -54.5z" />
    <glyph glyph-name="v" unicode="v" horiz-adv-x="1050" 
d="M659 0h-262l-397 991h268l258 -725h4l261 725h260z" />
    <glyph glyph-name="w" unicode="w" horiz-adv-x="1646" 
d="M600 0h-250l-342 991h266l205 -712h4l211 712h262l213 -712h5l208 712h256l-340 -991h-249l-224 696h-4z" />
    <glyph glyph-name="x" unicode="x" horiz-adv-x="1099" 
d="M289 0h-291l399 526l-354 465h295l213 -309l219 309h283l-353 -465l402 -526h-299l-256 362z" />
    <glyph glyph-name="y" unicode="y" horiz-adv-x="1050" 
d="M213 -492q-63 0 -127 15l20 213q50 -15 93 -15q50 0 83 19t50.5 48t40.5 87l49 125l-422 991h272l275 -723h4l244 723h256l-465 -1202q-28 -71 -58 -119.5t-73 -87t-102.5 -56.5t-139.5 -18z" />
    <glyph glyph-name="z" unicode="z" horiz-adv-x="987" 
d="M918 0h-848v217l530 578h-506v196h799v-217l-533 -573h558v-201z" />
    <glyph glyph-name="braceleft" unicode="{" horiz-adv-x="675" 
d="M573 -319h-149q-111 0 -186.5 69.5t-75.5 200.5v391q0 86 -43.5 122t-98.5 36v180q55 0 98.5 32.5t43.5 110.5v406q0 131 75.5 200.5t186.5 69.5h149v-172h-112q-29 0 -48 -10.5t-27.5 -29.5t-11.5 -38t-3 -45v-385q0 -56 -21.5 -101t-55 -70t-65 -39t-59.5 -17v-4
q23 -2 46.5 -8.5t52.5 -24t50.5 -42.5t36.5 -68t15 -97v-373q0 -55 18 -88.5t72 -33.5h112v-172z" />
    <glyph glyph-name="bar" unicode="|" horiz-adv-x="454" 
d="M332 -512h-209v2060h209v-2060z" />
    <glyph glyph-name="braceright" unicode="}" horiz-adv-x="675" 
d="M252 -319h-150v172h113q54 0 72 33.5t18 88.5v373q0 54 15 97t36.5 68t50.5 42.5t52.5 24t46.5 8.5v4q-28 3 -59.5 17t-65 39t-55 70t-21.5 101v385q0 26 -3 45t-11.5 38t-27.5 29.5t-48 10.5h-113v172h150q111 0 186.5 -69.5t75.5 -200.5v-406q0 -78 43 -110.5t98 -32.5
v-180q-24 0 -46.5 -7t-45 -23t-36 -49t-13.5 -79v-391q0 -131 -75.5 -200.5t-186.5 -69.5z" />
    <glyph glyph-name="asciitilde" unicode="~" horiz-adv-x="1363" 
d="M903 436q-119 0 -248 82q-75 47 -114 60.5t-76 13.5q-91 0 -160 -129l-158 133q127 211 314 211q71 0 125 -19t121 -63q81 -52 113.5 -64t78.5 -12q92 0 160 129l158 -133q-127 -209 -314 -209z" />
    <glyph glyph-name="uni00A0" unicode="&#xa0;" horiz-adv-x="512" 
 />
    <glyph glyph-name="exclamdown" unicode="&#xa1;" horiz-adv-x="696" 
d="M348 709q-68 0 -116 46.5t-48 112.5q0 65 49 110.5t115 45.5q68 0 116 -47t48 -113q0 -65 -48.5 -110t-115.5 -45zM471 -438h-246v995h246v-995z" />
    <glyph glyph-name="cent" unicode="&#xa2;" horiz-adv-x="1249" 
d="M725 -172h-111v147q-207 18 -330.5 163t-123.5 356q0 213 121.5 349.5t332.5 164.5v137h111v-137q235 -7 348 -142l-158 -159q-83 86 -190 92v-615q55 0 108 26t91 69l149 -162q-63 -69 -154.5 -104t-193.5 -38v-147zM614 184v613q-110 -22 -165.5 -104.5t-55.5 -200.5
q0 -111 58 -196t163 -112z" />
    <glyph glyph-name="sterling" unicode="&#xa3;" horiz-adv-x="1249" 
d="M1128 0h-993v219h201v426h-201v172h201v170q0 65 15.5 130.5t52.5 133t92.5 119t143.5 84.5t196 33q218 0 360 -123l-145 -170q-82 88 -215 88q-57 0 -101.5 -19.5t-72 -50.5t-45 -72.5t-24.5 -81t-7 -81.5v-160h336v-172h-336v-426h542v-219z" />
    <glyph glyph-name="currency" unicode="&#xa4;" horiz-adv-x="1249" 
d="M352 168l-178 -176l-131 131l176 178q-82 133 -82 281t76 274l-170 170l131 129l170 -166q134 84 283 84q158 0 280 -84l168 166l131 -129l-166 -166q80 -122 80 -278q0 -159 -84 -287l170 -172l-129 -131l-176 174q-115 -80 -274 -80q-148 0 -275 82zM627 285
q129 0 206.5 85t77.5 212q0 125 -77.5 210t-206.5 85q-127 0 -205 -85t-78 -210q0 -126 78 -211.5t205 -85.5z" />
    <glyph glyph-name="yen" unicode="&#xa5;" horiz-adv-x="1249" 
d="M748 0h-246v317h-361v160h361v158h-361v160h297l-405 655h286l318 -590l305 590h275l-396 -655h287v-160h-360v-158h360v-160h-360v-317z" />
    <glyph glyph-name="brokenbar" unicode="&#xa6;" horiz-adv-x="454" 
d="M332 666h-209v716h209v-716zM332 -358h-209v716h209v-716z" />
    <glyph glyph-name="section" unicode="&#xa7;" horiz-adv-x="1249" 
d="M604 -295q-136 0 -265 59.5t-200 172.5l203 120q35 -69 107.5 -106t152.5 -37q73 0 134 38t61 107q0 42 -16.5 72.5t-54.5 55.5t-84 45t-120 49q-15 5 -22 8l-21 8q-53 21 -89 38.5t-80 46.5t-70.5 60t-45 76.5t-18.5 99.5q0 104 55 178t142 119q-125 79 -125 234
q0 82 37.5 148t99.5 106.5t136.5 62t152.5 21.5q124 0 233 -45.5t176 -130.5l-168 -150q-41 59 -105.5 94t-129.5 35q-70 0 -127 -35t-57 -100q0 -68 62 -113t194 -100l20 -8q73 -31 124 -59t104.5 -71.5t81.5 -101.5t28 -129q0 -82 -47 -153.5t-119 -108.5
q107 -79 107 -237q0 -89 -39.5 -161.5t-104 -116.5t-142.5 -67.5t-161 -23.5zM575 489l213 -88q41 20 65 59t24 81q0 36 -13.5 65.5t-41.5 52t-50.5 35.5t-60.5 31l-183 82q-56 -24 -87 -56t-31 -87q0 -29 10.5 -53.5t24 -41t39.5 -33t43 -25t48 -22.5z" />
    <glyph glyph-name="dieresis" unicode="&#xa8;" horiz-adv-x="532" 
d="M63 1176q-62 0 -103.5 42.5t-41.5 100.5t41.5 100.5t103.5 42.5q63 0 106.5 -41t43.5 -102t-43.5 -102t-106.5 -41zM465 1176q-62 0 -104 42.5t-42 100.5t42 100.5t104 42.5q63 0 106 -41t43 -102t-43 -102t-106 -41z" />
    <glyph glyph-name="copyright" unicode="&#xa9;" horiz-adv-x="1638" 
d="M821 -45q-159 0 -303 60.5t-248.5 162.5t-166.5 244.5t-62 300.5t62 301.5t166.5 246.5t248.5 163.5t303 60.5q158 0 301.5 -60.5t247.5 -163.5t165.5 -246.5t61.5 -301.5t-61.5 -300.5t-165.5 -244.5t-247.5 -162.5t-301.5 -60.5zM821 70q177 0 327.5 87.5t238.5 238
t88 327.5q0 178 -88 329.5t-238.5 239.5t-327.5 88q-133 0 -255 -52t-210 -140t-140 -210t-52 -255t52 -253.5t140 -208t210 -139.5t255 -52zM856 262q-98 0 -183.5 30.5t-149.5 87t-101 144t-37 195.5q0 139 64.5 245t170.5 160t236 54q98 0 186 -37.5t140 -104.5
l-129 -129q-30 38 -84 62t-113 24q-118 0 -186 -80t-68 -190q0 -113 71.5 -195t196.5 -82q55 0 107 21t84 57l119 -139q-53 -59 -138.5 -91t-185.5 -32z" />
    <glyph glyph-name="ordfeminine" unicode="&#xaa;" horiz-adv-x="778" 
d="M315 868q-88 0 -151.5 46.5t-63.5 129.5q0 45 16 80t46.5 57t64.5 36t81.5 20.5t86.5 9t88 2.5h4v13q0 44 -33 65t-89 21q-40 0 -78.5 -17.5t-63.5 -46.5l-90 107q44 44 110 67t136 23q76 0 130.5 -19.5t84 -54.5t42.5 -76t13 -92v-278v-78h-149v61h-2q-20 -34 -70 -55
t-113 -21zM358 995q62 0 95.5 32.5t33.5 86.5v27h-28q-189 0 -189 -80q0 -33 26 -49.5t62 -16.5z" />
    <glyph glyph-name="guillemotleft" unicode="&#xab;" horiz-adv-x="1062" 
d="M528 150l-155 -105l-312 463l312 459l153 -105l-235 -354zM985 150l-156 -105l-311 463l311 459l154 -105l-235 -354z" />
    <glyph glyph-name="logicalnot" unicode="&#xac;" horiz-adv-x="1363" 
d="M1237 301h-209v399h-901v209h1110v-608z" />
    <glyph glyph-name="uni00AD" unicode="&#xad;" horiz-adv-x="655" 
d="M573 399h-491v209h491v-209z" />
    <glyph glyph-name="registered" unicode="&#xae;" horiz-adv-x="1228" 
d="M616 551q-194 0 -331.5 134t-137.5 325q0 193 137.5 329t331.5 136q192 0 328.5 -136t136.5 -329q0 -191 -136 -325t-329 -134zM616 618q162 0 277 115t115 277q0 164 -114.5 279.5t-277.5 115.5q-164 0 -279.5 -115.5t-115.5 -279.5q0 -162 115.5 -277t279.5 -115z
M553 754h-145v532h229q89 0 154 -40.5t65 -127.5q0 -52 -29.5 -90.5t-76.5 -54.5l135 -219h-170l-103 196h-59v-196zM553 1167v-110h78q29 0 50 16.5t21 42.5q0 24 -21.5 37.5t-49.5 13.5h-78z" />
    <glyph glyph-name="macron" unicode="&#xaf;" horiz-adv-x="532" 
d="M594 1219h-655v159h655v-159z" />
    <glyph glyph-name="degree" unicode="&#xb0;" horiz-adv-x="819" 
d="M410 819q-135 0 -231.5 96.5t-96.5 231.5t96.5 231.5t231.5 96.5t231 -96.5t96 -231.5t-96 -231.5t-231 -96.5zM410 979q69 0 118.5 49.5t49.5 118.5t-49.5 118.5t-118.5 49.5t-118.5 -49.5t-49.5 -118.5t49.5 -118.5t118.5 -49.5z" />
    <glyph glyph-name="plusminus" unicode="&#xb1;" horiz-adv-x="1363" 
d="M782 381h-196v293h-422v209h422v293h196v-293h418v-209h-418v-293zM1200 66h-1036v208h1036v-208z" />
    <glyph glyph-name="two.sups" unicode="&#xb2;" horiz-adv-x="819" 
d="M711 918h-596v155l331 330q74 74 74 143q0 45 -30.5 73t-77.5 28q-52 0 -86 -38.5t-39 -99.5l-181 25q14 121 98.5 198.5t207.5 77.5q125 0 212 -69t87 -193q0 -77 -36.5 -137t-105.5 -127l-204 -199h346v-167z" />
    <glyph glyph-name="three.sups" unicode="&#xb3;" horiz-adv-x="819" 
d="M412 903q-119 0 -205.5 56t-124.5 174l174 51q18 -54 56 -86.5t94 -32.5q55 0 94 29t39 88q0 44 -30 71t-67.5 35t-83.5 8h-55v146h57q65 0 109.5 28t44.5 89q0 42 -29 67t-73 25q-48 0 -79 -30t-42 -79l-176 43q28 99 110 162t187 63q129 0 209.5 -61.5t80.5 -179.5
q0 -60 -29.5 -110t-80.5 -79v-2q64 -27 98.5 -79t34.5 -125q0 -54 -18 -99.5t-48.5 -76.5t-71 -53t-84.5 -32t-91 -10z" />
    <glyph glyph-name="acute" unicode="&#xb4;" horiz-adv-x="532" 
d="M362 1155h-192l203 295h280z" />
    <glyph glyph-name="uni00B5" unicode="&#xb5;" horiz-adv-x="1294" 
d="M1214 188l11 -190q-68 -16 -142 -16q-191 0 -213 170h-2q-37 -75 -109 -127t-163 -52q-62 0 -111 19.5t-71 52.5h-4v-530h-250v1476h250v-542q0 -46 5 -83t18 -73t34.5 -60t56.5 -38.5t82 -14.5q105 0 167.5 79.5t62.5 205.5v526h251v-731q0 -41 16 -60.5t56 -19.5
q31 0 55 8z" />
    <glyph glyph-name="paragraph" unicode="&#xb6;" horiz-adv-x="1228" 
d="M688 -258h-184v950q-197 0 -319 105t-122 268q0 198 127 291.5t351 93.5h551v-1708h-185v1561h-219v-1561z" />
    <glyph glyph-name="periodcentered" unicode="&#xb7;" horiz-adv-x="532" 
d="M266 440q-66 0 -115 45.5t-49 110.5q0 66 48 113t116 47q67 0 115.5 -45.5t48.5 -110.5q0 -66 -48 -113t-116 -47z" />
    <glyph glyph-name="cedilla" unicode="&#xb8;" horiz-adv-x="532" 
d="M248 -492q-126 0 -225 54l47 98q77 -41 168 -41q20 0 37.5 3.5t36.5 11.5t30.5 26t11.5 43q0 41 -33 57.5t-75 16.5q-39 0 -80 -13l-47 52l127 184h119l-93 -131q16 2 39 2q215 0 215 -170q0 -54 -25.5 -93t-68 -60t-88.5 -30.5t-96 -9.5z" />
    <glyph glyph-name="one.sups" unicode="&#xb9;" horiz-adv-x="819" 
d="M541 918h-193v649l-149 -125l-109 127l281 227h170v-878z" />
    <glyph glyph-name="ordmasculine" unicode="&#xba;" horiz-adv-x="778" 
d="M389 872q-135 0 -223 86t-88 218q0 133 88 218t223 85t223 -85t88 -218q0 -132 -88 -218t-223 -86zM389 1022q67 0 105 45t38 109q0 65 -37.5 109t-105.5 44q-67 0 -104 -44t-37 -109q0 -64 37 -109t104 -45z" />
    <glyph glyph-name="guillemotright" unicode="&#xbb;" horiz-adv-x="1062" 
d="M545 504l-312 -459l-153 105l235 354l-237 358l155 105zM1001 504l-311 -459l-153 105l235 354l-237 358l155 105z" />
    <glyph glyph-name="onequarter" unicode="&#xbc;" horiz-adv-x="1843" 
d="M381 12l852 1504l160 -78l-852 -1504zM537 571h-193v650l-149 -125l-109 127l281 227h170v-879zM1573 0h-176v174h-389v152l366 553h199v-543h119v-162h-119v-174zM1395 643l-197 -307h199v307h-2z" />
    <glyph glyph-name="onehalf" unicode="&#xbd;" horiz-adv-x="1843" 
d="M1233 1516l160 -78l-852 -1504l-160 78zM537 571h-193v650l-149 -125l-109 127l281 227h170v-879zM1720 0h-596v156l332 329q74 74 74 144q0 45 -31 72.5t-78 27.5q-52 0 -86 -38t-39 -99l-180 24q14 121 98 199t207 78q125 0 212 -69t87 -193q0 -77 -36.5 -137.5
t-104.5 -126.5l-205 -199h346v-168z" />
    <glyph glyph-name="threequarters" unicode="&#xbe;" horiz-adv-x="1843" 
d="M541 -66l-160 78l852 1504l160 -78zM412 557q-119 0 -205.5 55.5t-124.5 173.5l174 52q18 -54 56 -86.5t94 -32.5q55 0 94 29t39 88q0 44 -30 71t-67.5 35t-83.5 8h-55v146h57q65 0 109.5 27.5t44.5 88.5q0 42 -29 67.5t-73 25.5q-48 0 -79 -30t-42 -79l-176 43
q28 99 110 162t187 63q129 0 209.5 -61.5t80.5 -179.5q0 -59 -28.5 -109.5t-79.5 -79.5v-4q63 -25 97 -78t34 -125q0 -88 -47.5 -151.5t-116.5 -91t-149 -27.5zM1575 0h-176v174h-389v152l366 553h199v-543h119v-162h-119v-174zM1397 643l-197 -307h199v307h-2z" />
    <glyph glyph-name="questiondown" unicode="&#xbf;" horiz-adv-x="1062" 
d="M518 709q-67 0 -115.5 45t-48.5 110q0 66 48 113t116 47q66 0 115 -45.5t49 -110.5q0 -66 -48 -112.5t-116 -46.5zM496 -475q-120 0 -218 44t-158.5 135t-60.5 216q0 51 10 94.5t25 76t44 67.5t55 60.5t71 64.5q59 52 84 81.5t38 67.5t13 98v54h242v-78q0 -98 -29 -161.5
t-106 -137.5l-92 -88q-45 -42 -70 -84t-25 -98q0 -82 52 -135.5t141 -53.5q92 0 149 62.5t60 150.5l252 -22q-23 -192 -154 -303t-323 -111z" />
    <glyph glyph-name="Agrave" unicode="&#xc0;" horiz-adv-x="1445" 
d="M625 1860l202 -295h-192l-291 295h281zM614 1450h224l624 -1450h-295l-135 332h-629l-131 -332h-288zM719 1143l-227 -590h450z" />
    <glyph glyph-name="Aacute" unicode="&#xc1;" horiz-adv-x="1445" 
d="M819 1860h281l-291 -295h-193zM614 1450h224l624 -1450h-295l-135 332h-629l-131 -332h-288zM719 1143l-227 -590h450z" />
    <glyph glyph-name="Acircumflex" unicode="&#xc2;" horiz-adv-x="1445" 
d="M866 1565l-141 184l-141 -184h-230l236 295h276l234 -295h-234zM614 1450h224l624 -1450h-295l-135 332h-629l-131 -332h-288zM719 1143l-227 -590h450z" />
    <glyph glyph-name="Atilde" unicode="&#xc3;" horiz-adv-x="1445" 
d="M578 1661q-68 0 -95 -88h-135q10 54 25 96.5t40.5 81.5t67.5 60.5t97 21.5q70 0 161 -37q90 -39 133 -39q68 0 95 86h135q-10 -54 -25 -96.5t-40.5 -81.5t-67.5 -60.5t-97 -21.5q-76 0 -167 41q-79 37 -127 37zM614 1450h224l624 -1450h-295l-135 332h-629l-131 -332
h-288zM719 1143l-227 -590h450z" />
    <glyph glyph-name="Adieresis" unicode="&#xc4;" horiz-adv-x="1445" 
d="M526 1585q-62 0 -103.5 43t-41.5 101t41.5 100.5t103.5 42.5q63 0 106.5 -41t43.5 -102t-43.5 -102.5t-106.5 -41.5zM928 1585q-62 0 -104 43t-42 101t42 100.5t104 42.5q63 0 106 -41t43 -102t-43 -102.5t-106 -41.5zM614 1450h224l624 -1450h-295l-135 332h-629
l-131 -332h-288zM719 1143l-227 -590h450z" />
    <glyph glyph-name="Aring" unicode="&#xc5;" horiz-adv-x="1445" 
d="M723 1542q-91 0 -153 59t-62 148q0 91 61.5 151t153.5 60q91 0 153 -59.5t62 -149.5t-62 -149.5t-153 -59.5zM723 1868q-52 0 -86.5 -34t-34.5 -85q0 -49 35 -82t86 -33t86 33t35 84t-35 84t-86 33zM614 1450h224l624 -1450h-295l-135 332h-629l-131 -332h-288zM719 1143
l-227 -590h450z" />
    <glyph glyph-name="AE" unicode="&#xc6;" horiz-adv-x="2142" 
d="M301 0h-313l927 1450h1098v-225h-672v-369h635v-217h-635v-410h709v-229h-967v381h-548zM1053 1225l-383 -623h413v623h-30z" />
    <glyph glyph-name="Ccedilla" unicode="&#xc7;" horiz-adv-x="1425" 
d="M807 -492q-126 0 -225 54l47 98q77 -41 168 -41q20 0 37.5 3.5t36.5 11.5t30.5 26t11.5 43q0 41 -33 57.5t-75 16.5q-39 0 -80 -13l-47 52l104 151q-309 26 -500.5 235t-191.5 527q0 227 104 401t282 265.5t401 91.5q152 0 298 -56.5t228 -164.5l-197 -156
q-54 74 -144.5 112t-184.5 38q-221 0 -361.5 -152t-140.5 -379q0 -238 134 -386t357 -148q114 0 205 44.5t148 122.5l206 -145q-189 -240 -528 -252l-66 -96q16 2 39 2q215 0 215 -170q0 -54 -25.5 -93t-68 -60t-88.5 -30.5t-96 -9.5z" />
    <glyph glyph-name="Egrave" unicode="&#xc8;" horiz-adv-x="1249" 
d="M811 1565h-193l-290 295h280zM1157 0h-997v1450h960v-225h-702v-369h665v-217h-665v-410h739v-229z" />
    <glyph glyph-name="Eacute" unicode="&#xc9;" horiz-adv-x="1249" 
d="M711 1565h-193l203 295h280zM1157 0h-997v1450h960v-225h-702v-369h665v-217h-665v-410h739v-229z" />
    <glyph glyph-name="Ecircumflex" unicode="&#xca;" horiz-adv-x="1249" 
d="M506 1565h-230l236 295h276l234 -295h-234l-141 184zM1157 0h-997v1450h960v-225h-702v-369h665v-217h-665v-410h739v-229z" />
    <glyph glyph-name="Edieresis" unicode="&#xcb;" horiz-adv-x="1249" 
d="M449 1585q-62 0 -104 43t-42 101t42 100.5t104 42.5q63 0 106 -41t43 -102t-43 -102.5t-106 -41.5zM850 1585q-62 0 -103.5 43t-41.5 101t41.5 100.5t103.5 42.5q63 0 106 -41t43 -102t-43 -102.5t-106 -41.5zM1157 0h-997v1450h960v-225h-702v-369h665v-217h-665v-410
h739v-229z" />
    <glyph glyph-name="Igrave" unicode="&#xcc;" horiz-adv-x="577" 
d="M418 1565h-193l-291 295h281zM418 0h-258v1450h258v-1450z" />
    <glyph glyph-name="Iacute" unicode="&#xcd;" horiz-adv-x="577" 
d="M352 1565h-192l202 295h281zM418 0h-258v1450h258v-1450z" />
    <glyph glyph-name="Icircumflex" unicode="&#xce;" horiz-adv-x="577" 
d="M143 1565h-229l236 295h276l233 -295h-233l-141 184zM418 0h-258v1450h258v-1450z" />
    <glyph glyph-name="Idieresis" unicode="&#xcf;" horiz-adv-x="577" 
d="M86 1585q-62 0 -103.5 43t-41.5 101t41.5 100.5t103.5 42.5q63 0 106.5 -41t43.5 -102t-43.5 -102.5t-106.5 -41.5zM487 1585q-62 0 -103.5 43t-41.5 101t41.5 100.5t103.5 42.5q63 0 106.5 -41t43.5 -102t-43.5 -102.5t-106.5 -41.5zM418 0h-258v1450h258v-1450z" />
    <glyph glyph-name="Eth" unicode="&#xd0;" horiz-adv-x="1564" 
d="M702 0h-540v664h-135v172h135v614h571q116 0 223 -27.5t201 -86.5t163.5 -143t109.5 -204t40 -264q0 -143 -46.5 -265t-123.5 -205t-177.5 -142t-207 -86t-213.5 -27zM420 664v-431h192q125 0 229 28t186 85.5t127.5 154t45.5 224.5q0 129 -40.5 225t-114.5 153.5
t-171.5 85.5t-218.5 28h-235v-381h442v-172h-442z" />
    <glyph glyph-name="Ntilde" unicode="&#xd1;" horiz-adv-x="1597" 
d="M555 1573h-135q10 55 24.5 97t40 81t67.5 60.5t97 21.5q71 0 162 -37q90 -39 133 -39q67 0 94 86h136q-10 -54 -25 -96.5t-40.5 -81.5t-67.5 -60.5t-97 -21.5q-77 0 -168 41q-79 37 -127 37q-67 0 -94 -88zM418 0h-258v1450h342l674 -1085h4v1085h258v-1450h-328
l-688 1120h-4v-1120z" />
    <glyph glyph-name="Ograve" unicode="&#xd2;" horiz-adv-x="1738" 
d="M1014 1565h-193l-291 295h281zM866 -37q-165 0 -309 56.5t-246.5 156t-161.5 243t-59 310.5q0 228 101 401.5t276.5 265t398.5 91.5q226 0 403 -91.5t278.5 -265t101.5 -401.5q0 -223 -101 -398t-279.5 -271.5t-402.5 -96.5zM868 195q221 0 360.5 150.5t139.5 383.5
q0 228 -139 379.5t-361 151.5q-146 0 -260.5 -70.5t-175.5 -191t-61 -269.5q0 -233 138.5 -383.5t358.5 -150.5z" />
    <glyph glyph-name="Oacute" unicode="&#xd3;" horiz-adv-x="1738" 
d="M932 1565h-193l203 295h281zM866 -37q-165 0 -309 56.5t-246.5 156t-161.5 243t-59 310.5q0 228 101 401.5t276.5 265t398.5 91.5q226 0 403 -91.5t278.5 -265t101.5 -401.5q0 -223 -101 -398t-279.5 -271.5t-402.5 -96.5zM868 195q221 0 360.5 150.5t139.5 383.5
q0 228 -139 379.5t-361 151.5q-146 0 -260.5 -70.5t-175.5 -191t-61 -269.5q0 -233 138.5 -383.5t358.5 -150.5z" />
    <glyph glyph-name="Ocircumflex" unicode="&#xd4;" horiz-adv-x="1738" 
d="M735 1565h-229l235 295h277l233 -295h-233l-141 184zM866 -37q-165 0 -309 56.5t-246.5 156t-161.5 243t-59 310.5q0 228 101 401.5t276.5 265t398.5 91.5q226 0 403 -91.5t278.5 -265t101.5 -401.5q0 -223 -101 -398t-279.5 -271.5t-402.5 -96.5zM868 195
q221 0 360.5 150.5t139.5 383.5q0 228 -139 379.5t-361 151.5q-146 0 -260.5 -70.5t-175.5 -191t-61 -269.5q0 -233 138.5 -383.5t358.5 -150.5z" />
    <glyph glyph-name="Otilde" unicode="&#xd5;" horiz-adv-x="1738" 
d="M635 1573h-135q10 55 24.5 97t40 81t67.5 60.5t97 21.5q71 0 162 -37q90 -39 133 -39q67 0 94 86h135q-10 -55 -24.5 -97t-40 -81t-67.5 -60.5t-97 -21.5q-77 0 -168 41q-79 37 -127 37q-67 0 -94 -88zM866 -37q-165 0 -309 56.5t-246.5 156t-161.5 243t-59 310.5
q0 228 101 401.5t276.5 265t398.5 91.5q226 0 403 -91.5t278.5 -265t101.5 -401.5q0 -223 -101 -398t-279.5 -271.5t-402.5 -96.5zM868 195q221 0 360.5 150.5t139.5 383.5q0 228 -139 379.5t-361 151.5q-146 0 -260.5 -70.5t-175.5 -191t-61 -269.5q0 -233 138.5 -383.5
t358.5 -150.5z" />
    <glyph glyph-name="Odieresis" unicode="&#xd6;" horiz-adv-x="1738" 
d="M672 1585q-62 0 -104 43t-42 101t42 100.5t104 42.5q63 0 106 -41t43 -102t-43 -102.5t-106 -41.5zM1073 1585q-62 0 -103.5 43t-41.5 101t41.5 100.5t103.5 42.5q63 0 106.5 -41t43.5 -102t-43.5 -102.5t-106.5 -41.5zM866 -37q-165 0 -309 56.5t-246.5 156t-161.5 243
t-59 310.5q0 228 101 401.5t276.5 265t398.5 91.5q226 0 403 -91.5t278.5 -265t101.5 -401.5q0 -223 -101 -398t-279.5 -271.5t-402.5 -96.5zM868 195q221 0 360.5 150.5t139.5 383.5q0 228 -139 379.5t-361 151.5q-146 0 -260.5 -70.5t-175.5 -191t-61 -269.5
q0 -233 138.5 -383.5t358.5 -150.5z" />
    <glyph glyph-name="multiply" unicode="&#xd7;" horiz-adv-x="1363" 
d="M680 463l-371 -371l-151 150l379 372l-377 381l147 146l375 -375l373 373l143 -144l-371 -370l379 -381l-151 -152z" />
    <glyph glyph-name="Oslash" unicode="&#xd8;" horiz-adv-x="1738" 
d="M375 121l-174 -189l-103 88l178 193q-89 94 -137.5 227.5t-48.5 288.5q0 228 101 401.5t276.5 265t398.5 91.5q267 0 461 -127l174 190l101 -88l-170 -186q217 -211 217 -547q0 -223 -101 -396.5t-279 -269.5t-403 -100q-288 0 -491 158zM451 403l714 775
q-115 88 -297 88q-228 0 -369 -152.5t-141 -384.5q0 -196 93 -326zM868 188q225 0 368.5 152t143.5 389q0 220 -116 356l-721 -784q122 -113 325 -113z" />
    <glyph glyph-name="Ugrave" unicode="&#xd9;" horiz-adv-x="1462" 
d="M897 1565h-192l-291 295h280zM731 -37q-166 0 -298 68.5t-209 199t-77 301.5v918h259v-907q0 -67 16.5 -126t52.5 -110.5t101.5 -81.5t154.5 -30q72 0 129 20.5t93 53.5t60 79t34 94t10 101v907h258v-918q0 -171 -77 -301.5t-209 -199t-298 -68.5z" />
    <glyph glyph-name="Uacute" unicode="&#xda;" horiz-adv-x="1462" 
d="M788 1565h-192l203 295h280zM731 -37q-166 0 -298 68.5t-209 199t-77 301.5v918h259v-907q0 -67 16.5 -126t52.5 -110.5t101.5 -81.5t154.5 -30q72 0 129 20.5t93 53.5t60 79t34 94t10 101v907h258v-918q0 -171 -77 -301.5t-209 -199t-298 -68.5z" />
    <glyph glyph-name="Ucircumflex" unicode="&#xdb;" horiz-adv-x="1462" 
d="M592 1565h-230l236 295h276l234 -295h-234l-141 184zM731 -37q-166 0 -298 68.5t-209 199t-77 301.5v918h259v-907q0 -67 16.5 -126t52.5 -110.5t101.5 -81.5t154.5 -30q72 0 129 20.5t93 53.5t60 79t34 94t10 101v907h258v-918q0 -171 -77 -301.5t-209 -199t-298 -68.5z
" />
    <glyph glyph-name="Udieresis" unicode="&#xdc;" horiz-adv-x="1462" 
d="M532 1585q-62 0 -103.5 43t-41.5 101t41.5 100.5t103.5 42.5q63 0 106.5 -41t43.5 -102t-43.5 -102.5t-106.5 -41.5zM934 1585q-62 0 -104 43t-42 101t42 100.5t104 42.5q63 0 106 -41t43 -102t-43 -102.5t-106 -41.5zM731 -37q-166 0 -298 68.5t-209 199t-77 301.5v918
h259v-907q0 -67 16.5 -126t52.5 -110.5t101.5 -81.5t154.5 -30q72 0 129 20.5t93 53.5t60 79t34 94t10 101v907h258v-918q0 -171 -77 -301.5t-209 -199t-298 -68.5z" />
    <glyph glyph-name="Yacute" unicode="&#xdd;" horiz-adv-x="1273" 
d="M748 1860h280l-291 -295h-192zM645 840l369 610h299l-545 -821v-629h-258v629l-545 821h316z" />
    <glyph glyph-name="Thorn" unicode="&#xde;" horiz-adv-x="1249" 
d="M418 0h-258v1450h258v-274h215q547 0 547 -420q0 -116 -44 -201t-123.5 -134t-178 -72t-218.5 -23h-198v-326zM418 958v-415h180q322 0 322 213q0 50 -18 87t-46 58.5t-70.5 34.5t-84.5 17.5t-95 4.5h-188z" />
    <glyph glyph-name="germandbls" unicode="&#xdf;" horiz-adv-x="1284" 
d="M696 -25q-87 0 -178 23v207q65 -21 144 -21q130 0 209 76.5t79 206.5q0 138 -88.5 208t-226.5 70h-27v209h31q91 0 147 54t56 143q0 84 -53 145.5t-152 61.5q-57 0 -101 -21t-70.5 -53.5t-43.5 -77.5t-23 -88.5t-6 -91.5v-1026h-246v1038q0 87 17.5 164.5t56 146
t95.5 118t142 78t189 28.5q192 0 315 -114t123 -285q0 -106 -62.5 -193.5t-156.5 -112.5v-4q155 -26 245.5 -137.5t90.5 -271.5q0 -213 -137.5 -346.5t-368.5 -133.5z" />
    <glyph glyph-name="agrave" unicode="&#xe0;" horiz-adv-x="1126" 
d="M688 1155h-192l-291 295h280zM446 -25q-50 0 -99 9.5t-98.5 32.5t-86.5 57t-60.5 87.5t-23.5 119.5q0 61 21.5 110t57.5 83t89.5 60t109.5 41t126.5 24t132 12t133.5 3h6v25q0 87 -64 133.5t-162 46.5q-75 0 -147 -31.5t-121 -80.5l-127 149q82 75 191.5 115.5
t224.5 40.5q102 0 180.5 -24.5t126 -64t78 -95t42 -111.5t11.5 -119v-436v-162h-229v125h-6q-38 -66 -121 -108t-185 -42zM496 162q124 0 191 67t67 185v35h-56q-374 0 -374 -164q0 -65 49.5 -94t122.5 -29z" />
    <glyph glyph-name="aacute" unicode="&#xe1;" horiz-adv-x="1126" 
d="M592 1155h-193l203 295h281zM446 -25q-50 0 -99 9.5t-98.5 32.5t-86.5 57t-60.5 87.5t-23.5 119.5q0 61 21.5 110t57.5 83t89.5 60t109.5 41t126.5 24t132 12t133.5 3h6v25q0 87 -64 133.5t-162 46.5q-75 0 -147 -31.5t-121 -80.5l-127 149q82 75 191.5 115.5t224.5 40.5
q102 0 180.5 -24.5t126 -64t78 -95t42 -111.5t11.5 -119v-436v-162h-229v125h-6q-38 -66 -121 -108t-185 -42zM496 162q124 0 191 67t67 185v35h-56q-374 0 -374 -164q0 -65 49.5 -94t122.5 -29z" />
    <glyph glyph-name="acircumflex" unicode="&#xe2;" horiz-adv-x="1126" 
d="M418 1155h-230l236 295h276l234 -295h-234l-141 184zM446 -25q-50 0 -99 9.5t-98.5 32.5t-86.5 57t-60.5 87.5t-23.5 119.5q0 61 21.5 110t57.5 83t89.5 60t109.5 41t126.5 24t132 12t133.5 3h6v25q0 87 -64 133.5t-162 46.5q-75 0 -147 -31.5t-121 -80.5l-127 149
q82 75 191.5 115.5t224.5 40.5q102 0 180.5 -24.5t126 -64t78 -95t42 -111.5t11.5 -119v-436v-162h-229v125h-6q-38 -66 -121 -108t-185 -42zM496 162q124 0 191 67t67 185v35h-56q-374 0 -374 -164q0 -65 49.5 -94t122.5 -29z" />
    <glyph glyph-name="atilde" unicode="&#xe3;" horiz-adv-x="1126" 
d="M313 1163h-135q10 54 25 96.5t40.5 81.5t67.5 60.5t97 21.5q70 0 161 -37q88 -38 133 -38q68 0 95 86h135q-10 -54 -25 -96.5t-40.5 -81.5t-67.5 -60.5t-97 -21.5q-78 0 -167 40q-79 37 -127 37q-68 0 -95 -88zM446 -25q-50 0 -99 9.5t-98.5 32.5t-86.5 57t-60.5 87.5
t-23.5 119.5q0 61 21.5 110t57.5 83t89.5 60t109.5 41t126.5 24t132 12t133.5 3h6v25q0 87 -64 133.5t-162 46.5q-75 0 -147 -31.5t-121 -80.5l-127 149q82 75 191.5 115.5t224.5 40.5q102 0 180.5 -24.5t126 -64t78 -95t42 -111.5t11.5 -119v-436v-162h-229v125h-6
q-38 -66 -121 -108t-185 -42zM496 162q124 0 191 67t67 185v35h-56q-374 0 -374 -164q0 -65 49.5 -94t122.5 -29z" />
    <glyph glyph-name="adieresis" unicode="&#xe4;" horiz-adv-x="1126" 
d="M356 1176q-62 0 -103.5 42.5t-41.5 100.5t41.5 100.5t103.5 42.5q63 0 106.5 -41t43.5 -102t-43.5 -102t-106.5 -41zM758 1176q-62 0 -104 42.5t-42 100.5t42 100.5t104 42.5q63 0 106 -41t43 -102t-43 -102t-106 -41zM446 -25q-50 0 -99 9.5t-98.5 32.5t-86.5 57
t-60.5 87.5t-23.5 119.5q0 61 21.5 110t57.5 83t89.5 60t109.5 41t126.5 24t132 12t133.5 3h6v25q0 87 -64 133.5t-162 46.5q-75 0 -147 -31.5t-121 -80.5l-127 149q82 75 191.5 115.5t224.5 40.5q102 0 180.5 -24.5t126 -64t78 -95t42 -111.5t11.5 -119v-436v-162h-229v125
h-6q-38 -66 -121 -108t-185 -42zM496 162q124 0 191 67t67 185v35h-56q-374 0 -374 -164q0 -65 49.5 -94t122.5 -29z" />
    <glyph glyph-name="aring" unicode="&#xe5;" horiz-adv-x="1126" 
d="M551 1133q-91 0 -153 58.5t-62 147.5q0 91 61.5 151t153.5 60q91 0 153 -59.5t62 -149.5t-62 -149t-153 -59zM551 1225q52 0 86.5 32.5t34.5 83.5t-35 84t-86 33q-52 0 -86.5 -34t-34.5 -85q0 -49 35 -81.5t86 -32.5zM446 -25q-50 0 -99 9.5t-98.5 32.5t-86.5 57
t-60.5 87.5t-23.5 119.5q0 61 21.5 110t57.5 83t89.5 60t109.5 41t126.5 24t132 12t133.5 3h6v25q0 87 -64 133.5t-162 46.5q-75 0 -147 -31.5t-121 -80.5l-127 149q82 75 191.5 115.5t224.5 40.5q102 0 180.5 -24.5t126 -64t78 -95t42 -111.5t11.5 -119v-436v-162h-229v125
h-6q-38 -66 -121 -108t-185 -42zM496 162q124 0 191 67t67 185v35h-56q-374 0 -374 -164q0 -65 49.5 -94t122.5 -29z" />
    <glyph glyph-name="ae" unicode="&#xe6;" horiz-adv-x="1816" 
d="M457 -25q-66 0 -130 17.5t-121 52.5t-92.5 96.5t-35.5 139.5q0 57 19 102.5t50.5 77.5t81.5 55.5t103.5 37.5t125.5 22t139 11t151 3h6v20q0 106 -59 157.5t-165 51.5q-72 0 -147 -32t-123 -80l-125 149q80 75 189.5 115.5t224.5 40.5q119 0 204.5 -48t129.5 -120
q57 77 151 122.5t217 45.5q213 0 344 -138t131 -395q0 -42 -2 -65h-747q12 -106 92 -174t188 -68q170 0 261 129l161 -133q-144 -197 -422 -197q-131 0 -230.5 51t-158.5 146q-104 -193 -411 -193zM977 590h504q0 102 -59 169.5t-173 67.5q-109 0 -187 -67.5t-85 -169.5z
M496 162q125 0 191.5 57.5t66.5 161.5v33h-56q-75 0 -128 -2.5t-102.5 -11t-79 -22.5t-47 -37t-17.5 -56q0 -65 49.5 -94t122.5 -29z" />
    <glyph glyph-name="ccedilla" unicode="&#xe7;" horiz-adv-x="999" 
d="M551 -492q-126 0 -225 54l47 98q77 -41 168 -41q20 0 37.5 3.5t36.5 11.5t30.5 26t11.5 43q0 41 -33 57.5t-75 16.5q-39 0 -80 -13l-47 52l110 161q-194 27 -318 163.5t-124 351.5q0 155 71.5 275t190.5 182.5t264 62.5q109 0 211 -41.5t160 -112.5l-168 -147
q-29 42 -86 69t-117 27q-86 0 -149 -47.5t-92 -117.5t-29 -150t30 -150.5t95 -118t154 -47.5q59 0 115.5 23t90.5 65l154 -155q-58 -62 -146.5 -97.5t-191.5 -40.5l-72 -102q16 2 39 2q215 0 215 -170q0 -54 -25.5 -93t-68 -60t-88.5 -30.5t-96 -9.5z" />
    <glyph glyph-name="egrave" unicode="&#xe8;" horiz-adv-x="1175" 
d="M737 1155h-192l-291 295h281zM618 -29q-232 0 -380 139.5t-148 374.5t147 381t373 146q213 0 344 -138t131 -395q0 -42 -2 -65h-747q7 -103 89 -172.5t191 -69.5q171 0 261 127l163 -131q-144 -197 -422 -197zM336 590h504q0 102 -59 169.5t-173 67.5q-109 0 -187 -67.5
t-85 -169.5z" />
    <glyph glyph-name="eacute" unicode="&#xe9;" horiz-adv-x="1175" 
d="M666 1155h-193l203 295h280zM618 -29q-232 0 -380 139.5t-148 374.5t147 381t373 146q213 0 344 -138t131 -395q0 -42 -2 -65h-747q7 -103 89 -172.5t191 -69.5q171 0 261 127l163 -131q-144 -197 -422 -197zM336 590h504q0 102 -59 169.5t-173 67.5q-109 0 -187 -67.5
t-85 -169.5z" />
    <glyph glyph-name="ecircumflex" unicode="&#xea;" horiz-adv-x="1175" 
d="M475 1155h-229l235 295h277l233 -295h-233l-142 184zM618 -29q-232 0 -380 139.5t-148 374.5t147 381t373 146q213 0 344 -138t131 -395q0 -42 -2 -65h-747q7 -103 89 -172.5t191 -69.5q171 0 261 127l163 -131q-144 -197 -422 -197zM336 590h504q0 102 -59 169.5
t-173 67.5q-109 0 -187 -67.5t-85 -169.5z" />
    <glyph glyph-name="edieresis" unicode="&#xeb;" horiz-adv-x="1175" 
d="M412 1176q-62 0 -104 42.5t-42 100.5t42 100.5t104 42.5q63 0 106 -41t43 -102t-43 -102t-106 -41zM813 1176q-62 0 -103.5 42.5t-41.5 100.5t41.5 100.5t103.5 42.5q63 0 106.5 -41t43.5 -102t-43.5 -102t-106.5 -41zM618 -29q-232 0 -380 139.5t-148 374.5t147 381
t373 146q213 0 344 -138t131 -395q0 -42 -2 -65h-747q7 -103 89 -172.5t191 -69.5q171 0 261 127l163 -131q-144 -197 -422 -197zM336 590h504q0 102 -59 169.5t-173 67.5q-109 0 -187 -67.5t-85 -169.5z" />
    <glyph glyph-name="igrave" unicode="&#xec;" horiz-adv-x="548" 
d="M397 1155h-192l-291 295h281zM397 0h-245v991h245v-991z" />
    <glyph glyph-name="iacute" unicode="&#xed;" horiz-adv-x="548" 
d="M346 1155h-192l202 295h281zM397 0h-245v991h245v-991z" />
    <glyph glyph-name="icircumflex" unicode="&#xee;" horiz-adv-x="548" 
d="M133 1155h-229l235 295h277l233 -295h-233l-142 184zM397 0h-245v991h245v-991z" />
    <glyph glyph-name="idieresis" unicode="&#xef;" horiz-adv-x="548" 
d="M74 1176q-62 0 -104 42.5t-42 100.5t42 100.5t104 42.5q63 0 106 -41t43 -102t-43 -102t-106 -41zM475 1176q-62 0 -103.5 42.5t-41.5 100.5t41.5 100.5t103.5 42.5q63 0 106.5 -41t43.5 -102t-43.5 -102t-106.5 -41zM397 0h-245v991h245v-991z" />
    <glyph glyph-name="eth" unicode="&#xf0;" horiz-adv-x="1249" 
d="M625 -29q-230 0 -382.5 146t-152.5 375q0 151 70.5 271t188.5 184.5t259 64.5q145 0 230 -82l4 4q-132 212 -260 319l-222 -102l-122 117l225 102q-41 44 -160 133l193 113q88 -68 178 -152l231 109l131 -115l-239 -110q364 -397 364 -791q0 -170 -59.5 -300.5
t-182.5 -208t-294 -77.5zM625 176q71 0 127.5 27.5t90.5 73t52 101t18 114.5q0 127 -75 221t-213 94q-93 0 -160.5 -47.5t-98 -117.5t-30.5 -150q0 -59 18 -114.5t52.5 -101t91.5 -73t127 -27.5z" />
    <glyph glyph-name="ntilde" unicode="&#xf1;" horiz-adv-x="1191" 
d="M358 1163h-135q10 54 25 96.5t40.5 81.5t67.5 60.5t97 21.5q70 0 161 -37q88 -38 134 -38q67 0 94 86h135q-10 -55 -24.5 -97t-40 -81t-67.5 -60.5t-97 -21.5q-79 0 -168 40q-79 37 -127 37q-68 0 -95 -88zM393 0h-246v776v215h234v-157h4q34 78 117.5 132t187.5 54
q92 0 164 -33.5t114 -90t63.5 -126t21.5 -147.5v-623h-246v553q0 262 -184 262q-74 0 -128 -40t-78 -99t-24 -127v-549z" />
    <glyph glyph-name="ograve" unicode="&#xf2;" horiz-adv-x="1249" 
d="M778 1155h-192l-291 295h280zM625 -29q-148 0 -270 66t-193.5 187t-71.5 272t72 270t193.5 182.5t269.5 63.5t269.5 -64t193 -182.5t71.5 -269.5t-71.5 -272t-193 -187t-269.5 -66zM625 176q70 0 126 28t89.5 74.5t51 102t17.5 115.5q0 59 -17.5 114t-51 100.5t-89.5 73
t-126 27.5q-93 0 -159.5 -47.5t-96 -117t-29.5 -150.5q0 -60 17.5 -115.5t51.5 -102t90 -74.5t126 -28z" />
    <glyph glyph-name="oacute" unicode="&#xf3;" horiz-adv-x="1249" 
d="M670 1155h-193l203 295h281zM625 -29q-148 0 -270 66t-193.5 187t-71.5 272t72 270t193.5 182.5t269.5 63.5t269.5 -64t193 -182.5t71.5 -269.5t-71.5 -272t-193 -187t-269.5 -66zM625 176q70 0 126 28t89.5 74.5t51 102t17.5 115.5q0 59 -17.5 114t-51 100.5t-89.5 73
t-126 27.5q-93 0 -159.5 -47.5t-96 -117t-29.5 -150.5q0 -60 17.5 -115.5t51.5 -102t90 -74.5t126 -28z" />
    <glyph glyph-name="ocircumflex" unicode="&#xf4;" horiz-adv-x="1249" 
d="M485 1155h-229l236 295h276l233 -295h-233l-141 184zM625 -29q-148 0 -270 66t-193.5 187t-71.5 272t72 270t193.5 182.5t269.5 63.5t269.5 -64t193 -182.5t71.5 -269.5t-71.5 -272t-193 -187t-269.5 -66zM625 176q70 0 126 28t89.5 74.5t51 102t17.5 115.5
q0 59 -17.5 114t-51 100.5t-89.5 73t-126 27.5q-93 0 -159.5 -47.5t-96 -117t-29.5 -150.5q0 -60 17.5 -115.5t51.5 -102t90 -74.5t126 -28z" />
    <glyph glyph-name="otilde" unicode="&#xf5;" horiz-adv-x="1249" 
d="M387 1163h-135q10 55 24.5 97t40 81t67.5 60.5t97 21.5q71 0 162 -37q88 -38 133 -38q67 0 94 86h136q-10 -54 -25 -96.5t-40.5 -81.5t-67.5 -60.5t-97 -21.5q-79 0 -168 40q-79 37 -127 37q-67 0 -94 -88zM625 -29q-148 0 -270 66t-193.5 187t-71.5 272t72 270
t193.5 182.5t269.5 63.5t269.5 -64t193 -182.5t71.5 -269.5t-71.5 -272t-193 -187t-269.5 -66zM625 176q70 0 126 28t89.5 74.5t51 102t17.5 115.5q0 59 -17.5 114t-51 100.5t-89.5 73t-126 27.5q-93 0 -159.5 -47.5t-96 -117t-29.5 -150.5q0 -60 17.5 -115.5t51.5 -102
t90 -74.5t126 -28z" />
    <glyph glyph-name="odieresis" unicode="&#xf6;" horiz-adv-x="1249" 
d="M426 1176q-62 0 -103.5 42.5t-41.5 100.5t41.5 100.5t103.5 42.5q63 0 106 -41t43 -102t-43 -102t-106 -41zM827 1176q-62 0 -103.5 42.5t-41.5 100.5t41.5 100.5t103.5 42.5q63 0 106.5 -41t43.5 -102t-43.5 -102t-106.5 -41zM625 -29q-148 0 -270 66t-193.5 187
t-71.5 272t72 270t193.5 182.5t269.5 63.5t269.5 -64t193 -182.5t71.5 -269.5t-71.5 -272t-193 -187t-269.5 -66zM625 176q70 0 126 28t89.5 74.5t51 102t17.5 115.5q0 59 -17.5 114t-51 100.5t-89.5 73t-126 27.5q-93 0 -159.5 -47.5t-96 -117t-29.5 -150.5
q0 -60 17.5 -115.5t51.5 -102t90 -74.5t126 -28z" />
    <glyph glyph-name="divide" unicode="&#xf7;" horiz-adv-x="1363" 
d="M682 836q-63 0 -108.5 45t-45.5 108t45.5 108.5t108.5 45.5t108.5 -45.5t45.5 -108.5t-45.5 -108t-108.5 -45zM1200 512h-1036v219h1036v-219zM682 98q-63 0 -108.5 45.5t-45.5 108.5t45.5 108.5t108.5 45.5t108.5 -45.5t45.5 -108.5t-45.5 -108.5t-108.5 -45.5z" />
    <glyph glyph-name="oslash" unicode="&#xf8;" horiz-adv-x="1249" 
d="M299 76l-143 -146l-82 84l137 140q-121 137 -121 338q0 228 154.5 374t380.5 146q192 0 323 -103l144 148l86 -82l-142 -146q123 -142 123 -337q0 -228 -154 -374.5t-380 -146.5q-193 0 -326 105zM377 319l424 437q-73 63 -176 63q-72 0 -130 -29.5t-92.5 -78
t-52.5 -105.5t-18 -117q0 -110 45 -170zM625 170q75 0 133.5 29t92 77t50.5 104t17 116q0 104 -44 172l-428 -435q66 -63 179 -63z" />
    <glyph glyph-name="ugrave" unicode="&#xf9;" horiz-adv-x="1191" 
d="M745 1155h-192l-291 295h281zM502 -29q-92 0 -164 33.5t-114 90.5t-63.5 126.5t-21.5 147.5v622h246v-553q0 -262 184 -262q74 0 128 40t78 99t24 127v549h245v-819v-172h-233v158h-4q-34 -78 -117.5 -132.5t-187.5 -54.5z" />
    <glyph glyph-name="uacute" unicode="&#xfa;" horiz-adv-x="1191" 
d="M653 1155h-192l203 295h280zM502 -29q-92 0 -164 33.5t-114 90.5t-63.5 126.5t-21.5 147.5v622h246v-553q0 -262 184 -262q74 0 128 40t78 99t24 127v549h245v-819v-172h-233v158h-4q-34 -78 -117.5 -132.5t-187.5 -54.5z" />
    <glyph glyph-name="ucircumflex" unicode="&#xfb;" horiz-adv-x="1191" 
d="M457 1155h-230l236 295h276l234 -295h-234l-141 184zM502 -29q-92 0 -164 33.5t-114 90.5t-63.5 126.5t-21.5 147.5v622h246v-553q0 -262 184 -262q74 0 128 40t78 99t24 127v549h245v-819v-172h-233v158h-4q-34 -78 -117.5 -132.5t-187.5 -54.5z" />
    <glyph glyph-name="udieresis" unicode="&#xfc;" horiz-adv-x="1191" 
d="M395 1176q-62 0 -103.5 42.5t-41.5 100.5t41.5 100.5t103.5 42.5q63 0 106.5 -41t43.5 -102t-43.5 -102t-106.5 -41zM797 1176q-62 0 -104 42.5t-42 100.5t42 100.5t104 42.5q63 0 106 -41t43 -102t-43 -102t-106 -41zM502 -29q-92 0 -164 33.5t-114 90.5t-63.5 126.5
t-21.5 147.5v622h246v-553q0 -262 184 -262q74 0 128 40t78 99t24 127v549h245v-819v-172h-233v158h-4q-34 -78 -117.5 -132.5t-187.5 -54.5z" />
    <glyph glyph-name="yacute" unicode="&#xfd;" horiz-adv-x="1050" 
d="M612 1155h-192l203 295h280zM213 -492q-63 0 -127 15l20 213q50 -15 93 -15q50 0 83 19t50.5 48t40.5 87l49 125l-422 991h272l275 -723h4l244 723h256l-465 -1202q-28 -71 -58 -119.5t-73 -87t-102.5 -56.5t-139.5 -18z" />
    <glyph glyph-name="thorn" unicode="&#xfe;" horiz-adv-x="1300" 
d="M397 -467h-245v2015h245v-686h6q122 158 330 158q138 0 247.5 -68.5t169.5 -187.5t60 -264t-57.5 -264.5t-169 -192t-256.5 -72.5q-104 0 -194.5 45t-131.5 119h-4v-602zM678 176q68 0 123.5 28.5t89.5 75.5t52 103.5t18 116.5q0 81 -30 152t-96 119t-157 48
q-128 0 -208.5 -99t-80.5 -224q0 -80 34 -152t101.5 -120t153.5 -48z" />
    <glyph glyph-name="ydieresis" unicode="&#xff;" horiz-adv-x="1050" 
d="M346 1176q-62 0 -103.5 42.5t-41.5 100.5t41.5 100.5t103.5 42.5q63 0 106.5 -41t43.5 -102t-43.5 -102t-106.5 -41zM748 1176q-62 0 -104 42.5t-42 100.5t42 100.5t104 42.5q63 0 106 -41t43 -102t-43 -102t-106 -41zM213 -492q-63 0 -127 15l20 213q50 -15 93 -15
q50 0 83 19t50.5 48t40.5 87l49 125l-422 991h272l275 -723h4l244 723h256l-465 -1202q-28 -71 -58 -119.5t-73 -87t-102.5 -56.5t-139.5 -18z" />
    <glyph glyph-name="Amacron" unicode="&#x100;" horiz-adv-x="1445" 
d="M399 1788h656v-160h-656v160zM614 1450h224l624 -1450h-295l-135 332h-629l-131 -332h-288zM719 1143l-227 -590h450z" />
    <glyph glyph-name="amacron" unicode="&#x101;" horiz-adv-x="1126" 
d="M909 1219h-655v159h655v-159zM446 -25q-50 0 -99 9.5t-98.5 32.5t-86.5 57t-60.5 87.5t-23.5 119.5q0 61 21.5 110t57.5 83t89.5 60t109.5 41t126.5 24t132 12t133.5 3h6v25q0 87 -64 133.5t-162 46.5q-75 0 -147 -31.5t-121 -80.5l-127 149q82 75 191.5 115.5
t224.5 40.5q102 0 180.5 -24.5t126 -64t78 -95t42 -111.5t11.5 -119v-436v-162h-229v125h-6q-38 -66 -121 -108t-185 -42zM496 162q124 0 191 67t67 185v35h-56q-374 0 -374 -164q0 -65 49.5 -94t122.5 -29z" />
    <glyph glyph-name="Abreve" unicode="&#x102;" horiz-adv-x="1445" 
d="M723 1565q-153 0 -245 73.5t-101 221.5h137q24 -136 211 -136q95 0 143.5 27.5t69.5 108.5h135q-15 -147 -107 -221t-243 -74zM614 1450h224l624 -1450h-295l-135 332h-629l-131 -332h-288zM719 1143l-227 -590h450z" />
    <glyph glyph-name="abreve" unicode="&#x103;" horiz-adv-x="1126" 
d="M569 1155q-153 0 -245 73.5t-101 221.5h137q24 -135 211 -135q95 0 144 27t69 108h136q-15 -147 -107.5 -221t-243.5 -74zM446 -25q-50 0 -99 9.5t-98.5 32.5t-86.5 57t-60.5 87.5t-23.5 119.5q0 61 21.5 110t57.5 83t89.5 60t109.5 41t126.5 24t132 12t133.5 3h6v25
q0 87 -64 133.5t-162 46.5q-75 0 -147 -31.5t-121 -80.5l-127 149q82 75 191.5 115.5t224.5 40.5q102 0 180.5 -24.5t126 -64t78 -95t42 -111.5t11.5 -119v-436v-162h-229v125h-6q-38 -66 -121 -108t-185 -42zM496 162q124 0 191 67t67 185v35h-56q-374 0 -374 -164
q0 -65 49.5 -94t122.5 -29z" />
    <glyph glyph-name="Aogonek" unicode="&#x104;" horiz-adv-x="1445" 
d="M1270 -326q61 0 110 43l54 -108q-99 -78 -211 -78q-85 0 -148 48t-63 134q0 142 192 287h-37l-135 332h-629l-131 -332h-288l630 1450h224l624 -1450h-112q-82 -75 -125 -132.5t-43 -109.5q0 -35 26 -59.5t62 -24.5zM719 1143l-227 -590h450z" />
    <glyph glyph-name="aogonek" unicode="&#x105;" horiz-adv-x="1126" 
d="M1030 -283l53 -108q-99 -78 -211 -78q-85 0 -147.5 48t-62.5 134q0 142 192 287h-96v125h-6q-38 -66 -121 -108t-185 -42q-50 0 -99 9.5t-98.5 32.5t-86.5 57t-60.5 87.5t-23.5 119.5q0 61 21.5 110t57.5 83t89.5 60t109.5 41t126.5 24t132 12t133.5 3h6v25
q0 87 -64 133.5t-162 46.5q-75 0 -147 -31.5t-121 -80.5l-127 149q82 75 191.5 115.5t224.5 40.5q102 0 180.5 -24.5t126 -64t78 -95t42 -111.5t11.5 -119v-436v-162h12q-82 -75 -125 -132.5t-43 -109.5q0 -35 26.5 -59.5t62.5 -24.5q61 0 110 43zM754 414v35h-56
q-374 0 -374 -164q0 -65 49.5 -94t122.5 -29q124 0 191 67t67 185z" />
    <glyph glyph-name="Cacute" unicode="&#x106;" horiz-adv-x="1425" 
d="M868 1565h-192l203 295h280zM864 -37q-224 0 -400.5 96.5t-275 271t-98.5 398.5q0 227 104 401t282 265.5t401 91.5q152 0 298 -56.5t228 -164.5l-197 -156q-54 74 -144.5 112t-184.5 38q-221 0 -361.5 -152t-140.5 -379q0 -238 134 -386t357 -148q114 0 205 44.5
t148 122.5l206 -145q-202 -254 -561 -254z" />
    <glyph glyph-name="cacute" unicode="&#x107;" horiz-adv-x="999" 
d="M662 1155h-193l203 295h280zM623 -29q-109 0 -206 36t-169.5 101t-115 164.5t-42.5 219.5q0 155 71.5 275t190.5 182.5t264 62.5q109 0 211 -41.5t160 -112.5l-168 -147q-29 42 -86 69t-117 27q-86 0 -149 -47.5t-92 -117.5t-29 -150t30 -150.5t95 -118t154 -47.5
q59 0 115.5 23t90.5 65l154 -155q-61 -66 -157 -102t-205 -36z" />
    <glyph glyph-name="Ccircumflex" unicode="&#x108;" horiz-adv-x="1425" 
d="M735 1565h-229l235 295h277l233 -295h-233l-141 184zM864 -37q-224 0 -400.5 96.5t-275 271t-98.5 398.5q0 227 104 401t282 265.5t401 91.5q152 0 298 -56.5t228 -164.5l-197 -156q-54 74 -144.5 112t-184.5 38q-221 0 -361.5 -152t-140.5 -379q0 -238 134 -386
t357 -148q114 0 205 44.5t148 122.5l206 -145q-202 -254 -561 -254z" />
    <glyph glyph-name="ccircumflex" unicode="&#x109;" horiz-adv-x="999" 
d="M473 1155h-229l235 295h277l233 -295h-233l-142 184zM623 -29q-109 0 -206 36t-169.5 101t-115 164.5t-42.5 219.5q0 155 71.5 275t190.5 182.5t264 62.5q109 0 211 -41.5t160 -112.5l-168 -147q-29 42 -86 69t-117 27q-86 0 -149 -47.5t-92 -117.5t-29 -150t30 -150.5
t95 -118t154 -47.5q59 0 115.5 23t90.5 65l154 -155q-61 -66 -157 -102t-205 -36z" />
    <glyph glyph-name="Cdotaccent" unicode="&#x10a;" horiz-adv-x="1425" 
d="M870 1579q-66 0 -110.5 43.5t-44.5 103.5t44.5 104t110.5 44q68 0 114 -42.5t46 -105.5t-46 -105t-114 -42zM864 -37q-224 0 -400.5 96.5t-275 271t-98.5 398.5q0 227 104 401t282 265.5t401 91.5q152 0 298 -56.5t228 -164.5l-197 -156q-54 74 -144.5 112t-184.5 38
q-221 0 -361.5 -152t-140.5 -379q0 -238 134 -386t357 -148q114 0 205 44.5t148 122.5l206 -145q-202 -254 -561 -254z" />
    <glyph glyph-name="cdotaccent" unicode="&#x10b;" horiz-adv-x="999" 
d="M610 1169q-66 0 -110.5 44t-44.5 104t44.5 103.5t110.5 43.5q68 0 114 -42t46 -105t-46 -105.5t-114 -42.5zM623 -29q-109 0 -206 36t-169.5 101t-115 164.5t-42.5 219.5q0 155 71.5 275t190.5 182.5t264 62.5q109 0 211 -41.5t160 -112.5l-168 -147q-29 42 -86 69
t-117 27q-86 0 -149 -47.5t-92 -117.5t-29 -150t30 -150.5t95 -118t154 -47.5q59 0 115.5 23t90.5 65l154 -155q-61 -66 -157 -102t-205 -36z" />
    <glyph glyph-name="Ccaron" unicode="&#x10c;" horiz-adv-x="1425" 
d="M1004 1565h-273l-233 295h233l141 -185l142 185h225zM864 -37q-224 0 -400.5 96.5t-275 271t-98.5 398.5q0 227 104 401t282 265.5t401 91.5q152 0 298 -56.5t228 -164.5l-197 -156q-54 74 -144.5 112t-184.5 38q-221 0 -361.5 -152t-140.5 -379q0 -238 134 -386
t357 -148q114 0 205 44.5t148 122.5l206 -145q-202 -254 -561 -254z" />
    <glyph glyph-name="ccaron" unicode="&#x10d;" horiz-adv-x="999" 
d="M754 1155h-273l-233 295h233l142 -184l141 184h225zM623 -29q-109 0 -206 36t-169.5 101t-115 164.5t-42.5 219.5q0 155 71.5 275t190.5 182.5t264 62.5q109 0 211 -41.5t160 -112.5l-168 -147q-29 42 -86 69t-117 27q-86 0 -149 -47.5t-92 -117.5t-29 -150t30 -150.5
t95 -118t154 -47.5q59 0 115.5 23t90.5 65l154 -155q-61 -66 -157 -102t-205 -36z" />
    <glyph glyph-name="Dcaron" unicode="&#x10e;" horiz-adv-x="1564" 
d="M840 1565h-273l-233 295h233l142 -185l141 185h225zM674 0h-514v1450h514q119 0 229 -22.5t216 -76.5t183.5 -135t125 -207t47.5 -284q0 -106 -24.5 -200t-68 -166.5t-103.5 -132t-130.5 -101t-150 -70t-160.5 -42t-164 -13.5zM418 1229v-1004h215q85 0 161.5 14t152 50
t130 91t88 143.5t33.5 201.5q0 120 -34 211.5t-87.5 146t-130.5 88.5t-151.5 46t-161.5 12h-215z" />
    <glyph glyph-name="dcaron" unicode="&#x10f;" horiz-adv-x="1474" 
d="M571 -29q-145 0 -256.5 71.5t-169 190.5t-57.5 263t60 262t169.5 186t247.5 68q205 0 330 -154h6v690h246v-1548h-234v147h-4q-50 -83 -141.5 -129.5t-196.5 -46.5zM1391 1051h-189l133 399h219zM621 176q128 0 208 96.5t80 219.5q0 79 -33.5 151t-101 120t-153.5 48
q-91 0 -157 -47.5t-96 -117.5t-30 -150q0 -59 18 -115t52 -102.5t89.5 -74.5t123.5 -28z" />
    <glyph glyph-name="Dcroat" unicode="&#x110;" horiz-adv-x="1564" 
d="M702 0h-540v664h-135v172h135v614h571q116 0 223 -27.5t201 -86.5t163.5 -143t109.5 -204t40 -264q0 -143 -46.5 -265t-123.5 -205t-177.5 -142t-207 -86t-213.5 -27zM420 664v-431h192q125 0 229 28t186 85.5t127.5 154t45.5 224.5q0 129 -40.5 225t-114.5 153.5
t-171.5 85.5t-218.5 28h-235v-381h442v-172h-442z" />
    <glyph glyph-name="dcroat" unicode="&#x111;" horiz-adv-x="1298" 
d="M571 -29q-145 0 -256.5 71.5t-169 190.5t-57.5 263t60 262t169.5 186t247.5 68q205 0 330 -154h6v309h-348v154h348v227h246v-227h110v-154h-110v-1167h-234v147h-4q-50 -83 -141.5 -129.5t-196.5 -46.5zM621 176q128 0 208 96.5t80 219.5q0 79 -33.5 151t-101 120
t-153.5 48q-91 0 -157 -47.5t-96 -117.5t-30 -150q0 -59 18 -115t52 -102.5t89.5 -74.5t123.5 -28z" />
    <glyph glyph-name="Emacron" unicode="&#x112;" horiz-adv-x="1249" 
d="M977 1628h-655v160h655v-160zM1157 0h-997v1450h960v-225h-702v-369h665v-217h-665v-410h739v-229z" />
    <glyph glyph-name="emacron" unicode="&#x113;" horiz-adv-x="1175" 
d="M940 1219h-655v159h655v-159zM618 -29q-232 0 -380 139.5t-148 374.5t147 381t373 146q213 0 344 -138t131 -395q0 -42 -2 -65h-747q7 -103 89 -172.5t191 -69.5q171 0 261 127l163 -131q-144 -197 -422 -197zM336 590h504q0 102 -59 169.5t-173 67.5q-109 0 -187 -67.5
t-85 -169.5z" />
    <glyph glyph-name="Ebreve" unicode="&#x114;" horiz-adv-x="1249" 
d="M645 1565q-153 0 -245 73.5t-101 221.5h137q24 -136 211 -136q95 0 143.5 27.5t69.5 108.5h135q-15 -147 -107 -221t-243 -74zM1157 0h-997v1450h960v-225h-702v-369h665v-217h-665v-410h739v-229z" />
    <glyph glyph-name="ebreve" unicode="&#x115;" horiz-adv-x="1175" 
d="M614 1155q-153 0 -245 73.5t-101 221.5h138q24 -135 210 -135q95 0 144 27t69 108h136q-15 -147 -107.5 -221t-243.5 -74zM618 -29q-232 0 -380 139.5t-148 374.5t147 381t373 146q213 0 344 -138t131 -395q0 -42 -2 -65h-747q7 -103 89 -172.5t191 -69.5q171 0 261 127
l163 -131q-144 -197 -422 -197zM336 590h504q0 102 -59 169.5t-173 67.5q-109 0 -187 -67.5t-85 -169.5z" />
    <glyph glyph-name="Edotaccent" unicode="&#x116;" horiz-adv-x="1249" 
d="M655 1579q-66 0 -110.5 43.5t-44.5 103.5t44.5 104t110.5 44q68 0 114 -42.5t46 -105.5t-46 -105t-114 -42zM1157 0h-997v1450h960v-225h-702v-369h665v-217h-665v-410h739v-229z" />
    <glyph glyph-name="edotaccent" unicode="&#x117;" horiz-adv-x="1175" 
d="M610 1169q-66 0 -110.5 44t-44.5 104t44.5 103.5t110.5 43.5q68 0 114 -42t46 -105t-46 -105.5t-114 -42.5zM618 -29q-232 0 -380 139.5t-148 374.5t147 381t373 146q213 0 344 -138t131 -395q0 -42 -2 -65h-747q7 -103 89 -172.5t191 -69.5q171 0 261 127l163 -131
q-144 -197 -422 -197zM336 590h504q0 102 -59 169.5t-173 67.5q-109 0 -187 -67.5t-85 -169.5z" />
    <glyph glyph-name="Eogonek" unicode="&#x118;" horiz-adv-x="1249" 
d="M999 -479q-87 0 -149 48.5t-62 133.5q0 76 56 155t133 142h-817v1450h960v-225h-702v-369h665v-217h-665v-410h739v-229h-53q-60 -57 -108 -125.5t-48 -124.5q0 -38 28 -66t66 -28q61 0 111 43l51 -100q-99 -78 -205 -78z" />
    <glyph glyph-name="eogonek" unicode="&#x119;" horiz-adv-x="1175" 
d="M655 -479q-87 0 -149 48.5t-62 133.5q0 67 45 138t111 130q-226 6 -368 144.5t-142 369.5q0 235 147 381t373 146q213 0 344 -138t131 -395q0 -42 -2 -65h-747q7 -103 89 -172.5t191 -69.5q171 0 261 127l163 -131q-110 -149 -299 -184q-55 -55 -96 -118.5t-41 -115.5
q0 -38 28 -66t66 -28q61 0 111 43l51 -100q-99 -78 -205 -78zM336 590h504q0 102 -59 169.5t-173 67.5q-109 0 -187 -67.5t-85 -169.5z" />
    <glyph glyph-name="Ecaron" unicode="&#x11a;" horiz-adv-x="1249" 
d="M782 1565h-272l-234 295h234l141 -185l142 185h225zM1157 0h-997v1450h960v-225h-702v-369h665v-217h-665v-410h739v-229z" />
    <glyph glyph-name="ecaron" unicode="&#x11b;" horiz-adv-x="1175" 
d="M752 1155h-273l-233 295h233l142 -184l141 184h225zM618 -29q-232 0 -380 139.5t-148 374.5t147 381t373 146q213 0 344 -138t131 -395q0 -42 -2 -65h-747q7 -103 89 -172.5t191 -69.5q171 0 261 127l163 -131q-144 -197 -422 -197zM336 590h504q0 102 -59 169.5
t-173 67.5q-109 0 -187 -67.5t-85 -169.5z" />
    <glyph glyph-name="Gcircumflex" unicode="&#x11c;" horiz-adv-x="1583" 
d="M739 1565h-229l235 295h277l233 -295h-233l-141 184zM883 -37q-231 0 -411.5 96.5t-281 271t-100.5 398.5q0 227 104 401t282 265.5t401 91.5q169 0 315 -49.5t235 -132.5l-178 -193q-58 64 -157.5 106t-212.5 42q-225 0 -364.5 -151.5t-139.5 -379.5q0 -154 62 -275
t180 -190t274 -69q167 0 289 51v368h-306v213h556v-751q-234 -113 -547 -113z" />
    <glyph glyph-name="gcircumflex" unicode="&#x11d;" horiz-adv-x="1294" 
d="M522 1155h-229l235 295h277l233 -295h-233l-141 184zM592 -492q-125 0 -260.5 43.5t-227.5 118.5l142 191q70 -67 160.5 -103.5t183.5 -36.5q168 0 239.5 89.5t71.5 248.5v72h-4q-54 -72 -137 -109.5t-185 -37.5q-144 0 -255.5 70.5t-170.5 187.5t-59 258
q0 221 132 370.5t349 149.5q106 0 196 -44.5t142 -131.5h4v147h234v-903q0 -274 -138 -427t-417 -153zM621 186q132 0 212 93t80 223q0 133 -80 225t-210 92t-206.5 -90.5t-76.5 -226.5q0 -126 77.5 -221t203.5 -95z" />
    <glyph glyph-name="Gbreve" unicode="&#x11e;" horiz-adv-x="1583" 
d="M879 1565q-153 0 -245.5 73.5t-101.5 221.5h138q24 -136 211 -136q95 0 143.5 27.5t69.5 108.5h135q-15 -147 -107 -221t-243 -74zM883 -37q-231 0 -411.5 96.5t-281 271t-100.5 398.5q0 227 104 401t282 265.5t401 91.5q169 0 315 -49.5t235 -132.5l-178 -193
q-58 64 -157.5 106t-212.5 42q-225 0 -364.5 -151.5t-139.5 -379.5q0 -154 62 -275t180 -190t274 -69q167 0 289 51v368h-306v213h556v-751q-234 -113 -547 -113z" />
    <glyph glyph-name="gbreve" unicode="&#x11f;" horiz-adv-x="1294" 
d="M639 1155q-153 0 -245 73.5t-101 221.5h137q24 -135 211 -135q95 0 144 27t69 108h135q-15 -147 -107 -221t-243 -74zM592 -492q-125 0 -260.5 43.5t-227.5 118.5l142 191q70 -67 160.5 -103.5t183.5 -36.5q168 0 239.5 89.5t71.5 248.5v72h-4q-54 -72 -137 -109.5
t-185 -37.5q-144 0 -255.5 70.5t-170.5 187.5t-59 258q0 221 132 370.5t349 149.5q106 0 196 -44.5t142 -131.5h4v147h234v-903q0 -274 -138 -427t-417 -153zM621 186q132 0 212 93t80 223q0 133 -80 225t-210 92t-206.5 -90.5t-76.5 -226.5q0 -126 77.5 -221t203.5 -95z
" />
    <glyph glyph-name="Gdotaccent" unicode="&#x120;" horiz-adv-x="1583" 
d="M881 1579q-66 0 -111 43.5t-45 103.5t45 104t111 44q68 0 113.5 -42.5t45.5 -105.5t-45.5 -105t-113.5 -42zM883 -37q-231 0 -411.5 96.5t-281 271t-100.5 398.5q0 227 104 401t282 265.5t401 91.5q169 0 315 -49.5t235 -132.5l-178 -193q-58 64 -157.5 106t-212.5 42
q-225 0 -364.5 -151.5t-139.5 -379.5q0 -154 62 -275t180 -190t274 -69q167 0 289 51v368h-306v213h556v-751q-234 -113 -547 -113z" />
    <glyph glyph-name="gdotaccent" unicode="&#x121;" horiz-adv-x="1294" 
d="M645 1169q-66 0 -111 44t-45 104t45 103.5t111 43.5q68 0 114 -42t46 -105t-46 -105.5t-114 -42.5zM592 -492q-125 0 -260.5 43.5t-227.5 118.5l142 191q70 -67 160.5 -103.5t183.5 -36.5q168 0 239.5 89.5t71.5 248.5v72h-4q-54 -72 -137 -109.5t-185 -37.5
q-144 0 -255.5 70.5t-170.5 187.5t-59 258q0 221 132 370.5t349 149.5q106 0 196 -44.5t142 -131.5h4v147h234v-903q0 -274 -138 -427t-417 -153zM621 186q132 0 212 93t80 223q0 133 -80 225t-210 92t-206.5 -90.5t-76.5 -226.5q0 -126 77.5 -221t203.5 -95z" />
    <glyph glyph-name="uni0122" unicode="&#x122;" horiz-adv-x="1583" 
d="M883 -37q-231 0 -411.5 96.5t-281 271t-100.5 398.5q0 227 104 401t282 265.5t401 91.5q169 0 315 -49.5t235 -132.5l-178 -193q-58 64 -157.5 106t-212.5 42q-225 0 -364.5 -151.5t-139.5 -379.5q0 -154 62 -275t180 -190t274 -69q167 0 289 51v368h-306v213h556v-751
q-234 -113 -547 -113zM844 -492h-189l133 400h220z" />
    <glyph glyph-name="uni0123" unicode="&#x123;" horiz-adv-x="1294" 
d="M684 1155h-219l164 399h188zM592 -492q-125 0 -260.5 43.5t-227.5 118.5l142 191q70 -67 160.5 -103.5t183.5 -36.5q168 0 239.5 89.5t71.5 248.5v72h-4q-54 -72 -137 -109.5t-185 -37.5q-144 0 -255.5 70.5t-170.5 187.5t-59 258q0 221 132 370.5t349 149.5
q106 0 196 -44.5t142 -131.5h4v147h234v-903q0 -274 -138 -427t-417 -153zM621 186q132 0 212 93t80 223q0 133 -80 225t-210 92t-206.5 -90.5t-76.5 -226.5q0 -126 77.5 -221t203.5 -95z" />
    <glyph glyph-name="Hcircumflex" unicode="&#x124;" horiz-adv-x="1513" 
d="M616 1565h-229l236 295h276l234 -295h-234l-141 184zM418 0h-258v1450h258v-586h678v586h258v-1450h-258v643h-678v-643z" />
    <glyph glyph-name="hcircumflex" unicode="&#x125;" horiz-adv-x="1196" 
d="M459 1630h-230l236 295h276l234 -295h-234l-141 185zM397 0h-245v1548h245v-702h4q32 67 111.5 116.5t181.5 49.5q92 0 164 -33.5t114 -90.5t63.5 -126.5t21.5 -147.5v-614h-246v541q0 260 -182 260q-110 0 -171 -78.5t-61 -185.5v-537z" />
    <glyph glyph-name="Hbar" unicode="&#x126;" horiz-adv-x="1513" 
d="M418 0h-258v1450h258v-272h678v272h258v-1450h-258v643h-678v-643zM418 1024v-160h678v160h-678z" />
    <glyph glyph-name="hbar" unicode="&#x127;" horiz-adv-x="1196" 
d="M397 0h-245v1167h-111v154h111v227h245v-227h348v-154h-348v-321h4q32 67 111.5 116.5t181.5 49.5q92 0 164 -33.5t114 -90.5t63.5 -126.5t21.5 -147.5v-614h-246v541q0 260 -182 260q-110 0 -171 -78.5t-61 -185.5v-537z" />
    <glyph glyph-name="Itilde" unicode="&#x128;" horiz-adv-x="577" 
d="M47 1573h-135q10 55 24.5 97t40 81t67.5 60.5t97 21.5q71 0 162 -37q90 -39 133 -39q67 0 94 86h136q-10 -54 -25 -96.5t-40.5 -81.5t-67.5 -60.5t-97 -21.5q-77 0 -168 41q-79 37 -127 37q-67 0 -94 -88zM418 0h-258v1450h258v-1450z" />
    <glyph glyph-name="itilde" unicode="&#x129;" horiz-adv-x="548" 
d="M37 1163h-135q10 55 24.5 97t40 81t67.5 60.5t97 21.5q71 0 162 -37q88 -38 133 -38q67 0 94 86h135q-10 -55 -24.5 -97t-40 -81t-67.5 -60.5t-97 -21.5q-79 0 -168 40q-79 37 -127 37q-67 0 -94 -88zM397 0h-245v991h245v-991z" />
    <glyph glyph-name="Imacron" unicode="&#x12a;" horiz-adv-x="577" 
d="M616 1628h-655v160h655v-160zM418 0h-258v1450h258v-1450z" />
    <glyph glyph-name="imacron" unicode="&#x12b;" horiz-adv-x="548" 
d="M606 1219h-655v159h655v-159zM397 0h-245v991h245v-991z" />
    <glyph glyph-name="Ibreve" unicode="&#x12c;" horiz-adv-x="577" 
d="M287 1565q-153 0 -245 73.5t-101 221.5h137q24 -136 211 -136q95 0 143.5 27.5t69.5 108.5h135q-15 -147 -107 -221t-243 -74zM418 0h-258v1450h258v-1450z" />
    <glyph glyph-name="ibreve" unicode="&#x12d;" horiz-adv-x="548" 
d="M272 1155q-153 0 -245 73.5t-101 221.5h137q24 -135 211 -135q95 0 144 27t69 108h136q-15 -147 -107.5 -221t-243.5 -74zM397 0h-245v991h245v-991z" />
    <glyph glyph-name="Iogonek" unicode="&#x12e;" horiz-adv-x="577" 
d="M440 -283l54 -108q-99 -78 -211 -78q-85 0 -148 48t-63 134q0 142 192 287h-104v1450h258v-1450h-8q-82 -75 -125 -132.5t-43 -109.5q0 -35 26 -59.5t62 -24.5q61 0 110 43z" />
    <glyph glyph-name="iogonek" unicode="&#x12f;" horiz-adv-x="548" 
d="M272 1169q-66 0 -110.5 44t-44.5 104t44.5 103.5t110.5 43.5q68 0 114 -42t46 -105t-46 -105.5t-114 -42.5zM422 -283l53 -108q-99 -78 -211 -78q-85 0 -148 48t-63 134q0 141 193 287h-94v991h245v-991h-6q-82 -75 -125 -132.5t-43 -109.5q0 -35 26 -59.5t62 -24.5
q62 0 111 43z" />
    <glyph glyph-name="Idotaccent" unicode="&#x130;" horiz-adv-x="577" 
d="M285 1579q-66 0 -111 43.5t-45 103.5t45 104t111 44q68 0 113.5 -42.5t45.5 -105.5t-45.5 -105t-113.5 -42zM418 0h-258v1450h258v-1450z" />
    <glyph glyph-name="dotlessi" unicode="&#x131;" horiz-adv-x="548" 
d="M397 0h-245v991h245v-991z" />
    <glyph glyph-name="IJ" unicode="&#x132;" horiz-adv-x="1576" 
d="M418 0h-258v1450h258v-1450zM993 -37q-169 0 -277.5 86t-148.5 234l238 67q19 -72 68 -113.5t116 -41.5q103 0 142.5 72.5t39.5 209.5v973h259v-981q0 -70 -10 -134.5t-40 -134.5t-76.5 -120.5t-126.5 -83.5t-184 -33z" />
    <glyph glyph-name="ij" unicode="&#x133;" horiz-adv-x="1097" 
d="M272 1169q-66 0 -110.5 44t-44.5 104t44.5 103.5t110.5 43.5q68 0 114 -42t46 -105t-46 -105.5t-114 -42.5zM821 1169q-66 0 -110.5 44t-44.5 104t44.5 103.5t110.5 43.5q68 0 114 -42t46 -105t-46 -105.5t-114 -42.5zM397 0h-245v991h245v-991zM590 -492q-57 0 -111 13
l21 209q34 -9 67 -9q42 0 70 16t41 47t17.5 64.5t4.5 81.5v1061h246v-1050q0 -76 -8.5 -136.5t-32.5 -117.5t-63 -95t-103 -61t-149 -23z" />
    <glyph glyph-name="Jcircumflex" unicode="&#x134;" horiz-adv-x="1019" 
d="M598 1565h-229l235 295h277l233 -295h-233l-142 184zM436 -37q-169 0 -277.5 86t-148.5 234l238 67q19 -72 68 -113.5t116 -41.5q103 0 142.5 72.5t39.5 209.5v973h258v-981q0 -49 -5 -95t-18.5 -97.5t-34 -95.5t-55 -85t-78.5 -70t-107 -46t-138 -17z" />
    <glyph glyph-name="jcircumflex" unicode="&#x135;" horiz-adv-x="548" 
d="M131 1155h-229l235 295h277l233 -295h-233l-142 184zM41 -492q-57 0 -111 13l21 209q34 -9 67 -9q42 0 70 16t41 47t18 64.5t5 81.5v1061h245v-1050q0 -76 -8.5 -136.5t-32.5 -117.5t-63 -95t-103 -61t-149 -23z" />
    <glyph glyph-name="uni0136" unicode="&#x136;" horiz-adv-x="1411" 
d="M418 0h-258v1450h258v-627h6l606 627h348l-678 -670l723 -780h-362l-637 727h-6v-727zM702 -492h-188l133 400h219z" />
    <glyph glyph-name="uni0137" unicode="&#x137;" horiz-adv-x="1112" 
d="M397 0h-245v1548h245v-975h6l373 418h316l-426 -448l452 -543h-325l-390 508h-6v-508zM557 -492h-188l133 400h219z" />
    <glyph glyph-name="kgreenlandic" unicode="&#x138;" horiz-adv-x="1112" 
d="M397 0h-245v991h245v-418h6l373 418h316l-426 -448l452 -543h-325l-390 508h-6v-508z" />
    <glyph glyph-name="Lacute" unicode="&#x139;" horiz-adv-x="1046" 
d="M383 1565h-193l203 295h281zM1034 0h-874v1450h258v-1221h616v-229z" />
    <glyph glyph-name="lacute" unicode="&#x13a;" horiz-adv-x="548" 
d="M344 1622h-192l202 295h281zM397 0h-245v1548h245v-1548z" />
    <glyph glyph-name="uni013B" unicode="&#x13b;" horiz-adv-x="1046" 
d="M1034 0h-874v1450h258v-1221h616v-229zM571 -492h-188l133 400h219z" />
    <glyph glyph-name="uni013C" unicode="&#x13c;" horiz-adv-x="548" 
d="M397 0h-245v1548h245v-1548zM219 -492h-188l133 400h219z" />
    <glyph glyph-name="Lcaron" unicode="&#x13d;" horiz-adv-x="1046" 
d="M1034 0h-874v1450h258v-1221h616v-229zM733 1051h-188l133 399h219z" />
    <glyph glyph-name="lcaron" unicode="&#x13e;" horiz-adv-x="720" 
d="M397 0h-245v1548h245v-1548zM637 1051h-188l133 399h219z" />
    <glyph glyph-name="Ldot" unicode="&#x13f;" horiz-adv-x="1046" 
d="M1034 0h-874v1450h258v-1221h616v-229zM745 719q-66 0 -110.5 43.5t-44.5 103.5t44.5 104t110.5 44q68 0 114 -42.5t46 -105.5t-46 -105t-114 -42z" />
    <glyph glyph-name="ldot" unicode="&#x140;" horiz-adv-x="800" 
d="M397 0h-245v1548h245v-1548zM641 698q-66 0 -111 44t-45 104t45 103.5t111 43.5q68 0 114 -42t46 -105t-46 -105.5t-114 -42.5z" />
    <glyph glyph-name="Lslash" unicode="&#x141;" horiz-adv-x="1046" 
d="M1034 0h-874v412l-144 -127v225l144 127v813h258v-614l422 370v-223l-422 -373v-381h616v-229z" />
    <glyph glyph-name="lslash" unicode="&#x142;" horiz-adv-x="548" 
d="M397 0h-245v610l-142 -141v223l142 142v714h245v-522l142 141v-219l-142 -139v-809z" />
    <glyph glyph-name="Nacute" unicode="&#x143;" horiz-adv-x="1597" 
d="M825 1565h-192l203 295h280zM418 0h-258v1450h342l674 -1085h4v1085h258v-1450h-328l-688 1120h-4v-1120z" />
    <glyph glyph-name="nacute" unicode="&#x144;" horiz-adv-x="1191" 
d="M637 1155h-193l203 295h281zM393 0h-246v776v215h234v-157h4q34 78 117.5 132t187.5 54q92 0 164 -33.5t114 -90t63.5 -126t21.5 -147.5v-623h-246v553q0 262 -184 262q-74 0 -128 -40t-78 -99t-24 -127v-549z" />
    <glyph glyph-name="uni0145" unicode="&#x145;" horiz-adv-x="1597" 
d="M418 0h-258v1450h342l674 -1085h4v1085h258v-1450h-328l-688 1120h-4v-1120zM778 -492h-188l133 400h219z" />
    <glyph glyph-name="uni0146" unicode="&#x146;" horiz-adv-x="1191" 
d="M393 0h-246v776v215h234v-157h4q34 78 117.5 132t187.5 54q92 0 164 -33.5t114 -90t63.5 -126t21.5 -147.5v-623h-246v553q0 262 -184 262q-74 0 -128 -40t-78 -99t-24 -127v-549zM575 -492h-188l133 400h219z" />
    <glyph glyph-name="Ncaron" unicode="&#x147;" horiz-adv-x="1597" 
d="M932 1565h-273l-233 295h233l142 -185l141 185h225zM418 0h-258v1450h342l674 -1085h4v1085h258v-1450h-328l-688 1120h-4v-1120z" />
    <glyph glyph-name="ncaron" unicode="&#x148;" horiz-adv-x="1191" 
d="M725 1155h-272l-234 295h234l141 -184l141 184h226zM393 0h-246v776v215h234v-157h4q34 78 117.5 132t187.5 54q92 0 164 -33.5t114 -90t63.5 -126t21.5 -147.5v-623h-246v553q0 262 -184 262q-74 0 -128 -40t-78 -99t-24 -127v-549z" />
    <glyph glyph-name="napostrophe" unicode="&#x149;" horiz-adv-x="1273" 
d="M160 1051h-207l143 540h238zM475 0h-246v776v215h234v-157h4q34 78 117.5 132t187.5 54q92 0 164 -33.5t114 -90t63.5 -126t21.5 -147.5v-623h-246v553q0 262 -184 262q-74 0 -128 -40t-78 -99t-24 -127v-549z" />
    <glyph glyph-name="Eng" unicode="&#x14a;" horiz-adv-x="1597" 
d="M1180 444v1006h258v-1509q0 -76 -9 -136.5t-32.5 -117.5t-63 -95t-103.5 -61t-149 -23q-56 0 -110 13l20 209q35 -9 68 -9q42 0 70 16t41 47t17.5 64.5t4.5 81.5v50l-770 1140h-4v-1120h-258v1450h342l674 -1006h4z" />
    <glyph glyph-name="eng" unicode="&#x14b;" horiz-adv-x="1191" 
d="M696 -492q-56 0 -110 13l20 209q34 -9 68 -9q42 0 70 16t41 47t17.5 64.5t4.5 81.5v623q0 262 -184 262q-74 0 -128 -40t-78 -99t-24 -127v-549h-246v786v205h234v-157h4q34 78 117.5 132t187.5 54q92 0 164 -33.5t114 -90t63.5 -126t21.5 -147.5v-682q0 -76 -9 -136.5
t-32.5 -117.5t-63 -95t-103.5 -61t-149 -23z" />
    <glyph glyph-name="Omacron" unicode="&#x14c;" horiz-adv-x="1738" 
d="M1198 1628h-655v160h655v-160zM866 -37q-165 0 -309 56.5t-246.5 156t-161.5 243t-59 310.5q0 228 101 401.5t276.5 265t398.5 91.5q226 0 403 -91.5t278.5 -265t101.5 -401.5q0 -223 -101 -398t-279.5 -271.5t-402.5 -96.5zM868 195q221 0 360.5 150.5t139.5 383.5
q0 228 -139 379.5t-361 151.5q-146 0 -260.5 -70.5t-175.5 -191t-61 -269.5q0 -233 138.5 -383.5t358.5 -150.5z" />
    </font>
</defs>
</svg>
