<?xml version="1.0" standalone="no"?>
<!DOCTYPE svg PUBLIC "-//W3C//DTD SVG 1.1//EN" "http://www.w3.org/Graphics/SVG/1.1/DTD/svg11.dtd" >
<svg xmlns="http://www.w3.org/2000/svg" xmlns:xlink="http://www.w3.org/1999/xlink" version="1.1">
<metadata>
Created by FontForge 20201107 at Tue Feb 13 14:28:05 2024
 By 
Copyright (c) 2020 Monotype GmbH. All rights reserved.
</metadata>
<defs>
<font id="AvenirNextWorld-Bold" horiz-adv-x="0" >
  <font-face 
    font-family="Avenir Next World"
    font-weight="700"
    font-stretch="normal"
    units-per-em="2048"
    panose-1="2 11 8 3 2 2 2 2 2 4"
    ascent="1552"
    descent="-496"
    x-height="1026"
    cap-height="1450"
    bbox="-1831 -1102 3076 2361"
    underline-thickness="102"
    underline-position="-204"
    unicode-range="U+000D-FEFF"
  />
<missing-glyph horiz-adv-x="1048" 
d="M1049 0h-1049v1470h1049v-1470zM102 1366v-1264h844v1264h-844zM555 479h-94q-4 24 -4 35q0 115 26 166q33 64 95 121q64 59 83 93.5t19 76.5q0 73 -46 123.5t-110 50.5q-67 0 -112 -47.5t-56 -147.5l-102 17q13 141 87 210.5t189 69.5q110 0 182 -74t72 -194
q0 -70 -26.5 -123.5t-102.5 -122.5q-77 -68 -88 -106q-12 -41 -12 -148zM569 240h-114v137h114v-137z" />
    <glyph glyph-name="uniFB00" unicode="ff" horiz-adv-x="1429" 
d="M522 0h-336v774h-186v252h186v92q0 79 12.5 145.5t44 127.5t80.5 103.5t126 67.5t176 25q97 0 161 -20l-22 -267q-47 15 -92 15q-150 0 -150 -193v-96h348v92q0 79 12.5 145.5t44 127.5t80.5 103.5t126 67.5t176 25q97 0 161 -20l-22 -267q-47 15 -92 15
q-150 0 -150 -193v-96h228v-252h-228v-774h-336v774h-348v-774z" />
    <glyph glyph-name="uniFB03" unicode="ffi" horiz-adv-x="2045" 
d="M522 0h-336v774h-186v252h186v92q0 79 12.5 145.5t44 127.5t80.5 103.5t126 67.5t176 25q97 0 161 -20l-22 -267q-47 15 -92 15q-150 0 -150 -193v-96h348v92q0 79 12.5 145.5t44 127.5t80.5 103.5t126 67.5t176 25q97 0 161 -20l-22 -267q-47 15 -92 15
q-150 0 -150 -193v-96h228v-252h-228v-774h-336v774h-348v-774zM1743 1161q-81 0 -137 54.5t-56 130.5q0 75 56 129.5t137 54.5q80 0 136 -54t56 -130q0 -78 -56 -131.5t-136 -53.5zM1911 0h-336v1026h336v-1026z" />
    <glyph glyph-name="uniFB04" unicode="ffl" horiz-adv-x="2048" 
d="M522 0h-336v774h-186v252h186v92q0 79 12.5 145.5t44 127.5t80.5 103.5t126 67.5t176 25q97 0 161 -20l-22 -267q-47 15 -92 15q-150 0 -150 -193v-96h348v92q0 79 12.5 145.5t44 127.5t80.5 103.5t126 67.5t176 25q97 0 161 -20l-22 -267q-47 15 -92 15
q-150 0 -150 -193v-96h228v-252h-228v-774h-336v774h-348v-774zM1913 0h-340v1548h340v-1548z" />
    <glyph glyph-name="uniFDF2" unicode="&#x627;&#xfedf;&#xfee0;&#xfeea;" horiz-adv-x="3020" arabic-form="isolated" 
d="M1567 1921v-254l-142 -37h-12v291h154zM1382 1296q-71 0 -111 40t-40 112q0 57 22 119l93 -21q-7 -32 -7 -49q0 -59 50 -59q43 0 43 59q0 17 -2 29l92 18q8 -50 8 -76v-2q21 -12 47 -12q41 0 41 49q0 32 -14 70l102 39q37 -81 37 -152t-36.5 -111t-94.5 -40
q-61 0 -113 41q-38 -54 -117 -54zM1993 489v1059h340v-1122q0 -228 -113.5 -327t-343.5 -99q-232 0 -320 111q-111 -111 -399 -111q-265 0 -366 76q-121 -62 -265 -62q-204 0 -336.5 110.5t-132.5 311.5q0 71 20 136t64 123.5t107 102t155 68.5t203 25h412v-449
q0 -83 29.5 -116t109.5 -33q96 0 130 42.5t34 153.5v711h340v-731q0 -91 45 -133.5t123 -42.5q95 0 129.5 42.5t34.5 153.5zM2564 0v1548h340v-1548h-340zM672 330v270h-111q-83 0 -128.5 -39t-45.5 -106q0 -142 184 -142q59 0 101 17z" />
    <glyph glyph-name="uniFEF5" unicode="&#xfedf;&#xfe82;" horiz-adv-x="1460" arabic-form="isolated" 
d="M1004 489v1059h339v-1122q0 -231 -120 -328.5t-383 -97.5h-781v293h330v833h340v-833h111q95 0 129.5 42.5t34.5 153.5zM381 1333q-43 0 -98 -35l-90 132q92 92 196 92q41 0 156.5 -31t161.5 -31q49 0 106 45l100 -114q-51 -62 -96.5 -87.5t-103.5 -25.5q-61 0 -182 27.5
t-150 27.5z" />
    <glyph glyph-name="uniFEF6" unicode="&#xfee0;&#xfe82;" horiz-adv-x="1511" arabic-form="final" 
d="M1511 293q22 0 31.5 -35.5t9.5 -122.5q0 -76 -9.5 -105.5t-31.5 -29.5q-197 0 -276 109q-115 -109 -395 -109h-781v293h330v833h340v-833h111q95 0 129.5 42.5t34.5 153.5v1059h339v-1079q0 -91 45 -133.5t123 -42.5zM379 1333q-43 0 -98 -35l-91 132q92 92 197 92
q41 0 156.5 -31t161.5 -31q49 0 106 45l100 -114q-51 -62 -96.5 -87.5t-103.5 -25.5q-61 0 -182 27.5t-150 27.5z" />
    <glyph glyph-name="uniFEF7" unicode="&#xfedf;&#xfe84;" horiz-adv-x="1460" arabic-form="isolated" 
d="M580 1430h174v-150h-392v150h70q-22 37 -22 83q0 76 54 123t146 47q65 0 121 -16l-26 -141q-36 8 -70 8q-68 0 -68 -57q0 -24 13 -47zM1004 489v1059h339v-1122q0 -231 -120 -328.5t-383 -97.5h-781v293h330v833h340v-833h111q95 0 129.5 42.5t34.5 153.5z" />
    <glyph glyph-name="uniFEF8" unicode="&#xfee0;&#xfe84;" horiz-adv-x="1511" arabic-form="final" 
d="M584 1432h172v-150h-391v150h69q-22 37 -22 84q0 76 54 124t146 48q65 0 121 -17l-26 -143q-36 8 -70 8q-68 0 -68 -57q0 -21 15 -47zM1511 293q22 0 31.5 -35.5t9.5 -122.5q0 -76 -9.5 -105.5t-31.5 -29.5q-197 0 -276 109q-115 -109 -395 -109h-781v293h330v833h340
v-833h111q95 0 129.5 42.5t34.5 153.5v1059h339v-1079q0 -91 45 -133.5t123 -42.5z" />
    <glyph glyph-name="uniFEF9" unicode="&#xfedf;&#xfe88;" horiz-adv-x="1460" arabic-form="isolated" 
d="M1004 489v1059h339v-1122q0 -231 -120 -328.5t-383 -97.5h-781v293h330v833h340v-833h111q95 0 129.5 42.5t34.5 153.5zM567 -334q0 -24 13 -47h174v-149h-392v149h70q-22 37 -22 84q0 76 54 123t146 47q65 0 121 -16l-26 -142q-41 9 -70 9q-68 0 -68 -58z" />
    <glyph glyph-name="uniFEFA" unicode="&#xfee0;&#xfe88;" horiz-adv-x="1511" arabic-form="final" 
d="M1511 293q22 0 31.5 -35.5t9.5 -122.5q0 -76 -9.5 -105.5t-31.5 -29.5q-197 0 -276 109q-115 -109 -395 -109h-781v293h330v833h340v-833h111q95 0 129.5 42.5t34.5 153.5v1059h339v-1079q0 -91 45 -133.5t123 -42.5zM567 -334q0 -24 13 -47h174v-149h-392v149h70
q-22 37 -22 84q0 76 54 123t146 47q65 0 121 -16l-26 -142q-41 9 -70 9q-68 0 -68 -58z" />
    <glyph glyph-name="uniFEFB" unicode="&#xfedf;&#xfe8e;" horiz-adv-x="1460" arabic-form="isolated" 
d="M1004 489v1059h339v-1122q0 -231 -120 -328.5t-383 -97.5h-781v293h330v833h340v-833h111q95 0 129.5 42.5t34.5 153.5z" />
    <glyph glyph-name="uniFEFC" unicode="&#xfee0;&#xfe8e;" horiz-adv-x="1511" arabic-form="final" 
d="M1511 293q22 0 31.5 -35.5t9.5 -122.5q0 -76 -9.5 -105.5t-31.5 -29.5q-197 0 -276 109q-115 -109 -395 -109h-781v293h330v833h340v-833h111q95 0 129.5 42.5t34.5 153.5v1059h339v-1079q0 -91 45 -133.5t123 -42.5z" />
    <glyph glyph-name="f_i" unicode="fi" horiz-adv-x="1361" 
d="M522 0h-336v774h-186v252h186v92q0 79 12.5 145.5t44 127.5t80.5 103.5t126 67.5t176 25q97 0 161 -20l-22 -267q-47 15 -92 15q-150 0 -150 -193v-96h228v-252h-228v-774zM1059 1161q-81 0 -137 54.5t-56 130.5q0 75 56 129.5t137 54.5q80 0 136 -54t56 -130
q0 -78 -56 -131.5t-136 -53.5zM1227 0h-336v1026h336v-1026z" />
    <glyph glyph-name="f_l" unicode="fl" horiz-adv-x="1363" 
d="M522 0h-336v774h-186v252h186v92q0 79 12.5 145.5t44 127.5t80.5 103.5t126 67.5t176 25q97 0 161 -20l-22 -267q-47 15 -92 15q-150 0 -150 -193v-96h228v-252h-228v-774zM1229 0h-340v1548h340v-1548z" />
    <glyph glyph-name="uniFEDFFB51" unicode="&#xfedf;&#xfb51;" horiz-adv-x="1460" 
d="M838 1446q0 -81 -35 -164h-524v143h75v213h138v-79q73 83 167 83q82 0 130.5 -53.5t48.5 -142.5zM1004 489v1059h339v-1122q0 -231 -120 -328.5t-383 -97.5h-781v293h330v833h340v-833h111q95 0 129.5 42.5t34.5 153.5zM621 1499q-76 0 -142 -74h209q2 4 2 15
q0 25 -18 42t-51 17z" />
    <glyph glyph-name="uniFEE0FB51" unicode="&#xfee0;&#xfb51;" horiz-adv-x="1511" 
d="M838 1446q0 -81 -35 -164h-524v143h75v213h138v-79q73 83 167 83q82 0 130.5 -53.5t48.5 -142.5zM1511 293q22 0 31.5 -35.5t9.5 -122.5q0 -76 -9.5 -105.5t-31.5 -29.5q-197 0 -276 109q-115 -109 -395 -109h-781v293h330v833h340v-833h111q95 0 129.5 42.5t34.5 153.5
v1059h339v-1079q0 -91 45 -133.5t123 -42.5zM621 1499q-76 0 -142 -74h209q2 4 2 15q0 25 -18 42t-51 17z" />
    <glyph glyph-name="uni0531055B.liga" unicode="&#x531;&#x55b;" horiz-adv-x="2394" 
d="M1698 1214l235 342h344l-325 -342h-254zM1401 1450v-852q219 -11 323.5 -104.5t104.5 -309.5v-186h-336v135q0 88 -28.5 131t-106.5 49q-63 -161 -212 -256.5t-372 -95.5q-153 0 -273 47t-194 129t-112.5 187.5t-38.5 228.5v897h350v-862q0 -136 67.5 -222.5t204.5 -86.5
q138 0 206.5 86.5t68.5 222.5v862h348z" />
    <glyph glyph-name="uni0531055C.liga" unicode="&#x531;&#x55c;" horiz-adv-x="2504" 
d="M2132 1556h254q0 -114 -46.5 -168t-154.5 -90q-16 -5 -39.5 -13t-35.5 -12t-30 -10.5t-27 -11l-21 -10.5t-17.5 -11.5t-11.5 -12t-8 -14.5t-2 -17h-254q0 59 12.5 99t42 68t62 44.5t88.5 36.5q110 38 149 61t39 61zM1401 1450v-852q219 -11 323.5 -104.5t104.5 -309.5
v-186h-336v135q0 88 -28.5 131t-106.5 49q-63 -161 -212 -256.5t-372 -95.5q-153 0 -273 47t-194 129t-112.5 187.5t-38.5 228.5v897h350v-862q0 -136 67.5 -222.5t204.5 -86.5q138 0 206.5 86.5t68.5 222.5v862h348z" />
    <glyph glyph-name="uni0531055E.liga" unicode="&#x531;&#x55e;" horiz-adv-x="2758" 
d="M2230 1610q129 0 210 -61t81 -156q0 -108 -88.5 -172t-232.5 -64v164q22 0 37.5 11t15.5 28q0 43 -64 43q-77 0 -119 -62t-42 -184h-267q0 203 134 328t335 125zM1401 1450v-852q219 -11 323.5 -104.5t104.5 -309.5v-186h-336v135q0 88 -28.5 131t-106.5 49
q-63 -161 -212 -256.5t-372 -95.5q-153 0 -273 47t-194 129t-112.5 187.5t-38.5 228.5v897h350v-862q0 -136 67.5 -222.5t204.5 -86.5q138 0 206.5 86.5t68.5 222.5v862h348z" />
    <glyph glyph-name="uni0535055B.liga" unicode="&#x535;&#x55b;" horiz-adv-x="2363" 
d="M1665 1214l238 342h342l-326 -342h-254zM156 1450h350v-424h895v-293h-895v-145q0 -137 66 -223t204 -86q65 0 115.5 22t79.5 59.5t44 81.5t15 93v57h350v-80q0 -110 -40 -209t-115 -175.5t-193 -121.5t-262 -45q-153 0 -272.5 47t-193 129t-111 187.5t-37.5 228.5v897z
" />
    <glyph glyph-name="uni0535055C.liga" unicode="&#x535;&#x55c;" horiz-adv-x="2471" 
d="M2101 1556h254q0 -78 -24.5 -128.5t-65 -78t-111.5 -51.5q-16 -5 -40 -13l-36 -12t-30.5 -10.5t-27 -11t-21 -10.5t-18 -11.5t-11.5 -12.5t-8 -14.5t-2 -16.5h-254q0 59 12.5 99t43 68t63 44.5t88.5 36.5q110 38 149 61t39 61zM156 1450h350v-424h895v-293h-895v-145
q0 -137 66 -223t204 -86q65 0 115.5 22t79.5 59.5t44 81.5t15 93v57h350v-80q0 -110 -40 -209t-115 -175.5t-193 -121.5t-262 -45q-153 0 -272.5 47t-193 129t-111 187.5t-37.5 228.5v897z" />
    <glyph glyph-name="uni0535055E.liga" unicode="&#x535;&#x55e;" horiz-adv-x="2727" 
d="M2200 1610q129 0 209.5 -60.5t80.5 -156.5q0 -108 -88.5 -172t-232.5 -64v164q21 0 36 11t15 28q0 43 -61 43q-78 0 -120 -62t-42 -184h-266q0 203 134 328t335 125zM156 1450h350v-424h895v-293h-895v-145q0 -137 66 -223t204 -86q65 0 115.5 22t79.5 59.5t44 81.5
t15 93v57h350v-80q0 -110 -40 -209t-115 -175.5t-193 -121.5t-262 -45q-153 0 -272.5 47t-193 129t-111 187.5t-37.5 228.5v897z" />
    <glyph glyph-name="uni0538055B.liga" unicode="&#x538;&#x55b;" horiz-adv-x="2320" 
d="M1622 1214l238 342h344l-326 -342h-256zM506 862v-559h893v-303h-1243v897q0 123 37.5 228.5t111 187.5t193 129t272.5 47q149 0 267 -47t192 -128.5t112.5 -187.5t38.5 -229v-111h-348v76q0 136 -64.5 222.5t-193.5 86.5q-71 0 -124 -24.5t-83.5 -67.5t-45.5 -97.5
t-15 -119.5z" />
    <glyph glyph-name="uni0538055C.liga" unicode="&#x538;&#x55c;" horiz-adv-x="2430" 
d="M2058 1556h254q0 -114 -46.5 -168t-154.5 -90q-16 -5 -39.5 -13t-35.5 -12t-30 -10.5t-27 -11l-21 -10.5t-17.5 -11.5t-11.5 -12t-8 -14.5t-2 -17h-254q0 59 12.5 99t42 68t62 44.5t88.5 36.5q110 38 149 61t39 61zM506 862v-559h893v-303h-1243v897q0 123 37.5 228.5
t111 187.5t193 129t272.5 47q149 0 267 -47t192 -128.5t112.5 -187.5t38.5 -229v-111h-348v76q0 136 -64.5 222.5t-193.5 86.5q-71 0 -124 -24.5t-83.5 -67.5t-45.5 -97.5t-15 -119.5z" />
    <glyph glyph-name="uni0538055E.liga" unicode="&#x538;&#x55e;" horiz-adv-x="2566" 
d="M2157 1610q129 0 209.5 -60.5t80.5 -156.5q0 -108 -88.5 -172t-232.5 -64v164q22 0 36.5 11t14.5 28q0 43 -61 43q-77 0 -119.5 -62t-42.5 -184h-266q0 203 134 328t335 125zM506 862v-559h893v-303h-1243v897q0 123 37.5 228.5t111 187.5t193 129t272.5 47
q149 0 267 -47t192 -128.5t112.5 -187.5t38.5 -229v-111h-348v76q0 136 -64.5 222.5t-193.5 86.5q-71 0 -124 -24.5t-83.5 -67.5t-45.5 -97.5t-15 -119.5z" />
    <glyph glyph-name="uni053B055B.liga" unicode="&#x53b;&#x55b;" horiz-adv-x="2220" 
d="M2101 1556l-325 -342h-254l237 342h342zM182 1450h350v-502h7q42 81 141.5 133t222.5 52q241 0 365.5 -134t124.5 -358v-268h-349v182q0 133 -59.5 207t-175.5 74q-125 0 -199 -82.5t-75 -233.5l-3 -520h-350v1450z" />
    <glyph glyph-name="uni053B055C.liga" unicode="&#x53b;&#x55c;" horiz-adv-x="2328" 
d="M1817 1186h-254q0 59 12.5 99t42.5 68t62.5 44.5t88.5 36.5q111 39 150 61.5t39 60.5h254q0 -78 -24.5 -128.5t-65 -78t-111.5 -51.5q-16 -6 -39 -13.5t-36 -12t-30.5 -10.5t-27 -10.5t-21.5 -10.5t-18 -11.5t-12 -12t-8 -14.5t-2 -17zM182 1450h350v-502h7
q42 81 141.5 133t222.5 52q241 0 365.5 -134t124.5 -358v-268h-349v182q0 133 -59.5 207t-175.5 74q-125 0 -199 -82.5t-75 -233.5l-3 -520h-350v1450z" />
    <glyph glyph-name="uni053B055E.liga" unicode="&#x53b;&#x55e;" horiz-adv-x="2584" 
d="M2347 1393q0 -108 -89 -172t-233 -64v164q21 0 36.5 11t15.5 28q0 43 -62 43q-78 0 -120 -62t-42 -184h-266q0 203 134 328t335 125q129 0 210 -61t81 -156zM182 1450h350v-502h7q42 81 141.5 133t222.5 52q241 0 365.5 -134t124.5 -358v-268h-349v182q0 133 -59.5 207
t-175.5 74q-125 0 -199 -82.5t-75 -233.5l-3 -520h-350v1450z" />
    <glyph glyph-name="uni0548055B.liga" unicode="&#x548;&#x55b;" horiz-adv-x="2365" 
d="M2247 1556l-326 -342h-254l236 342h344zM782 1489q153 0 273.5 -47t195.5 -128.5t113.5 -187.5t38.5 -229v-897h-350v862q0 136 -68.5 222.5t-206.5 86.5q-137 0 -204.5 -86.5t-67.5 -222.5v-862h-350v897q0 122 40 228.5t115.5 188t197 128.5t273.5 47z" />
    <glyph glyph-name="uni0548055C.liga" unicode="&#x548;&#x55c;" horiz-adv-x="2473" 
d="M1962 1186h-254q0 59 12.5 99t42.5 68t62.5 44.5t89.5 36.5q109 38 147.5 61t38.5 61h254q0 -114 -46 -168t-152 -90q-16 -5 -40 -13t-36.5 -12t-30.5 -10.5t-27 -11l-21 -10.5t-18 -11.5t-12 -12t-8 -14.5t-2 -17zM782 1489q153 0 273.5 -47t195.5 -128.5t113.5 -187.5
t38.5 -229v-897h-350v862q0 136 -68.5 222.5t-206.5 86.5q-137 0 -204.5 -86.5t-67.5 -222.5v-862h-350v897q0 122 40 228.5t115.5 188t197 128.5t273.5 47z" />
    <glyph glyph-name="uni0548055E.liga" unicode="&#x548;&#x55e;" horiz-adv-x="2727" 
d="M2492 1393q0 -108 -89.5 -172t-233.5 -64v164q22 0 37.5 11t15.5 28q0 43 -63 43q-77 0 -119.5 -62t-42.5 -184h-266q0 135 63 239t169.5 159t236.5 55q129 0 210.5 -61t81.5 -156zM782 1489q153 0 273.5 -47t195.5 -128.5t113.5 -187.5t38.5 -229v-897h-350v862
q0 136 -68.5 222.5t-206.5 86.5q-137 0 -204.5 -86.5t-67.5 -222.5v-862h-350v897q0 122 40 228.5t115.5 188t197 128.5t273.5 47z" />
    <glyph glyph-name="uni0552055B.liga" unicode="&#x552;&#x55b;" horiz-adv-x="1912" 
d="M1214 1214l238 342h344l-326 -342h-256zM1112 707q43 -66 102.5 -93.5t163.5 -27.5v-305q-174 0 -274.5 37t-153.5 116q-24 37 -104 176q-37 64 -84 88.5t-123 24.5h-107v-723h-348l-2 1450h350v-422h119q136 0 217.5 -32t135.5 -113q16 -24 54 -88t54 -88z" />
    <glyph glyph-name="uni0552055C.liga" unicode="&#x552;&#x55c;" horiz-adv-x="2023" 
d="M1651 1556h254q0 -114 -46.5 -168t-154.5 -90q-16 -6 -39 -13.5t-36 -11.5t-30.5 -10.5t-27 -11t-21 -10.5t-17.5 -11.5t-12 -12t-8 -14.5t-2 -17h-254q0 59 12.5 99t42 68t62 44.5t88.5 36.5q111 39 150 61.5t39 60.5zM1112 707q43 -66 102.5 -93.5t163.5 -27.5v-305
q-174 0 -274.5 37t-153.5 116q-24 37 -104 176q-37 64 -84 88.5t-123 24.5h-107v-723h-348l-2 1450h350v-422h119q136 0 217.5 -32t135.5 -113q16 -24 54 -88t54 -88z" />
    <glyph glyph-name="uni0552055E.liga" unicode="&#x552;&#x55e;" horiz-adv-x="2277" 
d="M1749 1610q129 0 210 -61t81 -156q0 -108 -89 -172t-233 -64v164q22 0 36.5 11t14.5 28q0 43 -61 43q-77 0 -119.5 -62t-42.5 -184h-266q0 203 134 328t335 125zM1112 707q43 -66 102.5 -93.5t163.5 -27.5v-305q-174 0 -274.5 37t-153.5 116q-24 37 -104 176
q-37 64 -84 88.5t-123 24.5h-107v-723h-348l-2 1450h350v-422h119q136 0 217.5 -32t135.5 -113q16 -24 54 -88t54 -88z" />
    <glyph glyph-name="uni0555055B.liga" unicode="&#x555;&#x55b;" horiz-adv-x="2600" 
d="M2482 1556l-325 -342h-254l237 342h342zM885 -39q-224 0 -403 96.5t-281.5 272.5t-102.5 401t102.5 398.5t281 266.5t403.5 93t403.5 -93t281.5 -266.5t103 -398.5t-102.5 -401t-282 -272.5t-403.5 -96.5zM885 283q182 0 297.5 127.5t115.5 320.5q0 190 -114.5 315
t-298.5 125q-182 0 -297 -125t-115 -315q0 -193 115 -320.5t297 -127.5z" />
    <glyph glyph-name="uni0555055C.liga" unicode="&#x555;&#x55c;" horiz-adv-x="2709" 
d="M2198 1186h-254q0 59 12.5 99t42 68t62 44.5t89.5 36.5q111 39 150 61.5t39 60.5h254q0 -78 -24.5 -128.5t-65 -78t-111.5 -51.5q-16 -5 -40 -13l-36 -12t-30.5 -10.5t-27 -11t-21 -10.5t-18 -11.5t-11.5 -12.5t-8 -14.5t-2 -16.5zM885 -39q-224 0 -403 96.5
t-281.5 272.5t-102.5 401t102.5 398.5t281 266.5t403.5 93t403.5 -93t281.5 -266.5t103 -398.5t-102.5 -401t-282 -272.5t-403.5 -96.5zM885 283q182 0 297.5 127.5t115.5 320.5q0 190 -114.5 315t-298.5 125q-182 0 -297 -125t-115 -315q0 -193 115 -320.5t297 -127.5z" />
    <glyph glyph-name="uni0555055E.liga" unicode="&#x555;&#x55e;" horiz-adv-x="2965" 
d="M2728 1393q0 -108 -89 -172t-233 -64v164q21 0 36.5 11t15.5 28q0 43 -62 43q-78 0 -120 -62t-42 -184h-266q0 203 134 328t333 125q130 0 211.5 -60.5t81.5 -156.5zM885 -39q-224 0 -403 96.5t-281.5 272.5t-102.5 401t102.5 398.5t281 266.5t403.5 93t403.5 -93
t281.5 -266.5t103 -398.5t-102.5 -401t-282 -272.5t-403.5 -96.5zM885 283q182 0 297.5 127.5t115.5 320.5q0 190 -114.5 315t-298.5 125q-182 0 -297 -125t-115 -315q0 -193 115 -320.5t297 -127.5z" />
    <glyph glyph-name="uni0561055B.liga" unicode="&#x561;&#x55b;" horiz-adv-x="1941" 
d="M1970 1614l-325 -342h-254l237 342h342zM131 397v629h338v-553q0 -109 31 -165t112 -56q80 0 128 62t48 169v543h340v-553q0 -109 30.5 -165t111.5 -56q80 0 129 62.5t49 168.5v543h338v-811q0 -139 8 -215h-328q-8 90 -8 150h-4q-40 -81 -118.5 -130t-186.5 -49
q-237 0 -322 207h-4q-40 -87 -131.5 -147t-199.5 -60q-79 0 -141.5 24t-103 64t-67.5 95.5t-38 115.5t-11 127z" />
    <glyph glyph-name="uni0561055C.liga" unicode="&#x561;&#x55c;" horiz-adv-x="1941" 
d="M1686 1243h-254q0 59 12.5 99t41.5 68t61.5 44.5t88.5 36.5q110 38 149.5 61.5t39.5 61.5h254q0 -114 -46.5 -168t-154.5 -90q-125 -43 -144 -53q-48 -24 -48 -60zM131 397v629h338v-553q0 -109 31 -165t112 -56q80 0 128 62t48 169v543h340v-553q0 -109 30.5 -165
t111.5 -56q80 0 129 62.5t49 168.5v543h338v-811q0 -139 8 -215h-328q-8 90 -8 150h-4q-40 -81 -118.5 -130t-186.5 -49q-237 0 -322 207h-4q-40 -87 -131.5 -147t-199.5 -60q-79 0 -141.5 24t-103 64t-67.5 95.5t-38 115.5t-11 127z" />
    <glyph glyph-name="uni0561055E.liga" unicode="&#x561;&#x55e;" horiz-adv-x="1941" 
d="M2216 1450q0 -107 -89.5 -171.5t-232.5 -64.5v164q21 0 36.5 11.5t15.5 29.5q0 43 -62 43q-78 0 -120 -62.5t-42 -185.5h-266q0 203 134 329t333 126q130 0 211.5 -61t81.5 -158zM131 397v629h338v-553q0 -109 31 -165t112 -56q80 0 128 62t48 169v543h340v-553
q0 -109 30.5 -165t111.5 -56q80 0 129 62.5t49 168.5v543h338v-811q0 -139 8 -215h-328q-8 90 -8 150h-4q-40 -81 -118.5 -130t-186.5 -49q-237 0 -322 207h-4q-40 -87 -131.5 -147t-199.5 -60q-79 0 -141.5 24t-103 64t-67.5 95.5t-38 115.5t-11 127z" />
    <glyph glyph-name="uni0561055F.liga" unicode="&#x561;&#x55f;" horiz-adv-x="1941" 
d="M1313 1298h-404q-140 0 -218.5 68t-78.5 180q0 105 90 177.5t226 84.5v-206q-54 -7 -54 -46q0 -43 68 -43h371v-215zM131 397v629h338v-553q0 -109 31 -165t112 -56q80 0 128 62t48 169v543h340v-553q0 -109 30.5 -165t111.5 -56q80 0 129 62.5t49 168.5v543h338v-811
q0 -139 8 -215h-328q-8 90 -8 150h-4q-40 -81 -118.5 -130t-186.5 -49q-237 0 -322 207h-4q-40 -87 -131.5 -147t-199.5 -60q-79 0 -141.5 24t-103 64t-67.5 95.5t-38 115.5t-11 127z" />
    <glyph glyph-name="uni0562055F.liga" unicode="&#x562;&#x55f;" horiz-adv-x="1308" 
d="M1083 1296h-403q-140 0 -218.5 68t-78.5 180q0 105 89.5 177.5t225.5 84.5v-207q-53 -7 -53 -45q0 -43 68 -43h370v-215zM494 547v-287h753v-260h-753v-522h-338v1333q0 129 -9 215h326q8 -90 8 -149h6q38 79 120.5 128.5t191.5 49.5q99 0 173.5 -35.5t116.5 -97
t62 -134.5t20 -157v-199h-337v125q0 105 -37 162t-123 57q-79 0 -129.5 -62.5t-50.5 -166.5z" />
    <glyph glyph-name="uni0563055F.liga" unicode="&#x563;&#x55f;" horiz-adv-x="1609" 
d="M1075 1296h-403q-140 0 -218.5 68t-78.5 180q0 105 89.5 177.5t225.5 84.5v-207q-53 -7 -53 -45q0 -43 68 -43h370v-215zM1217 260h350v-260h-350v-522h-336v522h-236q-246 0 -397.5 137.5t-151.5 376.5q0 142 69 265.5t198.5 200.5t291.5 77q256 0 409 -155t153 -417
v-225zM668 262h213v270q0 112 -58.5 180t-167.5 68q-107 0 -171 -75.5t-64 -190.5q0 -117 64 -184.5t184 -67.5z" />
    <glyph glyph-name="uni0564055F.liga" unicode="&#x564;&#x55f;" horiz-adv-x="1556" 
d="M1174 1298h-404q-140 0 -218.5 68t-78.5 180q0 105 89.5 177.5t225.5 84.5v-206q-53 -7 -53 -46q0 -43 68 -43h371v-215zM1171 631v-371h342v-260h-342v-522h-337v1079q0 105 -37 162t-123 57q-79 0 -129.5 -62.5t-50.5 -166.5v-547h-338v811q0 129 -9 215h326
q8 -90 8 -149h6q38 79 120.5 128.5t191.5 49.5q99 0 173.5 -35.5t116.5 -97t62 -134.5t20 -157z" />
    <glyph glyph-name="uni05650582055F.liga" unicode="&#x565;&#x582;&#x55f;" horiz-adv-x="1525" 
d="M1116 1694h-403q-140 0 -218.5 68t-78.5 180q0 105 89.5 177.5t225.5 84.5v-207q-53 -7 -53 -45q0 -43 67 -43h371v-215zM1141 1026v-766h342v-260h-674v143h-4q-40 -77 -120.5 -124.5t-186.5 -47.5q-80 0 -144 24t-105 64t-68 95.5t-38.5 115.5t-11.5 127v1151h338
v-1075q0 -108 34 -163.5t118 -55.5q79 0 129.5 62.5t50.5 166.5v543h340z" />
    <glyph glyph-name="uni0565055B.liga" unicode="&#x565;&#x55b;" horiz-adv-x="1298" 
d="M1116 1620h342l-325 -342h-254zM131 1548h338v-522h741v-260h-741v-293q0 -107 34.5 -164t117.5 -57q80 0 130 62.5t50 168.5v142h340v-410q0 -139 8 -215h-328q-8 90 -8 150h-4q-40 -80 -121.5 -129.5t-189.5 -49.5q-80 0 -144 24t-105 64t-68 95.5t-38.5 115.5
t-11.5 127v1151z" />
    <glyph glyph-name="uni0565055C.liga" unicode="&#x565;&#x55c;" horiz-adv-x="1298" 
d="M1315 1620h254q0 -114 -46.5 -168t-154.5 -90q-125 -43 -144 -53q-48 -24 -48 -60h-254q0 59 12.5 99t41.5 68t61.5 44.5t88.5 36.5q110 38 149.5 61.5t39.5 61.5zM131 1548h338v-522h741v-260h-741v-293q0 -107 34.5 -164t117.5 -57q80 0 130 62.5t50 168.5v142h340
v-410q0 -139 8 -215h-328q-8 90 -8 150h-4q-40 -80 -121.5 -129.5t-189.5 -49.5q-80 0 -144 24t-105 64t-68 95.5t-38.5 115.5t-11.5 127v1151z" />
    <glyph glyph-name="uni0565055E.liga" unicode="&#x565;&#x55e;" horiz-adv-x="1298" 
d="M1411 1675q130 0 211.5 -61t81.5 -158q0 -107 -89.5 -171t-232.5 -64v163q21 0 36.5 11.5t15.5 29.5q0 43 -62 43q-78 0 -120 -62t-42 -185h-266q0 203 134 328.5t333 125.5zM131 1548h338v-522h741v-260h-741v-293q0 -107 34.5 -164t117.5 -57q80 0 130 62.5t50 168.5
v142h340v-410q0 -139 8 -215h-328q-8 90 -8 150h-4q-40 -80 -121.5 -129.5t-189.5 -49.5q-80 0 -144 24t-105 64t-68 95.5t-38.5 115.5t-11.5 127v1151z" />
    <glyph glyph-name="uni0565055F.liga" unicode="&#x565;&#x55f;" horiz-adv-x="1298" 
d="M1118 1710h-403q-140 0 -218.5 68t-78.5 180q0 105 89.5 177.5t225.5 84.5v-207q-53 -7 -53 -45q0 -43 68 -43h370v-215zM1210 1026v-260h-741v-293q0 -107 34.5 -164t117.5 -57q80 0 130 62.5t50 168.5v142h340v-410q0 -139 8 -215h-328q-8 90 -8 150h-4
q-40 -80 -121.5 -129.5t-189.5 -49.5q-80 0 -144 24t-105 64t-68 95.5t-38.5 115.5t-11.5 127v1151h338v-522h741z" />
    <glyph glyph-name="uni0566055F.liga" unicode="&#x566;&#x55f;" horiz-adv-x="1585" 
d="M1077 1296h-403q-140 0 -218.5 68t-78.5 180q0 105 89.5 177.5t225.5 84.5v-207q-53 -7 -53 -45q0 -43 68 -43h370v-215zM1241 813v-1075h342v-260h-680v643h-4q-51 -66 -135.5 -102.5t-177.5 -36.5q-149 0 -262.5 75.5t-170.5 196t-57 264.5q0 104 33.5 200.5t95 171.5
t155.5 120t206 45q94 0 179.5 -41.5t141.5 -118.5h6q0 30 9 131h325q-6 -57 -6 -213zM666 262q114 0 184 73.5t70 184.5q0 106 -71.5 181t-182.5 75q-113 0 -179.5 -73.5t-66.5 -182.5t66.5 -183.5t179.5 -74.5z" />
    <glyph glyph-name="uni0567055F.liga" unicode="&#x567;&#x55f;" horiz-adv-x="1236" 
d="M1071 1724h-403q-140 0 -218.5 68t-78.5 180q0 105 89.5 177.5t225.5 84.5v-206q-53 -7 -53 -46q0 -43 67 -43h371v-215zM1167 1026v-260h-671v-420q114 29 202 29q189 0 306.5 -101.5t117.5 -269.5q0 -188 -139.5 -305.5t-376.5 -118.5v260q91 1 142 41.5t51 102.5
q0 114 -158 114q-156 0 -483 -100v1550h338v-522h671z" />
    <glyph glyph-name="uni0568055B.liga" unicode="&#x568;&#x55b;" horiz-adv-x="1314" 
d="M1120 1614h342l-325 -342h-254zM799 1055q99 0 173.5 -35.5t116.5 -97t62 -134.5t20 -157v-631h-337v557q0 105 -37 162t-123 57q-79 0 -129.5 -62.5t-50.5 -166.5v-809h675v-260h-1013v1333q0 129 -9 215h326q8 -90 8 -149h6q38 79 120.5 128.5t191.5 49.5z" />
    <glyph glyph-name="uni0568055C.liga" unicode="&#x568;&#x55c;" horiz-adv-x="1314" 
d="M1319 1614h254q0 -114 -46.5 -168t-154.5 -90q-125 -43 -144 -53q-48 -24 -48 -60h-254q0 59 12.5 99t41.5 68t61.5 44.5t88.5 36.5q110 38 149.5 61.5t39.5 61.5zM799 1055q99 0 173.5 -35.5t116.5 -97t62 -134.5t20 -157v-631h-337v557q0 105 -37 162t-123 57
q-79 0 -129.5 -62.5t-50.5 -166.5v-809h675v-260h-1013v1333q0 129 -9 215h326q8 -90 8 -149h6q38 79 120.5 128.5t191.5 49.5z" />
    <glyph glyph-name="uni0568055E.liga" unicode="&#x568;&#x55e;" horiz-adv-x="1314" 
d="M1415 1667q130 0 211.5 -61t81.5 -158q0 -107 -89.5 -171.5t-232.5 -64.5v164q21 0 36.5 11.5t15.5 29.5q0 43 -62 43q-78 0 -120 -62.5t-42 -185.5h-266q0 203 134 329t333 126zM799 1055q99 0 173.5 -35.5t116.5 -97t62 -134.5t20 -157v-631h-337v557q0 105 -37 162
t-123 57q-79 0 -129.5 -62.5t-50.5 -166.5v-809h675v-260h-1013v1333q0 129 -9 215h326q8 -90 8 -149h6q38 79 120.5 128.5t191.5 49.5z" />
    <glyph glyph-name="uni0568055F.liga" unicode="&#x568;&#x55f;" horiz-adv-x="1314" 
d="M1165 1296h-403q-140 0 -218.5 68t-78.5 180q0 105 89.5 177.5t225.5 84.5v-207q-53 -7 -53 -45q0 -43 68 -43h370v-215zM1171 631v-631h-337v557q0 105 -37 162t-123 57q-79 0 -129.5 -62.5t-50.5 -166.5v-809h675v-260h-1013v1333q0 129 -9 215h326q8 -90 8 -149h6
q38 79 120.5 128.5t191.5 49.5q99 0 173.5 -35.5t116.5 -97t62 -134.5t20 -157z" />
    <glyph glyph-name="uni0569055F.liga" unicode="&#x569;&#x55f;" horiz-adv-x="1640" 
d="M1167 1296h-403q-140 0 -218.5 68t-78.5 180q0 105 89.5 177.5t225.5 84.5v-207q-53 -7 -53 -45q0 -43 68 -43h370v-215zM156 811v-1333h338v977q0 96 34 170t90 115t117.5 61t126.5 20q106 0 177 -44.5t96 -127.5q-57 2 -148 2q-168 0 -279.5 -95.5t-111.5 -256.5
q0 -151 106 -239.5t275 -88.5q185 0 316.5 123t154.5 318l145 -11v217l-135 13q-31 189 -176 306.5t-350 117.5q-140 0 -264 -55.5t-181 -122.5h-6q0 59 -8 149h-326q9 -86 9 -215zM983 201q-49 0 -81 27.5t-32 78.5q0 125 160 125q34 0 113 -6q-6 -111 -49.5 -168
t-110.5 -57z" />
    <glyph glyph-name="uni056A055F.liga" unicode="&#x56a;&#x55f;" horiz-adv-x="1605" 
d="M1102 1724h-404q-140 0 -218.5 68t-78.5 180q0 105 90 177.5t226 84.5v-206q-53 -7 -53 -46q0 -43 67 -43h371v-215zM1217 1026h350v-260h-350v-227q0 -262 -153.5 -418t-408.5 -156t-406 149t-151 392q0 158 76 277.5t206 181t294 61.5h207v522h336v-522zM655 244
q113 0 169.5 70t56.5 198v254h-207q-120 0 -186 -72.5t-66 -189.5q0 -113 64 -187t169 -73z" />
    <glyph glyph-name="uni056B055B.liga" unicode="&#x56b;&#x55b;" horiz-adv-x="1325" 
d="M1495 1614l-326 -342h-254l238 342h342zM164 -522v2070h340v-655h4q39 69 120.5 115.5t180.5 46.5q80 0 144.5 -24t106.5 -64t70 -95t40 -115t12 -126v-631h-338v555q0 106 -37 162.5t-123 56.5q-78 0 -129 -61.5t-51 -167.5v-1067h-340z" />
    <glyph glyph-name="uni056B055C.liga" unicode="&#x56b;&#x55c;" horiz-adv-x="1325" 
d="M1210 1243h-254q0 59 12.5 99t42 68t62 44.5t88.5 36.5q110 38 149.5 61.5t39.5 61.5h254q0 -114 -46.5 -168t-154.5 -90l-39 -13l-36 -12t-30 -11t-27 -11t-21 -10.5t-18 -11.5t-12 -12t-8 -15t-2 -17zM164 -522v2070h340v-655h4q39 69 120.5 115.5t180.5 46.5
q80 0 144.5 -24t106.5 -64t70 -95t40 -115t12 -126v-631h-338v555q0 106 -37 162.5t-123 56.5q-78 0 -129 -61.5t-51 -167.5v-1067h-340z" />
    <glyph glyph-name="uni056B055E.liga" unicode="&#x56b;&#x55e;" horiz-adv-x="1325" 
d="M1741 1450q0 -107 -89.5 -171.5t-232.5 -64.5v164q21 0 36 11.5t15 29.5q0 43 -61 43q-78 0 -120 -62.5t-42 -185.5h-266q0 203 134 329t333 126q130 0 211.5 -61t81.5 -158zM164 -522v2070h340v-655h4q39 69 120.5 115.5t180.5 46.5q80 0 144.5 -24t106.5 -64t70 -95
t40 -115t12 -126v-631h-338v555q0 106 -37 162.5t-123 56.5q-78 0 -129 -61.5t-51 -167.5v-1067h-340z" />
    <glyph glyph-name="uni056B055F.liga" unicode="&#x56b;&#x55f;" horiz-adv-x="1325" 
d="M991 1724h-403q-140 0 -218.5 68t-78.5 180q0 105 89.5 177.5t225.5 84.5v-206q-53 -7 -53 -46q0 -43 68 -43h370v-215zM164 -522v2070h340v-655h4q39 69 120.5 115.5t180.5 46.5q80 0 144.5 -24t106.5 -64t70 -95t40 -115t12 -126v-631h-338v555q0 106 -37 162.5
t-123 56.5q-78 0 -129 -61.5t-51 -167.5v-1067h-340z" />
    <glyph glyph-name="uni056C055F.liga" unicode="&#x56c;&#x55f;" horiz-adv-x="892" 
d="M827 1511v-215h-401q-142 0 -219.5 67.5t-77.5 180.5q0 105 89.5 177.5t225.5 84.5v-204q-53 -11 -53 -48q0 -43 66 -43h370zM535 1026v-1288h339v-260h-679v1548h340z" />
    <glyph glyph-name="uni056D055F.liga" unicode="&#x56d;&#x55f;" horiz-adv-x="1939" 
d="M1423 1724h-403q-140 0 -218.5 68t-78.5 180q0 105 89.5 177.5t225.5 84.5v-206q-53 -7 -53 -46q0 -43 68 -43h370v-215zM158 -522v2070h338v-647h4q38 69 110 111.5t174 42.5q85 0 149.5 -30.5t103.5 -84.5t58 -123.5t19 -152.5l-2 -191q0 -109 33.5 -165t118.5 -56
q80 0 130 62.5t50 168.5v543h340v-811q0 -139 8 -215h-328q-8 90 -8 150h-4q-40 -80 -121.5 -129.5t-191.5 -49.5q-100 0 -172.5 33.5t-113 93t-59 130.5t-18.5 157v211q0 180 -125 180q-69 0 -112 -59.5t-43 -167.5v-1071h-338z" />
    <glyph glyph-name="uni056E055F.liga" unicode="&#x56e;&#x55f;" horiz-adv-x="1343" 
d="M1032 1724h-403q-140 0 -218.5 68t-78.5 180q0 105 89.5 177.5t225.5 84.5v-206q-53 -7 -53 -46q0 -43 68 -43h370v-215zM963 1026h329v-260h-141q57 -122 57 -272q0 -146 -72.5 -267t-201 -191.5t-285.5 -70.5q-160 0 -287 65t-199.5 186.5t-72.5 279.5q0 104 39.5 193
t107.5 152t153.5 106t184.5 63q-119 119 -284 278l252 273l192 -164l-61 -70q11 -12 67.5 -68.5t113 -115.5t108.5 -117zM891 489q0 146 -94 277h-64q-151 0 -236 -72.5t-85 -199.5q0 -115 60.5 -182.5t172.5 -67.5q117 0 181.5 66.5t64.5 178.5z" />
    <glyph glyph-name="uni056F055F.liga" unicode="&#x56f;&#x55f;" horiz-adv-x="1298" 
d="M1006 1724h-404q-140 0 -218.5 68t-78.5 180q0 105 90 177.5t226 84.5v-206q-54 -7 -54 -46q0 -43 68 -43h371v-215zM131 397v1151h338v-1075q0 -108 34 -163.5t118 -55.5q79 0 129.5 62.5t50.5 166.5v543h340v-1548h-340v665h-4q-39 -77 -116 -124.5t-183 -47.5
q-80 0 -144 24t-105 64t-68 95.5t-38.5 115.5t-11.5 127z" />
    <glyph glyph-name="uni0570055F.liga" unicode="&#x570;&#x55f;" horiz-adv-x="1265" 
d="M995 1741h-403q-140 0 -218.5 68t-78.5 180q0 105 89.5 177.5t225.5 84.5v-207q-53 -7 -53 -45q0 -43 68 -43h370v-215zM1145 0h-338v406q0 198 -150 198q-86 0 -138 -73.5t-52 -204.5h-338v587q0 326 162.5 497t447.5 171q251 0 435 -156l-179 -243q-68 62 -124.5 91.5
t-125.5 29.5q-127 0 -204.5 -100.5t-77.5 -280.5v-209h4q40 75 120.5 122.5t184.5 47.5q80 0 144.5 -23.5t106.5 -63.5t70 -95t40 -115t12 -127v-459z" />
    <glyph glyph-name="uni0571055F.liga" unicode="&#x571;&#x55f;" horiz-adv-x="1376" 
d="M1057 1724h-404q-140 0 -218.5 68t-78.5 180q0 105 90 177.5t226 84.5v-206q-54 -7 -54 -46q0 -43 68 -43h371v-215zM561 -37q-94 0 -177.5 27.5t-148 78t-102 128.5t-37.5 172q0 67 20.5 128t51 108.5t82.5 98t99 87t116 83.5q22 15 60 41t61 42t54 38t49 37.5
t36.5 32.5t26.5 30.5t8 24.5q0 32 -47 48q-25 8 -168 34q-287 49 -287 205q0 102 123 178l221 -96q-24 -16 -24 -37q0 -27 63 -43q18 -5 154 -29q154 -28 224.5 -83.5t70.5 -151.5q0 -106 -132 -219l396 -926h-320l-53 113q-197 -150 -420 -150zM623 217q76 0 149 29.5
t125 70.5l-180 420l-111 -80q-47 -36 -73.5 -59t-56 -56.5t-43 -68.5t-13.5 -76q0 -83 55.5 -131.5t147.5 -48.5z" />
    <glyph glyph-name="uni0572055F.liga" unicode="&#x572;&#x55f;" horiz-adv-x="1511" 
d="M1184 1298h-404q-140 0 -218.5 68t-78.5 180q0 105 90 177.5t226 84.5v-206q-54 -7 -54 -46q0 -43 68 -43h371v-215zM1171 631v-893h340v-260h-677v1079q0 105 -37 162t-123 57q-79 0 -129.5 -62.5t-50.5 -166.5v-547h-338v811q0 129 -9 215h326q8 -90 8 -149h6
q38 79 120.5 128.5t191.5 49.5q99 0 173.5 -35.5t116.5 -97t62 -134.5t20 -157z" />
    <glyph glyph-name="uni0573055F.liga" unicode="&#x573;&#x55f;" horiz-adv-x="1374" 
d="M1069 1724h-403q-140 0 -218.5 68t-78.5 180q0 105 89.5 177.5t225.5 84.5v-206q-53 -7 -53 -46q0 -43 67 -43h371v-215zM612 1051q331 -4 498.5 -173t167.5 -472q0 -338 10 -406h-342q-8 74 -8 129h-4q-48 -67 -136 -112.5t-192 -45.5q-213 0 -330.5 147t-117.5 404
q0 125 16 256q-88 -7 -125 -12v260q8 1 187 14q84 249 244.5 391t377.5 142q258 0 445 -182l-162 -215q-35 35 -66.5 59.5t-88 47t-118.5 22.5q-198 0 -297 -254h41zM936 340v82q0 370 -389 375h-35q-16 -134 -16 -275q0 -136 57 -203t154 -67q75 0 126.5 23.5t102.5 64.5z
" />
    <glyph glyph-name="uni05740565055B.liga" unicode="&#x574;&#x565;&#x55b;" horiz-adv-x="2600" 
d="M2421 1620h342l-326 -342h-254zM1774 1497v-471h739v-260h-739v-293q0 -108 33.5 -164.5t117.5 -56.5q79 0 129.5 62.5t50.5 168.5v142h338v-410q0 -139 8 -215h-327q-8 90 -8 150h-5q-40 -80 -121.5 -129.5t-189.5 -49.5q-99 0 -172 35.5t-114 97.5t-60.5 135t-19.5 158
v873q-295 39 -365 39q-35 0 -57.5 -21t-22.5 -55q0 -23 15.5 -51.5t38 -61.5t45 -73t38 -98.5t15.5 -125.5v-608q0 -139 8 -215h-328q-8 90 -8 150h-4q-40 -80 -121.5 -129.5t-189.5 -49.5q-80 0 -144 24t-105 64t-68 95.5t-38.5 115.5t-11.5 127v629h338v-553
q0 -107 34.5 -164t117.5 -57q80 0 130 62.5t50 168.5l2 348q0 65 -15 118t-36 87.5t-42 67t-36 73.5t-15 89q0 130 93.5 218.5t238.5 88.5q52 0 133 -5.5t182 -16.5t174.5 -19t175 -20.5t118.5 -14.5z" />
    <glyph glyph-name="uni05740565055C.liga" unicode="&#x574;&#x565;&#x55c;" horiz-adv-x="2600" 
d="M2617 1620h254q0 -114 -46.5 -168t-153.5 -90l-39 -13l-36 -12t-30 -11t-27 -11t-21 -10.5t-18 -11.5t-12 -12t-8 -15t-2 -17h-254q0 59 12.5 99t42 68t62 44.5t88.5 36.5q109 38 148.5 61.5t39.5 61.5zM1774 1497v-471h739v-260h-739v-293q0 -108 33.5 -164.5
t117.5 -56.5q79 0 129.5 62.5t50.5 168.5v142h338v-410q0 -139 8 -215h-327q-8 90 -8 150h-5q-40 -80 -121.5 -129.5t-189.5 -49.5q-99 0 -172 35.5t-114 97.5t-60.5 135t-19.5 158v873q-295 39 -365 39q-35 0 -57.5 -21t-22.5 -55q0 -23 15.5 -51.5t38 -61.5t45 -73
t38 -98.5t15.5 -125.5v-608q0 -139 8 -215h-328q-8 90 -8 150h-4q-40 -80 -121.5 -129.5t-189.5 -49.5q-80 0 -144 24t-105 64t-68 95.5t-38.5 115.5t-11.5 127v629h338v-553q0 -107 34.5 -164t117.5 -57q80 0 130 62.5t50 168.5l2 348q0 65 -15 118t-36 87.5t-42 67
t-36 73.5t-15 89q0 130 93.5 218.5t238.5 88.5q52 0 133 -5.5t182 -16.5t174.5 -19t175 -20.5t118.5 -14.5z" />
    <glyph glyph-name="uni05740565055E.liga" unicode="&#x574;&#x565;&#x55e;" horiz-adv-x="2600" 
d="M2716 1675q130 0 211.5 -61t81.5 -158q0 -107 -89.5 -171t-232.5 -64v163q21 0 36 11.5t15 29.5q0 43 -61 43q-78 0 -120 -62t-42 -185h-266q0 203 134 328.5t333 125.5zM1774 1497v-471h739v-260h-739v-293q0 -108 33.5 -164.5t117.5 -56.5q79 0 129.5 62.5t50.5 168.5
v142h338v-410q0 -139 8 -215h-327q-8 90 -8 150h-5q-40 -80 -121.5 -129.5t-189.5 -49.5q-99 0 -172 35.5t-114 97.5t-60.5 135t-19.5 158v873q-295 39 -365 39q-35 0 -57.5 -21t-22.5 -55q0 -23 15.5 -51.5t38 -61.5t45 -73t38 -98.5t15.5 -125.5v-608q0 -139 8 -215h-328
q-8 90 -8 150h-4q-40 -80 -121.5 -129.5t-189.5 -49.5q-80 0 -144 24t-105 64t-68 95.5t-38.5 115.5t-11.5 127v629h338v-553q0 -107 34.5 -164t117.5 -57q80 0 130 62.5t50 168.5l2 348q0 65 -15 118t-36 87.5t-42 67t-36 73.5t-15 89q0 130 93.5 218.5t238.5 88.5
q52 0 133 -5.5t182 -16.5t174.5 -19t175 -20.5t118.5 -14.5z" />
    <glyph glyph-name="uni05740565055F.liga" unicode="&#x574;&#x565;&#x55f;" horiz-adv-x="2600" 
d="M1610 1729h-404q-140 0 -218.5 67.5t-78.5 179.5q0 105 90 177.5t226 84.5v-206q-54 -7 -54 -45q0 -43 68 -43h371v-215zM2513 1026v-260h-739v-293q0 -108 33.5 -164.5t117.5 -56.5q79 0 129.5 62.5t50.5 168.5v142h338v-410q0 -139 8 -215h-327q-8 90 -8 150h-5
q-40 -80 -121.5 -129.5t-189.5 -49.5q-99 0 -172 35.5t-114 97.5t-60.5 135t-19.5 158v873q-295 39 -365 39q-35 0 -57.5 -21t-22.5 -55q0 -23 15.5 -51.5t38 -61.5t45 -73t38 -98.5t15.5 -125.5v-608q0 -139 8 -215h-328q-8 90 -8 150h-4q-40 -80 -121.5 -129.5
t-189.5 -49.5q-80 0 -144 24t-105 64t-68 95.5t-38.5 115.5t-11.5 127v629h338v-553q0 -107 34.5 -164t117.5 -57q80 0 130 62.5t50 168.5l2 348q0 65 -15 118t-36 87.5t-42 67t-36 73.5t-15 89q0 130 93.5 218.5t238.5 88.5q52 0 133 -5.5t182 -16.5t174.5 -19t175 -20.5
t118.5 -14.5v-471h739z" />
    <glyph glyph-name="uni05740567.liga" unicode="&#x574;&#x567;" horiz-adv-x="2523" 
d="M1892 -444v284q90 1 140.5 41.5t50.5 102.5q0 114 -158 114q-150 0 -483 -100v1272q-88 13 -209.5 26t-163.5 13q-35 0 -57.5 -21t-22.5 -55q0 -23 15.5 -51.5t38 -61.5t45 -73t38 -98.5t15.5 -125.5v-608q0 -139 8 -215h-328q-8 90 -8 150h-4q-40 -80 -121.5 -129.5
t-189.5 -49.5q-80 0 -144 24t-105 64t-68 95.5t-38.5 115.5t-11.5 127v629h338v-553q0 -107 34.5 -164t117.5 -57q80 0 130 62.5t50 168.5l2 348q0 65 -15 118t-36 87.5t-42 67t-36 73.5t-15 89q0 130 93.5 218.5t238.5 88.5q52 0 132.5 -5.5t185.5 -16.5t174.5 -19t178 -21
t118.5 -14v-1157q127 31 225 31q179 0 292 -102t113 -269q0 -124 -62.5 -224t-181.5 -159.5t-274 -60.5zM2103 766l-323 184l350 76l324 -184z" />
    <glyph glyph-name="uni05740567055F.liga" unicode="&#x574;&#x567;&#x55f;" horiz-adv-x="2523" 
d="M1599 1729h-403q-140 0 -218.5 67.5t-78.5 179.5q0 105 89.5 177.5t225.5 84.5v-206q-53 -7 -53 -45q0 -43 68 -43h370v-215zM1892 -444v284q90 1 140.5 41.5t50.5 102.5q0 114 -158 114q-150 0 -483 -100v1272q-88 13 -209.5 26t-163.5 13q-35 0 -57.5 -21t-22.5 -55
q0 -23 15.5 -51.5t38 -61.5t45 -73t38 -98.5t15.5 -125.5v-608q0 -139 8 -215h-328q-8 90 -8 150h-4q-40 -80 -121.5 -129.5t-189.5 -49.5q-80 0 -144 24t-105 64t-68 95.5t-38.5 115.5t-11.5 127v629h338v-553q0 -107 34.5 -164t117.5 -57q80 0 130 62.5t50 168.5l2 348
q0 65 -15 118t-36 87.5t-42 67t-36 73.5t-15 89q0 130 93.5 218.5t238.5 88.5q52 0 132.5 -5.5t185.5 -16.5t174.5 -19t178 -21t118.5 -14v-1157q127 31 225 31q179 0 292 -102t113 -269q0 -124 -62.5 -224t-181.5 -159.5t-274 -60.5zM2103 766l-323 184l350 76l324 -184z
" />
    <glyph glyph-name="uni0574056B055B.liga" unicode="&#x574;&#x56b;&#x55b;" horiz-adv-x="2605" 
d="M2773 1614l-326 -342h-254l238 342h342zM1784 -522h-338v1792q-304 39 -377 39q-35 0 -57.5 -21t-22.5 -55q0 -23 15.5 -51.5t38 -61.5t45 -73t38 -98.5t15.5 -125.5v-608q0 -139 8 -215h-328q-8 90 -8 150h-4q-40 -80 -121.5 -129.5t-189.5 -49.5q-80 0 -144 24t-105 64
t-68 95.5t-38.5 115.5t-11.5 127v629h338v-553q0 -107 34.5 -164t117.5 -57q80 0 130 62.5t50 168.5l2 348q0 65 -15 118t-36 87.5t-42 67t-36 73.5t-15 89q0 130 93.5 218.5t238.5 88.5q143 0 793 -76v-604h4q39 69 120.5 115.5t180.5 46.5q81 0 145.5 -24t106.5 -64
t70 -95t39.5 -114.5t11.5 -126.5v-631h-338v555q0 107 -36 163t-122 56q-79 0 -130.5 -61.5t-51.5 -167.5v-1067z" />
    <glyph glyph-name="uni0574056B055C.liga" unicode="&#x574;&#x56b;&#x55c;" horiz-adv-x="2605" 
d="M2488 1243h-254q0 59 12.5 99t42 68t62 44.5t88.5 36.5q110 38 149.5 61.5t39.5 61.5h254q0 -114 -46.5 -168t-154.5 -90l-39 -13l-36 -12t-30 -11t-27 -11t-21 -10.5t-18 -11.5t-12 -12t-8 -15t-2 -17zM1784 -522h-338v1792q-304 39 -377 39q-35 0 -57.5 -21t-22.5 -55
q0 -23 15.5 -51.5t38 -61.5t45 -73t38 -98.5t15.5 -125.5v-608q0 -139 8 -215h-328q-8 90 -8 150h-4q-40 -80 -121.5 -129.5t-189.5 -49.5q-80 0 -144 24t-105 64t-68 95.5t-38.5 115.5t-11.5 127v629h338v-553q0 -107 34.5 -164t117.5 -57q80 0 130 62.5t50 168.5l2 348
q0 65 -15 118t-36 87.5t-42 67t-36 73.5t-15 89q0 130 93.5 218.5t238.5 88.5q143 0 793 -76v-604h4q39 69 120.5 115.5t180.5 46.5q81 0 145.5 -24t106.5 -64t70 -95t39.5 -114.5t11.5 -126.5v-631h-338v555q0 107 -36 163t-122 56q-79 0 -130.5 -61.5t-51.5 -167.5v-1067z
" />
    <glyph glyph-name="uni0574056B055E.liga" unicode="&#x574;&#x56b;&#x55e;" horiz-adv-x="2605" 
d="M3019 1450q0 -107 -89.5 -171.5t-232.5 -64.5v164q21 0 36 11.5t15 29.5q0 43 -61 43q-78 0 -120 -62.5t-42 -185.5h-266q0 203 134 329t333 126q130 0 211.5 -61t81.5 -158zM1784 -522h-338v1792q-304 39 -377 39q-35 0 -57.5 -21t-22.5 -55q0 -23 15.5 -51.5t38 -61.5
t45 -73t38 -98.5t15.5 -125.5v-608q0 -139 8 -215h-328q-8 90 -8 150h-4q-40 -80 -121.5 -129.5t-189.5 -49.5q-80 0 -144 24t-105 64t-68 95.5t-38.5 115.5t-11.5 127v629h338v-553q0 -107 34.5 -164t117.5 -57q80 0 130 62.5t50 168.5l2 348q0 65 -15 118t-36 87.5t-42 67
t-36 73.5t-15 89q0 130 93.5 218.5t238.5 88.5q143 0 793 -76v-604h4q39 69 120.5 115.5t180.5 46.5q81 0 145.5 -24t106.5 -64t70 -95t39.5 -114.5t11.5 -126.5v-631h-338v555q0 107 -36 163t-122 56q-79 0 -130.5 -61.5t-51.5 -167.5v-1067z" />
    <glyph glyph-name="uni0574056B055F.liga" unicode="&#x574;&#x56b;&#x55f;" horiz-adv-x="2605" 
d="M1784 1729h-404q-140 0 -218.5 67.5t-78.5 179.5q0 105 90 177.5t226 84.5v-206q-53 -7 -53 -45q0 -43 67 -43h371v-215zM1784 -522h-338v1792q-304 39 -377 39q-35 0 -57.5 -21t-22.5 -55q0 -23 15.5 -51.5t38 -61.5t45 -73t38 -98.5t15.5 -125.5v-608q0 -139 8 -215
h-328q-8 90 -8 150h-4q-40 -80 -121.5 -129.5t-189.5 -49.5q-80 0 -144 24t-105 64t-68 95.5t-38.5 115.5t-11.5 127v629h338v-553q0 -107 34.5 -164t117.5 -57q80 0 130 62.5t50 168.5l2 348q0 65 -15 118t-36 87.5t-42 67t-36 73.5t-15 89q0 130 93.5 218.5t238.5 88.5
q143 0 793 -76v-604h4q39 69 120.5 115.5t180.5 46.5q81 0 145.5 -24t106.5 -64t70 -95t39.5 -114.5t11.5 -126.5v-631h-338v555q0 107 -36 163t-122 56q-79 0 -130.5 -61.5t-51.5 -167.5v-1067z" />
    <glyph glyph-name="uni0574056D055F.liga" unicode="&#x574;&#x56d;&#x55f;" horiz-adv-x="3225" 
d="M1927 1724h-403q-140 0 -218.5 68t-78.5 180q0 105 89.5 177.5t225.5 84.5v-206q-53 -7 -53 -46q0 -43 67 -43h371v-215zM1782 -522h-340v1792q-84 13 -207.5 26t-165.5 13q-35 0 -57.5 -21t-22.5 -55q0 -23 15.5 -51.5t38 -61.5t45 -73t38 -98.5t15.5 -125.5v-608
q0 -139 8 -215h-328q-8 90 -8 150h-4q-40 -80 -121.5 -129.5t-189.5 -49.5q-80 0 -144 24t-105 64t-68 95.5t-38.5 115.5t-11.5 127v629h338v-553q0 -107 34.5 -164t117.5 -57q80 0 130 62.5t50 168.5l2 348q0 65 -15 118t-36 87.5t-42 67t-36 73.5t-15 89q0 130 93.5 218.5
t238.5 88.5q52 0 132.5 -5.5t186.5 -16.5t174 -18.5t179.5 -21t118.5 -14.5v-596h4q38 69 110.5 111.5t174.5 42.5q112 0 188 -54t108.5 -139.5t32.5 -197.5l-2 -191q0 -109 33.5 -165t118.5 -56q80 0 130 62.5t50 168.5v543h338v-811q0 -139 8 -215h-326q-8 90 -8 150h-4
q-40 -80 -122 -129.5t-191 -49.5q-100 0 -173 33.5t-113.5 93t-59.5 130.5t-19 157v211q0 180 -123 180q-69 0 -112 -59.5t-43 -167.5v-1071z" />
    <glyph glyph-name="uni0574056F.liga" unicode="&#x574;&#x56f;" horiz-adv-x="2592" 
d="M2433 -522h-338v665h-4q-39 -78 -116 -125t-185 -47q-80 0 -143 24t-104 64t-68 95.5t-38.5 115.5t-11.5 127v879q-257 33 -356 33q-35 0 -57.5 -21t-22.5 -55q0 -23 15.5 -51.5t38 -61.5t45 -73t38 -98.5t15.5 -125.5v-608q0 -139 8 -215h-328q-8 90 -8 150h-4
q-40 -80 -121.5 -129.5t-189.5 -49.5q-80 0 -144 24t-105 64t-68 95.5t-38.5 115.5t-11.5 127v629h338v-553q0 -107 34.5 -164t117.5 -57q80 0 130 62.5t50 168.5l2 348q0 65 -15 118t-36 87.5t-42 67t-36 73.5t-15 89q0 130 93.5 218.5t238.5 88.5q64 0 184 -10.5t206 -20
t229.5 -27t152.5 -18.5v-1024q0 -107 33.5 -163t116.5 -56q79 0 130.5 62.5t51.5 166.5v543h338v-1548z" />
    <glyph glyph-name="uni0574056F055F.liga" unicode="&#x574;&#x56f;&#x55f;" horiz-adv-x="2592" 
d="M1599 1729h-403q-140 0 -218.5 67.5t-78.5 179.5q0 105 89.5 177.5t225.5 84.5v-206q-53 -7 -53 -45q0 -43 68 -43h370v-215zM2433 -522h-338v665h-4q-39 -78 -116 -125t-185 -47q-80 0 -143 24t-104 64t-68 95.5t-38.5 115.5t-11.5 127v879q-257 33 -356 33
q-35 0 -57.5 -21t-22.5 -55q0 -23 15.5 -51.5t38 -61.5t45 -73t38 -98.5t15.5 -125.5v-608q0 -139 8 -215h-328q-8 90 -8 150h-4q-40 -80 -121.5 -129.5t-189.5 -49.5q-80 0 -144 24t-105 64t-68 95.5t-38.5 115.5t-11.5 127v629h338v-553q0 -107 34.5 -164t117.5 -57
q80 0 130 62.5t50 168.5l2 348q0 65 -15 118t-36 87.5t-42 67t-36 73.5t-15 89q0 130 93.5 218.5t238.5 88.5q64 0 184 -10.5t206 -20t229.5 -27t152.5 -18.5v-1024q0 -107 33.5 -163t116.5 -56q79 0 130.5 62.5t51.5 166.5v543h338v-1548z" />
    <glyph glyph-name="uni05740576055F.liga" unicode="&#x574;&#x576;&#x55f;" horiz-adv-x="2590" 
d="M1552 1733h-403q-140 0 -218.5 67.5t-78.5 179.5q0 105 89.5 178t225.5 85v-207q-53 -7 -53 -45q0 -43 68 -43h370v-215zM498 -29q-80 0 -144 24t-105 64t-68 95.5t-38.5 115.5t-11.5 127v629h338v-553q0 -107 34.5 -164t117.5 -57q80 0 130 62.5t50 168.5l2 348
q0 65 -15 118t-36 87.5t-42 67t-36 73.5t-15 89q0 130 93.5 218.5t238.5 88.5q210 0 709 -78l49 -129q-31 -33 -43 -52.5t-12 -45.5q0 -36 26 -59t82 -23h119q-104 -282 -140 -418q-44 -171 -44 -293q0 -223 168 -223q83 0 137.5 64.5t54.5 168.5v541h338v-811
q0 -139 8 -215h-327q-9 101 -9 150h-4q-42 -75 -124 -127t-187 -52q-193 0 -295 118.5t-102 318.5q0 84 16.5 175.5t48 184.5t47 134t43.5 108q-74 0 -139 67t-65 152q0 23 4 43q-206 37 -281 37q-35 0 -57.5 -21t-22.5 -55q0 -23 15.5 -51.5t38 -61.5t45 -73t38 -98.5
t15.5 -125.5v-608q0 -139 8 -215h-328q-8 90 -8 150h-4q-40 -80 -121.5 -129.5t-189.5 -49.5z" />
    <glyph glyph-name="uni0574055F.liga" unicode="&#x574;&#x55f;" horiz-adv-x="1290" 
d="M877 1724h-404q-140 0 -218.5 68t-78.5 180q0 105 90 177.5t226 84.5v-206q-54 -7 -54 -46q0 -43 68 -43h371v-215zM498 -29q-80 0 -144 24t-105 64t-68 95.5t-38.5 115.5t-11.5 127v629h338v-553q0 -107 34.5 -164t117.5 -57q80 0 130 62.5t50 168.5v361
q0 78 -21.5 141.5t-47 98.5t-47 84.5t-21.5 103.5q0 128 95 214.5t232 86.5q121 0 240 -51l-78 -262q-50 26 -86 26q-35 0 -57.5 -21.5t-22.5 -54.5q0 -23 16 -48t38.5 -52.5t45 -62.5t38.5 -90.5t16 -122.5v-619q0 -139 8 -215h-328q-8 90 -8 150h-4q-40 -80 -121.5 -129.5
t-189.5 -49.5z" />
    <glyph glyph-name="uni0575055F.liga" unicode="&#x575;&#x55f;" horiz-adv-x="743" 
d="M700 1296h-401q-141 0 -219 68t-78 180q0 105 89 178.5t224 85.5v-206q-53 -11 -53 -46q0 -43 68 -43h370v-217zM227 262v764h338v-764q0 -78 14.5 -144.5t32.5 -105.5t32.5 -95.5t14.5 -117.5q0 -105 -60.5 -184.5t-155 -118.5t-205.5 -39q-62 0 -117 11l20 270
q40 -8 66 -8q52 0 83.5 29t31.5 81q0 38 -15 81.5t-32.5 81t-32.5 107t-15 152.5z" />
    <glyph glyph-name="uni0576055F.liga" unicode="&#x576;&#x55f;" horiz-adv-x="1296" 
d="M1022 1729h-404q-140 0 -218 67.5t-78 179.5q0 105 89.5 177.5t225.5 84.5v-206q-53 -7 -53 -45q0 -43 67 -43h371v-215zM498 -29q-193 0 -295.5 119t-102.5 318q0 84 16.5 175t48.5 185.5t47 133t44 108.5q-77 8 -143 81t-66 171q0 136 148 297l260 -193
q-30 -32 -42 -52t-12 -46q0 -36 25.5 -59t81.5 -23h119q-102 -277 -137 -404q-48 -180 -48 -307q0 -223 168 -223q84 0 138.5 64t54.5 169v541h338v-811q0 -139 8 -215h-328q-8 90 -8 150h-4q-42 -75 -124 -127t-187 -52z" />
    <glyph glyph-name="uni0577055F.liga" unicode="&#x577;&#x55f;" horiz-adv-x="1116" 
d="M969 1307h-404q-140 0 -218.5 67.5t-78.5 179.5q0 105 90 178t226 85v-207q-54 -7 -54 -45q0 -43 68 -43h371v-215zM233 647l-170 227q91 76 213.5 131.5t260.5 55.5q214 0 351.5 -118t137.5 -292q0 -71 -18 -135t-46 -113.5t-78 -102.5t-97.5 -93.5t-120.5 -95.5
q-156 -115 -223.5 -180.5t-67.5 -123.5q0 -75 125 -75l512 -2v-252h-609q-180 0 -276 76.5t-96 212.5q0 62 29.5 125.5t86.5 126t113.5 112.5t136.5 111q86 66 132 104t88.5 83.5t58.5 85t16 85.5q0 82 -53.5 130t-142.5 48q-117 0 -263 -131z" />
    <glyph glyph-name="uni0578055B.liga" unicode="&#x578;&#x55b;" horiz-adv-x="1314" 
d="M1468 1614l-325 -342h-254l237 342h342zM494 0h-338v811q0 129 -9 215h326q8 -90 8 -149h6q38 79 120.5 128.5t191.5 49.5q99 0 173.5 -35.5t116.5 -97t62 -134.5t20 -157v-631h-337v557q0 105 -37 162t-123 57q-79 0 -129.5 -62.5t-50.5 -166.5v-547z" />
    <glyph glyph-name="uni0578055C.liga" unicode="&#x578;&#x55c;" horiz-adv-x="1314" 
d="M1186 1243h-254q0 59 12.5 99t42 68t62 44.5t88.5 36.5q109 38 148.5 61.5t39.5 61.5h254q0 -114 -46.5 -168t-154.5 -90q-125 -43 -144 -53q-48 -24 -48 -60zM494 0h-338v811q0 129 -9 215h326q8 -90 8 -149h6q38 79 120.5 128.5t191.5 49.5q99 0 173.5 -35.5t116.5 -97
t62 -134.5t20 -157v-631h-337v557q0 105 -37 162t-123 57q-79 0 -129.5 -62.5t-50.5 -166.5v-547z" />
    <glyph glyph-name="uni0578055E.liga" unicode="&#x578;&#x55e;" horiz-adv-x="1314" 
d="M1714 1450q0 -108 -89 -172t-232 -64v164q21 0 36 11.5t15 29.5q0 43 -62 43q-78 0 -119.5 -62.5t-41.5 -185.5h-267q0 203 134 329t333 126q130 0 211.5 -61t81.5 -158zM494 0h-338v811q0 129 -9 215h326q8 -90 8 -149h6q38 79 120.5 128.5t191.5 49.5q99 0 173.5 -35.5
t116.5 -97t62 -134.5t20 -157v-631h-337v557q0 105 -37 162t-123 57q-79 0 -129.5 -62.5t-50.5 -166.5v-547z" />
    <glyph glyph-name="uni0578055F.liga" unicode="&#x578;&#x55f;" horiz-adv-x="1314" 
d="M1184 1296h-404q-140 0 -218.5 68t-78.5 180q0 105 90 177.5t226 84.5v-207q-54 -7 -54 -45q0 -43 68 -43h371v-215zM494 0h-338v811q0 129 -9 215h326q8 -90 8 -149h6q38 79 120.5 128.5t191.5 49.5q99 0 173.5 -35.5t116.5 -97t62 -134.5t20 -157v-631h-337v557
q0 105 -37 162t-123 57q-79 0 -129.5 -62.5t-50.5 -166.5v-547z" />
    <glyph glyph-name="uni0579055F.liga" unicode="&#x579;&#x55f;" horiz-adv-x="995" 
d="M879 1303h-404q-140 0 -218.5 67.5t-78.5 179.5q0 105 90 177.5t226 84.5v-206q-54 -7 -54 -45q0 -43 68 -43h371v-215zM406 1038l194 -221q-50 -25 -72 -48t-22 -52q0 -28 20.5 -49t81.5 -60q59 -39 226 -143v-109q-157 -133 -295 -262q-83 -80 -117.5 -128.5
t-34.5 -100.5q0 -115 164 -115l440 -2v-270h-518q-200 0 -313 93.5t-113 244.5q0 158 178 342q84 88 219 219q-16 12 -64 47t-85 63q-83 61 -117.5 113t-34.5 131q0 68 39.5 129t95 102t128.5 76z" />
    <glyph glyph-name="uni057A055F.liga" unicode="&#x57a;&#x55f;" horiz-adv-x="1943" 
d="M1352 1298h-404q-140 0 -218.5 68t-78.5 180q0 105 90 177.5t226 84.5v-206q-54 -7 -54 -46q0 -43 68 -43h371v-215zM131 397v629h338v-553q0 -109 31 -165t112 -56q80 0 128 62t48 169v543h340v-553q0 -109 30.5 -165t111.5 -56q80 0 129 63t49 168v543h338v-1548h-338
v665h-4q-39 -75 -117 -123.5t-178 -48.5q-237 0 -322 207h-4q-40 -87 -131.5 -147t-199.5 -60q-79 0 -141.5 24t-103 64t-67.5 95.5t-38 115.5t-11 127z" />
    <glyph glyph-name="uni057B055F.liga" unicode="&#x57b;&#x55f;" horiz-adv-x="1257" 
d="M1067 1292h-403q-140 0 -218.5 68t-78.5 180q0 105 89.5 177.5t225.5 84.5v-207q-53 -7 -53 -45q0 -43 67 -43h371v-215zM500 -188q0 -80 135 -80l522 -2v-252h-608q-183 0 -283 73t-100 207q0 95 61 178t172 170q-12 40 -40 76t-61 61t-69.5 58t-65.5 66.5t-48 86
t-19 117.5q0 215 259 356q96 52 309 127q16 5 26 9q16 -8 48 -23q45 -21 68.5 -32.5t67 -34.5t68 -39t61 -42t57.5 -49t46 -54.5t38.5 -63t22.5 -71t9 -81.5q0 -52 -11.5 -97.5t-38.5 -88t-55.5 -76.5t-78.5 -75t-90 -70.5t-107 -75.5q-19 -13 -54 -37q-58 -39 -84.5 -58
t-63.5 -48t-53 -47.5t-28 -41.5t-12 -46zM420 551q0 -41 13.5 -72t34 -53t41 -45t38 -61.5t22.5 -90.5l33 25q65 48 99.5 75t75.5 67.5t59 79t18 79.5q0 37 -11.5 68t-28.5 52.5t-42.5 41t-47 32t-48.5 26.5l-14 7q-114 -46 -152 -71q-90 -60 -90 -160z" />
    <glyph glyph-name="uni057C055F.liga" unicode="&#x57c;&#x55f;" horiz-adv-x="1402" 
d="M1176 1298h-404q-140 0 -218.5 68t-78.5 180q0 105 90 177.5t226 84.5v-206q-54 -7 -54 -46q0 -43 68 -43h371v-215zM1118 260h256v-260h-641q35 137 52 208t38 187.5t21 186.5q0 194 -168 194q-84 0 -133 -63.5t-49 -173.5v-539h-338v811q0 129 -9 215h326q8 -90 8 -149
h6q39 73 129.5 125.5t198.5 52.5q123 0 210.5 -54.5t129 -143t41.5 -200.5q0 -145 -78 -397z" />
    <glyph glyph-name="uni057D055F.liga" unicode="&#x57d;&#x55f;" horiz-adv-x="1296" 
d="M950 1298h-403q-140 0 -218.5 68t-78.5 180q0 105 89.5 177.5t225.5 84.5v-206q-53 -7 -53 -46q0 -43 68 -43h370v-215zM498 -29q-80 0 -144 24t-105 64t-68 95.5t-38.5 115.5t-11.5 127v629h338v-553q0 -107 34.5 -164t117.5 -57q80 0 130 62.5t50 168.5v543h340v-811
q0 -139 8 -215h-328q-8 90 -8 150h-4q-40 -80 -121.5 -129.5t-189.5 -49.5z" />
    <glyph glyph-name="uni057E0576055F.liga" unicode="&#x57e;&#x576;&#x55f;" horiz-adv-x="2617" 
d="M1542 1729h-403q-140 0 -218.5 67.5t-78.5 179.5q0 105 89.5 177.5t225.5 84.5v-206q-53 -7 -53 -45q0 -43 67 -43h371v-215zM2460 1026v-811q0 -139 8 -215h-328q-8 90 -8 150h-4q-42 -75 -124 -127t-187 -52q-193 0 -295.5 119t-102.5 318q0 49 5.5 101.5t12.5 94.5
t21 95t23.5 84.5t28 81.5t25 67.5t25 62.5t19.5 47h-436v-1304h321v-260h-661v665h-4q-39 -78 -116 -125t-185 -47q-80 0 -143.5 24t-104.5 64t-68.5 95.5t-39 115.5t-11.5 127v557h338v-481q0 -107 34.5 -163t119.5 -56q79 0 129.5 62.5t50.5 166.5v559h-146
q-187 0 -292 82t-105 213q0 142 148 303l260 -159q-54 -57 -54 -103q0 -34 27.5 -56t89.5 -22h72v248h340v-248h825q-207 -571 -207 -825q0 -223 168 -223q84 0 138.5 64t54.5 169v541h338z" />
    <glyph glyph-name="uni057E055F.liga" unicode="&#x57e;&#x55f;" horiz-adv-x="1488" 
d="M1143 1724h-404q-140 0 -218.5 68t-78.5 180q0 105 90 177.5t226 84.5v-206q-53 -7 -53 -46q0 -43 67 -43h371v-215zM1143 1501v-1763h342v-260h-682v665h-4q-39 -78 -116 -125t-185 -47q-80 0 -143.5 24t-104.5 64t-68.5 95.5t-39 115.5t-11.5 127v629h338v-553
q0 -107 34.5 -163t119.5 -56q79 0 129.5 62.5t50.5 166.5v1018h340z" />
    <glyph glyph-name="uni057F055F.liga" unicode="&#x57f;&#x55f;" horiz-adv-x="1959" 
d="M1280 1298h-403q-140 0 -218.5 68t-78.5 180q0 105 89.5 177.5t225.5 84.5v-206q-53 -7 -53 -46q0 -43 67 -43h371v-215zM494 -29q-80 0 -143 24t-103.5 64t-67.5 95.5t-38 115.5t-11 127v629h338v-553q0 -107 34.5 -164t117.5 -57q80 0 130 62.5t50 168.5v328
q0 139 -8 215h325q8 -90 8 -149h7q38 79 120 128.5t189 49.5q81 0 146 -24t107 -64t70 -95t40 -115t12 -126v-631h-338v557q0 105 -37 162t-123 57q-79 0 -128.5 -62.5t-49.5 -166.5v-547h-326v150h-4q-40 -80 -123.5 -129.5t-193.5 -49.5z" />
    <glyph glyph-name="uni0580055F.liga" unicode="&#x580;&#x55f;" horiz-adv-x="1314" 
d="M1184 1298h-404q-140 0 -218.5 68t-78.5 180q0 105 90 177.5t226 84.5v-206q-54 -7 -54 -46q0 -43 68 -43h371v-215zM494 -522h-338v1333q0 129 -9 215h326q8 -90 8 -149h6q38 79 120.5 128.5t191.5 49.5q99 0 173.5 -35.5t116.5 -97t62 -134.5t20 -157v-631h-337v557
q0 105 -37 162t-123 57q-79 0 -129.5 -62.5t-50.5 -166.5v-1069z" />
    <glyph glyph-name="uni0581055F.liga" unicode="&#x581;&#x55f;" horiz-adv-x="1398" 
d="M1083 1303h-403q-140 0 -218.5 67.5t-78.5 179.5q0 105 89.5 177.5t225.5 84.5v-206q-53 -7 -53 -45q0 -43 68 -43h370v-215zM635 -543q-144 0 -291 44t-246 122l166 236q70 -64 160.5 -99.5t179.5 -35.5q146 0 225.5 74t79.5 198v141h-6q-46 -64 -131 -102.5t-184 -38.5
q-115 0 -209 41.5t-155.5 113t-94.5 166t-33 201.5q0 104 33.5 200.5t95 171.5t155.5 120t206 45q97 0 186 -41.5t141 -118.5h7q0 41 8 131h327q-8 -76 -8 -213v-786q0 -277 -167 -423.5t-445 -146.5zM666 262q114 0 184 73.5t70 184.5q0 106 -71.5 181t-182.5 75
q-113 0 -179.5 -73.5t-66.5 -182.5t66.5 -183.5t179.5 -74.5z" />
    <glyph glyph-name="uni0582055B.liga" unicode="&#x582;&#x55b;" horiz-adv-x="878" 
d="M702 1272l238 342h342l-326 -342h-254zM154 1026h338v-766h342v-260h-680v1026z" />
    <glyph glyph-name="uni0582055C.liga" unicode="&#x582;&#x55c;" horiz-adv-x="878" 
d="M1137 1614h254q0 -114 -46.5 -168t-154.5 -90l-39 -13l-36 -12t-30 -11t-27 -11t-21 -10.5t-18 -11.5t-12 -12t-8 -15t-2 -17h-254q0 59 12.5 99t42 68t62 44.5t88.5 36.5q110 38 149.5 61.5t39.5 61.5zM154 1026h338v-766h342v-260h-680v1026z" />
    <glyph glyph-name="uni0582055E.liga" unicode="&#x582;&#x55e;" horiz-adv-x="878" 
d="M1235 1669q130 0 211.5 -61t81.5 -158q0 -107 -89.5 -171.5t-232.5 -64.5v164q21 0 36 11.5t15 29.5q0 43 -61 43q-78 0 -120 -62.5t-42 -185.5h-266q0 203 134 329t333 126zM154 1026h338v-766h342v-260h-680v1026z" />
    <glyph glyph-name="uni0582055F.liga" unicode="&#x582;&#x55f;" horiz-adv-x="878" 
d="M821 1298h-403q-140 0 -218.5 68t-78.5 180q0 105 89.5 177.5t225.5 84.5v-206q-53 -7 -53 -46q0 -43 68 -43h370v-215zM492 1026v-766h342v-260h-680v1026h338z" />
    <glyph glyph-name="uni0583055F.liga" unicode="&#x583;&#x55f;" horiz-adv-x="1972" 
d="M1296 1724h-403q-140 0 -218.5 68t-78.5 180q0 105 89.5 177.5t225.5 84.5v-206q-53 -7 -53 -46q0 -43 68 -43h370v-215zM131 399v629h340v-553q0 -106 36 -162.5t122 -56.5q79 0 130.5 62.5t51.5 166.5v1063h338v-655h4q39 69 120.5 115.5t180.5 46.5t174 -35.5
t117.5 -97t63 -134.5t20.5 -157v-631h-340v555q0 106 -37 162.5t-123 56.5q-78 0 -129 -61.5t-51 -167.5v-1067h-338l2 667h-4q-43 -77 -121.5 -123.5t-181.5 -46.5q-81 0 -146 23.5t-107 63.5t-70 95t-40 115t-12 127z" />
    <glyph glyph-name="uni0584055F.liga" unicode="&#x584;&#x55f;" horiz-adv-x="1361" 
d="M1108 1298h-403q-140 0 -218.5 68t-78.5 180q0 105 89.5 177.5t225.5 84.5v-206q-53 -7 -53 -46q0 -43 67 -43h371v-215zM522 213h-4v-254h656v-260h-656v-209h-336v209h-147v260h147l2 864q0 132 -8 205h326q8 -90 8 -139h4q45 71 136.5 118.5t191.5 47.5
q135 0 236 -66.5t151.5 -175t50.5 -242.5q0 -135 -56.5 -245t-164.5 -175t-248 -65q-85 0 -161 34t-128 93zM739 807q-102 0 -167.5 -67.5t-65.5 -166.5q0 -103 64.5 -171t168.5 -68q106 0 166 68t60 171q0 96 -61.5 165t-164.5 69z" />
    <glyph glyph-name="uni0585055B.liga" unicode="&#x585;&#x55b;" horiz-adv-x="1333" 
d="M1294 1614l-325 -342h-254l237 342h342zM666 -35q-156 0 -285 66t-207 193.5t-78 291.5q0 163 78 289t207 191t285 65q117 0 220.5 -38.5t181.5 -107.5t123.5 -172.5t45.5 -226.5q0 -124 -45.5 -228.5t-123.5 -174.5t-182 -109t-220 -39zM668 252q112 0 178.5 77
t66.5 187q0 107 -68 183.5t-179 76.5q-110 0 -178 -76.5t-68 -183.5q0 -110 68 -187t180 -77z" />
    <glyph glyph-name="uni0585055C.liga" unicode="&#x585;&#x55c;" horiz-adv-x="1333" 
d="M1012 1243h-254q0 59 12.5 99t42 68t62 44.5t88.5 36.5q109 38 148.5 61.5t39.5 61.5h254q0 -114 -46.5 -168t-154.5 -90q-125 -43 -144 -53q-48 -24 -48 -60zM666 -35q-156 0 -285 66t-207 193.5t-78 291.5q0 163 78 289t207 191t285 65q117 0 220.5 -38.5t181.5 -107.5
t123.5 -172.5t45.5 -226.5q0 -124 -45.5 -228.5t-123.5 -174.5t-182 -109t-220 -39zM668 252q112 0 178.5 77t66.5 187q0 107 -68 183.5t-179 76.5q-110 0 -178 -76.5t-68 -183.5q0 -110 68 -187t180 -77z" />
    <glyph glyph-name="uni0585055E.liga" unicode="&#x585;&#x55e;" horiz-adv-x="1333" 
d="M1540 1450q0 -108 -89 -172t-232 -64v164q21 0 36 11.5t15 29.5q0 43 -62 43q-78 0 -119.5 -62.5t-41.5 -185.5h-267q0 203 134 329t333 126q130 0 211.5 -61t81.5 -158zM666 -35q-156 0 -285 66t-207 193.5t-78 291.5q0 163 78 289t207 191t285 65q117 0 220.5 -38.5
t181.5 -107.5t123.5 -172.5t45.5 -226.5q0 -124 -45.5 -228.5t-123.5 -174.5t-182 -109t-220 -39zM668 252q112 0 178.5 77t66.5 187q0 107 -68 183.5t-179 76.5q-110 0 -178 -76.5t-68 -183.5q0 -110 68 -187t180 -77z" />
    <glyph glyph-name="uni0585055F.liga" unicode="&#x585;&#x55f;" horiz-adv-x="1333" 
d="M973 1296h-404q-140 0 -218.5 68t-78.5 180q0 105 90 177.5t226 84.5v-207q-53 -7 -53 -45q0 -43 67 -43h371v-215zM666 -35q-156 0 -285 66t-207 193.5t-78 291.5q0 163 78 289t207 191t285 65q117 0 220.5 -38.5t181.5 -107.5t123.5 -172.5t45.5 -226.5
q0 -124 -45.5 -228.5t-123.5 -174.5t-182 -109t-220 -39zM668 252q112 0 178.5 77t66.5 187q0 107 -68 183.5t-179 76.5q-110 0 -178 -76.5t-68 -183.5q0 -110 68 -187t180 -77z" />
    <glyph glyph-name="uni0586055F.liga" unicode="&#x586;&#x55f;" horiz-adv-x="1642" 
d="M1130 1735h-403q-140 0 -218.5 67.5t-78.5 179.5q0 105 89.5 178t225.5 85v-207q-53 -7 -53 -45q0 -43 68 -43h370v-215zM1556 442q0 -180 -155.5 -307.5t-413.5 -159.5v-497h-301v497q-199 25 -367 94t-249 132l182 231q80 -66 206 -120t228 -58v403l-164 48
q-387 107 -387 452q0 176 130.5 296t328.5 120q162 0 277.5 -89t115.5 -245v-338l139 -35q77 -19 137.5 -42t117 -58.5t94 -79.5t59.5 -106.5t22 -137.5zM594 971l92 -27v182q0 82 -22 121t-78 39q-54 0 -90.5 -40t-36.5 -109q0 -128 135 -166zM987 614v-366q106 5 177 56
t71 128q0 61 -37.5 97.5t-120.5 60.5z" />
    <glyph glyph-name="uni0E240E45" unicode="&#xe24;&#xe45;" horiz-adv-x="1941" 
d="M1368 1165q211 0 321.5 -114t110.5 -320v-1223h-305v1194q0 91 -42 140t-120 49q-81 0 -123.5 -49t-42.5 -140v-1194h-327v1168q0 103 -60 159t-159 56q-73 0 -131 -28t-91 -75v-6l203 -51v-145q-165 -11 -168 -160q96 -2 155.5 -61.5t59.5 -155.5q0 -103 -69 -170.5
t-179 -67.5q-120 0 -197 74t-77 199v143q0 107 41 174t137 101v6l-227 55v158q101 135 246 208.5t317 73.5q246 0 395 -137q109 139 332 139zM481 205q0 34 -22 57t-56 23q-35 0 -57 -23t-22 -57q0 -35 22 -57.5t57 -22.5q34 0 56 23t22 57z" />
    <glyph glyph-name="uni0E260E45" unicode="&#xe26;&#xe45;" horiz-adv-x="2004" 
d="M1432 1165q210 0 321 -114.5t111 -319.5v-1223h-305v1194q0 90 -42.5 139.5t-119.5 49.5q-83 0 -125.5 -49t-42.5 -140v-1194h-328v1166q0 103 -61.5 160t-163.5 57q-77 0 -135 -29t-92 -78v-6l219 -51v-145q-56 -12 -79.5 -45.5t-23.5 -100.5v-192q0 -130 -71.5 -200.5
t-184.5 -70.5q-110 0 -178 65t-68 167q0 95 58.5 154.5t146.5 62.5v43q0 77 28.5 124t94.5 73v6l-264 53v158q102 136 249 210t322 74q252 0 400 -139q113 141 334 141zM307 127q34 0 55 21.5t21 56.5q0 34 -21 55t-55 21t-56 -21t-22 -55t22 -56t56 -22z" />
    <glyph glyph-name="uni066E.fina" unicode="&#x66e;" horiz-adv-x="2111" 
d="M2111 293q22 0 31.5 -35.5t9.5 -122.5q0 -76 -9.5 -105.5t-31.5 -29.5q-179 0 -262 92q-92 -92 -276 -92h-969q-254 0 -400.5 124t-146.5 322q0 162 66 338l289 -75q-29 -126 -29 -193q0 -105 73.5 -164t202.5 -59h803q78 0 110 34t32 119v445h340v-422
q0 -91 44.5 -133.5t122.5 -42.5z" />
    <glyph glyph-name="uni066F.fina" unicode="&#x66f;" horiz-adv-x="1755" 
d="M1626 293h129q23 0 32 -35t9 -123q0 -78 -9 -106.5t-32 -28.5h-158q-56 -189 -236 -289t-509 -100q-212 0 -367.5 38.5t-247.5 110t-136 166t-44 213.5q0 133 56 293l290 -76q-20 -84 -20 -163q0 -92 45 -152.5t154 -94.5t286 -34q299 0 392 100h-84q-253 0 -383.5 119
t-130.5 322q0 92 35 175.5t97 146.5t155.5 100.5t203.5 37.5q98 0 178 -26.5t134 -71.5t91 -106t53.5 -127.5t16.5 -137.5v-151zM1182 293h108v149q0 79 -36 124.5t-107 45.5q-68 0 -110 -41t-42 -110q0 -78 48 -123t139 -45z" />
    <glyph glyph-name="uni06A1.init" unicode="&#x6a1;" horiz-adv-x="1228" 
d="M647 913q240 0 371 -131t131 -344q0 -217 -80 -438h-1069v293h143q-22 68 -22 137q0 208 141 345.5t385 137.5zM477 293h320q12 74 12 119q0 95 -46 147.5t-132 52.5q-85 0 -132.5 -49.5t-47.5 -128.5q0 -67 26 -141z" />
    <glyph glyph-name="uni06A1.medi" unicode="&#x6a1;" horiz-adv-x="1236" 
d="M1071 293h166q22 0 31.5 -35.5t9.5 -122.5q0 -76 -9.5 -105.5t-31.5 -29.5h-236q-199 0 -383 27q-193 -27 -348 -27h-270v293h182q-63 92 -63 207q0 80 32.5 153t95 131.5t163 93.5t225.5 35q122 0 220 -33t159.5 -89t94 -127.5t32.5 -151.5q0 -115 -70 -219zM627 291
q75 14 126.5 65.5t51.5 118.5q0 60 -46.5 98.5t-127.5 38.5q-79 0 -127.5 -37.5t-48.5 -97.5q0 -65 49.5 -115t122.5 -71z" />
    <glyph glyph-name="uni06A1.fina" unicode="&#x6a1;" horiz-adv-x="2289" 
d="M2124 293h166q22 0 31.5 -35.5t9.5 -122.5q0 -76 -9.5 -105.5t-31.5 -29.5h-236q-194 0 -383 27q-193 -27 -348 -27h-719q-254 0 -400.5 124t-146.5 322q0 162 66 338l289 -75q-29 -126 -29 -193q0 -105 73.5 -164t202.5 -59h576q-64 94 -64 207q0 80 33 153t95 131.5
t163 93.5t226 35q122 0 220 -33t159 -89t93.5 -127.5t32.5 -151.5q0 -116 -69 -219zM1679 291q75 14 127 65.5t52 118.5q0 60 -47 98.5t-128 38.5q-79 0 -127.5 -37.5t-48.5 -97.5q0 -65 49.5 -115t122.5 -71z" />
    <glyph glyph-name="uni06C2.fina" unicode="&#x6c2;" horiz-adv-x="1185" 
d="M666 1087h198v-188h-471v188h84q-28 54 -28 109q0 91 67 150t182 59q68 0 142 -16l-31 -183q-42 11 -80 11q-82 0 -82 -68q0 -33 19 -62zM1186 293q22 0 31.5 -36t9.5 -120q0 -77 -9.5 -107t-31.5 -30q-176 0 -269.5 45.5t-175.5 169.5q-46 68 -70.5 91.5t-54.5 23.5
q-61 0 -140 -100t-159 -277l-258 108q247 570 588 570q101 0 174.5 -46.5t149.5 -156.5q58 -84 99.5 -109.5t115.5 -25.5z" />
    <glyph glyph-name="uni06C3.fina" unicode="&#x6c3;" horiz-adv-x="1157" 
d="M389 1116q-68 0 -114 47t-46 115q0 69 45.5 113.5t114.5 44.5q70 0 114 -44.5t44 -113.5t-44.5 -115.5t-113.5 -46.5zM768 1116q-68 0 -114 47t-46 115q0 69 45.5 113.5t114.5 44.5q68 0 113 -44.5t45 -113.5q0 -68 -45.5 -115t-112.5 -47zM1157 293q22 0 31.5 -35.5
t9.5 -122.5q0 -76 -9.5 -105.5t-31.5 -29.5q-265 0 -366 76q-124 -62 -265 -62q-113 0 -203 32.5t-147.5 90t-88 134t-30.5 165.5q0 203 147 329t402 126h412v-449q0 -83 29.5 -116t109.5 -33zM672 330v270h-111q-83 0 -128.5 -39t-45.5 -106q0 -142 184 -142q59 0 101 17z
" />
    <glyph glyph-name="uni06D5.fina" unicode="&#x6d5;" horiz-adv-x="1157" 
d="M1157 293q22 0 31.5 -35.5t9.5 -122.5q0 -76 -9.5 -105.5t-31.5 -29.5q-265 0 -366 76q-124 -62 -265 -62q-113 0 -203 32.5t-147.5 90t-88 134t-30.5 165.5q0 203 147 329t402 126h412v-449q0 -83 29.5 -116t109.5 -33zM672 330v270h-111q-83 0 -128.5 -39t-45.5 -106
q0 -142 184 -142q59 0 101 17z" />
    <glyph glyph-name="uniFB51" unicode="&#x671;" horiz-adv-x="616" arabic-form="final" 
d="M565 1802q0 -81 -35 -164h-524v144h76v213h137v-80q74 84 168 84q81 0 129.5 -53.5t48.5 -143.5zM348 1855q-76 0 -141 -73h209q2 4 2 14q0 25 -18 42t-52 17zM616 293q22 0 31.5 -35.5t9.5 -122.5q0 -76 -9.5 -105.5t-31.5 -29.5q-275 0 -387 99t-112 325v1124h338
v-1122q0 -70 37 -101.5t124 -31.5z" />
    <glyph glyph-name="uniFB57" unicode="&#x67e;" horiz-adv-x="2111" arabic-form="final" 
d="M2111 293q22 0 31.5 -35.5t9.5 -122.5q0 -76 -9.5 -105.5t-31.5 -29.5q-179 0 -262 92q-92 -92 -276 -92h-969q-254 0 -400.5 124t-146.5 322q0 162 66 338l289 -75q-29 -126 -29 -193q0 -105 73.5 -164t202.5 -59h803q78 0 110 34t32 119v445h340v-422
q0 -91 44.5 -133.5t122.5 -42.5zM977 -307q0 -69 -44.5 -114.5t-113.5 -45.5t-114.5 45.5t-45.5 114.5q0 68 45.5 114t114.5 46q68 0 113 -46t45 -114zM1198 -147q67 0 112.5 -46t45.5 -114q0 -69 -45 -114.5t-113 -45.5q-70 0 -115 45.5t-45 114.5q0 68 45 114t115 46z
M1012 -465q69 0 113 -46t44 -116q0 -68 -44 -112.5t-113 -44.5t-115.5 45t-46.5 112q0 69 46.5 115.5t115.5 46.5z" />
    <glyph glyph-name="uniFB58" unicode="&#x67e;" horiz-adv-x="739" arabic-form="initial" 
d="M76 0h-76v293h68q112 0 147 38.5t35 157.5v402h340v-430q0 -133 -27 -220.5t-90 -141.5t-158 -76.5t-239 -22.5zM190 -467q-69 0 -114 45.5t-45 114.5q0 68 45 114t114 46q68 0 113 -46t45 -114q0 -69 -44.5 -114.5t-113.5 -45.5zM569 -467q-70 0 -114.5 45.5
t-44.5 114.5q0 68 44.5 114t114.5 46q67 0 112.5 -46t45.5 -114q0 -69 -45 -114.5t-113 -45.5zM383 -784q-69 0 -115.5 45t-46.5 112q0 69 46.5 115.5t115.5 46.5t113.5 -46.5t44.5 -115.5q0 -68 -44.5 -112.5t-113.5 -44.5z" />
    <glyph glyph-name="uniFB59" unicode="&#x67e;" horiz-adv-x="784" arabic-form="medial" 
d="M784 293q23 0 32 -35t9 -123q0 -78 -9 -106.5t-32 -28.5q-211 0 -299 111q-59 -59 -158.5 -85t-250.5 -26h-76v293h68q112 0 147 38.5t35 157.5v402h340v-418q0 -180 194 -180zM352 -307q0 -69 -44 -114.5t-113 -45.5t-114.5 45.5t-45.5 114.5q0 68 45.5 114t114.5 46
q68 0 112.5 -46t44.5 -114zM573 -147q67 0 112.5 -46t45.5 -114q0 -69 -45 -114.5t-113 -45.5q-70 0 -114.5 45.5t-44.5 114.5q0 68 44.5 114t114.5 46zM387 -465q69 0 113.5 -46.5t44.5 -115.5q0 -68 -44.5 -112.5t-113.5 -44.5t-115.5 45t-46.5 112q0 69 46.5 115.5
t115.5 46.5z" />
    <glyph glyph-name="uniFB67" unicode="&#x679;" horiz-adv-x="2111" arabic-form="final" 
d="M1303 1141q0 -88 -39 -189h-607v164h91v354h151v-192q76 102 186 102q96 0 157 -64t61 -175zM1059 1217q-37 0 -80 -27t-78 -74h229q3 12 3 25q0 35 -20 55.5t-54 20.5zM2111 293q22 0 31.5 -35.5t9.5 -122.5q0 -76 -9.5 -105.5t-31.5 -29.5q-179 0 -262 92
q-92 -92 -276 -92h-969q-254 0 -400.5 124t-146.5 322q0 162 66 338l289 -75q-29 -126 -29 -193q0 -105 73.5 -164t202.5 -59h803q78 0 110 34t32 119v445h340v-422q0 -91 44.5 -133.5t122.5 -42.5z" />
    <glyph glyph-name="uniFB68" unicode="&#x679;" horiz-adv-x="739" arabic-form="initial" 
d="M489 1552q96 0 157 -64t61 -175q0 -88 -39 -189h-607v164h91v354h151v-192q76 102 186 102zM463 1389q-37 0 -80 -27t-78 -74h230q2 8 2 25q0 35 -20 55.5t-54 20.5zM250 489v402h340v-430q0 -133 -27 -220.5t-90 -141.5t-158 -76.5t-239 -22.5h-76v293h68
q112 0 147 38.5t35 157.5z" />
    <glyph glyph-name="uniFB69" unicode="&#x679;" horiz-adv-x="784" arabic-form="medial" 
d="M739 1313q0 -88 -39 -189h-606v164h90v354h152v-192q76 102 186 102q96 0 156.5 -64t60.5 -175zM496 1389q-37 0 -80 -27t-78 -74h229q2 8 2 25q0 35 -19.5 55.5t-53.5 20.5zM784 293q23 0 32 -35t9 -123q0 -78 -9 -106.5t-32 -28.5q-211 0 -299 111q-59 -59 -158.5 -85
t-250.5 -26h-76v293h68q112 0 147 38.5t35 157.5v402h340v-418q0 -180 194 -180z" />
    <glyph glyph-name="uniFB6B" unicode="&#x6a4;" horiz-adv-x="2289" arabic-form="final" 
d="M1692 1427q-64 0 -111 47.5t-47 112.5q0 67 46.5 115.5t111.5 48.5q72 0 115.5 -47t43.5 -117q0 -67 -44 -113.5t-115 -46.5zM1497 1104q-68 0 -114 47t-46 115q0 70 45.5 114.5t114.5 44.5q70 0 114 -44t44 -115q0 -69 -44.5 -115.5t-113.5 -46.5zM1716 1266
q0 70 45.5 114.5t114.5 44.5q68 0 113 -44.5t45 -114.5q0 -68 -45.5 -115t-112.5 -47q-68 0 -114 47t-46 115zM2124 293h166q22 0 31.5 -35.5t9.5 -122.5q0 -76 -9.5 -105.5t-31.5 -29.5h-236q-194 0 -383 27q-193 -27 -348 -27h-719q-254 0 -400.5 124t-146.5 322
q0 162 66 338l289 -75q-29 -126 -29 -193q0 -105 73.5 -164t202.5 -59h576q-64 94 -64 207q0 80 33 153t95 131.5t163 93.5t226 35q122 0 220 -33t159 -89t93.5 -127.5t32.5 -151.5q0 -116 -69 -219zM1679 291q75 14 127 65.5t52 118.5q0 60 -47 98.5t-128 38.5
q-79 0 -127.5 -37.5t-48.5 -97.5q0 -65 49.5 -115t122.5 -71z" />
    <glyph glyph-name="uniFB6C" unicode="&#x6a4;" horiz-adv-x="1228" arabic-form="initial" 
d="M649 1427q-64 0 -110.5 47.5t-46.5 112.5q0 67 46 115.5t111 48.5q72 0 116 -47.5t44 -116.5q0 -67 -44.5 -113.5t-115.5 -46.5zM455 1104q-68 0 -114 47t-46 115q0 70 45.5 114.5t114.5 44.5q70 0 113.5 -44t43.5 -115q0 -69 -44 -115.5t-113 -46.5zM674 1266
q0 70 45.5 114.5t114.5 44.5q68 0 112.5 -44.5t44.5 -114.5q0 -68 -45 -115t-112 -47q-68 0 -114 47t-46 115zM647 913q240 0 371 -131t131 -344q0 -217 -80 -438h-1069v293h143q-22 68 -22 137q0 208 141 345.5t385 137.5zM477 293h320q12 74 12 119q0 95 -46 147.5
t-132 52.5q-85 0 -132.5 -49.5t-47.5 -128.5q0 -67 26 -141z" />
    <glyph glyph-name="uniFB6D" unicode="&#x6a4;" horiz-adv-x="1236" arabic-form="medial" 
d="M639 1427q-64 0 -111 47.5t-47 112.5q0 67 46.5 115.5t111.5 48.5q72 0 116 -47.5t44 -116.5q0 -67 -44.5 -113.5t-115.5 -46.5zM444 1104q-68 0 -113.5 47t-45.5 115q0 70 45 114.5t114 44.5q70 0 114 -44t44 -115q0 -69 -44.5 -115.5t-113.5 -46.5zM664 1266
q0 70 45 114.5t114 44.5q68 0 113 -44.5t45 -114.5q0 -68 -45.5 -115t-112.5 -47q-68 0 -113.5 47t-45.5 115zM1071 293h166q22 0 31.5 -35.5t9.5 -122.5q0 -76 -9.5 -105.5t-31.5 -29.5h-236q-199 0 -383 27q-193 -27 -348 -27h-270v293h182q-63 92 -63 207q0 80 32.5 153
t95 131.5t163 93.5t225.5 35q122 0 220 -33t159.5 -89t94 -127.5t32.5 -151.5q0 -115 -70 -219zM627 291q75 14 126.5 65.5t51.5 118.5q0 60 -46.5 98.5t-127.5 38.5q-79 0 -127.5 -37.5t-48.5 -97.5q0 -65 49.5 -115t122.5 -71z" />
    <glyph glyph-name="uniFB7B" unicode="&#x686;" horiz-adv-x="1275" arabic-form="final" 
d="M1163 293h113q22 0 31.5 -35.5t9.5 -122.5q0 -76 -9.5 -105.5t-31.5 -29.5h-748q-70 0 -110.5 -34t-40.5 -91t44 -90t105 -33h25l16 -284h-30q-220 0 -359 107.5t-139 293.5q0 198 126.5 311t350.5 113h307v20q0 159 -63.5 227t-204.5 68q-94 0 -190 -22l-74 280
q133 47 287 47q153 0 267 -42.5t183 -121.5t102 -185.5t33 -241.5v-29zM809 -176q0 -50 -31 -81.5t-80 -31.5q-47 0 -78.5 32t-31.5 81q0 46 31.5 78t78.5 32q49 0 80 -31.5t31 -78.5zM963 -66q47 0 78.5 -32t31.5 -78q0 -49 -31.5 -81t-78.5 -32q-48 0 -79.5 32t-31.5 81
q0 46 32 78t79 32zM834 -287q49 0 79.5 -32t30.5 -82q0 -47 -30.5 -78t-79.5 -31q-47 0 -80 31.5t-33 77.5q0 49 32.5 81.5t80.5 32.5z" />
    <glyph glyph-name="uniFB7C" unicode="&#x686;" horiz-adv-x="983" arabic-form="initial" 
d="M864 0h-864v293h557q6 37 6 69q0 121 -64.5 183.5t-187.5 62.5q-95 0 -190 -24l-74 280q137 49 287 49q292 0 430.5 -149.5t138.5 -421.5q0 -150 -39 -342zM240 -467q-69 0 -114.5 45.5t-45.5 114.5q0 68 45.5 114t114.5 46q68 0 112.5 -46t44.5 -114q0 -69 -44 -114.5
t-113 -45.5zM618 -467q-70 0 -114.5 45.5t-44.5 114.5q0 68 44.5 114t114.5 46q67 0 112.5 -46t45.5 -114q0 -69 -45 -114.5t-113 -45.5zM432 -784q-69 0 -115.5 45t-46.5 112q0 69 46.5 115.5t115.5 46.5t113.5 -46.5t44.5 -115.5q0 -68 -44.5 -112.5t-113.5 -44.5z" />
    <glyph glyph-name="uniFB7D" unicode="&#x686;" horiz-adv-x="1026" arabic-form="medial" 
d="M903 293h123q22 0 31.5 -35.5t9.5 -122.5q0 -76 -9.5 -105.5t-31.5 -29.5h-1026v293h557q6 37 6 69q0 121 -64.5 183.5t-187.5 62.5q-95 0 -190 -24l-74 280q137 49 287 49q292 0 430.5 -149.5t138.5 -421.5v-49zM397 -307q0 -69 -44 -114.5t-113 -45.5t-114.5 45.5
t-45.5 114.5q0 68 45.5 114t114.5 46q68 0 112.5 -46t44.5 -114zM618 -147q67 0 112.5 -46t45.5 -114q0 -69 -45 -114.5t-113 -45.5q-70 0 -114.5 45.5t-44.5 114.5q0 68 44.5 114t114.5 46zM432 -465q69 0 113.5 -46.5t44.5 -115.5q0 -68 -44.5 -112.5t-113.5 -44.5
t-115.5 45t-46.5 112q0 69 46.5 115.5t115.5 46.5z" />
    <glyph glyph-name="uniFB89" unicode="&#x688;" horiz-adv-x="1044" arabic-form="final" 
d="M682 1276q0 -88 -39 -189h-606v164h90v355h152v-193q76 103 186 103q96 0 156.5 -64t60.5 -176zM438 1352q-37 0 -79.5 -27t-77.5 -74h229q2 8 2 25q0 35 -20 55.5t-54 20.5zM940 293h104q22 0 31.5 -35.5t9.5 -122.5q0 -76 -9.5 -105.5t-31.5 -29.5h-985v293h543
q-12 96 -99 201.5t-235 197.5l205 271q223 -141 335 -302t132 -368z" />
    <glyph glyph-name="uniFB8B" unicode="&#x698;" horiz-adv-x="716" arabic-form="final" 
d="M385 1413q-64 0 -111 47.5t-47 112.5q0 67 46.5 115.5t111.5 48.5q72 0 116 -47.5t44 -116.5q0 -67 -44.5 -113.5t-115.5 -46.5zM190 1090q-68 0 -113.5 46.5t-45.5 114.5q0 70 45 115t114 45q70 0 114 -44.5t44 -115.5q0 -69 -44 -115t-114 -46zM410 1251q0 70 45 115
t114 45q68 0 113 -45t45 -115q0 -68 -45.5 -114.5t-112.5 -46.5q-68 0 -113.5 46.5t-45.5 114.5zM553 293h164q22 0 31.5 -35.5t9.5 -122.5q0 -76 -9.5 -105.5t-31.5 -29.5h-174q-28 -192 -148.5 -285.5t-363.5 -115.5l-41 299q124 12 173.5 65t49.5 178v750h340v-598z" />
    <glyph glyph-name="uniFB8D" unicode="&#x691;" horiz-adv-x="716" arabic-form="final" 
d="M702 1317q0 -90 -38 -189h-607v164h90v355h152v-193q76 102 186 102q96 0 156.5 -64t60.5 -175zM459 1393q-37 0 -80 -27t-78 -74h229q2 8 2 25q0 35 -19.5 55.5t-53.5 20.5zM553 293h164q22 0 31.5 -35.5t9.5 -122.5q0 -76 -9.5 -105.5t-31.5 -29.5h-174
q-28 -192 -148.5 -285.5t-363.5 -115.5l-41 299q124 12 173.5 65t49.5 178v750h340v-598z" />
    <glyph glyph-name="uniFB8F" unicode="&#x6a9;" horiz-adv-x="1875" arabic-form="final" 
d="M1769 293h107q22 0 31.5 -35.5t9.5 -122.5q0 -76 -9.5 -105.5t-31.5 -29.5h-1272q-254 0 -400.5 124t-146.5 322q0 162 66 338l289 -75q-29 -126 -29 -193q0 -105 73.5 -164t202.5 -59h771q-5 110 -53.5 182t-163 123t-312.5 84v317l580 560l219 -226l-459 -442
q275 -76 397 -220t131 -378z" />
    <glyph glyph-name="uniFB90" unicode="&#x6a9;" horiz-adv-x="1015" arabic-form="initial" 
d="M866 1333l-458 -442q287 -80 407.5 -234t120.5 -409v-248h-936v293h596q-5 110 -53 182t-163 123t-314 84v317l579 560z" />
    <glyph glyph-name="uniFB91" unicode="&#x6a9;" horiz-adv-x="1056" arabic-form="medial" 
d="M936 293h121q22 0 31.5 -35.5t9.5 -122.5q0 -76 -9.5 -105.5t-31.5 -29.5h-1057v293h596q-5 110 -53 182t-163 123t-314 84v317l579 560l221 -226l-458 -442q274 -76 396.5 -220t131.5 -378z" />
    <glyph glyph-name="uniFB93" unicode="&#x6af;" horiz-adv-x="1875" arabic-form="final" 
d="M1262 1778l141 -142l-539 -516l-141 142zM1769 293h107q22 0 31.5 -35.5t9.5 -122.5q0 -76 -9.5 -105.5t-31.5 -29.5h-1272q-254 0 -400.5 124t-146.5 322q0 162 66 338l289 -75q-29 -126 -29 -193q0 -105 73.5 -164t202.5 -59h771q-5 110 -53.5 182t-163 123t-312.5 84
v317l580 560l219 -226l-459 -442q275 -76 397 -220t131 -378z" />
    <glyph glyph-name="uniFB94" unicode="&#x6af;" horiz-adv-x="1015" arabic-form="initial" 
d="M428 1778l141 -142l-538 -516l-142 142zM866 1333l-458 -442q287 -80 407.5 -234t120.5 -409v-248h-936v293h596q-5 110 -53 182t-163 123t-314 84v317l579 560z" />
    <glyph glyph-name="uniFB95" unicode="&#x6af;" horiz-adv-x="1056" arabic-form="medial" 
d="M428 1778l141 -142l-538 -516l-142 142zM936 293h121q22 0 31.5 -35.5t9.5 -122.5q0 -76 -9.5 -105.5t-31.5 -29.5h-1057v293h596q-5 110 -53 182t-163 123t-314 84v317l579 560l221 -226l-458 -442q274 -76 396.5 -220t131.5 -378z" />
    <glyph glyph-name="uniFB9F" unicode="&#x6ba;" horiz-adv-x="1390" arabic-form="final" 
d="M1255 293h136q22 0 31.5 -35.5t9.5 -122.5q0 -76 -9.5 -105.5t-31.5 -29.5h-154q-43 -191 -192 -286t-381 -95q-121 0 -221 27.5t-171 75.5t-120 114.5t-72 143.5t-23 163q0 183 99 398l284 -95q-57 -147 -57 -262q0 -123 72.5 -191.5t203.5 -68.5q127 0 191.5 62.5
t64.5 212.5v542h340v-448z" />
    <glyph glyph-name="uniFBA5" unicode="&#x6c0;" horiz-adv-x="1157" arabic-form="final" 
d="M602 1245h174v-149h-391v149h70q-23 39 -23 84q0 76 54 123t147 47q65 0 121 -16l-27 -142q-40 9 -70 9q-67 0 -67 -58q0 -26 12 -47zM1157 293q22 0 31.5 -35.5t9.5 -122.5q0 -76 -9.5 -105.5t-31.5 -29.5q-265 0 -366 76q-124 -62 -265 -62q-113 0 -203 32.5t-147.5 90
t-88 134t-30.5 165.5q0 203 147 329t402 126h412v-449q0 -83 29.5 -116t109.5 -33zM672 330v270h-111q-83 0 -128.5 -39t-45.5 -106q0 -142 184 -142q59 0 101 17z" />
    <glyph glyph-name="uniFBA7" unicode="&#x6c1;" horiz-adv-x="1185" arabic-form="final" 
d="M317 -47l-258 108q247 570 588 570q101 0 174.5 -46.5t149.5 -156.5q58 -84 99.5 -109.5t115.5 -25.5q22 0 31.5 -36t9.5 -120q0 -77 -9.5 -107t-31.5 -30q-176 0 -269.5 45.5t-175.5 169.5q-46 68 -70.5 91.5t-54.5 23.5q-61 0 -140 -100t-159 -277z" />
    <glyph glyph-name="uniFBA8" unicode="&#x6c1;" horiz-adv-x="591" arabic-form="initial" 
d="M0 0v293q100 0 132 37.5t32 158.5v402h340v-430q0 -134 -28.5 -223t-92.5 -142t-155 -74.5t-228 -21.5zM424 -518l-248 -111q-88 133 -88 307q0 130 45 236l213 -41q-14 -52 -14 -115q0 -143 92 -276z" />
    <glyph glyph-name="uniFBA9" unicode="&#x6c1;" horiz-adv-x="1030" arabic-form="medial" 
d="M1016 293h14q22 0 31.5 -35.5t9.5 -120.5q0 -77 -9.5 -107t-31.5 -30h-10q-133 0 -195.5 -80t-62.5 -260v-156h-90q-275 0 -439.5 121t-164.5 350v25h-68v293h373v-285q0 -87 31.5 -139.5t103.5 -75.5v6q0 252 131.5 373t376.5 121z" />
    <glyph glyph-name="uniFBAB" unicode="&#x6be;" horiz-adv-x="1544" arabic-form="final" 
d="M1399 293h145q22 0 31.5 -35.5t9.5 -122.5q0 -76 -9.5 -105.5t-31.5 -29.5h-141q55 -85 55 -176q0 -141 -113 -229.5t-321 -88.5q-265 0 -384.5 117t-119.5 332v45h-4q-277 0 -457 59l66 289q185 -55 393 -55h2v80q0 236 127.5 384t349.5 148q211 0 332 -118.5
t121 -292.5q0 -107 -51 -201zM993 608q-66 0 -102.5 -50.5t-36.5 -145.5v-121h76q186 0 186 174q0 61 -31.5 102t-91.5 41zM1004 -199q64 0 92 28t28 73q0 54 -30 100h-240v-31q0 -87 35 -128.5t115 -41.5z" />
    <glyph glyph-name="uniFBAC" unicode="&#x6be;" horiz-adv-x="1396" arabic-form="initial" 
d="M86 707l37 266q124 -3 227 -9.5t207.5 -19.5t189 -33t164.5 -49t140.5 -67.5t112 -90.5t84.5 -115t51 -143t18 -174q0 -114 -31 -272h-553q-144 0 -237 41q-90 -41 -246 -41h-250v293h160q-41 80 -41 178q0 141 78 231q-93 5 -111 5zM494 299q56 34 88 87.5t32 117.5
q0 65 -29.5 102t-84.5 37q-54 0 -85.5 -38t-31.5 -101q0 -126 111 -205zM1040 307q0 182 -178 273q19 -55 19 -105q0 -100 -50 -182h209v14z" />
    <glyph glyph-name="uniFBAD" unicode="&#x6be;" horiz-adv-x="1120" arabic-form="medial" 
d="M975 293h145q22 0 31.5 -35.5t9.5 -122.5q0 -76 -9.5 -105.5t-31.5 -29.5h-141q55 -85 55 -176q0 -141 -112.5 -229.5t-319.5 -88.5q-267 0 -386.5 117t-119.5 332v45h-96v293h96v80q0 236 127.5 384t349.5 148q211 0 332 -118.5t121 -292.5q0 -107 -51 -201zM569 608
q-66 0 -102.5 -50.5t-36.5 -145.5v-121h76q186 0 186 174q0 62 -31 102.5t-92 40.5zM580 -199q64 0 92 28t28 73q0 54 -30 100h-240v-31q0 -86 36 -128t114 -42z" />
    <glyph glyph-name="uniFBAF" unicode="&#x6d2;" horiz-adv-x="1527" arabic-form="final" 
d="M1972 -532h-1198q-168 0 -291 16.5t-204.5 47.5t-131 81t-70 111.5t-20.5 144.5q0 221 155.5 322.5t471.5 101.5h844q22 0 31.5 -35.5t9.5 -122.5q0 -76 -9.5 -105.5t-31.5 -29.5h-871q-149 0 -214.5 -29.5t-65.5 -89.5q0 -30 17 -50t64 -36.5t137 -24.5t228 -8h1149
v-294z" />
    <glyph glyph-name="uniFBB1" unicode="&#x6d3;" horiz-adv-x="1527" arabic-form="final" 
d="M637 707h199v-189h-471v189h84q-29 56 -29 108q0 91 67.5 150t182.5 59q67 0 141 -16l-31 -183q-42 11 -80 11q-82 0 -82 -68q0 -32 19 -61zM823 -238h1149v-294h-1198q-168 0 -291 16.5t-204.5 47.5t-131 81t-70 111.5t-20.5 144.5q0 221 155.5 322.5t471.5 101.5h844
q22 0 31.5 -35.5t9.5 -122.5q0 -76 -9.5 -105.5t-31.5 -29.5h-871q-149 0 -214.5 -29.5t-65.5 -89.5q0 -30 17 -50t64 -36.5t137 -24.5t228 -8z" />
    <glyph glyph-name="uniFBE8" unicode="&#x649;" horiz-adv-x="591" arabic-form="initial" 
d="M0 0v293q100 0 132 37.5t32 158.5v402h340v-430q0 -134 -28.5 -223t-92.5 -142t-155 -74.5t-228 -21.5z" />
    <glyph glyph-name="uniFBE9" unicode="&#x649;" horiz-adv-x="671" arabic-form="medial" 
d="M672 293q22 0 31.5 -35.5t9.5 -122.5q0 -76 -9.5 -105.5t-31.5 -29.5q-196 0 -275 106q-111 -106 -397 -106v293q100 0 132 37.5t32 158.5v402h340v-422q0 -91 45 -133.5t123 -42.5z" />
    <glyph glyph-name="uniFBFD" unicode="&#x6cc;" horiz-adv-x="1667" arabic-form="final" 
d="M1462 293h205q22 0 31.5 -35.5t9.5 -122.5q0 -76 -9.5 -105.5t-31.5 -29.5h-55q45 -57 45 -133q0 -175 -212 -287t-591 -112q-204 0 -358 40.5t-249.5 114.5t-142.5 173t-47 222q0 122 58 293l291 -71q-23 -106 -23 -174q0 -157 113 -225t387 -68q220 0 328 39t108 102
q0 77 -176 119l-264 65l71 287l279 -68q98 -24 233 -24z" />
    <glyph glyph-name="uniFBFE" unicode="&#x6cc;" horiz-adv-x="739" arabic-form="initial" 
d="M76 0h-76v293h68q112 0 147 38.5t35 157.5v402h340v-430q0 -133 -27 -220.5t-90 -141.5t-158 -76.5t-239 -22.5zM190 -469q-69 0 -114 45t-45 113q0 69 45 115t114 46q70 0 114 -45.5t44 -115.5q0 -68 -44 -113t-114 -45zM569 -469q-69 0 -114 45t-45 113q0 69 45 115
t114 46q68 0 113 -46t45 -115q0 -67 -45.5 -112.5t-112.5 -45.5z" />
    <glyph glyph-name="uniFBFF" unicode="&#x6cc;" horiz-adv-x="784" arabic-form="medial" 
d="M784 293q23 0 32 -35t9 -123q0 -78 -9 -106.5t-32 -28.5q-211 0 -299 111q-59 -59 -158.5 -85t-250.5 -26h-76v293h68q112 0 147 38.5t35 157.5v402h340v-418q0 -180 194 -180zM195 -150q70 0 113.5 -45.5t43.5 -115.5q0 -68 -43.5 -113t-113.5 -45q-69 0 -114.5 45
t-45.5 113q0 69 45.5 115t114.5 46zM573 -150q68 0 113 -46t45 -115q0 -67 -45.5 -112.5t-112.5 -45.5q-69 0 -114 45t-45 113q0 69 45 115t114 46z" />
    <glyph glyph-name="uniFDFA" unicode="&#xfdfa;" horiz-adv-x="2390" arabic-form="isolated" 
d="M547 1448q-62 0 -62 68q0 22 9 49l57 -11q-2 -12 -2 -22t8 -10t8 10v16l56 6q2 -14 2 -32h6q10 0 10 14q0 13 -4 25l67 18q15 -38 15 -63q0 -32 -19.5 -49t-46.5 -17q-25 0 -47 14q-20 -16 -57 -16zM229 954q-76 0 -124 44t-48 120q0 197 250 197h164v-156q0 -24 21 -24
q13 0 16.5 5t3.5 23v267h188v-271q0 -24 19 -24q13 0 17.5 8t4.5 33v364h191v-389q0 -121 -46.5 -160t-166.5 -39q-67 0 -101 23q-40 -23 -137 -23q-87 0 -129 25q-50 -23 -123 -23zM1190 713q-141 0 -211 52t-70 144q0 46 29 103l176 -33q-8 -16 -8 -33q0 -22 25.5 -35.5
t70.5 -13.5q58 0 88.5 14.5t30.5 34.5q0 11 -18 21t-84 30l49 160q95 -22 147 -22q19 0 26 10t7 39v356h186v-381q0 -24 23 -24q10 0 14 5t4 19v129h191v-131q0 -13 5 -17.5t19 -4.5q92 206 273 206q204 0 204 -225q0 -70 -24 -164h-442q-61 0 -115 23q-44 -23 -123 -23
q-55 0 -82 23q-42 -23 -82 -23q19 -23 19 -57q0 -77 -89 -129.5t-239 -52.5zM979 1540h190v-504h-190v504zM293 1174h-8q-47 0 -47 -29q0 -27 34 -27h21v56zM2148 1174q-40 0 -67 -39h102v2q0 37 -35 37zM2247 559h131v-182h-535q-68 0 -104 22q-38 -22 -135 -22h-349v-371
q0 -22 23 -22h10q12 0 12 10v131h191v-125q0 -9 2.5 -12.5t11.5 -3.5q15 0 15 16v125h190v-127q0 -14 14 -14q15 0 15 14v180h190v-248q0 -63 -43.5 -96t-126.5 -33q-46 0 -100 23q-50 -23 -109 -23q-66 0 -116 23q-55 -23 -129 -23h-27q-66 0 -104 23q-42 -23 -138 -23
h-354q-50 -71 -164 -71h-147q-31 35 -45 71h-7q-14 0 -20 -7.5t-6 -31.5v-151h-180v194q0 179 170 179h24q14 70 70.5 112.5t144.5 42.5q75 0 128.5 -40t66.5 -115h311q22 0 30.5 8.5t8.5 34.5v350h-281q-68 0 -104 22q-40 -22 -147 -22h-39q-88 0 -129 24q-48 -22 -123 -22
q-76 0 -124 44t-48 120q0 196 250 196h163v-135q0 -45 35 -45h6q28 0 37.5 9t9.5 38v133h191v-141q0 -21 8 -30t29 -9h266v100h188v-100h342q19 0 27 9.5t8 37.5v293h191v-313q0 -27 26 -27h201q-6 27 -6 47q0 73 52.5 116.5t146.5 43.5q54 0 114 -16l-33 -158q-24 6 -49 6
q-30 0 -30 -23q0 -8 2 -16zM307 543v55h-8q-47 0 -47 -29q0 -26 35 -26h20zM643 258q0 -36 -24 -60t-60 -24q-38 0 -62 24t-24 60q0 37 24 61.5t62 24.5q35 0 59.5 -24.5t24.5 -61.5zM748 174q-38 0 -62 24t-24 60q0 37 24 61.5t62 24.5q34 0 56.5 -24.5t22.5 -61.5
q0 -35 -22.5 -59.5t-56.5 -24.5zM2173 186q105 0 151 -59t46 -154v-116q0 -138 -86 -193t-277 -41l-10 170q59 -6 100.5 -3.5t63 14t18.5 30.5q-12 -2 -41 -2q-76 0 -124 47.5t-48 132.5q0 78 54.5 126t152.5 48zM2198 -27v21q0 41 -29 41q-31 0 -31 -33q0 -29 31 -29h29z
M479 -111h23q23 0 36 11t13 30q0 41 -39 41t-39 -45q0 -17 6 -37z" />
    <glyph glyph-name="uniFDFC" unicode="&#xfdfc;" horiz-adv-x="2934" arabic-form="isolated" 
d="M608 -381q-112 0 -205 31t-156 82t-106.5 119.5t-63.5 142t-20 149.5q0 183 99 398l295 -103q-56 -146 -56 -254q0 -123 57.5 -191.5t161.5 -68.5q123 0 178.5 69.5t55.5 225.5v1329h340v-1384q0 -263 -149.5 -404t-430.5 -141zM1831 0q-261 0 -368 98t-107 322v1128h338
v-1126q0 -68 31.5 -98.5t105.5 -30.5q80 0 109.5 32.5t29.5 127.5v438h340v-451q0 -125 -26 -209t-85 -135.5t-147.5 -73.5t-220.5 -22zM2361 -401l-41 286q90 19 124 63t34 148v795h340v-762q0 -135 -27 -230t-85 -157t-141 -95.5t-204 -47.5zM1708 -469q-70 0 -116 45
t-46 113q0 69 46 115t116 46q68 0 112 -45.5t44 -115.5q0 -68 -44 -113t-112 -45zM2085 -469q-69 0 -114.5 45t-45.5 113q0 69 45.5 115t114.5 46q68 0 113 -46t45 -115q0 -67 -45.5 -112.5t-112.5 -45.5z" />
    <glyph glyph-name="uniFE82" unicode="&#x622;" horiz-adv-x="616" arabic-form="final" 
d="M438 1634q-61 0 -182 28t-150 28q-43 0 -98 -35l-90 131q92 92 197 92q41 0 156 -30.5t161 -30.5q50 0 107 45l100 -115q-51 -62 -97 -87.5t-104 -25.5zM616 0q-275 0 -387 99t-112 325v1124h338v-1122q0 -70 37 -101.5t124 -31.5q22 0 31.5 -35.5t9.5 -122.5
q0 -76 -9.5 -105.5t-31.5 -29.5z" />
    <glyph glyph-name="uniFE84" unicode="&#x623;" horiz-adv-x="616" arabic-form="final" 
d="M307 1786h174v-150h-391v150h70q-23 39 -23 84q0 76 54 123t147 47q62 0 121 -17l-27 -141q-36 8 -70 8q-67 0 -67 -57q0 -26 12 -47zM616 293q22 0 31.5 -35.5t9.5 -122.5q0 -76 -9.5 -105.5t-31.5 -29.5q-275 0 -387 99t-112 325v1124h338v-1122q0 -70 37 -101.5
t124 -31.5z" />
    <glyph glyph-name="uniFE86" unicode="&#x624;" horiz-adv-x="1179" arabic-form="final" 
d="M627 1319h198v-189h-471v189h84q-28 54 -28 108q0 91 67 150t182 59q68 0 142 -16l-31 -182q-38 10 -80 10q-82 0 -82 -68q0 -32 19 -61zM1057 293h123q22 0 31.5 -35.5t9.5 -122.5q0 -76 -9.5 -105.5t-31.5 -29.5h-129q-25 -198 -180.5 -304t-438.5 -106q-82 0 -174 9
l-20 299q406 -32 471 114h-119q-228 0 -363 115.5t-135 306.5q0 203 141.5 341t360.5 138q114 0 203 -34.5t145.5 -96t85.5 -143t29 -178.5v-168zM426 453q0 -76 45 -118t131 -42h119v133q0 186 -141 186q-73 0 -113.5 -45.5t-40.5 -113.5z" />
    <glyph glyph-name="uniFE88" unicode="&#x625;" horiz-adv-x="616" arabic-form="final" 
d="M616 293q22 0 31.5 -35.5t9.5 -122.5q0 -76 -9.5 -105.5t-31.5 -29.5q-275 0 -387 99t-112 325v1124h338v-1122q0 -70 37 -101.5t124 -31.5zM317 -334q0 -24 13 -47h174v-149h-391v149h69q-22 37 -22 84q0 76 54 123t146 47q65 0 121 -16l-26 -142q-41 9 -70 9
q-68 0 -68 -58z" />
    <glyph glyph-name="uniFE8A" unicode="&#x626;" horiz-adv-x="1667" arabic-form="final" 
d="M451 639h198v-188h-471v188h84q-29 56 -29 109q0 91 67.5 149.5t182.5 58.5q68 0 142 -16l-31 -182q-38 10 -80 10q-82 0 -82 -68q0 -32 19 -61zM1462 293h205q22 0 31.5 -35.5t9.5 -122.5q0 -76 -9.5 -105.5t-31.5 -29.5h-55q45 -57 45 -133q0 -175 -212 -287t-591 -112
q-204 0 -358 40.5t-249.5 114.5t-142.5 173t-47 222q0 122 58 293l291 -71q-23 -106 -23 -174q0 -157 113 -225t387 -68q220 0 328 39t108 102q0 77 -176 119l-264 65l71 287l279 -68q98 -24 233 -24z" />
    <glyph glyph-name="uniFE8B" unicode="&#x626;" horiz-adv-x="739" arabic-form="initial" 
d="M412 1300h198v-188h-471v188h84q-28 54 -28 109q0 91 67 150t182 59q68 0 142 -16l-31 -183q-42 11 -80 11q-82 0 -82 -68q0 -34 19 -62zM250 489v402h340v-430q0 -133 -27 -220.5t-90 -141.5t-158 -76.5t-239 -22.5h-76v293h68q112 0 147 38.5t35 157.5z" />
    <glyph glyph-name="uniFE8C" unicode="&#x626;" horiz-adv-x="784" arabic-form="medial" 
d="M444 1300h199v-188h-471v188h84q-29 56 -29 109q0 91 67.5 150t182.5 59q67 0 141 -16l-30 -183q-42 11 -80 11q-82 0 -82 -68q0 -35 18 -62zM784 293q23 0 32 -35t9 -123q0 -78 -9 -106.5t-32 -28.5q-211 0 -299 111q-59 -59 -158.5 -85t-250.5 -26h-76v293h68
q112 0 147 38.5t35 157.5v402h340v-418q0 -180 194 -180z" />
    <glyph glyph-name="uniFE8E" unicode="&#x627;" horiz-adv-x="616" arabic-form="final" 
d="M616 0q-275 0 -387 99t-112 325v1124h338v-1122q0 -70 37 -101.5t124 -31.5q22 0 31.5 -35.5t9.5 -122.5q0 -76 -9.5 -105.5t-31.5 -29.5z" />
    <glyph glyph-name="uniFE90" unicode="&#x628;" horiz-adv-x="2111" arabic-form="final" 
d="M2111 293q22 0 31.5 -35.5t9.5 -122.5q0 -76 -9.5 -105.5t-31.5 -29.5q-179 0 -262 92q-92 -92 -276 -92h-969q-254 0 -400.5 124t-146.5 322q0 162 66 338l289 -75q-29 -126 -29 -193q0 -105 73.5 -164t202.5 -59h803q78 0 110 34t32 119v445h340v-422
q0 -91 44.5 -133.5t122.5 -42.5zM1014 -145q73 0 116.5 -47t43.5 -119t-43 -116t-117 -44q-72 0 -117 44.5t-45 115.5t45.5 118.5t116.5 47.5z" />
    <glyph glyph-name="uniFE91" unicode="&#x628;" horiz-adv-x="591" arabic-form="initial" 
d="M0 0v293q100 0 132 37.5t32 158.5v402h340v-430q0 -134 -28.5 -223t-92.5 -142t-155 -74.5t-228 -21.5zM258 -471q-72 0 -117 44.5t-45 115.5t45.5 118.5t116.5 47.5q73 0 116.5 -47t43.5 -119t-43 -116t-117 -44z" />
    <glyph glyph-name="uniFE92" unicode="&#x628;" horiz-adv-x="671" arabic-form="medial" 
d="M672 293q22 0 31.5 -35.5t9.5 -122.5q0 -76 -9.5 -105.5t-31.5 -29.5q-196 0 -275 106q-111 -106 -397 -106v293q100 0 132 37.5t32 158.5v402h340v-422q0 -91 45 -133.5t123 -42.5zM332 -145q73 0 116.5 -47t43.5 -119t-43 -116t-117 -44q-72 0 -117 44.5t-45 115.5
t45.5 118.5t116.5 47.5z" />
    <glyph glyph-name="uniFE94" unicode="&#x629;" horiz-adv-x="1157" arabic-form="final" 
d="M389 1116q-68 0 -114 47t-46 115q0 69 45.5 113.5t114.5 44.5q70 0 114 -44.5t44 -113.5t-44.5 -115.5t-113.5 -46.5zM768 1116q-68 0 -114 47t-46 115q0 69 45.5 113.5t114.5 44.5q68 0 113 -44.5t45 -113.5q0 -68 -45.5 -115t-112.5 -47zM1157 293q22 0 31.5 -35.5
t9.5 -122.5q0 -76 -9.5 -105.5t-31.5 -29.5q-265 0 -366 76q-124 -62 -265 -62q-113 0 -203 32.5t-147.5 90t-88 134t-30.5 165.5q0 203 147 329t402 126h412v-449q0 -83 29.5 -116t109.5 -33zM672 330v270h-111q-83 0 -128.5 -39t-45.5 -106q0 -142 184 -142q59 0 101 17z
" />
    <glyph glyph-name="uniFE96" unicode="&#x62a;" horiz-adv-x="2111" arabic-form="final" 
d="M788 944q-68 0 -113.5 47t-45.5 115q0 69 45 113.5t114 44.5q70 0 114 -44.5t44 -113.5t-44.5 -115.5t-113.5 -46.5zM1167 944q-68 0 -113.5 47t-45.5 115q0 69 45 113.5t114 44.5q68 0 113 -44.5t45 -113.5q0 -68 -45.5 -115t-112.5 -47zM2111 293q22 0 31.5 -35.5
t9.5 -122.5q0 -76 -9.5 -105.5t-31.5 -29.5q-179 0 -262 92q-92 -92 -276 -92h-969q-254 0 -400.5 124t-146.5 322q0 162 66 338l289 -75q-29 -126 -29 -193q0 -105 73.5 -164t202.5 -59h803q78 0 110 34t32 119v445h340v-422q0 -91 44.5 -133.5t122.5 -42.5z" />
    <glyph glyph-name="uniFE97" unicode="&#x62a;" horiz-adv-x="739" arabic-form="initial" 
d="M193 1116q-68 0 -114 47t-46 115q0 69 45.5 113.5t114.5 44.5q70 0 113.5 -44.5t43.5 -113.5t-44 -115.5t-113 -46.5zM571 1116q-68 0 -113.5 47t-45.5 115q0 69 45 113.5t114 44.5q68 0 113 -44.5t45 -113.5q0 -68 -45.5 -115t-112.5 -47zM76 0h-76v293h68
q112 0 147 38.5t35 157.5v402h340v-430q0 -133 -27 -220.5t-90 -141.5t-158 -76.5t-239 -22.5z" />
    <glyph glyph-name="uniFE98" unicode="&#x62a;" horiz-adv-x="784" arabic-form="medial" 
d="M225 1116q-68 0 -113.5 47t-45.5 115q0 69 45 113.5t114 44.5q70 0 114 -44.5t44 -113.5t-44.5 -115.5t-113.5 -46.5zM604 1116q-68 0 -114 47t-46 115q0 69 45.5 113.5t114.5 44.5q68 0 113 -44.5t45 -113.5q0 -68 -45.5 -115t-112.5 -47zM784 293q23 0 32 -35t9 -123
q0 -78 -9 -106.5t-32 -28.5q-211 0 -299 111q-59 -59 -158.5 -85t-250.5 -26h-76v293h68q112 0 147 38.5t35 157.5v402h340v-418q0 -180 194 -180z" />
    <glyph glyph-name="uniFE9A" unicode="&#x62b;" horiz-adv-x="2111" arabic-form="final" 
d="M983 1237q-64 0 -111 47.5t-47 112.5q0 67 46.5 115.5t111.5 48.5q72 0 116 -47.5t44 -116.5q0 -67 -44.5 -113.5t-115.5 -46.5zM788 913q-68 0 -113.5 47t-45.5 115q0 70 45 115t114 45q70 0 114 -44.5t44 -115.5q0 -69 -44.5 -115.5t-113.5 -46.5zM1008 1075
q0 70 45 115t114 45q68 0 113 -45t45 -115q0 -68 -45.5 -115t-112.5 -47q-68 0 -113.5 47t-45.5 115zM2111 293q22 0 31.5 -35.5t9.5 -122.5q0 -76 -9.5 -105.5t-31.5 -29.5q-179 0 -262 92q-92 -92 -276 -92h-969q-254 0 -400.5 124t-146.5 322q0 162 66 338l289 -75
q-29 -126 -29 -193q0 -105 73.5 -164t202.5 -59h803q78 0 110 34t32 119v445h340v-422q0 -91 44.5 -133.5t122.5 -42.5z" />
    <glyph glyph-name="uniFE9B" unicode="&#x62b;" horiz-adv-x="739" arabic-form="initial" 
d="M387 1409q-64 0 -111 47.5t-47 112.5q0 67 46.5 115.5t111.5 48.5q72 0 116 -47.5t44 -116.5q0 -67 -44.5 -113.5t-115.5 -46.5zM193 1085q-68 0 -114 47t-46 115q0 70 45.5 115t114.5 45q70 0 113.5 -44.5t43.5 -115.5q0 -69 -44 -115.5t-113 -46.5zM571 1085
q-68 0 -113.5 47t-45.5 115q0 70 45 115t114 45q68 0 113 -45t45 -115q0 -68 -45.5 -115t-112.5 -47zM76 0h-76v293h68q112 0 147 38.5t35 157.5v402h340v-430q0 -133 -27 -220.5t-90 -141.5t-158 -76.5t-239 -22.5z" />
    <glyph glyph-name="uniFE9C" unicode="&#x62b;" horiz-adv-x="784" arabic-form="medial" 
d="M420 1409q-64 0 -111 47.5t-47 112.5q0 67 46.5 115.5t111.5 48.5q72 0 116 -47.5t44 -116.5q0 -67 -44.5 -113.5t-115.5 -46.5zM225 1085q-68 0 -113.5 47t-45.5 115q0 70 45 115t114 45q70 0 114 -44.5t44 -115.5q0 -69 -44.5 -115.5t-113.5 -46.5zM444 1247
q0 70 45.5 115t114.5 45q68 0 113 -45t45 -115q0 -68 -45.5 -115t-112.5 -47q-68 0 -114 47t-46 115zM784 293q23 0 32 -35t9 -123q0 -78 -9 -106.5t-32 -28.5q-211 0 -299 111q-59 -59 -158.5 -85t-250.5 -26h-76v293h68q112 0 147 38.5t35 157.5v402h340v-418
q0 -180 194 -180z" />
    <glyph glyph-name="uniFE9E" unicode="&#x62c;" horiz-adv-x="1275" arabic-form="final" 
d="M1163 293h113q22 0 31.5 -35.5t9.5 -122.5q0 -76 -9.5 -105.5t-31.5 -29.5h-748q-70 0 -110.5 -34t-40.5 -91t44 -90t105 -33h25l16 -284h-30q-220 0 -359 107.5t-139 293.5q0 198 126.5 311t350.5 113h307v20q0 159 -63.5 227t-204.5 68q-94 0 -190 -22l-74 280
q133 47 287 47q153 0 267 -42.5t183 -121.5t102 -185.5t33 -241.5v-29zM774 -68q66 0 105 -42t39 -107q0 -64 -39 -104.5t-105 -40.5q-65 0 -105 40.5t-40 104.5t40 106.5t105 42.5z" />
    <glyph glyph-name="uniFE9F" unicode="&#x62c;" horiz-adv-x="983" arabic-form="initial" 
d="M864 0h-864v293h557q6 37 6 69q0 121 -64.5 183.5t-187.5 62.5q-95 0 -190 -24l-74 280q137 49 287 49q292 0 430.5 -149.5t138.5 -421.5q0 -150 -39 -342zM432 -471q-72 0 -117 44.5t-45 115.5t45.5 118.5t116.5 47.5q73 0 116.5 -47t43.5 -119t-43 -116t-117 -44z" />
    <glyph glyph-name="uniFEA0" unicode="&#x62c;" horiz-adv-x="1026" arabic-form="medial" 
d="M903 293h123q22 0 31.5 -35.5t9.5 -122.5q0 -76 -9.5 -105.5t-31.5 -29.5h-1026v293h557q6 37 6 69q0 121 -64.5 183.5t-187.5 62.5q-95 0 -190 -24l-74 280q137 49 287 49q292 0 430.5 -149.5t138.5 -421.5v-49zM432 -145q73 0 116.5 -47t43.5 -119t-43 -116t-117 -44
q-72 0 -117 44.5t-45 115.5t45.5 118.5t116.5 47.5z" />
    <glyph glyph-name="uniFEA2" unicode="&#x62d;" horiz-adv-x="1292" arabic-form="final" 
d="M1163 293h129q22 0 31.5 -35.5t9.5 -122.5q0 -76 -9.5 -105.5t-31.5 -29.5h-762q-70 0 -111.5 -31t-41.5 -84q0 -116 203 -116q79 0 145 14l57 -279q-116 -36 -235 -36q-224 0 -366 112.5t-142 313.5q0 183 126.5 291t342.5 108h315v20q0 159 -63.5 227t-204.5 68
q-94 0 -190 -22l-74 280q133 47 287 47q153 0 267 -42.5t183 -121.5t102 -185.5t33 -241.5v-29z" />
    <glyph glyph-name="uniFEA3" unicode="&#x62d;" horiz-adv-x="983" arabic-form="initial" 
d="M864 0h-864v293h557q6 37 6 69q0 121 -64.5 183.5t-187.5 62.5q-95 0 -190 -24l-74 280q137 49 287 49q292 0 430.5 -149.5t138.5 -421.5q0 -150 -39 -342z" />
    <glyph glyph-name="uniFEA4" unicode="&#x62d;" horiz-adv-x="1026" arabic-form="medial" 
d="M903 293h123q22 0 31.5 -35.5t9.5 -122.5q0 -76 -9.5 -105.5t-31.5 -29.5h-1026v293h557q6 37 6 69q0 121 -64.5 183.5t-187.5 62.5q-95 0 -190 -24l-74 280q137 49 287 49q292 0 430.5 -149.5t138.5 -421.5v-49z" />
    <glyph glyph-name="uniFEA6" unicode="&#x62e;" horiz-adv-x="1292" arabic-form="final" 
d="M567 1135q-71 0 -116 47t-45 118t44.5 116.5t116.5 45.5q74 0 117 -45t43 -117t-43.5 -118.5t-116.5 -46.5zM1163 293h129q22 0 31.5 -35.5t9.5 -122.5q0 -76 -9.5 -105.5t-31.5 -29.5h-762q-70 0 -111.5 -31t-41.5 -84q0 -116 203 -116q79 0 145 14l57 -279
q-116 -36 -235 -36q-224 0 -366 112.5t-142 313.5q0 183 126.5 291t342.5 108h315v20q0 159 -63.5 227t-204.5 68q-94 0 -190 -22l-74 280q133 47 287 47q153 0 267 -42.5t183 -121.5t102 -185.5t33 -241.5v-29z" />
    <glyph glyph-name="uniFEA7" unicode="&#x62e;" horiz-adv-x="983" arabic-form="initial" 
d="M315 1135q-71 0 -116 47t-45 118t44.5 116.5t116.5 45.5q74 0 117 -45t43 -117t-43.5 -118.5t-116.5 -46.5zM864 0h-864v293h557q6 37 6 69q0 121 -64.5 183.5t-187.5 62.5q-95 0 -190 -24l-74 280q137 49 287 49q292 0 430.5 -149.5t138.5 -421.5q0 -150 -39 -342z" />
    <glyph glyph-name="uniFEA8" unicode="&#x62e;" horiz-adv-x="1026" arabic-form="medial" 
d="M313 1135q-71 0 -116 47t-45 118t44.5 116.5t116.5 45.5q74 0 117 -45t43 -117t-43.5 -118.5t-116.5 -46.5zM903 293h123q22 0 31.5 -35.5t9.5 -122.5q0 -76 -9.5 -105.5t-31.5 -29.5h-1026v293h557q6 37 6 69q0 121 -64.5 183.5t-187.5 62.5q-95 0 -190 -24l-74 280
q137 49 287 49q292 0 430.5 -149.5t138.5 -421.5v-49z" />
    <glyph glyph-name="uniFEAA" unicode="&#x62f;" horiz-adv-x="1044" arabic-form="final" 
d="M940 293h104q22 0 31.5 -35.5t9.5 -122.5q0 -76 -9.5 -105.5t-31.5 -29.5h-985v293h543q-12 96 -99 201.5t-235 197.5l205 271q223 -141 335 -302t132 -368z" />
    <glyph glyph-name="uniFEAC" unicode="&#x630;" horiz-adv-x="1044" arabic-form="final" 
d="M358 1079q-71 0 -116 47.5t-45 118.5t44.5 116.5t116.5 45.5q74 0 117 -45t43 -117t-43.5 -119t-116.5 -47zM940 293h104q22 0 31.5 -35.5t9.5 -122.5q0 -76 -9.5 -105.5t-31.5 -29.5h-985v293h543q-12 96 -99 201.5t-235 197.5l205 271q223 -141 335 -302t132 -368z" />
    <glyph glyph-name="uniFEAE" unicode="&#x631;" horiz-adv-x="716" arabic-form="final" 
d="M553 293h164q22 0 31.5 -35.5t9.5 -122.5q0 -76 -9.5 -105.5t-31.5 -29.5h-174q-28 -192 -148.5 -285.5t-363.5 -115.5l-41 299q124 12 173.5 65t49.5 178v750h340v-598z" />
    <glyph glyph-name="uniFEB0" unicode="&#x632;" horiz-adv-x="716" arabic-form="final" 
d="M381 1120q-71 0 -116.5 47.5t-45.5 118.5t45 116.5t117 45.5q74 0 117 -45t43 -117t-43.5 -119t-116.5 -47zM553 293h164q22 0 31.5 -35.5t9.5 -122.5q0 -76 -9.5 -105.5t-31.5 -29.5h-174q-28 -192 -148.5 -285.5t-363.5 -115.5l-41 299q124 12 173.5 65t49.5 178v750
h340v-598z" />
    <glyph glyph-name="uniFEB2" unicode="&#x633;" horiz-adv-x="2578" arabic-form="final" 
d="M2578 293q22 0 31.5 -35.5t9.5 -122.5q0 -76 -9.5 -105.5t-31.5 -29.5q-194 0 -272 104q-113 -104 -299 -104q-161 0 -281 76q-109 -76 -292 -76q-120 0 -189 35q-36 -208 -187.5 -312t-393.5 -104q-121 0 -221 27.5t-171 75.5t-120 114.5t-72 143.5t-23 163
q0 183 99 398l284 -95q-57 -147 -57 -262q0 -123 72.5 -191.5t203.5 -68.5q127 0 191.5 62.5t64.5 212.5v542h340v-370q13 -78 117 -78q69 0 95 30.5t26 110.5v307h336v-344q0 -104 121 -104q68 0 94.5 31t26.5 110v457h339v-422q0 -91 45 -133.5t123 -42.5z" />
    <glyph glyph-name="uniFEB3" unicode="&#x633;" horiz-adv-x="1753" arabic-form="initial" 
d="M1325 436v455h338v-529q0 -167 -111.5 -264.5t-289.5 -97.5q-159 0 -279 76q-112 -76 -291 -76q-203 0 -307 80q-56 -45 -127.5 -62.5t-198.5 -17.5h-59v293h47q71 0 98 31t27 114v303h336v-342q0 -106 119 -106q69 0 95 30.5t26 112.5v305h335v-342q0 -106 119 -106
q70 0 96.5 31.5t26.5 111.5z" />
    <glyph glyph-name="uniFEB4" unicode="&#x633;" horiz-adv-x="1830" arabic-form="medial" 
d="M1831 293q22 0 31.5 -35.5t9.5 -122.5q0 -76 -9.5 -105.5t-31.5 -29.5q-194 0 -272 104q-110 -104 -297 -104q-159 0 -279 76q-112 -76 -291 -76q-203 0 -307 80q-56 -45 -127.5 -62.5t-198.5 -17.5h-59v293h47q71 0 98 31t27 114v303h336v-342q0 -106 119 -106
q69 0 95 30.5t26 112.5v305h335v-342q0 -106 119 -106q70 0 96.5 31.5t26.5 111.5v455h338v-422q0 -91 45 -133.5t123 -42.5z" />
    <glyph glyph-name="uniFEB6" unicode="&#x634;" horiz-adv-x="2578" arabic-form="final" 
d="M1651 1264q-64 0 -111 47t-47 112q0 67 46.5 115.5t111.5 48.5q72 0 115.5 -47t43.5 -117q0 -67 -44 -113t-115 -46zM1456 940q-68 0 -114 47t-46 115q0 70 45.5 115t114.5 45q70 0 114 -44.5t44 -115.5q0 -69 -44.5 -115.5t-113.5 -46.5zM1675 1102q0 70 45.5 115
t114.5 45q68 0 113 -45t45 -115q0 -68 -45.5 -115t-112.5 -47q-68 0 -114 47t-46 115zM2578 293q22 0 31.5 -35.5t9.5 -122.5q0 -76 -9.5 -105.5t-31.5 -29.5q-194 0 -272 104q-113 -104 -299 -104q-161 0 -281 76q-109 -76 -292 -76q-120 0 -189 35q-36 -208 -187.5 -312
t-393.5 -104q-121 0 -221 27.5t-171 75.5t-120 114.5t-72 143.5t-23 163q0 183 99 398l284 -95q-57 -147 -57 -262q0 -123 72.5 -191.5t203.5 -68.5q127 0 191.5 62.5t64.5 212.5v542h340v-370q13 -78 117 -78q69 0 95 30.5t26 110.5v307h336v-344q0 -104 121 -104
q68 0 94.5 31t26.5 110v457h339v-422q0 -91 45 -133.5t123 -42.5z" />
    <glyph glyph-name="uniFEB7" unicode="&#x634;" horiz-adv-x="1753" arabic-form="initial" 
d="M903 1264q-64 0 -111 47t-47 112q0 67 46.5 115.5t111.5 48.5q72 0 116 -47.5t44 -116.5q0 -67 -44 -113t-116 -46zM709 940q-68 0 -114 47t-46 115q0 70 45.5 115t114.5 45q70 0 113.5 -44.5t43.5 -115.5q0 -69 -44 -115.5t-113 -46.5zM928 1102q0 70 45 115t114 45
q68 0 113 -45t45 -115q0 -68 -45.5 -115t-112.5 -47q-68 0 -113.5 47t-45.5 115zM1325 436v455h338v-529q0 -167 -111.5 -264.5t-289.5 -97.5q-159 0 -279 76q-112 -76 -291 -76q-203 0 -307 80q-56 -45 -127.5 -62.5t-198.5 -17.5h-59v293h47q71 0 98 31t27 114v303h336
v-342q0 -106 119 -106q69 0 95 30.5t26 112.5v305h335v-342q0 -106 119 -106q70 0 96.5 31.5t26.5 111.5z" />
    <glyph glyph-name="uniFEB8" unicode="&#x634;" horiz-adv-x="1830" arabic-form="medial" 
d="M903 1264q-64 0 -111 47t-47 112q0 67 46.5 115.5t111.5 48.5q72 0 116 -47.5t44 -116.5q0 -67 -44 -113t-116 -46zM709 940q-68 0 -114 47t-46 115q0 70 45.5 115t114.5 45q70 0 113.5 -44.5t43.5 -115.5q0 -69 -44 -115.5t-113 -46.5zM928 1102q0 70 45 115t114 45
q68 0 113 -45t45 -115q0 -68 -45.5 -115t-112.5 -47q-68 0 -113.5 47t-45.5 115zM1831 293q22 0 31.5 -35.5t9.5 -122.5q0 -76 -9.5 -105.5t-31.5 -29.5q-194 0 -272 104q-110 -104 -297 -104q-159 0 -279 76q-112 -76 -291 -76q-203 0 -307 80q-56 -45 -127.5 -62.5
t-198.5 -17.5h-59v293h47q71 0 98 31t27 114v303h336v-342q0 -106 119 -106q69 0 95 30.5t26 112.5v305h335v-342q0 -106 119 -106q70 0 96.5 31.5t26.5 111.5v455h338v-422q0 -91 45 -133.5t123 -42.5z" />
    <glyph glyph-name="uniFEBA" unicode="&#x635;" horiz-adv-x="2816" arabic-form="final" 
d="M2707 293h109q22 0 31.5 -35.5t9.5 -122.5q0 -76 -9.5 -105.5t-31.5 -29.5h-1343q-148 0 -226 55q-30 -218 -182.5 -327t-400.5 -109q-121 0 -221 27.5t-171 75.5t-120 114.5t-72 143.5t-23 163q0 183 99 398l284 -95q-57 -147 -57 -262q0 -123 72.5 -191.5t203.5 -68.5
q127 0 191.5 62.5t64.5 212.5v542h340v-319q0 -55 39 -90.5t109 -38.5q79 168 174 290.5t197.5 194.5t208 106t219.5 34q244 0 377 -138t133 -395q0 -9 -5 -92zM2154 612q-232 0 -415 -319h633q8 41 8 86q0 110 -58.5 171.5t-167.5 61.5z" />
    <glyph glyph-name="uniFEBB" unicode="&#x635;" horiz-adv-x="1955" arabic-form="initial" 
d="M1366 918q244 0 377 -138t133 -395q0 -188 -51 -385h-1196q-175 0 -285 61q-91 -61 -344 -61v293q84 0 105.5 28t21.5 136v284h340v-340q0 -57 19 -81t81 -27q77 165 174 288.5t201.5 195.5t210 106.5t213.5 34.5zM1319 612q-106 0 -209.5 -85t-189.5 -234h618q8 47 8 86
q0 110 -59 171.5t-168 61.5z" />
    <glyph glyph-name="uniFEBC" unicode="&#x635;" horiz-adv-x="1980" arabic-form="medial" 
d="M1872 293h108q22 0 31.5 -35.5t9.5 -122.5q0 -76 -9.5 -105.5t-31.5 -29.5h-1351q-175 0 -285 61q-91 -61 -344 -61v293q84 0 105.5 28t21.5 136v284h340v-340q0 -57 19 -81t81 -27q77 165 174 288.5t201.5 195.5t210 106.5t213.5 34.5q244 0 377 -138t133 -395
q0 -59 -4 -92zM1319 612q-106 0 -209.5 -85t-189.5 -234h618q8 47 8 86q0 110 -59 171.5t-168 61.5z" />
    <glyph glyph-name="uniFEBE" unicode="&#x636;" horiz-adv-x="2816" arabic-form="final" 
d="M2019 1135q-71 0 -116 47t-45 118t44.5 116.5t116.5 45.5q74 0 117 -45t43 -117t-43.5 -118.5t-116.5 -46.5zM2707 293h109q22 0 31.5 -35.5t9.5 -122.5q0 -76 -9.5 -105.5t-31.5 -29.5h-1343q-148 0 -226 55q-30 -218 -182.5 -327t-400.5 -109q-121 0 -221 27.5
t-171 75.5t-120 114.5t-72 143.5t-23 163q0 183 99 398l284 -95q-57 -147 -57 -262q0 -123 72.5 -191.5t203.5 -68.5q127 0 191.5 62.5t64.5 212.5v542h340v-319q0 -55 39 -90.5t109 -38.5q79 168 174 290.5t197.5 194.5t208 106t219.5 34q244 0 377 -138t133 -395
q0 -9 -5 -92zM2154 612q-232 0 -415 -319h633q8 41 8 86q0 110 -58.5 171.5t-167.5 61.5z" />
    <glyph glyph-name="uniFEBF" unicode="&#x636;" horiz-adv-x="1955" arabic-form="initial" 
d="M1157 1135q-71 0 -116.5 47t-45.5 118t45 116.5t117 45.5q74 0 117 -45t43 -117t-43.5 -118.5t-116.5 -46.5zM1366 918q244 0 377 -138t133 -395q0 -188 -51 -385h-1196q-175 0 -285 61q-91 -61 -344 -61v293q84 0 105.5 28t21.5 136v284h340v-340q0 -57 19 -81t81 -27
q77 165 174 288.5t201.5 195.5t210 106.5t213.5 34.5zM1319 612q-106 0 -209.5 -85t-189.5 -234h618q8 47 8 86q0 110 -59 171.5t-168 61.5z" />
    <glyph glyph-name="uniFEC0" unicode="&#x636;" horiz-adv-x="1980" arabic-form="medial" 
d="M1157 1135q-71 0 -116.5 47t-45.5 118t45 116.5t117 45.5q74 0 117 -45t43 -117t-43.5 -118.5t-116.5 -46.5zM1872 293h108q22 0 31.5 -35.5t9.5 -122.5q0 -76 -9.5 -105.5t-31.5 -29.5h-1351q-175 0 -285 61q-91 -61 -344 -61v293q84 0 105.5 28t21.5 136v284h340v-340
q0 -57 19 -81t81 -27q77 165 174 288.5t201.5 195.5t210 106.5t213.5 34.5q244 0 377 -138t133 -395q0 -59 -4 -92zM1319 612q-106 0 -209.5 -85t-189.5 -234h618q8 47 8 86q0 110 -59 171.5t-168 61.5z" />
    <glyph glyph-name="uniFEC2" unicode="&#x637;" horiz-adv-x="1759" arabic-form="final" 
d="M1653 293h106q22 0 31.5 -35.5t9.5 -122.5q0 -76 -9.5 -105.5t-31.5 -29.5h-1700v293h170v1255h338v-895q123 136 270 200.5t302 64.5q249 0 383.5 -137.5t134.5 -395.5q0 -30 -4 -92zM563 293h758q4 54 4 72q0 118 -59.5 182.5t-175.5 64.5q-128 0 -263 -78.5
t-264 -240.5z" />
    <glyph glyph-name="uniFEC3" unicode="&#x637;" horiz-adv-x="1671" arabic-form="initial" 
d="M1073 918q249 0 383.5 -137.5t134.5 -395.5q0 -180 -53 -385h-1538v293h162v1255h340v-895q240 265 571 265zM498 293h757q5 67 5 72q0 118 -60 182.5t-176 64.5q-128 0 -263.5 -78.5t-262.5 -240.5z" />
    <glyph glyph-name="uniFEC4" unicode="&#x637;" horiz-adv-x="1677" arabic-form="medial" 
d="M1587 293h90q22 0 31.5 -35.5t9.5 -122.5q0 -76 -9.5 -105.5t-31.5 -29.5h-1677v293h162v1255h340v-895q240 265 571 265q249 0 383.5 -137.5t134.5 -395.5q0 -30 -4 -92zM498 293h757q5 67 5 72q0 118 -60 182.5t-176 64.5q-128 0 -263.5 -78.5t-262.5 -240.5z" />
    <glyph glyph-name="uniFEC6" unicode="&#x638;" horiz-adv-x="1759" arabic-form="final" 
d="M1653 293h106q22 0 31.5 -35.5t9.5 -122.5q0 -76 -9.5 -105.5t-31.5 -29.5h-1700v293h170v1255h338v-895q123 136 270 200.5t302 64.5q249 0 383.5 -137.5t134.5 -395.5q0 -30 -4 -92zM1059 1135q-71 0 -116.5 47t-45.5 118t45 116.5t117 45.5q74 0 117 -45t43 -117
t-43.5 -118.5t-116.5 -46.5zM563 293h758q4 54 4 72q0 118 -59.5 182.5t-175.5 64.5q-128 0 -263 -78.5t-264 -240.5z" />
    <glyph glyph-name="uniFEC7" unicode="&#x638;" horiz-adv-x="1671" arabic-form="initial" 
d="M1073 918q249 0 383.5 -137.5t134.5 -395.5q0 -180 -53 -385h-1538v293h162v1255h340v-895q240 265 571 265zM971 1135q-71 0 -116.5 47t-45.5 118t45 116.5t117 45.5q74 0 116.5 -45t42.5 -117t-43 -118.5t-116 -46.5zM498 293h757q5 67 5 72q0 118 -60 182.5t-176 64.5
q-128 0 -263.5 -78.5t-262.5 -240.5z" />
    <glyph glyph-name="uniFEC8" unicode="&#x638;" horiz-adv-x="1677" arabic-form="medial" 
d="M1587 293h90q22 0 31.5 -35.5t9.5 -122.5q0 -76 -9.5 -105.5t-31.5 -29.5h-1677v293h162v1255h340v-895q240 265 571 265q249 0 383.5 -137.5t134.5 -395.5q0 -30 -4 -92zM971 1135q-71 0 -116.5 47t-45.5 118t45 116.5t117 45.5q74 0 116.5 -45t42.5 -117t-43 -118.5
t-116 -46.5zM498 293h757q5 67 5 72q0 118 -60 182.5t-176 64.5q-128 0 -263.5 -78.5t-262.5 -240.5z" />
    <glyph glyph-name="uniFECA" unicode="&#x639;" horiz-adv-x="1196" arabic-form="final" 
d="M965 293h231q22 0 31.5 -35.5t9.5 -122.5q0 -76 -9.5 -105.5t-31.5 -29.5h-248q-224 0 -364 39q-115 -39 -157 -79t-42 -85q0 -106 203 -106q79 0 145 14l58 -279q-101 -36 -252 -36q-226 0 -359 92.5t-133 267.5q0 128 72 223.5t223 165.5q-127 191 -252 289
q15 167 64 297q103 49 234.5 79.5t264.5 30.5q200 0 315 -81.5t115 -229.5q0 -156 -118 -309zM414 592l-2 -8q114 -106 202 -254q66 43 101 92t35 92q0 42 -41.5 70t-126.5 28q-93 0 -168 -20z" />
    <glyph glyph-name="uniFECB" unicode="&#x639;" horiz-adv-x="991" arabic-form="initial" 
d="M477 293h455v-293h-932v293h141q-47 97 -47 209q0 192 148 301.5t399 109.5q126 0 254 -32l-61 -291q-95 18 -170 18q-109 0 -169.5 -47t-60.5 -135q0 -74 43 -133z" />
    <glyph glyph-name="uniFECC" unicode="&#x639;" horiz-adv-x="1202" arabic-form="medial" 
d="M975 293h227q22 0 31.5 -35.5t9.5 -122.5q0 -76 -9.5 -105.5t-31.5 -29.5h-198q-233 0 -412 39q-195 -39 -488 -39h-104v293h264h31q-105 143 -199 215q15 171 64 297q102 48 233.5 78t265.5 30q200 0 315.5 -81.5t115.5 -229.5q0 -149 -115 -309zM420 592l-2 -8
q123 -120 200 -254q63 36 100.5 87.5t37.5 96.5q0 42 -41.5 70t-126.5 28q-93 0 -168 -20z" />
    <glyph glyph-name="uniFECE" unicode="&#x63a;" horiz-adv-x="1196" arabic-form="final" 
d="M625 1135q-71 0 -116.5 47t-45.5 118t45 116.5t117 45.5q74 0 116.5 -45t42.5 -117t-43 -118.5t-116 -46.5zM965 293h231q22 0 31.5 -35.5t9.5 -122.5q0 -76 -9.5 -105.5t-31.5 -29.5h-248q-224 0 -364 39q-115 -39 -157 -79t-42 -85q0 -106 203 -106q79 0 145 14
l58 -279q-101 -36 -252 -36q-226 0 -359 92.5t-133 267.5q0 128 72 223.5t223 165.5q-127 191 -252 289q15 167 64 297q103 49 234.5 79.5t264.5 30.5q200 0 315 -81.5t115 -229.5q0 -156 -118 -309zM414 592l-2 -8q114 -106 202 -254q66 43 101 92t35 92q0 42 -41.5 70
t-126.5 28q-93 0 -168 -20z" />
    <glyph glyph-name="uniFECF" unicode="&#x63a;" horiz-adv-x="991" arabic-form="initial" 
d="M604 1143q-71 0 -116.5 47.5t-45.5 118.5t45 116t117 45q74 0 117 -44.5t43 -116.5t-43.5 -119t-116.5 -47zM477 293h455v-293h-932v293h141q-47 97 -47 209q0 192 148 301.5t399 109.5q126 0 254 -32l-61 -291q-95 18 -170 18q-109 0 -169.5 -47t-60.5 -135
q0 -74 43 -133z" />
    <glyph glyph-name="uniFED0" unicode="&#x63a;" horiz-adv-x="1202" arabic-form="medial" 
d="M631 1135q-71 0 -116.5 47t-45.5 118t45 116.5t117 45.5q74 0 117 -45t43 -117t-43.5 -118.5t-116.5 -46.5zM975 293h227q22 0 31.5 -35.5t9.5 -122.5q0 -76 -9.5 -105.5t-31.5 -29.5h-198q-233 0 -412 39q-195 -39 -488 -39h-104v293h264h31q-105 143 -199 215
q15 171 64 297q102 48 233.5 78t265.5 30q200 0 315.5 -81.5t115.5 -229.5q0 -149 -115 -309zM420 592l-2 -8q123 -120 200 -254q63 36 100.5 87.5t37.5 96.5q0 42 -41.5 70t-126.5 28q-93 0 -168 -20z" />
    <glyph glyph-name="uniFED2" unicode="&#x641;" horiz-adv-x="2289" arabic-form="final" 
d="M1688 1135q-71 0 -116.5 47t-45.5 118t45 116.5t117 45.5q74 0 116.5 -45t42.5 -117t-43 -118.5t-116 -46.5zM2124 293h166q22 0 31.5 -35.5t9.5 -122.5q0 -76 -9.5 -105.5t-31.5 -29.5h-236q-194 0 -383 27q-193 -27 -348 -27h-719q-254 0 -400.5 124t-146.5 322
q0 162 66 338l289 -75q-29 -126 -29 -193q0 -105 73.5 -164t202.5 -59h576q-64 94 -64 207q0 80 33 153t95 131.5t163 93.5t226 35q122 0 220 -33t159 -89t93.5 -127.5t32.5 -151.5q0 -116 -69 -219zM1679 291q75 14 127 65.5t52 118.5q0 60 -47 98.5t-128 38.5
q-79 0 -127.5 -37.5t-48.5 -97.5q0 -65 49.5 -115t122.5 -71z" />
    <glyph glyph-name="uniFED3" unicode="&#x641;" horiz-adv-x="1228" arabic-form="initial" 
d="M647 1135q-71 0 -116.5 47t-45.5 118t45 116.5t117 45.5q74 0 117 -45t43 -117t-43.5 -118.5t-116.5 -46.5zM647 913q240 0 371 -131t131 -344q0 -217 -80 -438h-1069v293h143q-22 68 -22 137q0 208 141 345.5t385 137.5zM477 293h320q12 74 12 119q0 95 -46 147.5
t-132 52.5q-85 0 -132.5 -49.5t-47.5 -128.5q0 -67 26 -141z" />
    <glyph glyph-name="uniFED4" unicode="&#x641;" horiz-adv-x="1236" arabic-form="medial" 
d="M635 1135q-71 0 -116.5 47t-45.5 118t45 116.5t117 45.5q74 0 117 -45t43 -117t-43.5 -118.5t-116.5 -46.5zM1071 293h166q22 0 31.5 -35.5t9.5 -122.5q0 -76 -9.5 -105.5t-31.5 -29.5h-236q-199 0 -383 27q-193 -27 -348 -27h-270v293h182q-63 92 -63 207q0 80 32.5 153
t95 131.5t163 93.5t225.5 35q122 0 220 -33t159.5 -89t94 -127.5t32.5 -151.5q0 -115 -70 -219zM627 291q75 14 126.5 65.5t51.5 118.5q0 60 -46.5 98.5t-127.5 38.5q-79 0 -127.5 -37.5t-48.5 -97.5q0 -65 49.5 -115t122.5 -71z" />
    <glyph glyph-name="uniFED6" unicode="&#x642;" horiz-adv-x="1755" arabic-form="final" 
d="M971 1135q-69 0 -114.5 46.5t-45.5 114.5q0 69 45.5 113.5t114.5 44.5q70 0 113.5 -44.5t43.5 -113.5t-44 -115t-113 -46zM1350 1135q-69 0 -114.5 46.5t-45.5 114.5q0 69 45.5 113.5t114.5 44.5q68 0 112.5 -44.5t44.5 -113.5q0 -68 -45 -114.5t-112 -46.5zM1626 293
h129q23 0 32 -35t9 -123q0 -78 -9 -106.5t-32 -28.5h-158q-56 -189 -236 -289t-509 -100q-212 0 -367.5 38.5t-247.5 110t-136 166t-44 213.5q0 133 56 293l290 -76q-20 -84 -20 -163q0 -92 45 -152.5t154 -94.5t286 -34q299 0 392 100h-84q-253 0 -383.5 119t-130.5 322
q0 92 35 175.5t97 146.5t155.5 100.5t203.5 37.5q98 0 178 -26.5t134 -71.5t91 -106t53.5 -127.5t16.5 -137.5v-151zM1182 293h108v149q0 79 -36 124.5t-107 45.5q-68 0 -110 -41t-42 -110q0 -78 48 -123t139 -45z" />
    <glyph glyph-name="uniFED7" unicode="&#x642;" horiz-adv-x="1228" arabic-form="initial" 
d="M455 1135q-69 0 -114.5 46.5t-45.5 114.5q0 69 45.5 113.5t114.5 44.5q70 0 113.5 -44.5t43.5 -113.5t-44 -115t-113 -46zM834 1135q-69 0 -114.5 46.5t-45.5 114.5q0 69 45.5 113.5t114.5 44.5q68 0 112.5 -44.5t44.5 -113.5q0 -68 -45 -114.5t-112 -46.5zM647 913
q240 0 371 -131t131 -344q0 -217 -80 -438h-1069v293h143q-22 68 -22 137q0 208 141 345.5t385 137.5zM477 293h320q12 74 12 119q0 95 -46 147.5t-132 52.5q-85 0 -132.5 -49.5t-47.5 -128.5q0 -67 26 -141z" />
    <glyph glyph-name="uniFED8" unicode="&#x642;" horiz-adv-x="1236" arabic-form="medial" 
d="M444 1135q-68 0 -113.5 46.5t-45.5 114.5q0 69 45 113.5t114 44.5q70 0 114 -44.5t44 -113.5t-44 -115t-114 -46zM823 1135q-68 0 -113.5 46.5t-45.5 114.5q0 69 45 113.5t114 44.5q68 0 113 -44.5t45 -113.5q0 -68 -45.5 -114.5t-112.5 -46.5zM1071 293h166
q22 0 31.5 -35.5t9.5 -122.5q0 -76 -9.5 -105.5t-31.5 -29.5h-236q-199 0 -383 27q-193 -27 -348 -27h-270v293h182q-63 92 -63 207q0 80 32.5 153t95 131.5t163 93.5t225.5 35q122 0 220 -33t159.5 -89t94 -127.5t32.5 -151.5q0 -115 -70 -219zM627 291q75 14 126.5 65.5
t51.5 118.5q0 60 -46.5 98.5t-127.5 38.5q-79 0 -127.5 -37.5t-48.5 -97.5q0 -65 49.5 -115t122.5 -71z" />
    <glyph glyph-name="uniFEDA" unicode="&#x643;" horiz-adv-x="1882" arabic-form="final" 
d="M1882 293q22 0 31.5 -35.5t9.5 -122.5q0 -76 -9.5 -105.5t-31.5 -29.5q-197 0 -276 109q-115 -109 -396 -109h-606q-254 0 -400.5 124t-146.5 322q0 162 66 338l289 -75q-29 -126 -29 -193q0 -105 73.5 -164t202.5 -59h551q97 0 131.5 42.5t34.5 153.5v1059h338v-1079
q0 -91 45 -133.5t123 -42.5zM948 850h152v-162h-426v162h76q-21 40 -21 84q0 79 61.5 135.5t172.5 56.5q64 0 114 -16l-20 -156q-45 9 -62 9q-32 0 -50.5 -14.5t-18.5 -41.5q0 -32 22 -57z" />
    <glyph glyph-name="uniFEDB" unicode="&#x643;" horiz-adv-x="1015" arabic-form="initial" 
d="M866 1333l-458 -442q287 -80 407.5 -234t120.5 -409v-248h-936v293h596q-5 110 -53 182t-163 123t-314 84v317l579 560z" />
    <glyph glyph-name="uniFEDC" unicode="&#x643;" horiz-adv-x="1056" arabic-form="medial" 
d="M936 293h121q22 0 31.5 -35.5t9.5 -122.5q0 -76 -9.5 -105.5t-31.5 -29.5h-1057v293h596q-5 110 -53 182t-163 123t-314 84v317l579 560l221 -226l-458 -442q274 -76 396.5 -220t131.5 -378z" />
    <glyph glyph-name="uniFEDE" unicode="&#x644;" horiz-adv-x="1372" arabic-form="final" 
d="M1255 293h117q22 0 31.5 -35.5t9.5 -122.5q0 -76 -9.5 -105.5t-31.5 -29.5h-135q-43 -191 -192 -286t-381 -95q-121 0 -221 27.5t-171 75.5t-120 114.5t-72 143.5t-23 163q0 183 99 398l284 -95q-57 -147 -57 -262q0 -123 72.5 -191.5t203.5 -68.5q127 0 191.5 62.5
t64.5 212.5v1349h340v-1255z" />
    <glyph glyph-name="uniFEDF" unicode="&#x644;" horiz-adv-x="620" arabic-form="initial" 
d="M0 0v293q96 0 130 42.5t34 153.5v1059h340v-1122q0 -231 -120.5 -328.5t-383.5 -97.5z" />
    <glyph glyph-name="uniFEE0" unicode="&#x644;" horiz-adv-x="671" arabic-form="medial" 
d="M672 293q22 0 31.5 -35.5t9.5 -122.5q0 -76 -9.5 -105.5t-31.5 -29.5q-198 0 -277 109q-115 -109 -395 -109v293q96 0 130 42.5t34 153.5v1059h340v-1079q0 -91 45 -133.5t123 -42.5z" />
    <glyph glyph-name="uniFEE2" unicode="&#x645;" horiz-adv-x="1585" arabic-form="final" 
d="M1485 293h100q22 0 31.5 -35.5t9.5 -122.5q0 -76 -9.5 -105.5t-31.5 -29.5h-213q-141 -147 -414 -147h-274q-74 71 -123 147h-22q-79 0 -115.5 -31t-36.5 -112v-389h-330v454q0 178 111 274.5t309 96.5v4q0 220 143.5 362t383.5 142q216 0 348.5 -131.5t132.5 -356.5v-20
zM858 145h96q99 0 148 50.5t49 130.5q0 69 -44.5 121.5t-119.5 52.5q-80 0 -128 -57t-48 -144q0 -37 12.5 -81t34.5 -73z" />
    <glyph glyph-name="uniFEE3" unicode="&#x645;" horiz-adv-x="1181" arabic-form="initial" 
d="M614 913q225 0 357.5 -128t132.5 -320q0 -222 -141 -343.5t-412 -121.5h-551v293h137q-37 73 -37 176q0 197 142 320.5t372 123.5zM467 293h115q188 0 188 164q0 69 -45.5 112t-118.5 43q-78 0 -127 -47t-49 -135q0 -71 37 -137z" />
    <glyph glyph-name="uniFEE4" unicode="&#x645;" horiz-adv-x="1206" arabic-form="medial" 
d="M1108 293h98q23 0 32 -35t9 -123q0 -78 -9 -106.5t-32 -28.5h-211q-141 -147 -413 -147h-275q-73 71 -123 147h-184v293h100v4q0 220 143.5 362t383.5 142q216 0 348.5 -131.5t132.5 -356.5v-20zM471 145h107q99 0 147.5 50.5t48.5 130.5q0 69 -45 121.5t-121 52.5
q-83 0 -128.5 -56.5t-45.5 -144.5q0 -33 11 -78t26 -76z" />
    <glyph glyph-name="uniFEE6" unicode="&#x646;" horiz-adv-x="1390" arabic-form="final" 
d="M662 846q-71 0 -116.5 47.5t-45.5 118.5t45 116.5t117 45.5q74 0 116.5 -45t42.5 -117t-43 -119t-116 -47zM1255 293h136q23 0 32 -35t9 -123q0 -78 -9 -106.5t-32 -28.5h-154q-43 -191 -192 -286t-381 -95q-121 0 -221 27.5t-171 75.5t-120 114.5t-72 143.5t-23 163
q0 183 99 398l284 -95q-57 -147 -57 -262q0 -123 72.5 -191.5t203.5 -68.5q127 0 191.5 62.5t64.5 212.5v542h340v-448z" />
    <glyph glyph-name="uniFEE7" unicode="&#x646;" horiz-adv-x="591" arabic-form="initial" 
d="M334 1116q-71 0 -116.5 47.5t-45.5 118.5t45 116.5t117 45.5q74 0 117 -45t43 -117t-43.5 -119t-116.5 -47zM0 0v293q100 0 132 37.5t32 158.5v402h340v-430q0 -134 -28.5 -223t-92.5 -142t-155 -74.5t-228 -21.5z" />
    <glyph glyph-name="uniFEE8" unicode="&#x646;" horiz-adv-x="671" arabic-form="medial" 
d="M334 1116q-71 0 -116.5 47.5t-45.5 118.5t45 116.5t117 45.5q74 0 117 -45t43 -117t-43.5 -119t-116.5 -47zM672 293q22 0 31.5 -35.5t9.5 -122.5q0 -76 -9.5 -105.5t-31.5 -29.5q-196 0 -275 106q-111 -106 -397 -106v293q100 0 132 37.5t32 158.5v402h340v-422
q0 -91 45 -133.5t123 -42.5z" />
    <glyph glyph-name="uniFEE9" unicode="&#x647;" horiz-adv-x="1122" arabic-form="isolated" 
d="M555 -10q-226 0 -362 110t-136 316q0 231 139.5 364t358.5 133q217 0 353 -134.5t136 -362.5q0 -205 -129.5 -315.5t-359.5 -110.5zM553 291q66 0 109 40.5t43 110.5q0 80 -42.5 125t-109.5 45q-70 0 -112 -45t-42 -123q0 -73 40 -113t114 -40z" />
    <glyph glyph-name="uniFEEA" unicode="&#x647;" horiz-adv-x="1157" arabic-form="final" 
d="M1157 293q22 0 31.5 -35.5t9.5 -122.5q0 -76 -9.5 -105.5t-31.5 -29.5q-265 0 -366 76q-124 -62 -265 -62q-113 0 -203 32.5t-147.5 90t-88 134t-30.5 165.5q0 203 147 329t402 126h412v-449q0 -83 29.5 -116t109.5 -33zM672 330v270h-111q-83 0 -128.5 -39t-45.5 -106
q0 -142 184 -142q59 0 101 17z" />
    <glyph glyph-name="uniFEEB" unicode="&#x647;" horiz-adv-x="1396" arabic-form="initial" 
d="M86 707l37 266q124 -3 227 -9.5t207.5 -19.5t189 -33t164.5 -49t140.5 -67.5t112 -90.5t84.5 -115t51 -143t18 -174q0 -114 -31 -272h-553q-144 0 -237 41q-90 -41 -246 -41h-250v293h160q-41 80 -41 178q0 141 78 231q-93 5 -111 5zM494 299q56 34 88 87.5t32 117.5
q0 65 -29.5 102t-84.5 37q-54 0 -85.5 -38t-31.5 -101q0 -126 111 -205zM1040 307q0 182 -178 273q19 -55 19 -105q0 -100 -50 -182h209v14z" />
    <glyph glyph-name="uniFEEC" unicode="&#x647;" horiz-adv-x="1120" arabic-form="medial" 
d="M975 293h145q22 0 31.5 -35.5t9.5 -122.5q0 -76 -9.5 -105.5t-31.5 -29.5h-141q55 -85 55 -176q0 -141 -112.5 -229.5t-319.5 -88.5q-267 0 -386.5 117t-119.5 332v45h-96v293h96v80q0 236 127.5 384t349.5 148q211 0 332 -118.5t121 -292.5q0 -107 -51 -201zM569 608
q-66 0 -102.5 -50.5t-36.5 -145.5v-121h76q186 0 186 174q0 62 -31 102.5t-92 40.5zM580 -199q64 0 92 28t28 73q0 54 -30 100h-240v-31q0 -86 36 -128t114 -42z" />
    <glyph glyph-name="uniFEEE" unicode="&#x648;" horiz-adv-x="1179" arabic-form="final" 
d="M1057 293h123q22 0 31.5 -35.5t9.5 -122.5q0 -76 -9.5 -105.5t-31.5 -29.5h-129q-25 -198 -180.5 -304t-438.5 -106q-82 0 -174 9l-20 299q406 -32 471 114h-119q-228 0 -363 115.5t-135 306.5q0 203 141.5 341t360.5 138q114 0 203 -34.5t145.5 -96t85.5 -143t29 -178.5
v-168zM426 453q0 -76 45 -118t131 -42h119v133q0 186 -141 186q-73 0 -113.5 -45.5t-40.5 -113.5z" />
    <glyph glyph-name="uniFEF0" unicode="&#x649;" horiz-adv-x="1667" arabic-form="final" 
d="M1462 293h205q22 0 31.5 -35.5t9.5 -122.5q0 -76 -9.5 -105.5t-31.5 -29.5h-55q45 -57 45 -133q0 -175 -212 -287t-591 -112q-204 0 -358 40.5t-249.5 114.5t-142.5 173t-47 222q0 122 58 293l291 -71q-23 -106 -23 -174q0 -157 113 -225t387 -68q220 0 328 39t108 102
q0 77 -176 119l-264 65l71 287l279 -68q98 -24 233 -24z" />
    <glyph glyph-name="uniFEF2" unicode="&#x64a;" horiz-adv-x="1667" arabic-form="final" 
d="M1462 293h205q22 0 31.5 -35.5t9.5 -122.5q0 -76 -9.5 -105.5t-31.5 -29.5h-55q45 -57 45 -133q0 -175 -212 -287t-591 -112q-204 0 -358 40.5t-249.5 114.5t-142.5 173t-47 222q0 122 58 293l291 -71q-23 -106 -23 -174q0 -157 113 -225t387 -68q220 0 328 39t108 102
q0 77 -176 119l-264 65l71 287l279 -68q98 -24 233 -24zM668 -637q70 0 113.5 -46t43.5 -116q0 -68 -43.5 -112.5t-113.5 -44.5q-69 0 -114.5 44.5t-45.5 112.5q0 69 45.5 115.5t114.5 46.5zM1047 -637q67 0 112 -46.5t45 -115.5q0 -67 -45 -112t-112 -45q-69 0 -114.5 44.5
t-45.5 112.5q0 69 45.5 115.5t114.5 46.5z" />
    <glyph glyph-name="uniFEF3" unicode="&#x64a;" horiz-adv-x="739" arabic-form="initial" 
d="M76 0h-76v293h68q112 0 147 38.5t35 157.5v402h340v-430q0 -133 -27 -220.5t-90 -141.5t-158 -76.5t-239 -22.5zM190 -469q-69 0 -114 45t-45 113q0 69 45 115t114 46q70 0 114 -45.5t44 -115.5q0 -68 -44 -113t-114 -45zM569 -469q-69 0 -114 45t-45 113q0 69 45 115
t114 46q68 0 113 -46t45 -115q0 -67 -45.5 -112.5t-112.5 -45.5z" />
    <glyph glyph-name="uniFEF4" unicode="&#x64a;" horiz-adv-x="784" arabic-form="medial" 
d="M784 293q23 0 32 -35t9 -123q0 -78 -9 -106.5t-32 -28.5q-211 0 -299 111q-59 -59 -158.5 -85t-250.5 -26h-76v293h68q112 0 147 38.5t35 157.5v402h340v-418q0 -180 194 -180zM195 -150q70 0 113.5 -45.5t43.5 -115.5q0 -68 -43.5 -113t-113.5 -45q-69 0 -114.5 45
t-45.5 113q0 69 45.5 115t114.5 46zM573 -150q68 0 113 -46t45 -115q0 -67 -45.5 -112.5t-112.5 -45.5q-69 0 -114 45t-45 113q0 69 45 115t114 46z" />
    <glyph glyph-name=".notdef" horiz-adv-x="1048" 
d="M1049 0h-1049v1470h1049v-1470zM102 1366v-1264h844v1264h-844zM555 479h-94q-4 24 -4 35q0 115 26 166q33 64 95 121q64 59 83 93.5t19 76.5q0 73 -46 123.5t-110 50.5q-67 0 -112 -47.5t-56 -147.5l-102 17q13 141 87 210.5t189 69.5q110 0 182 -74t72 -194
q0 -70 -26.5 -123.5t-102.5 -122.5q-77 -68 -88 -106q-12 -41 -12 -148zM569 240h-114v137h114v-137z" />
    <glyph glyph-name=".null" 
 />
    <glyph glyph-name="nonmarkingreturn" horiz-adv-x="682" 
 />
    <glyph glyph-name="NULL" 
 />
    <glyph glyph-name="NULL" 
 />
    <glyph glyph-name="CR" unicode="&#xd;" horiz-adv-x="512" 
 />
    <glyph glyph-name="space" unicode=" " horiz-adv-x="512" 
 />
    <glyph glyph-name="exclam" unicode="!" horiz-adv-x="731" 
d="M537 485h-344v965h344v-965zM365 -20q-81 0 -140 55.5t-59 136.5q0 80 58 137.5t141 57.5t141.5 -56.5t58.5 -136.5q0 -82 -58.5 -138t-141.5 -56z" />
    <glyph glyph-name="quotedbl" unicode="&#x22;" horiz-adv-x="1019" 
d="M444 895h-268v555h268v-555zM842 895h-267v555h267v-555z" />
    <glyph glyph-name="quotedbl" unicode="&#x2033;" horiz-adv-x="1019" 
d="M444 895h-268v555h268v-555zM842 895h-267v555h267v-555z" />
    <glyph glyph-name="numbersign" unicode="#" horiz-adv-x="1234" 
d="M434 0h-225l59 410h-174v213h203l31 204h-174v213h200l60 410h227l-59 -410h159l60 410h225l-57 -410h172v-213h-203l-29 -204h174v-213h-200l-62 -410h-225l59 410h-161zM551 827l-27 -204h160l29 204h-162z" />
    <glyph glyph-name="dollar" unicode="$" horiz-adv-x="1323" 
d="M725 -170h-158v152q-300 22 -483 202l225 224q76 -98 226 -129v337q-195 63 -290 155.5t-95 254.5q0 96 35 176t95.5 132.5t136 85.5t161.5 44v148h159v-146q129 -8 249.5 -53t207.5 -127l-225 -217q-59 75 -178 100v-313q66 -22 116.5 -44.5t105 -59t90 -79t58.5 -103.5
t23 -134q0 -103 -37 -187.5t-101 -140t-146 -88t-175 -38.5v-152zM645 903v285q-65 -5 -106 -41.5t-41 -97.5q0 -54 34.5 -86.5t112.5 -59.5zM678 569v-311q67 5 112.5 43.5t45.5 108.5q0 57 -39.5 94t-118.5 65z" />
    <glyph glyph-name="percent" unicode="%" horiz-adv-x="1865" 
d="M1460 1423l-854 -1493l-182 90l846 1496zM449 700q-161 0 -275.5 113.5t-114.5 273.5q0 162 114 275t276 113t275.5 -113t113.5 -275q0 -160 -114 -273.5t-275 -113.5zM449 930q66 0 112.5 45.5t46.5 111.5t-46.5 113t-112.5 47t-113 -47t-47 -113t47 -111.5t113 -45.5z
M1432 -25q-162 0 -276 113t-114 274t114.5 274.5t275.5 113.5t275 -113.5t114 -274.5t-114 -274t-275 -113zM1432 205q65 0 112 46t47 111q0 66 -47 113t-112 47q-66 0 -113 -47t-47 -113t47 -111.5t113 -45.5z" />
    <glyph glyph-name="ampersand" unicode="&#x26;" horiz-adv-x="1599" 
d="M612 -29q-81 0 -155.5 16.5t-141.5 51t-116 84.5t-78 122t-29 158q0 143 84.5 243t218.5 159q-149 146 -149 315q0 94 40 167.5t106 116t144 64t162 21.5q68 0 131 -13.5t120 -43t99.5 -72t67.5 -104.5t25 -136q0 -234 -291 -379l182 -186l146 223h372l-313 -420
l360 -358h-423l-138 141q-160 -170 -424 -170zM672 922q75 30 121.5 78t46.5 110q0 57 -38 95t-100 38q-60 0 -99.5 -38t-39.5 -95q0 -99 109 -188zM625 236q133 0 213 110l-256 266q-71 -29 -112.5 -74t-41.5 -120q0 -82 60 -132t137 -50z" />
    <glyph glyph-name="quotesingle" unicode="'" horiz-adv-x="620" 
d="M442 895h-266v555h266v-555z" />
    <glyph glyph-name="quotesingle" unicode="&#x2032;" horiz-adv-x="620" 
d="M442 895h-266v555h266v-555z" />
    <glyph glyph-name="parenleft" unicode="(" horiz-adv-x="700" 
d="M590 -227l-230 -113q-145 200 -223 440t-78 490t78 490t223 440l230 -113q-130 -178 -198 -386.5t-68 -430.5t68 -430.5t198 -386.5z" />
    <glyph glyph-name="parenright" unicode=")" horiz-adv-x="700" 
d="M340 -340l-229 113q130 178 198 386.5t68 430.5t-68 430.5t-198 386.5l229 113q145 -200 223 -440t78 -490t-78 -490t-223 -440z" />
    <glyph glyph-name="asterisk" unicode="*" horiz-adv-x="1001" 
d="M498 854l-162 -215l-180 129l166 213l-265 88l72 205l260 -90v266h225v-266l260 82l70 -205l-262 -82l166 -219l-184 -129z" />
    <glyph glyph-name="plus" unicode="+" horiz-adv-x="1363" 
d="M817 63h-266v429h-436v258h434v428h266v-428h436v-258h-434v-429z" />
    <glyph glyph-name="comma" unicode="," horiz-adv-x="614" 
d="M317 -254h-276l154 582h321z" />
    <glyph glyph-name="hyphen" unicode="-" horiz-adv-x="667" 
d="M594 403h-520v267h520v-267z" />
    <glyph glyph-name="period" unicode="." horiz-adv-x="614" 
d="M309 -20q-86 0 -147.5 57t-61.5 141q0 83 61.5 143t147.5 60q84 0 144.5 -58.5t60.5 -142.5t-60.5 -142t-144.5 -58z" />
    <glyph glyph-name="slash" unicode="/" horiz-adv-x="849" 
d="M850 1481l-633 -1587l-231 75l632 1592z" />
    <glyph glyph-name="zero" unicode="0" horiz-adv-x="1323" 
d="M664 -39q-120 0 -217 40.5t-162 111t-108.5 168.5t-63 209.5t-19.5 238.5q0 126 19.5 236.5t63 208t108.5 166.5t162 109t217 40t216 -40t160.5 -109t107.5 -166.5t62 -208t19 -236.5q0 -127 -19 -238.5t-62 -209.5t-107.5 -168.5t-160.5 -111t-216 -40.5zM664 256
q64 0 108.5 46t66 122.5t30 150t8.5 154.5q0 79 -8.5 152t-30 149t-66 122t-108.5 46q-52 0 -92 -32t-63.5 -80t-38 -113.5t-19.5 -124t-5 -119.5q0 -62 5 -121t19.5 -125t38 -114.5t63.5 -80.5t92 -32z" />
    <glyph glyph-name="one" unicode="1" horiz-adv-x="1323" 
d="M924 0h-344v1065l-271 -209l-178 244l477 350h316v-1450z" />
    <glyph glyph-name="two" unicode="2" horiz-adv-x="1323" 
d="M1188 0h-1049v287l566 512q118 111 118 223q0 77 -49.5 125.5t-130.5 48.5q-85 0 -139.5 -60t-65.5 -159l-329 45q16 143 94.5 250t197.5 162t261 55q81 0 156.5 -17t142.5 -53t117 -87.5t79 -125.5t29 -162q0 -60 -14.5 -115t-35.5 -96.5t-58 -86.5t-67.5 -75t-78.5 -73
l-336 -299h592v-299z" />
    <glyph glyph-name="three" unicode="3" horiz-adv-x="1323" 
d="M647 -39q-101 0 -191.5 22.5t-168 68t-135.5 120.5t-86 174l319 84q22 -77 87 -128.5t159 -51.5q85 0 148 45.5t63 138.5q0 53 -25.5 91.5t-69 59.5t-93.5 30.5t-107 9.5h-92v252h100q254 0 254 172q0 74 -53.5 116.5t-128.5 42.5q-74 0 -128 -44t-71 -117l-319 73
q51 176 200.5 272.5t339.5 96.5q98 0 188 -25.5t162.5 -74.5t116 -129t43.5 -181q0 -117 -68 -202t-176 -113v-6q124 -29 201.5 -122t77.5 -214q0 -92 -31.5 -169.5t-84.5 -130.5t-123.5 -90t-148.5 -54t-159 -17z" />
    <glyph glyph-name="four" unicode="4" horiz-adv-x="1323" 
d="M1055 0h-322v283h-682v288l590 879h412v-889h200v-278h-198v-283zM729 1098l-344 -537h350v537h-6z" />
    <glyph glyph-name="five" unicode="5" horiz-adv-x="1323" 
d="M633 -39q-200 0 -350 99.5t-201 269.5l313 96q24 -77 87.5 -125.5t146.5 -48.5q93 0 155 55.5t62 155.5q0 62 -26 107t-70.5 68.5t-94 34.5t-106.5 11q-77 0 -177.5 -17.5t-176.5 -45.5l34 829h889v-295h-583l-13 -229q60 14 146 14q148 0 265 -50.5t188 -156.5t71 -254
q0 -127 -47 -228.5t-126 -163.5t-178 -94t-208 -32z" />
    <glyph glyph-name="six" unicode="6" horiz-adv-x="1323" 
d="M659 -39q-158 0 -287.5 62.5t-206.5 182t-77 273.5q0 120 41 225t121 224l350 522h416l-363 -504v-2q46 17 103 17q127 0 235 -58.5t174 -168t66 -247.5q0 -121 -45.5 -221t-123.5 -166t-181.5 -102.5t-221.5 -36.5zM659 248q101 0 164.5 64t63.5 167q0 99 -62.5 163.5
t-162.5 64.5q-101 0 -165.5 -64.5t-64.5 -165.5q0 -96 63.5 -162.5t163.5 -66.5z" />
    <glyph glyph-name="seven" unicode="7" horiz-adv-x="1323" 
d="M627 0h-400l588 1155h-686v295h1053v-274z" />
    <glyph glyph-name="eight" unicode="8" horiz-adv-x="1323" 
d="M662 -39q-110 0 -206.5 28t-173 82.5t-121 142t-44.5 198.5q0 126 74 218t186 128v4q-99 37 -160 117.5t-61 195.5q0 129 71.5 225t184.5 142.5t250 46.5q136 0 249 -45t184.5 -139.5t71.5 -223.5q0 -117 -60.5 -200.5t-160.5 -116.5v-6q112 -32 186 -126t74 -218
q0 -111 -44.5 -199t-120.5 -142.5t-172.5 -83t-206.5 -28.5zM662 885q74 0 124 51t50 121t-51 118t-123 48q-76 0 -124.5 -47.5t-48.5 -118.5t48 -121.5t125 -50.5zM662 233q90 0 145 53t55 140q0 84 -56.5 140.5t-143.5 56.5q-89 0 -146 -56t-57 -141q0 -87 56.5 -140
t146.5 -53z" />
    <glyph glyph-name="nine" unicode="9" horiz-adv-x="1323" 
d="M721 0h-416l361 500l4 6q-49 -17 -103 -17q-127 0 -235.5 58.5t-175 168.5t-66.5 247q0 121 45.5 221t123.5 166t181.5 102.5t221.5 36.5q159 0 288 -62.5t206 -181.5t77 -274q0 -120 -41 -225t-121 -224zM659 745q101 0 165.5 64.5t64.5 165.5q0 97 -62.5 164t-162.5 67
q-102 0 -166 -65t-64 -168q0 -99 62.5 -163.5t162.5 -64.5z" />
    <glyph glyph-name="colon" unicode=":" horiz-adv-x="679" 
d="M342 643q-83 0 -143 56t-60 137t59.5 138.5t143.5 57.5q80 0 139.5 -56.5t59.5 -135.5q0 -81 -59.5 -139t-139.5 -58zM342 -12q-83 0 -143 55.5t-60 136.5q0 82 60 139.5t143 57.5q80 0 139.5 -57t59.5 -138t-59 -137.5t-140 -56.5z" />
    <glyph glyph-name="semicolon" unicode=";" horiz-adv-x="679" 
d="M342 645q-81 0 -141 56t-60 137q0 82 59 139t142 57q81 0 140 -56.5t59 -137.5t-58.5 -138t-140.5 -57zM344 -254h-283l154 582h328z" />
    <glyph glyph-name="less" unicode="&#x3c;" horiz-adv-x="1363" 
d="M1202 356v-280l-1040 438v211l1040 438v-278l-627 -269z" />
    <glyph glyph-name="equal" unicode="=" horiz-adv-x="1363" 
d="M1225 686h-1086v252h1086v-252zM1225 307h-1086v252h1086v-252z" />
    <glyph glyph-name="greater" unicode="&#x3e;" horiz-adv-x="1363" 
d="M1202 514l-1040 -438v280l626 260l-626 269v278l1040 -438v-211z" />
    <glyph glyph-name="question" unicode="?" horiz-adv-x="1118" 
d="M739 463h-319v78q0 69 20 123t51.5 93t90.5 91l67 63q41 36 62.5 69.5t21.5 76.5q0 65 -40 104t-109 39q-80 0 -126.5 -55.5t-49.5 -134.5l-326 34q11 109 56 194.5t114.5 140t157 82.5t186.5 28q94 0 178.5 -24.5t154 -73t110 -129t40.5 -183.5q0 -66 -14.5 -117.5
t-48.5 -96.5t-69.5 -78t-96.5 -80q-67 -53 -89 -90t-22 -101v-53zM582 -20q-83 0 -142 55.5t-59 136.5q0 80 59 137.5t142 57.5q82 0 140 -56.5t58 -136.5q0 -82 -57.5 -138t-140.5 -56z" />
    <glyph glyph-name="at" unicode="@" horiz-adv-x="1638" 
d="M850 -37q-172 0 -319.5 56.5t-251 156.5t-162 241.5t-58.5 305.5q0 160 62.5 302.5t169 243.5t251.5 159.5t306 58.5q117 0 224.5 -26.5t201 -81.5t163 -133t109 -187t39.5 -238q0 -229 -118 -361t-302 -132q-81 0 -133.5 36t-60.5 95h-8q-32 -54 -95.5 -92.5
t-148.5 -38.5q-136 0 -215.5 95.5t-79.5 250.5q0 117 47.5 221.5t139 172t206.5 67.5q75 0 128 -32t67 -79h2l14 70h221l-63 -322q-27 -127 -27 -170q0 -74 60 -74q66 0 111.5 74.5t45.5 210.5q0 233 -145 360t-385 127q-248 0 -404.5 -163.5t-156.5 -413.5
q0 -258 163 -412.5t424 -154.5q279 0 471 176l130 -144q-231 -225 -623 -225zM780 530q57 0 97.5 41.5t57.5 95t17 109.5q0 160 -114 160q-73 0 -121.5 -82.5t-48.5 -179.5q0 -60 26 -102t86 -42z" />
    <glyph glyph-name="A" unicode="A" horiz-adv-x="1492" 
d="M580 1450h340l602 -1450h-389l-113 285h-561l-107 -285h-381zM743 1063l-184 -498h365z" />
    <glyph glyph-name="B" unicode="B" horiz-adv-x="1361" 
d="M727 0h-577v1450h577q72 0 138 -10.5t132.5 -37t115 -67.5t78.5 -107t30 -151q0 -116 -64 -196t-174 -117v-4q130 -23 213.5 -112t83.5 -226q0 -91 -31.5 -164.5t-83.5 -120.5t-124.5 -78.5t-150 -45t-163.5 -13.5zM487 1171v-299h189q99 0 153 41t54 117q0 141 -224 141
h-172zM487 614v-331h197q46 0 86 7.5t78 25t60 53.5t22 86q0 86 -64 122.5t-184 36.5h-195z" />
    <glyph glyph-name="C" unicode="C" horiz-adv-x="1425" 
d="M862 -39q-166 0 -310 56t-247.5 155.5t-163 243t-59.5 311.5q0 227 104.5 402t282.5 267.5t399 92.5q158 0 306.5 -56t236.5 -157l-237 -238q-48 65 -127 99t-166 34q-182 0 -300 -125.5t-118 -318.5q0 -198 114.5 -321t296.5 -123q100 0 180.5 40t127.5 107l243 -229
q-98 -114 -241.5 -177t-321.5 -63z" />
    <glyph glyph-name="D" unicode="D" horiz-adv-x="1585" 
d="M690 0h-540v1450h524q130 0 245 -21.5t224 -74.5t187.5 -133.5t125.5 -206.5t47 -285q0 -148 -46.5 -271t-124.5 -206.5t-183.5 -141t-220.5 -84t-238 -26.5zM492 1151v-848h165q78 0 146.5 13t131 44t107 78.5t71 122t26.5 168.5q0 95 -26.5 169t-70 121t-105.5 77
t-128.5 42.5t-142.5 12.5h-174z" />
    <glyph glyph-name="E" unicode="E" horiz-adv-x="1243" 
d="M1161 0h-1011v1450h974v-297h-637v-272h603v-281h-603v-301h674v-299z" />
    <glyph glyph-name="F" unicode="F" horiz-adv-x="1179" 
d="M496 0h-346v1450h954v-299h-608v-299h561v-289h-561v-563z" />
    <glyph glyph-name="G" unicode="G" horiz-adv-x="1574" 
d="M879 -37q-230 0 -411 95t-283.5 269.5t-102.5 399.5q0 227 104.5 402t282.5 267.5t399 92.5q169 0 318 -52t241 -141l-221 -252q-53 61 -138 98.5t-187 37.5q-184 0 -305 -129t-121 -324q0 -205 116.5 -331t325.5 -126q131 0 219 39v264h-276v283h598v-768
q-238 -125 -559 -125z" />
    <glyph glyph-name="H" unicode="H" horiz-adv-x="1564" 
d="M500 0h-350v1450h350v-549h565v549h350v-1450h-350v606h-565v-606z" />
    <glyph glyph-name="I" unicode="I" horiz-adv-x="651" 
d="M502 0h-352v1450h352v-1450z" />
    <glyph glyph-name="J" unicode="J" horiz-adv-x="1083" 
d="M465 -39q-179 0 -304.5 93.5t-166.5 246.5l309 105q14 -58 52.5 -92.5t93.5 -34.5q81 0 111 55t30 160v956h352v-954q0 -76 -11 -144.5t-43.5 -142t-83.5 -126.5t-138 -87.5t-201 -34.5z" />
    <glyph glyph-name="K" unicode="K" horiz-adv-x="1456" 
d="M494 0h-344v1450h344v-590h6l518 590h438l-625 -668l662 -782h-457l-538 668h-4v-668z" />
    <glyph glyph-name="L" unicode="L" horiz-adv-x="1077" 
d="M1063 0h-913v1450h352v-1145h561v-305z" />
    <glyph glyph-name="M" unicode="M" horiz-adv-x="1955" 
d="M479 0h-329v1450h497l330 -930h8l315 930h506v-1450h-342l9 1026h-7l-376 -1026h-246l-367 1026h-6z" />
    <glyph glyph-name="N" unicode="N" horiz-adv-x="1617" 
d="M489 0h-339v1450h399l581 -946h7l-9 946h340v-1450h-397l-584 948h-6z" />
    <glyph glyph-name="O" unicode="O" horiz-adv-x="1742" 
d="M870 -39q-135 0 -256 35.5t-217.5 103.5t-167.5 161.5t-109 213.5t-38 256q0 228 102.5 401.5t281 265t404.5 91.5q227 0 406 -91.5t282 -265t103 -401.5q0 -226 -102.5 -402t-282.5 -272t-406 -96zM870 281q183 0 299.5 126.5t116.5 323.5q0 192 -116.5 317.5
t-299.5 125.5t-298 -125.5t-115 -317.5q0 -197 115.5 -323.5t297.5 -126.5z" />
    <glyph glyph-name="P" unicode="P" horiz-adv-x="1310" 
d="M500 0h-350v1450h532q98 0 181 -14.5t155.5 -47.5t122.5 -83.5t79 -127t29 -173.5q0 -122 -46.5 -212.5t-128.5 -142.5t-181.5 -77t-218.5 -25h-174v-547zM500 1167v-342h147q71 0 124.5 14.5t90.5 55.5t37 106q0 50 -20 84t-57 51t-77 24t-92 7h-153z" />
    <glyph glyph-name="Q" unicode="Q" horiz-adv-x="1755" 
d="M1731 0h-883q-173 0 -315.5 50t-244.5 143t-158 234t-56 316q0 216 102.5 387t281.5 265t402 94t401 -93t278.5 -262t100.5 -384q0 -154 -63.5 -278.5t-151.5 -192.5v-7l306 7v-279zM858 299q179 0 295.5 123t116.5 317q0 190 -114.5 311t-295.5 121q-176 0 -292.5 -122
t-116.5 -310q0 -195 113.5 -317.5t293.5 -122.5z" />
    <glyph glyph-name="R" unicode="R" horiz-adv-x="1357" 
d="M494 0h-344v1450h552q88 0 165.5 -13.5t150 -45.5t124.5 -81t83.5 -125.5t31.5 -172.5q0 -144 -80 -246t-221 -145l379 -621h-409l-314 575h-118v-575zM492 1167v-338h165q48 0 88.5 7.5t80 25.5t62.5 55t23 89q0 161 -233 161h-186z" />
    <glyph glyph-name="S" unicode="S" horiz-adv-x="1210" 
d="M573 -37q-157 0 -302.5 55t-239.5 154l229 234q53 -67 140.5 -110.5t172.5 -43.5q88 0 144.5 38t56.5 120q0 76 -80 122q-50 29 -213 81l-1 1h-1h-1l-1 1h-1h-1l-1 1h-1q-51 16 -92 33.5t-85.5 42t-77.5 56.5t-60.5 72.5t-41.5 94t-14 117.5q0 93 32.5 170.5t87.5 129
t128 87.5t152 52t162 16q127 0 254.5 -46.5t220.5 -131.5l-224 -236q-43 56 -116 90.5t-142 34.5q-51 0 -93.5 -11.5t-75.5 -45.5t-33 -88q0 -28 11 -50.5t27.5 -38.5t47.5 -31t60.5 -25.5t76.5 -24.5q51 -15 88 -27.5t87.5 -34t86 -44t73.5 -56.5t61.5 -72.5t38.5 -90.5
t15 -112q0 -121 -46 -215.5t-124.5 -152t-176 -86.5t-208.5 -29z" />
    <glyph glyph-name="T" unicode="T" horiz-adv-x="1189" 
d="M770 0h-350v1151h-410v299h1170v-299h-410v-1151z" />
    <glyph glyph-name="U" unicode="U" horiz-adv-x="1511" 
d="M754 -39q-283 0 -451 161.5t-168 424.5v903h348v-875q0 -61 15.5 -113t47 -94.5t85.5 -67t125 -24.5q72 0 126 24.5t85 67t46 94.5t15 113v875h350v-903q0 -262 -170.5 -424t-453.5 -162z" />
    <glyph glyph-name="V" unicode="V" horiz-adv-x="1396" 
d="M868 0h-350l-549 1450h393l336 -1028h9l333 1028h387z" />
    <glyph glyph-name="W" unicode="W" horiz-adv-x="2099" 
d="M760 0h-348l-412 1450h377l229 -965h6l258 965h365l260 -965h6l234 965h364l-413 -1450h-347l-286 981h-6z" />
    <glyph glyph-name="X" unicode="X" horiz-adv-x="1439" 
d="M401 0h-417l508 766l-467 684h421l271 -451l266 451h408l-459 -684l524 -766h-432l-317 512z" />
    <glyph glyph-name="Y" unicode="Y" horiz-adv-x="1370" 
d="M692 911l309 539h410l-557 -836v-614h-350v614l-545 836h424z" />
    <glyph glyph-name="Z" unicode="Z" horiz-adv-x="1300" 
d="M1223 0h-1143v303l690 850h-674v297h1112v-281l-706 -866h721v-303z" />
    <glyph glyph-name="bracketleft" unicode="[" horiz-adv-x="700" 
d="M551 -319h-442v1818h442v-209h-182v-1401h182v-208z" />
    <glyph glyph-name="backslash" unicode="\" horiz-adv-x="849" 
d="M864 -31l-231 -75l-631 1587l231 80z" />
    <glyph glyph-name="bracketright" unicode="]" horiz-adv-x="700" 
d="M592 -319h-442v208h182v1401h-182v209h442v-1818z" />
    <glyph glyph-name="asciicircum" unicode="^" horiz-adv-x="1413" 
d="M453 702h-303l436 748h241l435 -748h-304l-253 437z" />
    <glyph glyph-name="underscore" unicode="_" horiz-adv-x="1024" 
d="M1024 -336h-1024v182h1024v-182z" />
    <glyph glyph-name="grave" unicode="`" horiz-adv-x="614" 
d="M473 1171h-254l-299 295h340z" />
    <glyph glyph-name="a" unicode="a" horiz-adv-x="1159" 
d="M438 -25q-65 0 -127 17t-118 52.5t-90.5 100t-34.5 150.5q0 344 649 344h6v16q0 72 -51 110t-133 38q-69 0 -136 -29.5t-116 -75.5l-170 183q88 83 207.5 127.5t246.5 44.5q253 0 361 -128t108 -411v-352v-162h-307v109h-6q-38 -62 -117.5 -98t-171.5 -36zM522 201
q100 0 155.5 56.5t55.5 152.5v34h-43q-63 0 -112 -5t-98 -18.5t-76 -43t-27 -72.5q0 -54 43 -79t102 -25z" />
    <glyph glyph-name="b" unicode="b" horiz-adv-x="1349" 
d="M782 -29q-103 0 -193.5 43.5t-139.5 118.5h-5v-133h-309v1548h336v-637h4q49 59 128 98.5t183 39.5q108 0 200 -43.5t153 -117t95 -170.5t34 -204t-33.5 -205t-94 -173.5t-153.5 -120t-205 -44.5zM702 250q77 0 133 39t82.5 97.5t26.5 127.5q0 106 -64 183t-178 77
q-109 0 -177 -79.5t-68 -182.5q0 -105 68 -183.5t177 -78.5z" />
    <glyph glyph-name="c" unicode="c" horiz-adv-x="1030" 
d="M651 -33q-162 0 -290.5 64.5t-204.5 189t-76 289.5q0 162 76.5 287t205 190.5t287.5 65.5q109 0 214 -38.5t165 -99.5l-194 -225q-28 37 -78 59.5t-101 22.5q-103 0 -169 -76.5t-66 -185.5t66 -184.5t173 -75.5q53 0 103 20t80 56l186 -228q-63 -61 -163.5 -96
t-213.5 -35z" />
    <glyph glyph-name="d" unicode="d" horiz-adv-x="1347" 
d="M565 -29q-148 0 -260.5 77t-168.5 199t-56 267q0 107 34 204t94.5 170.5t152.5 117t200 43.5q104 0 183 -39.5t128 -98.5h5v637h335v-1548h-309v133h-4q-49 -75 -140 -118.5t-194 -43.5zM645 250q109 0 177.5 78.5t68.5 183.5q0 103 -68.5 182.5t-177.5 79.5
q-114 0 -178 -77t-64 -183q0 -69 26.5 -127.5t82.5 -97.5t133 -39z" />
    <glyph glyph-name="e" unicode="e" horiz-adv-x="1220" 
d="M641 -33q-156 0 -281.5 62t-202.5 186t-77 291q0 163 73.5 289t198 192t279.5 66q229 0 370.5 -149t141.5 -406q0 -55 -2 -80h-740q7 -83 79 -138t165 -55q146 0 225 107l234 -148q-73 -105 -191 -161t-272 -56zM401 627h433q0 84 -52.5 139t-148.5 55q-95 0 -160.5 -57
t-71.5 -137z" />
    <glyph glyph-name="f" unicode="f" horiz-adv-x="745" 
d="M522 0h-336v774h-186v252h186v92q0 79 12.5 145.5t44 127.5t80.5 103.5t126 67.5t176 25q97 0 161 -20l-22 -267q-47 15 -92 15q-150 0 -150 -193v-96h228v-252h-228v-774z" />
    <glyph glyph-name="g" unicode="g" horiz-adv-x="1347" 
d="M612 -492q-137 0 -280.5 42.5t-243.5 117.5l168 240q72 -63 160.5 -96t177.5 -33q143 0 216 76t73 208v62h-6q-48 -63 -129 -99t-181 -36q-113 0 -206 42.5t-154 115t-94 168t-33 202.5q0 86 20.5 165.5t62 147t99 117.5t135.5 78.5t168 28.5q100 0 187 -40.5t139 -119.5
h4v131h317v-930q0 -291 -160 -439.5t-440 -148.5zM645 256q112 0 180 77t68 187q0 109 -68.5 184.5t-179.5 75.5q-110 0 -174.5 -74.5t-64.5 -185.5q0 -108 65 -186t174 -78z" />
    <glyph glyph-name="h" unicode="h" horiz-adv-x="1263" 
d="M471 0h-336v1548h336v-657h4q36 66 114.5 112t178.5 46q99 0 174 -36t117 -97t62 -132.5t20 -152.5v-631h-338v553q0 215 -150 215q-85 0 -133.5 -61.5t-48.5 -155.5v-551z" />
    <glyph glyph-name="i" unicode="i" horiz-adv-x="606" 
d="M303 1161q-81 0 -136.5 54.5t-55.5 130.5q0 75 55.5 129.5t136.5 54.5q80 0 136.5 -54t56.5 -130q0 -78 -56.5 -131.5t-136.5 -53.5zM471 0h-336v1026h336v-1026z" />
    <glyph glyph-name="j" unicode="j" horiz-adv-x="612" 
d="M309 1161q-81 0 -136.5 54.5t-55.5 130.5q0 75 55.5 129.5t136.5 54.5q80 0 136.5 -54t56.5 -130q0 -78 -56.5 -131.5t-136.5 -53.5zM70 -492q-83 0 -146 17l23 280q31 -10 71 -10q69 0 96 46t27 132v1053h336v-1053q0 -81 -10.5 -146t-38 -126t-72.5 -102.5t-117.5 -66
t-168.5 -24.5z" />
    <glyph glyph-name="k" unicode="k" horiz-adv-x="1218" 
d="M471 0h-338v1548h338v-938h6l326 416h407l-393 -463l410 -563h-416l-334 494h-6v-494z" />
    <glyph glyph-name="l" unicode="l" horiz-adv-x="610" 
d="M475 0h-340v1548h340v-1548z" />
    <glyph glyph-name="m" unicode="m" horiz-adv-x="1892" 
d="M1399 1055q99 0 173.5 -37.5t115.5 -100t61 -133t20 -147.5v-637h-335v563q0 100 -32 157.5t-114 57.5t-126 -64t-44 -157v-557h-336v588q0 90 -36 140t-109 50q-77 0 -122.5 -62t-45.5 -157v-559h-338v801v225h326v-141h4q39 72 118 121t187 49q218 0 307 -174
q112 174 326 174z" />
    <glyph glyph-name="n" unicode="n" horiz-adv-x="1261" 
d="M469 0h-338v791v235h326v-141h4q37 71 120.5 120.5t184.5 49.5q99 0 173.5 -36t116.5 -97t62.5 -132.5t20.5 -152.5v-637h-338v563q0 215 -152 215q-85 0 -132.5 -63t-47.5 -156v-559z" />
    <glyph glyph-name="o" unicode="o" horiz-adv-x="1294" 
d="M645 -33q-154 0 -282 66t-205.5 192.5t-77.5 288.5q0 122 45 224.5t122.5 170.5t180 106t217.5 38q116 0 219 -38t180.5 -106t122.5 -170.5t45 -224.5q0 -162 -77.5 -288.5t-206 -192.5t-283.5 -66zM647 250q112 0 177 79t65 185q0 105 -65.5 182.5t-178.5 77.5
q-112 0 -175.5 -77t-63.5 -183t64.5 -185t176.5 -79z" />
    <glyph glyph-name="p" unicode="p" horiz-adv-x="1345" 
d="M467 -492h-336v1518h320v-125h6q50 67 134.5 110.5t190.5 43.5q108 0 200 -43.5t153.5 -117.5t96 -171t34.5 -205t-33.5 -206.5t-94 -174.5t-153.5 -121t-205 -45q-94 0 -178 38t-131 104h-4v-605zM700 250q113 0 176.5 79.5t63.5 188.5q0 69 -26 127t-81.5 96.5
t-132.5 38.5q-109 0 -177 -80.5t-68 -183.5q0 -107 68 -186.5t177 -79.5z" />
    <glyph glyph-name="q" unicode="q" horiz-adv-x="1345" 
d="M1212 -492h-333v605h-5q-49 -66 -132 -104t-177 -38q-112 0 -205.5 45t-153.5 121t-93 174.5t-33 206.5t34 205t94.5 171t152.5 117.5t200 43.5q107 0 192.5 -43.5t135.5 -110.5h6v125h317v-1518zM645 250q109 0 177.5 79.5t68.5 186.5q0 103 -68.5 183.5t-177.5 80.5
q-114 0 -178 -77.5t-64 -184.5q0 -109 64 -188.5t178 -79.5z" />
    <glyph glyph-name="r" unicode="r" horiz-adv-x="811" 
d="M467 0h-336v766v260h324v-147h4q40 79 112.5 127.5t163.5 48.5q51 0 72 -8l-14 -295q-39 10 -86 10q-64 0 -113 -24t-75 -61t-39 -74.5t-13 -72.5v-530z" />
    <glyph glyph-name="s" unicode="s" horiz-adv-x="966" 
d="M467 -33q-127 0 -246.5 41.5t-197.5 116.5l188 199q46 -51 112.5 -83t137.5 -32q48 0 84.5 21.5t36.5 66.5q0 44 -44 67t-159 50q-60 14 -107 34t-93 53.5t-71.5 87t-25.5 122.5q0 87 38.5 155.5t101 107.5t135 59t149.5 20q117 0 226.5 -37.5t182.5 -106.5l-184 -190
q-96 92 -213 92q-53 0 -90 -20.5t-37 -61.5q0 -40 39 -59t148 -43q325 -73 325 -312q0 -93 -38 -162.5t-102.5 -108.5t-138.5 -58t-157 -19z" />
    <glyph glyph-name="t" unicode="t" horiz-adv-x="761" 
d="M530 -25q-194 0 -278 94.5t-84 268.5v436h-164v252h162v266h330v-266h239v-252h-239v-395q0 -73 28.5 -108t98.5 -35q58 0 98 16l4 -246q-87 -31 -195 -31z" />
    <glyph glyph-name="u" unicode="u" horiz-adv-x="1257" 
d="M492 -29q-99 0 -173 36t-116 97t-62 132.5t-20 152.5v637h338v-559q0 -47 6.5 -83t22.5 -68t47 -49t75 -17q84 0 132.5 63.5t48.5 155.5v557h335v-829v-197h-323v141h-4q-37 -71 -120.5 -120.5t-186.5 -49.5z" />
    <glyph glyph-name="v" unicode="v" horiz-adv-x="1161" 
d="M762 0h-363l-401 1026h371l215 -668h6l215 668h358z" />
    <glyph glyph-name="w" unicode="w" horiz-adv-x="1783" 
d="M690 0h-338l-352 1026h362l177 -651h6l182 651h338l188 -651h4l179 651h348l-354 -1026h-338l-201 641h-4z" />
    <glyph glyph-name="x" unicode="x" horiz-adv-x="1216" 
d="M383 0h-389l407 539l-368 487h391l190 -274l193 274h379l-367 -487l404 -539h-396l-219 317z" />
    <glyph glyph-name="y" unicode="y" horiz-adv-x="1161" 
d="M258 -492q-90 0 -184 23l37 283q63 -19 108 -19q73 0 109 32t63 105l33 84l-426 1010h373l227 -661h6l203 661h356l-456 -1180q-33 -84 -69.5 -143t-89 -105t-124.5 -68t-166 -22z" />
    <glyph glyph-name="z" unicode="z" horiz-adv-x="1048" 
d="M979 0h-909v262l479 506h-461v258h870v-252l-493 -514h514v-260z" />
    <glyph glyph-name="braceleft" unicode="{" horiz-adv-x="700" 
d="M598 -319h-168q-128 0 -204 82.5t-76 220.5v342q0 151 -138 151v225q138 0 138 144v350q0 138 76 220.5t204 82.5h168v-215h-96q-94 0 -94 -123v-342q0 -56 -20 -101t-51.5 -70t-61.5 -39t-58 -17v-4q29 -3 58.5 -15.5t61 -37.5t51.5 -72.5t20 -110.5v-334
q0 -122 94 -122h96v-215z" />
    <glyph glyph-name="bar" unicode="|" horiz-adv-x="493" 
d="M381 -512h-266l-2 2060h268v-2060z" />
    <glyph glyph-name="braceright" unicode="}" horiz-adv-x="700" 
d="M270 -319h-168v215h97q94 0 94 122v334q0 63 20 110.5t51 72.5t60.5 37.5t58.5 15.5v4q-28 3 -58 17t-61 39t-51 70t-20 101v342q0 123 -94 123h-97v215h168q128 0 204.5 -82.5t76.5 -220.5v-350q0 -144 137 -144v-225q-137 0 -137 -151v-342q0 -138 -76.5 -220.5
t-204.5 -82.5z" />
    <glyph glyph-name="asciitilde" unicode="~" horiz-adv-x="1363" 
d="M930 379q-62 0 -113 18t-117 60q-66 41 -115.5 59.5t-103.5 18.5q-102 0 -172 -144l-135 213q104 203 281 203q118 0 245 -76q142 -82 203 -82q51 0 91.5 38t86.5 108l133 -211q-56 -95 -121.5 -150t-162.5 -55z" />
    <glyph glyph-name="uni00A0" unicode="&#xa0;" horiz-adv-x="512" 
 />
    <glyph glyph-name="exclamdown" unicode="&#xa1;" horiz-adv-x="731" 
d="M365 674q-83 0 -141 57t-58 137q0 81 59 137t140 56q83 0 141.5 -56.5t58.5 -138.5q0 -80 -58.5 -136t-141.5 -56zM537 -410h-344v965h344v-965z" />
    <glyph glyph-name="cent" unicode="&#xa2;" horiz-adv-x="1323" 
d="M799 -162h-156v133q-216 25 -346.5 173.5t-130.5 367.5q0 218 130 362t347 175v131h156v-131q98 -6 184 -38.5t141 -90.5l-170 -213q-64 67 -155 79v-553q94 9 162 80l165 -209q-58 -58 -144 -91.5t-183 -41.5v-133zM643 238v544q-90 -21 -139 -95t-49 -177
q0 -99 50 -173.5t138 -98.5z" />
    <glyph glyph-name="sterling" unicode="&#xa3;" horiz-adv-x="1323" 
d="M1210 0h-1063v289h195v327h-195v236h195v125q0 70 18 139t59.5 137t101.5 120t151.5 84t201.5 32q252 0 406 -141l-197 -226q-33 36 -83 57t-105 21q-49 0 -87.5 -15t-62 -39t-38.5 -57t-21 -65.5t-6 -67.5v-104h319v-236h-319v-327h530v-289z" />
    <glyph glyph-name="currency" unicode="&#xa4;" horiz-adv-x="1323" 
d="M403 162l-174 -176l-170 170l177 174q-72 113 -72 266t65 260l-168 166l168 166l168 -166q132 76 267 76q142 0 266 -72l162 162l172 -166l-166 -164q69 -110 69 -262q0 -69 -20 -144.5t-53 -127.5l168 -166l-166 -172l-172 172q-107 -68 -260 -68q-63 0 -134 20t-127 52
zM664 340q111 0 177 74t66 182t-66 181t-177 73q-109 0 -175.5 -73t-66.5 -181t66.5 -182t175.5 -74z" />
    <glyph glyph-name="yen" unicode="&#xa5;" horiz-adv-x="1323" 
d="M825 0h-323v297h-365v211h365v133h-365v211h260l-372 598h378l271 -532l264 532h367l-367 -598h254v-211h-367v-133h367v-211h-367v-297z" />
    <glyph glyph-name="brokenbar" unicode="&#xa6;" horiz-adv-x="493" 
d="M381 641h-268v741h268v-741zM381 -358h-268v741h268v-741z" />
    <glyph glyph-name="section" unicode="&#xa7;" horiz-adv-x="1243" 
d="M600 -303q-153 0 -296 65t-222 183l250 178q43 -73 120.5 -111.5t153.5 -38.5q57 0 103.5 28t46.5 77q0 26 -10.5 47t-26 36t-51.5 32t-67.5 29t-94.5 34l-31 10q-67 24 -113 44t-94 50t-76.5 63.5t-46.5 81t-18 105.5q0 97 49 168t127 115q-108 79 -108 231
q0 91 43.5 163t114 114.5t151 64t162.5 21.5q152 0 274.5 -54.5t192.5 -156.5l-238 -180q-36 56 -95.5 89.5t-119.5 33.5q-57 0 -101 -26t-44 -75q0 -51 51.5 -86t171.5 -76l26 -10q67 -25 116 -48.5t99 -57t81.5 -70.5t51 -88t19.5 -111q0 -80 -42 -148.5t-112 -107.5
q103 -71 103 -225q0 -82 -30.5 -149.5t-80 -111.5t-115.5 -74.5t-134.5 -44t-139.5 -13.5zM592 510l192 -76q30 13 47 42.5t17 62.5q0 29 -12.5 53t-38 43t-48.5 31t-61 28l-176 72q-84 -34 -84 -109q0 -30 12 -52.5t40.5 -41t48.5 -27.5t63 -26z" />
    <glyph glyph-name="dieresis" unicode="&#xa8;" horiz-adv-x="614" 
d="M84 1180q-70 0 -120 49.5t-50 118.5q0 67 50 116t120 49q71 0 121.5 -48t50.5 -117q0 -70 -50.5 -119t-121.5 -49zM530 1180q-72 0 -121 49t-49 119q0 67 49.5 116t120.5 49q69 0 119.5 -48t50.5 -117q0 -70 -50 -119t-120 -49z" />
    <glyph glyph-name="copyright" unicode="&#xa9;" horiz-adv-x="1638" 
d="M821 -45q-159 0 -303 60.5t-248.5 162.5t-166.5 244.5t-62 300.5t62 301.5t166.5 246.5t248.5 163.5t303 60.5q158 0 301.5 -60.5t247.5 -163.5t165.5 -246.5t61.5 -301.5t-61.5 -300.5t-165.5 -244.5t-247.5 -162.5t-301.5 -60.5zM817 70q177 0 328.5 87.5t240.5 238
t89 327.5q0 178 -88 329.5t-238.5 239.5t-327.5 88q-133 0 -255 -52t-210 -140t-140 -210t-52 -255t51.5 -253.5t139 -208t208.5 -139.5t254 -52zM858 250q-135 0 -243.5 54t-175 162.5t-66.5 254.5q0 141 66.5 249.5t176 164t242.5 55.5q102 0 193.5 -39t146.5 -107
l-158 -143q-29 37 -79 58.5t-105 21.5q-108 0 -170.5 -76.5t-62.5 -181.5q0 -106 65 -184t180 -78q53 0 102 19.5t79 54.5l147 -156q-58 -61 -147 -95t-191 -34z" />
    <glyph glyph-name="ordfeminine" unicode="&#xaa;" horiz-adv-x="786" 
d="M309 868q-87 0 -152 46t-65 135q0 51 23.5 88.5t59.5 58.5t89 33.5t100 16t105 3.5h4v8q0 35 -28 53.5t-74 18.5q-83 0 -140 -57l-110 112q50 46 121.5 71.5t146.5 25.5q285 0 285 -262v-256v-80h-191v55h-2q-21 -33 -68 -51.5t-104 -18.5zM367 1006q53 0 82.5 28.5
t29.5 73.5v25h-24q-164 0 -164 -72q0 -27 23 -41t53 -14z" />
    <glyph glyph-name="guillemotleft" unicode="&#xab;" horiz-adv-x="1112" 
d="M582 174l-201 -129l-330 475l330 475l199 -129l-236 -346zM1044 174l-200 -129l-330 475l330 475l198 -129l-235 -346z" />
    <glyph glyph-name="logicalnot" unicode="&#xac;" horiz-adv-x="1363" 
d="M1241 297h-266v375h-871v252h1137v-627z" />
    <glyph glyph-name="uni00AD" unicode="&#xad;" horiz-adv-x="667" 
d="M594 403h-520v267h520v-267z" />
    <glyph glyph-name="registered" unicode="&#xae;" horiz-adv-x="1228" 
d="M616 547q-127 0 -235 61t-171 167t-63 233q0 193 137.5 329t331.5 136q192 0 328.5 -136t136.5 -329q0 -127 -62.5 -233t-169.5 -167t-233 -61zM616 614q162 0 277 116t115 278q0 163 -114.5 278t-277.5 115q-164 0 -279.5 -115t-115.5 -278q0 -162 115.5 -278
t279.5 -116zM571 748h-180v544h234q47 0 88.5 -8.5t78.5 -27.5t58.5 -55t21.5 -85q0 -112 -98 -151l125 -217h-205l-90 192h-33v-192zM571 1151v-84h54q25 0 41 13.5t16 33.5q0 17 -17 27t-40 10h-54z" />
    <glyph glyph-name="macron" unicode="&#xaf;" horiz-adv-x="614" 
d="M651 1231h-688v176h688v-176z" />
    <glyph glyph-name="degree" unicode="&#xb0;" horiz-adv-x="851" 
d="M426 799q-145 0 -244.5 99.5t-99.5 244.5t99.5 243.5t244.5 98.5t244.5 -98.5t99.5 -243.5t-99.5 -244.5t-244.5 -99.5zM426 963q75 0 127.5 52.5t52.5 127.5q0 74 -52.5 127t-127.5 53t-127.5 -53t-52.5 -127q0 -75 52.5 -127.5t127.5 -52.5z" />
    <glyph glyph-name="plusminus" unicode="&#xb1;" horiz-adv-x="1363" 
d="M827 408h-266v270h-436v260h436v270h266v-270h435v-260h-435v-270zM1262 63h-1137v261h1137v-261z" />
    <glyph glyph-name="two.sups" unicode="&#xb2;" horiz-adv-x="860" 
d="M766 911h-653v189l348 319q59 53 59 115q0 37 -25 59.5t-67 22.5q-46 0 -76 -34.5t-35 -90.5l-225 29q15 141 112.5 222t233.5 81q87 0 159 -28t120.5 -92t48.5 -155q0 -46 -12 -85.5t-37.5 -74.5t-47 -57.5t-59.5 -56.5l-178 -158h334v-205z" />
    <glyph glyph-name="three.sups" unicode="&#xb3;" horiz-adv-x="860" 
d="M440 893q-130 0 -227 61.5t-133 188.5l215 57q15 -48 48 -78t83 -30q47 0 81 23t34 71q0 96 -160 96h-68v172h74q133 0 133 96q0 35 -26 56.5t-68 21.5q-37 0 -66 -27t-38 -71l-216 51q32 115 126 178.5t210 63.5q62 0 117.5 -15t100 -44t70.5 -78t26 -111
q0 -66 -31 -117t-84 -78v-4q65 -23 100 -76.5t35 -125.5q0 -71 -29.5 -126.5t-78.5 -88.5t-107 -49.5t-121 -16.5z" />
    <glyph glyph-name="acute" unicode="&#xb4;" horiz-adv-x="614" 
d="M395 1171h-254l213 295h340z" />
    <glyph glyph-name="uni00B5" unicode="&#xb5;" horiz-adv-x="1386" 
d="M1315 248l6 -246q-84 -25 -176 -25q-197 0 -240 160q-32 -66 -98.5 -116t-153.5 -50q-53 0 -94.5 16.5t-62.5 43.5h-4v-506h-345v1501h345v-553q0 -38 4 -69t14.5 -60t27.5 -48.5t45 -31.5t66 -12q87 0 134.5 66.5t47.5 164.5v543h345v-696q0 -50 18 -70t61 -20
q24 0 60 8z" />
    <glyph glyph-name="paragraph" unicode="&#xb6;" horiz-adv-x="1265" 
d="M725 -264h-238v950q-200 4 -319 106.5t-119 268.5q0 389 500 389h588v-1714h-238v1509h-174v-1509z" />
    <glyph glyph-name="periodcentered" unicode="&#xb7;" horiz-adv-x="614" 
d="M309 395q-86 0 -147.5 57.5t-61.5 141.5q0 83 61.5 143t147.5 60q84 0 144.5 -58.5t60.5 -142.5t-60.5 -142.5t-144.5 -58.5z" />
    <glyph glyph-name="cedilla" unicode="&#xb8;" horiz-adv-x="614" 
d="M279 -492q-138 0 -244 52l55 123q80 -39 172 -39q41 0 72 15t31 52q0 33 -29 46.5t-68 13.5q-41 0 -82 -13l-63 60l137 182h168l-96 -123q14 2 37 2q41 0 75 -7.5t66.5 -25t51 -52.5t18.5 -85q0 -56 -28 -97.5t-75 -63t-96 -31t-102 -9.5z" />
    <glyph glyph-name="one.sups" unicode="&#xb9;" horiz-adv-x="860" 
d="M610 911h-239v627l-152 -119l-123 166l297 219h217v-893z" />
    <glyph glyph-name="ordmasculine" unicode="&#xba;" horiz-adv-x="786" 
d="M393 868q-135 0 -226 86.5t-91 223.5q0 135 91 220t226 85q136 0 228 -84.5t92 -220.5q0 -137 -92 -223.5t-228 -86.5zM393 1047q58 0 91.5 38t33.5 93q0 53 -34.5 91t-90.5 38t-88.5 -37.5t-32.5 -91.5q0 -55 32.5 -93t88.5 -38z" />
    <glyph glyph-name="guillemotright" unicode="&#xbb;" horiz-adv-x="1112" 
d="M600 518l-330 -473l-198 129l235 344l-237 348l200 129zM1063 518l-330 -473l-198 129l235 344l-238 348l201 129z" />
    <glyph glyph-name="onequarter" unicode="&#xbc;" horiz-adv-x="1925" 
d="M463 16l794 1497l179 -83l-795 -1493zM608 557h-239v627l-152 -119l-123 166l297 219h217v-893zM1688 0h-218v170h-409v190l358 533h269v-531h118v-192h-118v-170zM1468 637l-180 -275h182v275h-2z" />
    <glyph glyph-name="onehalf" unicode="&#xbd;" horiz-adv-x="1925" 
d="M1257 1513l179 -83l-795 -1493l-178 79zM608 557h-239v627l-152 -119l-123 166l297 219h217v-893zM1831 0h-653v188l348 320q59 53 59 115q0 37 -25 59.5t-67 22.5q-46 0 -76 -34.5t-35 -90.5l-225 28q15 141 112.5 222t233.5 81q64 0 121.5 -16.5t104.5 -49t74.5 -86
t27.5 -122.5q0 -46 -12 -85.5t-37.5 -74.5t-47.5 -58.5t-59 -56.5l-178 -157h334v-205z" />
    <glyph glyph-name="threequarters" unicode="&#xbe;" horiz-adv-x="1925" 
d="M641 -61l-178 79l794 1498l179 -84zM440 539q-130 0 -227 61t-133 188l215 58q15 -48 48 -78.5t83 -30.5q47 0 81 23t34 71q0 97 -160 97h-68v172h74q133 0 133 96q0 35 -26 56.5t-68 21.5q-37 0 -66 -27t-38 -71l-216 51q32 115 126 178t210 63q132 0 223 -63t91 -184
q0 -66 -30 -116t-83 -79v-4q64 -23 98.5 -77t34.5 -126q0 -71 -29.5 -126.5t-78.5 -88t-107 -49t-121 -16.5zM1688 0h-218v170h-409v190l358 533h269v-531h118v-192h-118v-170zM1468 637l-180 -275h182v275h-2z" />
    <glyph glyph-name="questiondown" unicode="&#xbf;" horiz-adv-x="1118" 
d="M539 674q-82 0 -141.5 56.5t-59.5 135.5q0 82 59 138.5t142 56.5q82 0 141 -56t59 -137q0 -80 -58.5 -137t-141.5 -57zM522 -446q-94 0 -178 24.5t-153.5 72.5t-110.5 128t-41 182q0 66 15 118t49 97.5t70 79t97 80.5q67 52 89 89t22 99v54h319v-76q0 -100 -37 -164.5
t-124 -144.5l-70 -62q-42 -38 -63 -70.5t-21 -74.5q0 -66 41.5 -106t110.5 -40q79 0 125.5 56.5t48.5 136.5l327 -37q-24 -214 -167 -328t-349 -114z" />
    <glyph glyph-name="Agrave" unicode="&#xc0;" horiz-adv-x="1492" 
d="M686 1860l213 -295h-254l-299 295h340zM580 1450h340l602 -1450h-389l-113 285h-561l-107 -285h-381zM743 1063l-184 -498h365z" />
    <glyph glyph-name="Aacute" unicode="&#xc1;" horiz-adv-x="1492" 
d="M815 1860h340l-299 -295h-254zM580 1450h340l602 -1450h-389l-113 285h-561l-107 -285h-381zM743 1063l-184 -498h365z" />
    <glyph glyph-name="Acircumflex" unicode="&#xc2;" horiz-adv-x="1492" 
d="M889 1565l-139 166l-140 -166h-262l254 295h303l250 -295h-266zM580 1450h340l602 -1450h-389l-113 285h-561l-107 -285h-381zM743 1063l-184 -498h365z" />
    <glyph glyph-name="Atilde" unicode="&#xc3;" horiz-adv-x="1492" 
d="M602 1657q-63 0 -86 -82h-147q7 56 23 101.5t42.5 83.5t69 59.5t96.5 21.5q76 0 166 -41q87 -41 133 -41q65 0 86 84h145q-13 -119 -69.5 -194.5t-161.5 -75.5q-89 0 -168 43q-73 41 -129 41zM580 1450h340l602 -1450h-389l-113 285h-561l-107 -285h-381zM743 1063
l-184 -498h365z" />
    <glyph glyph-name="Adieresis" unicode="&#xc4;" horiz-adv-x="1492" 
d="M526 1573q-72 0 -121 49.5t-49 118.5q0 67 49.5 116.5t120.5 49.5t120.5 -48.5t49.5 -117.5q0 -70 -49.5 -119t-120.5 -49zM971 1573q-70 0 -120 49.5t-50 118.5q0 67 50 116.5t120 49.5q71 0 121.5 -48.5t50.5 -117.5q0 -70 -50.5 -119t-121.5 -49zM580 1450h340
l602 -1450h-389l-113 285h-561l-107 -285h-381zM743 1063l-184 -498h365z" />
    <glyph glyph-name="Aring" unicode="&#xc5;" horiz-adv-x="1492" 
d="M752 1534q-93 0 -158.5 62t-65.5 155q0 95 65 158t159 63q93 0 158 -63t65 -156q0 -94 -65 -156.5t-158 -62.5zM752 1872q-52 0 -86.5 -35t-34.5 -86q0 -49 35 -83t86 -34t85.5 34t34.5 85t-34.5 85t-85.5 34zM580 1450h340l602 -1450h-389l-113 285h-561l-107 -285h-381
zM743 1063l-184 -498h365z" />
    <glyph glyph-name="AE" unicode="&#xc6;" horiz-adv-x="2115" 
d="M399 0h-407l848 1450h1157v-297h-611v-272h576v-281h-576v-301h648v-299h-981v313h-473zM1032 1153l-313 -557h334v557h-21z" />
    <glyph glyph-name="Ccedilla" unicode="&#xc7;" horiz-adv-x="1425" 
d="M786 -492q-137 0 -243 52l55 123q80 -39 172 -39q41 0 71.5 15t30.5 52q0 60 -96 60q-41 0 -82 -13l-63 60l112 151q-144 18 -266 81t-209 160.5t-136.5 230.5t-49.5 286q0 227 104.5 402t282.5 267.5t399 92.5q158 0 306.5 -56t236.5 -157l-237 -238q-48 65 -127 99
t-166 34q-182 0 -300 -125.5t-118 -318.5q0 -198 114.5 -321t296.5 -123q100 0 180.5 40t127.5 107l243 -229q-91 -107 -223.5 -169t-296.5 -69l-65 -86q14 2 37 2q41 0 75 -7.5t66 -25t50.5 -52.5t18.5 -85q0 -56 -28 -97.5t-75 -63t-96 -31t-102 -9.5z" />
    <glyph glyph-name="Egrave" unicode="&#xc8;" horiz-adv-x="1243" 
d="M831 1565h-253l-299 295h339zM1161 0h-1011v1450h974v-297h-637v-272h603v-281h-603v-301h674v-299z" />
    <glyph glyph-name="Eacute" unicode="&#xc9;" horiz-adv-x="1243" 
d="M731 1565h-254l213 295h340zM1161 0h-1011v1450h974v-297h-637v-272h603v-281h-603v-301h674v-299z" />
    <glyph glyph-name="Ecircumflex" unicode="&#xca;" horiz-adv-x="1243" 
d="M504 1565h-262l254 295h303l250 -295h-267l-139 166zM1161 0h-1011v1450h974v-297h-637v-272h603v-281h-603v-301h674v-299z" />
    <glyph glyph-name="Edieresis" unicode="&#xcb;" horiz-adv-x="1243" 
d="M422 1573q-72 0 -121 49.5t-49 118.5q0 67 49.5 116.5t120.5 49.5t120.5 -48.5t49.5 -117.5q0 -70 -49.5 -119t-120.5 -49zM866 1573q-70 0 -120 49.5t-50 118.5q0 67 50 116.5t120 49.5q71 0 121.5 -48.5t50.5 -117.5q0 -70 -50.5 -119t-121.5 -49zM1161 0h-1011v1450
h974v-297h-637v-272h603v-281h-603v-301h674v-299z" />
    <glyph glyph-name="Igrave" unicode="&#xcc;" horiz-adv-x="651" 
d="M502 1565h-254l-299 295h340zM502 0h-352v1450h352v-1450z" />
    <glyph glyph-name="Iacute" unicode="&#xcd;" horiz-adv-x="651" 
d="M403 1565h-253l212 295h340zM502 0h-352v1450h352v-1450z" />
    <glyph glyph-name="Icircumflex" unicode="&#xce;" horiz-adv-x="651" 
d="M182 1565h-262l254 295h303l250 -295h-266l-139 166zM502 0h-352v1450h352v-1450z" />
    <glyph glyph-name="Idieresis" unicode="&#xcf;" horiz-adv-x="651" 
d="M102 1573q-72 0 -121 49.5t-49 118.5q0 67 49.5 116.5t120.5 49.5t120.5 -48.5t49.5 -117.5q0 -70 -49.5 -119t-120.5 -49zM547 1573q-70 0 -120 49.5t-50 118.5q0 67 50 116.5t120 49.5q71 0 121.5 -48.5t50.5 -117.5q0 -70 -50.5 -119t-121.5 -49zM502 0h-352v1450h352
v-1450z" />
    <glyph glyph-name="Eth" unicode="&#xd0;" horiz-adv-x="1585" 
d="M709 0h-557v633h-125v219h125v598h559q127 0 240.5 -25t214.5 -80.5t174.5 -138t116 -205t42.5 -272.5q0 -146 -45.5 -268t-122.5 -206t-179.5 -142.5t-214 -85.5t-228.5 -27zM494 633v-326h151q110 0 198.5 24t156 73.5t104.5 132t37 192.5q0 208 -125 312t-338 104
h-184v-293h370v-219h-370z" />
    <glyph glyph-name="Ntilde" unicode="&#xd1;" horiz-adv-x="1617" 
d="M584 1575h-148q7 56 23 101.5t43 83.5t69.5 59.5t96.5 21.5q76 0 166 -41q87 -41 133 -41q65 0 86 84h145q-13 -119 -69.5 -194.5t-161.5 -75.5q-89 0 -168 43q-73 41 -129 41q-63 0 -86 -82zM489 0h-339v1450h399l581 -946h7l-9 946h340v-1450h-397l-584 948h-6z" />
    <glyph glyph-name="Ograve" unicode="&#xd2;" horiz-adv-x="1742" 
d="M1079 1565h-254l-299 295h340zM870 -39q-135 0 -256 35.5t-217.5 103.5t-167.5 161.5t-109 213.5t-38 256q0 228 102.5 401.5t281 265t404.5 91.5q227 0 406 -91.5t282 -265t103 -401.5q0 -226 -102.5 -402t-282.5 -272t-406 -96zM870 281q183 0 299.5 126.5t116.5 323.5
q0 192 -116.5 317.5t-299.5 125.5t-298 -125.5t-115 -317.5q0 -197 115.5 -323.5t297.5 -126.5z" />
    <glyph glyph-name="Oacute" unicode="&#xd3;" horiz-adv-x="1742" 
d="M940 1565h-254l213 295h340zM870 -39q-135 0 -256 35.5t-217.5 103.5t-167.5 161.5t-109 213.5t-38 256q0 228 102.5 401.5t281 265t404.5 91.5q227 0 406 -91.5t282 -265t103 -401.5q0 -226 -102.5 -402t-282.5 -272t-406 -96zM870 281q183 0 299.5 126.5t116.5 323.5
q0 192 -116.5 317.5t-299.5 125.5t-298 -125.5t-115 -317.5q0 -197 115.5 -323.5t297.5 -126.5z" />
    <glyph glyph-name="Ocircumflex" unicode="&#xd4;" horiz-adv-x="1742" 
d="M731 1565h-262l254 295h303l250 -295h-266l-140 166zM870 -39q-135 0 -256 35.5t-217.5 103.5t-167.5 161.5t-109 213.5t-38 256q0 228 102.5 401.5t281 265t404.5 91.5q227 0 406 -91.5t282 -265t103 -401.5q0 -226 -102.5 -402t-282.5 -272t-406 -96zM870 281
q183 0 299.5 126.5t116.5 323.5q0 192 -116.5 317.5t-299.5 125.5t-298 -125.5t-115 -317.5q0 -197 115.5 -323.5t297.5 -126.5z" />
    <glyph glyph-name="Otilde" unicode="&#xd5;" horiz-adv-x="1742" 
d="M641 1575h-147q7 56 23 101.5t42.5 83.5t69 59.5t96.5 21.5q76 0 166 -41q87 -41 133 -41q65 0 86 84h145q-13 -119 -69.5 -194.5t-161.5 -75.5q-89 0 -168 43q-73 41 -129 41q-63 0 -86 -82zM870 -39q-135 0 -256 35.5t-217.5 103.5t-167.5 161.5t-109 213.5t-38 256
q0 228 102.5 401.5t281 265t404.5 91.5q227 0 406 -91.5t282 -265t103 -401.5q0 -226 -102.5 -402t-282.5 -272t-406 -96zM870 281q183 0 299.5 126.5t116.5 323.5q0 192 -116.5 317.5t-299.5 125.5t-298 -125.5t-115 -317.5q0 -197 115.5 -323.5t297.5 -126.5z" />
    <glyph glyph-name="Odieresis" unicode="&#xd6;" horiz-adv-x="1742" 
d="M649 1573q-71 0 -120.5 49.5t-49.5 118.5q0 67 49.5 116.5t120.5 49.5t120.5 -48.5t49.5 -117.5q0 -70 -49.5 -119t-120.5 -49zM1094 1573q-70 0 -120 49.5t-50 118.5q0 67 50 116.5t120 49.5q71 0 121.5 -48.5t50.5 -117.5q0 -70 -50.5 -119t-121.5 -49zM870 -39
q-135 0 -256 35.5t-217.5 103.5t-167.5 161.5t-109 213.5t-38 256q0 228 102.5 401.5t281 265t404.5 91.5q227 0 406 -91.5t282 -265t103 -401.5q0 -226 -102.5 -402t-282.5 -272t-406 -96zM870 281q183 0 299.5 126.5t116.5 323.5q0 192 -116.5 317.5t-299.5 125.5
t-298 -125.5t-115 -317.5q0 -197 115.5 -323.5t297.5 -126.5z" />
    <glyph glyph-name="multiply" unicode="&#xd7;" horiz-adv-x="1363" 
d="M682 430l-360 -354l-191 182l363 358l-365 357l193 186l362 -354l356 352l187 -178l-357 -354l367 -359l-193 -190z" />
    <glyph glyph-name="Oslash" unicode="&#xd8;" horiz-adv-x="1742" 
d="M399 104l-182 -194l-137 117l182 198q-88 94 -134 223.5t-46 280.5q0 228 102.5 401.5t281 265t404.5 91.5q258 0 449 -119l178 199l137 -121l-176 -191q203 -206 203 -526q0 -168 -60 -311.5t-165.5 -242.5t-252 -155t-315.5 -57q-284 0 -469 141zM502 481l594 645
q-89 60 -226 60q-197 0 -314.5 -131.5t-117.5 -327.5q0 -148 64 -246zM868 268q194 0 313 131t119 330q0 164 -77 266l-598 -651q95 -76 243 -76z" />
    <glyph glyph-name="Ugrave" unicode="&#xd9;" horiz-adv-x="1511" 
d="M963 1565h-254l-299 295h340zM754 -39q-283 0 -451 161.5t-168 424.5v903h348v-875q0 -61 15.5 -113t47 -94.5t85.5 -67t125 -24.5q72 0 126 24.5t85 67t46 94.5t15 113v875h350v-903q0 -262 -170.5 -424t-453.5 -162z" />
    <glyph glyph-name="Uacute" unicode="&#xda;" horiz-adv-x="1511" 
d="M813 1565h-254l213 295h340zM754 -39q-283 0 -451 161.5t-168 424.5v903h348v-875q0 -61 15.5 -113t47 -94.5t85.5 -67t125 -24.5q72 0 126 24.5t85 67t46 94.5t15 113v875h350v-903q0 -262 -170.5 -424t-453.5 -162z" />
    <glyph glyph-name="Ucircumflex" unicode="&#xdb;" horiz-adv-x="1511" 
d="M616 1565h-262l254 295h303l250 -295h-266l-139 166zM754 -39q-283 0 -451 161.5t-168 424.5v903h348v-875q0 -61 15.5 -113t47 -94.5t85.5 -67t125 -24.5q72 0 126 24.5t85 67t46 94.5t15 113v875h350v-903q0 -262 -170.5 -424t-453.5 -162z" />
    <glyph glyph-name="Udieresis" unicode="&#xdc;" horiz-adv-x="1511" 
d="M535 1573q-71 0 -120.5 49.5t-49.5 118.5q0 67 49.5 116.5t120.5 49.5t120.5 -48.5t49.5 -117.5q0 -70 -49.5 -119t-120.5 -49zM979 1573q-70 0 -120 49.5t-50 118.5q0 67 50 116.5t120 49.5q71 0 121.5 -48.5t50.5 -117.5q0 -70 -50.5 -119t-121.5 -49zM754 -39
q-283 0 -451 161.5t-168 424.5v903h348v-875q0 -61 15.5 -113t47 -94.5t85.5 -67t125 -24.5q72 0 126 24.5t85 67t46 94.5t15 113v875h350v-903q0 -262 -170.5 -424t-453.5 -162z" />
    <glyph glyph-name="Yacute" unicode="&#xdd;" horiz-adv-x="1370" 
d="M772 1860h340l-299 -295h-254zM692 911l309 539h410l-557 -836v-614h-350v614l-545 836h424z" />
    <glyph glyph-name="Thorn" unicode="&#xde;" horiz-adv-x="1310" 
d="M500 0h-350v1450h350v-248h182q98 0 181 -14.5t155.5 -47.5t122.5 -83.5t79 -127t29 -173.5q0 -122 -46.5 -212.5t-128.5 -142.5t-181.5 -77t-218.5 -25h-174v-299zM500 922v-344h147q71 0 124.5 14.5t90.5 55.5t37 106q0 51 -20 85.5t-57 51.5t-77 24t-92 7h-153z" />
    <glyph glyph-name="germandbls" unicode="&#xdf;" horiz-adv-x="1366" 
d="M764 -27q-91 0 -197 25v289q76 -27 150 -27q106 0 168.5 50.5t62.5 160.5q0 117 -77 175.5t-199 58.5h-43v264h45q19 0 39 3t45.5 13.5t45 27.5t33 48.5t13.5 73.5q0 70 -45.5 117.5t-126.5 47.5q-47 0 -84.5 -16.5t-61 -43t-38.5 -63t-21 -74t-6 -79.5v-1024h-336v1026
q0 119 34 217t101 172.5t175.5 116t250.5 41.5q210 0 353 -112.5t143 -297.5q0 -111 -60.5 -194.5t-152.5 -112.5v-2q143 -28 228 -134.5t85 -264.5q0 -224 -143 -353t-381 -129z" />
    <glyph glyph-name="agrave" unicode="&#xe0;" horiz-adv-x="1159" 
d="M782 1171h-254l-299 295h340zM438 -25q-65 0 -127 17t-118 52.5t-90.5 100t-34.5 150.5q0 344 649 344h6v16q0 72 -51 110t-133 38q-69 0 -136 -29.5t-116 -75.5l-170 183q88 83 207.5 127.5t246.5 44.5q253 0 361 -128t108 -411v-352v-162h-307v109h-6
q-38 -62 -117.5 -98t-171.5 -36zM522 201q100 0 155.5 56.5t55.5 152.5v34h-43q-63 0 -112 -5t-98 -18.5t-76 -43t-27 -72.5q0 -54 43 -79t102 -25z" />
    <glyph glyph-name="aacute" unicode="&#xe1;" horiz-adv-x="1159" 
d="M639 1171h-254l213 295h340zM438 -25q-65 0 -127 17t-118 52.5t-90.5 100t-34.5 150.5q0 344 649 344h6v16q0 72 -51 110t-133 38q-69 0 -136 -29.5t-116 -75.5l-170 183q88 83 207.5 127.5t246.5 44.5q253 0 361 -128t108 -411v-352v-162h-307v109h-6
q-38 -62 -117.5 -98t-171.5 -36zM522 201q100 0 155.5 56.5t55.5 152.5v34h-43q-63 0 -112 -5t-98 -18.5t-76 -43t-27 -72.5q0 -54 43 -79t102 -25z" />
    <glyph glyph-name="acircumflex" unicode="&#xe2;" horiz-adv-x="1159" 
d="M442 1171h-262l254 295h303l250 -295h-266l-139 166zM438 -25q-65 0 -127 17t-118 52.5t-90.5 100t-34.5 150.5q0 344 649 344h6v16q0 72 -51 110t-133 38q-69 0 -136 -29.5t-116 -75.5l-170 183q88 83 207.5 127.5t246.5 44.5q253 0 361 -128t108 -411v-352v-162h-307
v109h-6q-38 -62 -117.5 -98t-171.5 -36zM522 201q100 0 155.5 56.5t55.5 152.5v34h-43q-63 0 -112 -5t-98 -18.5t-76 -43t-27 -72.5q0 -54 43 -79t102 -25z" />
    <glyph glyph-name="atilde" unicode="&#xe3;" horiz-adv-x="1159" 
d="M356 1182h-147q7 56 23 101.5t42.5 83.5t69 59.5t96.5 21.5q76 0 166 -41q87 -41 133 -41q65 0 86 84h146q-13 -119 -70 -194.5t-162 -75.5q-73 0 -168 43q-78 41 -129 41q-63 0 -86 -82zM438 -25q-65 0 -127 17t-118 52.5t-90.5 100t-34.5 150.5q0 344 649 344h6v16
q0 72 -51 110t-133 38q-69 0 -136 -29.5t-116 -75.5l-170 183q88 83 207.5 127.5t246.5 44.5q253 0 361 -128t108 -411v-352v-162h-307v109h-6q-38 -62 -117.5 -98t-171.5 -36zM522 201q100 0 155.5 56.5t55.5 152.5v34h-43q-63 0 -112 -5t-98 -18.5t-76 -43t-27 -72.5
q0 -54 43 -79t102 -25z" />
    <glyph glyph-name="adieresis" unicode="&#xe4;" horiz-adv-x="1159" 
d="M360 1180q-70 0 -120 49.5t-50 118.5q0 67 50 116t120 49q71 0 121.5 -48t50.5 -117q0 -70 -50.5 -119t-121.5 -49zM807 1180q-71 0 -120.5 49t-49.5 119q0 67 49.5 116t120.5 49q69 0 119.5 -48t50.5 -117q0 -70 -50 -119t-120 -49zM438 -25q-65 0 -127 17t-118 52.5
t-90.5 100t-34.5 150.5q0 344 649 344h6v16q0 72 -51 110t-133 38q-69 0 -136 -29.5t-116 -75.5l-170 183q88 83 207.5 127.5t246.5 44.5q253 0 361 -128t108 -411v-352v-162h-307v109h-6q-38 -62 -117.5 -98t-171.5 -36zM522 201q100 0 155.5 56.5t55.5 152.5v34h-43
q-63 0 -112 -5t-98 -18.5t-76 -43t-27 -72.5q0 -54 43 -79t102 -25z" />
    <glyph glyph-name="aring" unicode="&#xe5;" horiz-adv-x="1159" 
d="M588 1141q-93 0 -158 62t-65 155q0 95 64.5 158t158.5 63q93 0 158 -63t65 -156q0 -94 -65 -156.5t-158 -62.5zM588 1241q51 0 86 34t35 85t-35 85t-86 34q-52 0 -86.5 -35t-34.5 -86q0 -49 35 -83t86 -34zM438 -25q-65 0 -127 17t-118 52.5t-90.5 100t-34.5 150.5
q0 344 649 344h6v16q0 72 -51 110t-133 38q-69 0 -136 -29.5t-116 -75.5l-170 183q88 83 207.5 127.5t246.5 44.5q253 0 361 -128t108 -411v-352v-162h-307v109h-6q-38 -62 -117.5 -98t-171.5 -36zM522 201q100 0 155.5 56.5t55.5 152.5v34h-43q-63 0 -112 -5t-98 -18.5
t-76 -43t-27 -72.5q0 -54 43 -79t102 -25z" />
    <glyph glyph-name="ae" unicode="&#xe6;" horiz-adv-x="1841" 
d="M461 -25q-55 0 -108.5 10.5t-105.5 35t-91.5 60.5t-63.5 91.5t-24 122.5q0 69 24.5 122.5t71 89t104.5 59.5t135 36.5t150.5 17.5t163.5 5h6v14q0 164 -182 164q-68 0 -137 -30t-117 -75l-168 183q86 83 205.5 127.5t246.5 44.5q118 0 202 -42.5t128 -107.5
q59 68 148.5 109t201.5 41q228 0 370 -149t142 -406q0 -30 -4 -80h-737q9 -85 79 -139t163 -54q150 0 225 107l231 -148q-71 -105 -189 -161t-274 -56q-120 0 -221.5 49t-161.5 136q-109 -177 -413 -177zM1020 627h432q0 84 -52.5 139t-148.5 55q-95 0 -160 -57t-71 -137z
M522 201q100 0 155.5 50.5t55.5 139.5v33h-43q-78 0 -131.5 -5t-96.5 -17.5t-64 -36.5t-21 -60q0 -54 43 -79t102 -25z" />
    <glyph glyph-name="ccedilla" unicode="&#xe7;" horiz-adv-x="1030" 
d="M580 -492q-138 0 -244 52l55 123q80 -39 172 -39q41 0 72 15t31 52q0 33 -29 46.5t-68 13.5q-41 0 -82 -13l-63 60l119 157q-207 32 -335 174t-128 361q0 162 76.5 287t205 190.5t287.5 65.5q109 0 214 -38.5t165 -99.5l-194 -225q-28 37 -78 59.5t-101 22.5
q-103 0 -169 -76.5t-66 -185.5t66 -184.5t173 -75.5q53 0 103 20t80 56l186 -228q-55 -54 -140.5 -87.5t-182.5 -41.5l-72 -92q14 2 37 2q41 0 75 -7.5t66.5 -25t51 -52.5t18.5 -85q0 -56 -28 -97.5t-75 -63t-96 -31t-102 -9.5z" />
    <glyph glyph-name="egrave" unicode="&#xe8;" horiz-adv-x="1220" 
d="M823 1171h-254l-299 295h340zM641 -33q-156 0 -281.5 62t-202.5 186t-77 291q0 163 73.5 289t198 192t279.5 66q229 0 370.5 -149t141.5 -406q0 -55 -2 -80h-740q7 -83 79 -138t165 -55q146 0 225 107l234 -148q-73 -105 -191 -161t-272 -56zM401 627h433q0 84 -52.5 139
t-148.5 55q-95 0 -160.5 -57t-71.5 -137z" />
    <glyph glyph-name="eacute" unicode="&#xe9;" horiz-adv-x="1220" 
d="M678 1171h-254l213 295h340zM641 -33q-156 0 -281.5 62t-202.5 186t-77 291q0 163 73.5 289t198 192t279.5 66q229 0 370.5 -149t141.5 -406q0 -55 -2 -80h-740q7 -83 79 -138t165 -55q146 0 225 107l234 -148q-73 -105 -191 -161t-272 -56zM401 627h433q0 84 -52.5 139
t-148.5 55q-95 0 -160.5 -57t-71.5 -137z" />
    <glyph glyph-name="ecircumflex" unicode="&#xea;" horiz-adv-x="1220" 
d="M502 1171h-262l254 295h303l250 -295h-267l-139 166zM641 -33q-156 0 -281.5 62t-202.5 186t-77 291q0 163 73.5 289t198 192t279.5 66q229 0 370.5 -149t141.5 -406q0 -55 -2 -80h-740q7 -83 79 -138t165 -55q146 0 225 107l234 -148q-73 -105 -191 -161t-272 -56z
M401 627h433q0 84 -52.5 139t-148.5 55q-95 0 -160.5 -57t-71.5 -137z" />
    <glyph glyph-name="edieresis" unicode="&#xeb;" horiz-adv-x="1220" 
d="M418 1180q-70 0 -120 49.5t-50 118.5q0 67 50 116t120 49q71 0 121.5 -48t50.5 -117q0 -70 -50.5 -119t-121.5 -49zM864 1180q-72 0 -121 49t-49 119q0 67 49.5 116t120.5 49q69 0 119.5 -48t50.5 -117q0 -70 -50 -119t-120 -49zM641 -33q-156 0 -281.5 62t-202.5 186
t-77 291q0 163 73.5 289t198 192t279.5 66q229 0 370.5 -149t141.5 -406q0 -55 -2 -80h-740q7 -83 79 -138t165 -55q146 0 225 107l234 -148q-73 -105 -191 -161t-272 -56zM401 627h433q0 84 -52.5 139t-148.5 55q-95 0 -160.5 -57t-71.5 -137z" />
    <glyph glyph-name="igrave" unicode="&#xec;" horiz-adv-x="606" 
d="M467 1171h-254l-299 295h340zM471 0h-336v1026h336v-1026z" />
    <glyph glyph-name="iacute" unicode="&#xed;" horiz-adv-x="606" 
d="M391 1171h-254l213 295h340zM471 0h-336v1026h336v-1026z" />
    <glyph glyph-name="icircumflex" unicode="&#xee;" horiz-adv-x="606" 
d="M168 1171h-262l254 295h303l250 -295h-267l-139 166zM471 0h-336v1026h336v-1026z" />
    <glyph glyph-name="idieresis" unicode="&#xef;" horiz-adv-x="606" 
d="M84 1180q-70 0 -120 49.5t-50 118.5q0 67 50 116t120 49q71 0 121.5 -48t50.5 -117q0 -70 -50.5 -119t-121.5 -49zM530 1180q-72 0 -121 49t-49 119q0 67 49.5 116t120.5 49q69 0 119.5 -48t50.5 -117q0 -70 -50 -119t-120 -49zM471 0h-336v1026h336v-1026z" />
    <glyph glyph-name="eth" unicode="&#xf0;" horiz-adv-x="1294" 
d="M645 -33q-116 0 -219.5 38.5t-180 108t-121 173t-44.5 225.5q0 159 73 281.5t195.5 186.5t272.5 64q99 0 167 -51l5 2q-105 154 -201 234l-221 -99l-164 144l223 96q-49 50 -154 121l261 145q70 -53 176 -147l231 102l178 -145l-248 -107q340 -368 340 -761
q0 -281 -155.5 -446t-413.5 -165zM647 250q113 0 178.5 77.5t65.5 184.5q0 104 -66 182t-180 78q-112 0 -177 -78t-65 -182q0 -107 65.5 -184.5t178.5 -77.5z" />
    <glyph glyph-name="ntilde" unicode="&#xf1;" horiz-adv-x="1261" 
d="M406 1182h-148q7 56 23 101.5t42.5 83.5t69 59.5t96.5 21.5q76 0 166 -41q87 -41 133 -41q65 0 86 84h146q-13 -119 -70 -194.5t-162 -75.5q-72 0 -167 43q-78 41 -129 41q-63 0 -86 -82zM469 0h-338v791v235h326v-141h4q37 71 120.5 120.5t184.5 49.5q99 0 173.5 -36
t116.5 -97t62.5 -132.5t20.5 -152.5v-637h-338v563q0 215 -152 215q-85 0 -132.5 -63t-47.5 -156v-559z" />
    <glyph glyph-name="ograve" unicode="&#xf2;" horiz-adv-x="1294" 
d="M813 1171h-254l-299 295h340zM645 -33q-154 0 -282 66t-205.5 192.5t-77.5 288.5q0 122 45 224.5t122.5 170.5t180 106t217.5 38q116 0 219 -38t180.5 -106t122.5 -170.5t45 -224.5q0 -162 -77.5 -288.5t-206 -192.5t-283.5 -66zM647 250q112 0 177 79t65 185
q0 105 -65.5 182.5t-178.5 77.5q-112 0 -175.5 -77t-63.5 -183t64.5 -185t176.5 -79z" />
    <glyph glyph-name="oacute" unicode="&#xf3;" horiz-adv-x="1294" 
d="M725 1171h-254l213 295h340zM645 -33q-154 0 -282 66t-205.5 192.5t-77.5 288.5q0 122 45 224.5t122.5 170.5t180 106t217.5 38q116 0 219 -38t180.5 -106t122.5 -170.5t45 -224.5q0 -162 -77.5 -288.5t-206 -192.5t-283.5 -66zM647 250q112 0 177 79t65 185
q0 105 -65.5 182.5t-178.5 77.5q-112 0 -175.5 -77t-63.5 -183t64.5 -185t176.5 -79z" />
    <glyph glyph-name="ocircumflex" unicode="&#xf4;" horiz-adv-x="1294" 
d="M516 1180h-262l254 295h303l250 -295h-266l-140 166zM645 -33q-154 0 -282 66t-205.5 192.5t-77.5 288.5q0 122 45 224.5t122.5 170.5t180 106t217.5 38q116 0 219 -38t180.5 -106t122.5 -170.5t45 -224.5q0 -162 -77.5 -288.5t-206 -192.5t-283.5 -66zM647 250
q112 0 177 79t65 185q0 105 -65.5 182.5t-178.5 77.5q-112 0 -175.5 -77t-63.5 -183t64.5 -185t176.5 -79z" />
    <glyph glyph-name="otilde" unicode="&#xf5;" horiz-adv-x="1294" 
d="M414 1182h-148q7 56 23 101.5t43 83.5t69.5 59.5t96.5 21.5q76 0 166 -41q87 -41 133 -41q65 0 86 84h145q-13 -119 -69.5 -194.5t-161.5 -75.5q-73 0 -168 43q-78 41 -129 41q-63 0 -86 -82zM645 -33q-154 0 -282 66t-205.5 192.5t-77.5 288.5q0 122 45 224.5
t122.5 170.5t180 106t217.5 38q116 0 219 -38t180.5 -106t122.5 -170.5t45 -224.5q0 -162 -77.5 -288.5t-206 -192.5t-283.5 -66zM647 250q112 0 177 79t65 185q0 105 -65.5 182.5t-178.5 77.5q-112 0 -175.5 -77t-63.5 -183t64.5 -185t176.5 -79z" />
    <glyph glyph-name="odieresis" unicode="&#xf6;" horiz-adv-x="1294" 
d="M422 1180q-70 0 -120 49.5t-50 118.5q0 67 50 116t120 49q71 0 121.5 -48t50.5 -117q0 -70 -50.5 -119t-121.5 -49zM868 1180q-72 0 -121 49t-49 119q0 67 49.5 116t120.5 49q69 0 119.5 -48t50.5 -117q0 -70 -50 -119t-120 -49zM645 -33q-154 0 -282 66t-205.5 192.5
t-77.5 288.5q0 122 45 224.5t122.5 170.5t180 106t217.5 38q116 0 219 -38t180.5 -106t122.5 -170.5t45 -224.5q0 -162 -77.5 -288.5t-206 -192.5t-283.5 -66zM647 250q112 0 177 79t65 185q0 105 -65.5 182.5t-178.5 77.5q-112 0 -175.5 -77t-63.5 -183t64.5 -185
t176.5 -79z" />
    <glyph glyph-name="divide" unicode="&#xf7;" horiz-adv-x="1363" 
d="M682 827q-72 0 -125 51t-53 123q0 70 53 121.5t125 51.5t124 -51t52 -122q0 -72 -52 -123t-124 -51zM1200 492h-1038v260h1038v-260zM682 66q-72 0 -125 52t-53 122t53 121t125 51t124 -51t52 -121q0 -71 -52 -122.5t-124 -51.5z" />
    <glyph glyph-name="oslash" unicode="&#xf8;" horiz-adv-x="1294" 
d="M324 63l-154 -151l-121 119l148 145q-117 133 -117 336q0 160 76.5 285t204.5 191.5t284 66.5q193 0 328 -101l147 148l123 -119l-143 -141q112 -130 112 -330q0 -160 -76.5 -285.5t-205.5 -192.5t-285 -67q-190 0 -321 96zM422 403l340 345q-48 38 -121 38
q-114 0 -181 -79t-67 -187q0 -74 29 -117zM649 242q114 0 179 78.5t65 187.5q0 72 -27 119l-342 -344q44 -41 125 -41z" />
    <glyph glyph-name="ugrave" unicode="&#xf9;" horiz-adv-x="1257" 
d="M836 1171h-254l-299 295h340zM492 -29q-99 0 -173 36t-116 97t-62 132.5t-20 152.5v637h338v-559q0 -47 6.5 -83t22.5 -68t47 -49t75 -17q84 0 132.5 63.5t48.5 155.5v557h335v-829v-197h-323v141h-4q-37 -71 -120.5 -120.5t-186.5 -49.5z" />
    <glyph glyph-name="uacute" unicode="&#xfa;" horiz-adv-x="1257" 
d="M702 1171h-253l213 295h339zM492 -29q-99 0 -173 36t-116 97t-62 132.5t-20 152.5v637h338v-559q0 -47 6.5 -83t22.5 -68t47 -49t75 -17q84 0 132.5 63.5t48.5 155.5v557h335v-829v-197h-323v141h-4q-37 -71 -120.5 -120.5t-186.5 -49.5z" />
    <glyph glyph-name="ucircumflex" unicode="&#xfb;" horiz-adv-x="1257" 
d="M489 1171h-262l254 295h303l250 -295h-266l-139 166zM492 -29q-99 0 -173 36t-116 97t-62 132.5t-20 152.5v637h338v-559q0 -47 6.5 -83t22.5 -68t47 -49t75 -17q84 0 132.5 63.5t48.5 155.5v557h335v-829v-197h-323v141h-4q-37 -71 -120.5 -120.5t-186.5 -49.5z" />
    <glyph glyph-name="udieresis" unicode="&#xfc;" horiz-adv-x="1257" 
d="M406 1180q-70 0 -120 49.5t-50 118.5q0 67 50 116t120 49q71 0 121.5 -48t50.5 -117q0 -70 -50.5 -119t-121.5 -49zM852 1180q-72 0 -121 49t-49 119q0 67 49.5 116t120.5 49q69 0 119.5 -48t50.5 -117q0 -70 -50 -119t-120 -49zM492 -29q-99 0 -173 36t-116 97
t-62 132.5t-20 152.5v637h338v-559q0 -47 6.5 -83t22.5 -68t47 -49t75 -17q84 0 132.5 63.5t48.5 155.5v557h335v-829v-197h-323v141h-4q-37 -71 -120.5 -120.5t-186.5 -49.5z" />
    <glyph glyph-name="yacute" unicode="&#xfd;" horiz-adv-x="1161" 
d="M700 1171h-254l213 295h340zM258 -492q-90 0 -184 23l37 283q63 -19 108 -19q73 0 109 32t63 105l33 84l-426 1010h373l227 -661h6l203 661h356l-456 -1180q-33 -84 -69.5 -143t-89 -105t-124.5 -68t-166 -22z" />
    <glyph glyph-name="thorn" unicode="&#xfe;" horiz-adv-x="1349" 
d="M469 -492h-334v2040h334v-637h6q116 138 311 138q108 0 200 -43.5t153 -117t95 -170.5t34 -204q0 -145 -56 -267t-168.5 -199t-261.5 -77q-95 0 -180 39.5t-129 104.5h-4v-607zM702 250q77 0 133 39t82.5 97.5t26.5 127.5q0 106 -64 183t-178 77q-109 0 -177 -79.5
t-68 -182.5q0 -105 68 -183.5t177 -78.5z" />
    <glyph glyph-name="ydieresis" unicode="&#xff;" horiz-adv-x="1161" 
d="M377 1180q-70 0 -120 49.5t-50 118.5q0 67 50 116t120 49q71 0 121.5 -48t50.5 -117q0 -70 -50.5 -119t-121.5 -49zM823 1180q-71 0 -120.5 49t-49.5 119q0 67 49.5 116t120.5 49q69 0 119.5 -48t50.5 -117q0 -70 -50 -119t-120 -49zM258 -492q-90 0 -184 23l37 283
q63 -19 108 -19q73 0 109 32t63 105l33 84l-426 1010h373l227 -661h6l203 661h356l-456 -1180q-33 -84 -69.5 -143t-89 -105t-124.5 -68t-166 -22z" />
    <glyph glyph-name="Amacron" unicode="&#x100;" horiz-adv-x="1492" 
d="M401 1800h689v-176h-689v176zM580 1450h340l602 -1450h-389l-113 285h-561l-107 -285h-381zM743 1063l-184 -498h365z" />
    <glyph glyph-name="amacron" unicode="&#x101;" horiz-adv-x="1159" 
d="M930 1231h-688v176h688v-176zM438 -25q-65 0 -127 17t-118 52.5t-90.5 100t-34.5 150.5q0 344 649 344h6v16q0 72 -51 110t-133 38q-69 0 -136 -29.5t-116 -75.5l-170 183q88 83 207.5 127.5t246.5 44.5q253 0 361 -128t108 -411v-352v-162h-307v109h-6
q-38 -62 -117.5 -98t-171.5 -36zM522 201q100 0 155.5 56.5t55.5 152.5v34h-43q-63 0 -112 -5t-98 -18.5t-76 -43t-27 -72.5q0 -54 43 -79t102 -25z" />
    <glyph glyph-name="Abreve" unicode="&#x102;" horiz-adv-x="1492" 
d="M741 1565q-151 0 -247.5 71.5t-106.5 223.5h172q18 -113 184 -113q79 0 126 23.5t59 89.5h172q-13 -152 -109.5 -223.5t-249.5 -71.5zM580 1450h340l602 -1450h-389l-113 285h-561l-107 -285h-381zM743 1063l-184 -498h365z" />
    <glyph glyph-name="abreve" unicode="&#x103;" horiz-adv-x="1159" 
d="M584 1171q-151 0 -248 71.5t-107 223.5h172q22 -112 185 -112q79 0 125.5 23t58.5 89h172q-13 -152 -109.5 -223.5t-248.5 -71.5zM438 -25q-65 0 -127 17t-118 52.5t-90.5 100t-34.5 150.5q0 344 649 344h6v16q0 72 -51 110t-133 38q-69 0 -136 -29.5t-116 -75.5
l-170 183q88 83 207.5 127.5t246.5 44.5q253 0 361 -128t108 -411v-352v-162h-307v109h-6q-38 -62 -117.5 -98t-171.5 -36zM522 201q100 0 155.5 56.5t55.5 152.5v34h-43q-63 0 -112 -5t-98 -18.5t-76 -43t-27 -72.5q0 -54 43 -79t102 -25z" />
    <glyph glyph-name="Aogonek" unicode="&#x104;" horiz-adv-x="1492" 
d="M1237 -303q60 0 113 41l67 -133q-110 -82 -241 -82q-57 0 -107 17.5t-86.5 60.5t-36.5 106q0 141 213 293h-26l-113 285h-561l-107 -285h-381l609 1450h340l602 -1450h-162q-100 -79 -147.5 -134.5t-47.5 -101.5q0 -31 20 -49t52 -18zM743 1063l-184 -498h365z" />
    <glyph glyph-name="aogonek" unicode="&#x105;" horiz-adv-x="1159" 
d="M1040 -262l68 -133q-110 -82 -242 -82q-57 0 -107 17.5t-86 60.5t-36 106q0 141 213 293h-117v109h-6q-38 -62 -117.5 -98t-171.5 -36q-65 0 -127 17t-118 52.5t-90.5 100t-34.5 150.5q0 344 649 344h6v16q0 72 -51 110t-133 38q-69 0 -136 -29.5t-116 -75.5l-170 183
q88 83 207.5 127.5t246.5 44.5q253 0 361 -128t108 -411v-352v-162h11q-100 -79 -147.5 -134.5t-47.5 -101.5q0 -31 20 -49t52 -18q59 0 112 41zM733 410v34h-43q-63 0 -112 -5t-98 -18.5t-76 -43t-27 -72.5q0 -54 43 -79t102 -25q100 0 155.5 56.5t55.5 152.5z" />
    <glyph glyph-name="Cacute" unicode="&#x106;" horiz-adv-x="1425" 
d="M928 1565h-254l213 295h340zM862 -39q-166 0 -310 56t-247.5 155.5t-163 243t-59.5 311.5q0 227 104.5 402t282.5 267.5t399 92.5q158 0 306.5 -56t236.5 -157l-237 -238q-48 65 -127 99t-166 34q-182 0 -300 -125.5t-118 -318.5q0 -198 114.5 -321t296.5 -123
q100 0 180.5 40t127.5 107l243 -229q-98 -114 -241.5 -177t-321.5 -63z" />
    <glyph glyph-name="cacute" unicode="&#x107;" horiz-adv-x="1030" 
d="M731 1171h-254l213 295h340zM651 -33q-162 0 -290.5 64.5t-204.5 189t-76 289.5q0 162 76.5 287t205 190.5t287.5 65.5q109 0 214 -38.5t165 -99.5l-194 -225q-28 37 -78 59.5t-101 22.5q-103 0 -169 -76.5t-66 -185.5t66 -184.5t173 -75.5q53 0 103 20t80 56l186 -228
q-63 -61 -163.5 -96t-213.5 -35z" />
    <glyph glyph-name="Ccircumflex" unicode="&#x108;" horiz-adv-x="1425" 
d="M735 1565h-262l254 295h303l250 -295h-266l-140 166zM862 -39q-166 0 -310 56t-247.5 155.5t-163 243t-59.5 311.5q0 227 104.5 402t282.5 267.5t399 92.5q158 0 306.5 -56t236.5 -157l-237 -238q-48 65 -127 99t-166 34q-182 0 -300 -125.5t-118 -318.5
q0 -198 114.5 -321t296.5 -123q100 0 180.5 40t127.5 107l243 -229q-98 -114 -241.5 -177t-321.5 -63z" />
    <glyph glyph-name="ccircumflex" unicode="&#x109;" horiz-adv-x="1030" 
d="M512 1171h-262l254 295h303l250 -295h-266l-140 166zM651 -33q-162 0 -290.5 64.5t-204.5 189t-76 289.5q0 162 76.5 287t205 190.5t287.5 65.5q109 0 214 -38.5t165 -99.5l-194 -225q-28 37 -78 59.5t-101 22.5q-103 0 -169 -76.5t-66 -185.5t66 -184.5t173 -75.5
q53 0 103 20t80 56l186 -228q-63 -61 -163.5 -96t-213.5 -35z" />
    <glyph glyph-name="Cdotaccent" unicode="&#x10a;" horiz-adv-x="1425" 
d="M872 1565q-77 0 -129.5 51.5t-52.5 122.5q0 72 52.5 124t129.5 52q75 0 129 -51.5t54 -124.5t-53.5 -123.5t-129.5 -50.5zM862 -39q-166 0 -310 56t-247.5 155.5t-163 243t-59.5 311.5q0 227 104.5 402t282.5 267.5t399 92.5q158 0 306.5 -56t236.5 -157l-237 -238
q-48 65 -127 99t-166 34q-182 0 -300 -125.5t-118 -318.5q0 -198 114.5 -321t296.5 -123q100 0 180.5 40t127.5 107l243 -229q-98 -114 -241.5 -177t-321.5 -63z" />
    <glyph glyph-name="cdotaccent" unicode="&#x10b;" horiz-adv-x="1030" 
d="M655 1171q-76 0 -129 52t-53 123t53 123.5t129 52.5q78 0 132.5 -51.5t54.5 -124.5t-54.5 -124t-132.5 -51zM651 -33q-162 0 -290.5 64.5t-204.5 189t-76 289.5q0 162 76.5 287t205 190.5t287.5 65.5q109 0 214 -38.5t165 -99.5l-194 -225q-28 37 -78 59.5t-101 22.5
q-103 0 -169 -76.5t-66 -185.5t66 -184.5t173 -75.5q53 0 103 20t80 56l186 -228q-63 -61 -163.5 -96t-213.5 -35z" />
    <glyph glyph-name="Ccaron" unicode="&#x10c;" horiz-adv-x="1425" 
d="M1026 1565h-301l-254 295h266l140 -166l139 166h262zM862 -39q-166 0 -310 56t-247.5 155.5t-163 243t-59.5 311.5q0 227 104.5 402t282.5 267.5t399 92.5q158 0 306.5 -56t236.5 -157l-237 -238q-48 65 -127 99t-166 34q-182 0 -300 -125.5t-118 -318.5
q0 -198 114.5 -321t296.5 -123q100 0 180.5 40t127.5 107l243 -229q-98 -114 -241.5 -177t-321.5 -63z" />
    <glyph glyph-name="ccaron" unicode="&#x10d;" horiz-adv-x="1030" 
d="M801 1171h-301l-254 295h266l139 -166l140 166h262zM651 -33q-162 0 -290.5 64.5t-204.5 189t-76 289.5q0 162 76.5 287t205 190.5t287.5 65.5q109 0 214 -38.5t165 -99.5l-194 -225q-28 37 -78 59.5t-101 22.5q-103 0 -169 -76.5t-66 -185.5t66 -184.5t173 -75.5
q53 0 103 20t80 56l186 -228q-63 -61 -163.5 -96t-213.5 -35z" />
    <glyph glyph-name="Dcaron" unicode="&#x10e;" horiz-adv-x="1585" 
d="M883 1565h-301l-254 295h266l139 -166l139 166h263zM690 0h-540v1450h524q130 0 245 -21.5t224 -74.5t187.5 -133.5t125.5 -206.5t47 -285q0 -148 -46.5 -271t-124.5 -206.5t-183.5 -141t-220.5 -84t-238 -26.5zM492 1151v-848h165q78 0 146.5 13t131 44t107 78.5t71 122
t26.5 168.5q0 95 -26.5 169t-70 121t-105.5 77t-128.5 42.5t-142.5 12.5h-174z" />
    <glyph glyph-name="dcaron" unicode="&#x10f;" horiz-adv-x="1619" 
d="M565 -29q-148 0 -260.5 77t-168.5 199t-56 267q0 107 34 204t94.5 170.5t152.5 117t200 43.5q104 0 183 -39.5t128 -98.5h5v637h335v-1548h-309v133h-4q-49 -75 -140 -118.5t-194 -43.5zM1528 1051h-258l137 399h297zM645 250q109 0 177.5 78.5t68.5 183.5
q0 103 -68.5 182.5t-177.5 79.5q-114 0 -178 -77t-64 -183q0 -69 26.5 -127.5t82.5 -97.5t133 -39z" />
    <glyph glyph-name="Dcroat" unicode="&#x110;" horiz-adv-x="1585" 
d="M709 0h-557v633h-125v219h125v598h559q127 0 240.5 -25t214.5 -80.5t174.5 -138t116 -205t42.5 -272.5q0 -146 -45.5 -268t-122.5 -206t-179.5 -142.5t-214 -85.5t-228.5 -27zM494 633v-326h151q110 0 198.5 24t156 73.5t104.5 132t37 192.5q0 208 -125 312t-338 104
h-184v-293h370v-219h-370z" />
    <glyph glyph-name="dcroat" unicode="&#x111;" horiz-adv-x="1347" 
d="M565 -29q-148 0 -260.5 77t-168.5 199t-56 267q0 107 34 204t94.5 170.5t152.5 117t200 43.5q104 0 183 -39.5t128 -98.5h5v256h-306v183h306v198h335v-198h95v-183h-95v-1167h-309v133h-4q-49 -75 -140 -118.5t-194 -43.5zM645 250q109 0 177.5 78.5t68.5 183.5
q0 103 -68.5 182.5t-177.5 79.5q-114 0 -178 -77t-64 -183q0 -69 26.5 -127.5t82.5 -97.5t133 -39z" />
    <glyph glyph-name="Emacron" unicode="&#x112;" horiz-adv-x="1243" 
d="M979 1624h-688v176h688v-176zM1161 0h-1011v1450h974v-297h-637v-272h603v-281h-603v-301h674v-299z" />
    <glyph glyph-name="emacron" unicode="&#x113;" horiz-adv-x="1220" 
d="M983 1231h-688v176h688v-176zM641 -33q-156 0 -281.5 62t-202.5 186t-77 291q0 163 73.5 289t198 192t279.5 66q229 0 370.5 -149t141.5 -406q0 -55 -2 -80h-740q7 -83 79 -138t165 -55q146 0 225 107l234 -148q-73 -105 -191 -161t-272 -56zM401 627h433q0 84 -52.5 139
t-148.5 55q-95 0 -160.5 -57t-71.5 -137z" />
    <glyph glyph-name="Ebreve" unicode="&#x114;" horiz-adv-x="1243" 
d="M633 1565q-151 0 -247.5 71.5t-106.5 223.5h172q18 -113 184 -113q79 0 125.5 23.5t58.5 89.5h172q-13 -152 -109.5 -223.5t-248.5 -71.5zM1161 0h-1011v1450h974v-297h-637v-272h603v-281h-603v-301h674v-299z" />
    <glyph glyph-name="ebreve" unicode="&#x115;" horiz-adv-x="1220" 
d="M637 1171q-151 0 -247.5 71.5t-106.5 223.5h172q22 -112 184 -112q79 0 125.5 23t58.5 89h172q-13 -152 -109.5 -223.5t-248.5 -71.5zM641 -33q-156 0 -281.5 62t-202.5 186t-77 291q0 163 73.5 289t198 192t279.5 66q229 0 370.5 -149t141.5 -406q0 -55 -2 -80h-740
q7 -83 79 -138t165 -55q146 0 225 107l234 -148q-73 -105 -191 -161t-272 -56zM401 627h433q0 84 -52.5 139t-148.5 55q-95 0 -160.5 -57t-71.5 -137z" />
    <glyph glyph-name="Edotaccent" unicode="&#x116;" horiz-adv-x="1243" 
d="M637 1565q-77 0 -129.5 51.5t-52.5 122.5q0 72 52.5 124t129.5 52q75 0 128.5 -51.5t53.5 -124.5t-53.5 -123.5t-128.5 -50.5zM1161 0h-1011v1450h974v-297h-637v-272h603v-281h-603v-301h674v-299z" />
    <glyph glyph-name="edotaccent" unicode="&#x117;" horiz-adv-x="1220" 
d="M637 1171q-76 0 -129 52t-53 123t53 123.5t129 52.5q78 0 132 -51t54 -125q0 -73 -54 -124t-132 -51zM641 -33q-156 0 -281.5 62t-202.5 186t-77 291q0 163 73.5 289t198 192t279.5 66q229 0 370.5 -149t141.5 -406q0 -55 -2 -80h-740q7 -83 79 -138t165 -55
q146 0 225 107l234 -148q-73 -105 -191 -161t-272 -56zM401 627h433q0 84 -52.5 139t-148.5 55q-95 0 -160.5 -57t-71.5 -137z" />
    <glyph glyph-name="Eogonek" unicode="&#x118;" horiz-adv-x="1243" 
d="M961 -483q-43 0 -83 10.5t-74 32t-54.5 58.5t-20.5 85q0 80 61 156.5t148 140.5h-788v1450h974v-297h-637v-272h603v-281h-603v-301h674v-299h-35q-184 -148 -184 -242q0 -32 21.5 -52.5t54.5 -20.5q55 0 112 41l66 -127q-110 -82 -235 -82z" />
    <glyph glyph-name="eogonek" unicode="&#x119;" horiz-adv-x="1220" 
d="M653 -483q-59 0 -109.5 18t-86 61.5t-35.5 106.5q0 126 168 266q-144 9 -258.5 73.5t-183 185t-68.5 278.5q0 163 73.5 289t198 192t279.5 66q229 0 370.5 -149t141.5 -406q0 -55 -2 -80h-740q7 -83 79 -138t165 -55q146 0 225 107l234 -148q-106 -154 -305 -198
q-164 -139 -164 -228q0 -32 21.5 -52.5t54.5 -20.5q55 0 112 41l66 -127q-110 -82 -236 -82zM401 627h433q0 84 -52.5 139t-148.5 55q-95 0 -160.5 -57t-71.5 -137z" />
    <glyph glyph-name="Ecaron" unicode="&#x11a;" horiz-adv-x="1243" 
d="M788 1565h-301l-254 295h267l139 -166l139 166h262zM1161 0h-1011v1450h974v-297h-637v-272h603v-281h-603v-301h674v-299z" />
    <glyph glyph-name="ecaron" unicode="&#x11b;" horiz-adv-x="1220" 
d="M791 1171h-302l-253 295h266l139 -166l139 166h262zM641 -33q-156 0 -281.5 62t-202.5 186t-77 291q0 163 73.5 289t198 192t279.5 66q229 0 370.5 -149t141.5 -406q0 -55 -2 -80h-740q7 -83 79 -138t165 -55q146 0 225 107l234 -148q-73 -105 -191 -161t-272 -56z
M401 627h433q0 84 -52.5 139t-148.5 55q-95 0 -160.5 -57t-71.5 -137z" />
    <glyph glyph-name="Gcircumflex" unicode="&#x11c;" horiz-adv-x="1574" 
d="M743 1565h-262l254 295h303l250 -295h-266l-139 166zM879 -37q-230 0 -411 95t-283.5 269.5t-102.5 399.5q0 227 104.5 402t282.5 267.5t399 92.5q169 0 318 -52t241 -141l-221 -252q-53 61 -138 98.5t-187 37.5q-184 0 -305 -129t-121 -324q0 -205 116.5 -331
t325.5 -126q131 0 219 39v264h-276v283h598v-768q-238 -125 -559 -125z" />
    <glyph glyph-name="gcircumflex" unicode="&#x11d;" horiz-adv-x="1347" 
d="M514 1171h-262l254 295h303l250 -295h-266l-140 166zM612 -492q-137 0 -280.5 42.5t-243.5 117.5l168 240q72 -63 160.5 -96t177.5 -33q143 0 216 76t73 208v62h-6q-48 -63 -129 -99t-181 -36q-113 0 -206 42.5t-154 115t-94 168t-33 202.5q0 86 20.5 165.5t62 147
t99 117.5t135.5 78.5t168 28.5q100 0 187 -40.5t139 -119.5h4v131h317v-930q0 -291 -160 -439.5t-440 -148.5zM645 256q112 0 180 77t68 187q0 109 -68.5 184.5t-179.5 75.5q-110 0 -174.5 -74.5t-64.5 -185.5q0 -108 65 -186t174 -78z" />
    <glyph glyph-name="Gbreve" unicode="&#x11e;" horiz-adv-x="1574" 
d="M891 1565q-151 0 -247.5 71.5t-106.5 223.5h172q18 -113 184 -113q79 0 125.5 23.5t58.5 89.5h172q-13 -152 -109.5 -223.5t-248.5 -71.5zM879 -37q-230 0 -411 95t-283.5 269.5t-102.5 399.5q0 227 104.5 402t282.5 267.5t399 92.5q169 0 318 -52t241 -141l-221 -252
q-53 61 -138 98.5t-187 37.5q-184 0 -305 -129t-121 -324q0 -205 116.5 -331t325.5 -126q131 0 219 39v264h-276v283h598v-768q-238 -125 -559 -125z" />
    <glyph glyph-name="gbreve" unicode="&#x11f;" horiz-adv-x="1347" 
d="M659 1171q-151 0 -247.5 71.5t-106.5 223.5h172q22 -112 185 -112q79 0 125.5 23t58.5 89h172q-13 -152 -109.5 -223.5t-249.5 -71.5zM612 -492q-137 0 -280.5 42.5t-243.5 117.5l168 240q72 -63 160.5 -96t177.5 -33q143 0 216 76t73 208v62h-6q-48 -63 -129 -99
t-181 -36q-113 0 -206 42.5t-154 115t-94 168t-33 202.5q0 86 20.5 165.5t62 147t99 117.5t135.5 78.5t168 28.5q100 0 187 -40.5t139 -119.5h4v131h317v-930q0 -291 -160 -439.5t-440 -148.5zM645 256q112 0 180 77t68 187q0 109 -68.5 184.5t-179.5 75.5
q-110 0 -174.5 -74.5t-64.5 -185.5q0 -108 65 -186t174 -78z" />
    <glyph glyph-name="Gdotaccent" unicode="&#x120;" horiz-adv-x="1574" 
d="M885 1565q-77 0 -130 51.5t-53 122.5q0 72 53 124t130 52q75 0 128.5 -51.5t53.5 -124.5t-53.5 -123.5t-128.5 -50.5zM879 -37q-230 0 -411 95t-283.5 269.5t-102.5 399.5q0 227 104.5 402t282.5 267.5t399 92.5q169 0 318 -52t241 -141l-221 -252q-53 61 -138 98.5
t-187 37.5q-184 0 -305 -129t-121 -324q0 -205 116.5 -331t325.5 -126q131 0 219 39v264h-276v283h598v-768q-238 -125 -559 -125z" />
    <glyph glyph-name="gdotaccent" unicode="&#x121;" horiz-adv-x="1347" 
d="M657 1171q-76 0 -129 52t-53 123t53 123.5t129 52.5q78 0 132.5 -51.5t54.5 -124.5t-54.5 -124t-132.5 -51zM612 -492q-137 0 -280.5 42.5t-243.5 117.5l168 240q72 -63 160.5 -96t177.5 -33q143 0 216 76t73 208v62h-6q-48 -63 -129 -99t-181 -36q-113 0 -206 42.5
t-154 115t-94 168t-33 202.5q0 86 20.5 165.5t62 147t99 117.5t135.5 78.5t168 28.5q100 0 187 -40.5t139 -119.5h4v131h317v-930q0 -291 -160 -439.5t-440 -148.5zM645 256q112 0 180 77t68 187q0 109 -68.5 184.5t-179.5 75.5q-110 0 -174.5 -74.5t-64.5 -185.5
q0 -108 65 -186t174 -78z" />
    <glyph glyph-name="uni0122" unicode="&#x122;" horiz-adv-x="1574" 
d="M879 -37q-230 0 -411 95t-283.5 269.5t-102.5 399.5q0 227 104.5 402t282.5 267.5t399 92.5q169 0 318 -52t241 -141l-221 -252q-53 61 -138 98.5t-187 37.5q-184 0 -305 -129t-121 -324q0 -205 116.5 -331t325.5 -126q131 0 219 39v264h-276v283h598v-768
q-238 -125 -559 -125zM862 -492h-258l137 400h297z" />
    <glyph glyph-name="uni0123" unicode="&#x123;" horiz-adv-x="1347" 
d="M799 1171h-297l176 400h258zM612 -492q-137 0 -280.5 42.5t-243.5 117.5l168 240q72 -63 160.5 -96t177.5 -33q143 0 216 76t73 208v62h-6q-48 -63 -129 -99t-181 -36q-113 0 -206 42.5t-154 115t-94 168t-33 202.5q0 86 20.5 165.5t62 147t99 117.5t135.5 78.5t168 28.5
q100 0 187 -40.5t139 -119.5h4v131h317v-930q0 -291 -160 -439.5t-440 -148.5zM645 256q112 0 180 77t68 187q0 109 -68.5 184.5t-179.5 75.5q-110 0 -174.5 -74.5t-64.5 -185.5q0 -108 65 -186t174 -78z" />
    <glyph glyph-name="Hcircumflex" unicode="&#x124;" horiz-adv-x="1564" 
d="M647 1565h-262l254 295h303l250 -295h-266l-140 166zM500 0h-350v1450h350v-549h565v549h350v-1450h-350v606h-565v-606z" />
    <glyph glyph-name="hcircumflex" unicode="&#x125;" horiz-adv-x="1263" 
d="M504 1630h-262l254 295h303l250 -295h-267l-139 166zM471 0h-336v1548h336v-657h4q36 66 114.5 112t178.5 46q99 0 174 -36t117 -97t62 -132.5t20 -152.5v-631h-338v553q0 215 -150 215q-85 0 -133.5 -61.5t-48.5 -155.5v-551z" />
    <glyph glyph-name="Hbar" unicode="&#x126;" horiz-adv-x="1564" 
d="M500 0h-350v1450h350v-244h565v244h350v-1450h-350v606h-565v-606zM500 1024v-123h565v123h-565z" />
    <glyph glyph-name="hbar" unicode="&#x127;" horiz-adv-x="1263" 
d="M471 0h-336v1167h-94v183h94v198h336v-198h305v-183h-305v-276h4q36 66 114.5 112t178.5 46q99 0 174 -36t117 -97t62 -132.5t20 -152.5v-631h-338v553q0 215 -150 215q-85 0 -133.5 -61.5t-48.5 -155.5v-551z" />
    <glyph glyph-name="Itilde" unicode="&#x128;" horiz-adv-x="651" 
d="M94 1575h-147q7 56 23 101.5t42.5 83.5t69 59.5t96.5 21.5q76 0 166 -41q87 -41 133 -41q65 0 86 84h146q-13 -119 -70 -194.5t-162 -75.5q-89 0 -168 43q-73 41 -129 41q-63 0 -86 -82zM502 0h-352v1450h352v-1450z" />
    <glyph glyph-name="itilde" unicode="&#x129;" horiz-adv-x="606" 
d="M74 1182h-148q7 56 23 101.5t43 83.5t69.5 59.5t96.5 21.5q76 0 166 -41q87 -41 133 -41q65 0 86 84h145q-13 -119 -69.5 -194.5t-161.5 -75.5q-73 0 -168 43q-78 41 -129 41q-63 0 -86 -82zM471 0h-336v1026h336v-1026z" />
    <glyph glyph-name="Imacron" unicode="&#x12a;" horiz-adv-x="651" 
d="M668 1624h-688v176h688v-176zM502 0h-352v1450h352v-1450z" />
    <glyph glyph-name="imacron" unicode="&#x12b;" horiz-adv-x="606" 
d="M651 1231h-688v176h688v-176zM471 0h-336v1026h336v-1026z" />
    <glyph glyph-name="Ibreve" unicode="&#x12c;" horiz-adv-x="651" 
d="M324 1565q-151 0 -248 71.5t-107 223.5h172q18 -113 185 -113q79 0 125.5 23.5t58.5 89.5h172q-13 -152 -109.5 -223.5t-248.5 -71.5zM502 0h-352v1450h352v-1450z" />
    <glyph glyph-name="ibreve" unicode="&#x12d;" horiz-adv-x="606" 
d="M301 1171q-151 0 -247.5 71.5t-106.5 223.5h172q22 -112 184 -112q79 0 125.5 23t58.5 89h172q-13 -152 -109.5 -223.5t-248.5 -71.5zM471 0h-336v1026h336v-1026z" />
    <glyph glyph-name="Iogonek" unicode="&#x12e;" horiz-adv-x="651" 
d="M487 -262l68 -133q-110 -82 -242 -82q-57 0 -107 17.5t-86 60.5t-36 106q0 141 213 293h-147v1450h352v-1450h-4q-100 -79 -147.5 -134.5t-47.5 -101.5q0 -31 20 -49t52 -18q59 0 112 41z" />
    <glyph glyph-name="iogonek" unicode="&#x12f;" horiz-adv-x="606" 
d="M303 1161q-81 0 -136.5 54.5t-55.5 130.5q0 75 55.5 129.5t136.5 54.5q80 0 136.5 -54t56.5 -130q0 -78 -56.5 -131.5t-136.5 -53.5zM459 -262l67 -133q-110 -82 -241 -82q-57 0 -107 17.5t-86.5 60.5t-36.5 106q0 141 213 293h-133v1026h336v-1026h-2
q-100 -79 -147.5 -134.5t-47.5 -101.5q0 -31 20 -49t52 -18q60 0 113 41z" />
    <glyph glyph-name="Idotaccent" unicode="&#x130;" horiz-adv-x="651" 
d="M328 1565q-77 0 -130 51.5t-53 122.5q0 72 53 124t130 52q75 0 128.5 -51.5t53.5 -124.5t-53.5 -123.5t-128.5 -50.5zM502 0h-352v1450h352v-1450z" />
    <glyph glyph-name="dotlessi" unicode="&#x131;" horiz-adv-x="606" 
d="M471 0h-336v1026h336v-1026z" />
    <glyph glyph-name="IJ" unicode="&#x132;" horiz-adv-x="1714" 
d="M502 0h-352v1450h352v-1450zM1096 -39q-179 0 -304.5 93.5t-166.5 246.5l309 105q14 -58 52 -92.5t93 -34.5q81 0 111.5 55t30.5 160v956h352v-954q0 -76 -11 -144.5t-43.5 -142t-83.5 -126.5t-138 -87.5t-201 -34.5z" />
    <glyph glyph-name="ij" unicode="&#x133;" horiz-adv-x="1206" 
d="M303 1161q-81 0 -136.5 54.5t-55.5 130.5q0 75 55.5 129.5t136.5 54.5q80 0 136.5 -54t56.5 -130q0 -78 -56.5 -131.5t-136.5 -53.5zM903 1161q-81 0 -136.5 54.5t-55.5 130.5q0 75 55.5 129.5t136.5 54.5q80 0 136.5 -54t56.5 -130q0 -78 -56.5 -131.5t-136.5 -53.5z
M471 0h-336v1026h336v-1026zM664 -492q-83 0 -146 17l23 280q31 -10 71 -10q69 0 96 46t27 132v1053h336v-1053q0 -81 -10.5 -146t-38 -126t-72.5 -102.5t-117.5 -66t-168.5 -24.5z" />
    <glyph glyph-name="Jcircumflex" unicode="&#x134;" horiz-adv-x="1083" 
d="M623 1565h-263l254 295h304l249 -295h-266l-139 166zM465 -39q-179 0 -304.5 93.5t-166.5 246.5l309 105q14 -58 52.5 -92.5t93.5 -34.5q81 0 111 55t30 160v956h352v-954q0 -76 -11 -144.5t-43.5 -142t-83.5 -126.5t-138 -87.5t-201 -34.5z" />
    <glyph glyph-name="jcircumflex" unicode="&#x135;" horiz-adv-x="612" 
d="M164 1171h-262l254 295h303l250 -295h-267l-139 166zM70 -492q-83 0 -146 17l23 280q31 -10 71 -10q69 0 96 46t27 132v1053h336v-1053q0 -81 -10.5 -146t-38 -126t-72.5 -102.5t-117.5 -66t-168.5 -24.5z" />
    <glyph glyph-name="uni0136" unicode="&#x136;" horiz-adv-x="1456" 
d="M494 0h-344v1450h344v-590h6l518 590h438l-625 -668l662 -782h-457l-538 668h-4v-668zM735 -492h-258l137 400h297z" />
    <glyph glyph-name="uni0137" unicode="&#x137;" horiz-adv-x="1218" 
d="M471 0h-338v1548h338v-938h6l326 416h407l-393 -463l410 -563h-416l-334 494h-6v-494zM614 -492h-258l138 400h297z" />
    <glyph glyph-name="kgreenlandic" unicode="&#x138;" horiz-adv-x="1218" 
d="M471 0h-338v1026h338v-416h6l326 416h407l-393 -463l410 -563h-416l-334 494h-6v-494z" />
    <glyph glyph-name="Lacute" unicode="&#x139;" horiz-adv-x="1077" 
d="M449 1565h-254l213 295h340zM1063 0h-913v1450h352v-1145h561v-305z" />
    <glyph glyph-name="lacute" unicode="&#x13a;" horiz-adv-x="610" 
d="M389 1622h-254l213 295h340zM475 0h-340v1548h340v-1548z" />
    <glyph glyph-name="uni013B" unicode="&#x13b;" horiz-adv-x="1077" 
d="M1063 0h-913v1450h352v-1145h561v-305zM571 -492h-258l138 400h297z" />
    <glyph glyph-name="uni013C" unicode="&#x13c;" horiz-adv-x="610" 
d="M475 0h-340v1548h340v-1548zM276 -492h-258l138 400h297z" />
    <glyph glyph-name="Lcaron" unicode="&#x13d;" horiz-adv-x="1077" 
d="M1063 0h-913v1450h352v-1145h561v-305zM819 1051h-258l137 399h297z" />
    <glyph glyph-name="lcaron" unicode="&#x13e;" horiz-adv-x="884" 
d="M475 0h-340v1548h340v-1548zM793 1051h-258l137 399h297z" />
    <glyph glyph-name="Ldot" unicode="&#x13f;" horiz-adv-x="1077" 
d="M1063 0h-913v1450h352v-1145h561v-305zM795 721q-77 0 -130 51.5t-53 122.5q0 72 53 124t130 52q75 0 128.5 -51.5t53.5 -124.5t-53.5 -123.5t-128.5 -50.5z" />
    <glyph glyph-name="ldot" unicode="&#x140;" horiz-adv-x="917" 
d="M475 0h-340v1548h340v-1548zM733 721q-76 0 -129 51.5t-53 122.5t53 123.5t129 52.5q78 0 132.5 -51.5t54.5 -124.5t-54.5 -123.5t-132.5 -50.5z" />
    <glyph glyph-name="Lslash" unicode="&#x141;" horiz-adv-x="1077" 
d="M1063 0h-913v362l-132 -114v291l132 114v797h352v-537l391 342v-288l-391 -342v-320h561v-305z" />
    <glyph glyph-name="lslash" unicode="&#x142;" horiz-adv-x="610" 
d="M475 0h-340v547l-119 -115v293l119 117v706h340v-444l119 117v-291l-119 -115v-815z" />
    <glyph glyph-name="Nacute" unicode="&#x143;" horiz-adv-x="1617" 
d="M905 1565h-254l213 295h340zM489 0h-339v1450h399l581 -946h7l-9 946h340v-1450h-397l-584 948h-6z" />
    <glyph glyph-name="nacute" unicode="&#x144;" horiz-adv-x="1261" 
d="M692 1171h-254l213 295h340zM469 0h-338v791v235h326v-141h4q37 71 120.5 120.5t184.5 49.5q99 0 173.5 -36t116.5 -97t62.5 -132.5t20.5 -152.5v-637h-338v563q0 215 -152 215q-85 0 -132.5 -63t-47.5 -156v-559z" />
    <glyph glyph-name="uni0145" unicode="&#x145;" horiz-adv-x="1617" 
d="M489 0h-339v1450h399l581 -946h7l-9 946h340v-1450h-397l-584 948h-6zM776 -492h-258l137 400h297z" />
    <glyph glyph-name="uni0146" unicode="&#x146;" horiz-adv-x="1261" 
d="M469 0h-338v791v235h326v-141h4q37 71 120.5 120.5t184.5 49.5q99 0 173.5 -36t116.5 -97t62.5 -132.5t20.5 -152.5v-637h-338v563q0 215 -152 215q-85 0 -132.5 -63t-47.5 -156v-559zM596 -492h-258l137 400h297z" />
    <glyph glyph-name="Ncaron" unicode="&#x147;" horiz-adv-x="1617" 
d="M967 1565h-301l-254 295h266l139 -166l139 166h263zM489 0h-339v1450h399l581 -946h7l-9 946h340v-1450h-397l-584 948h-6z" />
    <glyph glyph-name="ncaron" unicode="&#x148;" horiz-adv-x="1261" 
d="M786 1171h-301l-254 295h267l139 -166l139 166h262zM469 0h-338v791v235h326v-141h4q37 71 120.5 120.5t184.5 49.5q99 0 173.5 -36t116.5 -97t62.5 -132.5t20.5 -152.5v-637h-338v563q0 215 -152 215q-85 0 -132.5 -63t-47.5 -156v-559z" />
    <glyph glyph-name="napostrophe" unicode="&#x149;" horiz-adv-x="1445" 
d="M252 1065h-258l147 555h297zM653 0h-338v791v235h326v-141h4q37 71 120.5 120.5t184.5 49.5q99 0 173.5 -36t116.5 -97t62.5 -132.5t20.5 -152.5v-637h-338v563q0 215 -151 215q-85 0 -133 -63t-48 -156v-559z" />
    <glyph glyph-name="Eng" unicode="&#x14a;" horiz-adv-x="1617" 
d="M1137 563l-9 887h340v-1477q0 -81 -10.5 -146t-38 -126t-72.5 -102.5t-117.5 -66t-168.5 -24.5q-83 0 -146 17l23 280q31 -10 72 -10q69 0 96 46t27 132v11l-646 964h-6l8 -948h-339v1450h399l581 -887h7z" />
    <glyph glyph-name="eng" unicode="&#x14b;" horiz-adv-x="1261" 
d="M731 -492q-82 0 -145 17l22 280q31 -10 72 -10q69 0 95 46t26 132v590q0 215 -152 215q-85 0 -132.5 -63t-47.5 -156v-559h-338v811v215h326v-141h4q37 71 120.5 120.5t184.5 49.5q99 0 173.5 -36t116.5 -97t62.5 -132.5t20.5 -152.5v-664q0 -80 -10.5 -145.5
t-38.5 -126.5t-72.5 -102.5t-117.5 -66t-169 -24.5z" />
    </font>
</defs>
</svg>
