<?xml version="1.0" standalone="no"?>
<!DOCTYPE svg PUBLIC "-//W3C//DTD SVG 1.1//EN" "http://www.w3.org/Graphics/SVG/1.1/DTD/svg11.dtd" >
<svg xmlns="http://www.w3.org/2000/svg" xmlns:xlink="http://www.w3.org/1999/xlink" version="1.1">
<metadata>
Created by FontForge 20201107 at Tue Feb 13 14:28:09 2024
 By 
Copyright (c) 2020 Monotype GmbH. All rights reserved.
</metadata>
<defs>
<font id="AvenirNextWorld-Italic" horiz-adv-x="0" >
  <font-face 
    font-family="Avenir Next World"
    font-weight="400"
    font-style="italic"
    font-stretch="normal"
    units-per-em="2048"
    panose-1="2 11 5 3 2 2 2 9 2 4"
    ascent="1552"
    descent="-496"
    x-height="961"
    cap-height="1450"
    bbox="-1712 -713 2824 2363"
    underline-thickness="102"
    underline-position="-204"
    slope="-10"
    unicode-range="U+000D-FEFF"
  />
<missing-glyph horiz-adv-x="1048" 
d="M1049 0h-1049v1470h1049v-1470zM102 1366v-1264h844v1264h-844zM555 479h-94q-4 24 -4 35q0 77 12 124t34.5 80t74.5 83q64 62 83 95.5t19 74.5q0 73 -46 123.5t-110 50.5q-67 0 -112 -47.5t-56 -147.5l-102 17q13 141 87 210.5t189 69.5q110 0 182 -74t72 -194
q0 -68 -27 -123.5t-102 -122.5q-68 -61 -84 -102t-16 -152zM569 240h-114v137h114v-137z" />
    <glyph glyph-name="uniFB00" unicode="ff" horiz-adv-x="1171" 
d="M254 0h-137l147 846h-203l23 115h199l45 258q13 74 39.5 136t69 112t106.5 78t143 28q61 0 113 -14l-33 -121q-43 12 -96 12q-93 0 -139.5 -64.5t-67.5 -181.5l-43 -243h229l-22 -115h-226zM821 0h-137l147 846h-202l22 115h199l45 258q13 74 39.5 136t69 112t106.5 78
t143 28q61 0 113 -14l-33 -121q-44 12 -96 12q-93 0 -139.5 -64.5t-67.5 -181.5l-43 -243h230l-23 -115h-225z" />
    <glyph glyph-name="uniFB03" unicode="ffi" horiz-adv-x="1681" 
d="M254 0h-137l147 846h-203l23 115h199l45 258q13 74 39.5 136t69 112t106.5 78t143 28q61 0 113 -14l-33 -121q-43 12 -96 12q-93 0 -139.5 -64.5t-67.5 -181.5l-43 -243h430l45 258q13 74 39.5 136t69 112t106.5 78t143 28q61 0 113 -14l-33 -121q-44 12 -96 12
q-93 0 -139.5 -64.5t-67.5 -181.5l-43 -243h230l-23 -115h-225l-148 -846h-137l147 846h-430zM1542 1231q-40 0 -67 25t-27 67t29.5 71t68.5 29t65.5 -26t26.5 -68q0 -40 -28 -69t-68 -29zM1382 0h-137l170 961h137z" />
    <glyph glyph-name="uniFB04" unicode="ffl" horiz-adv-x="1681" 
d="M254 0h-137l147 846h-203l23 115h199l45 258q13 74 39.5 136t69 112t106.5 78t143 28q61 0 113 -14l-33 -121q-43 12 -96 12q-93 0 -139.5 -64.5t-67.5 -181.5l-43 -243h430l45 258q13 74 39.5 136t69 112t106.5 78t143 28q61 0 113 -14l-33 -121q-44 12 -96 12
q-93 0 -139.5 -64.5t-67.5 -181.5l-43 -243h230l-23 -115h-225l-148 -846h-137l147 846h-430zM1384 0h-139l273 1548h139z" />
    <glyph glyph-name="f_i" unicode="fi" horiz-adv-x="1114" 
d="M254 0h-137l147 846h-203l23 115h199l45 258q13 74 39.5 136t69 112t106.5 78t143 28q61 0 113 -14l-33 -121q-43 12 -96 12q-93 0 -139.5 -64.5t-67.5 -181.5l-43 -243h229l-22 -115h-226zM973 1231q-40 0 -67 25t-27 67t29.5 71t68.5 29t65.5 -26t26.5 -68
q0 -40 -28 -69t-68 -29zM813 0h-137l170 961h137z" />
    <glyph glyph-name="f_l" unicode="fl" horiz-adv-x="1114" 
d="M254 0h-137l147 846h-203l23 115h199l45 258q13 74 39.5 136t69 112t106.5 78t143 28q61 0 113 -14l-33 -121q-43 12 -96 12q-93 0 -139.5 -64.5t-67.5 -181.5l-43 -243h229l-22 -115h-226zM815 0h-139l272 1548h139z" />
    <glyph glyph-name="uni0531055B.liga" unicode="&#x531;&#x55b;" horiz-adv-x="2191" 
d="M1765 1192l293 358h166l-332 -358h-127zM1288 516q167 -4 245.5 -67t78.5 -191q0 -24 -3.5 -55t-8 -55.5t-13.5 -72t-14 -77.5h-137q34 196 34 233q0 82 -49.5 123.5t-163.5 42.5q-136 -436 -583 -436q-242 0 -372 123.5t-130 323.5q0 60 14 139l158 903h145l-157 -895
q-15 -84 -15 -127q0 -72 20.5 -132t62.5 -107.5t113 -74t165 -26.5q98 0 175.5 28t126 71.5t85 107.5t55 123.5t31.5 132.5l158 899h143l-160 -909q-1 -4 -2 -12.5t-2 -12.5z" />
    <glyph glyph-name="uni0531055C.liga" unicode="&#x531;&#x55c;" horiz-adv-x="2318" 
d="M2224 1550h129q-11 -64 -36.5 -108.5t-68.5 -71.5t-87.5 -42t-112.5 -28q-77 -16 -107 -36.5t-40 -71.5h-127q11 59 31 98.5t55 63.5t72 36.5t98 24.5q99 19 142 49t52 86zM1288 516q167 -4 245.5 -67t78.5 -191q0 -24 -3.5 -55t-8 -55.5t-13.5 -72t-14 -77.5h-137
q34 196 34 233q0 82 -49.5 123.5t-163.5 42.5q-136 -436 -583 -436q-242 0 -372 123.5t-130 323.5q0 60 14 139l158 903h145l-157 -895q-15 -84 -15 -127q0 -72 20.5 -132t62.5 -107.5t113 -74t165 -26.5q98 0 175.5 28t126 71.5t85 107.5t55 123.5t31.5 132.5l158 899h143
l-160 -909q-1 -4 -2 -12.5t-2 -12.5z" />
    <glyph glyph-name="uni0531055E.liga" unicode="&#x531;&#x55e;" horiz-adv-x="2390" 
d="M2165 1585q104 0 167.5 -46.5t63.5 -129.5q0 -92 -73 -147.5t-177 -55.5l19 117q36 0 64 22t28 56q0 32 -25 50.5t-73 18.5q-102 0 -168 -78t-88 -198h-129q18 105 66.5 191.5t133.5 143t191 56.5zM1288 516q167 -4 245.5 -67t78.5 -191q0 -24 -3.5 -55t-8 -55.5
t-13.5 -72t-14 -77.5h-137q34 196 34 233q0 82 -49.5 123.5t-163.5 42.5q-136 -436 -583 -436q-242 0 -372 123.5t-130 323.5q0 60 14 139l158 903h145l-157 -895q-15 -84 -15 -127q0 -72 20.5 -132t62.5 -107.5t113 -74t165 -26.5q98 0 175.5 28t126 71.5t85 107.5
t55 123.5t31.5 132.5l158 899h143l-160 -909q-1 -4 -2 -12.5t-2 -12.5z" />
    <glyph glyph-name="uni0535055B.liga" unicode="&#x535;&#x55b;" horiz-adv-x="2160" 
d="M2193 1550l-331 -358h-127l293 358h165zM674 -39q-242 0 -372 123.5t-130 323.5q0 60 14 139l158 903h145l-157 -895q-15 -84 -15 -127q0 -72 20.5 -132t62.5 -107.5t113 -74t165 -26.5q98 0 176.5 26.5t130 70.5t85.5 104.5t48.5 125t14.5 134.5v69h143v-77
q0 -92 -23 -176.5t-72 -158.5t-119 -128t-169.5 -85.5t-218.5 -31.5zM1346 831h-965l22 130h965z" />
    <glyph glyph-name="uni0535055C.liga" unicode="&#x535;&#x55c;" horiz-adv-x="2287" 
d="M1870 1192h-127q11 59 31 98.5t55 63.5t72 36.5t98 24.5q99 19 142 49t52 86h129q-11 -64 -36.5 -108.5t-68.5 -71.5t-87.5 -42t-112.5 -28q-77 -16 -107 -36.5t-40 -71.5zM674 -39q-242 0 -372 123.5t-130 323.5q0 60 14 139l158 903h145l-157 -895q-15 -84 -15 -127
q0 -72 20.5 -132t62.5 -107.5t113 -74t165 -26.5q98 0 176.5 26.5t130 70.5t85.5 104.5t48.5 125t14.5 134.5v69h143v-77q0 -92 -23 -176.5t-72 -158.5t-119 -128t-169.5 -85.5t-218.5 -31.5zM1346 831h-965l22 130h965z" />
    <glyph glyph-name="uni0535055E.liga" unicode="&#x535;&#x55e;" horiz-adv-x="2359" 
d="M2365 1409q0 -92 -72.5 -147.5t-176.5 -55.5l18 117q36 0 64 22t28 56q0 32 -25 50.5t-73 18.5q-102 0 -168.5 -77.5t-89.5 -198.5h-127q18 105 66.5 191.5t133.5 143t191 56.5q103 0 167 -46.5t64 -129.5zM674 -39q-242 0 -372 123.5t-130 323.5q0 60 14 139l158 903
h145l-157 -895q-15 -84 -15 -127q0 -72 20.5 -132t62.5 -107.5t113 -74t165 -26.5q98 0 176.5 26.5t130 70.5t85.5 104.5t48.5 125t14.5 134.5v69h143v-77q0 -92 -23 -176.5t-72 -158.5t-119 -128t-169.5 -85.5t-218.5 -31.5zM1346 831h-965l22 130h965z" />
    <glyph glyph-name="uni0538055B.liga" unicode="&#x538;&#x55b;" horiz-adv-x="2148" 
d="M1724 1192l293 358h166l-332 -358h-127zM860 1489q123 0 217.5 -34t153 -94.5t88 -141t29.5 -177.5q0 -46 -21 -204h-143q20 137 20 190q0 152 -83 243t-265 91q-95 0 -171 -29t-124 -73t-84 -108.5t-54.5 -123t-31.5 -129.5l-135 -770h958l-22 -129h-1104l160 909
q17 96 46.5 178t79.5 157.5t115.5 128.5t160.5 84.5t210 31.5z" />
    <glyph glyph-name="uni0538055C.liga" unicode="&#x538;&#x55c;" horiz-adv-x="2277" 
d="M2183 1550h129q-11 -64 -36.5 -108.5t-68.5 -71.5t-87.5 -42t-112.5 -28q-78 -16 -107.5 -36.5t-39.5 -71.5h-127q11 59 31 98.5t55 63.5t72 36.5t98 24.5q99 19 142 49t52 86zM860 1489q123 0 217.5 -34t153 -94.5t88 -141t29.5 -177.5q0 -46 -21 -204h-143
q20 137 20 190q0 152 -83 243t-265 91q-95 0 -171 -29t-124 -73t-84 -108.5t-54.5 -123t-31.5 -129.5l-135 -770h958l-22 -129h-1104l160 909q17 96 46.5 178t79.5 157.5t115.5 128.5t160.5 84.5t210 31.5z" />
    <glyph glyph-name="uni0538055E.liga" unicode="&#x538;&#x55e;" horiz-adv-x="2349" 
d="M2124 1585q103 0 167 -46.5t64 -129.5q0 -92 -73 -147.5t-177 -55.5l19 117q36 0 64 22t28 56q0 32 -25 50.5t-73 18.5q-102 0 -168.5 -77.5t-89.5 -198.5h-127q18 105 66.5 191.5t133.5 143t191 56.5zM860 1489q123 0 217.5 -34t153 -94.5t88 -141t29.5 -177.5
q0 -46 -21 -204h-143q20 137 20 190q0 152 -83 243t-265 91q-95 0 -171 -29t-124 -73t-84 -108.5t-54.5 -123t-31.5 -129.5l-135 -770h958l-22 -129h-1104l160 909q17 96 46.5 178t79.5 157.5t115.5 128.5t160.5 84.5t210 31.5z" />
    <glyph glyph-name="uni053B055B.liga" unicode="&#x53b;&#x55b;" horiz-adv-x="1961" 
d="M1995 1550l-332 -358h-127l293 358h166zM377 1450h143l-112 -647h4q68 110 178.5 179t249.5 69q204 0 309.5 -112.5t105.5 -295.5q0 -92 -36 -264h-144q30 166 33 239q2 62 -14.5 116.5t-50.5 98t-91.5 68.5t-132.5 25q-179 0 -304.5 -124t-164.5 -333l-86 -469h-143z
" />
    <glyph glyph-name="uni053B055C.liga" unicode="&#x53b;&#x55c;" horiz-adv-x="2088" 
d="M1671 1192h-127q11 59 31 98.5t55 63.5t72 36.5t98 24.5q99 19 142.5 49t52.5 86h129q-11 -64 -36.5 -108.5t-68.5 -71.5t-87.5 -42t-112.5 -28q-77 -16 -107.5 -36.5t-40.5 -71.5zM377 1450h143l-112 -647h4q68 110 178.5 179t249.5 69q204 0 309.5 -112.5t105.5 -295.5
q0 -92 -36 -264h-144q30 166 33 239q2 62 -14.5 116.5t-50.5 98t-91.5 68.5t-132.5 25q-179 0 -304.5 -124t-164.5 -333l-86 -469h-143z" />
    <glyph glyph-name="uni053B055E.liga" unicode="&#x53b;&#x55e;" horiz-adv-x="2160" 
d="M2167 1409q0 -92 -73 -147.5t-177 -55.5l18 117q36 0 64.5 22t28.5 56q0 32 -25.5 50.5t-73.5 18.5q-102 0 -168.5 -77.5t-89.5 -198.5h-127q18 105 66.5 191.5t133.5 143t191 56.5q103 0 167.5 -46.5t64.5 -129.5zM377 1450h143l-112 -647h4q68 110 178.5 179t249.5 69
q204 0 309.5 -112.5t105.5 -295.5q0 -92 -36 -264h-144q30 166 33 239q2 62 -14.5 116.5t-50.5 98t-91.5 68.5t-132.5 25q-179 0 -304.5 -124t-164.5 -333l-86 -469h-143z" />
    <glyph glyph-name="uni0548055B.liga" unicode="&#x548;&#x55b;" horiz-adv-x="2177" 
d="M2212 1550l-332 -358h-129l295 358h166zM866 1489q244 0 374 -123.5t130 -323.5q0 -67 -16 -139l-158 -903h-143l157 895q13 73 13 127q0 72 -20.5 132t-62.5 107.5t-113 74t-165 26.5q-97 0 -174 -28t-126 -71.5t-85 -107.5t-54.5 -123.5t-31.5 -132.5l-158 -899h-145
l160 909q17 96 46 177.5t79.5 157.5t116.5 129t162.5 84.5t213.5 31.5z" />
    <glyph glyph-name="uni0548055C.liga" unicode="&#x548;&#x55c;" horiz-adv-x="2306" 
d="M1888 1192h-129q11 60 31.5 99t55.5 63t72 36.5t99 24.5q98 19 141 49t52 86h129q-8 -52 -27 -91t-44.5 -64t-64.5 -44t-77 -30t-92 -21q-77 -16 -107 -36.5t-39 -71.5zM866 1489q244 0 374 -123.5t130 -323.5q0 -67 -16 -139l-158 -903h-143l157 895q13 73 13 127
q0 72 -20.5 132t-62.5 107.5t-113 74t-165 26.5q-97 0 -174 -28t-126 -71.5t-85 -107.5t-54.5 -123.5t-31.5 -132.5l-158 -899h-145l160 909q17 96 46 177.5t79.5 157.5t116.5 129t162.5 84.5t213.5 31.5z" />
    <glyph glyph-name="uni0548055E.liga" unicode="&#x548;&#x55e;" horiz-adv-x="2377" 
d="M2382 1409q0 -92 -72 -147.5t-176 -55.5l18 117q36 0 63.5 22t27.5 56q0 32 -24.5 50.5t-72.5 18.5q-102 0 -168.5 -77.5t-89.5 -198.5h-129q14 78 46.5 147t80.5 124.5t117 87.5t149 32q102 0 166 -46.5t64 -129.5zM866 1489q244 0 374 -123.5t130 -323.5
q0 -67 -16 -139l-158 -903h-143l157 895q13 73 13 127q0 72 -20.5 132t-62.5 107.5t-113 74t-165 26.5q-97 0 -174 -28t-126 -71.5t-85 -107.5t-54.5 -123.5t-31.5 -132.5l-158 -899h-145l160 909q17 96 46 177.5t79.5 157.5t116.5 129t162.5 84.5t213.5 31.5z" />
    <glyph glyph-name="uni0552055B.liga" unicode="&#x552;&#x55b;" horiz-adv-x="1574" 
d="M1149 1192l295 358h166l-332 -358h-129zM893 641q31 -64 106.5 -90.5t204.5 -26.5l-22 -127q-159 0 -264 43t-142 121q-16 35 -42 94.5t-32 73.5q-29 59 -70.5 80.5t-127.5 21.5h-92l-148 -831h-141l254 1450h143l-86 -489h96q84 0 139 -15.5t87 -45.5t57 -81
q9 -18 37.5 -83.5t42.5 -94.5z" />
    <glyph glyph-name="uni0552055C.liga" unicode="&#x552;&#x55c;" horiz-adv-x="1703" 
d="M1608 1550h129q-8 -52 -27 -91t-44.5 -64t-64.5 -44t-77 -30t-92 -21q-77 -16 -107 -36.5t-39 -71.5h-129q11 60 31.5 99t55.5 63t72 36.5t99 24.5q98 19 141 49t52 86zM893 641q31 -64 106.5 -90.5t204.5 -26.5l-22 -127q-159 0 -264 43t-142 121q-16 35 -42 94.5
t-32 73.5q-29 59 -70.5 80.5t-127.5 21.5h-92l-148 -831h-141l254 1450h143l-86 -489h96q84 0 139 -15.5t87 -45.5t57 -81q9 -18 37.5 -83.5t42.5 -94.5z" />
    <glyph glyph-name="uni0552055E.liga" unicode="&#x552;&#x55e;" horiz-adv-x="1775" 
d="M1550 1585q102 0 166 -46.5t64 -129.5q0 -92 -72 -147.5t-176 -55.5l18 117q35 0 62.5 22t27.5 56q0 32 -24 50.5t-72 18.5q-102 0 -168.5 -77.5t-89.5 -198.5h-129q14 78 46.5 147t80.5 124.5t117 87.5t149 32zM893 641q31 -64 106.5 -90.5t204.5 -26.5l-22 -127
q-159 0 -264 43t-142 121q-16 35 -42 94.5t-32 73.5q-29 59 -70.5 80.5t-127.5 21.5h-92l-148 -831h-141l254 1450h143l-86 -489h96q84 0 139 -15.5t87 -45.5t57 -81q9 -18 37.5 -83.5t42.5 -94.5z" />
    <glyph glyph-name="uni0555055B.liga" unicode="&#x555;&#x55b;" horiz-adv-x="2375" 
d="M2408 1546l-329 -356h-129l295 356h163zM813 -39q-308 0 -485.5 173.5t-177.5 461.5q0 240 106.5 444t299.5 326.5t431 122.5q306 0 484 -174.5t178 -460.5q0 -180 -62 -343t-170.5 -284.5t-266 -193.5t-337.5 -72zM817 88q151 0 280.5 63.5t216.5 168.5t136 241.5
t49 282.5t-57 262t-176 187t-285 71q-150 0 -279.5 -64t-216.5 -170t-136.5 -242.5t-49.5 -281.5q0 -108 33 -201.5t96.5 -164.5t163 -111.5t225.5 -40.5z" />
    <glyph glyph-name="uni0555055C.liga" unicode="&#x555;&#x55c;" horiz-adv-x="2504" 
d="M2087 1190h-129q11 59 30.5 98t55.5 62.5t72.5 36t99.5 24.5q99 20 141 50t51 87h129q-10 -64 -35 -108.5t-68.5 -72t-88 -42.5t-113.5 -29q-76 -14 -106 -35t-39 -71zM813 -39q-308 0 -485.5 173.5t-177.5 461.5q0 240 106.5 444t299.5 326.5t431 122.5
q306 0 484 -174.5t178 -460.5q0 -180 -62 -343t-170.5 -284.5t-266 -193.5t-337.5 -72zM817 88q151 0 280.5 63.5t216.5 168.5t136 241.5t49 282.5t-57 262t-176 187t-285 71q-150 0 -279.5 -64t-216.5 -170t-136.5 -242.5t-49.5 -281.5q0 -108 33 -201.5t96.5 -164.5
t163 -111.5t225.5 -40.5z" />
    <glyph glyph-name="uni0555055E.liga" unicode="&#x555;&#x55e;" horiz-adv-x="2576" 
d="M2580 1407q0 -92 -72 -147.5t-175 -55.5l16 117q37 0 64.5 22t27.5 56q0 67 -98 67q-101 0 -167.5 -77t-88.5 -197h-129q30 165 132.5 278t258.5 113q104 0 167.5 -46.5t63.5 -129.5zM813 -39q-308 0 -485.5 173.5t-177.5 461.5q0 240 106.5 444t299.5 326.5t431 122.5
q306 0 484 -174.5t178 -460.5q0 -180 -62 -343t-170.5 -284.5t-266 -193.5t-337.5 -72zM817 88q151 0 280.5 63.5t216.5 168.5t136 241.5t49 282.5t-57 262t-176 187t-285 71q-150 0 -279.5 -64t-216.5 -170t-136.5 -242.5t-49.5 -281.5q0 -108 33 -201.5t96.5 -164.5
t163 -111.5t225.5 -40.5z" />
    <glyph glyph-name="uni0561055B.liga" unicode="&#x561;&#x55b;" horiz-adv-x="1812" 
d="M1937 1548l-329 -356h-129l295 356h163zM141 375l103 586h137l-96 -545q-11 -64 -11 -107q0 -219 203 -219q129 0 218.5 107.5t121.5 283.5l84 480h137l-96 -547q-6 -38 -10 -105q0 -219 203 -219q127 0 216.5 100t118.5 271l91 500h137l-131 -742q-28 -184 -29 -219
h-133q4 57 25 193h-5q-119 -220 -333 -220q-127 0 -204 67t-93 173h-4q-133 -240 -355 -240q-147 0 -227 84.5t-80 216.5q0 48 12 101z" />
    <glyph glyph-name="uni0561055C.liga" unicode="&#x561;&#x55c;" horiz-adv-x="1812" 
d="M1614 1192h-129q11 60 31.5 99t55.5 63t72 36.5t99 24.5q99 19 142 49t52 86h129q-11 -64 -36 -108t-69 -71t-88.5 -42t-113.5 -29q-77 -16 -106.5 -36.5t-38.5 -71.5zM141 375l103 586h137l-96 -545q-11 -64 -11 -107q0 -219 203 -219q129 0 218.5 107.5t121.5 283.5
l84 480h137l-96 -547q-6 -38 -10 -105q0 -219 203 -219q127 0 216.5 100t118.5 271l91 500h137l-131 -742q-28 -184 -29 -219h-133q4 57 25 193h-5q-119 -220 -333 -220q-127 0 -204 67t-93 173h-4q-133 -240 -355 -240q-147 0 -227 84.5t-80 216.5q0 48 12 101z" />
    <glyph glyph-name="uni0561055E.liga" unicode="&#x561;&#x55e;" horiz-adv-x="1812" 
d="M2109 1411q0 -93 -72.5 -149t-176.5 -56l18 117q36 0 64 22t28 56q0 32 -25 50.5t-73 18.5q-102 0 -168.5 -77.5t-89.5 -198.5h-127q18 105 66.5 191.5t133.5 143t191 56.5q102 0 166.5 -46.5t64.5 -127.5zM141 375l103 586h137l-96 -545q-11 -64 -11 -107
q0 -219 203 -219q129 0 218.5 107.5t121.5 283.5l84 480h137l-96 -547q-6 -38 -10 -105q0 -219 203 -219q127 0 216.5 100t118.5 271l91 500h137l-131 -742q-28 -184 -29 -219h-133q4 57 25 193h-5q-119 -220 -333 -220q-127 0 -204 67t-93 173h-4q-133 -240 -355 -240
q-147 0 -227 84.5t-80 216.5q0 48 12 101z" />
    <glyph glyph-name="uni0561055F.liga" unicode="&#x561;&#x55f;" horiz-adv-x="1812" 
d="M1313 1313h-357q-100 0 -153 50.5t-53 123.5q0 97 75.5 153t186.5 68l-19 -111q-106 -20 -106 -96q0 -33 26 -53.5t78 -20.5h342zM141 375l103 586h137l-96 -545q-11 -64 -11 -107q0 -219 203 -219q129 0 218.5 107.5t121.5 283.5l84 480h137l-96 -547q-6 -38 -10 -105
q0 -219 203 -219q127 0 216.5 100t118.5 271l91 500h137l-131 -742q-28 -184 -29 -219h-133q4 57 25 193h-5q-119 -220 -333 -220q-127 0 -204 67t-93 173h-4q-133 -240 -355 -240q-147 0 -227 84.5t-80 216.5q0 48 12 101z" />
    <glyph glyph-name="uni0562055F.liga" unicode="&#x562;&#x55f;" horiz-adv-x="1177" 
d="M1040 1311h-356q-100 0 -153.5 50.5t-53.5 123.5q0 97 75.5 153t186.5 68l-18 -111q-50 -9 -78.5 -33.5t-28.5 -62.5q0 -33 26.5 -53.5t78.5 -20.5h342zM733 987q151 0 233.5 -85t82.5 -216q0 -44 -9 -100l-36 -209h-140l31 168q10 58 10 106q0 97 -51.5 158t-161.5 61
q-130 0 -225.5 -100.5t-124.5 -269.5l-68 -385h756l-20 -115h-756l-102 -588h-138l232 1329q24 157 28 220h134q-16 -138 -27 -193h4q56 101 147.5 160t200.5 59z" />
    <glyph glyph-name="uni0563055F.liga" unicode="&#x563;&#x55f;" horiz-adv-x="1452" 
d="M1051 1311h-357q-100 0 -153.5 50.5t-53.5 123.5q0 97 76 153t187 68l-19 -111q-106 -20 -106 -96q0 -33 26 -53.5t78 -20.5h342zM991 115h363l-21 -115h-362l-105 -588h-135l105 588h-254q-218 0 -342.5 111t-124.5 297q0 160 73.5 292.5t201.5 207.5t282 75
q182 0 290.5 -94.5t108.5 -261.5q0 -66 -10 -117zM854 115l72 401q8 44 8 94q0 117 -74.5 188.5t-204.5 71.5q-120 0 -212.5 -61.5t-139.5 -162.5t-47 -224q0 -143 86 -225t258 -82h254z" />
    <glyph glyph-name="uni0564055F.liga" unicode="&#x564;&#x55f;" horiz-adv-x="1400" 
d="M1108 1313h-354q-100 0 -149 49.5t-46 122.5q7 98 87 154.5t190 68.5l-27 -111q-108 -21 -111 -98q-3 -32 22 -53t77 -21h338zM956 115h351l-21 -115h-350l-105 -588h-137l201 1133q10 58 10 106q0 97 -51.5 158t-161.5 61q-130 0 -225.5 -100.5t-124.5 -269.5l-88 -500
h-137l129 741q24 157 28 220h134q-16 -138 -27 -193h4q56 101 147.5 160t200.5 59q151 0 233.5 -85t82.5 -216q0 -44 -9 -100z" />
    <glyph glyph-name="uni05650582055F.liga" unicode="&#x565;&#x582;&#x55f;" horiz-adv-x="1343" 
d="M1098 1765h-357q-100 0 -153 50.5t-53 123.5q0 97 76 153.5t186 68.5l-19 -111q-106 -20 -106 -96q0 -33 26 -53.5t78 -20.5h342zM436 -27q-144 0 -225.5 85t-81.5 216q0 48 12 101l207 1173h137l-200 -1132q-11 -64 -11 -107q0 -99 49 -159t154 -60q128 0 218 101
t120 270l88 500h139l-170 -961h-139l41 193h-4q-57 -105 -142 -162.5t-192 -57.5zM1223 0h-351l21 115h352z" />
    <glyph glyph-name="uni0565055B.liga" unicode="&#x565;&#x55b;" horiz-adv-x="1144" 
d="M348 1548h137l-104 -587h727l-23 -115h-725l-75 -430q-11 -64 -11 -107q0 -99 49 -159t154 -60q128 0 217.5 99.5t120.5 271.5l31 166h137l-72 -408q-24 -125 -30 -219h-131q9 113 24 193h-4q-57 -105 -142 -162.5t-192 -57.5q-144 0 -225.5 85t-81.5 216q0 48 12 101z
M1208 1548h164l-330 -356h-129z" />
    <glyph glyph-name="uni0565055C.liga" unicode="&#x565;&#x55c;" horiz-adv-x="1144" 
d="M1374 1550h129q-11 -64 -36 -108t-69 -71t-88.5 -42t-113.5 -29q-77 -16 -106.5 -36.5t-38.5 -71.5h-129q11 60 31.5 99t55.5 63t72 36.5t99 24.5q99 19 142 49t52 86zM348 1548h137l-104 -587h727l-23 -115h-725l-75 -430q-11 -64 -11 -107q0 -99 49 -159t154 -60
q128 0 217.5 99.5t120.5 271.5l31 166h137l-72 -408q-24 -125 -30 -219h-131q9 113 24 193h-4q-57 -105 -142 -162.5t-192 -57.5q-144 0 -225.5 85t-81.5 216q0 48 12 101z" />
    <glyph glyph-name="uni0565055E.liga" unicode="&#x565;&#x55e;" horiz-adv-x="1144" 
d="M1315 1585q102 0 166.5 -46.5t64.5 -127.5q0 -93 -73 -149t-177 -56l19 117q36 0 64 22t28 56q0 32 -25 50.5t-73 18.5q-102 0 -168.5 -77.5t-89.5 -198.5h-127q18 105 66.5 191.5t133.5 143t191 56.5zM348 1548h137l-104 -587h727l-23 -115h-725l-75 -430
q-11 -64 -11 -107q0 -99 49 -159t154 -60q128 0 217.5 99.5t120.5 271.5l31 166h137l-72 -408q-24 -125 -30 -219h-131q9 113 24 193h-4q-57 -105 -142 -162.5t-192 -57.5q-144 0 -225.5 85t-81.5 216q0 48 12 101z" />
    <glyph glyph-name="uni0565055F.liga" unicode="&#x565;&#x55f;" horiz-adv-x="1144" 
d="M1081 1778h-356q-100 0 -153.5 50.5t-53.5 123.5q0 97 75.5 153t186.5 68l-18 -111q-50 -9 -78.5 -33.5t-28.5 -62.5q0 -33 26.5 -53.5t78.5 -20.5h342zM1085 846h-725l-75 -430q-11 -64 -11 -107q0 -99 49 -159t154 -60q128 0 217.5 99.5t120.5 271.5l31 166h137
l-72 -408q-24 -125 -30 -219h-131q9 113 24 193h-4q-57 -105 -142 -162.5t-192 -57.5q-144 0 -225.5 85t-81.5 216q0 48 12 101l207 1173h137l-104 -587h727z" />
    <glyph glyph-name="uni0566055F.liga" unicode="&#x566;&#x55f;" horiz-adv-x="1472" 
d="M1030 1311h-356q-100 0 -153.5 50.5t-53.5 123.5q0 97 75.5 153t186.5 68l-18 -111q-50 -9 -78.5 -33.5t-28.5 -62.5q0 -33 26.5 -53.5t78.5 -20.5h342zM1067 961h133q-37 -142 -53 -250l-207 -1184h-2l-20 -115h-138l142 774h-7q-54 -95 -155.5 -154t-222.5 -59
q-196 0 -310 116t-114 304q0 162 68 297t194 216t284 81q122 0 220 -60.5t139 -164.5h6q30 155 43 199zM565 88q115 0 212 65.5t151.5 173.5t54.5 232q0 136 -86 225.5t-225 89.5q-123 0 -219.5 -64t-147.5 -170.5t-51 -233.5q0 -138 81.5 -228t229.5 -90zM920 -588l20 115
h350l-20 -115h-350z" />
    <glyph glyph-name="uni0567055F.liga" unicode="&#x567;&#x55f;" horiz-adv-x="1089" 
d="M1053 1778h-357q-100 0 -153.5 50.5t-53.5 123.5q0 97 76 153t187 68l-19 -111q-106 -20 -106 -96q0 -33 26 -53.5t78 -20.5h342zM389 1548h139l-104 -587h643l-20 -115h-644l-124 -701q1 0 28 7t35.5 9t34.5 8t42.5 8.5t40.5 6t47 5t46 1.5q143 0 229 -66t86 -179
q0 -156 -120.5 -250t-303.5 -96l21 114q115 2 189.5 58.5t74.5 154.5q0 73 -52 111.5t-147 38.5q-29 0 -59 -2.5t-64 -8t-58 -10t-64 -14.5l-56 -14t-60 -16.5t-52 -14.5z" />
    <glyph glyph-name="uni0568055B.liga" unicode="&#x568;&#x55b;" horiz-adv-x="1198" 
d="M1315 1548l-330 -356h-129l295 356h164zM152 -588h-138l232 1329q24 157 28 220h134q-16 -138 -27 -193h4q56 101 147.5 160t200.5 59q151 0 233.5 -85t82.5 -216q0 -44 -9 -100l-104 -586h-137l96 545q10 58 10 106q0 97 -51.5 158t-161.5 61q-130 0 -225.5 -100.5
t-124.5 -269.5zM152 -588l20 115h682l-23 -115h-679z" />
    <glyph glyph-name="uni0568055C.liga" unicode="&#x568;&#x55c;" horiz-adv-x="1198" 
d="M993 1192h-129q11 60 31.5 99t55.5 63t72 36.5t99 24.5q99 19 142.5 49t52.5 86h129q-11 -64 -36 -108t-69 -71t-88.5 -42t-113.5 -29q-77 -16 -107 -36.5t-39 -71.5zM152 -588h-138l232 1329q24 157 28 220h134q-16 -138 -27 -193h4q56 101 147.5 160t200.5 59
q151 0 233.5 -85t82.5 -216q0 -44 -9 -100l-104 -586h-137l96 545q10 58 10 106q0 97 -51.5 158t-161.5 61q-130 0 -225.5 -100.5t-124.5 -269.5zM152 -588l20 115h682l-23 -115h-679z" />
    <glyph glyph-name="uni0568055E.liga" unicode="&#x568;&#x55e;" horiz-adv-x="1198" 
d="M1489 1411q0 -93 -73 -149t-177 -56l18 117q36 0 64.5 22t28.5 56q0 32 -25.5 50.5t-73.5 18.5q-102 0 -168.5 -77.5t-89.5 -198.5h-127q18 105 66.5 191.5t133.5 143t191 56.5q103 0 167.5 -46.5t64.5 -127.5zM152 -588h-138l232 1329q24 157 28 220h134
q-16 -138 -27 -193h4q56 101 147.5 160t200.5 59q151 0 233.5 -85t82.5 -216q0 -44 -9 -100l-104 -586h-137l96 545q10 58 10 106q0 97 -51.5 158t-161.5 61q-130 0 -225.5 -100.5t-124.5 -269.5zM152 -588l20 115h682l-23 -115h-679z" />
    <glyph glyph-name="uni0568055F.liga" unicode="&#x568;&#x55f;" horiz-adv-x="1198" 
d="M1098 1313h-357q-100 0 -153 50.5t-53 123.5q0 97 75.5 153t186.5 68l-19 -111q-106 -20 -106 -96q0 -33 26 -53.5t78 -20.5h342zM152 -588h-138l232 1329q24 157 28 220h134q-16 -138 -27 -193h4q56 101 147.5 160t200.5 59q151 0 233.5 -85t82.5 -216q0 -44 -9 -100
l-104 -586h-137l96 545q10 58 10 106q0 97 -51.5 158t-161.5 61q-130 0 -225.5 -100.5t-124.5 -269.5zM152 -588l20 115h682l-23 -115h-679z" />
    <glyph glyph-name="uni0569055F.liga" unicode="&#x569;&#x55f;" horiz-adv-x="1370" 
d="M1147 1313h-356q-100 0 -153.5 50.5t-53.5 123.5q0 97 75.5 153t186.5 68l-19 -111q-106 -20 -106 -96q0 -33 26 -53.5t78 -20.5h342zM244 737l-230 -1325h138l184 1077q17 98 61 174.5t103 120.5t122.5 66t127.5 22q146 0 233 -94.5t82 -242.5q-143 10 -231 10
q-182 0 -287 -83.5t-105 -228.5q0 -113 87.5 -187.5t211.5 -74.5q168 0 288 115t159 320l153 -13l21 115l-158 14q4 104 -26.5 192.5t-86.5 147.5t-133.5 92t-166.5 33q-125 0 -231 -60t-175 -159h-4q20 101 27 193h-134q-14 -141 -30 -224zM756 84q-73 0 -122.5 42
t-49.5 114q0 188 239 188q97 0 226 -12q-31 -166 -109.5 -249t-183.5 -83z" />
    <glyph glyph-name="uni056A055F.liga" unicode="&#x56a;&#x55f;" horiz-adv-x="1439" 
d="M1098 1796h-357q-100 0 -153 50.5t-53 123.5q0 97 75.5 153t186.5 68l-19 -110q-106 -20 -106 -96q0 -33 26 -53.5t78 -20.5h342zM1141 961h358l-20 -115h-357l-73 -430q-37 -218 -161 -330.5t-327 -112.5q-190 0 -319 128t-129 307q0 258 159.5 405.5t429.5 147.5h302
l100 589h137zM578 86q77 1 136 24t98 67.5t62.5 102t36.5 134.5l74 432h-303q-205 0 -316.5 -112t-111.5 -312q0 -142 93.5 -239.5t230.5 -96.5z" />
    <glyph glyph-name="uni056B055B.liga" unicode="&#x56b;&#x55b;" horiz-adv-x="1204" 
d="M20 -588l375 2136h140l-146 -780h4q55 101 147 160t201 59q150 0 233 -85.5t83 -215.5q0 -54 -10 -100l-103 -586h-139l96 545q12 70 12 106q0 98 -52 158.5t-163 60.5q-129 0 -225 -100.5t-125 -269.5l-190 -1088h-138zM1327 1548l-330 -356h-129l295 356h164z" />
    <glyph glyph-name="uni056B055C.liga" unicode="&#x56b;&#x55c;" horiz-adv-x="1204" 
d="M1006 1192h-129q11 60 31.5 99t55.5 63t72 36.5t99 24.5q99 19 142 49t52 86h129q-11 -64 -36 -108t-69 -71t-88.5 -42t-113.5 -29q-77 -16 -106.5 -36.5t-38.5 -71.5zM20 -588l375 2136h140l-146 -780h4q55 101 147 160t201 59q150 0 233 -85.5t83 -215.5
q0 -54 -10 -100l-103 -586h-139l96 545q12 70 12 106q0 98 -52 158.5t-163 60.5q-129 0 -225 -100.5t-125 -269.5l-190 -1088h-138z" />
    <glyph glyph-name="uni056B055E.liga" unicode="&#x56b;&#x55e;" horiz-adv-x="1204" 
d="M1501 1411q0 -93 -73 -149t-177 -56l19 117q36 0 64 22t28 56q0 32 -25 50.5t-73 18.5q-102 0 -168.5 -77.5t-89.5 -198.5h-127q18 105 66.5 191.5t133.5 143t191 56.5q102 0 166.5 -46.5t64.5 -127.5zM20 -588l375 2136h140l-146 -780h4q55 101 147 160t201 59
q150 0 233 -85.5t83 -215.5q0 -54 -10 -100l-103 -586h-139l96 545q12 70 12 106q0 98 -52 158.5t-163 60.5q-129 0 -225 -100.5t-125 -269.5l-190 -1088h-138z" />
    <glyph glyph-name="uni056B055F.liga" unicode="&#x56b;&#x55f;" horiz-adv-x="1204" 
d="M1063 1796h-356q-100 0 -153.5 50.5t-53.5 123.5q0 97 75.5 153t186.5 68l-19 -110q-106 -20 -106 -96q0 -33 26 -53.5t78 -20.5h342zM20 -588l375 2136h140l-146 -780h4q55 101 147 160t201 59q150 0 233 -85.5t83 -215.5q0 -54 -10 -100l-103 -586h-139l96 545
q12 70 12 106q0 98 -52 158.5t-163 60.5q-129 0 -225 -100.5t-125 -269.5l-190 -1088h-138z" />
    <glyph glyph-name="uni056C055F.liga" unicode="&#x56c;&#x55f;" horiz-adv-x="765" 
d="M539 1425h342l-21 -114h-356q-100 0 -153.5 50.5t-53.5 123.5q0 97 76.5 153t187.5 68l-20 -111q-105 -20 -105 -96q0 -33 26 -53.5t77 -20.5zM309 961h137l-251 -1434h350l-21 -115h-489z" />
    <glyph glyph-name="uni056D055F.liga" unicode="&#x56d;&#x55f;" horiz-adv-x="1787" 
d="M1389 1796h-357q-100 0 -153.5 50.5t-53.5 123.5q0 97 75.5 153t186.5 68l-18 -110q-106 -20 -106 -96q0 -33 26 -53.5t78 -20.5h342zM12 -588l377 2136h137l-143 -776h4q46 90 133.5 152.5t190.5 62.5q114 0 185 -66t71 -165q0 -20 -9 -90l-40 -248q-11 -64 -11 -109
q0 -99 49 -159t154 -60q128 0 217.5 99.5t120.5 271.5l88 500h137l-131 -742q-26 -170 -29 -219h-133q7 85 27 193h-4q-122 -220 -336 -220q-143 0 -224 85t-81 216q0 45 10 103l39 215q14 89 14 123q0 68 -40.5 111.5t-120.5 43.5q-114 0 -204 -100t-118 -272l-190 -1086
h-140z" />
    <glyph glyph-name="uni056E055F.liga" unicode="&#x56e;&#x55f;" horiz-adv-x="1251" 
d="M1116 1796h-356q-100 0 -153.5 50.5t-53.5 123.5q0 97 75.5 153t186.5 68l-18 -110q-50 -9 -78.5 -33.5t-28.5 -62.5q0 -33 26.5 -53.5t78.5 -20.5h342zM979 961h299l-21 -115h-210q81 -162 81 -305q0 -159 -66.5 -288t-192 -205.5t-287.5 -76.5q-200 0 -333.5 121.5
t-133.5 308.5q0 118 43.5 221t121.5 178t192 118t249 43h104q-84 126 -178.5 252t-148.5 190l170 145l77 -86l-77 -67q204 -262 311 -434zM989 528q0 144 -94 318h-182q-221 0 -340 -120.5t-119 -311.5q0 -139 94 -232.5t242 -93.5q176 0 287.5 127t111.5 313z" />
    <glyph glyph-name="uni056F055F.liga" unicode="&#x56f;&#x55f;" horiz-adv-x="1169" 
d="M1036 1796h-356q-100 0 -153.5 50.5t-53.5 123.5q0 97 75.5 153t186.5 68l-18 -110q-50 -9 -78.5 -33.5t-28.5 -62.5q0 -33 26.5 -53.5t78.5 -20.5h342zM141 375l209 1173h135l-200 -1132q-11 -64 -11 -107q0 -100 49.5 -159.5t157.5 -59.5q128 0 217.5 100t120.5 271
l92 500h136l-271 -1549h-137l135 781h-4q-119 -220 -330 -220q-147 0 -229 85t-82 216q0 48 12 101z" />
    <glyph glyph-name="uni0570055F.liga" unicode="&#x570;&#x55f;" horiz-adv-x="1150" 
d="M1096 1812h-357q-100 0 -153.5 51t-53.5 124q0 97 76 153t187 68l-19 -111q-106 -20 -106 -96q0 -33 26 -53.5t78 -20.5h342zM926 0h-138l66 367q10 58 10 106q0 98 -55 158.5t-164 60.5q-132 0 -231.5 -100.5t-124.5 -251.5l-139 2l108 614q55 316 195.5 469.5
t392.5 153.5q99 0 187.5 -36.5t146.5 -92.5l-101 -102q-107 114 -252 114q-99 0 -173.5 -35t-125.5 -105t-83 -160.5t-54 -215.5l-57 -346h4q54 93 147 151t201 58q153 0 237.5 -82.5t84.5 -216.5q0 -45 -11 -102z" />
    <glyph glyph-name="uni0571055F.liga" unicode="&#x571;&#x55f;" horiz-adv-x="1208" 
d="M1069 1796h-356q-100 0 -153.5 50.5t-53.5 123.5q0 97 75.5 153t186.5 68l-18 -110q-50 -9 -78.5 -33.5t-28.5 -62.5q0 -33 26.5 -53.5t78.5 -20.5h342zM481 -31q-103 0 -190 37t-143 115.5t-56 185.5q0 57 13.5 110t34.5 95.5t58 86t71 75t87.5 69.5t94 64t102.5 63
q26 15 68.5 40t65 38.5t56.5 34.5t53 33.5t43 30t36.5 30t25.5 27t18 27.5t5 26q0 11 -3 20t-10.5 16t-16 12.5t-23.5 10t-28.5 8t-36 8t-40 7t-47 7.5t-51.5 9q-144 24 -208.5 65t-64.5 103q0 48 30.5 82.5t84.5 67.5l74 -84q-1 0 -6 -3t-6.5 -3.5t-6.5 -3.5t-7 -4t-6 -4
t-5.5 -5.5t-4.5 -5.5t-4 -6.5t-2 -7.5t-1 -8q0 -29 48 -44.5t161 -35.5q16 -3 24 -4q48 -8 80 -15t69.5 -17.5t61 -23.5t44.5 -31t30.5 -42t9.5 -54q0 -65 -45.5 -124t-138.5 -129l211 -918h-140q-8 48 -26 123q-54 -34 -84 -51t-92.5 -46t-128.5 -43t-138 -14zM500 86
q60 0 117.5 12.5t113 38t85 42t79.5 46.5l-141 621q-6 -3 -61 -34t-79 -46q-58 -35 -90 -55t-79 -52t-73 -56t-57 -58t-46.5 -66t-26.5 -72.5t-11 -84.5q0 -106 74.5 -171t194.5 -65z" />
    <glyph glyph-name="uni0572055F.liga" unicode="&#x572;&#x55f;" horiz-adv-x="1368" 
d="M1098 1313h-357q-100 0 -153 50.5t-53 123.5q0 97 75.5 153t186.5 68l-19 -111q-106 -20 -106 -96q0 -33 26 -53.5t78 -20.5h342zM852 -477v4h352l-22 -115h-488l201 1133q10 58 10 106q0 97 -51.5 158t-161.5 61q-130 0 -225.5 -100.5t-124.5 -269.5l-88 -500h-137
l129 741q24 157 28 220h134q-16 -138 -27 -193h4q56 101 147.5 160t200.5 59q151 0 233.5 -85t82.5 -216q0 -44 -9 -100z" />
    <glyph glyph-name="uni0573055F.liga" unicode="&#x573;&#x55f;" horiz-adv-x="1165" 
d="M1061 1796h-356q-100 0 -153.5 50.5t-53.5 123.5q0 97 75.5 153t186.5 68l-19 -110q-106 -20 -106 -96q0 -33 26 -53.5t78 -20.5h342zM918 1573q207 0 325 -143l-90 -89q-108 117 -254 117q-152 0 -276.5 -132.5t-208.5 -346.5q25 2 71 2q277 0 417 -126t140 -351
q0 -83 -30.5 -259.5t-32.5 -244.5h-141q4 70 12 121h-4q-67 -62 -159 -106t-193 -44q-170 0 -255 100t-85 285q0 251 75 502q-54 -3 -112 -10l20 113q40 5 131 12q49 128 114.5 235t147 189.5t181 129t207.5 46.5zM461 868q-57 0 -88 -2q-80 -260 -80 -487q0 -137 58.5 -214
t176.5 -77q96 0 176.5 36.5t161.5 94.5q37 173 37 262q0 179 -111 283t-331 104z" />
    <glyph glyph-name="uni05740565055B.liga" unicode="&#x574;&#x565;&#x55b;" horiz-adv-x="2338" 
d="M1655 1495l-105 -592l11 58h741l-23 -115h-739l-76 -430q-10 -58 -10 -107q0 -99 49 -159t154 -60q128 0 217.5 99.5t120.5 271.5l30 166h138l-72 -408q-28 -184 -29 -219h-133q4 57 25 193h-4q-119 -220 -334 -220q-144 0 -224.5 85t-80.5 216q0 43 10 101l176 1016
q-359 65 -455 65q-64 0 -108.5 -41t-44.5 -102q0 -30 15 -59.5t36 -57t42.5 -59.5t36.5 -79t15 -102q0 -36 -10 -94l-113 -643q-24 -125 -30 -219h-131q9 113 24 193h-4q-57 -105 -142 -162.5t-192 -57.5q-144 0 -225.5 85t-81.5 216q0 48 12 101l103 586h137l-96 -545
q-11 -64 -11 -107q0 -99 49 -159t154 -60q128 0 217.5 99.5t120.5 271.5l74 407q6 38 6 70q0 49 -15 91t-36 73t-42.5 61t-36.5 67.5t-15 78.5q0 116 83.5 190t210.5 74q133 0 611 -78zM2394 1548h164l-330 -356h-129z" />
    <glyph glyph-name="uni05740565055C.liga" unicode="&#x574;&#x565;&#x55c;" horiz-adv-x="2338" 
d="M1655 1495l-105 -592l11 58h741l-23 -115h-739l-76 -430q-10 -58 -10 -107q0 -99 49 -159t154 -60q128 0 217.5 99.5t120.5 271.5l30 166h138l-72 -408q-28 -184 -29 -219h-133q4 57 25 193h-4q-119 -220 -334 -220q-144 0 -224.5 85t-80.5 216q0 43 10 101l176 1016
q-359 65 -455 65q-64 0 -108.5 -41t-44.5 -102q0 -30 15 -59.5t36 -57t42.5 -59.5t36.5 -79t15 -102q0 -36 -10 -94l-113 -643q-24 -125 -30 -219h-131q9 113 24 193h-4q-57 -105 -142 -162.5t-192 -57.5q-144 0 -225.5 85t-81.5 216q0 48 12 101l103 586h137l-96 -545
q-11 -64 -11 -107q0 -99 49 -159t154 -60q128 0 217.5 99.5t120.5 271.5l74 407q6 38 6 70q0 49 -15 91t-36 73t-42.5 61t-36.5 67.5t-15 78.5q0 116 83.5 190t210.5 74q133 0 611 -78zM2560 1550h129q-11 -64 -36 -108t-69 -71t-88.5 -42t-113.5 -29q-77 -16 -107 -36.5
t-39 -71.5h-129q11 60 31.5 99t55.5 63t72 36.5t99 24.5q99 19 142.5 49t52.5 86z" />
    <glyph glyph-name="uni05740565055E.liga" unicode="&#x574;&#x565;&#x55e;" horiz-adv-x="2338" 
d="M2499 1585q102 0 166.5 -46.5t64.5 -127.5q0 -93 -73 -149t-177 -56l19 117q36 0 64 22t28 56q0 32 -25.5 50.5t-73.5 18.5q-102 0 -168.5 -77.5t-89.5 -198.5h-127q13 78 45 147t80.5 124t117.5 87.5t149 32.5zM1655 1495l-105 -592l11 58h741l-23 -115h-739l-76 -430
q-10 -58 -10 -107q0 -99 49 -159t154 -60q128 0 217.5 99.5t120.5 271.5l30 166h138l-72 -408q-28 -184 -29 -219h-133q4 57 25 193h-4q-119 -220 -334 -220q-144 0 -224.5 85t-80.5 216q0 43 10 101l176 1016q-359 65 -455 65q-64 0 -108.5 -41t-44.5 -102q0 -30 15 -59.5
t36 -57t42.5 -59.5t36.5 -79t15 -102q0 -36 -10 -94l-113 -643q-24 -125 -30 -219h-131q9 113 24 193h-4q-57 -105 -142 -162.5t-192 -57.5q-144 0 -225.5 85t-81.5 216q0 48 12 101l103 586h137l-96 -545q-11 -64 -11 -107q0 -99 49 -159t154 -60q128 0 217.5 99.5
t120.5 271.5l74 407q6 38 6 70q0 49 -15 91t-36 73t-42.5 61t-36.5 67.5t-15 78.5q0 116 83.5 190t210.5 74q133 0 611 -78z" />
    <glyph glyph-name="uni05740565055F.liga" unicode="&#x574;&#x565;&#x55f;" horiz-adv-x="2338" 
d="M1671 1806h-356q-100 0 -153.5 50.5t-53.5 123.5q0 97 76 153.5t186 68.5l-18 -111q-50 -9 -78.5 -33.5t-28.5 -62.5q0 -33 26.5 -53.5t78.5 -20.5h342zM2279 846h-739l-76 -430q-10 -58 -10 -107q0 -99 49 -159t154 -60q128 0 217.5 99.5t120.5 271.5l30 166h138
l-72 -408q-28 -184 -29 -219h-133q4 57 25 193h-4q-119 -220 -334 -220q-144 0 -224.5 85t-80.5 216q0 43 10 101l176 1016q-359 65 -455 65q-64 0 -108.5 -41t-44.5 -102q0 -30 15 -59.5t36 -57t42.5 -59.5t36.5 -79t15 -102q0 -36 -10 -94l-113 -643q-24 -125 -30 -219
h-131q9 113 24 193h-4q-57 -105 -142 -162.5t-192 -57.5q-144 0 -225.5 85t-81.5 216q0 48 12 101l103 586h137l-96 -545q-11 -64 -11 -107q0 -99 49 -159t154 -60q128 0 217.5 99.5t120.5 271.5l74 407q6 38 6 70q0 49 -15 91t-36 73t-42.5 61t-36.5 67.5t-15 78.5
q0 116 83.5 190t210.5 74q133 0 611 -78l-105 -592l11 58h741z" />
    <glyph glyph-name="uni05740567.liga" unicode="&#x574;&#x567;" horiz-adv-x="2248" 
d="M2226 961l-20 -115h-656l-125 -701q172 45 275 45q143 0 229 -66t86 -179q0 -156 -120.5 -250t-303.5 -96l19 114q116 2 191 58.5t75 154.5q0 73 -52 111.5t-147 38.5q-29 0 -59 -2.5t-64 -8t-58 -10t-64 -14.5l-56 -14t-60 -16.5t-52 -14.5l243 1393q-12 2 -97 16.5
t-116 19.5t-92.5 14.5t-98 13t-61.5 3.5q-63 0 -108 -41t-45 -102q0 -30 15 -59.5t36 -57t42.5 -59.5t36.5 -79t15 -102q0 -36 -10 -94l-113 -643q-24 -125 -30 -219h-131q9 113 24 193h-4q-57 -105 -142 -162.5t-192 -57.5q-144 0 -225.5 85t-81.5 216q0 48 12 101l103 586
h137l-96 -545q-11 -64 -11 -107q0 -99 49 -159t154 -60q128 0 217.5 99.5t120.5 271.5l74 407q6 38 6 70q0 49 -15 91t-36 73t-42.5 61t-36.5 67.5t-15 78.5q0 116 83.5 190t210.5 74q39 0 130 -10.5t163.5 -20.5t192.5 -27.5t135 -19.5l-94 -534h655z" />
    <glyph glyph-name="uni05740567055F.liga" unicode="&#x574;&#x567;&#x55f;" horiz-adv-x="2248" 
d="M1696 1800h-357q-100 0 -153 50.5t-53 123.5q0 97 75.5 153t186.5 68l-19 -110q-106 -20 -106 -96q0 -33 26 -53.5t78 -20.5h342zM2226 961l-20 -115h-656l-125 -701q172 45 275 45q143 0 229 -66t86 -179q0 -156 -120.5 -250t-303.5 -96l19 114q116 2 191 58.5t75 154.5
q0 73 -52 111.5t-147 38.5q-29 0 -59 -2.5t-64 -8t-58 -10t-64 -14.5l-56 -14t-60 -16.5t-52 -14.5l243 1393q-12 2 -97 16.5t-116 19.5t-92.5 14.5t-98 13t-61.5 3.5q-63 0 -108 -41t-45 -102q0 -30 15 -59.5t36 -57t42.5 -59.5t36.5 -79t15 -102q0 -36 -10 -94l-113 -643
q-24 -125 -30 -219h-131q9 113 24 193h-4q-57 -105 -142 -162.5t-192 -57.5q-144 0 -225.5 85t-81.5 216q0 48 12 101l103 586h137l-96 -545q-11 -64 -11 -107q0 -99 49 -159t154 -60q128 0 217.5 99.5t120.5 271.5l74 407q6 38 6 70q0 49 -15 91t-36 73t-42.5 61
t-36.5 67.5t-15 78.5q0 116 83.5 190t210.5 74q39 0 130 -10.5t163.5 -20.5t192.5 -27.5t135 -19.5l-94 -534h655z" />
    <glyph glyph-name="uni0574056B055B.liga" unicode="&#x574;&#x56b;&#x55b;" horiz-adv-x="2347" 
d="M1300 -588h-137l346 1977q-397 67 -467 67q-63 0 -108 -41t-45 -102q0 -30 15 -59.5t36 -57t42.5 -59.5t36.5 -79t15 -102q0 -36 -10 -94l-113 -643q-24 -125 -30 -219h-131q9 113 24 193h-4q-57 -105 -142 -162.5t-192 -57.5q-144 0 -225.5 85t-81.5 216q0 48 12 101
l103 586h137l-96 -545q-11 -64 -11 -107q0 -99 49 -159t154 -60q128 0 217.5 99.5t120.5 271.5l74 407q6 38 6 70q0 49 -15 91t-36 73t-42.5 61t-36.5 67.5t-15 78.5q0 116 83.5 190t210.5 74q31 0 91 -6t138.5 -16.5t142.5 -19.5t145.5 -21t105.5 -15l-135 -727h4
q55 101 147 160t201 59q150 0 233 -85.5t83 -215.5q0 -49 -11 -100l-102 -586h-139l96 545q12 70 12 106q0 98 -52 158.5t-163 60.5q-129 0 -225 -100.5t-125 -269.5zM2533 1548l-329 -356h-129l295 356h163z" />
    <glyph glyph-name="uni0574056B055C.liga" unicode="&#x574;&#x56b;&#x55c;" horiz-adv-x="2347" 
d="M1300 -588h-137l346 1977q-397 67 -467 67q-63 0 -108 -41t-45 -102q0 -30 15 -59.5t36 -57t42.5 -59.5t36.5 -79t15 -102q0 -36 -10 -94l-113 -643q-24 -125 -30 -219h-131q9 113 24 193h-4q-57 -105 -142 -162.5t-192 -57.5q-144 0 -225.5 85t-81.5 216q0 48 12 101
l103 586h137l-96 -545q-11 -64 -11 -107q0 -99 49 -159t154 -60q128 0 217.5 99.5t120.5 271.5l74 407q6 38 6 70q0 49 -15 91t-36 73t-42.5 61t-36.5 67.5t-15 78.5q0 116 83.5 190t210.5 74q31 0 91 -6t138.5 -16.5t142.5 -19.5t145.5 -21t105.5 -15l-135 -727h4
q55 101 147 160t201 59q150 0 233 -85.5t83 -215.5q0 -49 -11 -100l-102 -586h-139l96 545q12 70 12 106q0 98 -52 158.5t-163 60.5q-129 0 -225 -100.5t-125 -269.5zM2212 1192h-129q11 60 31.5 99t55.5 63t72 36.5t99 24.5q99 19 142 49t52 86h129q-11 -64 -36 -108
t-69 -71t-88.5 -42t-113.5 -29q-77 -16 -106.5 -36.5t-38.5 -71.5z" />
    <glyph glyph-name="uni0574056B055E.liga" unicode="&#x574;&#x56b;&#x55e;" horiz-adv-x="2347" 
d="M2707 1411q0 -93 -72.5 -149t-176.5 -56l18 117q36 0 64 22t28 56q0 32 -25 50.5t-73 18.5q-102 0 -168.5 -77.5t-89.5 -198.5h-127q18 105 66.5 191.5t133.5 143t191 56.5q102 0 166.5 -46.5t64.5 -127.5zM1300 -588h-137l346 1977q-397 67 -467 67q-63 0 -108 -41
t-45 -102q0 -30 15 -59.5t36 -57t42.5 -59.5t36.5 -79t15 -102q0 -36 -10 -94l-113 -643q-24 -125 -30 -219h-131q9 113 24 193h-4q-57 -105 -142 -162.5t-192 -57.5q-144 0 -225.5 85t-81.5 216q0 48 12 101l103 586h137l-96 -545q-11 -64 -11 -107q0 -99 49 -159t154 -60
q128 0 217.5 99.5t120.5 271.5l74 407q6 38 6 70q0 49 -15 91t-36 73t-42.5 61t-36.5 67.5t-15 78.5q0 116 83.5 190t210.5 74q31 0 91 -6t138.5 -16.5t142.5 -19.5t145.5 -21t105.5 -15l-135 -727h4q55 101 147 160t201 59q150 0 233 -85.5t83 -215.5q0 -49 -11 -100
l-102 -586h-139l96 545q12 70 12 106q0 98 -52 158.5t-163 60.5q-129 0 -225 -100.5t-125 -269.5z" />
    <glyph glyph-name="uni0574056B055F.liga" unicode="&#x574;&#x56b;&#x55f;" horiz-adv-x="2347" 
d="M1610 1806h-357q-100 0 -153 50.5t-53 123.5q0 97 76 153.5t186 68.5l-19 -111q-106 -20 -106 -96q0 -33 26 -53.5t78 -20.5h342zM1300 -588h-137l346 1977q-397 67 -467 67q-63 0 -108 -41t-45 -102q0 -30 15 -59.5t36 -57t42.5 -59.5t36.5 -79t15 -102q0 -36 -10 -94
l-113 -643q-24 -125 -30 -219h-131q9 113 24 193h-4q-57 -105 -142 -162.5t-192 -57.5q-144 0 -225.5 85t-81.5 216q0 48 12 101l103 586h137l-96 -545q-11 -64 -11 -107q0 -99 49 -159t154 -60q128 0 217.5 99.5t120.5 271.5l74 407q6 38 6 70q0 49 -15 91t-36 73t-42.5 61
t-36.5 67.5t-15 78.5q0 116 83.5 190t210.5 74q31 0 91 -6t138.5 -16.5t142.5 -19.5t145.5 -21t105.5 -15l-135 -727h4q55 101 147 160t201 59q150 0 233 -85.5t83 -215.5q0 -49 -11 -100l-102 -586h-139l96 545q12 70 12 106q0 98 -52 158.5t-163 60.5q-129 0 -225 -100.5
t-125 -269.5z" />
    <glyph glyph-name="uni0574056D055F.liga" unicode="&#x574;&#x56d;&#x55f;" horiz-adv-x="2938" 
d="M1888 1800h-356q-100 0 -153.5 50.5t-53.5 123.5q0 97 75.5 153t186.5 68l-18 -110q-50 -9 -78.5 -33.5t-28.5 -62.5q0 -33 26.5 -53.5t78.5 -20.5h342zM1303 -588h-140l346 1977q-392 67 -467 67q-63 0 -108 -41t-45 -102q0 -30 15 -59.5t36 -57t42.5 -59.5t36.5 -79
t15 -102q0 -36 -10 -94l-113 -643q-24 -125 -30 -219h-131q9 113 24 193h-4q-57 -105 -142 -162.5t-192 -57.5q-144 0 -225.5 85t-81.5 216q0 48 12 101l103 586h137l-96 -545q-11 -64 -11 -107q0 -99 49 -159t154 -60q128 0 217.5 99.5t120.5 271.5l74 407q6 38 6 70
q0 49 -15 91t-36 73t-42.5 61t-36.5 67.5t-15 78.5q0 116 83.5 190t210.5 74q38 0 129.5 -10.5t163 -20t193.5 -27.5t135 -20l-131 -723h4q46 90 133.5 152.5t190.5 62.5q117 0 188.5 -65t71.5 -179q0 -31 -11 -92l-43 -233q-10 -44 -10 -109q0 -99 49 -159t154 -60
q128 0 217.5 99.5t120.5 271.5l88 500h137l-131 -742q-26 -170 -29 -219h-133q7 85 27 193h-4q-122 -220 -336 -220q-143 0 -224 85t-81 216q0 45 10 103l37 203q16 102 16 120q0 78 -40.5 124t-120.5 46q-113 0 -203.5 -99.5t-120.5 -272.5z" />
    <glyph glyph-name="uni0574056F.liga" unicode="&#x574;&#x56f;" horiz-adv-x="2340" 
d="M1948 -588h-138l136 781h-4q-119 -220 -330 -220q-147 0 -228 84.5t-81 216.5q0 43 10 101l180 1016q-380 65 -451 65q-63 0 -108 -41t-45 -102q0 -30 15 -59.5t36 -57t42.5 -59.5t36.5 -79t15 -102q0 -36 -10 -94l-113 -643q-24 -125 -30 -219h-131q9 113 24 193h-4
q-57 -105 -142 -162.5t-192 -57.5q-144 0 -225.5 85t-81.5 216q0 48 12 101l103 586h137l-96 -545q-11 -64 -11 -107q0 -99 49 -159t154 -60q128 0 217.5 99.5t120.5 271.5l74 407q6 38 6 70q0 49 -15 91t-36 73t-42.5 61t-36.5 67.5t-15 78.5q0 116 83.5 190t210.5 74
t605 -78l-193 -1079q-10 -58 -10 -107q0 -100 49.5 -159.5t157.5 -59.5q128 0 217.5 100t120.5 271l92 500h137z" />
    <glyph glyph-name="uni0574056F055F.liga" unicode="&#x574;&#x56f;&#x55f;" horiz-adv-x="2340" 
d="M1638 1806h-356q-100 0 -153.5 50.5t-53.5 123.5q0 97 76 153.5t186 68.5l-18 -111q-50 -9 -78.5 -33.5t-28.5 -62.5q0 -33 26.5 -53.5t78.5 -20.5h342zM1948 -588h-138l136 781h-4q-119 -220 -330 -220q-147 0 -228 84.5t-81 216.5q0 43 10 101l180 1016
q-380 65 -451 65q-63 0 -108 -41t-45 -102q0 -30 15 -59.5t36 -57t42.5 -59.5t36.5 -79t15 -102q0 -36 -10 -94l-113 -643q-24 -125 -30 -219h-131q9 113 24 193h-4q-57 -105 -142 -162.5t-192 -57.5q-144 0 -225.5 85t-81.5 216q0 48 12 101l103 586h137l-96 -545
q-11 -64 -11 -107q0 -99 49 -159t154 -60q128 0 217.5 99.5t120.5 271.5l74 407q6 38 6 70q0 49 -15 91t-36 73t-42.5 61t-36.5 67.5t-15 78.5q0 116 83.5 190t210.5 74t605 -78l-193 -1079q-10 -58 -10 -107q0 -100 49.5 -159.5t157.5 -59.5q128 0 217.5 100t120.5 271
l92 500h137z" />
    <glyph glyph-name="uni05740576055F.liga" unicode="&#x574;&#x576;&#x55f;" horiz-adv-x="2299" 
d="M1642 1806h-356q-100 0 -153.5 50.5t-53.5 123.5q0 97 76 153.5t186 68.5l-18 -111q-106 -20 -106 -96q0 -33 26 -53.5t78 -20.5h342zM436 -27q-144 0 -225.5 85t-81.5 216q0 48 12 101l103 586h137l-96 -545q-11 -64 -11 -107q0 -99 49 -159t154 -60q128 0 217.5 99.5
t120.5 271.5l74 407q6 38 6 70q0 49 -15 91t-36 73t-42.5 61t-36.5 67.5t-15 78.5q0 116 83.5 190t210.5 74q34 0 113.5 -10t149.5 -21.5t172.5 -28.5t132.5 -22l8 -41q-58 -41 -84.5 -80.5t-26.5 -91.5q0 -44 34 -71.5t102 -28.5h112q-5 -9 -52 -98.5t-61.5 -118
t-56 -110.5t-59.5 -127t-45.5 -111.5t-42 -120t-21.5 -101.5q-6 -25 -6 -74q0 -101 50 -164t157 -63q128 0 218.5 100t119.5 271l90 500h137l-131 -742q-28 -184 -29 -219h-133q7 85 27 193h-4q-122 -220 -336 -220q-150 0 -229.5 86.5t-79.5 221.5q0 47 6 84
q32 232 280 712q-77 0 -129.5 52t-52.5 133q0 73 53 141q-307 53 -385 53q-63 0 -108 -41t-45 -102q0 -30 15 -59.5t36 -57t42.5 -59.5t36.5 -79t15 -102q0 -36 -10 -94l-113 -643q-24 -125 -30 -219h-131q9 113 24 193h-4q-57 -105 -142 -162.5t-192 -57.5z" />
    <glyph glyph-name="uni0574055F.liga" unicode="&#x574;&#x55f;" horiz-adv-x="1159" 
d="M1014 1796h-357q-100 0 -153 50.5t-53 123.5q0 97 75.5 153t186.5 68l-19 -110q-106 -20 -106 -96q0 -33 26 -53.5t78 -20.5h342zM436 -27q-144 0 -225.5 85t-81.5 216q0 48 12 101l103 586h137l-96 -545q-11 -64 -11 -107q0 -99 49 -159t154 -60q128 0 217.5 99.5
t120.5 271.5l74 407q6 38 6 70q0 49 -15 91t-36 73t-42.5 61t-36.5 67.5t-15 78.5q0 116 83.5 190t210.5 74q115 0 183 -35l-53 -119q-56 37 -132 37q-63 0 -108 -41t-45 -102q0 -30 15 -59.5t36 -57t42.5 -59.5t36.5 -79t15 -102q0 -36 -10 -94l-113 -643
q-24 -125 -30 -219h-131q9 113 24 193h-4q-57 -105 -142 -162.5t-192 -57.5z" />
    <glyph glyph-name="uni0575055F.liga" unicode="&#x575;&#x55f;" horiz-adv-x="604" 
d="M659 1313h-356q-100 0 -153.5 50.5t-53.5 123.5q0 97 75.5 153t186.5 68l-18 -111q-50 -9 -78.5 -33.5t-28.5 -62.5q0 -33 26.5 -53.5t78.5 -20.5h340zM205 158l141 803h137l-141 -803q-8 -49 -8 -97q0 -71 28.5 -177t28.5 -160q0 -154 -98.5 -242t-257.5 -88
q-56 0 -96 8l20 117q50 -11 78 -11q100 0 157.5 59.5t57.5 149.5q0 42 -28.5 146.5t-28.5 183.5q0 60 10 111z" />
    <glyph glyph-name="uni0576055F.liga" unicode="&#x576;&#x55f;" horiz-adv-x="1144" 
d="M1055 1796h-357q-100 0 -153 50.5t-53 123.5q0 97 75.5 153t186.5 68l-19 -110q-106 -20 -106 -96q0 -33 26 -53.5t78 -20.5h342zM426 -27q-151 0 -231 86.5t-80 221.5q0 47 6 84q37 250 282 712q-79 0 -131.5 52t-52.5 133q0 46 15 88.5t45 81t60 67.5t75 66l78 -86
q-66 -55 -101 -100.5t-35 -100.5q0 -44 33 -71.5t100 -28.5h113q-4 -7 -45.5 -86t-53 -101t-49 -96.5t-53 -109.5t-44 -100t-42.5 -107t-29 -93.5t-22 -93.5q-6 -37 -6 -74q0 -100 50.5 -163.5t156.5 -63.5q129 0 219 99.5t121 271.5l88 500h137l-131 -742
q-26 -170 -29 -219h-133q7 85 27 193h-4q-122 -220 -334 -220z" />
    <glyph glyph-name="uni0577055F.liga" unicode="&#x577;&#x55f;" horiz-adv-x="989" 
d="M942 1311h-356q-100 0 -153.5 50.5t-53.5 123.5q0 97 75.5 153t186.5 68l-18 -111q-50 -9 -78.5 -33.5t-28.5 -62.5q0 -33 26.5 -53.5t78.5 -20.5h342zM174 745l-57 97q95 68 189.5 106.5t207.5 38.5q158 0 270.5 -92.5t112.5 -243.5q0 -67 -15 -127t-48.5 -114.5
t-69 -97.5t-96 -93.5t-108.5 -86t-126 -89.5q-17 -12 -66 -45.5t-68.5 -48t-62 -45t-62 -47.5t-52 -45t-47.5 -48t-32.5 -44.5t-24.5 -47.5t-7 -45q0 -98 142 -98l553 -2l-21 -115h-555q-127 0 -194.5 51t-67.5 148q0 30 9 61.5t22.5 59t38.5 59t46 55t57 55t60 51
t66.5 50.5t65 46.5t66.5 45.5t60 41q78 53 129.5 91.5t106 89t86 97t52 104t20.5 120.5q0 101 -73 168t-183 67q-88 0 -162.5 -32t-161.5 -95z" />
    <glyph glyph-name="uni0578055B.liga" unicode="&#x578;&#x55b;" horiz-adv-x="1196" 
d="M1313 1548l-330 -356h-129l295 356h164zM254 0h-137l129 741q24 157 28 220h134q-16 -138 -27 -193h4q56 101 147.5 160t200.5 59q151 0 233.5 -85t82.5 -216q0 -44 -9 -100l-104 -586h-137l96 545q10 58 10 106q0 97 -51.5 158t-161.5 61q-130 0 -225.5 -100.5
t-124.5 -269.5z" />
    <glyph glyph-name="uni0578055C.liga" unicode="&#x578;&#x55c;" horiz-adv-x="1196" 
d="M991 1192h-129q11 60 31.5 99t55.5 63t72 36.5t99 24.5q99 19 142.5 49t52.5 86h129q-11 -64 -36 -108t-69 -71t-88.5 -42t-113.5 -29q-77 -16 -107 -36.5t-39 -71.5zM254 0h-137l129 741q24 157 28 220h134q-16 -138 -27 -193h4q56 101 147.5 160t200.5 59
q151 0 233.5 -85t82.5 -216q0 -44 -9 -100l-104 -586h-137l96 545q10 58 10 106q0 97 -51.5 158t-161.5 61q-130 0 -225.5 -100.5t-124.5 -269.5z" />
    <glyph glyph-name="uni0578055E.liga" unicode="&#x578;&#x55e;" horiz-adv-x="1196" 
d="M1487 1411q0 -93 -73 -149t-177 -56l18 117q36 0 64.5 22t28.5 56q0 32 -25.5 50.5t-73.5 18.5q-102 0 -168.5 -77.5t-89.5 -198.5h-127q18 105 66.5 191.5t133.5 143t191 56.5q103 0 167.5 -46.5t64.5 -127.5zM254 0h-137l129 741q24 157 28 220h134q-16 -138 -27 -193
h4q56 101 147.5 160t200.5 59q151 0 233.5 -85t82.5 -216q0 -44 -9 -100l-104 -586h-137l96 545q10 58 10 106q0 97 -51.5 158t-161.5 61q-130 0 -225.5 -100.5t-124.5 -269.5z" />
    <glyph glyph-name="uni0578055F.liga" unicode="&#x578;&#x55f;" horiz-adv-x="1196" 
d="M1098 1313h-357q-100 0 -153 50.5t-53 123.5q0 97 75.5 153t186.5 68l-19 -111q-106 -20 -106 -96q0 -33 26 -53.5t78 -20.5h342zM254 0h-137l129 741q24 157 28 220h134q-16 -138 -27 -193h4q56 101 147.5 160t200.5 59q151 0 233.5 -85t82.5 -216q0 -44 -9 -100
l-104 -586h-137l96 545q10 58 10 106q0 97 -51.5 158t-161.5 61q-130 0 -225.5 -100.5t-124.5 -269.5z" />
    <glyph glyph-name="uni0579055F.liga" unicode="&#x579;&#x55f;" horiz-adv-x="892" 
d="M889 1311h-357q-100 0 -153 50.5t-53 123.5q0 97 75.5 153t186.5 68l-19 -111q-106 -20 -106 -96q0 -33 26 -53.5t78 -20.5h342zM489 973l21 -115q-83 -35 -124.5 -78t-41.5 -102q0 -38 23 -71t79 -70q25 -17 273 -179l-2 -63q-167 -115 -416 -295
q-121 -82 -186.5 -160.5t-65.5 -163.5q0 -70 51 -108.5t146 -38.5l497 -2l-20 -115h-496q-149 0 -233 63.5t-84 174.5q0 68 23 130t68.5 117.5t99 102t128.5 100.5l310 222q-22 15 -185 122q-78 53 -113.5 103.5t-35.5 118.5q0 109 79 186.5t205 120.5z" />
    <glyph glyph-name="uni057A055F.liga" unicode="&#x57a;&#x55f;" horiz-adv-x="1822" 
d="M1350 1313h-357q-100 0 -153.5 50.5t-53.5 123.5q0 97 76 153t187 68l-19 -111q-106 -20 -106 -96q0 -33 26 -53.5t78 -20.5h342zM141 375l103 586h137l-96 -545q-11 -64 -11 -107q0 -219 203 -219q129 0 218.5 107.5t121.5 283.5l84 480h137l-96 -547q-6 -38 -10 -105
q0 -219 203 -219q127 0 216.5 100t118.5 271l91 500h137l-268 -1549h-138l138 781h-5q-119 -220 -333 -220q-127 0 -204 67t-93 173h-4q-133 -240 -355 -240q-147 0 -227 84.5t-80 216.5q0 48 12 101z" />
    <glyph glyph-name="uni057B055F.liga" unicode="&#x57b;&#x55f;" horiz-adv-x="1155" 
d="M1004 1311h-357q-100 0 -153.5 50.5t-53.5 123.5q0 97 75.5 153t186.5 68l-18 -111q-106 -20 -106 -96q0 -33 26 -53.5t78 -20.5h342zM569 4q-39 -26 -103 -66.5t-102 -65t-86 -59.5t-74 -62t-44.5 -59.5t-18.5 -64.5q0 -44 34 -71t106 -27l583 -2l-20 -115h-580
q-129 0 -195.5 49t-66.5 144q0 45 20 89t49.5 80.5t78 77t91 70t103.5 68.5v18q0 55 -23.5 103t-57 85.5t-67.5 75.5t-57.5 88.5t-23.5 108.5q0 80 35 149.5t72.5 112t128.5 94.5t132 70.5t154 64.5q40 17 59 25q9 -5 27 -16q40 -23 62 -36.5t62.5 -41t65 -49t55.5 -54.5
t48.5 -64t30 -70.5t12.5 -80.5q0 -51 -15 -100t-36 -89t-62 -85t-75 -76.5t-94 -75.5t-99 -70.5t-109 -72.5zM256 483q0 -46 18 -86t44 -70.5t52 -62t44 -74.5t18 -94q0 -13 -4 -53l74 47q180 120 245 174q156 133 167 269q1 11 1 22q0 45 -18.5 88.5t-42.5 73.5t-61.5 62
t-60 47t-54.5 34q-15 -6 -47 -19q-52 -21 -79 -32.5t-74 -34t-72.5 -40t-58.5 -46t-49.5 -57t-29 -67t-12.5 -81.5z" />
    <glyph glyph-name="uni057C055F.liga" unicode="&#x57c;&#x55f;" horiz-adv-x="1230" 
d="M1090 1313h-357q-100 0 -153.5 50.5t-53.5 123.5q0 97 75.5 153t186.5 68l-18 -111q-106 -20 -106 -96q0 -33 26 -53.5t78 -20.5h342zM860 115h307l-20 -115h-479q4 9 36 76t42 89.5t38 83t40.5 93.5t31.5 81.5t30 86.5t17 72q6 40 6 75q0 94 -58 153.5t-159 59.5
q-130 0 -225.5 -100.5t-124.5 -269.5l-88 -500h-137l129 741q24 157 28 220h134q-16 -138 -27 -193h4q56 101 147.5 160t200.5 59q148 0 232 -86t84 -219q0 -40 -9 -84q-28 -159 -180 -483z" />
    <glyph glyph-name="uni057D055F.liga" unicode="&#x57d;&#x55f;" horiz-adv-x="1155" 
d="M973 1313h-357q-100 0 -153 50.5t-53 123.5q0 97 75.5 153t186.5 68l-19 -111q-106 -20 -106 -96q0 -33 26 -53.5t78 -20.5h342zM436 -27q-144 0 -225.5 85t-81.5 216q0 48 12 101l103 586h137l-96 -545q-11 -64 -11 -107q0 -99 49 -159t154 -60q128 0 217.5 99.5
t120.5 271.5l90 500h135l-129 -742q-28 -146 -30 -219h-131q9 113 24 193h-4q-57 -105 -142 -162.5t-192 -57.5z" />
    <glyph glyph-name="uni057E0576055F.liga" unicode="&#x57e;&#x576;&#x55f;" horiz-adv-x="2308" 
d="M1671 1800h-356q-100 0 -153.5 50.5t-53.5 123.5q0 97 75.5 153t186.5 68l-18 -110q-50 -9 -78.5 -33.5t-28.5 -62.5q0 -33 26.5 -53.5t78.5 -20.5h342zM1966 461l90 500h137l-131 -742q-27 -176 -28 -219h-133q6 71 24 193h-4q-119 -220 -334 -220q-150 0 -230.5 87
t-80.5 221q0 34 8 84q31 225 275 700q-279 0 -494 -2l-289 -1651h-137l135 781h-4q-119 -220 -330 -220q-146 0 -227.5 85t-81.5 216q0 43 10 101l103 586h137l-96 -545q-11 -64 -11 -107q0 -100 49.5 -159.5t157.5 -59.5q128 0 218 100.5t120 270.5l107 602h-103
q-136 0 -203 58t-67 145q0 85 49.5 153.5t142.5 145.5l82 -86q-36 -31 -53.5 -47t-41.5 -42.5t-34 -52t-10 -53.5q0 -46 37 -77t111 -31h110l66 372h137l-66 -372h680q-5 -9 -36.5 -68t-41 -77.5t-39.5 -76.5t-42.5 -84.5t-38.5 -81t-39 -86.5l-32.5 -80t-30 -83t-21 -74.5
t-15.5 -73.5q-6 -25 -6 -74q0 -101 50 -164t157 -63q128 0 218.5 100t119.5 271zM797 -473h354l-23 -115h-352z" />
    <glyph glyph-name="uni057E055F.liga" unicode="&#x57e;&#x55f;" horiz-adv-x="1339" 
d="M1116 1796h-356q-100 0 -153.5 50.5t-53.5 123.5q0 97 75.5 153t186.5 68l-18 -110q-50 -9 -78.5 -33.5t-28.5 -62.5q0 -33 26.5 -53.5t78.5 -20.5h342zM141 375l103 586h137l-96 -545q-11 -64 -11 -107q0 -100 49.5 -159.5t157.5 -59.5q128 0 218 100.5t120 270.5
l193 1087h137l-373 -2136h-137l135 781h-4q-119 -220 -330 -220q-146 0 -227.5 85t-81.5 216q0 43 10 101zM1128 -588h-352l21 115h354z" />
    <glyph glyph-name="uni057F055F.liga" unicode="&#x57f;&#x55f;" horiz-adv-x="1820" 
d="M1192 1313h-356q-100 0 -153.5 50.5t-53.5 123.5q0 97 75.5 153t186.5 68l-19 -111q-106 -20 -106 -96q0 -33 26 -53.5t78 -20.5h342zM436 -27q-144 0 -225.5 85t-81.5 216q0 48 12 101l103 586h137l-96 -545q-11 -64 -11 -107q0 -99 49 -159t154 -60q128 0 216.5 99.5
t121.5 271.5l55 280q22 117 29 220h133q-13 -109 -26 -193h4q56 101 147.5 160t200.5 59q150 0 232.5 -85.5t82.5 -215.5q0 -54 -10 -100l-102 -586h-138l97 545q10 58 10 106q0 97 -51.5 158t-161.5 61q-130 0 -225.5 -99.5t-126.5 -270.5l-88 -500h-134l31 193h-4
q-57 -105 -142 -162.5t-192 -57.5z" />
    <glyph glyph-name="uni0580055F.liga" unicode="&#x580;&#x55f;" horiz-adv-x="1196" 
d="M1098 1313h-357q-100 0 -153 50.5t-53 123.5q0 97 75.5 153t186.5 68l-19 -111q-106 -20 -106 -96q0 -33 26 -53.5t78 -20.5h342zM152 -588h-138l232 1329q24 157 28 220h134q-16 -138 -27 -193h4q56 101 147.5 160t200.5 59q151 0 233.5 -85t82.5 -216q0 -44 -9 -100
l-104 -586h-137l96 545q10 58 10 106q0 97 -51.5 158t-161.5 61q-130 0 -225.5 -100.5t-124.5 -269.5z" />
    <glyph glyph-name="uni0581055F.liga" unicode="&#x581;&#x55f;" horiz-adv-x="1298" 
d="M1067 1311h-356q-100 0 -153.5 50.5t-53.5 123.5q0 97 75.5 153t186.5 68l-18 -111q-50 -9 -78.5 -33.5t-28.5 -62.5q0 -33 26 -53.5t78 -20.5h342zM428 -602q-131 0 -245 48t-183 134l92 98q56 -76 146 -117.5t192 -41.5q103 0 181.5 31.5t129.5 90t82 129.5t49 162
l48 258h-5q-60 -95 -159 -150.5t-219 -55.5q-196 0 -309 116t-113 303q0 158 68 291t193.5 213t282.5 80q129 0 224 -60t131 -161h6q26 134 43 195h133q-26 -86 -47 -224l-139 -798q-97 -541 -582 -541zM569 96q116 0 212.5 65t150 171.5t53.5 226.5q0 136 -85.5 225.5
t-225.5 89.5q-185 0 -301.5 -132.5t-116.5 -327.5q0 -138 82 -228t231 -90z" />
    <glyph glyph-name="uni0582055B.liga" unicode="&#x582;&#x55b;" horiz-adv-x="718" 
d="M1165 1548l-329 -356h-129l294 356h164zM109 0l170 961h139l-170 -961h-139zM248 0l20 115h353l-23 -115h-350z" />
    <glyph glyph-name="uni0582055C.liga" unicode="&#x582;&#x55c;" horiz-adv-x="718" 
d="M842 1192h-129q11 60 31.5 99t55.5 63t72 36.5t99 24.5q99 19 142 49t52 86h129q-11 -64 -36 -108t-69 -71t-88.5 -42t-113.5 -29q-77 -16 -106.5 -36.5t-38.5 -71.5zM109 0l170 961h139l-170 -961h-139zM248 0l20 115h353l-23 -115h-350z" />
    <glyph glyph-name="uni0582055E.liga" unicode="&#x582;&#x55e;" horiz-adv-x="718" 
d="M1337 1411q0 -93 -73 -149t-177 -56l19 117q36 0 64 22t28 56q0 32 -25 50.5t-73 18.5q-102 0 -168.5 -77.5t-89.5 -198.5h-127q18 105 66.5 191.5t133.5 143t191 56.5q102 0 166.5 -46.5t64.5 -127.5zM109 0l170 961h139l-170 -961h-139zM248 0l20 115h353l-23 -115
h-350z" />
    <glyph glyph-name="uni0582055F.liga" unicode="&#x582;&#x55f;" horiz-adv-x="718" 
d="M807 1313h-356q-100 0 -153.5 50.5t-53.5 123.5q0 97 75.5 153t186.5 68l-19 -111q-106 -20 -106 -96q0 -33 26 -53.5t78 -20.5h342zM109 0l170 961h139l-170 -961h-139zM248 0l20 115h353l-23 -115h-350z" />
    <glyph glyph-name="uni0583055F.liga" unicode="&#x583;&#x55f;" horiz-adv-x="1822" 
d="M1448 1796h-356q-100 0 -153.5 50.5t-53.5 123.5q0 97 75.5 153t186.5 68l-19 -110q-106 -20 -106 -96q0 -33 26 -53.5t78 -20.5h342zM141 375l103 586h137l-96 -545q-11 -68 -11 -107q0 -100 49.5 -159.5t157.5 -59.5q128 0 217.5 100t120.5 271l193 1087h137l-141 -780
h4q55 101 147 160t201 59q150 0 232.5 -85.5t82.5 -215.5q0 -54 -10 -100l-102 -586h-140l97 545q12 70 12 106q0 98 -52 158.5t-163 60.5q-129 0 -225 -100.5t-125 -269.5l-191 -1088h-137l135 781h-4q-119 -220 -330 -220q-147 0 -229 85t-82 216q0 46 12 101z" />
    <glyph glyph-name="uni0584055F.liga" unicode="&#x584;&#x55f;" horiz-adv-x="1208" 
d="M1053 1313h-357q-100 0 -153.5 50.5t-53.5 123.5q0 97 76 153t187 68l-19 -111q-106 -20 -106 -96q0 -33 26 -53.5t78 -20.5h342zM303 279h-2l-63 -375h704l-20 -117h-705l-61 -358h-138l64 358h-152l21 117h151l146 815q29 183 33 242h131q-4 -47 -23 -168h4
q50 86 144.5 140t201.5 54q168 0 275.5 -103.5t107.5 -271.5q0 -145 -66.5 -267.5t-181.5 -193.5t-251 -71q-111 0 -197.5 53t-122.5 146zM713 872q-98 0 -183.5 -57.5t-135.5 -151.5t-50 -198q0 -117 78 -193.5t199 -76.5q158 0 258 116.5t100 286.5q0 122 -71.5 198
t-194.5 76z" />
    <glyph glyph-name="uni0585055B.liga" unicode="&#x585;&#x55b;" horiz-adv-x="1236" 
d="M1354 1548l-330 -356h-129l295 356h164zM563 -27q-203 0 -326.5 118t-123.5 304q0 158 69.5 292.5t201 217t298.5 82.5q203 0 327 -117.5t124 -302.5q0 -119 -41 -227t-114 -189.5t-181 -129.5t-234 -48zM571 88q122 0 219.5 65t149 171.5t51.5 230.5q0 137 -84.5 227
t-234.5 90q-122 0 -219.5 -65t-149 -170.5t-51.5 -228.5q0 -141 83.5 -230.5t235.5 -89.5z" />
    <glyph glyph-name="uni0585055C.liga" unicode="&#x585;&#x55c;" horiz-adv-x="1236" 
d="M1032 1192h-129q11 60 31.5 99t55.5 63t72 36.5t99 24.5q99 19 142.5 49t52.5 86h129q-11 -64 -36 -108t-69 -71t-88.5 -42t-113.5 -29q-77 -16 -107 -36.5t-39 -71.5zM563 -27q-203 0 -326.5 118t-123.5 304q0 158 69.5 292.5t201 217t298.5 82.5q203 0 327 -117.5
t124 -302.5q0 -119 -41 -227t-114 -189.5t-181 -129.5t-234 -48zM571 88q122 0 219.5 65t149 171.5t51.5 230.5q0 137 -84.5 227t-234.5 90q-122 0 -219.5 -65t-149 -170.5t-51.5 -228.5q0 -141 83.5 -230.5t235.5 -89.5z" />
    <glyph glyph-name="uni0585055E.liga" unicode="&#x585;&#x55e;" horiz-adv-x="1236" 
d="M1528 1411q0 -93 -73 -149t-177 -56l18 117q36 0 64.5 22t28.5 56q0 32 -25.5 50.5t-73.5 18.5q-102 0 -168.5 -77.5t-89.5 -198.5h-127q18 105 66.5 191.5t133.5 143t191 56.5q103 0 167.5 -46.5t64.5 -127.5zM563 -27q-203 0 -326.5 118t-123.5 304q0 158 69.5 292.5
t201 217t298.5 82.5q203 0 327 -117.5t124 -302.5q0 -119 -41 -227t-114 -189.5t-181 -129.5t-234 -48zM571 88q122 0 219.5 65t149 171.5t51.5 230.5q0 137 -84.5 227t-234.5 90q-122 0 -219.5 -65t-149 -170.5t-51.5 -228.5q0 -141 83.5 -230.5t235.5 -89.5z" />
    <glyph glyph-name="uni0585055F.liga" unicode="&#x585;&#x55f;" horiz-adv-x="1236" 
d="M973 1313h-357q-100 0 -153 50.5t-53 123.5q0 97 75.5 153t186.5 68l-19 -111q-106 -20 -106 -96q0 -33 26 -53.5t78 -20.5h342zM563 -27q-203 0 -326.5 118t-123.5 304q0 158 69.5 292.5t201 217t298.5 82.5q203 0 327 -117.5t124 -302.5q0 -119 -41 -227t-114 -189.5
t-181 -129.5t-234 -48zM571 88q122 0 219.5 65t149 171.5t51.5 230.5q0 137 -84.5 227t-234.5 90q-122 0 -219.5 -65t-149 -170.5t-51.5 -228.5q0 -141 83.5 -230.5t235.5 -89.5z" />
    <glyph glyph-name="uni0586055F.liga" unicode="&#x586;&#x55f;" horiz-adv-x="1400" 
d="M1126 1796h-356q-100 0 -153.5 50.5t-53.5 123.5q0 97 75.5 153t186.5 68l-18 -110q-50 -9 -78.5 -33.5t-28.5 -62.5q0 -33 26.5 -53.5t78.5 -20.5h342zM1296 469q0 -87 -33 -163.5t-91 -134t-136 -100t-169.5 -67t-190.5 -29.5l-103 -571h-129l101 573
q-185 16 -318 75.5t-196 129.5l98 92q65 -73 182 -124.5t252 -55.5l119 668l-127 35q-155 42 -235 140.5t-80 221.5q0 184 119.5 299t293.5 115q111 0 188 -56.5t77 -156.5q0 -18 -9 -70l-78 -434l140 -37q325 -92 325 -350zM592 920l115 -33l63 354q8 66 8 86
q0 64 -38.5 97.5t-106.5 33.5q-103 0 -177.5 -78t-74.5 -204q0 -88 53.5 -157t157.5 -99zM807 731l-113 -639q115 3 219 46.5t173 126.5t69 186q0 184 -227 245z" />
    <glyph glyph-name=".notdef" horiz-adv-x="1048" 
d="M1049 0h-1049v1470h1049v-1470zM102 1366v-1264h844v1264h-844zM555 479h-94q-4 24 -4 35q0 77 12 124t34.5 80t74.5 83q64 62 83 95.5t19 74.5q0 73 -46 123.5t-110 50.5q-67 0 -112 -47.5t-56 -147.5l-102 17q13 141 87 210.5t189 69.5q110 0 182 -74t72 -194
q0 -68 -27 -123.5t-102 -122.5q-68 -61 -84 -102t-16 -152zM569 240h-114v137h114v-137z" />
    <glyph glyph-name=".null" 
 />
    <glyph glyph-name="nonmarkingreturn" horiz-adv-x="682" 
 />
    <glyph glyph-name="NULL" 
 />
    <glyph glyph-name="NULL" 
 />
    <glyph glyph-name="CR" unicode="&#xd;" horiz-adv-x="512" 
 />
    <glyph glyph-name="space" unicode=" " horiz-adv-x="512" 
 />
    <glyph glyph-name="exclam" unicode="!" horiz-adv-x="569" 
d="M317 393h-147l186 1057h148zM203 -12q-46 0 -77.5 29t-31.5 77t34 81.5t79 33.5q46 0 76 -29.5t30 -79.5q0 -45 -32.5 -78.5t-77.5 -33.5z" />
    <glyph glyph-name="quotedbl" unicode="&#x22;" horiz-adv-x="819" 
d="M360 969h-122l86 481h122zM657 969h-122l86 481h122z" />
    <glyph glyph-name="quotedbl" unicode="&#x2033;" horiz-adv-x="819" 
d="M360 969h-122l86 481h122zM657 969h-122l86 481h122z" />
    <glyph glyph-name="numbersign" unicode="#" horiz-adv-x="1138" 
d="M233 0h-124l139 438h-209l20 123h226l104 332h-221l20 123h240l137 434h125l-137 -434h272l138 434h124l-137 -434h185l-21 -123h-203l-104 -332h194l-20 -123h-211l-139 -438h-125l139 438h-272zM514 893l-104 -332h272l104 332h-272z" />
    <glyph glyph-name="dollar" unicode="$" horiz-adv-x="1187" 
d="M489 -172h-86l27 147q-125 8 -231.5 62.5t-163.5 148.5l127 80q39 -68 115.5 -115t173.5 -53l102 584q-55 20 -99.5 41.5t-90 54t-76 69.5t-49.5 88.5t-19 111.5q0 179 126.5 299.5t348.5 130.5l25 145h86l-27 -147q111 -6 200.5 -52.5t143.5 -117.5l-123 -86
q-33 53 -97.5 90.5t-143.5 40.5l-99 -562q55 -21 98 -42.5t89.5 -54.5t77.5 -70t51 -89.5t20 -113.5q0 -59 -15 -116.5t-51.5 -115.5t-90 -102.5t-137.5 -75t-187 -35.5zM578 819l94 533q-126 -7 -216.5 -81.5t-90.5 -207.5q0 -92 53.5 -147t159.5 -97zM633 653l-94 -555
q134 6 221.5 91.5t87.5 209.5q0 91 -57.5 150.5t-157.5 103.5z" />
    <glyph glyph-name="percent" unicode="%" horiz-adv-x="1705" 
d="M1507 1458l-1190 -1521l-92 55l1192 1521zM432 764q-137 0 -225 82t-88 211q0 173 114.5 295.5t286.5 122.5q138 0 224.5 -81t86.5 -210q0 -176 -113.5 -298t-285.5 -122zM440 877q115 0 191 86.5t76 210.5q0 85 -52.5 139.5t-142.5 54.5q-112 0 -188 -88t-76 -211
q0 -85 52 -138.5t140 -53.5zM1229 -20q-137 0 -225.5 81.5t-88.5 210.5q0 173 115 295.5t287 122.5q138 0 224.5 -81t86.5 -210q0 -115 -50.5 -210.5t-142.5 -152t-206 -56.5zM1237 92q115 0 190.5 86.5t75.5 210.5q0 86 -52 140.5t-142 54.5q-113 0 -189 -88t-76 -211
q0 -85 52.5 -139t140.5 -54z" />
    <glyph glyph-name="ampersand" unicode="&#x26;" horiz-adv-x="1441" 
d="M465 -25q-189 0 -302.5 93t-113.5 268q0 295 418 473q-54 66 -83.5 145.5t-29.5 157.5q0 163 102 269t261 106q148 0 239 -81.5t91 -225.5q0 -246 -388 -408l273 -344l256 356h170l-344 -452l266 -332h-186l-166 215q-106 -124 -217.5 -182t-245.5 -58zM596 862
q145 63 226 135.5t81 171.5q0 90 -49.5 144.5t-136.5 54.5q-100 0 -164 -69.5t-64 -176.5q0 -70 31.5 -140.5t75.5 -119.5zM473 98q107 0 194.5 52t178.5 161l-314 402q-71 -30 -124 -61.5t-102 -76t-75 -104t-26 -131.5q0 -111 76 -176.5t192 -65.5z" />
    <glyph glyph-name="quotesingle" unicode="'" horiz-adv-x="522" 
d="M360 969h-122l86 481h122z" />
    <glyph glyph-name="quotesingle" unicode="&#x2032;" horiz-adv-x="522" 
d="M360 969h-122l86 481h122z" />
    <glyph glyph-name="parenleft" unicode="(" horiz-adv-x="614" 
d="M311 -266l-106 -58q-79 126 -124.5 302.5t-45.5 363.5q0 323 134.5 627.5t350.5 535.5l94 -67q-198 -220 -321 -510t-123 -586q0 -354 141 -608z" />
    <glyph glyph-name="parenright" unicode=")" horiz-adv-x="614" 
d="M82 -326l-94 68q198 220 321 510t123 586q0 354 -141 608l106 57q79 -126 124.5 -302t45.5 -363q0 -323 -134.5 -628t-350.5 -536z" />
    <glyph glyph-name="asterisk" unicode="*" horiz-adv-x="909" 
d="M516 991l-194 -266l-86 66l190 260l-299 92l37 102l295 -92v297h114v-297l295 92l37 -102l-299 -92l191 -260l-86 -66z" />
    <glyph glyph-name="plus" unicode="+" horiz-adv-x="1363" 
d="M743 98h-122v461h-461v123h461v461h122v-461h461v-123h-461v-461z" />
    <glyph glyph-name="comma" unicode="," horiz-adv-x="532" 
d="M47 -287h-117l224 482h145z" />
    <glyph glyph-name="hyphen" unicode="-" horiz-adv-x="655" 
d="M524 438h-458l20 117h459z" />
    <glyph glyph-name="period" unicode="." horiz-adv-x="532" 
d="M158 -12q-46 0 -77.5 29t-31.5 77t34 81.5t79 33.5q46 0 76 -29.5t30 -79.5q0 -45 -32.5 -78.5t-77.5 -33.5z" />
    <glyph glyph-name="slash" unicode="/" horiz-adv-x="757" 
d="M891 1446l-879 -1483l-112 39l882 1485z" />
    <glyph glyph-name="zero" unicode="0" horiz-adv-x="1187" 
d="M489 -37q-100 0 -175 38t-118 106.5t-64 154.5t-21 191q0 93 10.5 190.5t34 199.5t58 195t85.5 175.5t113 143t144.5 95.5t176.5 35q80 0 144 -25.5t107.5 -70.5t72.5 -108t42 -135t13 -155q0 -108 -15.5 -221.5t-46 -230.5t-82 -220t-118 -183.5t-160 -127.5t-201.5 -47
zM500 88q98 0 185.5 78.5t147.5 204.5t95 286.5t35 323.5q0 81 -12.5 147t-39.5 120.5t-75 85t-113 30.5q-131 0 -239.5 -134.5t-167 -339.5t-58.5 -425q0 -80 12.5 -145.5t40 -119t75.5 -83t114 -29.5z" />
    <glyph glyph-name="one" unicode="1" horiz-adv-x="1187" 
d="M623 0h-144l223 1272l-305 -228l-71 107l422 299h131z" />
    <glyph glyph-name="two" unicode="2" horiz-adv-x="1187" 
d="M930 0h-928l27 154l694 600q60 51 96.5 88t69.5 83t48 95.5t15 107.5q0 107 -76 170.5t-186 63.5q-126 0 -210.5 -71t-117.5 -183l-139 29q48 156 171.5 253t301.5 97q80 0 151.5 -22.5t128.5 -64.5t90.5 -109t33.5 -150q0 -57 -8 -105t-28.5 -91.5t-40.5 -75.5
t-60.5 -73.5t-70.5 -68.5t-87 -76l-612 -522h759z" />
    <glyph glyph-name="three" unicode="3" horiz-adv-x="1187" 
d="M485 -37q-159 0 -279 80t-161 217l145 51q20 -103 107 -162t201 -59q154 0 250 94.5t96 251.5q0 132 -88 197t-242 65h-63l22 123h64q187 0 289 81t102 239q0 104 -69.5 162.5t-176.5 58.5q-97 0 -175.5 -45.5t-125.5 -132.5l-119 67q153 236 426 236q164 0 275.5 -91
t111.5 -255q0 -134 -79.5 -236t-237.5 -145v-4q101 -24 169 -107.5t68 -197.5q0 -214 -140 -351t-370 -137z" />
    <glyph glyph-name="four" unicode="4" horiz-adv-x="1187" 
d="M780 0h-141l61 350h-663l24 150l779 950h196l-172 -971h215l-22 -129h-215zM862 1284l-655 -805h516l143 805h-4z" />
    <glyph glyph-name="five" unicode="5" horiz-adv-x="1187" 
d="M461 -37q-152 0 -261.5 73t-152.5 191l135 60q28 -89 105 -143t176 -54q186 0 289.5 110.5t103.5 282.5q0 136 -85 220.5t-226 84.5q-79 0 -166 -22.5t-148 -58.5l148 743h702l-22 -129h-570l-90 -451q88 33 187 33q189 0 306.5 -111.5t117.5 -279.5q0 -111 -34 -208.5
t-100 -174.5t-173 -121.5t-242 -44.5z" />
    <glyph glyph-name="six" unicode="6" horiz-adv-x="1187" 
d="M506 -37q-188 0 -308 119t-120 295q0 102 49.5 205.5t155.5 234.5l512 633h178l-529 -633l5 -4q82 53 192 53q173 0 283 -107t110 -278q0 -228 -148 -373t-380 -145zM510 84q168 0 273.5 111t105.5 274q0 119 -74.5 201t-200.5 82q-166 0 -277.5 -109t-111.5 -270
q0 -121 78.5 -205t206.5 -84z" />
    <glyph glyph-name="seven" unicode="7" horiz-adv-x="1187" 
d="M317 0h-172l846 1321h-708l22 129h860l-24 -135z" />
    <glyph glyph-name="eight" unicode="8" horiz-adv-x="1187" 
d="M502 -37q-181 0 -301.5 101t-120.5 276q0 165 105 280.5t257 151.5v4q-85 34 -135.5 107.5t-50.5 165.5q0 185 129 311.5t322 126.5q170 0 275 -90.5t105 -251.5q0 -137 -82.5 -237t-211.5 -140v-4q102 -29 166.5 -110.5t64.5 -194.5q0 -96 -29 -178t-79 -139.5
t-116.5 -98.5t-142 -60.5t-155.5 -19.5zM631 827q69 0 129.5 28.5t99.5 73t61.5 95.5t22.5 98q0 117 -66 179.5t-182 62.5q-127 0 -213 -91.5t-86 -213.5q0 -96 64 -164t170 -68zM504 88q173 0 273 102.5t100 260.5q0 109 -76 182.5t-195 73.5q-160 0 -268.5 -103.5
t-108.5 -255.5q0 -118 75 -189t200 -71z" />
    <glyph glyph-name="nine" unicode="9" horiz-adv-x="1187" 
d="M442 0h-178l529 633l-5 4q-82 -53 -192 -53q-173 0 -283 107t-110 278q0 228 148 373t380 145q188 0 308 -119t120 -295q0 -102 -49.5 -205.5t-155.5 -234.5zM623 700q166 0 278.5 108t112.5 269q0 121 -79.5 205t-207.5 84q-168 0 -273.5 -111t-105.5 -274
q0 -119 74.5 -200t200.5 -81z" />
    <glyph glyph-name="colon" unicode=":" horiz-adv-x="614" 
d="M330 750q-46 0 -77.5 29t-31.5 77t34 81.5t79 33.5q46 0 76 -29.5t30 -79.5q0 -45 -32.5 -78.5t-77.5 -33.5zM211 -12q-46 0 -77.5 29t-31.5 77t34 81.5t79 33.5q46 0 76.5 -29.5t30.5 -79.5q0 -45 -33 -78.5t-78 -33.5z" />
    <glyph glyph-name="semicolon" unicode=";" horiz-adv-x="614" 
d="M330 750q-46 0 -77.5 29t-31.5 77t34 81.5t79 33.5q46 0 76 -29.5t30 -79.5q0 -45 -32.5 -78.5t-77.5 -33.5zM80 -287h-123l223 482h152z" />
    <glyph glyph-name="less" unicode="&#x3c;" horiz-adv-x="1363" 
d="M1204 209v-123l-1044 487v95l1044 487v-123l-878 -411z" />
    <glyph glyph-name="equal" unicode="=" horiz-adv-x="1363" 
d="M1204 713h-1044v123h1044v-123zM1204 406h-1044v122h1044v-122z" />
    <glyph glyph-name="greater" unicode="&#x3e;" horiz-adv-x="1363" 
d="M1204 573l-1044 -487v123l878 412l-878 411v123l1044 -487v-95z" />
    <glyph glyph-name="question" unicode="?" horiz-adv-x="987" 
d="M520 393h-139l20 123q10 56 29.5 103t48 85t58 66t69.5 59l68 52q43 34 70 58.5t52.5 57t37.5 69t12 79.5q0 92 -59.5 147.5t-153.5 55.5q-124 0 -200 -66.5t-101 -173.5l-133 25q38 156 157.5 249t274.5 93q159 0 260.5 -83.5t101.5 -242.5q0 -63 -17.5 -117t-52.5 -100
t-75.5 -82t-97.5 -76q-109 -77 -155.5 -135.5t-62.5 -163.5zM426 -12q-46 0 -77.5 29t-31.5 77t34 81.5t79 33.5q46 0 76.5 -29.5t30.5 -79.5q0 -45 -33 -78.5t-78 -33.5z" />
    <glyph glyph-name="at" unicode="@" horiz-adv-x="1638" 
d="M778 -37q-211 0 -370.5 82.5t-242.5 225t-83 323.5q0 182 67 345.5t183 284.5t283 192t358 71q134 0 249.5 -38.5t200.5 -109.5t134 -179t49 -240q0 -110 -27.5 -213.5t-80 -189t-138.5 -137.5t-193 -52q-44 0 -78 10t-52.5 26.5t-31 36.5t-12.5 40t2 38h-8
q-39 -58 -111.5 -104.5t-158.5 -46.5q-132 0 -198 71.5t-66 192.5q0 61 17.5 131t55.5 141.5t91.5 129t133.5 94t173 36.5q77 0 134.5 -35.5t69.5 -87.5h9l37 93h126l-149 -381q-51 -135 -51 -181q0 -45 23 -67.5t75 -22.5q60 0 113.5 42t88.5 108.5t55 146t20 156.5
q0 217 -140.5 343t-369.5 126q-206 0 -375.5 -102.5t-266 -279.5t-96.5 -390q0 -230 155 -370t411 -140q324 0 585 215l60 -94q-275 -240 -660 -240zM735 446q85 0 159 63t114.5 156.5t40.5 188.5q0 147 -140 147q-121 0 -214 -117t-93 -284q0 -154 133 -154z" />
    <glyph glyph-name="A" unicode="A" horiz-adv-x="1423" 
d="M829 1450h144l301 -1450h-154l-78 381h-741l-238 -381h-167zM868 1284l-483 -768h635z" />
    <glyph glyph-name="B" unicode="B" horiz-adv-x="1269" 
d="M510 0h-428l256 1450h418q80 0 151.5 -17t134 -52.5t99.5 -99t37 -148.5q0 -141 -86.5 -238t-233.5 -133v-4q121 -19 195.5 -101.5t74.5 -207.5q0 -144 -79.5 -246.5t-217.5 -152.5t-321 -50zM461 1325l-90 -510h297q49 0 96.5 8.5t95 30t83.5 53.5t58.5 82t22.5 113
q0 113 -84 168t-223 55h-256zM350 694l-100 -569h274q74 0 139 11t123.5 36t101 62t67 93.5t24.5 127.5q0 113 -86 176t-242 63h-301z" />
    <glyph glyph-name="C" unicode="C" horiz-adv-x="1474" 
d="M770 -37q-290 0 -470.5 172.5t-180.5 450.5q0 185 68 352t184 287.5t276.5 191t337.5 70.5q160 0 293.5 -63t194.5 -169l-134 -88q-38 79 -132 136t-226 57q-151 0 -285 -64.5t-225.5 -170.5t-144 -243.5t-52.5 -281.5t57 -258t173 -183t274 -69q282 0 463 217l109 -78
q-94 -119 -241 -192.5t-339 -73.5z" />
    <glyph glyph-name="D" unicode="D" horiz-adv-x="1550" 
d="M567 0h-485l256 1450h438q83 0 163 -15t156.5 -45.5t140.5 -80t113 -115t76 -155.5t27 -195q0 -188 -67 -346.5t-184.5 -267.5t-281 -169.5t-352.5 -60.5zM461 1321l-211 -1192h328q137 0 255 38.5t202 105t143.5 155.5t88.5 190.5t29 208.5q0 104 -33 191.5t-99 156
t-174 107.5t-247 39h-282z" />
    <glyph glyph-name="E" unicode="E" horiz-adv-x="1187" 
d="M1006 0h-924l256 1450h870l-22 -129h-725l-88 -504h692l-23 -125h-692l-100 -563h778z" />
    <glyph glyph-name="F" unicode="F" horiz-adv-x="1126" 
d="M227 0h-145l256 1450h854l-23 -129h-708l-90 -506h657l-20 -125h-658z" />
    <glyph glyph-name="G" unicode="G" horiz-adv-x="1576" 
d="M770 -37q-290 0 -470.5 172.5t-180.5 450.5q0 185 68 352t184 287.5t276.5 191t337.5 70.5q160 0 293.5 -63t194.5 -169l-134 -88q-38 79 -132 136t-226 57q-151 0 -285 -64.5t-225.5 -170.5t-144 -243.5t-52.5 -281.5t57 -258t173 -183t274 -69q249 0 412 98l78 445
h-342l22 125h486l-115 -654q-245 -141 -549 -141z" />
    <glyph glyph-name="H" unicode="H" horiz-adv-x="1449" 
d="M227 0h-145l256 1450h145l-112 -631h772l112 631h146l-256 -1450h-146l121 688h-772z" />
    <glyph glyph-name="I" unicode="I" horiz-adv-x="532" 
d="M227 0h-145l256 1450h145z" />
    <glyph glyph-name="J" unicode="J" horiz-adv-x="987" 
d="M336 -37q-154 0 -247 81t-109 202l129 41q14 -87 70.5 -142t148.5 -55q61 0 109 19t78 49t53 77t34.5 90.5t22.5 102.5l180 1022h145l-182 -1032q-8 -47 -17 -85t-26 -87t-37.5 -86.5t-54 -76t-74 -63.5t-98 -41t-125.5 -16z" />
    <glyph glyph-name="K" unicode="K" horiz-adv-x="1198" 
d="M227 0h-145l256 1450h145l-114 -651h2l737 651h213l-793 -672l607 -778h-191l-579 772h-3z" />
    <glyph glyph-name="L" unicode="L" horiz-adv-x="1044" 
d="M905 0h-823l256 1450h145l-235 -1321h678z" />
    <glyph glyph-name="M" unicode="M" horiz-adv-x="1814" 
d="M225 0h-143l256 1450h221l275 -1200h2l702 1200h223l-256 -1450h-145l221 1253h-4l-746 -1253h-77l-303 1253h-5z" />
    <glyph glyph-name="N" unicode="N" horiz-adv-x="1536" 
d="M229 0h-145l256 1450h182l596 -1243h4l219 1243h146l-256 -1450h-182l-594 1260h-4z" />
    <glyph glyph-name="O" unicode="O" horiz-adv-x="1708" 
d="M764 -37q-188 0 -334.5 77.5t-228.5 219.5t-82 326q0 185 65.5 351.5t178 287t269.5 191.5t333 71q187 0 333.5 -77t229 -218t82.5 -324q0 -247 -109 -454t-304 -329t-433 -122zM770 90q148 0 277.5 64t217.5 170t138.5 244t50.5 286q0 142 -56.5 255.5t-170.5 182
t-269 68.5q-120 0 -228.5 -42t-190.5 -115t-142.5 -169t-91.5 -208t-31 -228q0 -106 32.5 -198t94 -161.5t156.5 -109t213 -39.5z" />
    <glyph glyph-name="P" unicode="P" horiz-adv-x="1187" 
d="M227 0h-145l256 1450h387q211 0 328.5 -92.5t117.5 -255.5q0 -208 -149.5 -318t-400.5 -110h-275zM461 1325l-94 -530h266q185 0 288 74.5t103 215.5q0 128 -80 184t-231 56h-252z" />
    <glyph glyph-name="Q" unicode="Q" horiz-adv-x="1712" 
d="M1567 0h-768q-142 0 -262.5 37t-214 109.5t-146.5 189.5t-53 266q0 243 108.5 446t300.5 321t426 118q140 0 260.5 -45t206 -125t134.5 -196t49 -253q0 -253 -124 -449t-317 -286l-2 -4h424zM807 125q125 0 243 57.5t206.5 153.5t142 229.5t53.5 276.5q0 148 -57.5 264
t-172.5 185t-270 69q-149 0 -278.5 -63.5t-215.5 -167.5t-135 -236t-49 -270q0 -234 142.5 -366t390.5 -132z" />
    <glyph glyph-name="R" unicode="R" horiz-adv-x="1226" 
d="M227 0h-145l256 1450h391q202 0 325.5 -88t123.5 -258q0 -190 -117 -292t-309 -122l319 -690h-166l-303 678h-256zM461 1325l-92 -524h258q403 0 403 286q0 117 -85 177.5t-238 60.5h-246z" />
    <glyph glyph-name="S" unicode="S" horiz-adv-x="1155" 
d="M471 -37q-137 0 -259.5 56.5t-184.5 158.5l131 84q42 -75 126 -123.5t193 -48.5q153 0 259 85.5t106 221.5q0 48 -17 88.5t-42 68t-68.5 53.5t-81 42t-94.5 37q-70 26 -122.5 54.5t-101.5 71.5t-75.5 103.5t-26.5 135.5q0 190 138 313t378 123q142 0 247 -47t154 -125
l-124 -90q-40 60 -115 97.5t-170 37.5q-65 0 -127 -17.5t-114 -52t-83.5 -92t-31.5 -129.5q0 -44 14.5 -81t36 -62.5t58.5 -49t71 -39t84 -34.5q43 -16 75 -30t72 -35t69.5 -42t59 -50.5t48.5 -61.5t30.5 -73t11.5 -87q0 -62 -16 -123.5t-55 -123.5t-97 -108.5t-150 -76
t-206 -29.5z" />
    <glyph glyph-name="T" unicode="T" horiz-adv-x="1120" 
d="M512 0h-145l233 1321h-485l22 129h1118l-22 -129h-488z" />
    <glyph glyph-name="U" unicode="U" horiz-adv-x="1454" 
d="M637 -37q-126 0 -221.5 38t-150 102t-81 139.5t-26.5 160.5q0 73 12 138l160 909h145l-158 -893q-12 -65 -12 -125q0 -72 18 -131.5t56.5 -108t106 -75.5t159.5 -27q384 0 465 467l158 893h145l-160 -909q-14 -81 -38.5 -154t-73.5 -153t-113.5 -138t-165.5 -95.5
t-225 -37.5z" />
    <glyph glyph-name="V" unicode="V" horiz-adv-x="1228" 
d="M543 0h-152l-233 1450h155l189 -1260h4l737 1260h162z" />
    <glyph glyph-name="W" unicode="W" horiz-adv-x="1966" 
d="M496 0h-172l-150 1450h156l116 -1247h5l604 1247h176l121 -1247h4l596 1247h155l-706 -1450h-172l-117 1249h-4z" />
    <glyph glyph-name="X" unicode="X" horiz-adv-x="1265" 
d="M68 0h-201l686 762l-346 688h176l279 -586l514 586h192l-633 -705l373 -745h-176l-305 641z" />
    <glyph glyph-name="Y" unicode="Y" horiz-adv-x="1140" 
d="M563 745l580 705h182l-709 -825l-110 -625h-146l111 625l-369 825h172z" />
    <glyph glyph-name="Z" unicode="Z" horiz-adv-x="1171" 
d="M997 0h-1048l22 123l1063 1198h-815l23 129h1003l-22 -123l-1061 -1198h858z" />
    <glyph glyph-name="bracketleft" unicode="[" horiz-adv-x="614" 
d="M283 -319h-332l321 1818h332l-18 -110h-197l-283 -1598h197z" />
    <glyph glyph-name="backslash" unicode="\" horiz-adv-x="757" 
d="M748 2l-119 -39l-619 1483l117 41z" />
    <glyph glyph-name="bracketright" unicode="]" horiz-adv-x="614" 
d="M328 -319h-332l20 110h197l283 1598h-197l18 110h332z" />
    <glyph glyph-name="asciicircum" unicode="^" horiz-adv-x="1363" 
d="M291 563h-127l469 887h98l469 -887h-127l-391 740z" />
    <glyph glyph-name="underscore" unicode="_" horiz-adv-x="1024" 
d="M1024 -256h-1024v102h1024v-102z" />
    <glyph glyph-name="grave" unicode="`" horiz-adv-x="491" 
d="M432 1155h-115l-270 295h180z" />
    <glyph glyph-name="a" unicode="a" horiz-adv-x="1093" 
d="M338 -18q-52 0 -100.5 13t-92.5 40t-71 77.5t-27 116.5q0 64 22.5 116t60.5 88.5t94.5 64.5t118 45t138 27t146.5 14t151 4h6q11 65 11 90q0 190 -226 190q-80 0 -160.5 -32.5t-138.5 -81.5l-61 92q69 62 172 99.5t203 37.5q95 0 169.5 -27.5t122.5 -91t48 -157.5
q0 -42 -9 -103l-69 -389q-23 -142 -23 -215h-123q0 73 13 156h-4q-83 -95 -167 -134.5t-204 -39.5zM387 92q143 0 242 89t123 222l14 80h-33q-543 0 -543 -237q0 -83 56 -118.5t141 -35.5z" />
    <glyph glyph-name="b" unicode="b" horiz-adv-x="1286" 
d="M584 -25q-107 0 -200 49.5t-134 137.5h-4l-29 -162h-137l274 1548h138l-134 -745h4q48 76 145 128t208 52q194 0 313 -114.5t119 -299.5q0 -162 -72.5 -298t-202 -216t-288.5 -80zM586 92q185 0 301.5 135t116.5 334q0 134 -80 220.5t-222 86.5q-118 0 -216 -63.5
t-154 -170.5t-56 -233q0 -136 85 -222.5t225 -86.5z" />
    <glyph glyph-name="c" unicode="c" horiz-adv-x="1024" 
d="M524 -25q-203 0 -323.5 113t-120.5 299q0 122 41.5 231t115 190t181.5 128t235 47q112 0 204 -41t136 -121l-121 -80q-25 56 -85.5 91.5t-137.5 35.5q-183 0 -303.5 -137t-120.5 -332q0 -135 83.5 -221t226.5 -86q167 0 282 125l88 -76q-163 -166 -381 -166z" />
    <glyph glyph-name="d" unicode="d" horiz-adv-x="1273" 
d="M502 -25q-194 0 -313 114.5t-119 299.5q0 162 72.5 298t202 216t288.5 80q106 0 198 -49t136 -137h4l133 751h137l-274 -1548h-138l29 158h-4q-48 -77 -144.5 -130t-207.5 -53zM514 92q118 0 216 63.5t154 170.5t56 233q0 136 -84.5 222.5t-224.5 86.5
q-185 0 -301.5 -135t-116.5 -334q0 -134 79.5 -220.5t221.5 -86.5z" />
    <glyph glyph-name="e" unicode="e" horiz-adv-x="1159" 
d="M506 -25q-190 0 -313 113t-123 309q0 154 73 288.5t201.5 216t280.5 81.5q191 0 295 -102.5t104 -272.5q0 -95 -18 -166h-793q-4 -32 -4 -45q0 -132 88.5 -218.5t220.5 -86.5q106 0 191 47t141 121l86 -82q-83 -99 -194 -151t-236 -52zM231 545h652q4 40 4 71
q0 114 -69.5 183t-196.5 69q-146 0 -252 -93t-138 -230z" />
    <glyph glyph-name="f" unicode="f" horiz-adv-x="604" 
d="M254 0h-137l147 846h-203l23 115h199l45 258q13 74 39.5 136t69 112t106.5 78t143 28q61 0 113 -14l-33 -121q-43 12 -96 12q-93 0 -139.5 -64.5t-67.5 -181.5l-43 -243h229l-22 -115h-226z" />
    <glyph glyph-name="g" unicode="g" horiz-adv-x="1284" 
d="M432 -492q-138 0 -254 51.5t-186 141.5l92 98q52 -75 146.5 -122.5t201.5 -47.5q349 0 420 379l35 182h-4q-64 -91 -160 -140.5t-205 -49.5q-193 0 -309.5 119t-116.5 301q0 153 72 282t200.5 205t286.5 76q108 0 201 -50.5t131 -139.5h4l31 168h135l-168 -953
q-9 -51 -20 -94t-32 -96t-47.5 -95t-69.5 -83.5t-95.5 -69.5t-126.5 -45t-162 -17zM541 115q182 0 299.5 131t117.5 315q0 131 -85 219t-224 88q-185 0 -300.5 -124t-115.5 -326q0 -130 82 -216.5t226 -86.5z" />
    <glyph glyph-name="h" unicode="h" horiz-adv-x="1181" 
d="M211 0h-137l272 1548h137l-131 -747h4q55 84 141 133t183 49q153 0 240.5 -78.5t87.5 -214.5q0 -34 -11 -102l-104 -588h-137l94 530q12 64 12 121q0 106 -50.5 161.5t-166.5 55.5q-119 0 -217.5 -97t-130.5 -279z" />
    <glyph glyph-name="i" unicode="i" horiz-adv-x="512" 
d="M373 1231q-40 0 -67 25t-27 67t29.5 71t68.5 29t65.5 -26t26.5 -68q0 -40 -28 -69t-68 -29zM213 0h-137l170 961h137z" />
    <glyph glyph-name="j" unicode="j" horiz-adv-x="514" 
d="M377 1231q-40 0 -67 25t-27 67t29.5 71t68.5 29t65.5 -26t26.5 -68q0 -40 -28 -69t-68 -29zM-117 -492q-65 0 -114 15l28 117q41 -13 86 -13q81 0 115 50.5t51 154.5l199 1129h137l-203 -1151q-9 -52 -20.5 -91t-34 -81t-53 -68.5t-79.5 -44t-112 -17.5z" />
    <glyph glyph-name="k" unicode="k" horiz-adv-x="997" 
d="M217 0h-139l272 1548h137l-180 -1022h6l490 435h190l-526 -447l438 -514h-180l-416 504h-6z" />
    <glyph glyph-name="l" unicode="l" horiz-adv-x="516" 
d="M217 0h-139l272 1548h139z" />
    <glyph glyph-name="m" unicode="m" horiz-adv-x="1789" 
d="M1286 985q154 0 242 -78.5t88 -214.5q0 -40 -10 -102l-105 -590h-137l94 532q12 64 12 121q0 105 -49.5 161t-163.5 56q-73 0 -130 -30t-93 -83.5t-57.5 -112.5t-34.5 -132l-90 -512h-137l100 559q12 67 12 125q0 91 -44.5 138.5t-145.5 47.5q-110 0 -209 -98t-131 -278
l-86 -494h-137l131 750q23 121 31 211h131q-10 -83 -23 -164h4q59 89 145 138.5t187 49.5q43 0 82 -9t78 -30t67.5 -62.5t40.5 -99.5q56 97 142.5 149t195.5 52z" />
    <glyph glyph-name="n" unicode="n" horiz-adv-x="1181" 
d="M211 0h-137l131 750q28 179 31 211h133q-14 -116 -23 -164h4q55 88 143 138t185 50q154 0 242 -78.5t88 -214.5q0 -34 -11 -102l-104 -590h-137l94 532q12 64 12 121q0 105 -49.5 161t-163.5 56q-119 0 -219.5 -97.5t-132.5 -278.5z" />
    <glyph glyph-name="o" unicode="o" horiz-adv-x="1220" 
d="M512 -25q-194 0 -318 116t-124 300q0 120 42.5 228.5t117 188.5t181 127.5t228.5 47.5q195 0 318.5 -115t123.5 -299q0 -163 -72 -298.5t-203 -215.5t-294 -80zM520 92q119 0 215.5 64t149.5 171.5t53 233.5q0 134 -83 220.5t-224 86.5q-117 0 -213 -64.5t-149.5 -172
t-53.5 -232.5q0 -135 82.5 -221t222.5 -86z" />
    <glyph glyph-name="p" unicode="p" horiz-adv-x="1286" 
d="M129 -492h-137l258 1453h137l-29 -158h4q48 76 145 128t208 52q194 0 313 -114.5t119 -299.5q0 -162 -72.5 -298t-202 -216t-288.5 -80q-106 0 -197.5 49.5t-136.5 137.5h-4zM586 92q185 0 301.5 135t116.5 334q0 134 -80 220.5t-222 86.5q-118 0 -216 -63.5t-154 -170.5
t-56 -233q0 -136 85 -222.5t225 -86.5z" />
    <glyph glyph-name="q" unicode="q" horiz-adv-x="1269" 
d="M881 -492h-138l115 648h-4q-48 -76 -144.5 -128.5t-207.5 -52.5q-194 0 -313 114.5t-119 299.5q0 162 72.5 298t202 216t288.5 80q106 0 198 -49t136 -137h4l28 164h138zM514 92q118 0 216 63.5t154 170.5t56 233q0 136 -84.5 222.5t-224.5 86.5q-185 0 -301.5 -135
t-116.5 -334q0 -134 79.5 -220.5t221.5 -86.5z" />
    <glyph glyph-name="r" unicode="r" horiz-adv-x="712" 
d="M211 0h-137l131 750q28 179 31 211h131q-14 -116 -23 -164h4q54 86 138 137t182 51q54 0 90 -10l-33 -131q-28 12 -94 12q-119 0 -210.5 -90t-123.5 -272z" />
    <glyph glyph-name="s" unicode="s" horiz-adv-x="909" 
d="M383 -25q-124 0 -228.5 46.5t-162.5 136.5l119 78q36 -62 107.5 -103t158.5 -41q99 0 169 41t70 123q0 72 -54 112.5t-179 80.5q-40 13 -70 25t-64.5 33.5t-56 47t-36.5 63.5t-15 84q0 71 33 126.5t87.5 88.5t118 49.5t130.5 16.5q109 0 197 -43.5t127 -114.5l-109 -77
q-28 55 -86.5 87.5t-136.5 32.5q-39 0 -77 -8.5t-73 -25.5t-56.5 -48.5t-21.5 -72.5q0 -37 11.5 -62.5t41 -44t57 -29t81.5 -26.5q147 -42 218 -106.5t71 -174.5q0 -75 -34 -133.5t-89 -92.5t-118.5 -51.5t-129.5 -17.5z" />
    <glyph glyph-name="t" unicode="t" horiz-adv-x="628" 
d="M315 -12q-37 0 -70 8.5t-65 28.5t-50.5 59t-18.5 94q0 28 6 66l106 602h-198l22 115h195l47 268h137l-47 -268h264l-22 -115h-261l-100 -563q-6 -37 -6 -66q0 -63 30.5 -88t88.5 -25q30 0 64 9t52 22l-16 -119q-54 -28 -158 -28z" />
    <glyph glyph-name="u" unicode="u" horiz-adv-x="1181" 
d="M436 -25q-154 0 -242 78.5t-88 214.5q0 35 11 103l104 590h137l-94 -533q-12 -64 -12 -121q0 -105 49.5 -160t163.5 -55q119 0 219.5 97t132.5 278l86 494h137l-131 -750q-26 -164 -30 -211h-134q14 116 23 164h-4q-55 -88 -143 -138.5t-185 -50.5z" />
    <glyph glyph-name="v" unicode="v" horiz-adv-x="978" 
d="M420 0h-148l-200 961h141l154 -814h4l477 814h149z" />
    <glyph glyph-name="w" unicode="w" horiz-adv-x="1501" 
d="M356 0h-145l-105 961h144l65 -781h4l406 781h131l113 -781h6l383 781h147l-489 -961h-148l-108 778h-4z" />
    <glyph glyph-name="x" unicode="x" horiz-adv-x="972" 
d="M57 0h-170l492 506l-240 455h148l186 -379l350 379h166l-454 -472l270 -489h-160l-205 408z" />
    <glyph glyph-name="y" unicode="y" horiz-adv-x="989" 
d="M-31 -492q-53 0 -116 13l20 127q49 -17 90 -17q62 0 110.5 42t98.5 128l119 201l-201 959h143l154 -809h4l467 809h154l-725 -1209q-74 -123 -146.5 -183.5t-171.5 -60.5z" />
    <glyph glyph-name="z" unicode="z" horiz-adv-x="905" 
d="M731 0h-778l16 98l703 746h-543l23 117h729l-19 -99l-704 -741h594z" />
    <glyph glyph-name="braceleft" unicode="{" horiz-adv-x="614" 
d="M344 -319h-129q-82 0 -132 43t-50 137q0 38 39 250.5t39 263.5q0 153 -129 153l22 123q79 0 131.5 60t71.5 168l63 364q23 135 96 195.5t171 60.5h129l-19 -110h-98q-117 0 -148 -170l-63 -365q-10 -56 -33 -102.5t-49 -74t-56 -47.5t-52 -28t-39 -10v-4q18 -3 39 -13.5
t45.5 -32t40.5 -61t16 -90.5q0 -41 -38 -252t-38 -243q0 -105 92 -105h99z" />
    <glyph glyph-name="bar" unicode="|" horiz-adv-x="454" 
d="M289 -512h-123v2048h123v-2048z" />
    <glyph glyph-name="braceright" unicode="}" horiz-adv-x="614" 
d="M63 -319h-129l21 110h98q117 0 148 170l63 365q12 70 43 123.5t68 81t66.5 41t52.5 16.5v4q-19 3 -40 13.5t-45.5 31.5t-40.5 60t-16 89q0 40 38 251.5t38 246.5q0 105 -92 105h-98l18 110h129q83 0 133.5 -42.5t50.5 -137.5q0 -35 -40 -257.5t-40 -260.5
q0 -150 129 -150l-22 -123q-79 0 -130.5 -59.5t-70.5 -167.5l-63 -364q-23 -135 -97 -195.5t-172 -60.5z" />
    <glyph glyph-name="asciitilde" unicode="~" horiz-adv-x="1363" 
d="M903 481q-61 0 -109.5 15t-117.5 59q-70 44 -115.5 63t-95.5 19q-115 0 -197 -150l-86 82q28 39 52 67t59.5 59.5t78 48t89.5 16.5q115 0 225 -72q132 -84 211 -84q108 0 199 150l86 -82q-122 -191 -279 -191z" />
    <glyph glyph-name="uni00A0" unicode="&#xa0;" horiz-adv-x="512" 
 />
    <glyph glyph-name="exclamdown" unicode="&#xa1;" horiz-adv-x="569" 
d="M309 774q-46 0 -76 29.5t-30 79.5q0 45 32.5 78.5t77.5 33.5q46 0 77.5 -29t31.5 -77t-34 -81.5t-79 -33.5zM160 -467h-148l187 1057h147z" />
    <glyph glyph-name="cent" unicode="&#xa2;" horiz-adv-x="1187" 
d="M571 -147h-98l23 131q-160 26 -252 134t-92 269q0 236 144 405t376 189l22 125h99l-23 -125q98 -8 176.5 -48.5t118.5 -111.5l-121 -80q-22 50 -74 84.5t-118 40.5l-138 -774q163 3 275 125l88 -76q-163 -166 -383 -166zM520 102l133 762q-157 -20 -256.5 -154
t-99.5 -311q0 -113 58.5 -194.5t164.5 -102.5z" />
    <glyph glyph-name="sterling" unicode="&#xa3;" horiz-adv-x="1187" 
d="M905 0h-893l23 121h209l98 569h-197l23 119h192l33 190q92 488 469 488q89 0 166.5 -29.5t128.5 -83.5l-88 -104q-77 94 -211 94q-50 0 -93 -14.5t-73 -36.5t-55 -57t-40 -65t-28 -72.5t-19 -68.5t-13 -63l-31 -178h348l-23 -119h-344l-98 -569h539z" />
    <glyph glyph-name="currency" unicode="&#xa4;" horiz-adv-x="1761" 
d="M559 215l-199 -199l-88 90l197 197q-109 131 -109 330q0 187 103 321l-191 189l90 88l189 -189q142 113 332 113q191 0 327 -111l187 187l90 -88l-184 -185q104 -136 104 -325q0 -198 -113 -336l193 -191l-88 -90l-195 195q-137 -105 -321 -105q-185 0 -324 109zM883 246
q166 0 269 111.5t103 275.5q0 162 -103 272.5t-269 110.5q-167 0 -270 -110.5t-103 -272.5q0 -164 103 -275.5t270 -111.5z" />
    <glyph glyph-name="yen" unicode="&#xa5;" horiz-adv-x="1187" 
d="M549 0h-135l63 350h-338l17 107h338l41 219h-338l16 106h313l-325 668h157l275 -614l483 614h176l-557 -668h293l-16 -106h-342l-41 -219h342l-17 -107h-342z" />
    <glyph glyph-name="brokenbar" unicode="&#xa6;" horiz-adv-x="454" 
d="M289 666h-123v716h123v-716zM289 -358h-123v716h123v-716z" />
    <glyph glyph-name="section" unicode="&#xa7;" horiz-adv-x="1187" 
d="M395 -283q-122 0 -223 59.5t-147 149.5l120 86q34 -82 106.5 -126t145.5 -44q121 0 197 59.5t76 168.5q0 74 -44.5 120.5t-160.5 90.5q-166 62 -236.5 133.5t-70.5 181.5q0 108 64 189.5t190 117.5q-54 33 -82.5 87t-28.5 118q0 156 107.5 261.5t306.5 105.5
q120 0 209 -43t127 -113l-117 -84q-69 115 -221 115q-132 0 -198 -63.5t-66 -158.5q0 -79 45 -124t159 -91q164 -67 234.5 -138t70.5 -175q0 -227 -231 -317q90 -84 90 -199q0 -162 -117.5 -264.5t-304.5 -102.5zM494 414l124 -52q75 15 134 73t59 140q0 73 -44 120t-118 79
l-123 53q-47 -4 -95 -27t-86 -72t-38 -112q0 -77 43 -118.5t144 -83.5z" />
    <glyph glyph-name="dieresis" unicode="&#xa8;" horiz-adv-x="491" 
d="M164 1227q-41 0 -69.5 26.5t-28.5 69.5t30.5 73.5t71.5 30.5q40 0 67 -27t27 -71q0 -41 -29 -71.5t-69 -30.5zM567 1227q-41 0 -68.5 26.5t-27.5 69.5q0 44 30 74t70 30q41 0 69 -27.5t28 -70.5q0 -41 -30 -71.5t-71 -30.5z" />
    <glyph glyph-name="copyright" unicode="&#xa9;" horiz-adv-x="1638" 
d="M821 -45q-159 0 -303 60.5t-248.5 162.5t-166.5 244.5t-62 300.5t62 301.5t166.5 246.5t248.5 163.5t303 60.5q158 0 301.5 -60.5t247.5 -163.5t165.5 -246.5t61.5 -301.5t-61.5 -300.5t-165.5 -244.5t-247.5 -162.5t-301.5 -60.5zM821 70q177 0 327.5 87.5t238.5 238
t88 327.5q0 178 -88 329.5t-238.5 239.5t-327.5 88q-133 0 -255 -52t-210 -140t-140 -210t-52 -255t52 -253.5t140 -208t210 -139.5t255 -52zM840 272q-200 0 -331.5 131t-131.5 332q0 199 131.5 330t331.5 131q99 0 189.5 -44t141.5 -118l-106 -82q-32 48 -93.5 84.5
t-127.5 36.5q-146 0 -236 -99.5t-90 -238.5q0 -141 88 -240.5t234 -99.5q148 0 241 133l107 -69q-54 -82 -144 -134.5t-204 -52.5z" />
    <glyph glyph-name="ordfeminine" unicode="&#xaa;" horiz-adv-x="716" 
d="M350 870q-44 0 -85.5 13t-75 51t-33.5 94q0 46 17.5 82t50.5 58.5t72.5 38t92 23t99.5 10.5t104 3h6q4 28 4 45q0 101 -125 101q-44 0 -92 -20.5t-82 -49.5l-45 72q41 37 109.5 61.5t128.5 24.5q91 0 151 -42t60 -126q0 -22 -5 -62l-43 -233q-12 -90 -12 -129h-88
q0 32 8 94h-2q-79 -109 -215 -109zM379 956q79 0 132 47.5t67 120.5l8 41h-21q-297 0 -297 -127q0 -45 32.5 -63.5t78.5 -18.5z" />
    <glyph glyph-name="guillemotleft" unicode="&#xab;" horiz-adv-x="1015" 
d="M414 131l-103 -68l-217 429l363 428l84 -76l-301 -363zM784 131l-102 -68l-217 429l362 428l84 -76l-301 -363z" />
    <glyph glyph-name="logicalnot" unicode="&#xac;" horiz-adv-x="1363" 
d="M1204 266h-123v447h-921v123h1044v-570z" />
    <glyph glyph-name="uni00AD" unicode="&#xad;" horiz-adv-x="655" 
d="M524 438h-458l20 117h459z" />
    <glyph glyph-name="registered" unicode="&#xae;" horiz-adv-x="1228" 
d="M696 549q-194 0 -330.5 134t-136.5 327t136.5 329t330.5 136t330.5 -136t136.5 -329t-136.5 -327t-330.5 -134zM696 616q162 0 278 116t116 278q0 163 -115.5 278t-278.5 115t-278 -115t-115 -278q0 -162 115.5 -278t277.5 -116zM608 750h-94v524h184q82 0 138.5 -37.5
t56.5 -116.5q0 -56 -32 -92.5t-89 -48.5l141 -229h-114l-123 219h-68v-219zM608 1194v-150h76q115 0 115 78q0 39 -30.5 55.5t-74.5 16.5h-86z" />
    <glyph glyph-name="macron" unicode="&#xaf;" horiz-adv-x="491" 
d="M631 1229h-555l18 110h555z" />
    <glyph glyph-name="degree" unicode="&#xb0;" horiz-adv-x="819" 
d="M512 864q-132 0 -218.5 86.5t-86.5 218.5t86.5 219t218.5 87t218.5 -87t86.5 -219t-86.5 -218.5t-218.5 -86.5zM512 963q86 0 146.5 60t60.5 146t-60.5 146.5t-146.5 60.5t-146.5 -60.5t-60.5 -146.5t60.5 -146t146.5 -60z" />
    <glyph glyph-name="plusminus" unicode="&#xb1;" horiz-adv-x="1363" 
d="M743 401h-122v310h-461v123h461v319h122v-319h461v-123h-461v-310zM1204 98h-1044v123h1044v-123z" />
    <glyph glyph-name="two.sups" unicode="&#xb2;" horiz-adv-x="757" 
d="M731 926h-575l20 123l383 323q73 61 103 108.5t30 96.5q0 55 -36 87t-101 32q-117 0 -164 -142l-115 31q34 101 111.5 160t175.5 59q120 0 186 -61.5t66 -159.5q0 -61 -25.5 -113t-63 -90t-110.5 -98l-297 -246h435z" />
    <glyph glyph-name="three.sups" unicode="&#xb3;" horiz-adv-x="757" 
d="M446 911q-104 0 -176.5 49.5t-101.5 139.5l123 37q30 -115 158 -115q84 0 132 42.5t48 115.5q0 40 -16.5 69t-45.5 44.5t-61.5 22.5t-71.5 7h-39l19 102h43q106 0 158.5 41t52.5 115q0 53 -34.5 84t-92.5 31q-56 0 -94.5 -25.5t-67.5 -77.5l-94 60q87 151 270 151
q104 0 170 -58.5t66 -158.5q0 -87 -50 -140t-123 -73v-4q58 -15 96 -65.5t38 -112.5q0 -132 -85 -206.5t-221 -74.5z" />
    <glyph glyph-name="acute" unicode="&#xb4;" horiz-adv-x="491" 
d="M328 1155h-115l258 295h180z" />
    <glyph glyph-name="uni00B5" unicode="&#xb5;" horiz-adv-x="1218" 
d="M940 150q0 -29 14 -42.5t47 -13.5q28 0 60 8l-10 -104q-40 -16 -101 -16q-74 0 -110.5 36t-36.5 99q0 29 12 76h-8q-53 -101 -145 -160.5t-199 -59.5q-84 0 -142.5 36t-76.5 91l-105 -592h-139l256 1453h139l-98 -547q-10 -58 -10 -101q0 -106 53.5 -164.5t155.5 -58.5
q140 0 233 104t121 261l90 506h139l-129 -732q-10 -63 -10 -79z" />
    <glyph glyph-name="paragraph" unicode="&#xb6;" horiz-adv-x="1228" 
d="M662 -258h-119v938q-193 0 -313.5 106.5t-120.5 266.5q0 195 122.5 296t341.5 101h474v-1708h-119v1614h-266v-1614z" />
    <glyph glyph-name="periodcentered" unicode="&#xb7;" horiz-adv-x="532" 
d="M266 532q-46 0 -77 29.5t-31 77.5q0 49 33.5 82t78.5 33q46 0 76.5 -29.5t30.5 -79.5q0 -45 -33 -79t-78 -34z" />
    <glyph glyph-name="cedilla" unicode="&#xb8;" horiz-adv-x="491" 
d="M55 -471q-45 0 -103 11t-95 30l39 74q62 -29 151 -29q53 0 94 22t41 70q0 38 -28.5 58t-73.5 20q-44 0 -90 -16l-31 30l162 201h88l-123 -154q30 9 64 9q60 0 106.5 -34t46.5 -104q0 -65 -41.5 -109.5t-95 -61.5t-111.5 -17z" />
    <glyph glyph-name="one.sups" unicode="&#xb9;" horiz-adv-x="757" 
d="M498 926h-123l125 708l-154 -116l-61 84l262 188h104z" />
    <glyph glyph-name="ordmasculine" unicode="&#xba;" horiz-adv-x="716" 
d="M408 868q-120 0 -196.5 70t-76.5 180q0 148 100 252.5t250 104.5q121 0 198 -69t77 -179q0 -150 -99.5 -254.5t-252.5 -104.5zM416 961q99 0 165 75.5t66 180.5q0 72 -46 119.5t-122 47.5q-98 0 -163.5 -75.5t-65.5 -180.5q0 -73 45.5 -120t120.5 -47z" />
    <glyph glyph-name="guillemotright" unicode="&#xbb;" horiz-adv-x="1015" 
d="M508 492l-363 -429l-84 76l301 363l-174 350l103 68zM879 492l-363 -429l-84 76l301 363l-174 350l103 68z" />
    <glyph glyph-name="onequarter" unicode="&#xbc;" horiz-adv-x="1720" 
d="M1507 1458l-1190 -1521l-92 55l1192 1521zM467 586h-123l125 708l-154 -116l-61 84l262 188h105zM1372 0h-112l34 203h-387l19 104l456 557h140l-97 -555h136l-21 -106h-133zM1374 696l-319 -387h258l67 387h-6z" />
    <glyph glyph-name="onehalf" unicode="&#xbd;" horiz-adv-x="1720" 
d="M1507 1458l-1190 -1521l-92 55l1192 1521zM467 586h-123l125 708l-154 -116l-61 84l262 188h105zM1520 0h-576l21 123l383 323q73 61 103 108.5t30 96.5q0 55 -36.5 87t-101.5 32q-117 0 -163 -141l-115 30q34 101 111.5 160.5t175.5 59.5q120 0 186 -62t66 -160
q0 -61 -25.5 -113t-63 -90t-110.5 -98l-297 -245h434z" />
    <glyph glyph-name="threequarters" unicode="&#xbe;" horiz-adv-x="1720" 
d="M1507 1458l-1190 -1521l-92 55l1192 1521zM389 582q-104 0 -176.5 49t-101.5 139l122 37q30 -115 158 -115q84 0 132 42.5t48 115.5q0 40 -16.5 69t-45 44.5t-61 22.5t-71.5 7h-39l18 103h43q106 0 158.5 40.5t52.5 114.5q0 53 -34.5 84t-92.5 31q-57 0 -94.5 -25
t-66.5 -77l-95 59q88 152 271 152q104 0 169.5 -58.5t65.5 -159.5q0 -87 -49.5 -140t-122.5 -73v-4q58 -15 95.5 -65.5t37.5 -112.5q0 -132 -84.5 -206t-220.5 -74zM1372 0h-112l34 203h-387l19 104l456 557h140l-97 -555h136l-21 -106h-133zM1374 696l-319 -387h258l67 387
h-6z" />
    <glyph glyph-name="questiondown" unicode="&#xbf;" horiz-adv-x="987" 
d="M506 774q-46 0 -76.5 29.5t-30.5 79.5q0 45 33 78.5t78 33.5q46 0 77 -29t31 -77q0 -49 -33.5 -82t-78.5 -33zM299 -492q-158 0 -257 83.5t-99 242.5q0 78 34 148t84.5 120.5t126.5 104.5q72 51 110 87t66 88.5t39 125.5l13 82h139l-20 -123q-10 -56 -30.5 -102.5
t-53 -85t-61 -64.5t-71.5 -59l-67 -52q-86 -67 -124 -122.5t-38 -143.5q0 -92 59.5 -147.5t153.5 -55.5q116 0 196.5 68t104.5 172l133 -25q-38 -157 -158 -249.5t-280 -92.5z" />
    <glyph glyph-name="Agrave" unicode="&#xc0;" horiz-adv-x="1423" 
d="M766 1860l205 -295h-115l-270 295h180zM829 1450h144l301 -1450h-154l-78 381h-741l-238 -381h-167zM868 1284l-483 -768h635z" />
    <glyph glyph-name="Aacute" unicode="&#xc1;" horiz-adv-x="1423" 
d="M1085 1860h181l-324 -295h-115zM829 1450h144l301 -1450h-154l-78 381h-741l-238 -381h-167zM868 1284l-483 -768h635z" />
    <glyph glyph-name="Acircumflex" unicode="&#xc2;" horiz-adv-x="1423" 
d="M1090 1565l-132 221l-208 -221h-142l277 295h164l170 -295h-129zM829 1450h144l301 -1450h-154l-78 381h-741l-238 -381h-167zM868 1284l-483 -768h635z" />
    <glyph glyph-name="Atilde" unicode="&#xc3;" horiz-adv-x="1423" 
d="M801 1692q-79 0 -119 -103h-88q74 213 227 213q50 0 142 -47q2 -1 14.5 -7.5t15.5 -8l14 -7t15 -7t13.5 -5.5t15 -5t13.5 -3.5t14.5 -3t13.5 -0.5q72 0 118 102h88q-78 -213 -227 -213q-58 0 -141 48q-81 47 -129 47zM-104 0l933 1450h144l301 -1450h-154l-78 381h-741
l-238 -381h-167zM868 1284l-483 -768h635z" />
    <glyph glyph-name="Adieresis" unicode="&#xc4;" horiz-adv-x="1423" 
d="M741 1636q-41 0 -69.5 27t-28.5 70t30.5 73.5t71.5 30.5t68 -27.5t27 -70.5q0 -41 -29.5 -72t-69.5 -31zM1145 1636q-41 0 -68.5 27t-27.5 70q0 44 30 74t70 30q41 0 68.5 -27.5t27.5 -70.5q0 -42 -29.5 -72.5t-70.5 -30.5zM829 1450h144l301 -1450h-154l-78 381h-741
l-238 -381h-167zM868 1284l-483 -768h635z" />
    <glyph glyph-name="Aring" unicode="&#xc5;" horiz-adv-x="1423" 
d="M926 1544q-76 0 -125 45.5t-49 116.5q0 95 63 163t158 68q77 0 125.5 -44.5t48.5 -116.5q0 -97 -63 -164.5t-158 -67.5zM969 1878q-62 0 -104 -49t-42 -117q0 -47 29 -76.5t78 -29.5q63 0 105 48.5t42 117.5q0 46 -29 76t-79 30zM829 1450h144l301 -1450h-154l-78 381
h-741l-238 -381h-167zM868 1284l-483 -768h635z" />
    <glyph glyph-name="AE" unicode="&#xc6;" horiz-adv-x="2027" 
d="M94 0h-182l1200 1450h911l-22 -129h-672l-88 -504h639l-22 -125h-639l-101 -563h725l-22 -129h-869l72 410h-596zM1169 1321l-645 -786h523l139 786h-17z" />
    <glyph glyph-name="Ccedilla" unicode="&#xc7;" horiz-adv-x="1474" 
d="M682 -471q-46 0 -104 11t-95 30l39 74q62 -29 152 -29q53 0 94 22t41 70q0 38 -28.5 58t-73.5 20t-91 -16l-30 30l133 166q-271 17 -435.5 186.5t-164.5 434.5q0 185 68 352t184 287.5t276.5 191t337.5 70.5q160 0 293.5 -63t194.5 -169l-134 -88q-38 79 -132 136
t-226 57q-151 0 -285 -64.5t-225.5 -170.5t-144 -243.5t-52.5 -281.5t57 -258t173 -183t274 -69q282 0 463 217l109 -78q-90 -113 -227.5 -185t-315.5 -79l-94 -119q30 9 63 9q60 0 106 -34t46 -104q0 -65 -41 -109.5t-94 -61.5t-111 -17z" />
    <glyph glyph-name="Egrave" unicode="&#xc8;" horiz-adv-x="1187" 
d="M913 1565h-114l-271 295h181zM1006 0h-924l256 1450h870l-22 -129h-725l-88 -504h692l-23 -125h-692l-100 -563h778z" />
    <glyph glyph-name="Eacute" unicode="&#xc9;" horiz-adv-x="1187" 
d="M821 1565h-114l258 295h180zM1006 0h-924l256 1450h870l-22 -129h-725l-88 -504h692l-23 -125h-692l-100 -563h778z" />
    <glyph glyph-name="Ecircumflex" unicode="&#xca;" horiz-adv-x="1187" 
d="M627 1565h-142l277 295h164l170 -295h-129l-131 221zM1006 0h-924l256 1450h870l-22 -129h-725l-88 -504h692l-23 -125h-692l-100 -563h778z" />
    <glyph glyph-name="Edieresis" unicode="&#xcb;" horiz-adv-x="1187" 
d="M614 1636q-41 0 -69.5 27t-28.5 70t30.5 73.5t71.5 30.5q40 0 67.5 -27.5t27.5 -70.5q0 -41 -29.5 -72t-69.5 -31zM1018 1636q-41 0 -68.5 27t-27.5 70q0 44 30 74t70 30q41 0 68.5 -27.5t27.5 -70.5q0 -42 -29.5 -72.5t-70.5 -30.5zM1006 0h-924l256 1450h870l-22 -129
h-725l-88 -504h692l-23 -125h-692l-100 -563h778z" />
    <glyph glyph-name="Igrave" unicode="&#xcc;" horiz-adv-x="532" 
d="M487 1565h-114l-271 295h181zM227 0h-145l256 1450h145z" />
    <glyph glyph-name="Iacute" unicode="&#xcd;" horiz-adv-x="532" 
d="M469 1565h-115l258 295h181zM227 0h-145l256 1450h145z" />
    <glyph glyph-name="Icircumflex" unicode="&#xce;" horiz-adv-x="532" 
d="M262 1565h-141l276 295h164l170 -295h-129l-131 221zM227 0h-145l256 1450h145z" />
    <glyph glyph-name="Idieresis" unicode="&#xcf;" horiz-adv-x="532" 
d="M248 1636q-41 0 -69.5 27t-28.5 70t30.5 73.5t71.5 30.5q40 0 67 -27t27 -71q0 -41 -29 -72t-69 -31zM651 1636q-41 0 -68.5 27t-27.5 70q0 44 30 74t70 30q41 0 69 -27.5t28 -70.5q0 -41 -30 -72t-71 -31zM227 0h-145l256 1450h145z" />
    <glyph glyph-name="Eth" unicode="&#xd0;" horiz-adv-x="1550" 
d="M567 0h-485l125 711h-144l21 110h143l111 629h438q83 0 163 -15t156.5 -45.5t140.5 -80t113 -115t76 -155.5t27 -195q0 -188 -67 -346.5t-184.5 -267.5t-281 -169.5t-352.5 -60.5zM352 711l-102 -582h328q137 0 255 38.5t202 105t143.5 155.5t88.5 190.5t29 208.5
q0 104 -33 191.5t-99 156t-174 107.5t-247 39h-282l-88 -500h514l-21 -110h-514z" />
    <glyph glyph-name="Ntilde" unicode="&#xd1;" horiz-adv-x="1536" 
d="M684 1589h-88q74 213 227 213q50 0 142 -47q2 -1 14.5 -7.5t15.5 -8l14 -7t15 -7t13.5 -5.5t15 -5t13.5 -3.5t14.5 -3t13.5 -0.5q72 0 118 102h88q-78 -213 -227 -213q-58 0 -141 48q-81 47 -129 47q-79 0 -119 -103zM229 0h-145l256 1450h182l596 -1243h4l219 1243h146
l-256 -1450h-182l-594 1260h-4z" />
    <glyph glyph-name="Ograve" unicode="&#xd2;" horiz-adv-x="1708" 
d="M1104 1565h-115l-270 295h180zM764 -37q-188 0 -334.5 77.5t-228.5 219.5t-82 326q0 185 65.5 351.5t178 287t269.5 191.5t333 71q187 0 333.5 -77t229 -218t82.5 -324q0 -247 -109 -454t-304 -329t-433 -122zM770 90q148 0 277.5 64t217.5 170t138.5 244t50.5 286
q0 142 -56.5 255.5t-170.5 182t-269 68.5q-120 0 -228.5 -42t-190.5 -115t-142.5 -169t-91.5 -208t-31 -228q0 -106 32.5 -198t94 -161.5t156.5 -109t213 -39.5z" />
    <glyph glyph-name="Oacute" unicode="&#xd3;" horiz-adv-x="1708" 
d="M1016 1565h-115l258 295h180zM764 -37q-188 0 -334.5 77.5t-228.5 219.5t-82 326q0 185 65.5 351.5t178 287t269.5 191.5t333 71q187 0 333.5 -77t229 -218t82.5 -324q0 -247 -109 -454t-304 -329t-433 -122zM770 90q148 0 277.5 64t217.5 170t138.5 244t50.5 286
q0 142 -56.5 255.5t-170.5 182t-269 68.5q-120 0 -228.5 -42t-190.5 -115t-142.5 -169t-91.5 -208t-31 -228q0 -106 32.5 -198t94 -161.5t156.5 -109t213 -39.5z" />
    <glyph glyph-name="Ocircumflex" unicode="&#xd4;" horiz-adv-x="1708" 
d="M850 1565h-141l276 295h164l170 -295h-129l-131 221zM764 -37q-188 0 -334.5 77.5t-228.5 219.5t-82 326q0 185 65.5 351.5t178 287t269.5 191.5t333 71q187 0 333.5 -77t229 -218t82.5 -324q0 -247 -109 -454t-304 -329t-433 -122zM770 90q148 0 277.5 64t217.5 170
t138.5 244t50.5 286q0 142 -56.5 255.5t-170.5 182t-269 68.5q-120 0 -228.5 -42t-190.5 -115t-142.5 -169t-91.5 -208t-31 -228q0 -106 32.5 -198t94 -161.5t156.5 -109t213 -39.5z" />
    <glyph glyph-name="Otilde" unicode="&#xd5;" horiz-adv-x="1708" 
d="M768 1589h-88q74 213 227 213q50 0 142 -47q2 -1 14.5 -7.5t15.5 -8l14 -7t15 -7t13.5 -5.5t15 -5t13.5 -3.5t14.5 -3t13.5 -0.5q72 0 118 102h88q-78 -213 -227 -213q-58 0 -141 48q-81 47 -129 47q-79 0 -119 -103zM764 -37q-188 0 -334.5 77.5t-228.5 219.5t-82 326
q0 185 65.5 351.5t178 287t269.5 191.5t333 71q187 0 333.5 -77t229 -218t82.5 -324q0 -247 -109 -454t-304 -329t-433 -122zM770 90q148 0 277.5 64t217.5 170t138.5 244t50.5 286q0 142 -56.5 255.5t-170.5 182t-269 68.5q-120 0 -228.5 -42t-190.5 -115t-142.5 -169
t-91.5 -208t-31 -228q0 -106 32.5 -198t94 -161.5t156.5 -109t213 -39.5z" />
    <glyph glyph-name="Odieresis" unicode="&#xd6;" horiz-adv-x="1708" 
d="M834 1636q-41 0 -70 27t-29 70t31 73.5t72 30.5q40 0 67 -27t27 -71q0 -41 -29 -72t-69 -31zM1237 1636q-41 0 -68.5 27t-27.5 70q0 44 30 74t70 30q41 0 68.5 -27.5t27.5 -70.5q0 -42 -29.5 -72.5t-70.5 -30.5zM764 -37q-188 0 -334.5 77.5t-228.5 219.5t-82 326
q0 185 65.5 351.5t178 287t269.5 191.5t333 71q187 0 333.5 -77t229 -218t82.5 -324q0 -247 -109 -454t-304 -329t-433 -122zM770 90q148 0 277.5 64t217.5 170t138.5 244t50.5 286q0 142 -56.5 255.5t-170.5 182t-269 68.5q-120 0 -228.5 -42t-190.5 -115t-142.5 -169
t-91.5 -208t-31 -228q0 -106 32.5 -198t94 -161.5t156.5 -109t213 -39.5z" />
    <glyph glyph-name="multiply" unicode="&#xd7;" horiz-adv-x="1363" 
d="M682 532l-326 -325l-86 88l326 326l-326 327l86 86l326 -325l324 325l88 -86l-326 -327l326 -326l-88 -88z" />
    <glyph glyph-name="Oslash" unicode="&#xd8;" horiz-adv-x="1708" 
d="M297 137l-184 -174l-62 70l187 172q-119 160 -119 381q0 184 68 351t183 287.5t274 191.5t335 71q139 0 258.5 -44.5t206.5 -127.5l184 172l62 -70l-185 -172q119 -157 119 -377q0 -246 -112.5 -453.5t-310.5 -329.5t-437 -122q-142 0 -262 45t-205 129zM352 305l983 914
q-135 141 -362 141q-120 0 -230 -42t-194.5 -115t-147 -169t-95 -208.5t-32.5 -227.5q0 -165 78 -293zM770 90q148 0 279.5 64t222.5 169.5t143.5 244.5t52.5 286q0 165 -75 289l-987 -907q133 -146 364 -146z" />
    <glyph glyph-name="Ugrave" unicode="&#xd9;" horiz-adv-x="1454" 
d="M983 1565h-115l-270 295h180zM637 -37q-126 0 -221.5 38t-150 102t-81 139.5t-26.5 160.5q0 73 12 138l160 909h145l-158 -893q-12 -65 -12 -125q0 -72 18 -131.5t56.5 -108t106 -75.5t159.5 -27q384 0 465 467l158 893h145l-160 -909q-14 -81 -38.5 -154t-73.5 -153
t-113.5 -138t-165.5 -95.5t-225 -37.5z" />
    <glyph glyph-name="Uacute" unicode="&#xda;" horiz-adv-x="1454" 
d="M897 1565h-115l258 295h181zM637 -37q-126 0 -221.5 38t-150 102t-81 139.5t-26.5 160.5q0 73 12 138l160 909h145l-158 -893q-12 -65 -12 -125q0 -72 18 -131.5t56.5 -108t106 -75.5t159.5 -27q384 0 465 467l158 893h145l-160 -909q-14 -81 -38.5 -154t-73.5 -153
t-113.5 -138t-165.5 -95.5t-225 -37.5z" />
    <glyph glyph-name="Ucircumflex" unicode="&#xdb;" horiz-adv-x="1454" 
d="M725 1565h-141l276 295h164l170 -295h-129l-131 221zM637 -37q-126 0 -221.5 38t-150 102t-81 139.5t-26.5 160.5q0 73 12 138l160 909h145l-158 -893q-12 -65 -12 -125q0 -72 18 -131.5t56.5 -108t106 -75.5t159.5 -27q384 0 465 467l158 893h145l-160 -909
q-14 -81 -38.5 -154t-73.5 -153t-113.5 -138t-165.5 -95.5t-225 -37.5z" />
    <glyph glyph-name="Udieresis" unicode="&#xdc;" horiz-adv-x="1454" 
d="M711 1636q-41 0 -70 27t-29 70t31 73.5t72 30.5q40 0 67 -27t27 -71q0 -41 -29 -72t-69 -31zM1114 1636q-41 0 -68.5 27t-27.5 70q0 44 30 74t70 30q41 0 68.5 -27.5t27.5 -70.5q0 -42 -29.5 -72.5t-70.5 -30.5zM637 -37q-126 0 -221.5 38t-150 102t-81 139.5
t-26.5 160.5q0 73 12 138l160 909h145l-158 -893q-12 -65 -12 -125q0 -72 18 -131.5t56.5 -108t106 -75.5t159.5 -27q384 0 465 467l158 893h145l-160 -909q-14 -81 -38.5 -154t-73.5 -153t-113.5 -138t-165.5 -95.5t-225 -37.5z" />
    <glyph glyph-name="Yacute" unicode="&#xdd;" horiz-adv-x="1140" 
d="M899 1860h180l-323 -295h-115zM563 745l580 705h182l-709 -825l-110 -625h-146l111 625l-369 825h172z" />
    <glyph glyph-name="Thorn" unicode="&#xde;" horiz-adv-x="1187" 
d="M229 0h-145l256 1450h145l-55 -317h242q211 0 328.5 -92.5t117.5 -256.5q0 -208 -150 -318t-401 -110h-274zM408 1008l-95 -531h267q185 0 288 75t103 216q0 128 -80.5 184t-231.5 56h-251z" />
    <glyph glyph-name="germandbls" unicode="&#xdf;" horiz-adv-x="1214" 
d="M518 -25q-70 0 -127 11l21 116q50 -8 104 -8q81 0 153 22t134.5 68t99.5 129t37 195q0 138 -92.5 223.5t-247.5 85.5h-18l22 123h17q142 0 241 76.5t99 210.5q0 108 -63.5 165.5t-170.5 57.5q-67 0 -121.5 -22t-89.5 -56t-61.5 -81t-40 -90t-21.5 -91l-196 -1110h-136
l197 1114q12 69 33 130t59 123t88.5 106.5t126 72t166.5 27.5q170 0 271.5 -92.5t101.5 -239.5q0 -132 -81.5 -227t-219.5 -129v-4q129 -26 205.5 -127t76.5 -240q0 -249 -158 -394t-409 -145z" />
    <glyph glyph-name="agrave" unicode="&#xe0;" horiz-adv-x="1093" 
d="M731 1155h-115l-270 295h180zM338 -18q-52 0 -100.5 13t-92.5 40t-71 77.5t-27 116.5q0 64 22.5 116t60.5 88.5t94.5 64.5t118 45t138 27t146.5 14t151 4h6q11 65 11 90q0 190 -226 190q-80 0 -160.5 -32.5t-138.5 -81.5l-61 92q69 62 172 99.5t203 37.5
q95 0 169.5 -27.5t122.5 -91t48 -157.5q0 -42 -9 -103l-69 -389q-23 -142 -23 -215h-123q0 73 13 156h-4q-83 -95 -167 -134.5t-204 -39.5zM387 92q143 0 242 89t123 222l14 80h-33q-543 0 -543 -237q0 -83 56 -118.5t141 -35.5z" />
    <glyph glyph-name="aacute" unicode="&#xe1;" horiz-adv-x="1093" 
d="M643 1155h-115l258 295h181zM338 -18q-52 0 -100.5 13t-92.5 40t-71 77.5t-27 116.5q0 64 22.5 116t60.5 88.5t94.5 64.5t118 45t138 27t146.5 14t151 4h6q11 65 11 90q0 190 -226 190q-80 0 -160.5 -32.5t-138.5 -81.5l-61 92q69 62 172 99.5t203 37.5q95 0 169.5 -27.5
t122.5 -91t48 -157.5q0 -42 -9 -103l-69 -389q-23 -142 -23 -215h-123q0 73 13 156h-4q-83 -95 -167 -134.5t-204 -39.5zM387 92q143 0 242 89t123 222l14 80h-33q-543 0 -543 -237q0 -83 56 -118.5t141 -35.5z" />
    <glyph glyph-name="acircumflex" unicode="&#xe2;" horiz-adv-x="1093" 
d="M477 1155h-141l276 295h164l170 -295h-129l-131 221zM338 -18q-52 0 -100.5 13t-92.5 40t-71 77.5t-27 116.5q0 64 22.5 116t60.5 88.5t94.5 64.5t118 45t138 27t146.5 14t151 4h6q11 65 11 90q0 190 -226 190q-80 0 -160.5 -32.5t-138.5 -81.5l-61 92q69 62 172 99.5
t203 37.5q95 0 169.5 -27.5t122.5 -91t48 -157.5q0 -42 -9 -103l-69 -389q-23 -142 -23 -215h-123q0 73 13 156h-4q-83 -95 -167 -134.5t-204 -39.5zM387 92q143 0 242 89t123 222l14 80h-33q-543 0 -543 -237q0 -83 56 -118.5t141 -35.5z" />
    <glyph glyph-name="atilde" unicode="&#xe3;" horiz-adv-x="1093" 
d="M395 1180h-88q74 213 225 213q59 0 144 -47q4 -2 18.5 -9.5t20 -10t18 -8.5t19.5 -8.5t17 -6t18.5 -4.5t17.5 -1q73 0 119 103h88q-78 -213 -228 -213q-49 0 -141 47q-81 47 -131 47q-77 0 -117 -102zM338 -18q-52 0 -100.5 13t-92.5 40t-71 77.5t-27 116.5
q0 64 22.5 116t60.5 88.5t94.5 64.5t118 45t138 27t146.5 14t151 4h6q11 65 11 90q0 190 -226 190q-80 0 -160.5 -32.5t-138.5 -81.5l-61 92q69 62 172 99.5t203 37.5q95 0 169.5 -27.5t122.5 -91t48 -157.5q0 -42 -9 -103l-69 -389q-23 -142 -23 -215h-123q0 73 13 156h-4
q-83 -95 -167 -134.5t-204 -39.5zM387 92q143 0 242 89t123 222l14 80h-33q-543 0 -543 -237q0 -83 56 -118.5t141 -35.5z" />
    <glyph glyph-name="adieresis" unicode="&#xe4;" horiz-adv-x="1093" 
d="M461 1227q-41 0 -70 26.5t-29 69.5t31 73.5t72 30.5q40 0 67 -27t27 -71q0 -41 -29 -71.5t-69 -30.5zM864 1227q-41 0 -68.5 26.5t-27.5 69.5q0 44 30 74t70 30q41 0 69 -27.5t28 -70.5q0 -41 -30 -71.5t-71 -30.5zM338 -18q-52 0 -100.5 13t-92.5 40t-71 77.5t-27 116.5
q0 64 22.5 116t60.5 88.5t94.5 64.5t118 45t138 27t146.5 14t151 4h6q11 65 11 90q0 190 -226 190q-80 0 -160.5 -32.5t-138.5 -81.5l-61 92q69 62 172 99.5t203 37.5q95 0 169.5 -27.5t122.5 -91t48 -157.5q0 -42 -9 -103l-69 -389q-23 -142 -23 -215h-123q0 73 13 156h-4
q-83 -95 -167 -134.5t-204 -39.5zM387 92q143 0 242 89t123 222l14 80h-33q-543 0 -543 -237q0 -83 56 -118.5t141 -35.5z" />
    <glyph glyph-name="aring" unicode="&#xe5;" horiz-adv-x="1093" 
d="M645 1135q-77 0 -126.5 45.5t-49.5 115.5q0 95 64 163.5t159 68.5q77 0 125.5 -45t48.5 -117q0 -97 -63 -164t-158 -67zM649 1196q64 0 106 48.5t42 117.5q0 46 -29.5 76t-79.5 30q-62 0 -103.5 -48.5t-41.5 -116.5q0 -47 28.5 -77t77.5 -30zM338 -18q-52 0 -100.5 13
t-92.5 40t-71 77.5t-27 116.5q0 64 22.5 116t60.5 88.5t94.5 64.5t118 45t138 27t146.5 14t151 4h6q11 65 11 90q0 190 -226 190q-80 0 -160.5 -32.5t-138.5 -81.5l-61 92q69 62 172 99.5t203 37.5q95 0 169.5 -27.5t122.5 -91t48 -157.5q0 -42 -9 -103l-69 -389
q-23 -142 -23 -215h-123q0 73 13 156h-4q-83 -95 -167 -134.5t-204 -39.5zM387 92q143 0 242 89t123 222l14 80h-33q-543 0 -543 -237q0 -83 56 -118.5t141 -35.5z" />
    <glyph glyph-name="ae" unicode="&#xe6;" horiz-adv-x="1810" 
d="M369 -18q-61 0 -115.5 13t-102.5 40.5t-76 77t-28 116.5q0 59 22 106.5t59 80t93.5 56.5t115 38t136 22t144.5 10.5t151 2.5h6q21 99 21 133q0 190 -226 190q-80 0 -160.5 -32.5t-138.5 -81.5l-61 92q69 62 172 99.5t203 37.5q116 0 202.5 -46t118.5 -140
q56 79 162 132.5t209 53.5q191 0 295 -102.5t104 -272.5q0 -95 -18 -166h-772q-4 -32 -4 -45q0 -135 79.5 -220t208.5 -85q106 0 191 47t141 121l86 -82q-83 -99 -194 -151t-236 -52t-224.5 68.5t-135.5 173.5q-131 -235 -428 -235zM903 545h631q4 40 4 71q0 114 -69.5 183
t-196.5 69q-137 0 -237 -93t-132 -230zM387 92q145 0 244 87t121 224l6 39h-33q-115 0 -203.5 -8t-167.5 -28.5t-121.5 -61t-42.5 -98.5q0 -83 56 -118.5t141 -35.5z" />
    <glyph glyph-name="ccedilla" unicode="&#xe7;" horiz-adv-x="1024" 
d="M412 -471q-46 0 -104 11t-95 30l39 74q62 -29 151 -29q53 0 94.5 22t41.5 70q0 38 -29 58t-74 20q-44 0 -90 -16l-31 30l144 181q-174 17 -276.5 127.5t-102.5 279.5q0 122 41.5 231t115 190t181.5 128t235 47q112 0 204 -41t136 -121l-121 -80q-25 56 -85.5 91.5
t-137.5 35.5q-183 0 -303.5 -137t-120.5 -332q0 -135 83.5 -221t226.5 -86q167 0 282 125l88 -76q-155 -158 -360 -166l-103 -129q30 9 64 9q60 0 105.5 -34t45.5 -104q0 -40 -15.5 -72.5t-40.5 -53.5t-58 -35.5t-65.5 -20.5t-65.5 -6z" />
    <glyph glyph-name="egrave" unicode="&#xe8;" horiz-adv-x="1159" 
d="M739 1155h-114l-271 295h181zM506 -25q-190 0 -313 113t-123 309q0 154 73 288.5t201.5 216t280.5 81.5q191 0 295 -102.5t104 -272.5q0 -95 -18 -166h-793q-4 -32 -4 -45q0 -132 88.5 -218.5t220.5 -86.5q106 0 191 47t141 121l86 -82q-83 -99 -194 -151t-236 -52z
M231 545h652q4 40 4 71q0 114 -69.5 183t-196.5 69q-146 0 -252 -93t-138 -230z" />
    <glyph glyph-name="eacute" unicode="&#xe9;" horiz-adv-x="1159" 
d="M664 1155h-115l258 295h180zM506 -25q-190 0 -313 113t-123 309q0 154 73 288.5t201.5 216t280.5 81.5q191 0 295 -102.5t104 -272.5q0 -95 -18 -166h-793q-4 -32 -4 -45q0 -132 88.5 -218.5t220.5 -86.5q106 0 191 47t141 121l86 -82q-83 -99 -194 -151t-236 -52z
M231 545h652q4 40 4 71q0 114 -69.5 183t-196.5 69q-146 0 -252 -93t-138 -230z" />
    <glyph glyph-name="ecircumflex" unicode="&#xea;" horiz-adv-x="1159" 
d="M520 1155h-141l276 295h164l170 -295h-129l-131 221zM506 -25q-190 0 -313 113t-123 309q0 154 73 288.5t201.5 216t280.5 81.5q191 0 295 -102.5t104 -272.5q0 -95 -18 -166h-793q-4 -32 -4 -45q0 -132 88.5 -218.5t220.5 -86.5q106 0 191 47t141 121l86 -82
q-83 -99 -194 -151t-236 -52zM231 545h652q4 40 4 71q0 114 -69.5 183t-196.5 69q-146 0 -252 -93t-138 -230z" />
    <glyph glyph-name="edieresis" unicode="&#xeb;" horiz-adv-x="1159" 
d="M500 1227q-41 0 -70 26.5t-29 69.5t31 73.5t72 30.5q40 0 67 -27t27 -71q0 -41 -29 -71.5t-69 -30.5zM903 1227q-41 0 -68.5 26.5t-27.5 69.5q0 44 30 74t70 30q41 0 69 -27.5t28 -70.5q0 -41 -30 -71.5t-71 -30.5zM506 -25q-190 0 -313 113t-123 309q0 154 73 288.5
t201.5 216t280.5 81.5q191 0 295 -102.5t104 -272.5q0 -95 -18 -166h-793q-4 -32 -4 -45q0 -132 88.5 -218.5t220.5 -86.5q106 0 191 47t141 121l86 -82q-83 -99 -194 -151t-236 -52zM231 545h652q4 40 4 71q0 114 -69.5 183t-196.5 69q-146 0 -252 -93t-138 -230z" />
    <glyph glyph-name="igrave" unicode="&#xec;" horiz-adv-x="512" 
d="M424 1155h-115l-270 295h180zM213 0h-137l170 961h137z" />
    <glyph glyph-name="iacute" unicode="&#xed;" horiz-adv-x="512" 
d="M385 1155h-115l258 295h181zM213 0h-137l170 961h137z" />
    <glyph glyph-name="icircumflex" unicode="&#xee;" horiz-adv-x="512" 
d="M184 1155h-141l276 295h164l170 -295h-129l-131 221zM213 0h-137l170 961h137z" />
    <glyph glyph-name="idieresis" unicode="&#xef;" horiz-adv-x="512" 
d="M166 1227q-41 0 -69.5 26.5t-28.5 69.5t30.5 73.5t71.5 30.5q40 0 67 -27t27 -71q0 -41 -29 -71.5t-69 -30.5zM569 1227q-41 0 -68.5 26.5t-27.5 69.5q0 44 30 74t70 30q41 0 69 -27.5t28 -70.5q0 -41 -30 -71.5t-71 -30.5zM213 0h-137l170 961h137z" />
    <glyph glyph-name="eth" unicode="&#xf0;" horiz-adv-x="1220" 
d="M530 -25q-194 0 -318 116t-124 300q0 120 42.5 228.5t117 188.5t181 127.5t228.5 47.5q95 0 164 -28t133 -91l7 4q-35 117 -100 227t-148 195l-250 -116l-62 73l246 115q-16 18 -33.5 35.5t-39 36t-34 29t-38.5 31t-31 24.5l125 75q104 -87 176 -168l227 109l70 -72
l-231 -110q127 -139 198.5 -317t71.5 -369q0 -103 -18.5 -198.5t-62 -186t-108.5 -158t-165 -108t-224 -40.5zM539 92q119 0 215.5 64t149 171.5t52.5 233.5q0 134 -83 220.5t-224 86.5q-117 0 -213 -64.5t-149.5 -172t-53.5 -232.5q0 -135 83 -221t223 -86z" />
    <glyph glyph-name="ntilde" unicode="&#xf1;" horiz-adv-x="1181" 
d="M432 1180h-88q74 213 225 213q59 0 144 -47q4 -2 18.5 -9.5t20 -10t18 -8.5t19.5 -8.5t17 -6t18.5 -4.5t17.5 -1q73 0 119 103h88q-78 -213 -228 -213q-49 0 -141 47q-81 47 -131 47q-77 0 -117 -102zM211 0h-137l131 750q28 179 31 211h133q-14 -116 -23 -164h4
q55 88 143 138t185 50q154 0 242 -78.5t88 -214.5q0 -34 -11 -102l-104 -590h-137l94 532q12 64 12 121q0 105 -49.5 161t-163.5 56q-119 0 -219.5 -97.5t-132.5 -278.5z" />
    <glyph glyph-name="ograve" unicode="&#xf2;" horiz-adv-x="1220" 
d="M764 1155h-115l-270 295h180zM512 -25q-194 0 -318 116t-124 300q0 120 42.5 228.5t117 188.5t181 127.5t228.5 47.5q195 0 318.5 -115t123.5 -299q0 -163 -72 -298.5t-203 -215.5t-294 -80zM520 92q119 0 215.5 64t149.5 171.5t53 233.5q0 134 -83 220.5t-224 86.5
q-117 0 -213 -64.5t-149.5 -172t-53.5 -232.5q0 -135 82.5 -221t222.5 -86z" />
    <glyph glyph-name="oacute" unicode="&#xf3;" horiz-adv-x="1220" 
d="M692 1155h-114l258 295h180zM512 -25q-194 0 -318 116t-124 300q0 120 42.5 228.5t117 188.5t181 127.5t228.5 47.5q195 0 318.5 -115t123.5 -299q0 -163 -72 -298.5t-203 -215.5t-294 -80zM520 92q119 0 215.5 64t149.5 171.5t53 233.5q0 134 -83 220.5t-224 86.5
q-117 0 -213 -64.5t-149.5 -172t-53.5 -232.5q0 -135 82.5 -221t222.5 -86z" />
    <glyph glyph-name="ocircumflex" unicode="&#xf4;" horiz-adv-x="1220" 
d="M541 1155h-142l277 295h164l170 -295h-129l-131 221zM512 -25q-194 0 -318 116t-124 300q0 120 42.5 228.5t117 188.5t181 127.5t228.5 47.5q195 0 318.5 -115t123.5 -299q0 -163 -72 -298.5t-203 -215.5t-294 -80zM520 92q119 0 215.5 64t149.5 171.5t53 233.5
q0 134 -83 220.5t-224 86.5q-117 0 -213 -64.5t-149.5 -172t-53.5 -232.5q0 -135 82.5 -221t222.5 -86z" />
    <glyph glyph-name="otilde" unicode="&#xf5;" horiz-adv-x="1220" 
d="M444 1180h-88q74 213 226 213q58 0 143 -47q4 -2 18.5 -9.5t20 -10t18 -8.5t19.5 -8.5t17 -6t18.5 -4.5t17.5 -1q73 0 119 103h88q-78 -213 -227 -213q-50 0 -142 47q-81 47 -131 47q-77 0 -117 -102zM512 -25q-194 0 -318 116t-124 300q0 120 42.5 228.5t117 188.5
t181 127.5t228.5 47.5q195 0 318.5 -115t123.5 -299q0 -163 -72 -298.5t-203 -215.5t-294 -80zM520 92q119 0 215.5 64t149.5 171.5t53 233.5q0 134 -83 220.5t-224 86.5q-117 0 -213 -64.5t-149.5 -172t-53.5 -232.5q0 -135 82.5 -221t222.5 -86z" />
    <glyph glyph-name="odieresis" unicode="&#xf6;" horiz-adv-x="1220" 
d="M510 1227q-41 0 -69.5 26.5t-28.5 69.5t30.5 73.5t71.5 30.5q40 0 67 -27t27 -71q0 -41 -29 -71.5t-69 -30.5zM913 1227q-41 0 -68.5 26.5t-27.5 69.5t30.5 73.5t70.5 30.5q41 0 68.5 -27.5t27.5 -70.5q0 -41 -30 -71.5t-71 -30.5zM512 -25q-194 0 -318 116t-124 300
q0 120 42.5 228.5t117 188.5t181 127.5t228.5 47.5q195 0 318.5 -115t123.5 -299q0 -163 -72 -298.5t-203 -215.5t-294 -80zM520 92q119 0 215.5 64t149.5 171.5t53 233.5q0 134 -83 220.5t-224 86.5q-117 0 -213 -64.5t-149.5 -172t-53.5 -232.5q0 -135 82.5 -221
t222.5 -86z" />
    <glyph glyph-name="divide" unicode="&#xf7;" horiz-adv-x="1363" 
d="M682 842q-48 0 -79.5 33t-31.5 77t31.5 77.5t79.5 33.5t79.5 -33.5t31.5 -77.5t-31.5 -77t-79.5 -33zM1204 559h-1044v123h1044v-123zM682 178q-48 0 -79.5 33.5t-31.5 77.5t31.5 77t79.5 33t79.5 -33t31.5 -77t-31.5 -77.5t-79.5 -33.5z" />
    <glyph glyph-name="oslash" unicode="&#xf8;" horiz-adv-x="1220" 
d="M203 84l-162 -141l-51 63l157 137q-77 104 -77 248q0 120 42.5 228.5t117 188.5t181 127.5t228.5 47.5q192 0 313 -109l158 142l53 -64l-157 -139q75 -101 75 -244q0 -163 -72 -298.5t-203 -215.5t-294 -80q-188 0 -309 109zM252 242l600 542q-84 84 -221 84
q-117 0 -213 -64.5t-149.5 -172t-53.5 -232.5q0 -90 37 -157zM520 92q119 0 215.5 64t149.5 171.5t53 233.5q0 89 -37 156l-602 -539q83 -86 221 -86z" />
    <glyph glyph-name="ugrave" unicode="&#xf9;" horiz-adv-x="1181" 
d="M713 1155h-115l-270 295h180zM436 -25q-154 0 -242 78.5t-88 214.5q0 35 11 103l104 590h137l-94 -533q-12 -64 -12 -121q0 -105 49.5 -160t163.5 -55q119 0 219.5 97t132.5 278l86 494h137l-131 -750q-26 -164 -30 -211h-134q14 116 23 164h-4q-55 -88 -143 -138.5
t-185 -50.5z" />
    <glyph glyph-name="uacute" unicode="&#xfa;" horiz-adv-x="1181" 
d="M678 1155h-115l258 295h180zM436 -25q-154 0 -242 78.5t-88 214.5q0 35 11 103l104 590h137l-94 -533q-12 -64 -12 -121q0 -105 49.5 -160t163.5 -55q119 0 219.5 97t132.5 278l86 494h137l-131 -750q-26 -164 -30 -211h-134q14 116 23 164h-4q-55 -88 -143 -138.5
t-185 -50.5z" />
    <glyph glyph-name="ucircumflex" unicode="&#xfb;" horiz-adv-x="1181" 
d="M510 1155h-141l276 295h164l170 -295h-129l-131 221zM436 -25q-154 0 -242 78.5t-88 214.5q0 35 11 103l104 590h137l-94 -533q-12 -64 -12 -121q0 -105 49.5 -160t163.5 -55q119 0 219.5 97t132.5 278l86 494h137l-131 -750q-26 -164 -30 -211h-134q14 116 23 164h-4
q-55 -88 -143 -138.5t-185 -50.5z" />
    <glyph glyph-name="udieresis" unicode="&#xfc;" horiz-adv-x="1181" 
d="M487 1227q-41 0 -69.5 26.5t-28.5 69.5t31 73.5t72 30.5q40 0 67 -27t27 -71q0 -41 -29.5 -71.5t-69.5 -30.5zM891 1227q-41 0 -68.5 26.5t-27.5 69.5q0 44 30 74t70 30q41 0 68.5 -27.5t27.5 -70.5q0 -41 -29.5 -71.5t-70.5 -30.5zM436 -25q-154 0 -242 78.5t-88 214.5
q0 35 11 103l104 590h137l-94 -533q-12 -64 -12 -121q0 -105 49.5 -160t163.5 -55q119 0 219.5 97t132.5 278l86 494h137l-131 -750q-26 -164 -30 -211h-134q14 116 23 164h-4q-55 -88 -143 -138.5t-185 -50.5z" />
    <glyph glyph-name="yacute" unicode="&#xfd;" horiz-adv-x="989" 
d="M604 1155h-115l259 295h180zM-31 -492q-53 0 -116 13l20 127q49 -17 90 -17q62 0 110.5 42t98.5 128l119 201l-201 959h143l154 -809h4l467 809h154l-725 -1209q-74 -123 -146.5 -183.5t-171.5 -60.5z" />
    <glyph glyph-name="thorn" unicode="&#xfe;" horiz-adv-x="1286" 
d="M129 -492h-137l358 2040h137l-129 -745h4q48 76 145 128t208 52q194 0 313 -114.5t119 -299.5q0 -162 -72.5 -298t-202 -216t-288.5 -80q-106 0 -197.5 49.5t-136.5 137.5h-4zM586 92q185 0 301.5 135t116.5 334q0 134 -80 220.5t-222 86.5q-118 0 -216 -63.5
t-154 -170.5t-56 -233q0 -136 85 -222.5t225 -86.5z" />
    <glyph glyph-name="ydieresis" unicode="&#xff;" horiz-adv-x="989" 
d="M391 1227q-41 0 -69.5 26.5t-28.5 69.5t30.5 73.5t71.5 30.5q40 0 67 -27t27 -71q0 -41 -29 -71.5t-69 -30.5zM795 1227q-41 0 -69 26.5t-28 69.5t30 73.5t71 30.5t68.5 -27.5t27.5 -70.5q0 -41 -29.5 -71.5t-70.5 -30.5zM-31 -492q-53 0 -116 13l20 127q49 -17 90 -17
q62 0 110.5 42t98.5 128l119 201l-201 959h143l154 -809h4l467 809h154l-725 -1209q-74 -123 -146.5 -183.5t-171.5 -60.5z" />
    <glyph glyph-name="Amacron" unicode="&#x100;" horiz-adv-x="1423" 
d="M662 1749h555l-19 -111h-555zM829 1450h144l301 -1450h-154l-78 381h-741l-238 -381h-167zM868 1284l-483 -768h635z" />
    <glyph glyph-name="amacron" unicode="&#x101;" horiz-adv-x="1093" 
d="M918 1229h-556l19 110h555zM338 -18q-52 0 -100.5 13t-92.5 40t-71 77.5t-27 116.5q0 64 22.5 116t60.5 88.5t94.5 64.5t118 45t138 27t146.5 14t151 4h6q11 65 11 90q0 190 -226 190q-80 0 -160.5 -32.5t-138.5 -81.5l-61 92q69 62 172 99.5t203 37.5q95 0 169.5 -27.5
t122.5 -91t48 -157.5q0 -42 -9 -103l-69 -389q-23 -142 -23 -215h-123q0 73 13 156h-4q-83 -95 -167 -134.5t-204 -39.5zM387 92q143 0 242 89t123 222l14 80h-33q-543 0 -543 -237q0 -83 56 -118.5t141 -35.5z" />
    <glyph glyph-name="Abreve" unicode="&#x102;" horiz-adv-x="1423" 
d="M911 1589q-128 0 -199 69t-71 202h90q0 -160 182 -160q89 0 156 42t84 118h90q-20 -119 -113.5 -195t-218.5 -76zM829 1450h144l301 -1450h-154l-78 381h-741l-238 -381h-167zM868 1284l-483 -768h635z" />
    <glyph glyph-name="abreve" unicode="&#x103;" horiz-adv-x="1093" 
d="M633 1180q-128 0 -199.5 68.5t-71.5 201.5h91q0 -160 182 -160q89 0 155.5 42t83.5 118h91q-20 -119 -113.5 -194.5t-218.5 -75.5zM338 -18q-52 0 -100.5 13t-92.5 40t-71 77.5t-27 116.5q0 64 22.5 116t60.5 88.5t94.5 64.5t118 45t138 27t146.5 14t151 4h6q11 65 11 90
q0 190 -226 190q-80 0 -160.5 -32.5t-138.5 -81.5l-61 92q69 62 172 99.5t203 37.5q95 0 169.5 -27.5t122.5 -91t48 -157.5q0 -42 -9 -103l-69 -389q-23 -142 -23 -215h-123q0 73 13 156h-4q-83 -95 -167 -134.5t-204 -39.5zM387 92q143 0 242 89t123 222l14 80h-33
q-543 0 -543 -237q0 -83 56 -118.5t141 -35.5z" />
    <glyph glyph-name="Aogonek" unicode="&#x104;" horiz-adv-x="1423" 
d="M1126 -346q64 0 115 45l25 -82q-94 -74 -191 -74q-67 0 -114.5 37t-47.5 105q0 151 232 315h-25l-78 381h-741l-238 -381h-167l933 1450h144l301 -1450h-29q-207 -171 -207 -274q0 -72 88 -72zM868 1284l-483 -768h635z" />
    <glyph glyph-name="aogonek" unicode="&#x105;" horiz-adv-x="1093" 
d="M915 604l-69 -389q-23 -142 -23 -215h4q-206 -170 -206 -274q0 -72 88 -72q63 0 114 45l25 -82q-94 -74 -191 -74q-67 0 -114 37t-47 105q0 151 231 315h-27q0 73 13 156h-4q-83 -95 -167 -134.5t-204 -39.5q-52 0 -100.5 13t-92.5 40t-71 77.5t-27 116.5q0 64 22.5 116
t60.5 88.5t94.5 64.5t118 45t138 27t146.5 14t151 4h6q11 65 11 90q0 190 -226 190q-80 0 -160.5 -32.5t-138.5 -81.5l-61 92q69 62 172 99.5t203 37.5q95 0 169.5 -27.5t122.5 -91t48 -157.5q0 -42 -9 -103zM387 92q143 0 242 89t123 222l14 80h-33q-543 0 -543 -237
q0 -83 56 -118.5t141 -35.5z" />
    <glyph glyph-name="Cacute" unicode="&#x106;" horiz-adv-x="1474" 
d="M1010 1565h-115l258 295h180zM770 -37q-290 0 -470.5 172.5t-180.5 450.5q0 185 68 352t184 287.5t276.5 191t337.5 70.5q160 0 293.5 -63t194.5 -169l-134 -88q-38 79 -132 136t-226 57q-151 0 -285 -64.5t-225.5 -170.5t-144 -243.5t-52.5 -281.5t57 -258t173 -183
t274 -69q282 0 463 217l109 -78q-94 -119 -241 -192.5t-339 -73.5z" />
    <glyph glyph-name="cacute" unicode="&#x107;" horiz-adv-x="1024" 
d="M692 1155h-114l258 295h180zM524 -25q-203 0 -323.5 113t-120.5 299q0 122 41.5 231t115 190t181.5 128t235 47q112 0 204 -41t136 -121l-121 -80q-25 56 -85.5 91.5t-137.5 35.5q-183 0 -303.5 -137t-120.5 -332q0 -135 83.5 -221t226.5 -86q167 0 282 125l88 -76
q-163 -166 -381 -166z" />
    <glyph glyph-name="Ccircumflex" unicode="&#x108;" horiz-adv-x="1474" 
d="M834 1565h-142l277 295h164l170 -295h-129l-132 221zM770 -37q-290 0 -470.5 172.5t-180.5 450.5q0 185 68 352t184 287.5t276.5 191t337.5 70.5q160 0 293.5 -63t194.5 -169l-134 -88q-38 79 -132 136t-226 57q-151 0 -285 -64.5t-225.5 -170.5t-144 -243.5
t-52.5 -281.5t57 -258t173 -183t274 -69q282 0 463 217l109 -78q-94 -119 -241 -192.5t-339 -73.5z" />
    <glyph glyph-name="ccircumflex" unicode="&#x109;" horiz-adv-x="1024" 
d="M537 1155h-142l277 295h164l170 -295h-129l-132 221zM524 -25q-203 0 -323.5 113t-120.5 299q0 122 41.5 231t115 190t181.5 128t235 47q112 0 204 -41t136 -121l-121 -80q-25 56 -85.5 91.5t-137.5 35.5q-183 0 -303.5 -137t-120.5 -332q0 -135 83.5 -221t226.5 -86
q167 0 282 125l88 -76q-163 -166 -381 -166z" />
    <glyph glyph-name="Cdotaccent" unicode="&#x10a;" horiz-adv-x="1474" 
d="M1030 1640q-39 0 -66.5 25.5t-27.5 67.5t29.5 71t68.5 29t65.5 -26t26.5 -68q0 -40 -28.5 -69.5t-67.5 -29.5zM770 -37q-290 0 -470.5 172.5t-180.5 450.5q0 185 68 352t184 287.5t276.5 191t337.5 70.5q160 0 293.5 -63t194.5 -169l-134 -88q-38 79 -132 136t-226 57
q-151 0 -285 -64.5t-225.5 -170.5t-144 -243.5t-52.5 -281.5t57 -258t173 -183t274 -69q282 0 463 217l109 -78q-94 -119 -241 -192.5t-339 -73.5z" />
    <glyph glyph-name="cdotaccent" unicode="&#x10b;" horiz-adv-x="1024" 
d="M719 1231q-40 0 -67 25t-27 67t29.5 71t68.5 29t65.5 -26t26.5 -68q0 -40 -28 -69t-68 -29zM524 -25q-203 0 -323.5 113t-120.5 299q0 122 41.5 231t115 190t181.5 128t235 47q112 0 204 -41t136 -121l-121 -80q-25 56 -85.5 91.5t-137.5 35.5q-183 0 -303.5 -137
t-120.5 -332q0 -135 83.5 -221t226.5 -86q167 0 282 125l88 -76q-163 -166 -381 -166z" />
    <glyph glyph-name="Ccaron" unicode="&#x10c;" horiz-adv-x="1474" 
d="M1087 1565h-163l-170 295h129l131 -222l209 222h141zM770 -37q-290 0 -470.5 172.5t-180.5 450.5q0 185 68 352t184 287.5t276.5 191t337.5 70.5q160 0 293.5 -63t194.5 -169l-134 -88q-38 79 -132 136t-226 57q-151 0 -285 -64.5t-225.5 -170.5t-144 -243.5
t-52.5 -281.5t57 -258t173 -183t274 -69q282 0 463 217l109 -78q-94 -119 -241 -192.5t-339 -73.5z" />
    <glyph glyph-name="ccaron" unicode="&#x10d;" horiz-adv-x="1024" 
d="M766 1155h-164l-170 295h129l131 -221l209 221h141zM524 -25q-203 0 -323.5 113t-120.5 299q0 122 41.5 231t115 190t181.5 128t235 47q112 0 204 -41t136 -121l-121 -80q-25 56 -85.5 91.5t-137.5 35.5q-183 0 -303.5 -137t-120.5 -332q0 -135 83.5 -221t226.5 -86
q167 0 282 125l88 -76q-163 -166 -381 -166z" />
    <glyph glyph-name="Dcaron" unicode="&#x10e;" horiz-adv-x="1550" 
d="M903 1565h-164l-170 295h129l131 -222l209 222h142zM567 0h-485l256 1450h438q83 0 163 -15t156.5 -45.5t140.5 -80t113 -115t76 -155.5t27 -195q0 -188 -67 -346.5t-184.5 -267.5t-281 -169.5t-352.5 -60.5zM461 1321l-211 -1192h328q137 0 255 38.5t202 105
t143.5 155.5t88.5 190.5t29 208.5q0 104 -33 191.5t-99 156t-174 107.5t-247 39h-282z" />
    <glyph glyph-name="dcaron" unicode="&#x10f;" horiz-adv-x="1376" 
d="M502 -25q-194 0 -313 114.5t-119 299.5q0 162 72.5 298t202 216t288.5 80q106 0 198 -49t136 -137h4l133 751h137l-274 -1548h-138l29 158h-4q-48 -77 -144.5 -130t-207.5 -53zM1384 1071h-116l207 379h145zM514 92q118 0 216 63.5t154 170.5t56 233q0 136 -84.5 222.5
t-224.5 86.5q-185 0 -301.5 -135t-116.5 -334q0 -134 79.5 -220.5t221.5 -86.5z" />
    <glyph glyph-name="Dcroat" unicode="&#x110;" horiz-adv-x="1550" 
d="M567 0h-485l125 711h-144l21 110h143l111 629h438q83 0 163 -15t156.5 -45.5t140.5 -80t113 -115t76 -155.5t27 -195q0 -188 -67 -346.5t-184.5 -267.5t-281 -169.5t-352.5 -60.5zM352 711l-102 -582h328q137 0 255 38.5t202 105t143.5 155.5t88.5 190.5t29 208.5
q0 104 -33 191.5t-99 156t-174 107.5t-247 39h-282l-88 -500h514l-21 -110h-514z" />
    <glyph glyph-name="dcroat" unicode="&#x111;" horiz-adv-x="1273" 
d="M502 -25q-194 0 -313 114.5t-119 299.5q0 162 72.5 298t202 216t288.5 80q106 0 198 -49t136 -137h4l65 370h-329l16 103h332l49 278h137l-49 -278h104l-16 -103h-106l-207 -1167h-138l29 158h-4q-48 -77 -144.5 -130t-207.5 -53zM514 92q118 0 216 63.5t154 170.5
t56 233q0 136 -84.5 222.5t-224.5 86.5q-185 0 -301.5 -135t-116.5 -334q0 -134 79.5 -220.5t221.5 -86.5z" />
    <glyph glyph-name="Emacron" unicode="&#x112;" horiz-adv-x="1187" 
d="M1081 1638h-555l19 111h555zM1006 0h-924l256 1450h870l-22 -129h-725l-88 -504h692l-23 -125h-692l-100 -563h778z" />
    <glyph glyph-name="emacron" unicode="&#x113;" horiz-adv-x="1159" 
d="M973 1229h-555l18 110h555zM506 -25q-190 0 -313 113t-123 309q0 154 73 288.5t201.5 216t280.5 81.5q191 0 295 -102.5t104 -272.5q0 -95 -18 -166h-793q-4 -32 -4 -45q0 -132 88.5 -218.5t220.5 -86.5q106 0 191 47t141 121l86 -82q-83 -99 -194 -151t-236 -52z
M231 545h652q4 40 4 71q0 114 -69.5 183t-196.5 69q-146 0 -252 -93t-138 -230z" />
    <glyph glyph-name="Ebreve" unicode="&#x114;" horiz-adv-x="1187" 
d="M795 1589q-128 0 -199.5 69t-71.5 202h90q0 -160 183 -160q89 0 155.5 42t83.5 118h90q-20 -120 -113 -195.5t-218 -75.5zM1006 0h-924l256 1450h870l-22 -129h-725l-88 -504h692l-23 -125h-692l-100 -563h778z" />
    <glyph glyph-name="ebreve" unicode="&#x115;" horiz-adv-x="1159" 
d="M686 1180q-128 0 -199 68.5t-71 201.5h90q0 -160 182 -160q89 0 156 42t84 118h90q-20 -119 -113.5 -194.5t-218.5 -75.5zM506 -25q-190 0 -313 113t-123 309q0 154 73 288.5t201.5 216t280.5 81.5q191 0 295 -102.5t104 -272.5q0 -95 -18 -166h-793q-4 -32 -4 -45
q0 -132 88.5 -218.5t220.5 -86.5q106 0 191 47t141 121l86 -82q-83 -99 -194 -151t-236 -52zM231 545h652q4 40 4 71q0 114 -69.5 183t-196.5 69q-146 0 -252 -93t-138 -230z" />
    <glyph glyph-name="Edotaccent" unicode="&#x116;" horiz-adv-x="1187" 
d="M819 1640q-39 0 -66.5 25.5t-27.5 67.5t29.5 71t68.5 29t65.5 -26t26.5 -68q0 -40 -28.5 -69.5t-67.5 -29.5zM1006 0h-924l256 1450h870l-22 -129h-725l-88 -504h692l-23 -125h-692l-100 -563h778z" />
    <glyph glyph-name="edotaccent" unicode="&#x117;" horiz-adv-x="1159" 
d="M702 1231q-40 0 -67 25t-27 67t30 71t69 29t65.5 -26t26.5 -68q0 -40 -28.5 -69t-68.5 -29zM506 -25q-190 0 -313 113t-123 309q0 154 73 288.5t201.5 216t280.5 81.5q191 0 295 -102.5t104 -272.5q0 -95 -18 -166h-793q-4 -32 -4 -45q0 -132 88.5 -218.5t220.5 -86.5
q106 0 191 47t141 121l86 -82q-83 -99 -194 -151t-236 -52zM231 545h652q4 40 4 71q0 114 -69.5 183t-196.5 69q-146 0 -252 -93t-138 -230z" />
    <glyph glyph-name="Eogonek" unicode="&#x118;" horiz-adv-x="1187" 
d="M795 -457q-67 0 -114.5 37t-47.5 105q0 151 231 315h-782l256 1450h870l-22 -129h-725l-88 -504h692l-23 -125h-692l-100 -563h778l-22 -129h-43q-205 -172 -205 -274q0 -72 88 -72q64 0 112 45l25 -82q-90 -74 -188 -74z" />
    <glyph glyph-name="eogonek" unicode="&#x119;" horiz-adv-x="1159" 
d="M461 -457q-67 0 -114.5 37t-47.5 105q0 141 197 290q-187 3 -306.5 115.5t-119.5 306.5q0 154 73 288.5t201.5 216t280.5 81.5q191 0 295 -102.5t104 -272.5q0 -95 -18 -166h-793q-4 -32 -4 -45q0 -132 88.5 -218.5t220.5 -86.5q106 0 191 47t141 121l86 -82
q-132 -156 -326 -192q-186 -158 -186 -260q0 -72 88 -72q65 0 113 45l24 -82q-90 -74 -188 -74zM231 545h652q4 40 4 71q0 114 -69.5 183t-196.5 69q-146 0 -252 -93t-138 -230z" />
    <glyph glyph-name="Ecaron" unicode="&#x11a;" horiz-adv-x="1187" 
d="M868 1565h-163l-170 295h129l131 -222l209 222h141zM1006 0h-924l256 1450h870l-22 -129h-725l-88 -504h692l-23 -125h-692l-100 -563h778z" />
    <glyph glyph-name="ecaron" unicode="&#x11b;" horiz-adv-x="1159" 
d="M758 1155h-164l-170 295h129l131 -221l209 221h141zM506 -25q-190 0 -313 113t-123 309q0 154 73 288.5t201.5 216t280.5 81.5q191 0 295 -102.5t104 -272.5q0 -95 -18 -166h-793q-4 -32 -4 -45q0 -132 88.5 -218.5t220.5 -86.5q106 0 191 47t141 121l86 -82
q-83 -99 -194 -151t-236 -52zM231 545h652q4 40 4 71q0 114 -69.5 183t-196.5 69q-146 0 -252 -93t-138 -230z" />
    <glyph glyph-name="Gcircumflex" unicode="&#x11c;" horiz-adv-x="1576" 
d="M848 1565h-141l276 295h164l170 -295h-129l-131 221zM770 -37q-290 0 -470.5 172.5t-180.5 450.5q0 185 68 352t184 287.5t276.5 191t337.5 70.5q160 0 293.5 -63t194.5 -169l-134 -88q-38 79 -132 136t-226 57q-151 0 -285 -64.5t-225.5 -170.5t-144 -243.5
t-52.5 -281.5t57 -258t173 -183t274 -69q249 0 412 98l78 445h-342l22 125h486l-115 -654q-245 -141 -549 -141z" />
    <glyph glyph-name="gcircumflex" unicode="&#x11d;" horiz-adv-x="1284" 
d="M565 1155h-141l276 295h164l170 -295h-129l-131 221zM432 -492q-138 0 -254 51.5t-186 141.5l92 98q52 -75 146.5 -122.5t201.5 -47.5q349 0 420 379l35 182h-4q-64 -91 -160 -140.5t-205 -49.5q-193 0 -309.5 119t-116.5 301q0 153 72 282t200.5 205t286.5 76
q108 0 201 -50.5t131 -139.5h4l31 168h135l-168 -953q-9 -51 -20 -94t-32 -96t-47.5 -95t-69.5 -83.5t-95.5 -69.5t-126.5 -45t-162 -17zM541 115q182 0 299.5 131t117.5 315q0 131 -85 219t-224 88q-185 0 -300.5 -124t-115.5 -326q0 -130 82 -216.5t226 -86.5z" />
    <glyph glyph-name="Gbreve" unicode="&#x11e;" horiz-adv-x="1576" 
d="M1006 1589q-128 0 -199.5 69t-71.5 202h90q0 -160 183 -160q89 0 155.5 42t83.5 118h90q-20 -120 -113 -195.5t-218 -75.5zM770 -37q-290 0 -470.5 172.5t-180.5 450.5q0 185 68 352t184 287.5t276.5 191t337.5 70.5q160 0 293.5 -63t194.5 -169l-134 -88
q-38 79 -132 136t-226 57q-151 0 -285 -64.5t-225.5 -170.5t-144 -243.5t-52.5 -281.5t57 -258t173 -183t274 -69q249 0 412 98l78 445h-342l22 125h486l-115 -654q-245 -141 -549 -141z" />
    <glyph glyph-name="gbreve" unicode="&#x11f;" horiz-adv-x="1284" 
d="M729 1180q-128 0 -199 68.5t-71 201.5h90q0 -160 182 -160q89 0 156 42t84 118h90q-20 -119 -113.5 -194.5t-218.5 -75.5zM432 -492q-138 0 -254 51.5t-186 141.5l92 98q52 -75 146.5 -122.5t201.5 -47.5q349 0 420 379l35 182h-4q-64 -91 -160 -140.5t-205 -49.5
q-193 0 -309.5 119t-116.5 301q0 153 72 282t200.5 205t286.5 76q108 0 201 -50.5t131 -139.5h4l31 168h135l-168 -953q-9 -51 -20 -94t-32 -96t-47.5 -95t-69.5 -83.5t-95.5 -69.5t-126.5 -45t-162 -17zM541 115q182 0 299.5 131t117.5 315q0 131 -85 219t-224 88
q-185 0 -300.5 -124t-115.5 -326q0 -130 82 -216.5t226 -86.5z" />
    <glyph glyph-name="Gdotaccent" unicode="&#x120;" horiz-adv-x="1576" 
d="M1036 1640q-39 0 -66.5 25.5t-27.5 67.5t29.5 71t68.5 29t66 -26t27 -68q0 -40 -28.5 -69.5t-68.5 -29.5zM770 -37q-290 0 -470.5 172.5t-180.5 450.5q0 185 68 352t184 287.5t276.5 191t337.5 70.5q160 0 293.5 -63t194.5 -169l-134 -88q-38 79 -132 136t-226 57
q-151 0 -285 -64.5t-225.5 -170.5t-144 -243.5t-52.5 -281.5t57 -258t173 -183t274 -69q249 0 412 98l78 445h-342l22 125h486l-115 -654q-245 -141 -549 -141z" />
    <glyph glyph-name="gdotaccent" unicode="&#x121;" horiz-adv-x="1284" 
d="M748 1231q-40 0 -67.5 25.5t-27.5 66.5q0 42 30 71t69 29t65.5 -26t26.5 -68q0 -40 -28 -69t-68 -29zM432 -492q-138 0 -254 51.5t-186 141.5l92 98q52 -75 146.5 -122.5t201.5 -47.5q349 0 420 379l35 182h-4q-64 -91 -160 -140.5t-205 -49.5q-193 0 -309.5 119
t-116.5 301q0 153 72 282t200.5 205t286.5 76q108 0 201 -50.5t131 -139.5h4l31 168h135l-168 -953q-9 -51 -20 -94t-32 -96t-47.5 -95t-69.5 -83.5t-95.5 -69.5t-126.5 -45t-162 -17zM541 115q182 0 299.5 131t117.5 315q0 131 -85 219t-224 88q-185 0 -300.5 -124
t-115.5 -326q0 -130 82 -216.5t226 -86.5z" />
    <glyph glyph-name="uni0122" unicode="&#x122;" horiz-adv-x="1576" 
d="M770 -37q-290 0 -470.5 172.5t-180.5 450.5q0 185 68 352t184 287.5t276.5 191t337.5 70.5q160 0 293.5 -63t194.5 -169l-134 -88q-38 79 -132 136t-226 57q-151 0 -285 -64.5t-225.5 -170.5t-144 -243.5t-52.5 -281.5t57 -258t173 -183t274 -69q249 0 412 98l78 445
h-342l22 125h486l-115 -654q-245 -141 -549 -141zM614 -471h-116l207 379h145z" />
    <glyph glyph-name="uni0123" unicode="&#x123;" horiz-adv-x="1284" 
d="M721 1155h-146l236 379h117zM432 -492q-138 0 -254 51.5t-186 141.5l92 98q52 -75 146.5 -122.5t201.5 -47.5q349 0 420 379l35 182h-4q-64 -91 -160 -140.5t-205 -49.5q-193 0 -309.5 119t-116.5 301q0 153 72 282t200.5 205t286.5 76q108 0 201 -50.5t131 -139.5h4
l31 168h135l-168 -953q-9 -51 -20 -94t-32 -96t-47.5 -95t-69.5 -83.5t-95.5 -69.5t-126.5 -45t-162 -17zM541 115q182 0 299.5 131t117.5 315q0 131 -85 219t-224 88q-185 0 -300.5 -124t-115.5 -326q0 -130 82 -216.5t226 -86.5z" />
    <glyph glyph-name="Hcircumflex" unicode="&#x124;" horiz-adv-x="1449" 
d="M725 1565h-141l276 295h164l170 -295h-129l-131 221zM227 0h-145l256 1450h145l-112 -631h772l112 631h146l-256 -1450h-146l121 688h-772z" />
    <glyph glyph-name="hcircumflex" unicode="&#x125;" horiz-adv-x="1181" 
d="M586 1630h-142l277 295h164l170 -295h-129l-131 221zM211 0h-137l272 1548h137l-131 -747h4q55 84 141 133t183 49q153 0 240.5 -78.5t87.5 -214.5q0 -34 -11 -102l-104 -588h-137l94 530q12 64 12 121q0 106 -50.5 161.5t-166.5 55.5q-119 0 -217.5 -97t-130.5 -279z
" />
    <glyph glyph-name="Hbar" unicode="&#x126;" horiz-adv-x="1449" 
d="M227 0h-145l256 1450h145l-57 -324h772l57 324h146l-256 -1450h-146l121 688h-772zM408 1024l-37 -205h772l37 205h-772z" />
    <glyph glyph-name="hbar" unicode="&#x127;" horiz-adv-x="1181" 
d="M211 0h-137l205 1167h-111l16 103h113l49 278h137l-49 -278h324l-17 -103h-325l-64 -366h4q55 84 141 133t183 49q153 0 240.5 -78.5t87.5 -214.5q0 -34 -11 -102l-104 -588h-137l94 530q12 64 12 121q0 106 -50.5 161.5t-166.5 55.5q-119 0 -217.5 -97t-130.5 -279z" />
    <glyph glyph-name="Itilde" unicode="&#x128;" horiz-adv-x="532" 
d="M186 1589h-88q74 213 228 213q49 0 141 -47q2 -1 14.5 -7.5t15.5 -8l14 -7t15 -7t13.5 -5.5t15 -5t13.5 -3.5t14.5 -3t13.5 -0.5q73 0 119 102h88q-78 -213 -228 -213q-58 0 -141 48q-81 47 -129 47q-79 0 -119 -103zM227 0h-145l256 1450h145z" />
    <glyph glyph-name="itilde" unicode="&#x129;" horiz-adv-x="512" 
d="M106 1180h-88q74 213 226 213q58 0 143 -47q4 -2 18.5 -9.5t20 -10t18 -8.5t19.5 -8.5t17 -6t18.5 -4.5t17.5 -1q73 0 119 103h88q-78 -213 -227 -213q-50 0 -142 47q-81 47 -131 47q-77 0 -117 -102zM213 0h-137l170 961h137z" />
    <glyph glyph-name="Imacron" unicode="&#x12a;" horiz-adv-x="532" 
d="M715 1638h-555l18 111h555zM227 0h-145l256 1450h145z" />
    <glyph glyph-name="imacron" unicode="&#x12b;" horiz-adv-x="512" 
d="M633 1229h-555l18 110h555zM213 0h-137l170 961h137z" />
    <glyph glyph-name="Ibreve" unicode="&#x12c;" horiz-adv-x="532" 
d="M449 1589q-128 0 -199.5 69t-71.5 202h90q0 -160 183 -160q89 0 155.5 42t83.5 118h90q-20 -120 -113 -195.5t-218 -75.5zM227 0h-145l256 1450h145z" />
    <glyph glyph-name="ibreve" unicode="&#x12d;" horiz-adv-x="512" 
d="M369 1180q-128 0 -199.5 68.5t-71.5 201.5h90q0 -160 183 -160q89 0 155.5 42t83.5 118h90q-20 -119 -113 -194.5t-218 -75.5zM213 0h-137l170 961h137z" />
    <glyph glyph-name="Iogonek" unicode="&#x12e;" horiz-adv-x="532" 
d="M119 -346q63 0 114 45l25 -82q-94 -74 -190 -74q-67 0 -114.5 37t-47.5 105q0 151 231 315h-55l256 1450h145l-256 -1450h11q-207 -171 -207 -274q0 -72 88 -72z" />
    <glyph glyph-name="iogonek" unicode="&#x12f;" horiz-adv-x="512" 
d="M377 1423q39 0 65.5 -26t26.5 -68q0 -40 -28 -69t-68 -29t-67 25t-27 67t29.5 71t68.5 29zM383 961l-170 -961q-207 -171 -207 -274q0 -72 88 -72q64 0 115 45l24 -82q-94 -74 -190 -74q-67 0 -114.5 37t-47.5 105q0 151 232 315h-37l170 961h137z" />
    <glyph glyph-name="Idotaccent" unicode="&#x130;" horiz-adv-x="532" 
d="M451 1640q-40 0 -67.5 25.5t-27.5 67.5t30 71t69 29t65.5 -26t26.5 -68q0 -40 -28.5 -69.5t-67.5 -29.5zM227 0h-145l256 1450h145z" />
    <glyph glyph-name="dotlessi" unicode="&#x131;" horiz-adv-x="512" 
d="M213 0h-137l170 961h137z" />
    <glyph glyph-name="IJ" unicode="&#x132;" horiz-adv-x="1505" 
d="M227 0h-145l256 1450h145zM854 -37q-154 0 -247 81t-109 202l129 41q14 -87 70.5 -142t148.5 -55q61 0 109 19t78 49t53 77t34.5 90.5t22.5 102.5l180 1022h145l-182 -1032q-8 -47 -17 -85t-26 -87t-37.5 -86.5t-54 -76t-74 -63.5t-98 -41t-125.5 -16z" />
    <glyph glyph-name="ij" unicode="&#x133;" horiz-adv-x="1058" 
d="M373 1231q-40 0 -67 25t-27 67t29.5 71t68.5 29t65.5 -26t26.5 -68q0 -40 -28 -69t-68 -29zM920 1231q-40 0 -67.5 25.5t-27.5 66.5q0 42 30 71t69 29t65.5 -26t26.5 -68q0 -40 -28 -69t-68 -29zM213 0h-137l170 961h137zM426 -492q-66 0 -115 15l29 117q41 -13 86 -13
q81 0 115 50.5t51 154.5l199 1129h137l-203 -1151q-9 -52 -20.5 -91t-34 -81t-53 -68.5t-79.5 -44t-112 -17.5z" />
    <glyph glyph-name="Jcircumflex" unicode="&#x134;" horiz-adv-x="987" 
d="M727 1565h-141l276 295h164l170 -295h-129l-131 221zM336 -37q-154 0 -247 81t-109 202l129 41q14 -87 70.5 -142t148.5 -55q61 0 109 19t78 49t53 77t34.5 90.5t22.5 102.5l180 1022h145l-182 -1032q-8 -47 -17 -85t-26 -87t-37.5 -86.5t-54 -76t-74 -63.5t-98 -41
t-125.5 -16z" />
    <glyph glyph-name="jcircumflex" unicode="&#x135;" horiz-adv-x="514" 
d="M174 1155h-141l276 295h164l170 -295h-129l-131 221zM-117 -492q-65 0 -114 15l28 117q41 -13 86 -13q81 0 115 50.5t51 154.5l199 1129h137l-203 -1151q-9 -52 -20.5 -91t-34 -81t-53 -68.5t-79.5 -44t-112 -17.5z" />
    <glyph glyph-name="uni0136" unicode="&#x136;" horiz-adv-x="1198" 
d="M227 0h-145l256 1450h145l-114 -651h2l737 651h213l-793 -672l607 -778h-191l-579 772h-3zM381 -471h-117l207 379h145z" />
    <glyph glyph-name="uni0137" unicode="&#x137;" horiz-adv-x="997" 
d="M217 0h-139l272 1548h137l-180 -1022h6l490 435h190l-526 -447l438 -514h-180l-416 504h-6zM279 -471h-117l207 379h145z" />
    <glyph glyph-name="kgreenlandic" unicode="&#x138;" horiz-adv-x="997" 
d="M217 0h-139l168 961h137l-76 -435h6l490 435h190l-526 -447l438 -514h-180l-416 504h-6z" />
    <glyph glyph-name="Lacute" unicode="&#x139;" horiz-adv-x="1044" 
d="M469 1565h-115l258 295h181zM905 0h-823l256 1450h145l-235 -1321h678z" />
    <glyph glyph-name="lacute" unicode="&#x13a;" horiz-adv-x="516" 
d="M473 1622h-115l258 295h181zM217 0h-139l272 1548h139z" />
    <glyph glyph-name="uni013B" unicode="&#x13b;" horiz-adv-x="1044" 
d="M905 0h-823l256 1450h145l-235 -1321h678zM313 -471h-116l206 379h146z" />
    <glyph glyph-name="uni013C" unicode="&#x13c;" horiz-adv-x="516" 
d="M217 0h-139l272 1548h139zM-20 -471h-117l207 379h145z" />
    <glyph glyph-name="Lcaron" unicode="&#x13d;" horiz-adv-x="1044" 
d="M905 0h-823l256 1450h145l-235 -1321h678zM727 1071h-117l207 379h146z" />
    <glyph glyph-name="lcaron" unicode="&#x13e;" horiz-adv-x="606" 
d="M217 0h-139l272 1548h139zM655 1071h-116l206 379h146z" />
    <glyph glyph-name="Ldot" unicode="&#x13f;" horiz-adv-x="1044" 
d="M905 0h-823l256 1450h145l-235 -1321h678zM717 637q-40 0 -67 25t-27 67t29.5 71t68.5 29t65.5 -26t26.5 -68q0 -40 -28 -69t-68 -29z" />
    <glyph glyph-name="ldot" unicode="&#x140;" horiz-adv-x="638" 
d="M217 0h-139l272 1548h139zM584 637q-40 0 -67.5 25.5t-27.5 66.5q0 42 30 71t69 29t65.5 -26t26.5 -68q0 -40 -28 -69t-68 -29z" />
    <glyph glyph-name="Lslash" unicode="&#x141;" horiz-adv-x="1044" 
d="M905 0h-823l88 496l-195 -144l27 144l193 143l143 811h147l-125 -709l510 381l-26 -143l-510 -381l-82 -467h676z" />
    <glyph glyph-name="lslash" unicode="&#x142;" horiz-adv-x="516" 
d="M213 0h-135l119 678l-195 -170l27 149l194 168l127 723h135l-106 -610l196 172l-26 -149l-197 -170z" />
    <glyph glyph-name="Nacute" unicode="&#x143;" horiz-adv-x="1536" 
d="M926 1565h-115l258 295h180zM229 0h-145l256 1450h182l596 -1243h4l219 1243h146l-256 -1450h-182l-594 1260h-4z" />
    <glyph glyph-name="nacute" unicode="&#x144;" horiz-adv-x="1181" 
d="M662 1155h-115l258 295h180zM211 0h-137l131 750q28 179 31 211h133q-14 -116 -23 -164h4q55 88 143 138t185 50q154 0 242 -78.5t88 -214.5q0 -34 -11 -102l-104 -590h-137l94 532q12 64 12 121q0 105 -49.5 161t-163.5 56q-119 0 -219.5 -97.5t-132.5 -278.5z" />
    <glyph glyph-name="uni0145" unicode="&#x145;" horiz-adv-x="1536" 
d="M229 0h-145l256 1450h182l596 -1243h4l219 1243h146l-256 -1450h-182l-594 1260h-4zM453 -471h-117l207 379h145z" />
    <glyph glyph-name="uni0146" unicode="&#x146;" horiz-adv-x="1181" 
d="M211 0h-137l131 750q28 179 31 211h133q-14 -116 -23 -164h4q55 88 143 138t185 50q154 0 242 -78.5t88 -214.5q0 -34 -11 -102l-104 -590h-137l94 532q12 64 12 121q0 105 -49.5 161t-163.5 56q-119 0 -219.5 -97.5t-132.5 -278.5zM313 -471h-116l206 379h146z" />
    <glyph glyph-name="Ncaron" unicode="&#x147;" horiz-adv-x="1536" 
d="M997 1565h-163l-170 295h129l131 -222l209 222h141zM229 0h-145l256 1450h182l596 -1243h4l219 1243h146l-256 -1450h-182l-594 1260h-4z" />
    <glyph glyph-name="ncaron" unicode="&#x148;" horiz-adv-x="1181" 
d="M739 1155h-164l-169 295h129l131 -221l208 221h142zM211 0h-137l131 750q28 179 31 211h133q-14 -116 -23 -164h4q55 88 143 138t185 50q154 0 242 -78.5t88 -214.5q0 -34 -11 -102l-104 -590h-137l94 532q12 64 12 121q0 105 -49.5 161t-163.5 56q-119 0 -219.5 -97.5
t-132.5 -278.5z" />
    <glyph glyph-name="napostrophe" unicode="&#x149;" horiz-adv-x="1181" 
d="M258 1071h-117l224 481h145zM211 0h-137l131 750q28 179 31 211h133q-14 -116 -23 -164h4q55 88 143 138t185 50q154 0 242 -78.5t88 -214.5q0 -34 -11 -102l-104 -590h-137l94 532q12 64 12 121q0 105 -49.5 161t-163.5 56q-119 0 -219.5 -97.5t-132.5 -278.5z" />
    <glyph glyph-name="Eng" unicode="&#x14a;" horiz-adv-x="1536" 
d="M1128 242l213 1208h146l-291 -1640q-9 -52 -20.5 -91t-34 -81t-53 -68.5t-79.5 -44t-112 -17.5q-65 0 -115 15l29 117q41 -13 86 -13q81 0 115 50.5t51 154.5l24 150l-632 1278h-4l-222 -1260h-145l256 1450h182l602 -1208h4z" />
    <glyph glyph-name="eng" unicode="&#x14b;" horiz-adv-x="1181" 
d="M561 -492q-65 0 -115 15l29 117q41 -13 86 -13q81 0 115 50.5t51 154.5l123 700q12 64 12 121q0 105 -49.5 161t-163.5 56q-119 0 -219.5 -97.5t-132.5 -278.5l-86 -494h-137l131 750q28 179 31 211h133q-14 -116 -23 -164h4q55 88 143 138t185 50q154 0 242 -78.5
t88 -214.5q0 -34 -11 -102l-137 -780q-9 -52 -20.5 -91t-34 -81t-53 -68.5t-79.5 -44t-112 -17.5z" />
    <glyph glyph-name="Omacron" unicode="&#x14c;" horiz-adv-x="1708" 
d="M1290 1638h-555l19 111h555zM764 -37q-188 0 -334.5 77.5t-228.5 219.5t-82 326q0 185 65.5 351.5t178 287t269.5 191.5t333 71q187 0 333.5 -77t229 -218t82.5 -324q0 -247 -109 -454t-304 -329t-433 -122zM770 90q148 0 277.5 64t217.5 170t138.5 244t50.5 286
q0 142 -56.5 255.5t-170.5 182t-269 68.5q-120 0 -228.5 -42t-190.5 -115t-142.5 -169t-91.5 -208t-31 -228q0 -106 32.5 -198t94 -161.5t156.5 -109t213 -39.5z" />
    <glyph glyph-name="omacron" unicode="&#x14d;" horiz-adv-x="1220" 
d="M983 1229h-555l18 110h555zM512 -25q-194 0 -318 116t-124 300q0 120 42.5 228.5t117 188.5t181 127.5t228.5 47.5q195 0 318.5 -115t123.5 -299q0 -163 -72 -298.5t-203 -215.5t-294 -80zM520 92q119 0 215.5 64t149.5 171.5t53 233.5q0 134 -83 220.5t-224 86.5
q-117 0 -213 -64.5t-149.5 -172t-53.5 -232.5q0 -135 82.5 -221t222.5 -86z" />
    <glyph glyph-name="Obreve" unicode="&#x14e;" horiz-adv-x="1708" 
d="M993 1589q-128 0 -199 69t-71 202h90q0 -160 182 -160q89 0 156 42t84 118h90q-20 -119 -113.5 -195t-218.5 -76zM764 -37q-188 0 -334.5 77.5t-228.5 219.5t-82 326q0 185 65.5 351.5t178 287t269.5 191.5t333 71q187 0 333.5 -77t229 -218t82.5 -324q0 -247 -109 -454
t-304 -329t-433 -122zM770 90q148 0 277.5 64t217.5 170t138.5 244t50.5 286q0 142 -56.5 255.5t-170.5 182t-269 68.5q-120 0 -228.5 -42t-190.5 -115t-142.5 -169t-91.5 -208t-31 -228q0 -106 32.5 -198t94 -161.5t156.5 -109t213 -39.5z" />
    <glyph glyph-name="obreve" unicode="&#x14f;" horiz-adv-x="1220" 
d="M684 1180q-128 0 -199 68.5t-71 201.5h90q0 -160 182 -160q89 0 156 42t84 118h90q-20 -119 -113.5 -194.5t-218.5 -75.5zM512 -25q-194 0 -318 116t-124 300q0 120 42.5 228.5t117 188.5t181 127.5t228.5 47.5q195 0 318.5 -115t123.5 -299q0 -163 -72 -298.5
t-203 -215.5t-294 -80zM520 92q119 0 215.5 64t149.5 171.5t53 233.5q0 134 -83 220.5t-224 86.5q-117 0 -213 -64.5t-149.5 -172t-53.5 -232.5q0 -135 82.5 -221t222.5 -86z" />
    <glyph glyph-name="Ohungarumlaut" unicode="&#x150;" horiz-adv-x="1708" 
d="M854 1565h-121l260 295h187zM1204 1565h-121l258 295h187zM764 -37q-188 0 -334.5 77.5t-228.5 219.5t-82 326q0 185 65.5 351.5t178 287t269.5 191.5t333 71q187 0 333.5 -77t229 -218t82.5 -324q0 -247 -109 -454t-304 -329t-433 -122zM770 90q148 0 277.5 64
t217.5 170t138.5 244t50.5 286q0 142 -56.5 255.5t-170.5 182t-269 68.5q-120 0 -228.5 -42t-190.5 -115t-142.5 -169t-91.5 -208t-31 -228q0 -106 32.5 -198t94 -161.5t156.5 -109t213 -39.5z" />
    <glyph glyph-name="ohungarumlaut" unicode="&#x151;" horiz-adv-x="1220" 
d="M545 1155h-121l260 295h186zM895 1155h-121l258 295h187zM512 -25q-194 0 -318 116t-124 300q0 120 42.5 228.5t117 188.5t181 127.5t228.5 47.5q195 0 318.5 -115t123.5 -299q0 -163 -72 -298.5t-203 -215.5t-294 -80zM520 92q119 0 215.5 64t149.5 171.5t53 233.5
q0 134 -83 220.5t-224 86.5q-117 0 -213 -64.5t-149.5 -172t-53.5 -232.5q0 -135 82.5 -221t222.5 -86z" />
    <glyph glyph-name="OE" unicode="&#x152;" horiz-adv-x="1986" 
d="M1804 0h-1009q-83 0 -163 15t-156.5 45.5t-140.5 80t-113 115t-76 155.5t-27 195q0 188 67 346.5t184.5 267.5t281 169.5t352.5 60.5h1003l-22 -129h-672l-88 -504h639l-23 -125h-639l-100 -563h725zM827 129h129l211 1192h-174q-171 0 -310 -59t-227 -157.5t-135 -222.5
t-47 -259q0 -104 33 -191.5t99 -156t174 -107.5t247 -39z" />
    <glyph glyph-name="oe" unicode="&#x153;" horiz-adv-x="2011" 
d="M512 -25q-194 0 -318 116t-124 300q0 120 42.5 228.5t117 188.5t181 127.5t228.5 47.5q137 0 243.5 -67.5t153.5 -178.5q65 111 185.5 178.5t255.5 67.5q191 0 295 -102.5t104 -272.5q0 -95 -18 -166h-793q-4 -32 -4 -45q0 -132 88.5 -218.5t220.5 -86.5q106 0 191 47
t141 121l86 -82q-83 -99 -194 -151t-236 -52q-149 0 -245.5 67.5t-143.5 176.5q-72 -111 -186 -177.5t-271 -66.5zM520 92q119 0 215.5 64t149.5 171.5t53 233.5q0 134 -83 220.5t-224 86.5q-117 0 -213 -64.5t-149.5 -172t-53.5 -232.5q0 -135 82.5 -221t222.5 -86z
M1083 545h652q4 40 4 71q0 114 -69.5 183t-196.5 69q-146 0 -252 -93t-138 -230z" />
    <glyph glyph-name="Racute" unicode="&#x154;" horiz-adv-x="1226" 
d="M743 1565h-114l258 295h180zM227 0h-145l256 1450h391q202 0 325.5 -88t123.5 -258q0 -190 -117 -292t-309 -122l319 -690h-166l-303 678h-256zM461 1325l-92 -524h258q403 0 403 286q0 117 -85 177.5t-238 60.5h-246z" />
    <glyph glyph-name="racute" unicode="&#x155;" horiz-adv-x="712" 
d="M418 1155h-115l258 295h180zM211 0h-137l131 750q28 179 31 211h131q-14 -116 -23 -164h4q54 86 138 137t182 51q54 0 90 -10l-33 -131q-28 12 -94 12q-119 0 -210.5 -90t-123.5 -272z" />
    <glyph glyph-name="uni0156" unicode="&#x156;" horiz-adv-x="1226" 
d="M227 0h-145l256 1450h391q202 0 325.5 -88t123.5 -258q0 -190 -117 -292t-309 -122l319 -690h-166l-303 678h-256zM461 1325l-92 -524h258q403 0 403 286q0 117 -85 177.5t-238 60.5h-246zM346 -471h-117l207 379h146z" />
    <glyph glyph-name="uni0157" unicode="&#x157;" horiz-adv-x="712" 
d="M211 0h-137l131 750q28 179 31 211h131q-14 -116 -23 -164h4q54 86 138 137t182 51q54 0 90 -10l-33 -131q-28 12 -94 12q-119 0 -210.5 -90t-123.5 -272zM-27 -473h-116l206 379h146z" />
    <glyph glyph-name="Rcaron" unicode="&#x158;" horiz-adv-x="1226" 
d="M807 1565h-164l-170 295h129l131 -222l209 222h141zM227 0h-145l256 1450h391q202 0 325.5 -88t123.5 -258q0 -190 -117 -292t-309 -122l319 -690h-166l-303 678h-256zM461 1325l-92 -524h258q403 0 403 286q0 117 -85 177.5t-238 60.5h-246z" />
    <glyph glyph-name="rcaron" unicode="&#x159;" horiz-adv-x="712" 
d="M586 1155h-164l-170 295h129l131 -221l209 221h141zM211 0h-137l131 750q28 179 31 211h131q-14 -116 -23 -164h4q54 86 138 137t182 51q54 0 90 -10l-33 -131q-28 12 -94 12q-119 0 -210.5 -90t-123.5 -272z" />
    <glyph glyph-name="Sacute" unicode="&#x15a;" horiz-adv-x="1155" 
d="M735 1565h-114l258 295h180zM471 -37q-137 0 -259.5 56.5t-184.5 158.5l131 84q42 -75 126 -123.5t193 -48.5q153 0 259 85.5t106 221.5q0 48 -17 88.5t-42 68t-68.5 53.5t-81 42t-94.5 37q-70 26 -122.5 54.5t-101.5 71.5t-75.5 103.5t-26.5 135.5q0 190 138 313
t378 123q142 0 247 -47t154 -125l-124 -90q-40 60 -115 97.5t-170 37.5q-65 0 -127 -17.5t-114 -52t-83.5 -92t-31.5 -129.5q0 -44 14.5 -81t36 -62.5t58.5 -49t71 -39t84 -34.5q43 -16 75 -30t72 -35t69.5 -42t59 -50.5t48.5 -61.5t30.5 -73t11.5 -87q0 -62 -16 -123.5
t-55 -123.5t-97 -108.5t-150 -76t-206 -29.5z" />
    <glyph glyph-name="sacute" unicode="&#x15b;" horiz-adv-x="909" 
d="M557 1155h-115l258 295h181zM383 -25q-124 0 -228.5 46.5t-162.5 136.5l119 78q36 -62 107.5 -103t158.5 -41q99 0 169 41t70 123q0 72 -54 112.5t-179 80.5q-40 13 -70 25t-64.5 33.5t-56 47t-36.5 63.5t-15 84q0 71 33 126.5t87.5 88.5t118 49.5t130.5 16.5
q109 0 197 -43.5t127 -114.5l-109 -77q-28 55 -86.5 87.5t-136.5 32.5q-39 0 -77 -8.5t-73 -25.5t-56.5 -48.5t-21.5 -72.5q0 -37 11.5 -62.5t41 -44t57 -29t81.5 -26.5q147 -42 218 -106.5t71 -174.5q0 -75 -34 -133.5t-89 -92.5t-118.5 -51.5t-129.5 -17.5z" />
    <glyph glyph-name="Scircumflex" unicode="&#x15c;" horiz-adv-x="1155" 
d="M590 1565h-141l276 295h164l170 -295h-129l-131 221zM471 -37q-137 0 -259.5 56.5t-184.5 158.5l131 84q42 -75 126 -123.5t193 -48.5q153 0 259 85.5t106 221.5q0 48 -17 88.5t-42 68t-68.5 53.5t-81 42t-94.5 37q-70 26 -122.5 54.5t-101.5 71.5t-75.5 103.5
t-26.5 135.5q0 190 138 313t378 123q142 0 247 -47t154 -125l-124 -90q-40 60 -115 97.5t-170 37.5q-65 0 -127 -17.5t-114 -52t-83.5 -92t-31.5 -129.5q0 -44 14.5 -81t36 -62.5t58.5 -49t71 -39t84 -34.5q43 -16 75 -30t72 -35t69.5 -42t59 -50.5t48.5 -61.5t30.5 -73
t11.5 -87q0 -62 -16 -123.5t-55 -123.5t-97 -108.5t-150 -76t-206 -29.5z" />
    <glyph glyph-name="scircumflex" unicode="&#x15d;" horiz-adv-x="909" 
d="M397 1155h-141l276 295h164l170 -295h-129l-131 221zM383 -25q-124 0 -228.5 46.5t-162.5 136.5l119 78q36 -62 107.5 -103t158.5 -41q99 0 169 41t70 123q0 72 -54 112.5t-179 80.5q-40 13 -70 25t-64.5 33.5t-56 47t-36.5 63.5t-15 84q0 71 33 126.5t87.5 88.5
t118 49.5t130.5 16.5q109 0 197 -43.5t127 -114.5l-109 -77q-28 55 -86.5 87.5t-136.5 32.5q-39 0 -77 -8.5t-73 -25.5t-56.5 -48.5t-21.5 -72.5q0 -37 11.5 -62.5t41 -44t57 -29t81.5 -26.5q147 -42 218 -106.5t71 -174.5q0 -75 -34 -133.5t-89 -92.5t-118.5 -51.5
t-129.5 -17.5z" />
    <glyph glyph-name="Scedilla" unicode="&#x15e;" horiz-adv-x="1155" 
d="M399 -471q-45 0 -103 11t-95 30l39 74q62 -29 151 -29q53 0 94 22t41 70q0 38 -28.5 58t-73.5 20q-44 0 -90 -16l-31 30l133 166q-130 6 -240.5 61.5t-168.5 151.5l131 84q42 -75 126 -123.5t193 -48.5q153 0 259 85.5t106 221.5q0 48 -17 88.5t-42 68t-68.5 53.5t-81 42
t-94.5 37q-70 26 -122.5 54.5t-101.5 71.5t-75.5 103.5t-26.5 135.5q0 190 138 313t378 123q142 0 247 -47t154 -125l-124 -90q-40 60 -115 97.5t-170 37.5q-65 0 -127 -17.5t-114 -52t-83.5 -92t-31.5 -129.5q0 -44 14.5 -81t36 -62.5t58.5 -49t71 -39t84 -34.5
q43 -16 75 -30t72 -35t69.5 -42t59 -50.5t48.5 -61.5t30.5 -73t11.5 -87q0 -59 -14.5 -117.5t-49.5 -118t-87.5 -105.5t-135 -78.5t-184.5 -39.5l-94 -119q30 9 64 9q60 0 105.5 -34t45.5 -104q0 -65 -41 -109.5t-94 -61.5t-111 -17z" />
    <glyph glyph-name="scedilla" unicode="&#x15f;" horiz-adv-x="909" 
d="M301 -471q-46 0 -104 11t-95 30l39 74q62 -29 152 -29q53 0 94 22t41 70q0 38 -28.5 58t-73.5 20q-44 0 -90 -16l-31 30l141 178q-113 6 -206.5 52t-147.5 129l119 78q36 -62 107.5 -103t158.5 -41q99 0 169 41t70 123q0 72 -54 112.5t-179 80.5q-40 13 -70 25
t-64.5 33.5t-56 47t-36.5 63.5t-15 84q0 71 33 126.5t87.5 88.5t118 49.5t130.5 16.5q109 0 197 -43.5t127 -114.5l-109 -77q-28 55 -86.5 87.5t-136.5 32.5q-39 0 -77 -8.5t-73 -25.5t-56.5 -48.5t-21.5 -72.5q0 -37 11.5 -62.5t41 -44t57 -29t81.5 -26.5
q147 -42 218 -106.5t71 -174.5q0 -67 -27.5 -121t-73.5 -88t-101 -54.5t-116 -26.5l-104 -134q30 9 63 9q60 0 106 -34t46 -104q0 -65 -41 -109.5t-94 -61.5t-111 -17z" />
    <glyph glyph-name="Scaron" unicode="&#x160;" horiz-adv-x="1155" 
d="M811 1565h-164l-170 295h129l131 -222l209 222h141zM471 -37q-137 0 -259.5 56.5t-184.5 158.5l131 84q42 -75 126 -123.5t193 -48.5q153 0 259 85.5t106 221.5q0 48 -17 88.5t-42 68t-68.5 53.5t-81 42t-94.5 37q-70 26 -122.5 54.5t-101.5 71.5t-75.5 103.5
t-26.5 135.5q0 190 138 313t378 123q142 0 247 -47t154 -125l-124 -90q-40 60 -115 97.5t-170 37.5q-65 0 -127 -17.5t-114 -52t-83.5 -92t-31.5 -129.5q0 -44 14.5 -81t36 -62.5t58.5 -49t71 -39t84 -34.5q43 -16 75 -30t72 -35t69.5 -42t59 -50.5t48.5 -61.5t30.5 -73
t11.5 -87q0 -62 -16 -123.5t-55 -123.5t-97 -108.5t-150 -76t-206 -29.5z" />
    <glyph glyph-name="scaron" unicode="&#x161;" horiz-adv-x="909" 
d="M629 1155h-164l-170 295h129l131 -221l209 221h141zM383 -25q-124 0 -228.5 46.5t-162.5 136.5l119 78q36 -62 107.5 -103t158.5 -41q99 0 169 41t70 123q0 72 -54 112.5t-179 80.5q-40 13 -70 25t-64.5 33.5t-56 47t-36.5 63.5t-15 84q0 71 33 126.5t87.5 88.5t118 49.5
t130.5 16.5q109 0 197 -43.5t127 -114.5l-109 -77q-28 55 -86.5 87.5t-136.5 32.5q-39 0 -77 -8.5t-73 -25.5t-56.5 -48.5t-21.5 -72.5q0 -37 11.5 -62.5t41 -44t57 -29t81.5 -26.5q147 -42 218 -106.5t71 -174.5q0 -75 -34 -133.5t-89 -92.5t-118.5 -51.5t-129.5 -17.5z
" />
    <glyph glyph-name="uni0162" unicode="&#x162;" horiz-adv-x="1120" 
d="M512 0h-145l233 1321h-485l22 129h1118l-22 -129h-488zM279 -471h-117l207 379h145z" />
    <glyph glyph-name="uni0163" unicode="&#x163;" horiz-adv-x="628" 
d="M315 -12q-37 0 -70 8.5t-65 28.5t-50.5 59t-18.5 94q0 28 6 66l106 602h-198l22 115h195l47 268h137l-47 -268h264l-22 -115h-261l-100 -563q-6 -37 -6 -66q0 -63 30.5 -88t88.5 -25q30 0 64 9t52 22l-16 -119q-54 -28 -158 -28zM147 -471h-116l207 379h145z" />
    <glyph glyph-name="Tcaron" unicode="&#x164;" horiz-adv-x="1120" 
d="M793 1565h-164l-170 295h129l131 -222l209 222h141zM512 0h-145l233 1321h-485l22 129h1118l-22 -129h-488z" />
    <glyph glyph-name="tcaron" unicode="&#x165;" horiz-adv-x="649" 
d="M657 1118h-116l207 379h145zM315 -12q-37 0 -70 8.5t-65 28.5t-50.5 59t-18.5 94q0 28 6 66l106 602h-198l22 115h195l47 268h137l-47 -268h264l-22 -115h-261l-100 -563q-6 -37 -6 -66q0 -63 30.5 -88t88.5 -25q30 0 64 9t52 22l-16 -119q-54 -28 -158 -28z" />
    <glyph glyph-name="Tbar" unicode="&#x166;" horiz-adv-x="1142" 
d="M522 0h-145l178 1010h-346l16 102h348l37 209h-485l22 129h1119l-23 -129h-487l-37 -209h354l-16 -102h-357z" />
    <glyph glyph-name="tbar" unicode="&#x167;" horiz-adv-x="628" 
d="M643 961l-22 -115h-261l-36 -203h233l-16 -102h-236l-45 -258q-6 -37 -6 -66q0 -63 30.5 -88t88.5 -25q30 0 64 9t52 22l-16 -119q-54 -28 -158 -28q-37 0 -70 8.5t-65 28.5t-50.5 59t-18.5 94q0 28 6 66l51 297h-152l17 102h153l37 203h-198l22 115h195l47 268h137
l-47 -268h264z" />
    <glyph glyph-name="Utilde" unicode="&#x168;" horiz-adv-x="1454" 
d="M651 1589h-88q74 213 228 213q49 0 141 -47q2 -1 14.5 -7.5t15.5 -8l14 -7t15 -7t13.5 -5.5t15 -5t13.5 -3.5t14.5 -3t13.5 -0.5q73 0 119 102h88q-78 -213 -228 -213q-58 0 -141 48q-81 47 -129 47q-79 0 -119 -103zM637 -37q-126 0 -221.5 38t-150 102t-81 139.5
t-26.5 160.5q0 73 12 138l160 909h145l-158 -893q-12 -65 -12 -125q0 -72 18 -131.5t56.5 -108t106 -75.5t159.5 -27q384 0 465 467l158 893h145l-160 -909q-14 -81 -38.5 -154t-73.5 -153t-113.5 -138t-165.5 -95.5t-225 -37.5z" />
    <glyph glyph-name="utilde" unicode="&#x169;" horiz-adv-x="1181" 
d="M426 1180h-88q74 213 225 213q59 0 144 -47q4 -2 18.5 -9.5t20 -10t18 -8.5t19.5 -8.5t17 -6t18.5 -4.5t17.5 -1q72 0 118 103h88q-78 -213 -227 -213q-49 0 -141 47q-81 47 -131 47q-77 0 -117 -102zM436 -25q-154 0 -242 78.5t-88 214.5q0 35 11 103l104 590h137
l-94 -533q-12 -64 -12 -121q0 -105 49.5 -160t163.5 -55q119 0 219.5 97t132.5 278l86 494h137l-131 -750q-26 -164 -30 -211h-134q14 116 23 164h-4q-55 -88 -143 -138.5t-185 -50.5z" />
    <glyph glyph-name="Umacron" unicode="&#x16a;" horiz-adv-x="1454" 
d="M1182 1638h-555l18 111h555zM637 -37q-126 0 -221.5 38t-150 102t-81 139.5t-26.5 160.5q0 73 12 138l160 909h145l-158 -893q-12 -65 -12 -125q0 -72 18 -131.5t56.5 -108t106 -75.5t159.5 -27q384 0 465 467l158 893h145l-160 -909q-14 -81 -38.5 -154t-73.5 -153
t-113.5 -138t-165.5 -95.5t-225 -37.5z" />
    <glyph glyph-name="umacron" unicode="&#x16b;" horiz-adv-x="1181" 
d="M954 1229h-555l19 110h555zM436 -25q-154 0 -242 78.5t-88 214.5q0 35 11 103l104 590h137l-94 -533q-12 -64 -12 -121q0 -105 49.5 -160t163.5 -55q119 0 219.5 97t132.5 278l86 494h137l-131 -750q-26 -164 -30 -211h-134q14 116 23 164h-4q-55 -88 -143 -138.5
t-185 -50.5z" />
    <glyph glyph-name="Ubreve" unicode="&#x16c;" horiz-adv-x="1454" 
d="M889 1589q-128 0 -199.5 69t-71.5 202h91q0 -160 182 -160q89 0 155.5 42t83.5 118h91q-20 -119 -113.5 -195t-218.5 -76zM637 -37q-126 0 -221.5 38t-150 102t-81 139.5t-26.5 160.5q0 73 12 138l160 909h145l-158 -893q-12 -65 -12 -125q0 -72 18 -131.5t56.5 -108
t106 -75.5t159.5 -27q384 0 465 467l158 893h145l-160 -909q-14 -81 -38.5 -154t-73.5 -153t-113.5 -138t-165.5 -95.5t-225 -37.5z" />
    <glyph glyph-name="ubreve" unicode="&#x16d;" horiz-adv-x="1181" 
d="M659 1180q-128 0 -199 68.5t-71 201.5h90q0 -160 183 -160q89 0 155.5 42t83.5 118h90q-20 -119 -113.5 -194.5t-218.5 -75.5zM436 -25q-154 0 -242 78.5t-88 214.5q0 35 11 103l104 590h137l-94 -533q-12 -64 -12 -121q0 -105 49.5 -160t163.5 -55q119 0 219.5 97
t132.5 278l86 494h137l-131 -750q-26 -164 -30 -211h-134q14 116 23 164h-4q-55 -88 -143 -138.5t-185 -50.5z" />
    <glyph glyph-name="Uring" unicode="&#x16e;" horiz-adv-x="1454" 
d="M891 1544q-76 0 -125 45.5t-49 116.5q0 95 63 163t158 68q77 0 125.5 -44.5t48.5 -116.5q0 -97 -63 -164.5t-158 -67.5zM895 1606q63 0 105 48.5t42 117.5q0 46 -29 76t-79 30q-62 0 -104 -49t-42 -117q0 -47 29 -76.5t78 -29.5zM637 -37q-126 0 -221.5 38t-150 102
t-81 139.5t-26.5 160.5q0 73 12 138l160 909h145l-158 -893q-12 -65 -12 -125q0 -72 18 -131.5t56.5 -108t106 -75.5t159.5 -27q384 0 465 467l158 893h145l-160 -909q-14 -81 -38.5 -154t-73.5 -153t-113.5 -138t-165.5 -95.5t-225 -37.5z" />
    <glyph glyph-name="uring" unicode="&#x16f;" horiz-adv-x="1181" 
d="M672 1135q-77 0 -126.5 45.5t-49.5 115.5q0 95 64 163.5t159 68.5q77 0 125.5 -45t48.5 -117q0 -97 -63 -164t-158 -67zM676 1196q63 0 105 48.5t42 117.5q0 46 -29 76t-79 30q-62 0 -104 -48.5t-42 -116.5q0 -47 29 -77t78 -30zM436 -25q-154 0 -242 78.5t-88 214.5
q0 35 11 103l104 590h137l-94 -533q-12 -64 -12 -121q0 -105 49.5 -160t163.5 -55q119 0 219.5 97t132.5 278l86 494h137l-131 -750q-26 -164 -30 -211h-134q14 116 23 164h-4q-55 -88 -143 -138.5t-185 -50.5z" />
    <glyph glyph-name="Uhungarumlaut" unicode="&#x170;" horiz-adv-x="1454" 
d="M754 1565h-121l260 295h186zM1104 1565h-121l258 295h186zM637 -37q-126 0 -221.5 38t-150 102t-81 139.5t-26.5 160.5q0 73 12 138l160 909h145l-158 -893q-12 -65 -12 -125q0 -72 18 -131.5t56.5 -108t106 -75.5t159.5 -27q384 0 465 467l158 893h145l-160 -909
q-14 -81 -38.5 -154t-73.5 -153t-113.5 -138t-165.5 -95.5t-225 -37.5z" />
    <glyph glyph-name="uhungarumlaut" unicode="&#x171;" horiz-adv-x="1181" 
d="M528 1155h-120l260 295h186zM879 1155h-121l258 295h186zM436 -25q-154 0 -242 78.5t-88 214.5q0 35 11 103l104 590h137l-94 -533q-12 -64 -12 -121q0 -105 49.5 -160t163.5 -55q119 0 219.5 97t132.5 278l86 494h137l-131 -750q-26 -164 -30 -211h-134q14 116 23 164
h-4q-55 -88 -143 -138.5t-185 -50.5z" />
    <glyph glyph-name="Uogonek" unicode="&#x172;" horiz-adv-x="1454" 
d="M631 -457q-67 0 -114.5 37t-47.5 105q0 136 180 278q-107 -1 -192.5 25t-140 68t-91.5 100.5t-52 119.5t-15 127q0 73 12 138l160 909h145l-158 -893q-12 -65 -12 -125q0 -72 18 -131.5t56.5 -108t106 -75.5t159.5 -27q384 0 465 467l158 893h145l-160 -909
q-13 -72 -33.5 -137.5t-59.5 -138t-90 -128.5t-129 -100.5t-173 -61.5q-84 -76 -129 -136.5t-45 -112.5q0 -72 88 -72q65 0 113 45l24 -82q-90 -74 -188 -74z" />
    <glyph glyph-name="uogonek" unicode="&#x173;" horiz-adv-x="1181" 
d="M903 961h137l-131 -750q-26 -164 -30 -211h10q-207 -171 -207 -274q0 -72 88 -72q64 0 115 45l24 -82q-94 -74 -190 -74q-67 0 -114.5 37t-47.5 105q0 151 231 315h-43q14 116 23 164h-4q-55 -88 -143 -138.5t-185 -50.5q-154 0 -242 78.5t-88 214.5q0 35 11 103l104 590
h137l-94 -533q-12 -64 -12 -121q0 -105 49.5 -160t163.5 -55q119 0 219.5 97t132.5 278z" />
    <glyph glyph-name="Wcircumflex" unicode="&#x174;" horiz-adv-x="1966" 
d="M997 1565h-141l277 295h163l170 -295h-129l-131 221zM496 0h-172l-150 1450h156l116 -1247h5l604 1247h176l121 -1247h4l596 1247h155l-706 -1450h-172l-117 1249h-4z" />
    <glyph glyph-name="wcircumflex" unicode="&#x175;" horiz-adv-x="1501" 
d="M655 1155h-141l277 295h163l170 -295h-129l-131 221zM356 0h-145l-105 961h144l65 -781h4l406 781h131l113 -781h6l383 781h147l-489 -961h-148l-108 778h-4z" />
    <glyph glyph-name="Ycircumflex" unicode="&#x176;" horiz-adv-x="1140" 
d="M895 1565l-131 221l-209 -221h-141l276 295h164l170 -295h-129zM563 745l580 705h182l-709 -825l-110 -625h-146l111 625l-369 825h172z" />
    <glyph glyph-name="ycircumflex" unicode="&#x177;" horiz-adv-x="989" 
d="M412 1155h-142l277 295h164l170 -295h-129l-131 221zM-31 -492q-53 0 -116 13l20 127q49 -17 90 -17q62 0 110.5 42t98.5 128l119 201l-201 959h143l154 -809h4l467 809h154l-725 -1209q-74 -123 -146.5 -183.5t-171.5 -60.5z" />
    <glyph glyph-name="Ydieresis" unicode="&#x178;" horiz-adv-x="1140" 
d="M532 1636q-41 0 -69.5 27t-28.5 70t31 73.5t72 30.5q40 0 67 -27t27 -71q0 -41 -29.5 -72t-69.5 -31zM936 1636q-41 0 -68.5 27t-27.5 70q0 44 30 74t70 30q41 0 68.5 -27.5t27.5 -70.5q0 -42 -29.5 -72.5t-70.5 -30.5zM563 745l580 705h182l-709 -825l-110 -625h-146
l111 625l-369 825h172z" />
    <glyph glyph-name="Zacute" unicode="&#x179;" horiz-adv-x="1171" 
d="M752 1565h-115l258 295h180zM997 0h-1048l22 123l1063 1198h-815l23 129h1003l-22 -123l-1061 -1198h858z" />
    <glyph glyph-name="zacute" unicode="&#x17a;" horiz-adv-x="905" 
d="M539 1155h-115l258 295h180zM731 0h-778l16 98l703 746h-543l23 117h729l-19 -99l-704 -741h594z" />
    <glyph glyph-name="Zdotaccent" unicode="&#x17b;" horiz-adv-x="1171" 
d="M782 1640q-39 0 -66.5 25.5t-27.5 67.5t29.5 71t68.5 29t66 -26t27 -68q0 -40 -28.5 -69.5t-68.5 -29.5zM997 0h-1048l22 123l1063 1198h-815l23 129h1003l-22 -123l-1061 -1198h858z" />
    <glyph glyph-name="zdotaccent" unicode="&#x17c;" horiz-adv-x="905" 
d="M567 1231q-40 0 -67 25t-27 67t29.5 71t68.5 29t66 -26t27 -68q0 -40 -28.5 -69t-68.5 -29zM731 0h-778l16 98l703 746h-543l23 117h729l-19 -99l-704 -741h594z" />
    <glyph glyph-name="Zcaron" unicode="&#x17d;" horiz-adv-x="1171" 
d="M821 1565h-164l-170 295h129l132 -222l208 222h142zM997 0h-1048l22 123l1063 1198h-815l23 129h1003l-22 -123l-1061 -1198h858z" />
    <glyph glyph-name="zcaron" unicode="&#x17e;" horiz-adv-x="905" 
d="M614 1155h-163l-170 295h129l131 -221l209 221h141zM731 0h-778l16 98l703 746h-543l23 117h729l-19 -99l-704 -741h594z" />
    <glyph glyph-name="longs" unicode="&#x17f;" horiz-adv-x="563" 
d="M254 0h-137l147 846h-203l23 115h199l45 258q13 74 39.5 136t69 112t106.5 78t143 28q61 0 113 -14l-33 -121q-43 12 -96 12q-93 0 -139.5 -64.5t-67.5 -181.5z" />
    <glyph glyph-name="uni018F" unicode="&#x18f;" horiz-adv-x="1658" 
d="M909 1487q195 0 341 -76t228.5 -228t82.5 -364q0 -169 -65 -326.5t-174 -273.5t-260.5 -186t-316.5 -70q-154 0 -275.5 45.5t-198.5 125.5t-117.5 186.5t-40.5 232.5q0 88 30 266h1262q0 119 -31 217t-91.5 171t-158 113t-223.5 40q-282 0 -463 -217l-108 78
q94 119 240.5 192.5t338.5 73.5zM748 90q120 0 232.5 51t196 134.5t140 192t72.5 222.5h-1117q-6 -58 -6 -110q0 -222 122.5 -356t359.5 -134z" />
    <glyph glyph-name="florin" unicode="&#x192;" horiz-adv-x="1187" 
d="M6 -285q-101 0 -158 49l82 99q45 -25 103 -25q45 0 81 18t61 53t40.5 67t32.5 79l250 693h-222l21 110h244l106 295q25 68 55.5 122t74 101t104.5 73t135 26q106 0 184 -60l-88 -98q-54 35 -111 35q-145 0 -225 -238l-90 -256h221l-20 -110h-244l-264 -721
q-112 -312 -373 -312z" />
    <glyph glyph-name="Ohorn" unicode="&#x1a0;" horiz-adv-x="1708" 
d="M764 -37q-188 0 -334.5 77.5t-228.5 219.5t-82 326q0 185 65.5 351.5t178 287t269.5 191.5t333 71q92 0 175 -19.5t132.5 -43t104.5 -43t98 -19.5q77 0 128.5 45t51.5 127q0 45 -15 88l117 31q17 -49 17 -115q0 -119 -76.5 -195.5t-220.5 -76.5q133 -165 133 -398
q0 -247 -109 -454t-304 -329t-433 -122zM770 90q148 0 277.5 64t217.5 170t138.5 244t50.5 286q0 142 -56.5 255.5t-170.5 182t-269 68.5q-120 0 -228.5 -42t-190.5 -115t-142.5 -169t-91.5 -208t-31 -228q0 -106 32.5 -198t94 -161.5t156.5 -109t213 -39.5z" />
    <glyph glyph-name="ohorn" unicode="&#x1a1;" horiz-adv-x="1220" 
d="M512 -25q-194 0 -318 116t-124 300q0 120 42.5 228.5t117 188.5t181 127.5t228.5 47.5q81 0 148 -21t123 -42t110 -21q77 0 128.5 45t51.5 127q0 48 -14 88l117 31q16 -46 16 -115q0 -127 -82 -200.5t-223 -71.5q67 -103 67 -234q0 -163 -72 -298.5t-203 -215.5t-294 -80
zM520 92q119 0 215.5 64t149.5 171.5t53 233.5q0 134 -83 220.5t-224 86.5q-117 0 -213 -64.5t-149.5 -172t-53.5 -232.5q0 -135 82.5 -221t222.5 -86z" />
    <glyph glyph-name="Uhorn" unicode="&#x1af;" horiz-adv-x="1454" 
d="M637 -37q-126 0 -221.5 38t-150 102t-81 139.5t-26.5 160.5q0 73 12 138l160 909h145l-158 -893q-12 -65 -12 -125q0 -72 18 -131.5t56.5 -108t106 -75.5t159.5 -27q384 0 465 467l158 893h127q77 0 128.5 45t51.5 127q0 48 -14 88l116 31q17 -49 17 -115
q0 -119 -76.5 -195.5t-220.5 -76.5l-144 -813q-14 -81 -38.5 -154t-73.5 -153t-113.5 -138t-165.5 -95.5t-225 -37.5z" />
    <glyph glyph-name="uhorn" unicode="&#x1b0;" horiz-adv-x="1191" 
d="M436 -25q-154 0 -242 78.5t-88 214.5q0 35 11 103l104 590h137l-94 -533q-12 -64 -12 -121q0 -105 49.5 -160t163.5 -55q119 0 219.5 97t132.5 278l86 494h119q77 0 128.5 45t51.5 127q0 48 -14 88l117 30q16 -46 16 -114q0 -119 -76.5 -196t-220.5 -77l-115 -653
q-26 -164 -30 -211h-134q14 116 23 164h-4q-55 -88 -143 -138.5t-185 -50.5z" />
    <glyph glyph-name="uni01CD" unicode="&#x1cd;" horiz-adv-x="1423" 
d="M1290 1860l-276 -295h-164l-170 295h129l131 -222l209 222h141zM-104 0l933 1450h144l301 -1450h-154l-78 381h-741l-238 -381h-167zM868 1284l-483 -768h635z" />
    <glyph glyph-name="uni01CE" unicode="&#x1ce;" horiz-adv-x="1093" 
d="M666 1155h-164l-170 295h129l131 -221l209 221h141zM338 -18q-52 0 -100.5 13t-92.5 40t-71 77.5t-27 116.5q0 64 22.5 116t60.5 88.5t94.5 64.5t118 45t138 27t146.5 14t151 4h6q11 65 11 90q0 190 -226 190q-80 0 -160.5 -32.5t-138.5 -81.5l-61 92q69 62 172 99.5
t203 37.5q95 0 169.5 -27.5t122.5 -91t48 -157.5q0 -42 -9 -103l-69 -389q-23 -142 -23 -215h-123q0 73 13 156h-4q-83 -95 -167 -134.5t-204 -39.5zM387 92q143 0 242 89t123 222l14 80h-33q-543 0 -543 -237q0 -83 56 -118.5t141 -35.5z" />
    <glyph glyph-name="uni01CF" unicode="&#x1cf;" horiz-adv-x="532" 
d="M512 1565h-164l-170 295h129l131 -222l209 222h141zM227 0h-145l256 1450h145z" />
    <glyph glyph-name="uni01D0" unicode="&#x1d0;" horiz-adv-x="512" 
d="M420 1155h-164l-170 295h129l131 -221l209 221h141zM213 0h-137l170 961h137z" />
    <glyph glyph-name="uni01D1" unicode="&#x1d1;" horiz-adv-x="1708" 
d="M1075 1565h-164l-170 295h129l131 -222l209 222h142zM764 -37q-188 0 -334.5 77.5t-228.5 219.5t-82 326q0 185 65.5 351.5t178 287t269.5 191.5t333 71q187 0 333.5 -77t229 -218t82.5 -324q0 -247 -109 -454t-304 -329t-433 -122zM770 90q148 0 277.5 64t217.5 170
t138.5 244t50.5 286q0 142 -56.5 255.5t-170.5 182t-269 68.5q-120 0 -228.5 -42t-190.5 -115t-142.5 -169t-91.5 -208t-31 -228q0 -106 32.5 -198t94 -161.5t156.5 -109t213 -39.5z" />
    <glyph glyph-name="uni01D2" unicode="&#x1d2;" horiz-adv-x="1220" 
d="M748 1155h-164l-170 295h129l131 -221l209 221h141zM512 -25q-194 0 -318 116t-124 300q0 120 42.5 228.5t117 188.5t181 127.5t228.5 47.5q195 0 318.5 -115t123.5 -299q0 -163 -72 -298.5t-203 -215.5t-294 -80zM520 92q119 0 215.5 64t149.5 171.5t53 233.5
q0 134 -83 220.5t-224 86.5q-117 0 -213 -64.5t-149.5 -172t-53.5 -232.5q0 -135 82.5 -221t222.5 -86z" />
    <glyph glyph-name="uni01D3" unicode="&#x1d3;" horiz-adv-x="1454" 
d="M973 1565h-164l-170 295h129l131 -222l209 222h141zM637 -37q-126 0 -221.5 38t-150 102t-81 139.5t-26.5 160.5q0 73 12 138l160 909h145l-158 -893q-12 -65 -12 -125q0 -72 18 -131.5t56.5 -108t106 -75.5t159.5 -27q384 0 465 467l158 893h145l-160 -909
q-14 -81 -38.5 -154t-73.5 -153t-113.5 -138t-165.5 -95.5t-225 -37.5z" />
    <glyph glyph-name="uni01D4" unicode="&#x1d4;" horiz-adv-x="1181" 
d="M727 1155h-164l-170 295h129l131 -221l209 221h142zM436 -25q-154 0 -242 78.5t-88 214.5q0 35 11 103l104 590h137l-94 -533q-12 -64 -12 -121q0 -105 49.5 -160t163.5 -55q119 0 219.5 97t132.5 278l86 494h137l-131 -750q-26 -164 -30 -211h-134q14 116 23 164h-4
q-55 -88 -143 -138.5t-185 -50.5z" />
    <glyph glyph-name="uni01D5" unicode="&#x1d5;" horiz-adv-x="1454" 
d="M1237 2007h-557l20 111h555zM694 1573q-41 0 -69.5 26.5t-28.5 69.5t31 74t71 31q42 0 69.5 -27.5t27.5 -71.5q0 -41 -30 -71.5t-71 -30.5zM1100 1573q-41 0 -68.5 26.5t-27.5 69.5q0 44 30 74.5t70 30.5t68 -28t28 -71q0 -41 -29.5 -71.5t-70.5 -30.5zM637 -37
q-126 0 -221.5 38t-150 102t-81 139.5t-26.5 160.5q0 73 12 138l160 909h145l-158 -893q-12 -65 -12 -125q0 -72 18 -131.5t56.5 -108t106 -75.5t159.5 -27q384 0 465 467l158 893h145l-160 -909q-14 -81 -38.5 -154t-73.5 -153t-113.5 -138t-165.5 -95.5t-225 -37.5z" />
    <glyph glyph-name="uni01D6" unicode="&#x1d6;" horiz-adv-x="1181" 
d="M1010 1638h-557l18 111h557zM467 1204q-41 0 -69.5 26.5t-28.5 69.5q0 44 30.5 74.5t71.5 30.5t68.5 -27.5t27.5 -70.5q0 -41 -30 -72t-70 -31zM872 1204q-41 0 -68.5 26.5t-27.5 69.5q0 44 30.5 74.5t70.5 30.5q41 0 68.5 -27.5t27.5 -70.5q0 -41 -30 -72t-71 -31z
M436 -25q-154 0 -242 78.5t-88 214.5q0 35 11 103l104 590h137l-94 -533q-12 -64 -12 -121q0 -105 49.5 -160t163.5 -55q119 0 219.5 97t132.5 278l86 494h137l-131 -750q-26 -164 -30 -211h-134q14 116 23 164h-4q-55 -88 -143 -138.5t-185 -50.5z" />
    <glyph glyph-name="uni01D7" unicode="&#x1d7;" horiz-adv-x="1454" 
d="M985 1896h-121l238 277h186zM694 1573q-41 0 -69.5 26.5t-28.5 69.5t31 74t71 31q42 0 69.5 -27.5t27.5 -71.5q0 -41 -30 -71.5t-71 -30.5zM1100 1573q-41 0 -68.5 26.5t-27.5 69.5q0 44 30 74.5t70 30.5t68 -28t28 -71q0 -41 -29.5 -71.5t-70.5 -30.5zM637 -37
q-126 0 -221.5 38t-150 102t-81 139.5t-26.5 160.5q0 73 12 138l160 909h145l-158 -893q-12 -65 -12 -125q0 -72 18 -131.5t56.5 -108t106 -75.5t159.5 -27q384 0 465 467l158 893h145l-160 -909q-14 -81 -38.5 -154t-73.5 -153t-113.5 -138t-165.5 -95.5t-225 -37.5z" />
    <glyph glyph-name="uni01D8" unicode="&#x1d8;" horiz-adv-x="1181" 
d="M754 1528h-121l237 276h187zM467 1204q-41 0 -69.5 26.5t-28.5 69.5q0 44 30.5 74.5t71.5 30.5q40 0 67 -27t27 -71q0 -41 -29 -72t-69 -31zM870 1204q-41 0 -68.5 26.5t-27.5 69.5q0 44 30 74.5t70 30.5q41 0 69 -27.5t28 -70.5q0 -41 -30 -72t-71 -31zM436 -25
q-154 0 -242 78.5t-88 214.5q0 35 11 103l104 590h137l-94 -533q-12 -64 -12 -121q0 -105 49.5 -160t163.5 -55q119 0 219.5 97t132.5 278l86 494h137l-131 -750q-26 -164 -30 -211h-134q14 116 23 164h-4q-55 -88 -143 -138.5t-185 -50.5z" />
    <glyph glyph-name="uni01D9" unicode="&#x1d9;" horiz-adv-x="1454" 
d="M1018 1896h-164l-160 277h135l121 -203l191 203h135zM694 1573q-41 0 -69.5 26.5t-28.5 69.5t31 74t71 31t67.5 -27.5t27.5 -71.5q0 -41 -29.5 -71.5t-69.5 -30.5zM1098 1573q-41 0 -69 26.5t-28 69.5q0 44 30.5 74.5t70.5 30.5t68 -28t28 -71q0 -41 -29.5 -71.5
t-70.5 -30.5zM637 -37q-126 0 -221.5 38t-150 102t-81 139.5t-26.5 160.5q0 73 12 138l160 909h145l-158 -893q-12 -65 -12 -125q0 -72 18 -131.5t56.5 -108t106 -75.5t159.5 -27q384 0 465 467l158 893h145l-160 -909q-14 -81 -38.5 -154t-73.5 -153t-113.5 -138
t-165.5 -95.5t-225 -37.5z" />
    <glyph glyph-name="uni01DA" unicode="&#x1da;" horiz-adv-x="1181" 
d="M791 1528h-164l-162 276h137l121 -202l190 202h136zM467 1204q-41 0 -69.5 26.5t-28.5 69.5q0 44 30.5 74.5t71.5 30.5t68.5 -27.5t27.5 -70.5q0 -41 -30 -72t-70 -31zM872 1204q-41 0 -68.5 26.5t-27.5 69.5q0 44 30.5 74.5t70.5 30.5q41 0 68.5 -27.5t27.5 -70.5
q0 -41 -30 -72t-71 -31zM436 -25q-154 0 -242 78.5t-88 214.5q0 35 11 103l104 590h137l-94 -533q-12 -64 -12 -121q0 -105 49.5 -160t163.5 -55q119 0 219.5 97t132.5 278l86 494h137l-131 -750q-26 -164 -30 -211h-134q14 116 23 164h-4q-55 -88 -143 -138.5t-185 -50.5z
" />
    <glyph glyph-name="uni01DB" unicode="&#x1db;" horiz-adv-x="1454" 
d="M995 1896h-121l-204 277h186zM694 1573q-41 0 -69.5 26.5t-28.5 69.5t31 74t71 31t67.5 -27.5t27.5 -71.5q0 -41 -29.5 -71.5t-69.5 -30.5zM1098 1573q-41 0 -69 26.5t-28 69.5q0 44 30.5 74.5t70.5 30.5t68 -28t28 -71q0 -41 -29.5 -71.5t-70.5 -30.5zM637 -37
q-126 0 -221.5 38t-150 102t-81 139.5t-26.5 160.5q0 73 12 138l160 909h145l-158 -893q-12 -65 -12 -125q0 -72 18 -131.5t56.5 -108t106 -75.5t159.5 -27q384 0 465 467l158 893h145l-160 -909q-14 -81 -38.5 -154t-73.5 -153t-113.5 -138t-165.5 -95.5t-225 -37.5z" />
    <glyph glyph-name="uni01DC" unicode="&#x1dc;" horiz-adv-x="1181" 
d="M768 1528h-121l-205 276h187zM467 1204q-41 0 -69.5 26.5t-28.5 69.5q0 44 30.5 74.5t71.5 30.5q40 0 67 -27t27 -71q0 -41 -29 -72t-69 -31zM870 1204q-41 0 -68.5 26.5t-27.5 69.5q0 44 30 74.5t70 30.5q41 0 69 -27.5t28 -70.5q0 -41 -30 -72t-71 -31zM436 -25
q-154 0 -242 78.5t-88 214.5q0 35 11 103l104 590h137l-94 -533q-12 -64 -12 -121q0 -105 49.5 -160t163.5 -55q119 0 219.5 97t132.5 278l86 494h137l-131 -750q-26 -164 -30 -211h-134q14 116 23 164h-4q-55 -88 -143 -138.5t-185 -50.5z" />
    <glyph glyph-name="uni01F4" unicode="&#x1f4;" horiz-adv-x="1576" 
d="M995 1565h-114l258 295h180zM770 -37q-290 0 -470.5 172.5t-180.5 450.5q0 185 68 352t184 287.5t276.5 191t337.5 70.5q160 0 293.5 -63t194.5 -169l-134 -88q-38 79 -132 136t-226 57q-151 0 -285 -64.5t-225.5 -170.5t-144 -243.5t-52.5 -281.5t57 -258t173 -183
t274 -69q249 0 412 98l78 445h-342l22 125h486l-115 -654q-245 -141 -549 -141z" />
    <glyph glyph-name="uni01F5" unicode="&#x1f5;" horiz-adv-x="1284" 
d="M682 1155h-115l258 295h181zM432 -492q-138 0 -254 51.5t-186 141.5l92 98q52 -75 146.5 -122.5t201.5 -47.5q349 0 420 379l35 182h-4q-64 -91 -160 -140.5t-205 -49.5q-193 0 -309.5 119t-116.5 301q0 153 72 282t200.5 205t286.5 76q108 0 201 -50.5t131 -139.5h4
l31 168h135l-168 -953q-9 -51 -20 -94t-32 -96t-47.5 -95t-69.5 -83.5t-95.5 -69.5t-126.5 -45t-162 -17zM541 115q182 0 299.5 131t117.5 315q0 131 -85 219t-224 88q-185 0 -300.5 -124t-115.5 -326q0 -130 82 -216.5t226 -86.5z" />
    <glyph glyph-name="Aringacute" unicode="&#x1fa;" horiz-adv-x="1423" 
d="M1260 2351h180l-324 -295h-115zM946 1544q-76 0 -125 45.5t-49 116.5q0 95 63 163t158 68q77 0 125.5 -44.5t48.5 -116.5q0 -97 -63 -164.5t-158 -67.5zM989 1878q-62 0 -103.5 -48.5t-41.5 -117.5q0 -47 28.5 -76.5t77.5 -29.5q64 0 106 48.5t42 117.5q0 46 -29.5 76
t-79.5 30zM-104 0l933 1450h144l301 -1450h-154l-78 381h-741l-238 -381h-167zM868 1284l-483 -768h635z" />
    <glyph glyph-name="aringacute" unicode="&#x1fb;" horiz-adv-x="1093" 
d="M723 1606h-115l258 295h181zM641 1090q-77 0 -126.5 45.5t-49.5 115.5q0 95 64 163.5t159 68.5q77 0 125.5 -45t48.5 -117q0 -97 -63 -164t-158 -67zM645 1151q64 0 106 48.5t42 117.5q0 46 -29.5 76t-79.5 30q-62 0 -103.5 -48.5t-41.5 -117.5q0 -47 28.5 -76.5
t77.5 -29.5zM338 -18q-52 0 -100.5 13t-92.5 40t-71 77.5t-27 116.5q0 64 22.5 116t60.5 88.5t94.5 64.5t118 45t138 27t146.5 14t151 4h6q11 65 11 90q0 190 -226 190q-80 0 -160.5 -32.5t-138.5 -81.5l-61 92q69 62 172 99.5t203 37.5q95 0 169.5 -27.5t122.5 -91
t48 -157.5q0 -42 -9 -103l-69 -389q-23 -142 -23 -215h-123q0 73 13 156h-4q-83 -95 -167 -134.5t-204 -39.5zM387 92q143 0 242 89t123 222l14 80h-33q-543 0 -543 -237q0 -83 56 -118.5t141 -35.5z" />
    <glyph glyph-name="AEacute" unicode="&#x1fc;" horiz-adv-x="2027" 
d="M1638 1565h-114l258 295h180zM94 0h-182l1200 1450h911l-22 -129h-672l-88 -504h639l-22 -125h-639l-101 -563h725l-22 -129h-869l72 410h-596zM1169 1321l-645 -786h523l139 786h-17z" />
    <glyph glyph-name="aeacute" unicode="&#x1fd;" horiz-adv-x="1810" 
d="M1147 1155h-115l258 295h180zM369 -18q-61 0 -115.5 13t-102.5 40.5t-76 77t-28 116.5q0 59 22 106.5t59 80t93.5 56.5t115 38t136 22t144.5 10.5t151 2.5h6q21 99 21 133q0 190 -226 190q-80 0 -160.5 -32.5t-138.5 -81.5l-61 92q69 62 172 99.5t203 37.5
q116 0 202.5 -46t118.5 -140q56 79 162 132.5t209 53.5q191 0 295 -102.5t104 -272.5q0 -95 -18 -166h-772q-4 -32 -4 -45q0 -135 79.5 -220t208.5 -85q106 0 191 47t141 121l86 -82q-83 -99 -194 -151t-236 -52t-224.5 68.5t-135.5 173.5q-131 -235 -428 -235zM903 545h631
q4 40 4 71q0 114 -69.5 183t-196.5 69q-137 0 -237 -93t-132 -230zM387 92q145 0 244 87t121 224l6 39h-33q-115 0 -203.5 -8t-167.5 -28.5t-121.5 -61t-42.5 -98.5q0 -83 56 -118.5t141 -35.5z" />
    <glyph glyph-name="Oslashacute" unicode="&#x1fe;" horiz-adv-x="1708" 
d="M1024 1565h-115l258 295h181zM297 137l-184 -174l-62 70l187 172q-119 160 -119 381q0 184 68 351t183 287.5t274 191.5t335 71q139 0 258.5 -44.5t206.5 -127.5l184 172l62 -70l-185 -172q119 -157 119 -377q0 -246 -112.5 -453.5t-310.5 -329.5t-437 -122
q-142 0 -262 45t-205 129zM352 305l983 914q-135 141 -362 141q-120 0 -230 -42t-194.5 -115t-147 -169t-95 -208.5t-32.5 -227.5q0 -165 78 -293zM770 90q148 0 279.5 64t222.5 169.5t143.5 244.5t52.5 286q0 165 -75 289l-987 -907q133 -146 364 -146z" />
    <glyph glyph-name="oslashacute" unicode="&#x1ff;" horiz-adv-x="1220" 
d="M698 1155h-114l258 295h180zM203 84l-162 -141l-51 63l157 137q-77 104 -77 248q0 120 42.5 228.5t117 188.5t181 127.5t228.5 47.5q192 0 313 -109l158 142l53 -64l-157 -139q75 -101 75 -244q0 -163 -72 -298.5t-203 -215.5t-294 -80q-188 0 -309 109zM252 242l600 542
q-84 84 -221 84q-117 0 -213 -64.5t-149.5 -172t-53.5 -232.5q0 -90 37 -157zM520 92q119 0 215.5 64t149.5 171.5t53 233.5q0 89 -37 156l-602 -539q83 -86 221 -86z" />
    <glyph glyph-name="uni0218" unicode="&#x218;" horiz-adv-x="1155" 
d="M471 -37q-137 0 -259.5 56.5t-184.5 158.5l131 84q42 -75 126 -123.5t193 -48.5q153 0 259 85.5t106 221.5q0 48 -17 88.5t-42 68t-68.5 53.5t-81 42t-94.5 37q-70 26 -122.5 54.5t-101.5 71.5t-75.5 103.5t-26.5 135.5q0 190 138 313t378 123q142 0 247 -47t154 -125
l-124 -90q-40 60 -115 97.5t-170 37.5q-65 0 -127 -17.5t-114 -52t-83.5 -92t-31.5 -129.5q0 -44 14.5 -81t36 -62.5t58.5 -49t71 -39t84 -34.5q43 -16 75 -30t72 -35t69.5 -42t59 -50.5t48.5 -61.5t30.5 -73t11.5 -87q0 -62 -16 -123.5t-55 -123.5t-97 -108.5t-150 -76
t-206 -29.5zM319 -471h-116l207 379h145z" />
    <glyph glyph-name="uni0219" unicode="&#x219;" horiz-adv-x="909" 
d="M383 -25q-124 0 -228.5 46.5t-162.5 136.5l119 78q36 -62 107.5 -103t158.5 -41q99 0 169 41t70 123q0 72 -54 112.5t-179 80.5q-40 13 -70 25t-64.5 33.5t-56 47t-36.5 63.5t-15 84q0 71 33 126.5t87.5 88.5t118 49.5t130.5 16.5q109 0 197 -43.5t127 -114.5l-109 -77
q-28 55 -86.5 87.5t-136.5 32.5q-39 0 -77 -8.5t-73 -25.5t-56.5 -48.5t-21.5 -72.5q0 -37 11.5 -62.5t41 -44t57 -29t81.5 -26.5q147 -42 218 -106.5t71 -174.5q0 -75 -34 -133.5t-89 -92.5t-118.5 -51.5t-129.5 -17.5zM217 -471h-117l207 379h146z" />
    <glyph glyph-name="uni021A" unicode="&#x21a;" horiz-adv-x="1120" 
d="M512 0h-145l233 1321h-485l22 129h1118l-22 -129h-488zM279 -471h-117l207 379h145z" />
    <glyph glyph-name="uni021B" unicode="&#x21b;" horiz-adv-x="628" 
d="M315 -12q-37 0 -70 8.5t-65 28.5t-50.5 59t-18.5 94q0 28 6 66l106 602h-198l22 115h195l47 268h137l-47 -268h264l-22 -115h-261l-100 -563q-6 -37 -6 -66q0 -63 30.5 -88t88.5 -25q30 0 64 9t52 22l-16 -119q-54 -28 -158 -28zM147 -471h-116l207 379h145z" />
    <glyph glyph-name="uni0237" unicode="&#x237;" horiz-adv-x="514" 
d="M-117 -492q-65 0 -114 15l28 117q41 -13 86 -13q81 0 115 50.5t51 154.5l199 1129h137l-203 -1151q-9 -52 -20.5 -91t-34 -81t-53 -68.5t-79.5 -44t-112 -17.5z" />
    <glyph glyph-name="uni0259" unicode="&#x259;" horiz-adv-x="1157" 
d="M457 -25q-186 0 -291 112.5t-105 287.5q0 75 25 182h788q0 137 -84 224t-227 87q-165 0 -282 -127l-93 80q159 162 385 162q203 0 324 -113t121 -299q0 -165 -67 -299.5t-196.5 -215.5t-297.5 -81zM457 90q148 0 258.5 98t144.5 252h-655q-4 -40 -4 -69q0 -126 66 -203.5
t190 -77.5z" />
    <glyph glyph-name="uni02B9" unicode="&#x2b9;" horiz-adv-x="288" 
d="M346 948h-117l66 502h145z" />
    <glyph glyph-name="uni02BC" unicode="&#x2bc;" horiz-adv-x="407" 
d="M283 1071h-117l207 379h145z" />
    <glyph glyph-name="circumflex" unicode="&#x2c6;" horiz-adv-x="491" 
d="M174 1155h-141l276 295h164l170 -295h-129l-131 221z" />
    <glyph glyph-name="caron" unicode="&#x2c7;" horiz-adv-x="491" 
d="M420 1155h-164l-170 295h129l131 -221l209 221h141z" />
    <glyph glyph-name="uni02C9" unicode="&#x2c9;" horiz-adv-x="491" 
d="M629 1638h-553l18 111h553z" />
    <glyph glyph-name="breve" unicode="&#x2d8;" horiz-adv-x="491" 
d="M360 1180q-128 0 -199 68.5t-71 201.5h90q0 -160 182 -160q89 0 156 42t84 118h90q-20 -119 -113.5 -194.5t-218.5 -75.5z" />
    <glyph glyph-name="dotaccent" unicode="&#x2d9;" horiz-adv-x="491" 
d="M369 1231q-40 0 -67.5 25.5t-27.5 66.5q0 42 30 71t69 29t65.5 -26t26.5 -68q0 -40 -28 -69t-68 -29z" />
    <glyph glyph-name="ring" unicode="&#x2da;" horiz-adv-x="491" 
d="M350 1135q-77 0 -126.5 45.5t-49.5 115.5q0 95 64 163.5t159 68.5q77 0 125.5 -45t48.5 -117q0 -97 -63 -164t-158 -67zM354 1196q64 0 106 48.5t42 117.5q0 46 -29.5 76t-79.5 30q-62 0 -103.5 -48.5t-41.5 -116.5q0 -47 28.5 -77t77.5 -30z" />
    <glyph glyph-name="ogonek" unicode="&#x2db;" horiz-adv-x="491" 
d="M66 -457q-67 0 -114.5 37t-47.5 105q0 151 231 315h101q-207 -171 -207 -274q0 -72 88 -72q63 0 114 45l25 -82q-94 -74 -190 -74z" />
    <glyph glyph-name="tilde" unicode="&#x2dc;" horiz-adv-x="491" 
d="M100 1180h-88q74 213 226 213q58 0 143 -47q4 -2 18.5 -9.5t20 -10t18 -8.5t19.5 -8.5t17 -6t18.5 -4.5t17.5 -1q73 0 119 103h88q-78 -213 -228 -213q-49 0 -141 47q-81 47 -131 47q-77 0 -117 -102z" />
    <glyph glyph-name="hungarumlaut" unicode="&#x2dd;" horiz-adv-x="491" 
d="M78 1155h-121l260 295h186zM428 1155h-121l258 295h187z" />
    <glyph glyph-name="gravecomb" unicode="&#x300;" 
d="M362 1155h-114l-271 295h181z" />
    <glyph glyph-name="acutecomb" unicode="&#x301;" 
d="M14 1155h-114l258 295h180z" />
    <glyph glyph-name="uni0302" unicode="&#x302;" 
d="M-45 1155h-141l276 295h164l170 -295h-129l-131 221z" />
    <glyph glyph-name="tildecomb" unicode="&#x303;" 
d="M-141 1180h-88q74 213 225 213q58 0 143 -47q4 -2 18.5 -9.5t20 -10t18 -8.5t19.5 -8.5t17 -6t18.5 -4.5t17.5 -1q73 0 119 103h88q-78 -213 -227 -213q-50 0 -142 47q-81 47 -131 47q-76 0 -116 -102z" />
    <glyph glyph-name="uni0304" unicode="&#x304;" 
d="M401 1229h-555l19 110h555z" />
    <glyph glyph-name="uni0306" unicode="&#x306;" 
d="M139 1180q-128 0 -199 68.5t-71 201.5h90q0 -160 182 -160q89 0 156 42t84 118h90q-20 -119 -113.5 -194.5t-218.5 -75.5z" />
    <glyph glyph-name="uni0307" unicode="&#x307;" 
d="M150 1231q-40 0 -67.5 25.5t-27.5 66.5q0 42 30 71t69 29t65.5 -26t26.5 -68q0 -40 -28 -69t-68 -29z" />
    <glyph glyph-name="uni0308" unicode="&#x308;" 
d="M-53 1227q-41 0 -70 26.5t-29 69.5t31 73.5t72 30.5q40 0 67 -27t27 -71q0 -41 -29 -71.5t-69 -30.5zM350 1227q-41 0 -68.5 26.5t-27.5 69.5q0 44 30 74t70 30q41 0 69 -27.5t28 -70.5q0 -41 -30 -71.5t-71 -30.5z" />
    <glyph glyph-name="hookabovecomb" unicode="&#x309;" 
d="M158 1137h-101q8 47 34.5 80t80.5 57q84 38 84 102q0 30 -20.5 48t-59.5 18q-91 0 -125 -107l-106 15q61 176 237 176q84 0 132 -40.5t48 -105.5q0 -114 -129 -168q-69 -30 -75 -75z" />
    <glyph glyph-name="uni030A" unicode="&#x30a;" 
d="M125 1135q-77 0 -126.5 45.5t-49.5 115.5q0 95 64 163.5t159 68.5q77 0 125.5 -45t48.5 -117q0 -97 -63 -164t-158 -67zM129 1196q63 0 105 48.5t42 117.5q0 46 -29 76t-79 30q-62 0 -103.5 -48.5t-41.5 -116.5q0 -47 28.5 -77t77.5 -30z" />
    <glyph glyph-name="uni030B" unicode="&#x30b;" 
d="M-158 1155h-121l261 295h186zM193 1155h-121l258 295h186z" />
    <glyph glyph-name="uni030C" unicode="&#x30c;" 
d="M199 1155h-164l-170 295h129l131 -221l209 221h141z" />
    <glyph glyph-name="uni0312" unicode="&#x312;" 
d="M88 1155h-145l235 379h117z" />
    <glyph glyph-name="uni0313" unicode="&#x313;" 
d="M94 1155h-117l207 379h146z" />
    <glyph glyph-name="uni031B" unicode="&#x31b;" 
d="M2 1016h-123l19 98h104q87 0 134.5 47t47.5 127q0 36 -16 86l123 33q18 -49 18 -94q0 -142 -81 -219.5t-226 -77.5z" />
    <glyph glyph-name="dotbelowcomb" unicode="&#x323;" 
d="M-137 -391q-40 0 -67 25t-27 67t29.5 71t68.5 29t65.5 -26t26.5 -68q0 -40 -28 -69t-68 -29z" />
    <glyph glyph-name="uni0324" unicode="&#x324;" 
d="M-348 -453q-41 0 -69.5 27t-28.5 70t30.5 73.5t71.5 30.5q40 0 67 -27t27 -71q0 -41 -29 -72t-69 -31zM55 -453q-41 0 -68.5 27t-27.5 70q0 44 30 74t70 30q41 0 69 -27.5t28 -70.5q0 -41 -30 -72t-71 -31z" />
    <glyph glyph-name="uni0325" unicode="&#x325;" 
d="M-172 -545q-76 0 -125 45.5t-49 116.5q0 95 63 163t158 68q77 0 126.5 -44.5t49.5 -116.5q0 -97 -63.5 -164.5t-159.5 -67.5zM-168 -483q64 0 106 48.5t42 117.5q0 46 -29.5 76t-79.5 30q-62 0 -103.5 -48.5t-41.5 -117.5q0 -47 28.5 -76.5t77.5 -29.5z" />
    <glyph glyph-name="uni0326" unicode="&#x326;" 
d="M-227 -471h-117l207 379h145z" />
    <glyph glyph-name="uni0327" unicode="&#x327;" 
d="M-184 -471q-46 0 -104 11t-95 30l39 74q62 -29 151 -29q53 0 94.5 22t41.5 70q0 38 -29 58t-74 20q-44 0 -90 -16l-31 30l162 201h88l-123 -154q30 9 64 9q60 0 106.5 -34t46.5 -104q0 -50 -23.5 -88t-61.5 -58.5t-79 -31t-83 -10.5z" />
    <glyph glyph-name="uni0328" unicode="&#x328;" 
d="M-152 -457q-67 0 -114 37t-47 105q0 151 231 315h100q-206 -170 -206 -274q0 -72 88 -72q63 0 114 45l25 -82q-94 -74 -191 -74z" />
    <glyph glyph-name="uni032E" unicode="&#x32e;" 
d="M-414 -354q-128 0 -199 68.5t-71 201.5h90q0 -160 182 -160q89 0 156 42t84 118h90q-20 -119 -113.5 -194.5t-218.5 -75.5z" />
    <glyph glyph-name="uni0330" unicode="&#x330;" 
d="M-436 -500h-88q74 213 225 213q56 0 141 -47q2 -1 14.5 -7.5t15.5 -8l14 -7t15 -7t13.5 -5.5t15 -5t13.5 -3.5t14.5 -3t13.5 -0.5q75 0 121 102h88q-78 -213 -229 -213q-47 0 -141 48q-81 47 -129 47q-77 0 -117 -103z" />
    <glyph glyph-name="uni0331" unicode="&#x331;" 
d="M104 -451h-555l19 111h555z" />
    <glyph glyph-name="uni0374" unicode="&#x374;" horiz-adv-x="403" 
d="M68 1092h-117l155 358h179z" />
    <glyph glyph-name="uni0375" unicode="&#x375;" horiz-adv-x="395" 
d="M367 84h116l-155 -358h-178z" />
    <glyph glyph-name="uni037E" unicode="&#x37e;" horiz-adv-x="600" 
d="M330 750q-46 0 -77.5 29t-31.5 77t34 81.5t79 33.5q46 0 76 -29.5t30 -79.5q0 -45 -32.5 -78.5t-77.5 -33.5zM80 -287h-123l223 482h152z" />
    <glyph glyph-name="tonos" unicode="&#x384;" 
d="M164 1155h-111l150 295h172z" />
    <glyph glyph-name="dieresistonos" unicode="&#x385;" horiz-adv-x="651" 
d="M182 1155h-98l104 295h162zM-57 1210q-36 0 -59 25t-23 61q0 44 31.5 77.5t76.5 33.5q37 0 61.5 -23.5t24.5 -60.5q0 -45 -33.5 -79t-78.5 -34zM459 1210q-39 0 -63.5 25t-24.5 61q0 43 33.5 77t78.5 34q37 0 60.5 -23.5t23.5 -60.5q0 -46 -32.5 -79.5t-75.5 -33.5z" />
    <glyph glyph-name="Alphatonos" unicode="&#x386;" horiz-adv-x="1359" 
d="M829 1450h144l301 -1450h-154l-78 381h-741l-238 -381h-167zM403 1450h172l-210 -295h-111zM868 1284l-483 -768h635z" />
    <glyph glyph-name="anoteleia" unicode="&#x387;" horiz-adv-x="518" 
d="M285 641q-46 0 -77.5 29.5t-31.5 77.5t34 81t79 33q46 0 76 -29t30 -79q0 -45 -32.5 -79t-77.5 -34z" />
    <glyph glyph-name="Epsilontonos" unicode="&#x388;" horiz-adv-x="1187" 
d="M-25 1155h-110l149 295h172zM1006 0h-924l256 1450h870l-22 -129h-725l-88 -504h692l-23 -125h-692l-100 -563h778z" />
    <glyph glyph-name="Etatonos" unicode="&#x389;" horiz-adv-x="1472" 
d="M-18 1155h-111l149 295h173zM227 0h-145l256 1450h145l-112 -631h772l112 631h146l-256 -1450h-146l121 688h-772z" />
    <glyph glyph-name="Iotatonos" unicode="&#x38a;" horiz-adv-x="528" 
d="M-25 1155h-110l149 295h172zM227 0h-145l256 1450h145z" />
    <glyph glyph-name="Omicrontonos" unicode="&#x38c;" horiz-adv-x="1732" 
d="M764 -37q-188 0 -334.5 77.5t-228.5 219.5t-82 326q0 185 65.5 351.5t178 287t269.5 191.5t333 71q187 0 333.5 -77t229 -218t82.5 -324q0 -247 -109 -454t-304 -329t-433 -122zM-18 1155h-111l149 295h173zM770 90q148 0 277.5 64t217.5 170t138.5 244t50.5 286
q0 142 -56.5 255.5t-170.5 182t-269 68.5q-120 0 -228.5 -42t-190.5 -115t-142.5 -169t-91.5 -208t-31 -228q0 -106 32.5 -198t94 -161.5t156.5 -109t213 -39.5z" />
    <glyph glyph-name="Upsilontonos" unicode="&#x38e;" horiz-adv-x="1112" 
d="M-164 1155h-110l149 295h172zM563 745l580 705h182l-709 -825l-110 -625h-146l111 625l-369 825h172z" />
    <glyph glyph-name="Omegatonos" unicode="&#x38f;" horiz-adv-x="1593" 
d="M584 0h-527l23 123h409l17 96q-163 54 -255.5 190t-92.5 326q0 147 55.5 283t153 240t242 166.5t311.5 62.5t297 -66.5t205 -196t75 -302.5q0 -252 -141 -445t-375 -260l-16 -94h417l-22 -123h-535l56 315q215 52 341 219t126 390q0 67 -15 128.5t-49 118t-84.5 97.5
t-127 65.5t-171.5 24.5q-175 0 -311 -84.5t-207.5 -226.5t-71.5 -314q0 -169 87 -278t241 -140zM23 1155h-111l149 295h172z" />
    <glyph glyph-name="iotadieresistonos" unicode="&#x390;" horiz-adv-x="589" 
d="M391 1155h-98l104 295h162zM152 1210q-36 0 -59 25t-23 61q0 44 31.5 77.5t76.5 33.5q37 0 61.5 -23.5t24.5 -60.5q0 -45 -34 -79t-78 -34zM668 1210q-39 0 -63.5 25t-24.5 61q0 43 33.5 77t78.5 34q37 0 60.5 -23.5t23.5 -60.5q0 -46 -32.5 -79.5t-75.5 -33.5zM319 -18
q-103 0 -162 46.5t-59 145.5q0 49 6 90l123 697h138l-119 -682q-8 -46 -8 -74q0 -111 120 -111q54 0 109 21l-8 -109q-67 -24 -140 -24z" />
    <glyph glyph-name="Alpha" unicode="&#x391;" horiz-adv-x="1423" 
d="M829 1450h144l301 -1450h-154l-78 381h-741l-238 -381h-167zM868 1284l-483 -768h635z" />
    <glyph glyph-name="Beta" unicode="&#x392;" horiz-adv-x="1269" 
d="M510 0h-428l256 1450h418q80 0 151.5 -17t134 -52.5t99.5 -99t37 -148.5q0 -141 -86.5 -238t-233.5 -133v-4q121 -19 195.5 -101.5t74.5 -207.5q0 -144 -79.5 -246.5t-217.5 -152.5t-321 -50zM461 1325l-90 -510h297q49 0 96.5 8.5t95 30t83.5 53.5t58.5 82t22.5 113
q0 113 -84 168t-223 55h-256zM350 694l-100 -569h274q74 0 139 11t123.5 36t101 62t67 93.5t24.5 127.5q0 113 -86 176t-242 63h-301z" />
    <glyph glyph-name="Gamma" unicode="&#x393;" horiz-adv-x="1107" 
d="M236 0h-146l256 1450h828l-23 -129h-682z" />
    <glyph glyph-name="uni0394" unicode="&#x394;" horiz-adv-x="1378" 
d="M1217 0h-1293l25 104l880 1346h140l272 -1346zM868 1294l-735 -1165h952l-215 1165h-2z" />
    <glyph glyph-name="Epsilon" unicode="&#x395;" horiz-adv-x="1187" 
d="M1006 0h-924l256 1450h870l-22 -129h-725l-88 -504h692l-23 -125h-692l-100 -563h778z" />
    <glyph glyph-name="Zeta" unicode="&#x396;" horiz-adv-x="1171" 
d="M997 0h-1048l22 123l1063 1198h-815l23 129h1003l-22 -123l-1061 -1198h858z" />
    <glyph glyph-name="Eta" unicode="&#x397;" horiz-adv-x="1449" 
d="M227 0h-145l256 1450h145l-112 -631h772l112 631h146l-256 -1450h-146l121 688h-772z" />
    <glyph glyph-name="Theta" unicode="&#x398;" horiz-adv-x="1732" 
d="M801 -39q-309 0 -487.5 174t-178.5 461q0 179 63 343t173 285t267.5 193t336.5 72q304 0 481.5 -174.5t177.5 -460.5q0 -180 -61.5 -343t-169.5 -284.5t-265 -193.5t-337 -72zM803 88q151 0 281 63.5t216.5 168.5t135.5 241.5t49 282.5q0 109 -33 202.5t-96 165
t-162.5 112t-224.5 40.5q-151 0 -281 -64t-217 -170t-136.5 -242.5t-49.5 -281.5q0 -108 33.5 -201.5t97 -164.5t163 -111.5t224.5 -40.5zM1276 674h-825l20 119h825z" />
    <glyph glyph-name="Iota" unicode="&#x399;" horiz-adv-x="532" 
d="M227 0h-145l256 1450h145z" />
    <glyph glyph-name="Kappa" unicode="&#x39a;" horiz-adv-x="1198" 
d="M227 0h-145l256 1450h145l-114 -651h2l737 651h213l-793 -672l607 -778h-191l-579 772h-3z" />
    <glyph glyph-name="Lambda" unicode="&#x39b;" horiz-adv-x="1318" 
d="M53 0h-170l918 1450h141l260 -1450h-151l-209 1294h-2z" />
    <glyph glyph-name="Mu" unicode="&#x39c;" horiz-adv-x="1814" 
d="M225 0h-143l256 1450h221l275 -1200h2l702 1200h223l-256 -1450h-145l221 1253h-4l-746 -1253h-77l-303 1253h-5z" />
    <glyph glyph-name="Nu" unicode="&#x39d;" horiz-adv-x="1536" 
d="M229 0h-145l256 1450h182l596 -1243h4l219 1243h146l-256 -1450h-182l-594 1260h-4z" />
    <glyph glyph-name="Xi" unicode="&#x39e;" horiz-adv-x="1236" 
d="M1292 1319h-1052l24 131h1053zM1092 688h-877l23 125h876zM1061 0h-1053l25 131h1052z" />
    <glyph glyph-name="Omicron" unicode="&#x39f;" horiz-adv-x="1708" 
d="M764 -37q-188 0 -334.5 77.5t-228.5 219.5t-82 326q0 185 65.5 351.5t178 287t269.5 191.5t333 71q187 0 333.5 -77t229 -218t82.5 -324q0 -247 -109 -454t-304 -329t-433 -122zM770 90q148 0 277.5 64t217.5 170t138.5 244t50.5 286q0 142 -56.5 255.5t-170.5 182
t-269 68.5q-120 0 -228.5 -42t-190.5 -115t-142.5 -169t-91.5 -208t-31 -228q0 -106 32.5 -198t94 -161.5t156.5 -109t213 -39.5z" />
    <glyph glyph-name="Pi" unicode="&#x3a0;" horiz-adv-x="1452" 
d="M236 0h-146l256 1450h1071l-256 -1450h-145l233 1323h-780z" />
    <glyph glyph-name="Rho" unicode="&#x3a1;" horiz-adv-x="1187" 
d="M227 0h-145l256 1450h387q211 0 328.5 -92.5t117.5 -255.5q0 -208 -149.5 -318t-400.5 -110h-275zM461 1325l-94 -530h266q185 0 288 74.5t103 215.5q0 128 -80 184t-231 56h-252z" />
    <glyph glyph-name="Sigma" unicode="&#x3a3;" horiz-adv-x="1181" 
d="M236 1450h1013l-24 -127h-838l352 -569l-561 -625h858l-22 -129h-1045l21 127l569 631l-346 561z" />
    <glyph glyph-name="Tau" unicode="&#x3a4;" horiz-adv-x="1120" 
d="M512 0h-145l233 1321h-485l22 129h1118l-22 -129h-488z" />
    <glyph glyph-name="Upsilon" unicode="&#x3a5;" horiz-adv-x="1140" 
d="M563 745l580 705h182l-709 -825l-110 -625h-146l111 625l-369 825h172z" />
    <glyph glyph-name="Phi" unicode="&#x3a6;" horiz-adv-x="1792" 
d="M846 -74h-146l21 113q-126 11 -225 45.5t-166 85.5t-111.5 119t-64 144.5t-19.5 164.5q0 74 12.5 149.5t41.5 156t73 152.5t111 137.5t150.5 113.5t196.5 77t245 31l18 113h147l-20 -113q290 -26 438 -174t148 -383q0 -69 -11.5 -141.5t-39.5 -153t-70 -153.5
t-108.5 -141t-150 -117.5t-199.5 -80t-251 -32.5zM743 166l199 1122q-113 -1 -208.5 -27.5t-162 -69.5t-119 -102t-84 -120t-52 -128.5t-28 -124t-7.5 -108.5q0 -98 28.5 -174.5t73 -124.5t107 -80t124 -46t129.5 -17zM1085 1288l-196 -1122q116 1 213.5 29.5t164 73
t118.5 105.5t82.5 123t50 129.5t26 120.5t6.5 101q0 208 -123.5 318.5t-341.5 121.5z" />
    <glyph glyph-name="Chi" unicode="&#x3a7;" horiz-adv-x="1265" 
d="M68 0h-201l686 762l-346 688h176l279 -586l514 586h192l-633 -705l373 -745h-176l-305 641z" />
    <glyph glyph-name="Psi" unicode="&#x3a8;" horiz-adv-x="1691" 
d="M817 0h-143l65 377q-252 9 -384 104t-132 289q0 48 10 113l99 567h145l-92 -526q-12 -68 -12 -125q0 -155 95 -223.5t294 -73.5l168 948h143l-166 -946q89 1 160 13.5t133.5 41t107.5 74.5t77.5 115t48.5 161l94 541h145l-100 -561q-25 -139 -85.5 -238t-152.5 -157
t-201.5 -85.5t-248.5 -31.5z" />
    <glyph glyph-name="uni03A9" unicode="&#x3a9;" horiz-adv-x="1593" 
d="M584 0h-527l23 123h409l17 96q-163 54 -255.5 190t-92.5 326q0 147 55.5 283t153 240t242 166.5t311.5 62.5t297 -66.5t205 -196t75 -302.5q0 -252 -141 -445t-375 -260l-16 -94h417l-22 -123h-535l56 315q215 52 341 219t126 390q0 67 -15 128.5t-49 118t-84.5 97.5
t-127 65.5t-171.5 24.5q-175 0 -311 -84.5t-207.5 -226.5t-71.5 -314q0 -169 87 -278t241 -140z" />
    <glyph glyph-name="Iotadieresis" unicode="&#x3aa;" horiz-adv-x="528" 
d="M268 1636q-41 0 -69.5 27t-28.5 70t30.5 73.5t71.5 30.5q40 0 67.5 -27.5t27.5 -70.5q0 -41 -29.5 -72t-69.5 -31zM672 1636q-41 0 -69 27t-28 70t30.5 73.5t70.5 30.5q41 0 68.5 -27.5t27.5 -70.5q0 -42 -29.5 -72.5t-70.5 -30.5zM227 0h-145l256 1450h145z" />
    <glyph glyph-name="Upsilondieresis" unicode="&#x3ab;" horiz-adv-x="1112" 
d="M520 1636q-41 0 -69.5 27t-28.5 70t30.5 73.5t71.5 30.5q40 0 67 -27t27 -71q0 -41 -29 -72t-69 -31zM924 1636q-41 0 -69 27t-28 70t30.5 73.5t70.5 30.5q41 0 68.5 -27.5t27.5 -70.5q0 -42 -29.5 -72.5t-70.5 -30.5zM563 745l580 705h182l-709 -825l-110 -625h-146
l111 625l-369 825h172z" />
    <glyph glyph-name="alphatonos" unicode="&#x3ac;" horiz-adv-x="1347" 
d="M764 1450h172l-211 -295h-111zM1026 403l41 -202q12 -59 30 -83t52 -24q35 0 70 15l-9 -109q-40 -18 -96 -18q-60 0 -99.5 41t-62.5 151l-14 82h-4q-44 -110 -165 -196.5t-269 -86.5q-188 0 -302 115t-114 307q0 119 39.5 227t109 188.5t170.5 128.5t218 48q90 0 162 -28
t117.5 -75.5t71 -106.5t29.5 -126l136 310h147zM522 88q107 0 198.5 65.5t143 172t51.5 225.5q0 134 -81 227.5t-218 93.5q-116 0 -206.5 -65.5t-137.5 -171.5t-47 -232q0 -141 82 -228t215 -87z" />
    <glyph glyph-name="epsilontonos" unicode="&#x3ad;" horiz-adv-x="1003" 
d="M682 1450h172l-211 -295h-111zM455 88q223 0 352 123l82 -82q-77 -74 -180.5 -115t-257.5 -41q-83 0 -153 16t-125 47.5t-86.5 84.5t-31.5 121q0 105 60 176t174 88v2q-59 22 -94 68.5t-35 107.5q0 59 24 112t71.5 96.5t129 69t186.5 25.5q256 0 367 -100l-92 -90
q-93 75 -283 75q-268 0 -268 -182q0 -135 244 -135h159l-18 -113h-227q-267 0 -267 -186q0 -83 69.5 -125.5t199.5 -42.5z" />
    <glyph glyph-name="etatonos" unicode="&#x3ae;" horiz-adv-x="1185" 
d="M756 1155h-111l150 295h172zM821 -492h-137l184 1037q11 64 11 106q0 98 -51 158.5t-162 60.5q-130 0 -226 -100.5t-125 -269.5l-88 -500h-139l131 748q25 131 25 213h129q0 -96 -19 -193h4q59 105 150 162t199 57q151 0 233 -84.5t82 -216.5q0 -51 -8 -100z" />
    <glyph glyph-name="iotatonos" unicode="&#x3af;" horiz-adv-x="589" 
d="M387 1155h-111l150 295h172zM319 -18q-103 0 -162 46.5t-59 145.5q0 49 6 90l123 697h138l-119 -682q-8 -46 -8 -74q0 -111 120 -111q54 0 109 21l-8 -109q-67 -24 -140 -24z" />
    <glyph glyph-name="upsilondieresistonos" unicode="&#x3b0;" horiz-adv-x="1107" 
d="M682 1155h-98l104 295h162zM442 1210q-36 0 -59 25t-23 61q0 44 32 77.5t77 33.5q37 0 61.5 -23.5t24.5 -60.5q0 -45 -34 -79t-79 -34zM958 1210q-39 0 -63.5 25t-24.5 61q0 43 34 77t79 34q37 0 60.5 -23.5t23.5 -60.5q0 -45 -33 -79t-76 -34zM457 -27
q-159 0 -249.5 78.5t-90.5 224.5q0 56 20 183l90 502h138l-91 -492q-20 -114 -20 -168q0 -96 52.5 -153.5t164.5 -57.5q73 0 133 26t99.5 66.5t69 99t45.5 114t25.5 121t12 111.5t2.5 93q0 125 -27 240h142q26 -87 26 -224q0 -115 -15.5 -219t-54.5 -205.5t-98.5 -175
t-155.5 -119t-218 -45.5z" />
    <glyph glyph-name="alpha" unicode="&#x3b1;" horiz-adv-x="1347" 
d="M1026 403l41 -202q12 -59 30 -83t52 -24q35 0 70 15l-9 -109q-40 -18 -96 -18q-60 0 -99.5 41t-62.5 151l-14 82h-4q-44 -110 -165 -196.5t-269 -86.5q-188 0 -302 115t-114 307q0 119 39.5 227t109 188.5t170.5 128.5t218 48q90 0 162 -28t117.5 -75.5t71 -106.5
t29.5 -126l136 310h147zM522 88q107 0 198.5 65.5t143 172t51.5 225.5q0 134 -81 227.5t-218 93.5q-116 0 -206.5 -65.5t-137.5 -171.5t-47 -232q0 -141 82 -228t215 -87z" />
    <glyph glyph-name="beta" unicode="&#x3b2;" horiz-adv-x="1304" 
d="M135 -492h-137l270 1543q91 522 531 522q168 0 274.5 -87t106.5 -249q0 -132 -75 -230.5t-204 -144.5v-4q94 -22 155.5 -81.5t86 -131.5t24.5 -156q0 -72 -18.5 -143t-60 -139t-100.5 -119.5t-146.5 -83t-192.5 -31.5q-150 0 -250 61t-137 161h-6zM631 88q95 0 171 33.5
t123 90.5t72 128.5t25 151.5q0 142 -88 221.5t-264 79.5h-140l23 125h139q92 0 163 27t110.5 71.5t59 94.5t19.5 103q0 113 -67.5 178.5t-196.5 65.5q-86 0 -151.5 -30t-109 -87t-70.5 -128t-43 -164l-93 -529q-10 -46 -10 -110q0 -145 88 -233.5t240 -88.5z" />
    <glyph glyph-name="gamma" unicode="&#x3b3;" horiz-adv-x="1036" 
d="M412 -422h-127l71 410l-133 688q-24 116 -45.5 148t-87.5 36l25 119h10q56 -1 90 -9.5t60.5 -34t41.5 -67.5t29 -114l109 -607h4l471 814h147l-600 -1006z" />
    <glyph glyph-name="delta" unicode="&#x3b4;" horiz-adv-x="1185" 
d="M797 1450q-108 0 -177 -45.5t-69 -136.5q0 -64 49 -114t178 -138q95 -67 151.5 -124t93 -139.5t36.5 -185.5q0 -163 -67 -297.5t-195 -215.5t-293 -81q-188 0 -308 119t-120 318q0 131 44 240t117.5 179.5t166 111t194.5 46.5q-102 55 -146 119.5t-44 153.5
q0 136 101.5 224.5t295.5 88.5q221 0 350 -90l-70 -115q-113 82 -288 82zM932 559q0 141 -84.5 233.5t-220.5 92.5q-100 0 -181 -39t-132 -104.5t-78 -148t-27 -173.5q0 -150 83 -241t226 -91q98 0 178.5 41t131 109t77.5 150.5t27 170.5z" />
    <glyph glyph-name="epsilon" unicode="&#x3b5;" horiz-adv-x="1003" 
d="M455 88q223 0 352 123l82 -82q-77 -74 -180.5 -115t-257.5 -41q-83 0 -153 16t-125 47.5t-86.5 84.5t-31.5 121q0 105 60 176t174 88v2q-59 22 -94 68.5t-35 107.5q0 59 24 112t71.5 96.5t129 69t186.5 25.5q256 0 367 -100l-92 -90q-93 75 -283 75q-268 0 -268 -182
q0 -135 244 -135h159l-18 -113h-227q-267 0 -267 -186q0 -83 69.5 -125.5t199.5 -42.5z" />
    <glyph glyph-name="zeta" unicode="&#x3b6;" horiz-adv-x="966" 
d="M444 -453l23 123q133 7 191.5 61t58.5 124q0 65 -46.5 111t-172.5 104q-86 40 -141.5 72t-106 72.5t-78 84.5t-43.5 103t-16 133q0 94 25.5 184.5t69 165.5t103.5 146.5t125 127.5t139 107t140.5 87.5t132.5 65.5v4h-553l22 125h785l-27 -135q-137 -55 -254 -117.5
t-225 -144.5t-183 -172.5t-120 -203t-45 -234.5q0 -123 66 -195t233 -153q86 -43 135.5 -73t91.5 -69t59 -84t17 -106q0 -146 -115 -230t-291 -84z" />
    <glyph glyph-name="eta" unicode="&#x3b7;" horiz-adv-x="1185" 
d="M821 -492h-137l184 1037q11 64 11 106q0 98 -51 158.5t-162 60.5q-130 0 -226 -100.5t-125 -269.5l-88 -500h-139l131 748q25 131 25 213h129q0 -96 -19 -193h4q59 105 150 162t199 57q151 0 233 -84.5t82 -216.5q0 -51 -8 -100z" />
    <glyph glyph-name="theta" unicode="&#x3b8;" horiz-adv-x="1263" 
d="M537 -27q-107 0 -185 39t-123.5 110.5t-66.5 163t-21 206.5q0 345 103 622q169 459 540 459q107 0 184.5 -38t124 -108.5t68 -163.5t21.5 -212q0 -284 -72 -527q-27 -93 -62.5 -172.5t-86.5 -150.5t-112.5 -120.5t-141 -78.5t-170.5 -29zM309 848h727q13 110 13 192
q0 418 -281 418q-79 0 -147 -34.5t-117 -91.5t-88.5 -138t-64.5 -165t-42 -181zM543 88q361 0 471 627h-725q-15 -120 -15 -213q0 -207 70 -310.5t199 -103.5z" />
    </font>
</defs>
</svg>
