<?xml version="1.0" standalone="no"?>
<!DOCTYPE svg PUBLIC "-//W3C//DTD SVG 1.1//EN" "http://www.w3.org/Graphics/SVG/1.1/DTD/svg11.dtd" >
<svg xmlns="http://www.w3.org/2000/svg" xmlns:xlink="http://www.w3.org/1999/xlink" version="1.1">
<metadata>
Created by FontForge 20201107 at Tue Feb 13 14:28:14 2024
 By 
Copyright (c) 2017 by Deepak Singh Dogra. All rights reserved.
</metadata>
<defs>
<font id="GeometosNeueBold" horiz-adv-x="1585" >
  <font-face 
    font-family="Geometos Neue Bold"
    font-weight="700"
    font-stretch="normal"
    units-per-em="2048"
    panose-1="0 0 0 0 0 0 0 0 0 0"
    ascent="1638"
    descent="-410"
    x-height="1499"
    cap-height="1499"
    bbox="-51 -610 2748 1937"
    underline-thickness="102"
    underline-position="-204"
    unicode-range="U+0020-2265"
  />
<missing-glyph horiz-adv-x="1024" 
 />
    <glyph glyph-name=".notdef" horiz-adv-x="1024" 
 />
    <glyph glyph-name=".null" horiz-adv-x="0" 
 />
    <glyph glyph-name="nonmarkingreturn" horiz-adv-x="682" 
 />
    <glyph glyph-name="space" unicode=" " horiz-adv-x="581" 
 />
    <glyph glyph-name="exclam" unicode="!" horiz-adv-x="600" 
d="M453 1497l-52 -1061h-204l-52 1061h308zM449 135q0 -63 -44.5 -107t-107.5 -44q-62 0 -106 44t-44 107q0 61 44.5 105.5t105.5 44.5q63 0 107.5 -44t44.5 -106z" />
    <glyph glyph-name="quotedbl" unicode="&#x22;" horiz-adv-x="909" 
d="M369 1501l-33 -446h-207l-35 446h275zM803 1501l-35 -446h-207l-33 446h275z" />
    <glyph glyph-name="numbersign" unicode="#" horiz-adv-x="1753" 
d="M1516 639l-103 -264h-276l-148 -375h-282l147 375h-264l-146 -375h-282l145 375h-270l102 264h273l92 235h-271l103 265h270l142 362h282l-141 -362h262l143 362h283l-143 -362h278l-102 -265h-279l-92 -235h277zM956 639l93 235h-263l-92 -235h262z" />
    <glyph glyph-name="dollar" unicode="$" horiz-adv-x="1392" 
d="M530 1518v188h285v-186q122 -16 221.5 -61.5t200.5 -121.5l-158 -217q-211 144 -432 144q-63 0 -116.5 -12.5t-94.5 -48.5t-41 -91q0 -20 6 -38t15 -32.5t26 -28t31 -23t39.5 -20t41.5 -16t47 -14t46.5 -12.5t49 -12t46.5 -11q20 -5 73 -15.5t88.5 -18.5t91.5 -26
t94.5 -38.5t82.5 -55.5t71 -77t45 -102.5t18 -133.5q0 -208 -132 -324.5t-360 -131.5v-183h-285v199q-127 25 -225.5 76.5t-208.5 132.5l144 217q84 -68 227.5 -124t265.5 -56q150 0 218.5 50.5t68.5 127.5q0 34 -11.5 61.5t-37 48t-52.5 35t-71 27t-78.5 20t-89.5 17.5
q-179 32 -270 66q-301 112 -301 386q0 83 23.5 151.5t63 115.5t94.5 82.5t114 55.5t126 30z" />
    <glyph glyph-name="percent" unicode="%" horiz-adv-x="1966" 
d="M451 672q-166 0 -274.5 118.5t-108.5 299.5q0 183 108.5 301t274.5 118t274.5 -118t108.5 -301q0 -178 -110 -298t-273 -120zM1505 -31q-166 0 -274.5 118.5t-108.5 301.5q0 181 108.5 299.5t274.5 118.5t273.5 -118t107.5 -300q0 -180 -109 -300t-272 -120zM659 0h-233
l889 1501h233zM1505 590q-42 0 -70.5 -24.5t-40 -63t-15 -64.5t-3.5 -49q0 -20 3.5 -45.5t14.5 -65.5t39.5 -66t71.5 -26q42 0 72.5 34t43.5 78.5t13 90.5q0 43 -11.5 86.5t-42 79t-75.5 35.5zM451 1290q-42 0 -70.5 -24.5t-40 -62.5t-15 -64t-3.5 -49q0 -20 3.5 -44.5
t14.5 -64.5t39.5 -66t71.5 -26q42 0 72.5 34t43.5 78t13 89q0 44 -11.5 87t-42 78t-75.5 35z" />
    <glyph glyph-name="ampersand" unicode="&#x26;" horiz-adv-x="1402" 
d="M1130 -29l-190 201q-134 -117 -217.5 -154.5t-202.5 -42.5q-123 -5 -227.5 45t-168 148t-63.5 223q0 187 177 334q23 20 118 86q-62 79 -93.5 150.5t-31.5 156.5q0 171 114.5 288.5t287.5 117.5q168 0 278.5 -111.5t110.5 -269.5q0 -54 -14 -101.5t-36 -84t-59 -73.5
t-73 -64.5t-88 -61.5l190 -207q67 86 156 242l225 -117q-46 -85 -86.5 -148t-112.5 -159l205 -213zM508 225q45 -1 86.5 10t75.5 32.5t54.5 38.5t43.5 40l-266 275q-87 -49 -128.5 -98.5t-41.5 -119.5q0 -76 50.5 -125.5t125.5 -52.5zM582 940q77 40 126 96t50 121
q0 62 -37.5 99.5t-89.5 37.5t-95.5 -39.5t-43.5 -111.5q0 -106 90 -203z" />
    <glyph glyph-name="quotesingle" unicode="'" horiz-adv-x="471" 
d="M369 1501l-33 -446h-207l-35 446h275z" />
    <glyph glyph-name="parenleft" unicode="(" horiz-adv-x="808" 
d="M625 1432q-246 -258 -246 -682t246 -682q61 -61 112 -97l-162 -217q-91 66 -157 137q-326 341 -326 859q0 517 326 858q66 71 157 137l162 -215q-58 -41 -112 -98z" />
    <glyph glyph-name="parenright" unicode=")" horiz-adv-x="735" 
d="M133 1432q-52 55 -113 98l162 215q94 -68 158 -137q326 -341 326 -858q0 -518 -326 -859q-64 -69 -158 -137l-162 217q55 39 113 97q246 258 246 682t-246 682z" />
    <glyph glyph-name="asterisk" unicode="*" horiz-adv-x="890" 
d="M578 778l-136 191l-135 -191l-162 109l150 190l-232 80l60 174l223 -80v244h191v-244l225 80l59 -174l-229 -80l149 -190z" />
    <glyph glyph-name="plus" unicode="+" horiz-adv-x="1161" 
d="M1090 893v-252h-377v-383h-264v383h-377v252h377v383h264v-383h377z" />
    <glyph glyph-name="comma" unicode="," horiz-adv-x="430" 
d="M356 160q21 -79 -3 -164t-90.5 -152t-160.5 -88l-34 76q124 39 141 152q-62 -2 -107.5 40t-48.5 103q-3 63 39.5 109t104.5 49q57 2 101.5 -32.5t57.5 -92.5z" />
    <glyph glyph-name="hyphen" unicode="-" horiz-adv-x="837" 
d="M666 897v-252h-506v252h506z" />
    <glyph glyph-name="period" unicode="." horiz-adv-x="421" 
d="M362 135q0 -63 -44 -107t-107 -44q-62 0 -106 44t-44 107q0 61 44.5 105.5t105.5 44.5q63 0 107 -44t44 -106z" />
    <glyph glyph-name="slash" unicode="/" horiz-adv-x="1110" 
d="M215 -283h-266l911 1991h266z" />
    <glyph glyph-name="zero" unicode="0" horiz-adv-x="1529" 
d="M762 -31q-154 0 -282.5 65t-212 173.5t-129.5 248.5t-46 292q0 169 49.5 313.5t137 246t212.5 159t271 57.5q191 0 344 -99.5t239.5 -277t86.5 -399.5q0 -119 -29.5 -233.5t-87 -213t-137.5 -173t-187.5 -117.5t-228.5 -42zM762 1255q-54 0 -106.5 -18.5t-102 -58.5
t-87 -98t-60.5 -144t-23 -188q0 -93 23 -181.5t67.5 -163t119.5 -120t169 -45.5q69 0 135.5 34t121 96t87.5 161t33 219q0 77 -13 148.5t-42 137.5t-72 114.5t-107.5 77.5t-142.5 29z" />
    <glyph glyph-name="one" unicode="1" horiz-adv-x="909" 
d="M565 1501h183v-1501h-287v1008l-219 -209l-197 209z" />
    <glyph glyph-name="two" unicode="2" horiz-adv-x="1314" 
d="M520 254h664v-254h-1037v285q40 33 244 204.5t289 241.5q66 53 107.5 98.5t60.5 85.5t25 70.5t6 71.5q0 103 -62.5 157t-152.5 54q-59 0 -107 -22t-74.5 -49t-47 -66.5t-26.5 -58t-11 -40.5q-1 -3 -1 -4v2l-276 72q13 48 37.5 100t69.5 111t101.5 104.5t139 76
t176.5 30.5q103 0 190 -27t147 -73t102 -106.5t61.5 -126.5t19.5 -134q0 -84 -20 -155t-64 -136t-97.5 -119.5t-135.5 -124.5q-243 -200 -328 -268z" />
    <glyph glyph-name="three" unicode="3" horiz-adv-x="1228" 
d="M881 754q245 -79 245 -348q0 -104 -40 -187.5t-109.5 -137t-160.5 -82t-195 -28.5q-76 0 -143 15.5t-117 41t-92.5 61.5t-71.5 72.5t-52.5 79t-37 76t-23.5 68.5l242 76q3 -11 13 -32.5t35 -59t56 -68t82 -54t109 -24.5q111 1 165 55t54 146q0 118 -92.5 169.5
t-284.5 49.5v231q76 0 132 5.5t104 19.5t78 37t46.5 60t16.5 87q0 87 -58 141t-161 54q-66 0 -118.5 -21.5t-81.5 -49.5t-50.5 -66t-28 -59.5t-10.5 -41.5l-248 78q14 50 36 98.5t65.5 108.5t98.5 103.5t142 73.5t190 30q108 0 196 -26t145 -68.5t96 -100t56 -117t17 -122.5
q0 -64 -15 -116t-37 -86t-57.5 -63t-65 -45.5t-70.5 -33.5z" />
    <glyph glyph-name="four" unicode="4" horiz-adv-x="1376" 
d="M1114 586h182v-254h-182v-332h-287v332h-718v246l788 923h217v-915zM827 586v432l-352 -432h352z" />
    <glyph glyph-name="five" unicode="5" horiz-adv-x="1282" 
d="M717 1001q204 0 332.5 -137.5t128.5 -369.5q0 -235 -152.5 -379t-390.5 -144q-344 0 -549 256l170 181q44 -51 75 -76q126 -103 292 -103q121 0 197.5 73t76.5 202q0 112 -72 191t-190 79q-55 0 -101 -10.5t-81.5 -32.5t-56 -39t-48.5 -45l-217 117l137 737h815v-256
h-583l-51 -315q96 71 268 71z" />
    <glyph glyph-name="six" unicode="6" horiz-adv-x="1329" 
d="M696 1008q236 11 379.5 -126.5t143.5 -383.5q0 -248 -157 -387.5t-409 -139.5q-115 0 -212 36.5t-164.5 98.5t-112 146.5t-59 177t0.5 193t60 192.5q37 75 181 291.5t274 394.5h331l-364 -520q15 8 48 17t60 10zM385 496q0 -117 80.5 -197t196.5 -80t197 80t81 197
q0 120 -80 203t-203 83q-115 0 -193.5 -83.5t-78.5 -202.5z" />
    <glyph glyph-name="seven" unicode="7" horiz-adv-x="1230" 
d="M86 1501h1071v-282l-684 -1219h-328l717 1245h-776v256z" />
    <glyph glyph-name="eight" unicode="8" horiz-adv-x="1271" 
d="M928 793q106 -25 181 -122.5t75 -238.5q0 -114 -43 -203.5t-119.5 -145t-175.5 -84t-215 -28.5t-214.5 28.5t-174.5 84t-119 145t-43 203.5q0 138 77 237t179 124q-73 26 -136 117.5t-63 189.5q0 181 144 301.5t350 120.5q135 0 248 -54t180 -151.5t67 -216.5
q0 -107 -56.5 -194.5t-141.5 -112.5zM424 1079q0 -92 59 -140t148 -48q90 0 148.5 48.5t58.5 139.5q0 90 -58.5 138.5t-148.5 48.5q-87 0 -147 -50t-60 -137zM631 227q116 0 190 54.5t74 167.5q0 100 -76.5 160.5t-187.5 60.5t-186.5 -59t-75.5 -162q0 -113 73.5 -167.5
t188.5 -54.5z" />
    <glyph glyph-name="nine" unicode="9" horiz-adv-x="1345" 
d="M639 494q-236 -11 -379 126.5t-143 383.5q0 248 156.5 387t408.5 139q115 0 212 -36.5t164.5 -98.5t112 -146.5t59 -177t-0.5 -193t-60 -192.5q-38 -75 -181.5 -292t-272.5 -394h-332l365 520q-40 -22 -109 -26zM950 1006q0 117 -80 196.5t-196 79.5t-197.5 -80
t-81.5 -196q0 -120 80 -203.5t203 -83.5q115 0 193.5 84t78.5 203z" />
    <glyph glyph-name="colon" unicode=":" horiz-adv-x="421" 
d="M360 135q0 -63 -44 -107t-107 -44t-106.5 44t-43.5 107q0 62 43.5 106t106.5 44t107 -44t44 -106zM360 713q0 -62 -44 -106t-107 -44t-106.5 44t-43.5 106q0 63 43.5 107t106.5 44t107 -44t44 -107z" />
    <glyph glyph-name="semicolon" unicode=";" horiz-adv-x="436" 
d="M365 160q21 -79 -3.5 -164t-91 -152t-159.5 -88l-35 76q124 39 141 152q-63 -2 -109 40t-47 103q-3 63 39 109t105 49q58 2 102.5 -32.5t57.5 -92.5zM362 713q0 -62 -44 -106t-107 -44t-106.5 44t-43.5 106q0 63 43.5 107t106.5 44t107 -44t44 -107z" />
    <glyph glyph-name="less" unicode="&#x3c;" horiz-adv-x="1132" 
d="M109 874l911 429v-291l-619 -269l619 -266v-293l-911 428v262z" />
    <glyph glyph-name="equal" unicode="=" horiz-adv-x="1150" 
d="M1036 1118v-252h-932v252h932zM1036 623v-252h-932v252h932z" />
    <glyph glyph-name="greater" unicode="&#x3e;" horiz-adv-x="1132" 
d="M109 1303l911 -429v-262l-911 -428v293l618 266l-618 269v291z" />
    <glyph glyph-name="question" unicode="?" horiz-adv-x="1204" 
d="M369 434q-4 83 16 163.5t86 172.5q30 43 78 78.5t91.5 58.5t84 48.5t64.5 59.5t24 79q0 19 -3 36.5t-17 42.5t-37 43t-68.5 31t-107.5 13q-64 0 -117 -20.5t-87.5 -55.5t-56 -71t-34.5 -77l-265 88q8 26 19.5 53.5t35.5 70t53 80t74.5 77.5t98 68t125 46.5t154.5 18.5
q149 0 267 -53t185.5 -151.5t67.5 -225.5q0 -61 -11.5 -113t-37 -92.5t-48.5 -68.5t-63 -55.5t-62 -40.5t-64 -35q-11 -6 -17 -9q-90 -49 -120 -105t-30 -155h-278zM508 -16q-62 0 -106 44t-44 107q0 61 44 105.5t106 44.5q63 0 107 -44t44 -106q0 -63 -44 -107t-107 -44z
" />
    <glyph glyph-name="at" unicode="@" horiz-adv-x="1734" 
d="M1651 829q0 -148 -32 -262.5t-107 -187t-185 -72.5q-69 0 -131.5 36.5t-93.5 94.5q-34 -55 -108.5 -90t-159.5 -35q-183 0 -288.5 114.5t-105.5 311.5q0 189 109.5 305.5t286.5 116.5q109 0 192 -61v53h207v-510q0 -47 5 -77t25.5 -53.5t57.5 -23.5q41 0 67 29t41 105.5
t15 205.5q0 258 -153.5 381t-432.5 123q-114 0 -208.5 -33t-159.5 -89t-110 -130.5t-66 -156.5t-21 -168q0 -88 12.5 -165t51.5 -161t101.5 -143.5t171 -98t251.5 -38.5q174 0 301 96l139 -135q-83 -67 -181 -103.5t-259 -36.5q-386 0 -590.5 206t-204.5 579
q0 221 97.5 396.5t274 274.5t400.5 99q372 0 581.5 -179t209.5 -518zM1028 698v97q0 30 -3 53.5t-14.5 50t-31.5 44t-55.5 29t-83.5 11.5q-52 0 -90 -24t-57 -63.5t-27.5 -78t-8.5 -78.5q0 -67 17 -115.5t46 -74t61.5 -36.5t70.5 -11q32 0 61 10t55.5 31.5t42.5 61t17 93.5z
" />
    <glyph glyph-name="A" unicode="A" 
d="M324 0h-312l766 1499h29l766 -1499h-311l-117 236h-707zM793 938l-215 -453h428z" />
    <glyph glyph-name="B" unicode="B" horiz-adv-x="1423" 
d="M1262 1090q0 -122 -68.5 -212t-175.5 -94v-2q120 -7 212.5 -102.5t92.5 -251.5q0 -96 -27.5 -171t-73.5 -122.5t-111.5 -78.5t-136 -43.5t-151.5 -12.5h-659v1499h637q461 0 461 -409zM803 254q110 0 171.5 46.5t61.5 143.5t-62.5 144t-176.5 47h-346v-381h352zM451 1245
v-354h321q107 0 155 47.5t48 138.5q0 84 -53 126t-148 42h-323z" />
    <glyph glyph-name="C" unicode="C" horiz-adv-x="1593" 
d="M1268 1018q-60 107 -167.5 173t-242.5 66q-133 0 -245.5 -68.5t-178 -186t-65.5 -254.5q0 -139 65.5 -256.5t178 -185.5t245.5 -68q142 0 245 65t165 172l268 -108q-86 -180 -264.5 -288t-413.5 -108q-158 0 -301.5 60t-247.5 163t-165.5 247.5t-61.5 306.5
q0 160 61.5 304.5t165.5 247.5t247.5 163.5t301.5 60.5q238 0 415.5 -112.5t262.5 -285.5z" />
    <glyph glyph-name="D" unicode="D" horiz-adv-x="1609" 
d="M756 0h-592v1499h592q357 0 554 -200.5t197 -548.5q0 -349 -195 -549.5t-556 -200.5zM451 1241v-983h305q463 0 463 490q0 493 -463 493h-305z" />
    <glyph glyph-name="E" unicode="E" horiz-adv-x="1398" 
d="M1266 1245h-817v-375h725v-254h-725v-362h817v-254h-1102v1499h1102v-254z" />
    <glyph glyph-name="F" unicode="F" horiz-adv-x="1335" 
d="M1266 1245h-815v-401h723v-254h-723v-590h-287v1499h1102v-254z" />
    <glyph glyph-name="G" unicode="G" horiz-adv-x="1695" 
d="M754 819h858q6 -119 0 -192q-12 -143 -70 -264t-152.5 -207.5t-226.5 -135.5t-286 -49q-219 0 -402 104.5t-288 283t-105 389.5q0 158 61.5 302t165.5 248t247.5 166t301.5 62q198 0 368.5 -93.5t276.5 -252.5l-241 -150q-69 100 -177.5 163.5t-226.5 63.5
q-132 0 -245.5 -70.5t-179.5 -188t-66 -250.5q0 -100 39.5 -193.5t107.5 -163t165 -111.5t206 -42q170 0 286.5 92.5t135.5 230.5h-553v258z" />
    <glyph glyph-name="H" unicode="H" horiz-adv-x="1638" 
d="M1190 1499h285v-1499h-285v598h-741v-598h-285v1499h285v-647h741v647z" />
    <glyph glyph-name="I" unicode="I" horiz-adv-x="655" 
d="M471 1499v-1499h-287v1499h287z" />
    <glyph glyph-name="J" unicode="J" horiz-adv-x="1247" 
d="M803 1499h287v-967q0 -260 -151.5 -410.5t-403.5 -150.5q-173 0 -303 82t-195 228l260 116q76 -166 238 -166q67 0 117 21t78 52t45.5 74t22.5 79t5 75v967z" />
    <glyph glyph-name="K" unicode="K" horiz-adv-x="1478" 
d="M1458 0h-379l-628 682v-682h-287v1499h287v-762l596 762h352l-617 -776z" />
    <glyph glyph-name="L" unicode="L" horiz-adv-x="1259" 
d="M451 254h792v-254h-1079v1499h287v-1245z" />
    <glyph glyph-name="M" unicode="M" horiz-adv-x="1839" 
d="M1655 1499h18v-1499h-287v758l-468 -563l-467 563v-758h-287v1499h18l736 -866z" />
    <glyph glyph-name="N" unicode="N" horiz-adv-x="1630" 
d="M1466 0h-30l-987 891v-891h-285v1499h31l985 -907v907h286v-1499z" />
    <glyph glyph-name="O" unicode="O" horiz-adv-x="1732" 
d="M864 -29q-172 0 -318.5 61.5t-246 166.5t-155.5 248t-56 303q0 214 95 390.5t273.5 282t407.5 105.5q173 0 320 -61.5t246.5 -167t155.5 -247.5t56 -302t-56 -303t-155.5 -248t-246.5 -166.5t-320 -61.5zM864 1260q-132 0 -246 -71t-179.5 -188.5t-65.5 -250.5
q0 -134 66 -252t179.5 -189t245.5 -71q133 0 247 71t179.5 189t65.5 252q0 133 -65.5 250.5t-179.5 188.5t-247 71z" />
    <glyph glyph-name="P" unicode="P" horiz-adv-x="1388" 
d="M164 1499h622q265 0 421.5 -148.5t156.5 -383.5q0 -239 -149.5 -380t-430.5 -141h-333v-446h-287v1499zM451 700h352q125 0 199.5 76.5t74.5 190.5q0 118 -77 198t-207 80h-342v-545z" />
    <glyph glyph-name="Q" unicode="Q" horiz-adv-x="1693" 
d="M1350 254h295v-256h-746q-203 0 -360.5 60t-254.5 165t-146.5 241.5t-49.5 297.5q0 155 60.5 296.5t162.5 244t243 163t296 60.5q158 0 297.5 -52.5t243 -146t163.5 -233.5t60 -306q0 -172 -71.5 -320.5t-192.5 -213.5zM373 762q0 -130 61 -241.5t171 -178t245 -66.5
q136 0 246.5 67t170.5 177.5t60 241.5q0 207 -138.5 346t-338.5 139q-96 0 -184.5 -39t-152.5 -104.5t-102 -155t-38 -186.5z" />
    <glyph glyph-name="R" unicode="R" horiz-adv-x="1474" 
d="M733 477h-284v-477h-285v1499h680q228 0 372 -144t144 -372q0 -171 -86 -306t-225 -173l374 -504h-342zM449 1245v-518h327q70 0 123.5 15t86.5 39t53.5 58.5t28 69.5t7.5 76q0 116 -74 188t-225 72h-327z" />
    <glyph glyph-name="S" unicode="S" horiz-adv-x="1392" 
d="M106 199l144 217q84 -68 227.5 -124t265.5 -56q150 0 218.5 50.5t68.5 127.5q0 30 -10.5 54.5t-25 42.5t-43 34t-52 25.5t-65.5 20.5t-68.5 16.5t-75.5 15.5q-10 2 -31 6q-43 8 -68 13.5t-74.5 18t-81 24t-77.5 32.5t-76 43t-64 55t-53.5 70t-32.5 86t-13 104
q0 101 35.5 181t92 129t133 80.5t152 44t156.5 12.5q176 0 304 -48.5t255 -144.5l-157 -217q-209 143 -433 143q-46 0 -87.5 -7.5t-80 -24t-61 -47t-22.5 -72.5q0 -20 4.5 -38t17 -33t23 -27.5t33 -24t36.5 -19.5t44 -17.5t44.5 -14t49.5 -12.5t47 -10.5t49 -10.5
q16 -3 58.5 -11t69.5 -13.5t72.5 -17t76 -23.5t71.5 -32t69 -43t58 -56.5t47.5 -71.5t29 -89t11.5 -110q0 -225 -153.5 -342t-415.5 -117q-111 0 -206 17.5t-175 54t-135 70t-126 86.5z" />
    <glyph glyph-name="T" unicode="T" horiz-adv-x="1269" 
d="M1206 1499v-254h-428v-1245h-286v1245h-431v254h1145z" />
    <glyph glyph-name="U" unicode="U" horiz-adv-x="1613" 
d="M807 -27q-292 0 -467.5 172t-175.5 459v895h287v-895q0 -86 24.5 -154.5t62 -109.5t87 -68t94 -37t88.5 -10t88.5 10t94 37t87 68t62 109.5t24.5 154.5v895h287v-895q0 -287 -175 -459t-468 -172z" />
    <glyph glyph-name="V" unicode="V" horiz-adv-x="1476" 
d="M1149 1499h317l-712 -1499h-17l-710 1499h315l403 -870z" />
    <glyph glyph-name="W" unicode="W" horiz-adv-x="2029" 
d="M1704 1499h305l-559 -1499h-29l-405 872l-410 -874h-26l-553 1501h305l293 -823l381 823h18l381 -825z" />
    <glyph glyph-name="X" unicode="X" horiz-adv-x="1544" 
d="M49 0l557 741l-569 758h358l389 -541l390 541h356l-567 -758l557 -741h-359l-377 522l-376 -522h-359z" />
    <glyph glyph-name="Y" unicode="Y" horiz-adv-x="1452" 
d="M1108 1499h334l-572 -932v-567h-286v567l-568 932h334l377 -637z" />
    <glyph glyph-name="Z" unicode="Z" horiz-adv-x="1437" 
d="M1382 1499v-35l-841 -1210h813v-254h-1311v33l844 1212h-781v254h1276z" />
    <glyph glyph-name="bracketleft" unicode="[" horiz-adv-x="772" 
d="M723 -68v-256h-555v2165h555v-256h-268v-1653h268z" />
    <glyph glyph-name="backslash" unicode="\" horiz-adv-x="1009" 
d="M739 -283l-737 1991h272l738 -1991h-273z" />
    <glyph glyph-name="bracketright" unicode="]" horiz-adv-x="688" 
d="M578 -324h-555v256h268v1653h-268v256h555v-2165z" />
    <glyph glyph-name="asciicircum" unicode="^" horiz-adv-x="1239" 
d="M1128 764h-290l-228 487l-227 -487h-291l369 747h299z" />
    <glyph glyph-name="underscore" unicode="_" horiz-adv-x="1368" 
d="M1243 0v-252h-1134v252h1134z" />
    <glyph glyph-name="grave" unicode="`" horiz-adv-x="581" 
d="M283 1909l239 -310h-200l-275 207z" />
    <glyph glyph-name="a" unicode="a" 
d="M324 0h-312l766 1499h29l766 -1499h-311l-117 236h-707zM793 938l-215 -453h428z" />
    <glyph glyph-name="b" unicode="b" horiz-adv-x="1423" 
d="M1262 1090q0 -122 -68.5 -212t-175.5 -94v-2q120 -7 212.5 -102.5t92.5 -251.5q0 -96 -27.5 -171t-73.5 -122.5t-111.5 -78.5t-136 -43.5t-151.5 -12.5h-659v1499h637q461 0 461 -409zM803 254q110 0 171.5 46.5t61.5 143.5t-62.5 144t-176.5 47h-346v-381h352zM451 1245
v-354h321q107 0 155 47.5t48 138.5q0 84 -53 126t-148 42h-323z" />
    <glyph glyph-name="c" unicode="c" horiz-adv-x="1593" 
d="M1268 1018q-60 107 -167.5 173t-242.5 66q-133 0 -245.5 -68.5t-178 -186t-65.5 -254.5q0 -139 65.5 -256.5t178 -185.5t245.5 -68q142 0 245 65t165 172l268 -108q-86 -180 -264.5 -288t-413.5 -108q-158 0 -301.5 60t-247.5 163t-165.5 247.5t-61.5 306.5
q0 160 61.5 304.5t165.5 247.5t247.5 163.5t301.5 60.5q238 0 415.5 -112.5t262.5 -285.5z" />
    <glyph glyph-name="d" unicode="d" horiz-adv-x="1609" 
d="M756 0h-592v1499h592q357 0 554 -200.5t197 -548.5q0 -349 -195 -549.5t-556 -200.5zM451 1241v-983h305q463 0 463 490q0 493 -463 493h-305z" />
    <glyph glyph-name="e" unicode="e" horiz-adv-x="1398" 
d="M1266 1245h-817v-375h725v-254h-725v-362h817v-254h-1102v1499h1102v-254z" />
    <glyph glyph-name="f" unicode="f" horiz-adv-x="1335" 
d="M1266 1245h-815v-401h723v-254h-723v-590h-287v1499h1102v-254z" />
    <glyph glyph-name="g" unicode="g" horiz-adv-x="1695" 
d="M754 819h858q6 -119 0 -192q-12 -143 -70 -264t-152.5 -207.5t-226.5 -135.5t-286 -49q-219 0 -402 104.5t-288 283t-105 389.5q0 158 61.5 302t165.5 248t247.5 166t301.5 62q198 0 368.5 -93.5t276.5 -252.5l-241 -150q-69 100 -177.5 163.5t-226.5 63.5
q-132 0 -245.5 -70.5t-179.5 -188t-66 -250.5q0 -100 39.5 -193.5t107.5 -163t165 -111.5t206 -42q170 0 286.5 92.5t135.5 230.5h-553v258z" />
    <glyph glyph-name="h" unicode="h" horiz-adv-x="1638" 
d="M1190 1499h285v-1499h-285v598h-741v-598h-285v1499h285v-647h741v647z" />
    <glyph glyph-name="i" unicode="i" horiz-adv-x="655" 
d="M471 1499v-1499h-287v1499h287z" />
    <glyph glyph-name="j" unicode="j" horiz-adv-x="1247" 
d="M803 1499h287v-967q0 -260 -151.5 -410.5t-403.5 -150.5q-173 0 -303 82t-195 228l260 116q76 -166 238 -166q67 0 117 21t78 52t45.5 74t22.5 79t5 75v967z" />
    <glyph glyph-name="k" unicode="k" horiz-adv-x="1478" 
d="M1458 0h-379l-628 682v-682h-287v1499h287v-762l596 762h352l-617 -776z" />
    <glyph glyph-name="l" unicode="l" horiz-adv-x="1259" 
d="M451 254h792v-254h-1079v1499h287v-1245z" />
    <glyph glyph-name="m" unicode="m" horiz-adv-x="1839" 
d="M1655 1499h18v-1499h-287v758l-468 -563l-467 563v-758h-287v1499h18l736 -866z" />
    <glyph glyph-name="n" unicode="n" horiz-adv-x="1630" 
d="M1466 0h-30l-987 891v-891h-285v1499h31l985 -907v907h286v-1499z" />
    <glyph glyph-name="o" unicode="o" horiz-adv-x="1732" 
d="M864 -29q-172 0 -318.5 61.5t-246 166.5t-155.5 248t-56 303q0 214 95 390.5t273.5 282t407.5 105.5q173 0 320 -61.5t246.5 -167t155.5 -247.5t56 -302t-56 -303t-155.5 -248t-246.5 -166.5t-320 -61.5zM864 1260q-132 0 -246 -71t-179.5 -188.5t-65.5 -250.5
q0 -134 66 -252t179.5 -189t245.5 -71q133 0 247 71t179.5 189t65.5 252q0 133 -65.5 250.5t-179.5 188.5t-247 71z" />
    <glyph glyph-name="p" unicode="p" horiz-adv-x="1388" 
d="M164 1499h622q265 0 421.5 -148.5t156.5 -383.5q0 -239 -149.5 -380t-430.5 -141h-333v-446h-287v1499zM451 700h352q125 0 199.5 76.5t74.5 190.5q0 118 -77 198t-207 80h-342v-545z" />
    <glyph glyph-name="q" unicode="q" horiz-adv-x="1693" 
d="M1350 254h295v-256h-746q-203 0 -360.5 60t-254.5 165t-146.5 241.5t-49.5 297.5q0 155 60.5 296.5t162.5 244t243 163t296 60.5q158 0 297.5 -52.5t243 -146t163.5 -233.5t60 -306q0 -172 -71.5 -320.5t-192.5 -213.5zM373 762q0 -130 61 -241.5t171 -178t245 -66.5
q136 0 246.5 67t170.5 177.5t60 241.5q0 207 -138.5 346t-338.5 139q-96 0 -184.5 -39t-152.5 -104.5t-102 -155t-38 -186.5z" />
    <glyph glyph-name="r" unicode="r" horiz-adv-x="1474" 
d="M733 477h-284v-477h-285v1499h680q228 0 372 -144t144 -372q0 -171 -86 -306t-225 -173l374 -504h-342zM449 1245v-518h327q70 0 123.5 15t86.5 39t53.5 58.5t28 69.5t7.5 76q0 116 -74 188t-225 72h-327z" />
    <glyph glyph-name="s" unicode="s" horiz-adv-x="1392" 
d="M106 199l144 217q84 -68 227.5 -124t265.5 -56q150 0 218.5 50.5t68.5 127.5q0 30 -10.5 54.5t-25 42.5t-43 34t-52 25.5t-65.5 20.5t-68.5 16.5t-75.5 15.5q-10 2 -31 6q-43 8 -68 13.5t-74.5 18t-81 24t-77.5 32.5t-76 43t-64 55t-53.5 70t-32.5 86t-13 104
q0 101 35.5 181t92 129t133 80.5t152 44t156.5 12.5q176 0 304 -48.5t255 -144.5l-157 -217q-209 143 -433 143q-46 0 -87.5 -7.5t-80 -24t-61 -47t-22.5 -72.5q0 -20 4.5 -38t17 -33t23 -27.5t33 -24t36.5 -19.5t44 -17.5t44.5 -14t49.5 -12.5t47 -10.5t49 -10.5
q16 -3 58.5 -11t69.5 -13.5t72.5 -17t76 -23.5t71.5 -32t69 -43t58 -56.5t47.5 -71.5t29 -89t11.5 -110q0 -225 -153.5 -342t-415.5 -117q-111 0 -206 17.5t-175 54t-135 70t-126 86.5z" />
    <glyph glyph-name="t" unicode="t" horiz-adv-x="1269" 
d="M1206 1499v-254h-428v-1245h-286v1245h-431v254h1145z" />
    <glyph glyph-name="u" unicode="u" horiz-adv-x="1613" 
d="M807 -27q-292 0 -467.5 172t-175.5 459v895h287v-895q0 -86 24.5 -154.5t62 -109.5t87 -68t94 -37t88.5 -10t88.5 10t94 37t87 68t62 109.5t24.5 154.5v895h287v-895q0 -287 -175 -459t-468 -172z" />
    <glyph glyph-name="v" unicode="v" horiz-adv-x="1476" 
d="M1149 1499h317l-712 -1499h-17l-710 1499h315l403 -870z" />
    <glyph glyph-name="w" unicode="w" horiz-adv-x="2029" 
d="M1704 1499h305l-559 -1499h-29l-405 872l-410 -874h-26l-553 1501h305l293 -823l381 823h18l381 -825z" />
    <glyph glyph-name="x" unicode="x" horiz-adv-x="1544" 
d="M49 0l557 741l-569 758h358l389 -541l390 541h356l-567 -758l557 -741h-359l-377 522l-376 -522h-359z" />
    <glyph glyph-name="y" unicode="y" horiz-adv-x="1452" 
d="M1108 1499h334l-572 -932v-567h-286v567l-568 932h334l377 -637z" />
    <glyph glyph-name="z" unicode="z" horiz-adv-x="1437" 
d="M1382 1499v-35l-841 -1210h813v-254h-1311v33l844 1212h-781v254h1276z" />
    <glyph glyph-name="braceleft" unicode="{" horiz-adv-x="843" 
d="M551 25q24 -29 60 -50t66.5 -31t63.5 -16t46.5 -7t19.5 -1v-274h-2q-30 0 -69.5 5t-112.5 22t-149 62.5t-132 112.5q-34 40 -57.5 91.5t-35 95t-17.5 103t-6.5 90t-0.5 82.5v16q0 23 0.5 58.5t0.5 52t-1 42.5t-4 38t-8.5 29t-14.5 25.5t-23 18.5t-32 15.5t-43 10.5v283
q21 2 37.5 8t29 12.5t22 20t15.5 23t10.5 30.5t6.5 31.5t3 38t1 39v44v44.5v15q0 51 0.5 82t6.5 90.5t17.5 103t35 95t57.5 91.5q47 55 110 96t115.5 60t111 30.5t83.5 13t45 1.5v-275q-6 0 -19.5 -1t-46.5 -6.5t-63.5 -15t-66.5 -30.5t-60 -49q-52 -64 -51 -281v-14
q6 -32 0.5 -95.5t-15.5 -128t-39 -126t-71 -88.5q26 -27 45 -56t31.5 -63t21 -59.5t13 -66.5t6.5 -62t4.5 -68t3.5 -64v-14q-1 -216 51 -280z" />
    <glyph glyph-name="bar" unicode="|" horiz-adv-x="585" 
d="M395 1712v-1929h-207v1929h207z" />
    <glyph glyph-name="braceright" unicode="}" horiz-adv-x="843" 
d="M291 25q52 64 51 280v14q1 17 3.5 64t4.5 68t6.5 62t13 66.5t21 59.5t31.5 63t45 56q-42 27 -71 88.5t-39 126t-15.5 128t0.5 95.5v14q1 217 -51 281q-24 28 -60 49t-66.5 30.5t-63.5 15t-46.5 6.5t-19.5 1v275q20 0 45 -1.5t83.5 -13t111 -30.5t115.5 -60t110 -96
q41 -49 67 -109.5t35.5 -131.5t11.5 -112t2 -106v-18v-44.5v-44t1 -39t3 -38t6.5 -31.5t10.5 -30.5t15.5 -23t22 -20t29 -12.5t37.5 -8v-283q-25 -5 -43 -10.5t-32 -15.5t-23 -18.5t-14.5 -25.5t-8.5 -29t-4 -38t-1 -42.5t0.5 -52t0.5 -58.5q0 -163 -14 -244
q-26 -145 -102 -234q-56 -67 -132 -112.5t-149 -62.5t-112.5 -22t-69.5 -5h-2v274q6 0 19.5 1t46.5 7t63.5 16t66.5 31t60 50z" />
    <glyph glyph-name="asciitilde" unicode="~" horiz-adv-x="1175" 
d="M774 672q-57 0 -113 21t-93.5 45.5t-86 45.5t-92.5 21q-31 0 -56.5 -13t-41 -34.5t-21.5 -32t-10 -20.5l-170 53q10 36 32 72.5t56 72.5t86 59t113 23t115.5 -20.5t88 -45t77 -45t83.5 -20.5q113 0 160 117l166 -56q-13 -38 -36.5 -77.5t-59 -78t-87.5 -63t-110 -24.5z
" />
    <glyph glyph-name="exclamdown" unicode="&#xa1;" horiz-adv-x="600" 
d="M145 0l52 1061h204l52 -1061h-308zM150 1362q0 63 44 107t107 44q62 0 106 -44t44 -107q0 -62 -44.5 -106t-105.5 -44q-63 0 -107 44t-44 106z" />
    <glyph glyph-name="cent" unicode="&#xa2;" horiz-adv-x="1267" 
d="M690 387q54 0 96 12t75 37.5t53 48t49 60.5l258 -105q-64 -110 -167 -187t-229 -106v-172h-286v177q-200 52 -330.5 217t-130.5 376q0 212 130.5 377t330.5 217v187h286v-183q128 -29 233.5 -108.5t168.5 -194.5l-258 -104q-54 78 -119 123t-160 45q-143 0 -240.5 -100
t-97.5 -259q0 -156 98 -257t240 -101z" />
    <glyph glyph-name="sterling" unicode="&#xa3;" horiz-adv-x="1259" 
d="M545 635q16 -149 -18 -251.5t-85 -133.5h725v-250h-1061v246q127 50 166 198q19 76 -8 191h-153v225h122l-18 150q-10 113 24.5 210t103 163t165.5 103.5t211 37.5q92 0 171.5 -27.5t133 -69t96.5 -97t66.5 -104t38.5 -98.5l-267 -84q-20 92 -90 159t-149 67
q-120 0 -176.5 -61t-48.5 -177q10 -119 18 -172h434v-225h-401z" />
    <glyph glyph-name="yen" unicode="&#xa5;" horiz-adv-x="1253" 
d="M1231 1501l-406 -700h283v-185h-340v-176h340v-182h-340v-258h-287v258h-321v182h321v176h-321v185h266l-408 700h332l275 -475l274 475h332z" />
    <glyph glyph-name="brokenbar" unicode="&#xa6;" horiz-adv-x="585" 
d="M395 -217h-207v792h207v-792zM188 918v794h207v-794h-207z" />
    <glyph glyph-name="section" unicode="&#xa7;" horiz-adv-x="1085" 
d="M836 537q63 -18 104 -92.5t41 -147.5q0 -165 -103 -245.5t-278 -80.5q-273 0 -510 168l119 166q29 -20 39 -26.5t55.5 -31.5t80 -37.5t89 -25t105.5 -12.5q80 0 127 27.5t47 76.5q0 28 -14 50.5t-33 36.5t-55.5 26.5t-63 18.5t-74.5 16q-139 29 -202 53q-216 85 -216 273
q0 51 17.5 93.5t38.5 66.5t52.5 44t45 25.5t31.5 11.5q-83 23 -134 88.5t-51 141.5t29.5 134t71.5 89t100.5 50t105.5 24.5t97 5.5q223 0 430 -144l-129 -168q-66 49 -150 80t-170 31q-76 0 -114.5 -27t-38.5 -73q0 -15 5.5 -28.5t17.5 -24.5t24 -20t31.5 -17t34 -13.5
t37.5 -11.5t35.5 -9t34.5 -7.5t29 -6.5q5 -1 17 -4q40 -9 63.5 -15t69 -21t75 -30.5t67 -41.5t59.5 -55t37.5 -71t15.5 -91q0 -82 -41 -141.5t-102 -77.5zM637 596q55 -3 97 30t46 93q5 71 -76.5 130t-224.5 69q-27 2 -55.5 -2t-60 -15.5t-52.5 -38.5t-24 -65
q-5 -62 44 -106t126 -66t180 -29z" />
    <glyph glyph-name="dieresis" unicode="&#xa8;" horiz-adv-x="847" 
d="M76 1735q0 59 40.5 99t100.5 40q58 0 97.5 -40t39.5 -99t-39.5 -98.5t-97.5 -39.5q-60 0 -100.5 39.5t-40.5 98.5zM494 1735q0 59 39.5 99t99.5 40q59 0 99 -40t40 -99q0 -58 -40 -98t-99 -40q-60 0 -99.5 39.5t-39.5 98.5z" />
    <glyph glyph-name="copyright" unicode="&#xa9;" horiz-adv-x="1691" 
d="M846 -25q-209 0 -386.5 103.5t-280.5 280.5t-103 386q0 156 61 299t164 246t245.5 164.5t299.5 61.5q156 0 298.5 -61.5t246 -164.5t164.5 -246t61 -299q0 -209 -103.5 -386t-280.5 -280.5t-386 -103.5zM846 1321q-156 0 -289 -77.5t-211 -210t-78 -288.5t78 -289
t211 -210.5t289 -77.5q117 0 223.5 46t183.5 123.5t122.5 184t45.5 223.5q0 156 -77 288.5t-209.5 210t-288.5 77.5zM1057 606l149 -59q-54 -97 -149.5 -156t-210.5 -59q-170 0 -292 121.5t-122 291.5t122 291t292 121q118 0 215 -60.5t151 -162.5l-149 -60q-34 57 -91.5 90
t-125.5 33q-104 0 -179 -74t-75 -178t74.5 -177.5t179.5 -73.5q65 0 121 30t90 82z" />
    <glyph glyph-name="ordfeminine" unicode="&#xaa;" horiz-adv-x="745" 
d="M643 633v139h-553v-139h553zM643 633v139h-553v-139h553zM571 1450q62 -68 62 -199v-352h-148v53q-59 -67 -184 -67q-18 0 -38 3.5t-50.5 13t-59.5 34.5t-47 61q-18 41 -18 84q0 59 39 117q69 98 262 92q53 0 94 -8q-2 58 -23 83t-85 28q-102 6 -199 -54l-63 111
q41 28 110.5 53t151.5 25q130 0 196 -78zM473 1073q13 22 10 98q-46 5 -112 5q-22 0 -42 -3t-45.5 -11.5t-40 -29t-12.5 -51.5q2 -14 7.5 -24.5t14.5 -17.5t18 -11.5t21 -7t19 -3.5t16.5 -2t10.5 -1q94 0 135 59z" />
    <glyph glyph-name="guillemotleft" unicode="&#xab;" horiz-adv-x="1388" 
d="M1276 279h-297l-305 473l307 479h291l-316 -479zM711 279h-297l-303 473l305 479h293l-318 -479z" />
    <glyph glyph-name="logicalnot" unicode="&#xac;" horiz-adv-x="1206" 
d="M1090 1030v-604h-287v352h-705v252h992z" />
    <glyph glyph-name="uni00AD" unicode="&#xad;" horiz-adv-x="1705" 
 />
    <glyph glyph-name="registered" unicode="&#xae;" horiz-adv-x="1693" 
d="M842 -25q-156 0 -298.5 61.5t-246 165t-164.5 246.5t-61 300q0 209 103.5 386t280.5 280.5t386 103.5t387 -103.5t281.5 -280.5t103.5 -386q0 -157 -61 -300t-164.5 -246.5t-246.5 -165t-300 -61.5zM842 1325q-156 0 -289 -77.5t-211 -210.5t-78 -289t78 -289t211 -211
t289 -78t289 78t210.5 211t77.5 289q0 117 -46 223.5t-123.5 184t-184 123.5t-223.5 46zM729 395h-168v709h336q114 0 186 -71.5t72 -186.5q0 -77 -36.5 -138t-100.5 -94q110 -143 164 -219h-209q-26 36 -78 104t-66 87h-100v-191zM729 936v-180h168q11 0 23 2.5t29 10.5
t27.5 28t10.5 49q0 90 -90 90h-168z" />
    <glyph glyph-name="macron" unicode="&#xaf;" horiz-adv-x="772" 
d="M696 1831v-189h-630v189h630z" />
    <glyph glyph-name="degree" unicode="&#xb0;" horiz-adv-x="688" 
d="M344 1239q-107 0 -183.5 76.5t-76.5 183.5t76.5 183.5t183.5 76.5t182.5 -76.5t75.5 -183.5t-75.5 -183.5t-182.5 -76.5zM344 1597q-41 0 -70.5 -28.5t-29.5 -69.5t29.5 -69.5t70.5 -28.5q40 0 69 28.5t29 69.5t-29 69.5t-69 28.5z" />
    <glyph glyph-name="plusminus" unicode="&#xb1;" horiz-adv-x="1124" 
d="M700 967h283v-248h-283v-311h-290v311h-283v248h283v313h290v-313zM983 0h-856v252h856v-252z" />
    <glyph glyph-name="twosuperior" unicode="&#xb2;" horiz-adv-x="815" 
d="M313 899h432v-164h-675v187q31 24 93 76t141.5 119.5t111.5 94.5q83 66 107 111t24 100q0 71 -45.5 104.5t-106.5 33.5q-34 0 -63 -16t-45 -34t-30 -46t-17 -37.5t-7 -22.5v2l-180 47q9 31 25 64t45.5 71.5t66.5 68t90.5 49t114.5 19.5q83 0 149.5 -26.5t106.5 -70.5
t61 -97t21 -109q0 -105 -51 -183.5t-156 -164.5q-9 -8 -213 -176z" />
    <glyph glyph-name="threesuperior" unicode="&#xb3;" horiz-adv-x="786" 
d="M551 1217q162 -48 162 -228q0 -133 -95 -207.5t-235 -74.5q-68 0 -125 19.5t-93.5 48.5t-65 68t-42.5 70t-24 64l157 49q2 -7 8.5 -21.5t23 -38t37 -43.5t54 -35t70.5 -16q73 1 108 35.5t35 93.5q0 78 -60.5 112t-184.5 32v151q126 0 185.5 28.5t59.5 107.5q0 57 -38 92
t-105 35q-53 0 -91.5 -19t-58 -49.5t-27 -48.5t-11.5 -37l-162 49q9 33 23.5 64.5t43 70.5t64.5 67.5t93 48t124 19.5q87 0 154 -25.5t104 -67.5t55.5 -90t18.5 -99q0 -52 -13.5 -91t-39.5 -64.5t-50 -40t-59 -29.5z" />
    <glyph glyph-name="acute" unicode="&#xb4;" horiz-adv-x="602" 
d="M61 1599l240 310l238 -103l-275 -207h-203z" />
    <glyph glyph-name="paragraph" unicode="&#xb6;" horiz-adv-x="1114" 
d="M612 0h-192v653q-69 0 -134 26t-118 74t-85 126.5t-32 175.5q0 51 4 92.5t18 89.5t37 84.5t63 71.5t95 57.5t134.5 36.5t179.5 14h370v-1501h-192v1386h-148v-1386z" />
    <glyph glyph-name="periodcentered" unicode="&#xb7;" horiz-adv-x="421" 
d="M362 856q0 -63 -44 -107t-107 -44q-62 0 -106 44t-44 107q0 62 44.5 106t105.5 44q63 0 107 -44t44 -106z" />
    <glyph glyph-name="cedilla" unicode="&#xb8;" horiz-adv-x="471" 
d="M311 -57q114 -39 105 -164q-2 -34 -13 -62t-25.5 -45.5t-36 -30t-39 -18.5t-39.5 -9.5t-32.5 -4t-23.5 -0.5q-50 1 -92.5 15t-60.5 28l-17 14l51 101q3 -4 10.5 -9.5t38 -15t70.5 -8.5q26 0 44.5 15t18.5 42q0 45 -67 45q-26 -2 -53 -8.5t-40 -11.5l-14 -6l-28 47l65 166
h131l-35 -74q38 10 82 -6z" />
    <glyph glyph-name="onesuperior" unicode="&#xb9;" horiz-adv-x="585" 
d="M330 1708h119v-977h-187v655l-141 -135l-129 135z" />
    <glyph glyph-name="ordmasculine" unicode="&#xba;" horiz-adv-x="808" 
d="M401 879q-133 0 -227 94.5t-94 228.5t94 228t227 94q134 0 229 -94.5t95 -227.5t-95 -228t-229 -95zM401 1397q-74 0 -129 -59.5t-55 -135.5q0 -77 55 -135.5t129 -58.5q76 0 130.5 58.5t54.5 135.5q0 76 -55 135.5t-130 59.5zM688 772v-139h-571v139h571z" />
    <glyph glyph-name="guillemotright" unicode="&#xbb;" horiz-adv-x="1388" 
d="M111 279l319 473l-315 479h291l307 -479l-305 -473h-297zM676 279l319 473l-317 479h293l305 -479l-303 -473h-297z" />
    <glyph glyph-name="onequarter" unicode="&#xbc;" horiz-adv-x="1789" 
d="M459 0h-191l895 1501h189zM330 1503h119v-977h-187v656l-141 -135l-129 135zM1563 381h118v-164h-118v-217h-187v217h-467v160l512 600h142v-596zM1376 381v281l-229 -281h229z" />
    <glyph glyph-name="onehalf" unicode="&#xbd;" horiz-adv-x="1789" 
d="M459 0h-191l895 1501h189zM330 1503h119v-977h-187v656l-141 -135l-129 135zM1296 164h433v-164h-676v186q31 24 93.5 77t140 119t112.5 95q83 66 107 111t24 100q0 71 -45 104t-107 33q-34 0 -63 -16t-45 -33.5t-29.5 -45.5t-16.5 -37.5t-7 -22.5v2l-181 47q9 31 25 64
t45.5 71.5t66.5 68t90.5 49t114.5 19.5q83 0 149.5 -26.5t106.5 -70.5t61 -97t21 -109q0 -105 -51 -183.5t-156 -164.5q-9 -8 -213 -176z" />
    <glyph glyph-name="threequarters" unicode="&#xbe;" horiz-adv-x="1961" 
d="M1767 381h119v-164h-119v-217h-186v217h-467v160l512 600h141v-596zM664 0h-191l895 1501h188zM1581 381v281l-229 -281h229zM541 1001q161 -47 161 -227q0 -133 -94.5 -207.5t-234.5 -74.5q-68 0 -125 19.5t-93.5 48.5t-65 68t-42.5 70t-24 64l157 49q2 -7 8.5 -21.5
t23 -38t37 -43.5t54 -35t70.5 -16q73 1 108 35.5t35 93.5q0 78 -61 112t-185 32v151q126 0 186 28.5t60 107.5q0 57 -37.5 91.5t-105.5 34.5q-43 0 -77.5 -14t-53 -31.5t-33 -42.5t-18.5 -38t-7 -27l-161 49q9 33 23.5 64.5t43 70.5t64.5 67.5t93 48t124 19.5
q87 0 154 -25.5t104 -67.5t55 -90t18 -99q0 -52 -13 -91t-39 -64.5t-50 -40.5t-59 -30z" />
    <glyph glyph-name="questiondown" unicode="&#xbf;" horiz-adv-x="1196" 
d="M817 1067q4 -83 -16 -163.5t-86 -172.5q-30 -43 -78 -78.5t-91.5 -58.5t-84 -48t-64.5 -59t-24 -79q0 -19 3 -36.5t17 -42.5t37 -43t68.5 -31t107.5 -13q64 0 117 20.5t87.5 55t56 70.5t34.5 77l264 -88q-8 -26 -19.5 -53.5t-35.5 -70t-53 -80t-74.5 -77.5t-97.5 -68
t-124.5 -46.5t-154.5 -18.5q-149 0 -267 53t-185.5 151.5t-67.5 225.5q0 61 11.5 113t37 92.5t48.5 68.5t63 55.5t62 40.5t64 35q11 6 17 9q90 49 120 105t30 155h278zM678 1518q62 0 105.5 -44.5t43.5 -107.5q0 -62 -43.5 -105.5t-105.5 -43.5q-63 0 -107.5 43.5
t-44.5 105.5q0 63 44.5 107.5t107.5 44.5z" />
    <glyph glyph-name="Agrave" unicode="&#xc0;" 
d="M324 0h-312l766 1499h29l766 -1499h-311l-117 236h-707zM793 938l-215 -453h428zM647 1901l240 -310h-201l-274 207z" />
    <glyph glyph-name="Aacute" unicode="&#xc1;" 
d="M324 0h-312l766 1499h29l766 -1499h-311l-117 236h-707zM793 938l-215 -453h428zM690 1591l240 310l237 -103l-274 -207h-203z" />
    <glyph glyph-name="Acircumflex" unicode="&#xc2;" 
d="M324 0h-312l766 1499h29l766 -1499h-311l-117 236h-707zM793 938l-215 -453h428zM422 1573l250 315h239l252 -315h-229l-146 145l-137 -145h-229z" />
    <glyph glyph-name="Atilde" unicode="&#xc3;" 
d="M324 0h-312l766 1499h29l766 -1499h-311l-117 236h-707zM793 938l-215 -453h428zM944 1554q-47 0 -85 14t-62.5 34t-46 40t-46.5 34t-53 14q-21 0 -39 -11.5t-29 -28t-19 -33.5t-12 -29l-3 -11l-166 47q10 38 29 77t49 78.5t77 65.5t101 27q48 1 87 -13t64.5 -34
t47.5 -40t46.5 -34t51.5 -14q29 0 54 23.5t36 47.5l10 23l164 -59q-34 -95 -101.5 -156.5t-154.5 -61.5z" />
    <glyph glyph-name="Adieresis" unicode="&#xc4;" 
d="M324 0h-312l766 1499h29l766 -1499h-311l-117 236h-707zM793 938l-215 -453h428zM444 1706q0 59 41 99t101 40q58 0 97.5 -40t39.5 -99q0 -58 -39.5 -97.5t-97.5 -39.5q-60 0 -101 39.5t-41 97.5zM862 1706q0 59 39.5 99t99.5 40q59 0 99.5 -40.5t40.5 -98.5t-40.5 -97.5
t-99.5 -39.5q-60 0 -99.5 39t-39.5 98z" />
    <glyph glyph-name="Aring" unicode="&#xc5;" 
d="M324 0h-312l736 1440q-76 15 -125.5 75.5t-49.5 141.5q0 91 65 155t157 64q91 0 155 -64t64 -155q0 -81 -51 -142t-127 -75l737 -1440h-311l-117 236h-707zM793 938l-215 -453h428zM795 1739q-35 0 -59.5 -24t-24.5 -58q0 -35 24.5 -59.5t59.5 -24.5q34 0 58 24.5
t24 59.5q0 34 -24 58t-58 24z" />
    <glyph glyph-name="AE" unicode="&#xc6;" horiz-adv-x="2174" 
d="M2042 1243h-817v-371h725v-262h-725v-350h817v-260h-1104v252h-473l-166 -252h-324l990 1501h1077v-258zM938 506v485l-307 -485h307z" />
    <glyph glyph-name="Ccedilla" unicode="&#xc7;" horiz-adv-x="1593" 
d="M1268 1018q-60 107 -167.5 173t-242.5 66q-133 0 -245.5 -68.5t-178 -186t-65.5 -254.5q0 -139 65.5 -256.5t178 -185.5t245.5 -68q142 0 245 65t165 172l268 -108q-80 -170 -245.5 -277t-383.5 -117l-28 -63q38 10 82 -6q113 -39 104 -164q-2 -34 -13 -62t-25.5 -45.5
t-36 -30t-39 -18.5t-39.5 -9.5t-32.5 -4t-23.5 -0.5q-50 1 -92.5 15t-59.5 28l-18 14l51 101q2 -4 12 -11t39 -15t68 -7q26 0 45 15.5t19 41.5q0 45 -68 45q-26 -2 -53 -8.5t-41 -12.5l-13 -5l-28 47l61 157q-145 14 -273.5 79t-221.5 166t-147 238.5t-54 289.5
q0 160 61.5 304.5t165.5 247.5t247.5 163.5t301.5 60.5q238 0 415.5 -112.5t262.5 -285.5z" />
    <glyph glyph-name="Egrave" unicode="&#xc8;" horiz-adv-x="1398" 
d="M1266 1245h-817v-375h725v-254h-725v-362h817v-254h-1102v1499h1102v-254zM647 1901l240 -310h-201l-274 207z" />
    <glyph glyph-name="Eacute" unicode="&#xc9;" horiz-adv-x="1398" 
d="M1266 1245h-817v-375h725v-254h-725v-362h817v-254h-1102v1499h1102v-254zM522 1591l240 310l237 -103l-274 -207h-203z" />
    <glyph glyph-name="Ecircumflex" unicode="&#xca;" horiz-adv-x="1398" 
d="M1266 1245h-817v-375h725v-254h-725v-362h817v-254h-1102v1499h1102v-254zM350 1573l250 315h240l252 -315h-230l-145 145l-137 -145h-230z" />
    <glyph glyph-name="Edieresis" unicode="&#xcb;" horiz-adv-x="1398" 
d="M1266 1245h-817v-375h725v-254h-725v-362h817v-254h-1102v1499h1102v-254zM373 1706q0 59 40.5 99t100.5 40q58 0 97.5 -40t39.5 -99q0 -58 -39.5 -97.5t-97.5 -39.5q-60 0 -100.5 39.5t-40.5 97.5zM791 1706q0 59 39.5 99t99.5 40q58 0 98.5 -40.5t40.5 -98.5t-40 -97.5
t-99 -39.5q-60 0 -99.5 39t-39.5 98z" />
    <glyph glyph-name="Igrave" unicode="&#xcc;" horiz-adv-x="655" 
d="M471 1499v-1499h-287v1499h287zM233 1901l240 -310h-201l-274 207z" />
    <glyph glyph-name="Iacute" unicode="&#xcd;" horiz-adv-x="655" 
d="M471 0v1499h-287v-1499h287zM182 1591l240 310l237 -103l-274 -207h-203z" />
    <glyph glyph-name="Icircumflex" unicode="&#xce;" horiz-adv-x="655" 
d="M471 0v1499h-287v-1499h287zM-45 1573l250 315h239l252 -315h-229l-145 145l-138 -145h-229z" />
    <glyph glyph-name="Idieresis" unicode="&#xcf;" horiz-adv-x="655" 
d="M471 1499v-1499h-287v1499h287zM-18 1706q0 59 40.5 99t100.5 40q58 0 97.5 -40t39.5 -99q0 -58 -39 -97.5t-98 -39.5q-60 0 -100.5 39.5t-40.5 97.5zM399 1706q0 59 40 99t100 40q59 0 99 -40.5t40 -98.5t-40 -97.5t-99 -39.5q-60 0 -100 39t-40 98z" />
    <glyph glyph-name="Eth" unicode="&#xd0;" horiz-adv-x="1609" 
d="M59 616v252h105v631h592q357 0 554 -200.5t197 -548.5q0 -349 -195 -549.5t-556 -200.5h-592v616h-105zM451 616v-358h305q463 0 463 490q0 493 -463 493h-305v-373h319v-252h-319z" />
    <glyph glyph-name="Ntilde" unicode="&#xd1;" horiz-adv-x="1630" 
d="M1466 0h-30l-987 891v-891h-285v1499h31l985 -907v907h286v-1499zM965 1554q-47 0 -85 14t-62.5 34t-46 40t-46.5 34t-53 14q-33 0 -58.5 -28t-35.5 -56l-9 -29l-166 47q10 38 29 77t49 78.5t77 65.5t101 27q48 1 87 -13t64.5 -34t47.5 -40t46.5 -34t51.5 -14
q29 0 54.5 23.5t35.5 47.5l11 23l164 -59q-34 -95 -101.5 -156.5t-154.5 -61.5z" />
    <glyph glyph-name="Ograve" unicode="&#xd2;" horiz-adv-x="1732" 
d="M864 -29q-172 0 -318.5 61.5t-246 166.5t-155.5 248t-56 303q0 214 95 390.5t273.5 282t407.5 105.5q173 0 320 -61.5t246.5 -167t155.5 -247.5t56 -302t-56 -303t-155.5 -248t-246.5 -166.5t-320 -61.5zM864 1260q-132 0 -246 -71t-179.5 -188.5t-65.5 -250.5
q0 -134 66 -252t179.5 -189t245.5 -71q133 0 247 71t179.5 189t65.5 252q0 133 -65.5 250.5t-179.5 188.5t-247 71zM788 1901l240 -310h-201l-274 207z" />
    <glyph glyph-name="Oacute" unicode="&#xd3;" horiz-adv-x="1732" 
d="M864 -29q173 0 320 61.5t246.5 166.5t155.5 248t56 303t-56 302t-155.5 247.5t-246.5 167t-320 61.5q-229 0 -407.5 -105.5t-273.5 -282t-95 -390.5q0 -160 56 -303t155.5 -248t246 -166.5t318.5 -61.5zM864 1260q133 0 247 -71t179.5 -188.5t65.5 -250.5
q0 -134 -65.5 -252t-179.5 -189t-247 -71q-132 0 -245.5 71t-179.5 189t-66 252q0 133 65.5 250.5t179.5 188.5t246 71zM682 1591l240 310l237 -103l-274 -207h-203z" />
    <glyph glyph-name="Ocircumflex" unicode="&#xd4;" horiz-adv-x="1732" 
d="M864 -29q173 0 320 61.5t246.5 166.5t155.5 248t56 303t-56 302t-155.5 247.5t-246.5 167t-320 61.5q-229 0 -407.5 -105.5t-273.5 -282t-95 -390.5q0 -160 56 -303t155.5 -248t246 -166.5t318.5 -61.5zM864 1260q133 0 247 -71t179.5 -188.5t65.5 -250.5
q0 -134 -65.5 -252t-179.5 -189t-247 -71q-132 0 -245.5 71t-179.5 189t-66 252q0 133 65.5 250.5t179.5 188.5t246 71zM496 1573l249 315h240l252 -315h-229l-146 145l-137 -145h-229z" />
    <glyph glyph-name="Otilde" unicode="&#xd5;" horiz-adv-x="1732" 
d="M864 -29q-172 0 -318.5 61.5t-246 166.5t-155.5 248t-56 303q0 214 95 390.5t273.5 282t407.5 105.5q173 0 320 -61.5t246.5 -167t155.5 -247.5t56 -302t-56 -303t-155.5 -248t-246.5 -166.5t-320 -61.5zM864 1260q-132 0 -246 -71t-179.5 -188.5t-65.5 -250.5
q0 -134 66 -252t179.5 -189t245.5 -71q133 0 247 71t179.5 189t65.5 252q0 133 -65.5 250.5t-179.5 188.5t-247 71zM1018 1554q-47 0 -85 14t-62.5 34t-46 40t-46.5 34t-53 14q-21 0 -39 -11.5t-29 -28t-19 -33.5t-12 -29l-3 -11l-166 47q10 38 29 77t49 78.5t77 65.5
t101 27q48 1 87 -13t64.5 -34t47.5 -40t46.5 -34t51.5 -14q29 0 54 23.5t36 47.5l10 23l164 -59q-34 -95 -101.5 -156.5t-154.5 -61.5z" />
    <glyph glyph-name="Odieresis" unicode="&#xd6;" horiz-adv-x="1732" 
d="M864 -29q-172 0 -318.5 61.5t-246 166.5t-155.5 248t-56 303q0 214 95 390.5t273.5 282t407.5 105.5q173 0 320 -61.5t246.5 -167t155.5 -247.5t56 -302t-56 -303t-155.5 -248t-246.5 -166.5t-320 -61.5zM864 1260q-132 0 -246 -71t-179.5 -188.5t-65.5 -250.5
q0 -134 66 -252t179.5 -189t245.5 -71q133 0 247 71t179.5 189t65.5 252q0 133 -65.5 250.5t-179.5 188.5t-247 71zM514 1706q0 59 40.5 99t100.5 40q58 0 98 -40t40 -99q0 -58 -39.5 -97.5t-98.5 -39.5q-60 0 -100.5 39.5t-40.5 97.5zM932 1706q0 59 39.5 99t99.5 40
q59 0 99 -40.5t40 -98.5t-40 -97.5t-99 -39.5q-60 0 -99.5 39t-39.5 98z" />
    <glyph glyph-name="multiply" unicode="&#xd7;" horiz-adv-x="1032" 
d="M328 778l-269 271l183 184l268 -270l270 270l185 -184l-271 -271l271 -268l-185 -184l-270 268l-268 -268l-183 184z" />
    <glyph glyph-name="Oslash" unicode="&#xd8;" horiz-adv-x="1732" 
d="M864 -29q-128 0 -229 32t-197 95l-131 -147l-160 141l132 148q-91 103 -141 234t-50 276q0 214 95 390.5t273.5 282t407.5 105.5q131 0 234 -33t202 -100l130 145l159 -141l-131 -148q184 -219 184 -501q0 -160 -56 -303t-155.5 -248t-246.5 -166.5t-320 -61.5zM864 1260
q-132 0 -246 -71t-179.5 -188.5t-65.5 -250.5q0 -163 94 -297l647 733q-122 74 -250 74zM864 238q133 0 247 71t179.5 189t65.5 252q0 152 -88 286l-647 -731q112 -67 243 -67z" />
    <glyph glyph-name="Ugrave" unicode="&#xd9;" horiz-adv-x="1613" 
d="M807 -27q-292 0 -467.5 172t-175.5 459v895h287v-895q0 -86 24.5 -154.5t62 -109.5t87 -68t94 -37t88.5 -10t88.5 10t94 37t87 68t62 109.5t24.5 154.5v895h287v-895q0 -287 -175 -459t-468 -172zM723 1901l240 -310h-201l-275 207z" />
    <glyph glyph-name="Uacute" unicode="&#xda;" horiz-adv-x="1613" 
d="M807 -27q293 0 468 172t175 459v895h-287v-895q0 -86 -24.5 -154.5t-62 -109.5t-87 -68t-94 -37t-88.5 -10t-88.5 10t-94 37t-87 68t-62 109.5t-24.5 154.5v895h-287v-895q0 -287 175.5 -459t467.5 -172zM647 1591l240 310l237 -103l-274 -207h-203z" />
    <glyph glyph-name="Ucircumflex" unicode="&#xdb;" horiz-adv-x="1613" 
d="M807 -27q293 0 468 172t175 459v895h-287v-895q0 -86 -24.5 -154.5t-62 -109.5t-87 -68t-94 -37t-88.5 -10t-88.5 10t-94 37t-87 68t-62 109.5t-24.5 154.5v895h-287v-895q0 -287 175.5 -459t467.5 -172zM438 1573l250 315h240l252 -315h-230l-145 145l-137 -145h-230z
" />
    <glyph glyph-name="Udieresis" unicode="&#xdc;" horiz-adv-x="1613" 
d="M807 -27q-292 0 -467.5 172t-175.5 459v895h287v-895q0 -86 24.5 -154.5t62 -109.5t87 -68t94 -37t88.5 -10t88.5 10t94 37t87 68t62 109.5t24.5 154.5v895h287v-895q0 -287 -175 -459t-468 -172zM459 1706q0 59 40.5 99t100.5 40q58 0 97.5 -40t39.5 -99
q0 -58 -39.5 -97.5t-97.5 -39.5q-60 0 -100.5 39.5t-40.5 97.5zM877 1706q0 59 39.5 99t99.5 40q58 0 98.5 -40.5t40.5 -98.5t-40 -97.5t-99 -39.5q-60 0 -99.5 39t-39.5 98z" />
    <glyph glyph-name="Yacute" unicode="&#xdd;" horiz-adv-x="1452" 
d="M1108 1499h334l-572 -932v-567h-286v567l-568 932h334l377 -637zM526 1591l240 310l238 -103l-275 -207h-203z" />
    <glyph glyph-name="Thorn" unicode="&#xde;" horiz-adv-x="1456" 
d="M831 1282q144 0 267 -71.5t194.5 -194t71.5 -266.5q0 -108 -42.5 -206.5t-114 -170t-170 -114t-206.5 -42.5h-380v-217h-287v1499h287v-217h380zM831 473q99 0 172.5 86.5t73.5 190.5t-73.5 190t-172.5 86h-380v-553h380z" />
    <glyph glyph-name="germandbls" unicode="&#xdf;" horiz-adv-x="2760" 
d="M106 199l144 217q84 -68 227.5 -124t265.5 -56q150 0 218.5 50.5t68.5 127.5q0 30 -10.5 54.5t-25 42.5t-43 34t-52 25.5t-65.5 20.5t-68.5 16.5t-75.5 15.5q-10 2 -31 6q-43 8 -68 13.5t-74.5 18t-81 24t-77.5 32.5t-76 43t-64 55t-53.5 70t-32.5 86t-13 104
q0 101 35.5 181t92 129t133 80.5t152 44t156.5 12.5q176 0 304 -48.5t255 -144.5l-157 -217q-209 143 -433 143q-46 0 -87.5 -7.5t-80 -24t-61 -47t-22.5 -72.5q0 -20 4.5 -38t17 -33t23 -27.5t33 -24t36.5 -19.5t44 -17.5t44.5 -14t49.5 -12.5t47 -10.5t49 -10.5
q16 -3 58.5 -11t69.5 -13.5t72.5 -17t76 -23.5t71.5 -32t69 -43t58 -56.5t47.5 -71.5t29 -89t11.5 -110q0 -225 -153.5 -342t-415.5 -117q-111 0 -206 17.5t-175 54t-135 70t-126 86.5zM1473 199l143 217q84 -68 227.5 -124t265.5 -56q150 0 218.5 50.5t68.5 127.5
q0 30 -10.5 54.5t-25 42.5t-43 34t-52 25.5t-65.5 20.5t-68.5 16.5t-75.5 15.5q-10 2 -31 6q-43 8 -68 13.5t-74.5 18t-81 24t-77.5 32.5t-76 43t-64 55t-53.5 70t-32.5 86t-13 104q0 101 35.5 181t92 129t133 80.5t152 44t156.5 12.5q176 0 304 -48.5t255 -144.5l-157 -217
q-209 143 -433 143q-46 0 -87.5 -7.5t-80 -24t-61 -47t-22.5 -72.5q0 -20 4.5 -38t17 -33t23 -27.5t33 -24t36.5 -19.5t44 -17.5t44.5 -14t49.5 -12.5t47 -10.5t49 -10.5q16 -3 58.5 -11t69.5 -13.5t72.5 -17t76 -23.5t71.5 -32t69 -43t58 -56.5t47.5 -71.5t29 -89
t11.5 -110q0 -225 -153.5 -342t-415.5 -117q-111 0 -206 17.5t-174.5 54t-134.5 70t-126 86.5z" />
    <glyph glyph-name="agrave" unicode="&#xe0;" 
d="M324 0h-312l766 1499h29l766 -1499h-311l-117 236h-707zM793 938l-215 -453h428zM647 1901l240 -310h-201l-274 207z" />
    <glyph glyph-name="aacute" unicode="&#xe1;" 
d="M324 0h-312l766 1499h29l766 -1499h-311l-117 236h-707zM793 938l-215 -453h428zM690 1591l240 310l237 -103l-274 -207h-203z" />
    <glyph glyph-name="acircumflex" unicode="&#xe2;" 
d="M324 0h-312l766 1499h29l766 -1499h-311l-117 236h-707zM793 938l-215 -453h428zM422 1573l250 315h239l252 -315h-229l-146 145l-137 -145h-229z" />
    <glyph glyph-name="atilde" unicode="&#xe3;" 
d="M324 0h-312l766 1499h29l766 -1499h-311l-117 236h-707zM793 938l-215 -453h428zM944 1554q-47 0 -85 14t-62.5 34t-46 40t-46.5 34t-53 14q-21 0 -39 -11.5t-29 -28t-19 -33.5t-12 -29l-3 -11l-166 47q10 38 29 77t49 78.5t77 65.5t101 27q48 1 87 -13t64.5 -34
t47.5 -40t46.5 -34t51.5 -14q29 0 54 23.5t36 47.5l10 23l164 -59q-34 -95 -101.5 -156.5t-154.5 -61.5z" />
    <glyph glyph-name="adieresis" unicode="&#xe4;" 
d="M324 0h-312l766 1499h29l766 -1499h-311l-117 236h-707zM793 938l-215 -453h428zM444 1706q0 59 41 99t101 40q58 0 97.5 -40t39.5 -99q0 -58 -39.5 -97.5t-97.5 -39.5q-60 0 -101 39.5t-41 97.5zM862 1706q0 59 39.5 99t99.5 40q59 0 99.5 -40.5t40.5 -98.5t-40.5 -97.5
t-99.5 -39.5q-60 0 -99.5 39t-39.5 98z" />
    <glyph glyph-name="aring" unicode="&#xe5;" 
d="M324 0h-312l736 1440q-76 15 -125.5 75.5t-49.5 141.5q0 91 65 155t157 64q91 0 155 -64t64 -155q0 -81 -51 -142t-127 -75l737 -1440h-311l-117 236h-707zM793 938l-215 -453h428zM795 1739q-35 0 -59.5 -24t-24.5 -58q0 -35 24.5 -59.5t59.5 -24.5q34 0 58 24.5
t24 59.5q0 34 -24 58t-58 24z" />
    <glyph glyph-name="ae" unicode="&#xe6;" horiz-adv-x="2174" 
d="M2042 1243h-817v-371h725v-262h-725v-350h817v-260h-1104v252h-473l-166 -252h-324l990 1501h1077v-258zM938 506v485l-307 -485h307z" />
    <glyph glyph-name="ccedilla" unicode="&#xe7;" horiz-adv-x="1593" 
d="M1268 1018q-60 107 -167.5 173t-242.5 66q-133 0 -245.5 -68.5t-178 -186t-65.5 -254.5q0 -139 65.5 -256.5t178 -185.5t245.5 -68q142 0 245 65t165 172l268 -108q-80 -170 -245.5 -277t-383.5 -117l-28 -63q38 10 82 -6q113 -39 104 -164q-2 -34 -13 -62t-25.5 -45.5
t-36 -30t-39 -18.5t-39.5 -9.5t-32.5 -4t-23.5 -0.5q-50 1 -92.5 15t-59.5 28l-18 14l51 101q2 -4 12 -11t39 -15t68 -7q26 0 45 15.5t19 41.5q0 45 -68 45q-26 -2 -53 -8.5t-41 -12.5l-13 -5l-28 47l61 157q-145 14 -273.5 79t-221.5 166t-147 238.5t-54 289.5
q0 160 61.5 304.5t165.5 247.5t247.5 163.5t301.5 60.5q238 0 415.5 -112.5t262.5 -285.5z" />
    <glyph glyph-name="egrave" unicode="&#xe8;" horiz-adv-x="1398" 
d="M1266 1245h-817v-375h725v-254h-725v-362h817v-254h-1102v1499h1102v-254zM647 1901l240 -310h-201l-274 207z" />
    <glyph glyph-name="eacute" unicode="&#xe9;" horiz-adv-x="1398" 
d="M1266 1245h-817v-375h725v-254h-725v-362h817v-254h-1102v1499h1102v-254zM522 1591l240 310l237 -103l-274 -207h-203z" />
    <glyph glyph-name="ecircumflex" unicode="&#xea;" horiz-adv-x="1398" 
d="M1266 1245h-817v-375h725v-254h-725v-362h817v-254h-1102v1499h1102v-254zM350 1573l250 315h240l252 -315h-230l-145 145l-137 -145h-230z" />
    <glyph glyph-name="edieresis" unicode="&#xeb;" horiz-adv-x="1398" 
d="M1266 1245h-817v-375h725v-254h-725v-362h817v-254h-1102v1499h1102v-254zM373 1706q0 59 40.5 99t100.5 40q58 0 97.5 -40t39.5 -99q0 -58 -39.5 -97.5t-97.5 -39.5q-60 0 -100.5 39.5t-40.5 97.5zM791 1706q0 59 39.5 99t99.5 40q58 0 98.5 -40.5t40.5 -98.5t-40 -97.5
t-99 -39.5q-60 0 -99.5 39t-39.5 98z" />
    <glyph glyph-name="igrave" unicode="&#xec;" horiz-adv-x="655" 
d="M471 1499v-1499h-287v1499h287zM233 1901l240 -310h-201l-274 207z" />
    <glyph glyph-name="iacute" unicode="&#xed;" horiz-adv-x="655" 
d="M471 0v1499h-287v-1499h287zM182 1591l240 310l237 -103l-274 -207h-203z" />
    <glyph glyph-name="icircumflex" unicode="&#xee;" horiz-adv-x="655" 
d="M471 0v1499h-287v-1499h287zM-45 1573l250 315h239l252 -315h-229l-145 145l-138 -145h-229z" />
    <glyph glyph-name="idieresis" unicode="&#xef;" horiz-adv-x="655" 
d="M471 1499v-1499h-287v1499h287zM-18 1706q0 59 40.5 99t100.5 40q58 0 97.5 -40t39.5 -99q0 -58 -39 -97.5t-98 -39.5q-60 0 -100.5 39.5t-40.5 97.5zM399 1706q0 59 40 99t100 40q59 0 99 -40.5t40 -98.5t-40 -97.5t-99 -39.5q-60 0 -100 39t-40 98z" />
    <glyph glyph-name="eth" unicode="&#xf0;" horiz-adv-x="1609" 
d="M59 616v252h105v631h592q357 0 554 -200.5t197 -548.5q0 -349 -195 -549.5t-556 -200.5h-592v616h-105zM451 616v-358h305q463 0 463 490q0 493 -463 493h-305v-373h319v-252h-319z" />
    <glyph glyph-name="ntilde" unicode="&#xf1;" horiz-adv-x="1630" 
d="M1466 0h-30l-987 891v-891h-285v1499h31l985 -907v907h286v-1499zM965 1554q-47 0 -85 14t-62.5 34t-46 40t-46.5 34t-53 14q-33 0 -58.5 -28t-35.5 -56l-9 -29l-166 47q10 38 29 77t49 78.5t77 65.5t101 27q48 1 87 -13t64.5 -34t47.5 -40t46.5 -34t51.5 -14
q29 0 54.5 23.5t35.5 47.5l11 23l164 -59q-34 -95 -101.5 -156.5t-154.5 -61.5z" />
    <glyph glyph-name="ograve" unicode="&#xf2;" horiz-adv-x="1732" 
d="M864 -29q-172 0 -318.5 61.5t-246 166.5t-155.5 248t-56 303q0 214 95 390.5t273.5 282t407.5 105.5q173 0 320 -61.5t246.5 -167t155.5 -247.5t56 -302t-56 -303t-155.5 -248t-246.5 -166.5t-320 -61.5zM864 1260q-132 0 -246 -71t-179.5 -188.5t-65.5 -250.5
q0 -134 66 -252t179.5 -189t245.5 -71q133 0 247 71t179.5 189t65.5 252q0 133 -65.5 250.5t-179.5 188.5t-247 71zM788 1901l240 -310h-201l-274 207z" />
    <glyph glyph-name="oacute" unicode="&#xf3;" horiz-adv-x="1732" 
d="M864 -29q173 0 320 61.5t246.5 166.5t155.5 248t56 303t-56 302t-155.5 247.5t-246.5 167t-320 61.5q-229 0 -407.5 -105.5t-273.5 -282t-95 -390.5q0 -160 56 -303t155.5 -248t246 -166.5t318.5 -61.5zM864 1260q133 0 247 -71t179.5 -188.5t65.5 -250.5
q0 -134 -65.5 -252t-179.5 -189t-247 -71q-132 0 -245.5 71t-179.5 189t-66 252q0 133 65.5 250.5t179.5 188.5t246 71zM682 1591l240 310l237 -103l-274 -207h-203z" />
    <glyph glyph-name="ocircumflex" unicode="&#xf4;" horiz-adv-x="1732" 
d="M864 -29q173 0 320 61.5t246.5 166.5t155.5 248t56 303t-56 302t-155.5 247.5t-246.5 167t-320 61.5q-229 0 -407.5 -105.5t-273.5 -282t-95 -390.5q0 -160 56 -303t155.5 -248t246 -166.5t318.5 -61.5zM864 1260q133 0 247 -71t179.5 -188.5t65.5 -250.5
q0 -134 -65.5 -252t-179.5 -189t-247 -71q-132 0 -245.5 71t-179.5 189t-66 252q0 133 65.5 250.5t179.5 188.5t246 71zM496 1573l249 315h240l252 -315h-229l-146 145l-137 -145h-229z" />
    <glyph glyph-name="otilde" unicode="&#xf5;" horiz-adv-x="1732" 
d="M864 -29q-172 0 -318.5 61.5t-246 166.5t-155.5 248t-56 303q0 214 95 390.5t273.5 282t407.5 105.5q173 0 320 -61.5t246.5 -167t155.5 -247.5t56 -302t-56 -303t-155.5 -248t-246.5 -166.5t-320 -61.5zM864 1260q-132 0 -246 -71t-179.5 -188.5t-65.5 -250.5
q0 -134 66 -252t179.5 -189t245.5 -71q133 0 247 71t179.5 189t65.5 252q0 133 -65.5 250.5t-179.5 188.5t-247 71zM1018 1554q-47 0 -85 14t-62.5 34t-46 40t-46.5 34t-53 14q-21 0 -39 -11.5t-29 -28t-19 -33.5t-12 -29l-3 -11l-166 47q10 38 29 77t49 78.5t77 65.5
t101 27q48 1 87 -13t64.5 -34t47.5 -40t46.5 -34t51.5 -14q29 0 54 23.5t36 47.5l10 23l164 -59q-34 -95 -101.5 -156.5t-154.5 -61.5z" />
    <glyph glyph-name="odieresis" unicode="&#xf6;" horiz-adv-x="1732" 
d="M864 -29q-172 0 -318.5 61.5t-246 166.5t-155.5 248t-56 303q0 214 95 390.5t273.5 282t407.5 105.5q173 0 320 -61.5t246.5 -167t155.5 -247.5t56 -302t-56 -303t-155.5 -248t-246.5 -166.5t-320 -61.5zM864 1260q-132 0 -246 -71t-179.5 -188.5t-65.5 -250.5
q0 -134 66 -252t179.5 -189t245.5 -71q133 0 247 71t179.5 189t65.5 252q0 133 -65.5 250.5t-179.5 188.5t-247 71zM514 1706q0 59 40.5 99t100.5 40q58 0 98 -40t40 -99q0 -58 -39.5 -97.5t-98.5 -39.5q-60 0 -100.5 39.5t-40.5 97.5zM932 1706q0 59 39.5 99t99.5 40
q59 0 99 -40.5t40 -98.5t-40 -97.5t-99 -39.5q-60 0 -99.5 39t-39.5 98z" />
    <glyph glyph-name="divide" unicode="&#xf7;" horiz-adv-x="1253" 
d="M1151 887v-252h-1053v252h1053zM768 1237q0 -59 -41.5 -101t-101.5 -42t-102 42t-42 101q0 60 42 101.5t102 41.5t101.5 -41.5t41.5 -101.5zM768 289q0 -60 -41.5 -102t-101.5 -42t-102 42t-42 102q0 59 42 100t102 41t101.5 -41t41.5 -100z" />
    <glyph glyph-name="oslash" unicode="&#xf8;" horiz-adv-x="1732" 
d="M864 -29q-128 0 -229 32t-197 95l-131 -147l-160 141l132 148q-91 103 -141 234t-50 276q0 214 95 390.5t273.5 282t407.5 105.5q131 0 234 -33t202 -100l130 145l159 -141l-131 -148q184 -219 184 -501q0 -160 -56 -303t-155.5 -248t-246.5 -166.5t-320 -61.5zM864 1260
q-132 0 -246 -71t-179.5 -188.5t-65.5 -250.5q0 -163 94 -297l647 733q-122 74 -250 74zM864 238q133 0 247 71t179.5 189t65.5 252q0 152 -88 286l-647 -731q112 -67 243 -67z" />
    <glyph glyph-name="ugrave" unicode="&#xf9;" horiz-adv-x="1613" 
d="M807 -27q-292 0 -467.5 172t-175.5 459v895h287v-895q0 -86 24.5 -154.5t62 -109.5t87 -68t94 -37t88.5 -10t88.5 10t94 37t87 68t62 109.5t24.5 154.5v895h287v-895q0 -287 -175 -459t-468 -172zM723 1901l240 -310h-201l-275 207z" />
    <glyph glyph-name="uacute" unicode="&#xfa;" horiz-adv-x="1613" 
d="M807 -27q293 0 468 172t175 459v895h-287v-895q0 -86 -24.5 -154.5t-62 -109.5t-87 -68t-94 -37t-88.5 -10t-88.5 10t-94 37t-87 68t-62 109.5t-24.5 154.5v895h-287v-895q0 -287 175.5 -459t467.5 -172zM647 1591l240 310l237 -103l-274 -207h-203z" />
    <glyph glyph-name="ucircumflex" unicode="&#xfb;" horiz-adv-x="1613" 
d="M807 -27q293 0 468 172t175 459v895h-287v-895q0 -86 -24.5 -154.5t-62 -109.5t-87 -68t-94 -37t-88.5 -10t-88.5 10t-94 37t-87 68t-62 109.5t-24.5 154.5v895h-287v-895q0 -287 175.5 -459t467.5 -172zM438 1573l250 315h240l252 -315h-230l-145 145l-137 -145h-230z
" />
    <glyph glyph-name="udieresis" unicode="&#xfc;" horiz-adv-x="1613" 
d="M807 -27q-292 0 -467.5 172t-175.5 459v895h287v-895q0 -86 24.5 -154.5t62 -109.5t87 -68t94 -37t88.5 -10t88.5 10t94 37t87 68t62 109.5t24.5 154.5v895h287v-895q0 -287 -175 -459t-468 -172zM459 1706q0 59 40.5 99t100.5 40q58 0 97.5 -40t39.5 -99
q0 -58 -39.5 -97.5t-97.5 -39.5q-60 0 -100.5 39.5t-40.5 97.5zM877 1706q0 59 39.5 99t99.5 40q58 0 98.5 -40.5t40.5 -98.5t-40 -97.5t-99 -39.5q-60 0 -99.5 39t-39.5 98z" />
    <glyph glyph-name="yacute" unicode="&#xfd;" horiz-adv-x="1452" 
d="M1108 1499h334l-572 -932v-567h-286v567l-568 932h334l377 -637zM526 1591l240 310l238 -103l-275 -207h-203z" />
    <glyph glyph-name="thorn" unicode="&#xfe;" horiz-adv-x="1456" 
d="M831 1282q144 0 267 -71.5t194.5 -194t71.5 -266.5q0 -108 -42.5 -206.5t-114 -170t-170 -114t-206.5 -42.5h-380v-217h-287v1499h287v-217h380zM831 473q99 0 172.5 86.5t73.5 190.5t-73.5 190t-172.5 86h-380v-553h380z" />
    <glyph glyph-name="ydieresis" unicode="&#xff;" horiz-adv-x="1452" 
d="M1108 1499h334l-572 -932v-567h-286v567l-568 932h334l377 -637zM381 1714q0 59 40.5 99t100.5 40q58 0 97.5 -40t39.5 -99q0 -58 -39.5 -97.5t-97.5 -39.5q-60 0 -100.5 39.5t-40.5 97.5zM799 1714q0 59 39.5 99t99.5 40q58 0 98.5 -40.5t40.5 -98.5t-40 -97.5
t-99 -39.5q-60 0 -99.5 39t-39.5 98z" />
    <glyph glyph-name="Amacron" unicode="&#x100;" 
d="M324 0h-312l766 1499h29l766 -1499h-311l-117 236h-707zM793 938l-215 -453h428zM1106 1786v-189h-631v189h631z" />
    <glyph glyph-name="amacron" unicode="&#x101;" 
d="M324 0h-312l766 1499h29l766 -1499h-311l-117 236h-707zM793 938l-215 -453h428zM1106 1786v-189h-631v189h631z" />
    <glyph glyph-name="Abreve" unicode="&#x102;" 
d="M324 0h-312l766 1499h29l766 -1499h-311l-117 236h-707zM793 938l-215 -453h428zM983 1884h186q-22 -142 -124 -227.5t-252 -85.5q-148 0 -250.5 86.5t-124.5 226.5h186q19 -67 71.5 -99t119.5 -32q146 0 188 131z" />
    <glyph glyph-name="abreve" unicode="&#x103;" 
d="M324 0h-312l766 1499h29l766 -1499h-311l-117 236h-707zM793 938l-215 -453h428zM983 1884h186q-22 -142 -124 -227.5t-252 -85.5q-148 0 -250.5 86.5t-124.5 226.5h186q19 -67 71.5 -99t119.5 -32q146 0 188 131z" />
    <glyph glyph-name="Aogonek" unicode="&#x104;" 
d="M324 0h-312l766 1499h29l766 -1499h-39q-64 0 -99.5 -29t-35.5 -75q0 -45 27 -73t75 -28q61 0 105 25l75 -168q-71 -39 -174 -39q-134 0 -208 68.5t-74 177.5q0 64 37 141l-117 236h-707zM793 938l-215 -453h428z" />
    <glyph glyph-name="aogonek" unicode="&#x105;" 
d="M324 0h-312l766 1499h29l766 -1499h-39q-64 0 -99.5 -29t-35.5 -75q0 -45 27 -73t75 -28q61 0 105 25l75 -168q-71 -39 -174 -39q-134 0 -208 68.5t-74 177.5q0 64 37 141l-117 236h-707zM793 938l-215 -453h428z" />
    <glyph glyph-name="Cacute" unicode="&#x106;" horiz-adv-x="1593" 
d="M1268 1018q-60 107 -167.5 173t-242.5 66q-133 0 -245.5 -68.5t-178 -186t-65.5 -254.5q0 -139 65.5 -256.5t178 -185.5t245.5 -68q142 0 245 65t165 172l268 -108q-86 -180 -264.5 -288t-413.5 -108q-158 0 -301.5 60t-247.5 163t-165.5 247.5t-61.5 306.5
q0 160 61.5 304.5t165.5 247.5t247.5 163.5t301.5 60.5q238 0 415.5 -112.5t262.5 -285.5zM664 1591l239 310l238 -103l-275 -207h-202z" />
    <glyph glyph-name="cacute" unicode="&#x107;" horiz-adv-x="1593" 
d="M1268 1018q-60 107 -167.5 173t-242.5 66q-133 0 -245.5 -68.5t-178 -186t-65.5 -254.5q0 -139 65.5 -256.5t178 -185.5t245.5 -68q142 0 245 65t165 172l268 -108q-86 -180 -264.5 -288t-413.5 -108q-158 0 -301.5 60t-247.5 163t-165.5 247.5t-61.5 306.5
q0 160 61.5 304.5t165.5 247.5t247.5 163.5t301.5 60.5q238 0 415.5 -112.5t262.5 -285.5zM664 1591l239 310l238 -103l-275 -207h-202z" />
    <glyph glyph-name="Ccaron" unicode="&#x10c;" horiz-adv-x="1593" 
d="M1268 1018q-60 107 -167.5 173t-242.5 66q-133 0 -245.5 -68.5t-178 -186t-65.5 -254.5q0 -139 65.5 -256.5t178 -185.5t245.5 -68q142 0 245 65t165 172l268 -108q-86 -180 -264.5 -288t-413.5 -108q-158 0 -301.5 60t-247.5 163t-165.5 247.5t-61.5 306.5
q0 160 61.5 304.5t165.5 247.5t247.5 163.5t301.5 60.5q238 0 415.5 -112.5t262.5 -285.5zM1200 1888l-250 -315h-239l-252 315h229l141 -143l142 143h229z" />
    <glyph glyph-name="ccaron" unicode="&#x10d;" horiz-adv-x="1593" 
d="M1268 1018q-60 107 -167.5 173t-242.5 66q-133 0 -245.5 -68.5t-178 -186t-65.5 -254.5q0 -139 65.5 -256.5t178 -185.5t245.5 -68q142 0 245 65t165 172l268 -108q-86 -180 -264.5 -288t-413.5 -108q-158 0 -301.5 60t-247.5 163t-165.5 247.5t-61.5 306.5
q0 160 61.5 304.5t165.5 247.5t247.5 163.5t301.5 60.5q238 0 415.5 -112.5t262.5 -285.5zM1200 1888l-250 -315h-239l-252 315h229l141 -143l142 143h229z" />
    <glyph glyph-name="Dcaron" unicode="&#x10e;" horiz-adv-x="1609" 
d="M756 0q361 0 556 200.5t195 549.5q0 348 -197 548.5t-554 200.5h-592v-1499h592zM451 258v983h305q463 0 463 -493q0 -490 -463 -490h-305zM1124 1888l-250 -315h-239l-252 315h229l142 -143l141 143h229z" />
    <glyph glyph-name="dcaron" unicode="&#x10f;" horiz-adv-x="1609" 
d="M756 0q361 0 556 200.5t195 549.5q0 348 -197 548.5t-554 200.5h-592v-1499h592zM451 258v983h305q463 0 463 -493q0 -490 -463 -490h-305zM1124 1888l-250 -315h-239l-252 315h229l142 -143l141 143h229z" />
    <glyph glyph-name="Dcroat" unicode="&#x110;" horiz-adv-x="1609" 
d="M59 616v252h105v631h592q357 0 554 -200.5t197 -548.5q0 -349 -195 -549.5t-556 -200.5h-592v616h-105zM451 616v-358h305q463 0 463 490q0 493 -463 493h-305v-373h319v-252h-319z" />
    <glyph glyph-name="dcroat" unicode="&#x111;" horiz-adv-x="1609" 
d="M59 616v252h105v631h592q357 0 554 -200.5t197 -548.5q0 -349 -195 -549.5t-556 -200.5h-592v616h-105zM451 616v-358h305q463 0 463 490q0 493 -463 493h-305v-373h319v-252h-319z" />
    <glyph glyph-name="Emacron" unicode="&#x112;" horiz-adv-x="1398" 
d="M1266 1245h-817v-375h725v-254h-725v-362h817v-254h-1102v1499h1102v-254zM1034 1786v-189h-631v189h631z" />
    <glyph glyph-name="emacron" unicode="&#x113;" horiz-adv-x="1398" 
d="M1266 1245h-817v-375h725v-254h-725v-362h817v-254h-1102v1499h1102v-254zM1034 1786v-189h-631v189h631z" />
    <glyph glyph-name="Edotaccent" unicode="&#x116;" horiz-adv-x="1398" 
d="M1266 1245h-817v-375h725v-254h-725v-362h817v-254h-1102v1499h1102v-254zM584 1729q0 59 40.5 99t100.5 40q58 0 97.5 -40t39.5 -99t-39.5 -98.5t-97.5 -39.5q-60 0 -100.5 39.5t-40.5 98.5z" />
    <glyph glyph-name="edotaccent" unicode="&#x117;" horiz-adv-x="1398" 
d="M1266 1245h-817v-375h725v-254h-725v-362h817v-254h-1102v1499h1102v-254zM584 1729q0 59 40.5 99t100.5 40q58 0 97.5 -40t39.5 -99t-39.5 -98.5t-97.5 -39.5q-60 0 -100.5 39.5t-40.5 98.5z" />
    <glyph glyph-name="Eogonek" unicode="&#x118;" horiz-adv-x="1398" 
d="M1266 1245h-817v-375h725v-254h-725v-362h817v-254h-109q-60 0 -95.5 -31t-35.5 -82q0 -41 25 -66.5t71 -25.5q30 0 61.5 8.5t45.5 16.5l76 -168q-79 -41 -195 -41q-69 0 -125.5 23t-91 62.5t-51 88.5t-8.5 105.5t40 109.5h-710v1499h1102v-254z" />
    <glyph glyph-name="eogonek" unicode="&#x119;" horiz-adv-x="1398" 
d="M1266 1245h-817v-375h725v-254h-725v-362h817v-254h-109q-60 0 -95.5 -31t-35.5 -82q0 -41 25 -66.5t71 -25.5q30 0 61.5 8.5t45.5 16.5l76 -168q-79 -41 -195 -41q-69 0 -125.5 23t-91 62.5t-51 88.5t-8.5 105.5t40 109.5h-710v1499h1102v-254z" />
    <glyph glyph-name="Ecaron" unicode="&#x11a;" horiz-adv-x="1398" 
d="M1266 1245h-817v-375h725v-254h-725v-362h817v-254h-1102v1499h1102v-254zM1098 1888l-250 -315h-240l-252 315h230l141 -143l141 143h230z" />
    <glyph glyph-name="ecaron" unicode="&#x11b;" horiz-adv-x="1398" 
d="M1266 1245h-817v-375h725v-254h-725v-362h817v-254h-1102v1499h1102v-254zM1098 1888l-250 -315h-240l-252 315h230l141 -143l141 143h230z" />
    <glyph glyph-name="Gbreve" unicode="&#x11e;" horiz-adv-x="1695" 
d="M754 819h858q6 -119 0 -192q-12 -143 -70 -264t-152.5 -207.5t-226.5 -135.5t-286 -49q-219 0 -402 104.5t-288 283t-105 389.5q0 158 61.5 302t165.5 248t247.5 166t301.5 62q198 0 368.5 -93.5t276.5 -252.5l-241 -150q-69 100 -177.5 163.5t-226.5 63.5
q-132 0 -245.5 -70.5t-179.5 -188t-66 -250.5q0 -100 39.5 -193.5t107.5 -163t165 -111.5t206 -42q170 0 286.5 92.5t135.5 230.5h-553v258zM1047 1884h186q-22 -142 -124.5 -227.5t-252.5 -85.5q-148 0 -250.5 86.5t-124.5 226.5h187q19 -67 71.5 -99t118.5 -32
q147 0 189 131z" />
    <glyph glyph-name="gbreve" unicode="&#x11f;" horiz-adv-x="1695" 
d="M754 819h858q6 -119 0 -192q-12 -143 -70 -264t-152.5 -207.5t-226.5 -135.5t-286 -49q-219 0 -402 104.5t-288 283t-105 389.5q0 158 61.5 302t165.5 248t247.5 166t301.5 62q198 0 368.5 -93.5t276.5 -252.5l-241 -150q-69 100 -177.5 163.5t-226.5 63.5
q-132 0 -245.5 -70.5t-179.5 -188t-66 -250.5q0 -100 39.5 -193.5t107.5 -163t165 -111.5t206 -42q170 0 286.5 92.5t135.5 230.5h-553v258zM1047 1884h186q-22 -142 -124.5 -227.5t-252.5 -85.5q-148 0 -250.5 86.5t-124.5 226.5h187q19 -67 71.5 -99t118.5 -32
q147 0 189 131z" />
    <glyph glyph-name="uni0122" unicode="&#x122;" horiz-adv-x="1695" 
d="M754 819h858q6 -119 0 -192q-12 -143 -70 -264t-152.5 -207.5t-226.5 -135.5t-286 -49q-219 0 -402 104.5t-288 283t-105 389.5q0 158 61.5 302t165.5 248t247.5 166t301.5 62q198 0 368.5 -93.5t276.5 -252.5l-241 -150q-69 100 -177.5 163.5t-226.5 63.5
q-132 0 -245.5 -70.5t-179.5 -188t-66 -250.5q0 -100 39.5 -193.5t107.5 -163t165 -111.5t206 -42q170 0 286.5 92.5t135.5 230.5h-553v258zM1022 -203q21 -80 -3.5 -165t-91 -151t-159.5 -87l-35 74q125 42 141 153q-63 -3 -108 39t-47 104q-3 63 38.5 109t104.5 49
q58 2 102.5 -32.5t57.5 -92.5z" />
    <glyph glyph-name="uni0123" unicode="&#x123;" horiz-adv-x="1695" 
d="M754 819h858q6 -119 0 -192q-12 -143 -70 -264t-152.5 -207.5t-226.5 -135.5t-286 -49q-219 0 -402 104.5t-288 283t-105 389.5q0 158 61.5 302t165.5 248t247.5 166t301.5 62q198 0 368.5 -93.5t276.5 -252.5l-241 -150q-69 100 -177.5 163.5t-226.5 63.5
q-132 0 -245.5 -70.5t-179.5 -188t-66 -250.5q0 -100 39.5 -193.5t107.5 -163t165 -111.5t206 -42q170 0 286.5 92.5t135.5 230.5h-553v258zM1022 -203q21 -80 -3.5 -165t-91 -151t-159.5 -87l-35 74q125 42 141 153q-63 -3 -108 39t-47 104q-3 63 38.5 109t104.5 49
q58 2 102.5 -32.5t57.5 -92.5z" />
    <glyph glyph-name="Imacron" unicode="&#x12a;" horiz-adv-x="655" 
d="M471 1499v-1499h-287v1499h287zM645 1786v-189h-631v189h631z" />
    <glyph glyph-name="imacron" unicode="&#x12b;" horiz-adv-x="655" 
d="M471 1499v-1499h-287v1499h287zM645 1786v-189h-631v189h631z" />
    <glyph glyph-name="Iogonek" unicode="&#x12e;" horiz-adv-x="655" 
d="M420 -387q-92 0 -158.5 42.5t-97.5 111.5q-25 53 -20.5 116t40.5 117v1499h287v-1499q-87 0 -119 -57q-22 -45 -7.5 -86.5t52.5 -53.5q26 -10 57.5 -6.5t53 10t35.5 13.5l75 -168q-82 -39 -198 -39z" />
    <glyph glyph-name="iogonek" unicode="&#x12f;" horiz-adv-x="655" 
d="M420 -387q-92 0 -158.5 42.5t-97.5 111.5q-25 53 -20.5 116t40.5 117v1499h287v-1499q-87 0 -119 -57q-22 -45 -7.5 -86.5t52.5 -53.5q26 -10 57.5 -6.5t53 10t35.5 13.5l75 -168q-82 -39 -198 -39z" />
    <glyph glyph-name="Idotaccent" unicode="&#x130;" horiz-adv-x="655" 
d="M471 1499v-1499h-287v1499h287zM188 1726q0 59 41 99.5t101 40.5q58 0 97.5 -40.5t39.5 -99.5q0 -58 -39.5 -97.5t-97.5 -39.5q-60 0 -101 39.5t-41 97.5z" />
    <glyph glyph-name="dotlessi" unicode="&#x131;" horiz-adv-x="655" 
d="M471 1499v-1499h-287v1499h287z" />
    <glyph glyph-name="uni0136" unicode="&#x136;" horiz-adv-x="1478" 
d="M1458 0h-379l-628 682v-682h-287v1499h287v-762l596 762h352l-617 -776zM889 -184q21 -80 -3.5 -165t-91 -151.5t-159.5 -87.5l-35 74q125 42 141 154q-63 -3 -108 39t-47 104q-3 63 38.5 109t104.5 49q58 2 102.5 -32.5t57.5 -92.5z" />
    <glyph glyph-name="uni0137" unicode="&#x137;" horiz-adv-x="1478" 
d="M1458 0h-379l-628 682v-682h-287v1499h287v-762l596 762h352l-617 -776zM889 -184q21 -80 -3.5 -165t-91 -151.5t-159.5 -87.5l-35 74q125 42 141 154q-63 -3 -108 39t-47 104q-3 63 38.5 109t104.5 49q58 2 102.5 -32.5t57.5 -92.5z" />
    <glyph glyph-name="Lacute" unicode="&#x139;" horiz-adv-x="1259" 
d="M451 254h792v-254h-1079v1499h287v-1245zM164 1591l239 310l238 -103l-274 -207h-203z" />
    <glyph glyph-name="lacute" unicode="&#x13a;" horiz-adv-x="1259" 
d="M451 254h792v-254h-1079v1499h287v-1245zM164 1591l239 310l238 -103l-274 -207h-203z" />
    <glyph glyph-name="uni013B" unicode="&#x13b;" horiz-adv-x="1259" 
d="M451 254h792v-254h-1079v1499h287v-1245zM850 -184q21 -80 -3.5 -165t-91 -151.5t-159.5 -87.5l-35 74q125 42 141 154q-63 -3 -108 39t-47 104q-3 63 38.5 109t104.5 49q58 2 102.5 -32.5t57.5 -92.5z" />
    <glyph glyph-name="uni013C" unicode="&#x13c;" horiz-adv-x="1259" 
d="M451 254h792v-254h-1079v1499h287v-1245zM850 -184q21 -80 -3.5 -165t-91 -151.5t-159.5 -87.5l-35 74q125 42 141 154q-63 -3 -108 39t-47 104q-3 63 38.5 109t104.5 49q58 2 102.5 -32.5t57.5 -92.5z" />
    <glyph glyph-name="Lcaron" unicode="&#x13d;" horiz-adv-x="1259" 
d="M451 254h792v-254h-1079v1499h287v-1245zM934 1380q21 -80 -3.5 -165t-91 -151t-159.5 -87l-35 74q125 42 141 153q-63 -3 -108 39.5t-47 104.5q-3 63 38.5 108.5t104.5 48.5q58 2 102.5 -32.5t57.5 -92.5z" />
    <glyph glyph-name="lcaron" unicode="&#x13e;" horiz-adv-x="1259" 
d="M451 254h792v-254h-1079v1499h287v-1245zM934 1380q21 -80 -3.5 -165t-91 -151t-159.5 -87l-35 74q125 42 141 153q-63 -3 -108 39.5t-47 104.5q-3 63 38.5 108.5t104.5 48.5q58 2 102.5 -32.5t57.5 -92.5z" />
    <glyph glyph-name="Lslash" unicode="&#x141;" horiz-adv-x="1323" 
d="M41 662l184 102v735h287v-573l457 258v-281l-457 -258v-391h793v-254h-1080v483l-184 -102v281z" />
    <glyph glyph-name="lslash" unicode="&#x142;" horiz-adv-x="1323" 
d="M41 662l184 102v735h287v-573l457 258v-281l-457 -258v-391h793v-254h-1080v483l-184 -102v281z" />
    <glyph glyph-name="Nacute" unicode="&#x143;" horiz-adv-x="1630" 
d="M1466 0h-30l-987 891v-891h-285v1499h31l985 -907v907h286v-1499zM584 1591l239 310l238 -103l-275 -207h-202z" />
    <glyph glyph-name="nacute" unicode="&#x144;" horiz-adv-x="1630" 
d="M1466 0h-30l-987 891v-891h-285v1499h31l985 -907v907h286v-1499zM584 1591l239 310l238 -103l-275 -207h-202z" />
    <glyph glyph-name="uni0145" unicode="&#x145;" horiz-adv-x="1630" 
d="M1466 0h-30l-987 891v-891h-285v1499h31l985 -907v907h286v-1499zM1001 -184q21 -80 -3 -165t-90.5 -151.5t-159.5 -87.5l-35 74q125 42 141 154q-63 -3 -108.5 39t-47.5 104q-3 63 39 109t105 49q57 2 101.5 -32.5t57.5 -92.5z" />
    <glyph glyph-name="uni0146" unicode="&#x146;" horiz-adv-x="1630" 
d="M1466 0h-30l-987 891v-891h-285v1499h31l985 -907v907h286v-1499zM1001 -184q21 -80 -3 -165t-90.5 -151.5t-159.5 -87.5l-35 74q125 42 141 154q-63 -3 -108.5 39t-47.5 104q-3 63 39 109t105 49q57 2 101.5 -32.5t57.5 -92.5z" />
    <glyph glyph-name="Ncaron" unicode="&#x147;" horiz-adv-x="1630" 
d="M1466 0h-30l-987 891v-891h-285v1499h31l985 -907v907h286v-1499zM1171 1888l-249 -315h-240l-252 315h229l142 -143l141 143h229z" />
    <glyph glyph-name="ncaron" unicode="&#x148;" horiz-adv-x="1630" 
d="M1466 0h-30l-987 891v-891h-285v1499h31l985 -907v907h286v-1499zM1171 1888l-249 -315h-240l-252 315h229l142 -143l141 143h229z" />
    <glyph glyph-name="Omacron" unicode="&#x14c;" horiz-adv-x="1732" 
d="M864 -29q-172 0 -318.5 61.5t-246 166.5t-155.5 248t-56 303q0 214 95 390.5t273.5 282t407.5 105.5q173 0 320 -61.5t246.5 -167t155.5 -247.5t56 -302t-56 -303t-155.5 -248t-246.5 -166.5t-320 -61.5zM864 1260q-132 0 -246 -71t-179.5 -188.5t-65.5 -250.5
q0 -134 66 -252t179.5 -189t245.5 -71q133 0 247 71t179.5 189t65.5 252q0 133 -65.5 250.5t-179.5 188.5t-247 71zM1180 1786v-189h-631v189h631z" />
    <glyph glyph-name="omacron" unicode="&#x14d;" horiz-adv-x="1732" 
d="M864 -29q-172 0 -318.5 61.5t-246 166.5t-155.5 248t-56 303q0 214 95 390.5t273.5 282t407.5 105.5q173 0 320 -61.5t246.5 -167t155.5 -247.5t56 -302t-56 -303t-155.5 -248t-246.5 -166.5t-320 -61.5zM864 1260q-132 0 -246 -71t-179.5 -188.5t-65.5 -250.5
q0 -134 66 -252t179.5 -189t245.5 -71q133 0 247 71t179.5 189t65.5 252q0 133 -65.5 250.5t-179.5 188.5t-247 71zM1180 1786v-189h-631v189h631z" />
    <glyph glyph-name="Ohungarumlaut" unicode="&#x150;" horiz-adv-x="1732" 
d="M864 -29q173 0 320 61.5t246.5 166.5t155.5 248t56 303t-56 302t-155.5 247.5t-246.5 167t-320 61.5q-229 0 -407.5 -105.5t-273.5 -282t-95 -390.5q0 -160 56 -303t155.5 -248t246 -166.5t318.5 -61.5zM864 1260q133 0 247 -71t179.5 -188.5t65.5 -250.5
q0 -134 -65.5 -252t-179.5 -189t-247 -71q-132 0 -245.5 71t-179.5 189t-66 252q0 133 65.5 250.5t179.5 188.5t246 71zM895 1599l240 310l237 -103l-276 -207h-201zM508 1599l240 310l237 -103l-276 -207h-201z" />
    <glyph glyph-name="ohungarumlaut" unicode="&#x151;" horiz-adv-x="1732" 
d="M864 -29q173 0 320 61.5t246.5 166.5t155.5 248t56 303t-56 302t-155.5 247.5t-246.5 167t-320 61.5q-229 0 -407.5 -105.5t-273.5 -282t-95 -390.5q0 -160 56 -303t155.5 -248t246 -166.5t318.5 -61.5zM864 1260q133 0 247 -71t179.5 -188.5t65.5 -250.5
q0 -134 -65.5 -252t-179.5 -189t-247 -71q-132 0 -245.5 71t-179.5 189t-66 252q0 133 65.5 250.5t179.5 188.5t246 71zM895 1599l240 310l237 -103l-276 -207h-201zM508 1599l240 310l237 -103l-276 -207h-201z" />
    <glyph glyph-name="OE" unicode="&#x152;" horiz-adv-x="2375" 
d="M2243 1243h-818v-373h725v-260h-725v-352h818v-258h-1102v23q-136 -52 -275 -52q-158 0 -302.5 62t-248.5 166.5t-165.5 248.5t-61.5 302t61.5 302t165.5 248t248.5 166t302.5 62q142 0 275 -51v22h1102v-256zM866 227q103 0 163 29.5t112 85.5v815q-98 115 -275 115
q-138 0 -248 -58.5t-176.5 -178.5t-66.5 -285q0 -238 140.5 -380.5t350.5 -142.5z" />
    <glyph glyph-name="oe" unicode="&#x153;" horiz-adv-x="2375" 
d="M2243 1243h-818v-373h725v-260h-725v-352h818v-258h-1102v23q-136 -52 -275 -52q-158 0 -302.5 62t-248.5 166.5t-165.5 248.5t-61.5 302t61.5 302t165.5 248t248.5 166t302.5 62q142 0 275 -51v22h1102v-256zM866 227q103 0 163 29.5t112 85.5v815q-98 115 -275 115
q-138 0 -248 -58.5t-176.5 -178.5t-66.5 -285q0 -238 140.5 -380.5t350.5 -142.5z" />
    <glyph glyph-name="Racute" unicode="&#x154;" horiz-adv-x="1474" 
d="M733 477h-284v-477h-285v1499h680q228 0 372 -144t144 -372q0 -171 -86 -306t-225 -173l374 -504h-342zM449 1245v-518h327q70 0 123.5 15t86.5 39t53.5 58.5t28 69.5t7.5 76q0 116 -74 188t-225 72h-327zM530 1591l240 310l238 -103l-275 -207h-203z" />
    <glyph glyph-name="racute" unicode="&#x155;" horiz-adv-x="1474" 
d="M733 477h-284v-477h-285v1499h680q228 0 372 -144t144 -372q0 -171 -86 -306t-225 -173l374 -504h-342zM449 1245v-518h327q70 0 123.5 15t86.5 39t53.5 58.5t28 69.5t7.5 76q0 116 -74 188t-225 72h-327zM530 1591l240 310l238 -103l-275 -207h-203z" />
    <glyph glyph-name="uni0156" unicode="&#x156;" horiz-adv-x="1474" 
d="M733 477h-284v-477h-285v1499h680q228 0 372 -144t144 -372q0 -171 -86 -306t-225 -173l374 -504h-342zM449 1245v-518h327q70 0 123.5 15t86.5 39t53.5 58.5t28 69.5t7.5 76q0 116 -74 188t-225 72h-327zM899 -207q21 -80 -3.5 -165t-91 -151t-159.5 -87l-35 73
q63 21 98.5 61t43.5 93q-63 -3 -108.5 39t-47.5 104q-3 63 38.5 109t104.5 49q58 2 102.5 -32.5t57.5 -92.5z" />
    <glyph glyph-name="uni0157" unicode="&#x157;" horiz-adv-x="1474" 
d="M733 477h-284v-477h-285v1499h680q228 0 372 -144t144 -372q0 -171 -86 -306t-225 -173l374 -504h-342zM449 1245v-518h327q70 0 123.5 15t86.5 39t53.5 58.5t28 69.5t7.5 76q0 116 -74 188t-225 72h-327zM899 -207q21 -80 -3.5 -165t-91 -151t-159.5 -87l-35 73
q63 21 98.5 61t43.5 93q-63 -3 -108.5 39t-47.5 104q-3 63 38.5 109t104.5 49q58 2 102.5 -32.5t57.5 -92.5z" />
    <glyph glyph-name="Rcaron" unicode="&#x158;" horiz-adv-x="1474" 
d="M733 477h-284v-477h-285v1499h680q228 0 372 -144t144 -372q0 -171 -86 -306t-225 -173l374 -504h-342zM449 1245v-518h327q70 0 123.5 15t86.5 39t53.5 58.5t28 69.5t7.5 76q0 116 -74 188t-225 72h-327zM1055 1888l-250 -315h-240l-252 315h230l141 -143l141 143h230z
" />
    <glyph glyph-name="rcaron" unicode="&#x159;" horiz-adv-x="1474" 
d="M733 477h-284v-477h-285v1499h680q228 0 372 -144t144 -372q0 -171 -86 -306t-225 -173l374 -504h-342zM449 1245v-518h327q70 0 123.5 15t86.5 39t53.5 58.5t28 69.5t7.5 76q0 116 -74 188t-225 72h-327zM1055 1888l-250 -315h-240l-252 315h230l141 -143l141 143h230z
" />
    <glyph glyph-name="Sacute" unicode="&#x15a;" horiz-adv-x="1392" 
d="M250 416l-144 -217q71 -53 126 -86.5t135 -70t175 -54t206 -17.5q262 0 415.5 117t153.5 342q0 59 -11.5 110t-29 89t-47.5 71.5t-58 56.5t-69 43t-71.5 32t-76 23.5t-72.5 17t-69.5 13.5t-58.5 11q-37 8 -49 10.5t-47 10.5t-49.5 12.5t-44.5 14t-44 17.5t-36.5 19.5
t-33 24t-23 27.5t-17 33t-4.5 38q0 42 22.5 72.5t61 47t80 24t87.5 7.5q224 0 433 -143l157 217q-127 96 -255 144.5t-304 48.5q-81 0 -156.5 -12.5t-152 -44t-133 -80.5t-92 -129t-35.5 -181q0 -55 13 -104t33 -86t53.5 -70t63.5 -55t75.5 -43t78 -32.5t81 -24t74.5 -18
t68 -13.5q21 -4 31 -6q49 -10 75.5 -15.5t68.5 -16.5t65.5 -20.5t52 -25.5t43 -34t25 -42.5t10.5 -54.5q0 -77 -68.5 -127.5t-218.5 -50.5q-122 0 -265.5 56t-227.5 124zM543 1591l239 310l238 -103l-275 -207h-202z" />
    <glyph glyph-name="sacute" unicode="&#x15b;" horiz-adv-x="1392" 
d="M250 416l-144 -217q71 -53 126 -86.5t135 -70t175 -54t206 -17.5q262 0 415.5 117t153.5 342q0 59 -11.5 110t-29 89t-47.5 71.5t-58 56.5t-69 43t-71.5 32t-76 23.5t-72.5 17t-69.5 13.5t-58.5 11q-37 8 -49 10.5t-47 10.5t-49.5 12.5t-44.5 14t-44 17.5t-36.5 19.5
t-33 24t-23 27.5t-17 33t-4.5 38q0 42 22.5 72.5t61 47t80 24t87.5 7.5q224 0 433 -143l157 217q-127 96 -255 144.5t-304 48.5q-81 0 -156.5 -12.5t-152 -44t-133 -80.5t-92 -129t-35.5 -181q0 -55 13 -104t33 -86t53.5 -70t63.5 -55t75.5 -43t78 -32.5t81 -24t74.5 -18
t68 -13.5q21 -4 31 -6q49 -10 75.5 -15.5t68.5 -16.5t65.5 -20.5t52 -25.5t43 -34t25 -42.5t10.5 -54.5q0 -77 -68.5 -127.5t-218.5 -50.5q-122 0 -265.5 56t-227.5 124zM543 1591l239 310l238 -103l-275 -207h-202z" />
    <glyph glyph-name="Scedilla" unicode="&#x15e;" horiz-adv-x="1392" 
d="M106 199l144 217q84 -68 227.5 -124t265.5 -56q150 0 218.5 50.5t68.5 127.5q0 34 -11.5 61.5t-37 48t-52.5 35t-71 27t-78.5 20t-89.5 17.5q-179 32 -270 66q-301 112 -301 386q0 101 35.5 181t92 129t133 80.5t152 44t156.5 12.5q176 0 304 -48.5t255 -144.5l-157 -217
q-209 143 -433 143q-46 0 -87.5 -7.5t-80 -24t-61 -47t-22.5 -72.5q0 -20 6 -38t15 -32.5t26 -28t31 -23t39.5 -20t41.5 -16t47 -14t46.5 -12.5t49 -12t46.5 -11q20 -5 73 -15.5t88.5 -18.5t91 -26t94 -38.5t82.5 -55.5t71 -77t45 -102.5t18 -133.5q0 -222 -148 -338
t-403 -121l-29 -63q3 2 34.5 1.5t51.5 -7.5q110 -38 101 -164q-2 -34 -13 -62t-25.5 -45.5t-36 -30t-39 -18.5t-39.5 -9.5t-32.5 -4t-23.5 -0.5q-50 1 -92.5 15t-60.5 28l-17 14l51 101q37 -37 119 -35q26 0 44.5 16t18.5 43q0 47 -69 47q-25 0 -51.5 -7t-39.5 -14l-14 -7
l-29 47l64 159v2q-166 16 -286 71.5t-247 150.5z" />
    <glyph glyph-name="scedilla" unicode="&#x15f;" horiz-adv-x="1392" 
d="M106 199l144 217q84 -68 227.5 -124t265.5 -56q150 0 218.5 50.5t68.5 127.5q0 34 -11.5 61.5t-37 48t-52.5 35t-71 27t-78.5 20t-89.5 17.5q-179 32 -270 66q-301 112 -301 386q0 101 35.5 181t92 129t133 80.5t152 44t156.5 12.5q176 0 304 -48.5t255 -144.5l-157 -217
q-209 143 -433 143q-46 0 -87.5 -7.5t-80 -24t-61 -47t-22.5 -72.5q0 -20 6 -38t15 -32.5t26 -28t31 -23t39.5 -20t41.5 -16t47 -14t46.5 -12.5t49 -12t46.5 -11q20 -5 73 -15.5t88.5 -18.5t91 -26t94 -38.5t82.5 -55.5t71 -77t45 -102.5t18 -133.5q0 -222 -148 -338
t-403 -121l-29 -63q3 2 34.5 1.5t51.5 -7.5q110 -38 101 -164q-2 -34 -13 -62t-25.5 -45.5t-36 -30t-39 -18.5t-39.5 -9.5t-32.5 -4t-23.5 -0.5q-50 1 -92.5 15t-60.5 28l-17 14l51 101q37 -37 119 -35q26 0 44.5 16t18.5 43q0 47 -69 47q-25 0 -51.5 -7t-39.5 -14l-14 -7
l-29 47l64 159v2q-166 16 -286 71.5t-247 150.5z" />
    <glyph glyph-name="Scaron" unicode="&#x160;" horiz-adv-x="1392" 
d="M250 416l-144 -217q71 -53 126 -86.5t135 -70t175 -54t206 -17.5q262 0 415.5 117t153.5 342q0 59 -11.5 110t-29 89t-47.5 71.5t-58 56.5t-69 43t-71.5 32t-76 23.5t-72.5 17t-69.5 13.5t-58.5 11q-37 8 -49 10.5t-47 10.5t-49.5 12.5t-44.5 14t-44 17.5t-36.5 19.5
t-33 24t-23 27.5t-17 33t-4.5 38q0 42 22.5 72.5t61 47t80 24t87.5 7.5q224 0 433 -143l157 217q-127 96 -255 144.5t-304 48.5q-81 0 -156.5 -12.5t-152 -44t-133 -80.5t-92 -129t-35.5 -181q0 -55 13 -104t33 -86t53.5 -70t63.5 -55t75.5 -43t78 -32.5t81 -24t74.5 -18
t68 -13.5q21 -4 31 -6q49 -10 75.5 -15.5t68.5 -16.5t65.5 -20.5t52 -25.5t43 -34t25 -42.5t10.5 -54.5q0 -77 -68.5 -127.5t-218.5 -50.5q-122 0 -265.5 56t-227.5 124zM1067 1890l-250 -315h-239l-252 315h229l141 -143l142 143h229z" />
    <glyph glyph-name="scaron" unicode="&#x161;" horiz-adv-x="1392" 
d="M250 416l-144 -217q71 -53 126 -86.5t135 -70t175 -54t206 -17.5q262 0 415.5 117t153.5 342q0 59 -11.5 110t-29 89t-47.5 71.5t-58 56.5t-69 43t-71.5 32t-76 23.5t-72.5 17t-69.5 13.5t-58.5 11q-37 8 -49 10.5t-47 10.5t-49.5 12.5t-44.5 14t-44 17.5t-36.5 19.5
t-33 24t-23 27.5t-17 33t-4.5 38q0 42 22.5 72.5t61 47t80 24t87.5 7.5q224 0 433 -143l157 217q-127 96 -255 144.5t-304 48.5q-81 0 -156.5 -12.5t-152 -44t-133 -80.5t-92 -129t-35.5 -181q0 -55 13 -104t33 -86t53.5 -70t63.5 -55t75.5 -43t78 -32.5t81 -24t74.5 -18
t68 -13.5q21 -4 31 -6q49 -10 75.5 -15.5t68.5 -16.5t65.5 -20.5t52 -25.5t43 -34t25 -42.5t10.5 -54.5q0 -77 -68.5 -127.5t-218.5 -50.5q-122 0 -265.5 56t-227.5 124zM1067 1890l-250 -315h-239l-252 315h229l141 -143l142 143h229z" />
    <glyph glyph-name="uni0162" unicode="&#x162;" horiz-adv-x="1269" 
d="M1206 1499v-254h-428v-1245h-286v1245h-431v254h1145zM793 -184q21 -80 -3.5 -165t-91 -151.5t-159.5 -87.5l-35 74q125 42 141 154q-63 -3 -108.5 39t-47.5 104q-3 63 39 109t105 49q58 2 102.5 -32.5t57.5 -92.5z" />
    <glyph glyph-name="uni0163" unicode="&#x163;" horiz-adv-x="1269" 
d="M1206 1499v-254h-428v-1245h-286v1245h-431v254h1145zM793 -184q21 -80 -3.5 -165t-91 -151.5t-159.5 -87.5l-35 74q125 42 141 154q-63 -3 -108.5 39t-47.5 104q-3 63 39 109t105 49q58 2 102.5 -32.5t57.5 -92.5z" />
    <glyph glyph-name="Tcaron" unicode="&#x164;" horiz-adv-x="1269" 
d="M1206 1499v-254h-428v-1245h-286v1245h-431v254h1145zM1004 1888l-250 -315h-240l-252 315h230l141 -143l141 143h230z" />
    <glyph glyph-name="tcaron" unicode="&#x165;" horiz-adv-x="1269" 
d="M1206 1499v-254h-428v-1245h-286v1245h-431v254h1145zM1004 1888l-250 -315h-240l-252 315h230l141 -143l141 143h230z" />
    <glyph glyph-name="Umacron" unicode="&#x16a;" horiz-adv-x="1613" 
d="M807 -27q-292 0 -467.5 172t-175.5 459v895h287v-895q0 -86 24.5 -154.5t62 -109.5t87 -68t94 -37t88.5 -10t88.5 10t94 37t87 68t62 109.5t24.5 154.5v895h287v-895q0 -287 -175 -459t-468 -172zM1124 1786v-189h-630v189h630z" />
    <glyph glyph-name="umacron" unicode="&#x16b;" horiz-adv-x="1613" 
d="M807 -27q-292 0 -467.5 172t-175.5 459v895h287v-895q0 -86 24.5 -154.5t62 -109.5t87 -68t94 -37t88.5 -10t88.5 10t94 37t87 68t62 109.5t24.5 154.5v895h287v-895q0 -287 -175 -459t-468 -172zM1124 1786v-189h-630v189h630z" />
    <glyph glyph-name="Uring" unicode="&#x16e;" horiz-adv-x="1613" 
d="M807 -27q293 0 468 172t175 459v895h-287v-895q0 -86 -24.5 -154.5t-62 -109.5t-87 -68t-94 -37t-88.5 -10t-88.5 10t-94 37t-87 68t-62 109.5t-24.5 154.5v895h-287v-895q0 -287 175.5 -459t467.5 -172zM811 1497q-92 0 -156.5 64.5t-64.5 156.5q0 91 64.5 155t156.5 64
q91 0 155 -64t64 -155q0 -92 -64 -156.5t-155 -64.5zM811 1800q-35 0 -59.5 -24t-24.5 -58q0 -35 24.5 -59.5t59.5 -24.5q34 0 58 24.5t24 59.5q0 34 -24 58t-58 24z" />
    <glyph glyph-name="uring" unicode="&#x16f;" horiz-adv-x="1613" 
d="M807 -27q293 0 468 172t175 459v895h-287v-895q0 -86 -24.5 -154.5t-62 -109.5t-87 -68t-94 -37t-88.5 -10t-88.5 10t-94 37t-87 68t-62 109.5t-24.5 154.5v895h-287v-895q0 -287 175.5 -459t467.5 -172zM811 1497q-92 0 -156.5 64.5t-64.5 156.5q0 91 64.5 155t156.5 64
q91 0 155 -64t64 -155q0 -92 -64 -156.5t-155 -64.5zM811 1800q-35 0 -59.5 -24t-24.5 -58q0 -35 24.5 -59.5t59.5 -24.5q34 0 58 24.5t24 59.5q0 34 -24 58t-58 24z" />
    <glyph glyph-name="Uhungarumlaut" unicode="&#x170;" horiz-adv-x="1613" 
d="M807 -27q293 0 468 172t175 459v895h-287v-895q0 -86 -24.5 -154.5t-62 -109.5t-87 -68t-94 -37t-88.5 -10t-88.5 10t-94 37t-87 68t-62 109.5t-24.5 154.5v895h-287v-895q0 -287 175.5 -459t467.5 -172zM834 1599l239 310l238 -103l-277 -207h-200zM446 1599l240 310
l238 -103l-277 -207h-201z" />
    <glyph glyph-name="uhungarumlaut" unicode="&#x171;" horiz-adv-x="1613" 
d="M807 -27q293 0 468 172t175 459v895h-287v-895q0 -86 -24.5 -154.5t-62 -109.5t-87 -68t-94 -37t-88.5 -10t-88.5 10t-94 37t-87 68t-62 109.5t-24.5 154.5v895h-287v-895q0 -287 175.5 -459t467.5 -172zM834 1599l239 310l238 -103l-277 -207h-200zM446 1599l240 310
l238 -103l-277 -207h-201z" />
    <glyph glyph-name="Uogonek" unicode="&#x172;" horiz-adv-x="1613" 
d="M942 -399q-122 0 -201 69q-54 43 -71.5 128t12.5 186q-239 34 -378.5 199.5t-139.5 420.5v895h287v-895q0 -86 24.5 -154.5t62 -109.5t87 -68t94 -37t88.5 -10t88.5 10t94 37t87 68t62 109.5t24.5 154.5v895h287v-895q0 -251 -136 -415.5t-370 -202.5q-31 -5 -47 -12
t-29 -23q-25 -31 -26 -68.5t22 -62.5q28 -31 77 -36.5t108 23.5l75 -167q-76 -39 -182 -39z" />
    <glyph glyph-name="uogonek" unicode="&#x173;" horiz-adv-x="1613" 
d="M942 -399q-122 0 -201 69q-54 43 -71.5 128t12.5 186q-239 34 -378.5 199.5t-139.5 420.5v895h287v-895q0 -86 24.5 -154.5t62 -109.5t87 -68t94 -37t88.5 -10t88.5 10t94 37t87 68t62 109.5t24.5 154.5v895h287v-895q0 -251 -136 -415.5t-370 -202.5q-31 -5 -47 -12
t-29 -23q-25 -31 -26 -68.5t22 -62.5q28 -31 77 -36.5t108 23.5l75 -167q-76 -39 -182 -39z" />
    <glyph glyph-name="Ydieresis" unicode="&#x178;" horiz-adv-x="1452" 
d="M1108 1499h334l-572 -932v-567h-286v567l-568 932h334l377 -637zM381 1714q0 59 40.5 99t100.5 40q58 0 97.5 -40t39.5 -99q0 -58 -39.5 -97.5t-97.5 -39.5q-60 0 -100.5 39.5t-40.5 97.5zM799 1714q0 59 39.5 99t99.5 40q58 0 98.5 -40.5t40.5 -98.5t-40 -97.5
t-99 -39.5q-60 0 -99.5 39t-39.5 98z" />
    <glyph glyph-name="Zacute" unicode="&#x179;" horiz-adv-x="1437" 
d="M1382 1499v-35l-841 -1210h813v-254h-1311v33l844 1212h-781v254h1276zM563 1591l240 310l237 -103l-274 -207h-203z" />
    <glyph glyph-name="zacute" unicode="&#x17a;" horiz-adv-x="1437" 
d="M1382 1499v-35l-841 -1210h813v-254h-1311v33l844 1212h-781v254h1276zM563 1591l240 310l237 -103l-274 -207h-203z" />
    <glyph glyph-name="Zdotaccent" unicode="&#x17b;" horiz-adv-x="1437" 
d="M1382 1499v-35l-841 -1210h813v-254h-1311v33l844 1212h-781v254h1276zM590 1726q0 59 40.5 99.5t100.5 40.5q58 0 97.5 -40.5t39.5 -99.5q0 -58 -39 -97.5t-98 -39.5q-60 0 -100.5 39.5t-40.5 97.5z" />
    <glyph glyph-name="zdotaccent" unicode="&#x17c;" horiz-adv-x="1437" 
d="M1382 1499v-35l-841 -1210h813v-254h-1311v33l844 1212h-781v254h1276zM590 1726q0 59 40.5 99.5t100.5 40.5q58 0 97.5 -40.5t39.5 -99.5q0 -58 -39 -97.5t-98 -39.5q-60 0 -100.5 39.5t-40.5 97.5z" />
    <glyph glyph-name="Zcaron" unicode="&#x17d;" horiz-adv-x="1437" 
d="M1382 1499v-35l-841 -1210h813v-254h-1311v33l844 1212h-781v254h1276zM1094 1884l-250 -315h-240l-252 315h230l141 -143l141 143h230z" />
    <glyph glyph-name="zcaron" unicode="&#x17e;" horiz-adv-x="1437" 
d="M1382 1499v-35l-841 -1210h813v-254h-1311v33l844 1212h-781v254h1276zM1094 1884l-250 -315h-240l-252 315h230l141 -143l141 143h230z" />
    <glyph glyph-name="uni0218" unicode="&#x218;" horiz-adv-x="1392" 
d="M106 199l144 217q84 -68 227.5 -124t265.5 -56q150 0 218.5 50.5t68.5 127.5q0 30 -10.5 54.5t-25 42.5t-43 34t-52 25.5t-65.5 20.5t-68.5 16.5t-75.5 15.5q-10 2 -31 6q-43 8 -68 13.5t-74.5 18t-81 24t-77.5 32.5t-76 43t-64 55t-53.5 70t-32.5 86t-13 104
q0 101 35.5 181t92 129t133 80.5t152 44t156.5 12.5q176 0 304 -48.5t255 -144.5l-157 -217q-209 143 -433 143q-46 0 -87.5 -7.5t-80 -24t-61 -47t-22.5 -72.5q0 -20 4.5 -38t17 -33t23 -27.5t33 -24t36.5 -19.5t44 -17.5t44.5 -14t49.5 -12.5t47 -10.5t49 -10.5
q16 -3 58.5 -11t69.5 -13.5t72.5 -17t76 -23.5t71.5 -32t69 -43t58 -56.5t47.5 -71.5t29 -89t11.5 -110q0 -225 -153.5 -342t-415.5 -117q-111 0 -206 17.5t-175 54t-135 70t-126 86.5zM905 -186q21 -80 -3.5 -165t-91 -151.5t-159.5 -87.5l-35 74q63 21 98.5 61t43.5 93
q-63 -3 -108.5 39t-47.5 104q-3 63 38.5 109t104.5 49q58 2 102.5 -32.5t57.5 -92.5z" />
    <glyph glyph-name="uni0219" unicode="&#x219;" horiz-adv-x="1392" 
d="M106 199l144 217q84 -68 227.5 -124t265.5 -56q150 0 218.5 50.5t68.5 127.5q0 30 -10.5 54.5t-25 42.5t-43 34t-52 25.5t-65.5 20.5t-68.5 16.5t-75.5 15.5q-10 2 -31 6q-43 8 -68 13.5t-74.5 18t-81 24t-77.5 32.5t-76 43t-64 55t-53.5 70t-32.5 86t-13 104
q0 101 35.5 181t92 129t133 80.5t152 44t156.5 12.5q176 0 304 -48.5t255 -144.5l-157 -217q-209 143 -433 143q-46 0 -87.5 -7.5t-80 -24t-61 -47t-22.5 -72.5q0 -20 4.5 -38t17 -33t23 -27.5t33 -24t36.5 -19.5t44 -17.5t44.5 -14t49.5 -12.5t47 -10.5t49 -10.5
q16 -3 58.5 -11t69.5 -13.5t72.5 -17t76 -23.5t71.5 -32t69 -43t58 -56.5t47.5 -71.5t29 -89t11.5 -110q0 -225 -153.5 -342t-415.5 -117q-111 0 -206 17.5t-175 54t-135 70t-126 86.5zM905 -186q21 -80 -3.5 -165t-91 -151.5t-159.5 -87.5l-35 74q63 21 98.5 61t43.5 93
q-63 -3 -108.5 39t-47.5 104q-3 63 38.5 109t104.5 49q58 2 102.5 -32.5t57.5 -92.5z" />
    <glyph glyph-name="uni021A" unicode="&#x21a;" horiz-adv-x="1269" 
d="M1206 1499v-254h-428v-1245h-286v1245h-431v254h1145zM793 -184q21 -80 -3.5 -165t-91 -151.5t-159.5 -87.5l-35 74q125 42 141 154q-63 -3 -108.5 39t-47.5 104q-3 63 39 109t105 49q58 2 102.5 -32.5t57.5 -92.5z" />
    <glyph glyph-name="uni021B" unicode="&#x21b;" horiz-adv-x="1269" 
d="M1206 1499v-254h-428v-1245h-286v1245h-431v254h1145zM793 -184q21 -80 -3.5 -165t-91 -151.5t-159.5 -87.5l-35 74q125 42 141 154q-63 -3 -108.5 39t-47.5 104q-3 63 39 109t105 49q58 2 102.5 -32.5t57.5 -92.5z" />
    <glyph glyph-name="circumflex" unicode="&#x2c6;" horiz-adv-x="882" 
d="M63 1593l250 316h240l252 -316h-230l-145 146l-137 -146h-230z" />
    <glyph glyph-name="caron" unicode="&#x2c7;" horiz-adv-x="884" 
d="M807 1909l-250 -316h-240l-251 316h229l141 -144l142 144h229z" />
    <glyph glyph-name="breve" unicode="&#x2d8;" horiz-adv-x="876" 
d="M629 1884h186q-22 -142 -124.5 -227.5t-252.5 -85.5q-148 0 -250.5 86.5t-124.5 226.5h187q19 -67 71.5 -99t118.5 -32q147 0 189 131z" />
    <glyph glyph-name="dotaccent" unicode="&#x2d9;" horiz-adv-x="432" 
d="M72 1735q0 59 40.5 99t100.5 40q58 0 97.5 -40t39.5 -99t-39.5 -98.5t-97.5 -39.5q-60 0 -100.5 39.5t-40.5 98.5z" />
    <glyph glyph-name="ring" unicode="&#x2da;" horiz-adv-x="569" 
d="M285 1436q-92 0 -157 64.5t-65 156.5q0 91 65 155t157 64q91 0 155 -64t64 -155q0 -92 -64 -156.5t-155 -64.5zM285 1739q-35 0 -59.5 -24t-24.5 -58q0 -35 24.5 -59.5t59.5 -24.5q34 0 58 24.5t24 59.5q0 34 -24 58t-58 24z" />
    <glyph glyph-name="ogonek" unicode="&#x2db;" horiz-adv-x="569" 
d="M348 -387q-116 0 -182 55q-77 63 -92 172.5t47 212.5q42 65 114 96t138 35l10 -184q-35 0 -68.5 -18t-48.5 -43q-16 -25 -13 -50.5t11.5 -41.5t18.5 -25q24 -21 63 -23t66 5t43 16l75 -168q-23 -13 -83.5 -27.5t-98.5 -11.5z" />
    <glyph glyph-name="tilde" unicode="&#x2dc;" horiz-adv-x="968" 
d="M633 1573q-47 0 -85 14t-62.5 33.5t-46 39.5t-46.5 34t-53 14q-21 0 -39 -11.5t-29 -28t-19 -33.5t-11 -29l-4 -11l-166 47q10 38 29 77t49 78.5t77 65.5t101 27q48 1 87 -13t64.5 -34t47.5 -40t46.5 -34t51.5 -14q29 0 54 23.5t35 47.5l11 23l164 -59
q-34 -95 -101.5 -156t-154.5 -61z" />
    <glyph glyph-name="hungarumlaut" unicode="&#x2dd;" horiz-adv-x="978" 
d="M438 1599l240 310l237 -103l-276 -207h-201zM51 1599l240 310l237 -103l-276 -207h-201z" />
    <glyph glyph-name="endash" unicode="&#x2013;" horiz-adv-x="1011" 
d="M926 897v-252h-848v252h848z" />
    <glyph glyph-name="emdash" unicode="&#x2014;" horiz-adv-x="1507" 
d="M1417 897v-252h-1339v252h1339z" />
    <glyph glyph-name="quoteleft" unicode="&#x2018;" horiz-adv-x="503" 
d="M94 1122q-21 80 3.5 165t91 151.5t159.5 87.5l35 -74q-62 -21 -97.5 -61.5t-43.5 -92.5q63 3 108 -39t47 -104q3 -63 -38.5 -109t-104.5 -49q-58 -2 -102.5 32.5t-57.5 92.5z" />
    <glyph glyph-name="quoteright" unicode="&#x2019;" horiz-adv-x="393" 
d="M346 1401q21 -80 -3.5 -165t-91 -151.5t-159.5 -87.5l-35 74q63 21 98.5 61t43.5 93q-63 -3 -108.5 39t-47.5 104q-3 63 38.5 109t104.5 49q58 2 102.5 -32.5t57.5 -92.5z" />
    <glyph glyph-name="quotesinglbase" unicode="&#x201a;" horiz-adv-x="430" 
d="M356 160q21 -79 -3 -164t-90.5 -152t-160.5 -88l-34 76q124 39 141 152q-62 -2 -107.5 40t-48.5 103q-3 63 39.5 109t104.5 49q57 2 101.5 -32.5t57.5 -92.5z" />
    <glyph glyph-name="quotedblleft" unicode="&#x201c;" horiz-adv-x="907" 
d="M483 1122q-21 80 3.5 165t91 151.5t159.5 87.5l35 -74q-62 -21 -97.5 -61.5t-41.5 -92.5q61 3 106 -39t47 -104q3 -63 -38.5 -109t-104.5 -49q-58 -2 -102.5 32.5t-57.5 92.5zM94 1122q-21 80 3.5 165t91 151.5t159.5 87.5l35 -74q-62 -21 -97.5 -61.5t-43.5 -92.5
q63 3 108 -39t47 -104q3 -63 -38.5 -109t-104.5 -49q-58 -2 -102.5 32.5t-57.5 92.5z" />
    <glyph glyph-name="quotedblright" unicode="&#x201d;" horiz-adv-x="802" 
d="M358 1399q21 -80 -3.5 -165t-91 -151.5t-159.5 -87.5l-34 74q62 21 97.5 61.5t41.5 92.5q-61 -3 -107 39.5t-47 103.5q-3 63 39 109t105 49q57 2 101.5 -32.5t57.5 -92.5zM748 1399q21 -80 -3.5 -165t-91 -151.5t-159.5 -87.5l-35 74q62 21 97.5 61.5t43.5 92.5
q-63 -3 -108.5 39t-47.5 104q-3 63 39 109t105 49q58 2 102.5 -32.5t57.5 -92.5z" />
    <glyph glyph-name="quotedblbase" unicode="&#x201e;" horiz-adv-x="802" 
d="M358 158q21 -80 -3.5 -165t-91 -151.5t-159.5 -87.5l-34 74q62 21 97.5 61.5t41.5 92.5q-61 -3 -107 39.5t-47 103.5q-3 63 39 109t105 49q57 2 101.5 -32.5t57.5 -92.5zM748 158q21 -80 -3.5 -165t-91 -151.5t-159.5 -87.5l-35 74q62 21 97.5 61.5t43.5 92.5
q-63 -3 -108.5 39t-47.5 104q-3 63 39 109t105 49q58 2 102.5 -32.5t57.5 -92.5z" />
    <glyph glyph-name="dagger" unicode="&#x2020;" horiz-adv-x="989" 
d="M944 1165v-231h-334v-934h-231v934h-334v231h334v391h231v-391h334z" />
    <glyph glyph-name="daggerdbl" unicode="&#x2021;" horiz-adv-x="1001" 
d="M45 391v232h334v311h-334v231h334v391h231v-391h334v-231h-334v-311h334v-232h-334v-391h-231v391h-334z" />
    <glyph glyph-name="bullet" unicode="&#x2022;" horiz-adv-x="741" 
d="M139 829q0 95 68.5 163.5t163.5 68.5t163 -68.5t68 -163.5t-68 -163t-163 -68t-163.5 68t-68.5 163z" />
    <glyph glyph-name="ellipsis" unicode="&#x2026;" horiz-adv-x="1497" 
d="M406 135q0 -63 -44.5 -107t-107.5 -44q-62 0 -106 44t-44 107q0 61 44 105.5t106 44.5q63 0 107.5 -44t44.5 -106zM891 135q0 -63 -44.5 -107t-107.5 -44q-62 0 -105.5 44t-43.5 107q0 62 44 106t105 44q63 0 107.5 -44t44.5 -106zM1376 135q0 -63 -44 -107t-107 -44
q-62 0 -106 44t-44 107q0 61 44.5 105.5t105.5 44.5q63 0 107 -44t44 -106z" />
    <glyph glyph-name="perthousand" unicode="&#x2030;" horiz-adv-x="2813" 
d="M451 672q-166 0 -274.5 118.5t-108.5 299.5q0 183 108.5 301t274.5 118t274.5 -118t108.5 -301q0 -178 -110 -298t-273 -120zM2365 -31q-166 0 -273 118.5t-107 301.5q0 182 107 300t273 118t274.5 -118.5t108.5 -299.5q0 -180 -109.5 -300t-273.5 -120zM1505 -31
q-166 0 -274.5 118.5t-108.5 301.5q0 181 108.5 299.5t274.5 118.5t273.5 -118t107.5 -300q0 -180 -109 -300t-272 -120zM659 0h-233l889 1501h233zM2365 590q-42 0 -70.5 -24.5t-40 -63t-15 -64.5t-3.5 -49q0 -20 3.5 -45.5t14.5 -65.5t39.5 -66t71.5 -26q62 0 97 65
t35 138q0 43 -12 86.5t-43.5 79t-76.5 35.5zM1505 590q-42 0 -70.5 -24.5t-40 -63t-15 -64.5t-3.5 -49q0 -20 3.5 -45.5t14.5 -65.5t39.5 -66t71.5 -26q42 0 72.5 34t43.5 78.5t13 90.5q0 43 -11.5 86.5t-42 79t-75.5 35.5zM451 1290q-42 0 -70.5 -24.5t-40 -62.5t-15 -64
t-3.5 -49q0 -20 3.5 -44.5t14.5 -64.5t39.5 -66t71.5 -26q42 0 72.5 34t43.5 78t13 89q0 44 -11.5 87t-42 78t-75.5 35z" />
    <glyph glyph-name="guilsinglleft" unicode="&#x2039;" horiz-adv-x="829" 
d="M711 279h-297l-303 473l305 479h293l-318 -479z" />
    <glyph glyph-name="guilsinglright" unicode="&#x203a;" horiz-adv-x="829" 
d="M408 279h-297l319 473l-317 479h293l305 -479z" />
    <glyph glyph-name="fraction" unicode="&#x2044;" horiz-adv-x="1083" 
d="M190 0h-190l895 1501h188z" />
    <glyph glyph-name="Euro" unicode="&#x20ac;" horiz-adv-x="1404" 
d="M1108 416l250 -113q-2 -6 -9.5 -22t-28.5 -48.5t-47.5 -65.5t-70 -69t-93.5 -63.5t-120.5 -45.5t-148.5 -18q-105 0 -201.5 29.5t-184 89.5t-152.5 165t-93 243h-164v207h145v6q0 21 5 98h-150v207h184q46 166 150 289q88 106 207 162.5t254 56.5q96 0 184 -31t143 -70.5
t101 -89t62 -74t22 -36.5l-252 -138q-5 11 -15 28t-33.5 44.5t-51.5 50.5t-71 39.5t-89 16.5q-101 0 -182 -67t-128 -181h414v-207h-463q-4 -31 -4 -98v-6h467v-207h-440q16 -55 42 -100t65.5 -84t98 -61t130.5 -22q55 0 103 19t77 45.5t50 54.5t29.5 46t8.5 20zM1102 1083
q0 2 -2 2z" />
    <glyph glyph-name="trademark" unicode="&#x2122;" horiz-adv-x="1738" 
d="M1542 1501h45v-756h-184v297l-193 -233l-192 233v-297h-184v756h45l331 -405zM104 1323v178h635v-178h-225v-578h-184v578h-226z" />
    <glyph glyph-name="notequal" unicode="&#x2260;" horiz-adv-x="1150" 
d="M1036 856h-272l-113 -231h385v-265h-514l-102 -208h-293l102 208h-125v265h254l115 231h-369v264h498l103 209h292l-104 -209h143v-264z" />
    <glyph glyph-name="lessequal" unicode="&#x2264;" horiz-adv-x="1064" 
d="M954 0h-854v252h854v-252zM104 987l848 399v-309l-526 -192l526 -187v-309l-848 377v221z" />
    <glyph glyph-name="greaterequal" unicode="&#x2265;" horiz-adv-x="1064" 
d="M954 252v-252h-854v252h854zM104 1386l848 -399v-221l-848 -377v309l527 187l-527 192v309z" />
    <glyph glyph-name="NULL" horiz-adv-x="0" 
 />
    <glyph glyph-name="CR" horiz-adv-x="700" 
 />
    </font>
</defs>
</svg>
