<?xml version="1.0" encoding="utf-8"?>
<!-- Generator: Adobe Illustrator 16.0.0, SVG Export Plug-In . SVG Version: 6.00 Build 0)  -->
<!DOCTYPE svg PUBLIC "-//W3C//DTD SVG 1.1//EN" "http://www.w3.org/Graphics/SVG/1.1/DTD/svg11.dtd">
<svg version="1.1" id="Layer_1" xmlns="http://www.w3.org/2000/svg" xmlns:xlink="http://www.w3.org/1999/xlink" x="0px" y="0px"
	 width="100px" height="100px" viewBox="462 462 100 100" enable-background="new 462 462 100 100" xml:space="preserve">
<title></title>
<g id="icomoon-ignore">
</g>
<path d="M521.16,514.731l38.938-38.939c2.534-2.533,2.534-6.628,0-9.161c-2.533-2.533-6.628-2.533-9.161,0l-38.938,38.938
	l-38.938-38.938c-2.534-2.533-6.628-2.533-9.161,0c-2.534,2.533-2.534,6.628,0,9.161l38.938,38.939l-38.939,38.938
	c-2.534,2.533-2.534,6.628,0,9.161c1.262,1.264,2.922,1.896,4.581,1.896c1.658,0,3.317-0.634,4.581-1.896l38.938-38.938
	l38.938,38.938c1.264,1.264,2.922,1.896,4.581,1.896c1.658,0,3.316-0.634,4.58-1.896c2.534-2.533,2.534-6.628,0-9.161
	L521.16,514.731L521.16,514.731z"/>
</svg>
